<svg class="main-svg" xmlns="http://www.w3.org/2000/svg" xmlns:xlink="http://www.w3.org/1999/xlink" width="400" height="400" style="" viewBox="0 0 400 400"><rect x="0" y="0" width="400" height="400" style="fill: rgb(255, 255, 255); fill-opacity: 1;"/><defs id="defs-0acbb2"><g class="clips"><clipPath id="clip0acbb2xyplot" class="plotclip"><rect width="238" height="260"/></clipPath><clipPath class="axesclip" id="clip0acbb2x"><rect x="82" y="0" width="238" height="400"/></clipPath><clipPath class="axesclip" id="clip0acbb2y"><rect x="0" y="60" width="400" height="260"/></clipPath><clipPath class="axesclip" id="clip0acbb2xy"><rect x="82" y="60" width="238" height="260"/></clipPath></g><g class="gradients"/><g class="patterns"/></defs><g class="bglayer"/><g class="layer-below"><g class="imagelayer"/><g class="shapelayer"/></g><g class="cartesianlayer"><g class="subplot xy"><g class="layer-subplot"><g class="shapelayer"/><g class="imagelayer"/></g><g class="minor-gridlayer"><g class="x"/><g class="y"/></g><g class="gridlayer"><g class="x"/><g class="y"><path class="ygrid crisp" transform="translate(0,314.68)" d="M82,0h238" style="stroke: rgb(235, 240, 248); stroke-opacity: 1; stroke-width: 1px;"/><path class="ygrid crisp" transform="translate(0,279.01)" d="M82,0h238" style="stroke: rgb(235, 240, 248); stroke-opacity: 1; stroke-width: 1px;"/><path class="ygrid crisp" transform="translate(0,207.69)" d="M82,0h238" style="stroke: rgb(235, 240, 248); stroke-opacity: 1; stroke-width: 1px;"/><path class="ygrid crisp" transform="translate(0,172.03)" d="M82,0h238" style="stroke: rgb(235, 240, 248); stroke-opacity: 1; stroke-width: 1px;"/><path class="ygrid crisp" transform="translate(0,136.37)" d="M82,0h238" style="stroke: rgb(235, 240, 248); stroke-opacity: 1; stroke-width: 1px;"/><path class="ygrid crisp" transform="translate(0,100.7)" d="M82,0h238" style="stroke: rgb(235, 240, 248); stroke-opacity: 1; stroke-width: 1px;"/><path class="ygrid crisp" transform="translate(0,65.04)" d="M82,0h238" style="stroke: rgb(235, 240, 248); stroke-opacity: 1; stroke-width: 1px;"/></g></g><g class="zerolinelayer"><path class="yzl zl crisp" transform="translate(0,243.35)" d="M82,0h238" style="stroke: rgb(235, 240, 248); stroke-opacity: 1; stroke-width: 2px;"/></g><g class="layer-between"><g class="shapelayer"/><g class="imagelayer"/></g><path class="xlines-below"/><path class="ylines-below"/><g class="overlines-below"/><g class="xaxislayer-below"/><g class="yaxislayer-below"/><g class="overaxes-below"/><g class="overplot"><g class="xy" transform="translate(82,60)" clip-path="url(#clip0acbb2xyplot)"><g class="boxlayer mlayer"><g class="trace boxes" style="opacity: 1;"><path class="box" d="M23.89,191.84H62.11M23.89,204.7H62.11V180.55H23.89ZM43,204.7V227.42M43,180.55V144.45M33.45,227.42H52.56M33.45,144.45H52.56" style="vector-effect: none; stroke-width: 2px; stroke: rgb(204, 102, 119); stroke-opacity: 1; fill: rgb(204, 102, 119); fill-opacity: 0.5;"/><path class="box" d="M101.89,155.55H140.11M101.89,169.93H140.11V119.84H101.89ZM121,169.93V244.45M121,119.84V44.9M111.45,244.45H130.56M111.45,44.9H130.56" style="vector-effect: none; stroke-width: 2px; stroke: rgb(204, 102, 119); stroke-opacity: 1; fill: rgb(204, 102, 119); fill-opacity: 0.5;"/><path class="box" d="M179.89,168.67H218.11M179.89,172.26H218.11V165.51H179.89ZM199,172.26V178.7M199,165.51V157.05M189.45,178.7H208.56M189.45,157.05H208.56" style="vector-effect: none; stroke-width: 2px; stroke: rgb(204, 102, 119); stroke-opacity: 1; fill: rgb(204, 102, 119); fill-opacity: 0.5;"/><g class="points"><path class="point" transform="translate(15.24,245.3)" d="M4,0A4,4 0 1,1 0,-4A4,4 0 0,1 4,0Z" style="opacity: 0.5; stroke-width: 0px; fill: rgb(204, 102, 119); fill-opacity: 1;"/><path class="point" transform="translate(13.12,227.42)" d="M4,0A4,4 0 1,1 0,-4A4,4 0 0,1 4,0Z" style="opacity: 0.5; stroke-width: 0px; fill: rgb(204, 102, 119); fill-opacity: 1;"/><path class="point" transform="translate(15.88,221.11)" d="M4,0A4,4 0 1,1 0,-4A4,4 0 0,1 4,0Z" style="opacity: 0.5; stroke-width: 0px; fill: rgb(204, 102, 119); fill-opacity: 1;"/><path class="point" transform="translate(12.62,215.81)" d="M4,0A4,4 0 1,1 0,-4A4,4 0 0,1 4,0Z" style="opacity: 0.5; stroke-width: 0px; fill: rgb(204, 102, 119); fill-opacity: 1;"/><path class="point" transform="translate(13.82,214.13)" d="M4,0A4,4 0 1,1 0,-4A4,4 0 0,1 4,0Z" style="opacity: 0.5; stroke-width: 0px; fill: rgb(204, 102, 119); fill-opacity: 1;"/><path class="point" transform="translate(15.44,213.31)" d="M4,0A4,4 0 1,1 0,-4A4,4 0 0,1 4,0Z" style="opacity: 0.5; stroke-width: 0px; fill: rgb(204, 102, 119); fill-opacity: 1;"/><path class="point" transform="translate(14.23,212.8)" d="M4,0A4,4 0 1,1 0,-4A4,4 0 0,1 4,0Z" style="opacity: 0.5; stroke-width: 0px; fill: rgb(204, 102, 119); fill-opacity: 1;"/><path class="point" transform="translate(15.17,211.02)" d="M4,0A4,4 0 1,1 0,-4A4,4 0 0,1 4,0Z" style="opacity: 0.5; stroke-width: 0px; fill: rgb(204, 102, 119); fill-opacity: 1;"/><path class="point" transform="translate(13.33,207.26)" d="M4,0A4,4 0 1,1 0,-4A4,4 0 0,1 4,0Z" style="opacity: 0.5; stroke-width: 0px; fill: rgb(204, 102, 119); fill-opacity: 1;"/><path class="point" transform="translate(11.98,204.7)" d="M4,0A4,4 0 1,1 0,-4A4,4 0 0,1 4,0Z" style="opacity: 0.5; stroke-width: 0px; fill: rgb(204, 102, 119); fill-opacity: 1;"/><path class="point" transform="translate(15.18,201)" d="M4,0A4,4 0 1,1 0,-4A4,4 0 0,1 4,0Z" style="opacity: 0.5; stroke-width: 0px; fill: rgb(204, 102, 119); fill-opacity: 1;"/><path class="point" transform="translate(13.31,200.7)" d="M4,0A4,4 0 1,1 0,-4A4,4 0 0,1 4,0Z" style="opacity: 0.5; stroke-width: 0px; fill: rgb(204, 102, 119); fill-opacity: 1;"/><path class="point" transform="translate(16.4,197.56)" d="M4,0A4,4 0 1,1 0,-4A4,4 0 0,1 4,0Z" style="opacity: 0.5; stroke-width: 0px; fill: rgb(204, 102, 119); fill-opacity: 1;"/><path class="point" transform="translate(10.87,196.02)" d="M4,0A4,4 0 1,1 0,-4A4,4 0 0,1 4,0Z" style="opacity: 0.5; stroke-width: 0px; fill: rgb(204, 102, 119); fill-opacity: 1;"/><path class="point" transform="translate(12.08,195.12)" d="M4,0A4,4 0 1,1 0,-4A4,4 0 0,1 4,0Z" style="opacity: 0.5; stroke-width: 0px; fill: rgb(204, 102, 119); fill-opacity: 1;"/><path class="point" transform="translate(18.39,193.53)" d="M4,0A4,4 0 1,1 0,-4A4,4 0 0,1 4,0Z" style="opacity: 0.5; stroke-width: 0px; fill: rgb(204, 102, 119); fill-opacity: 1;"/><path class="point" transform="translate(13.17,192.6)" d="M4,0A4,4 0 1,1 0,-4A4,4 0 0,1 4,0Z" style="opacity: 0.5; stroke-width: 0px; fill: rgb(204, 102, 119); fill-opacity: 1;"/><path class="point" transform="translate(10.2,192.58)" d="M4,0A4,4 0 1,1 0,-4A4,4 0 0,1 4,0Z" style="opacity: 0.5; stroke-width: 0px; fill: rgb(204, 102, 119); fill-opacity: 1;"/><path class="point" transform="translate(12.66,191.86)" d="M4,0A4,4 0 1,1 0,-4A4,4 0 0,1 4,0Z" style="opacity: 0.5; stroke-width: 0px; fill: rgb(204, 102, 119); fill-opacity: 1;"/><path class="point" transform="translate(14.23,191.81)" d="M4,0A4,4 0 1,1 0,-4A4,4 0 0,1 4,0Z" style="opacity: 0.5; stroke-width: 0px; fill: rgb(204, 102, 119); fill-opacity: 1;"/><path class="point" transform="translate(16.91,191.7)" d="M4,0A4,4 0 1,1 0,-4A4,4 0 0,1 4,0Z" style="opacity: 0.5; stroke-width: 0px; fill: rgb(204, 102, 119); fill-opacity: 1;"/><path class="point" transform="translate(14.94,191.68)" d="M4,0A4,4 0 1,1 0,-4A4,4 0 0,1 4,0Z" style="opacity: 0.5; stroke-width: 0px; fill: rgb(204, 102, 119); fill-opacity: 1;"/><path class="point" transform="translate(13.17,189.13)" d="M4,0A4,4 0 1,1 0,-4A4,4 0 0,1 4,0Z" style="opacity: 0.5; stroke-width: 0px; fill: rgb(204, 102, 119); fill-opacity: 1;"/><path class="point" transform="translate(10.86,188.45)" d="M4,0A4,4 0 1,1 0,-4A4,4 0 0,1 4,0Z" style="opacity: 0.5; stroke-width: 0px; fill: rgb(204, 102, 119); fill-opacity: 1;"/><path class="point" transform="translate(14.32,187.6)" d="M4,0A4,4 0 1,1 0,-4A4,4 0 0,1 4,0Z" style="opacity: 0.5; stroke-width: 0px; fill: rgb(204, 102, 119); fill-opacity: 1;"/><path class="point" transform="translate(13.22,187.58)" d="M4,0A4,4 0 1,1 0,-4A4,4 0 0,1 4,0Z" style="opacity: 0.5; stroke-width: 0px; fill: rgb(204, 102, 119); fill-opacity: 1;"/><path class="point" transform="translate(15.99,185.93)" d="M4,0A4,4 0 1,1 0,-4A4,4 0 0,1 4,0Z" style="opacity: 0.5; stroke-width: 0px; fill: rgb(204, 102, 119); fill-opacity: 1;"/><path class="point" transform="translate(14.01,181.07)" d="M4,0A4,4 0 1,1 0,-4A4,4 0 0,1 4,0Z" style="opacity: 0.5; stroke-width: 0px; fill: rgb(204, 102, 119); fill-opacity: 1;"/><path class="point" transform="translate(12.06,180.55)" d="M4,0A4,4 0 1,1 0,-4A4,4 0 0,1 4,0Z" style="opacity: 0.5; stroke-width: 0px; fill: rgb(204, 102, 119); fill-opacity: 1;"/><path class="point" transform="translate(12.35,179.91)" d="M4,0A4,4 0 1,1 0,-4A4,4 0 0,1 4,0Z" style="opacity: 0.5; stroke-width: 0px; fill: rgb(204, 102, 119); fill-opacity: 1;"/><path class="point" transform="translate(15.5,178.3)" d="M4,0A4,4 0 1,1 0,-4A4,4 0 0,1 4,0Z" style="opacity: 0.5; stroke-width: 0px; fill: rgb(204, 102, 119); fill-opacity: 1;"/><path class="point" transform="translate(12.61,176.15)" d="M4,0A4,4 0 1,1 0,-4A4,4 0 0,1 4,0Z" style="opacity: 0.5; stroke-width: 0px; fill: rgb(204, 102, 119); fill-opacity: 1;"/><path class="point" transform="translate(15.15,174.75)" d="M4,0A4,4 0 1,1 0,-4A4,4 0 0,1 4,0Z" style="opacity: 0.5; stroke-width: 0px; fill: rgb(204, 102, 119); fill-opacity: 1;"/><path class="point" transform="translate(14.62,172.28)" d="M4,0A4,4 0 1,1 0,-4A4,4 0 0,1 4,0Z" style="opacity: 0.5; stroke-width: 0px; fill: rgb(204, 102, 119); fill-opacity: 1;"/><path class="point" transform="translate(13.97,144.45)" d="M4,0A4,4 0 1,1 0,-4A4,4 0 0,1 4,0Z" style="opacity: 0.5; stroke-width: 0px; fill: rgb(204, 102, 119); fill-opacity: 1;"/><path class="point" transform="translate(13.64,142.03)" d="M4,0A4,4 0 1,1 0,-4A4,4 0 0,1 4,0Z" style="opacity: 0.5; stroke-width: 0px; fill: rgb(204, 102, 119); fill-opacity: 1;"/><path class="point" transform="translate(14.83,138.02)" d="M4,0A4,4 0 1,1 0,-4A4,4 0 0,1 4,0Z" style="opacity: 0.5; stroke-width: 0px; fill: rgb(204, 102, 119); fill-opacity: 1;"/><path class="point" transform="translate(14.23,77.95)" d="M4,0A4,4 0 1,1 0,-4A4,4 0 0,1 4,0Z" style="opacity: 0.5; stroke-width: 0px; fill: rgb(204, 102, 119); fill-opacity: 1;"/></g><g class="points"><path class="point" transform="translate(93.53,247)" d="M4,0A4,4 0 1,1 0,-4A4,4 0 0,1 4,0Z" style="opacity: 0.5; stroke-width: 0px; fill: rgb(204, 102, 119); fill-opacity: 1;"/><path class="point" transform="translate(91.12,244.45)" d="M4,0A4,4 0 1,1 0,-4A4,4 0 0,1 4,0Z" style="opacity: 0.5; stroke-width: 0px; fill: rgb(204, 102, 119); fill-opacity: 1;"/><path class="point" transform="translate(93.3,238.54)" d="M4,0A4,4 0 1,1 0,-4A4,4 0 0,1 4,0Z" style="opacity: 0.5; stroke-width: 0px; fill: rgb(204, 102, 119); fill-opacity: 1;"/><path class="point" transform="translate(92.2,230.99)" d="M4,0A4,4 0 1,1 0,-4A4,4 0 0,1 4,0Z" style="opacity: 0.5; stroke-width: 0px; fill: rgb(204, 102, 119); fill-opacity: 1;"/><path class="point" transform="translate(91.67,227.35)" d="M4,0A4,4 0 1,1 0,-4A4,4 0 0,1 4,0Z" style="opacity: 0.5; stroke-width: 0px; fill: rgb(204, 102, 119); fill-opacity: 1;"/><path class="point" transform="translate(90.6,208.43)" d="M4,0A4,4 0 1,1 0,-4A4,4 0 0,1 4,0Z" style="opacity: 0.5; stroke-width: 0px; fill: rgb(204, 102, 119); fill-opacity: 1;"/><path class="point" transform="translate(91.64,179.02)" d="M4,0A4,4 0 1,1 0,-4A4,4 0 0,1 4,0Z" style="opacity: 0.5; stroke-width: 0px; fill: rgb(204, 102, 119); fill-opacity: 1;"/><path class="point" transform="translate(93.57,174.8)" d="M4,0A4,4 0 1,1 0,-4A4,4 0 0,1 4,0Z" style="opacity: 0.5; stroke-width: 0px; fill: rgb(204, 102, 119); fill-opacity: 1;"/><path class="point" transform="translate(91.86,172.76)" d="M4,0A4,4 0 1,1 0,-4A4,4 0 0,1 4,0Z" style="opacity: 0.5; stroke-width: 0px; fill: rgb(204, 102, 119); fill-opacity: 1;"/><path class="point" transform="translate(90.77,172.63)" d="M4,0A4,4 0 1,1 0,-4A4,4 0 0,1 4,0Z" style="opacity: 0.5; stroke-width: 0px; fill: rgb(204, 102, 119); fill-opacity: 1;"/><path class="point" transform="translate(93.51,171.56)" d="M4,0A4,4 0 1,1 0,-4A4,4 0 0,1 4,0Z" style="opacity: 0.5; stroke-width: 0px; fill: rgb(204, 102, 119); fill-opacity: 1;"/><path class="point" transform="translate(89.76,170.25)" d="M4,0A4,4 0 1,1 0,-4A4,4 0 0,1 4,0Z" style="opacity: 0.5; stroke-width: 0px; fill: rgb(204, 102, 119); fill-opacity: 1;"/><path class="point" transform="translate(92.34,170.17)" d="M4,0A4,4 0 1,1 0,-4A4,4 0 0,1 4,0Z" style="opacity: 0.5; stroke-width: 0px; fill: rgb(204, 102, 119); fill-opacity: 1;"/><path class="point" transform="translate(94.74,170.08)" d="M4,0A4,4 0 1,1 0,-4A4,4 0 0,1 4,0Z" style="opacity: 0.5; stroke-width: 0px; fill: rgb(204, 102, 119); fill-opacity: 1;"/><path class="point" transform="translate(87.16,169.48)" d="M4,0A4,4 0 1,1 0,-4A4,4 0 0,1 4,0Z" style="opacity: 0.5; stroke-width: 0px; fill: rgb(204, 102, 119); fill-opacity: 1;"/><path class="point" transform="translate(97.36,168.84)" d="M4,0A4,4 0 1,1 0,-4A4,4 0 0,1 4,0Z" style="opacity: 0.5; stroke-width: 0px; fill: rgb(204, 102, 119); fill-opacity: 1;"/><path class="point" transform="translate(94.46,168.79)" d="M4,0A4,4 0 1,1 0,-4A4,4 0 0,1 4,0Z" style="opacity: 0.5; stroke-width: 0px; fill: rgb(204, 102, 119); fill-opacity: 1;"/><path class="point" transform="translate(88.29,167.63)" d="M4,0A4,4 0 1,1 0,-4A4,4 0 0,1 4,0Z" style="opacity: 0.5; stroke-width: 0px; fill: rgb(204, 102, 119); fill-opacity: 1;"/><path class="point" transform="translate(95.84,165.33)" d="M4,0A4,4 0 1,1 0,-4A4,4 0 0,1 4,0Z" style="opacity: 0.5; stroke-width: 0px; fill: rgb(204, 102, 119); fill-opacity: 1;"/><path class="point" transform="translate(89.1,164.36)" d="M4,0A4,4 0 1,1 0,-4A4,4 0 0,1 4,0Z" style="opacity: 0.5; stroke-width: 0px; fill: rgb(204, 102, 119); fill-opacity: 1;"/><path class="point" transform="translate(91.81,163.38)" d="M4,0A4,4 0 1,1 0,-4A4,4 0 0,1 4,0Z" style="opacity: 0.5; stroke-width: 0px; fill: rgb(204, 102, 119); fill-opacity: 1;"/><path class="point" transform="translate(92.87,161.26)" d="M4,0A4,4 0 1,1 0,-4A4,4 0 0,1 4,0Z" style="opacity: 0.5; stroke-width: 0px; fill: rgb(204, 102, 119); fill-opacity: 1;"/><path class="point" transform="translate(90.5,158.88)" d="M4,0A4,4 0 1,1 0,-4A4,4 0 0,1 4,0Z" style="opacity: 0.5; stroke-width: 0px; fill: rgb(204, 102, 119); fill-opacity: 1;"/><path class="point" transform="translate(95.01,158.04)" d="M4,0A4,4 0 1,1 0,-4A4,4 0 0,1 4,0Z" style="opacity: 0.5; stroke-width: 0px; fill: rgb(204, 102, 119); fill-opacity: 1;"/><path class="point" transform="translate(89.94,157.36)" d="M4,0A4,4 0 1,1 0,-4A4,4 0 0,1 4,0Z" style="opacity: 0.5; stroke-width: 0px; fill: rgb(204, 102, 119); fill-opacity: 1;"/><path class="point" transform="translate(93.81,156.52)" d="M4,0A4,4 0 1,1 0,-4A4,4 0 0,1 4,0Z" style="opacity: 0.5; stroke-width: 0px; fill: rgb(204, 102, 119); fill-opacity: 1;"/><path class="point" transform="translate(95.24,155.98)" d="M4,0A4,4 0 1,1 0,-4A4,4 0 0,1 4,0Z" style="opacity: 0.5; stroke-width: 0px; fill: rgb(204, 102, 119); fill-opacity: 1;"/><path class="point" transform="translate(88.79,155.55)" d="M4,0A4,4 0 1,1 0,-4A4,4 0 0,1 4,0Z" style="opacity: 0.5; stroke-width: 0px; fill: rgb(204, 102, 119); fill-opacity: 1;"/><path class="point" transform="translate(90.38,151.97)" d="M4,0A4,4 0 1,1 0,-4A4,4 0 0,1 4,0Z" style="opacity: 0.5; stroke-width: 0px; fill: rgb(204, 102, 119); fill-opacity: 1;"/><path class="point" transform="translate(94.23,148.34)" d="M4,0A4,4 0 1,1 0,-4A4,4 0 0,1 4,0Z" style="opacity: 0.5; stroke-width: 0px; fill: rgb(204, 102, 119); fill-opacity: 1;"/><path class="point" transform="translate(91.41,147.88)" d="M4,0A4,4 0 1,1 0,-4A4,4 0 0,1 4,0Z" style="opacity: 0.5; stroke-width: 0px; fill: rgb(204, 102, 119); fill-opacity: 1;"/><path class="point" transform="translate(92.63,146.37)" d="M4,0A4,4 0 1,1 0,-4A4,4 0 0,1 4,0Z" style="opacity: 0.5; stroke-width: 0px; fill: rgb(204, 102, 119); fill-opacity: 1;"/><path class="point" transform="translate(95.12,142.37)" d="M4,0A4,4 0 1,1 0,-4A4,4 0 0,1 4,0Z" style="opacity: 0.5; stroke-width: 0px; fill: rgb(204, 102, 119); fill-opacity: 1;"/><path class="point" transform="translate(89.82,139.39)" d="M4,0A4,4 0 1,1 0,-4A4,4 0 0,1 4,0Z" style="opacity: 0.5; stroke-width: 0px; fill: rgb(204, 102, 119); fill-opacity: 1;"/><path class="point" transform="translate(95.37,138.49)" d="M4,0A4,4 0 1,1 0,-4A4,4 0 0,1 4,0Z" style="opacity: 0.5; stroke-width: 0px; fill: rgb(204, 102, 119); fill-opacity: 1;"/><path class="point" transform="translate(90.16,138.17)" d="M4,0A4,4 0 1,1 0,-4A4,4 0 0,1 4,0Z" style="opacity: 0.5; stroke-width: 0px; fill: rgb(204, 102, 119); fill-opacity: 1;"/><path class="point" transform="translate(95.27,137.97)" d="M4,0A4,4 0 1,1 0,-4A4,4 0 0,1 4,0Z" style="opacity: 0.5; stroke-width: 0px; fill: rgb(204, 102, 119); fill-opacity: 1;"/><path class="point" transform="translate(90.97,133.65)" d="M4,0A4,4 0 1,1 0,-4A4,4 0 0,1 4,0Z" style="opacity: 0.5; stroke-width: 0px; fill: rgb(204, 102, 119); fill-opacity: 1;"/><path class="point" transform="translate(94.47,129.66)" d="M4,0A4,4 0 1,1 0,-4A4,4 0 0,1 4,0Z" style="opacity: 0.5; stroke-width: 0px; fill: rgb(204, 102, 119); fill-opacity: 1;"/><path class="point" transform="translate(93.06,122.95)" d="M4,0A4,4 0 1,1 0,-4A4,4 0 0,1 4,0Z" style="opacity: 0.5; stroke-width: 0px; fill: rgb(204, 102, 119); fill-opacity: 1;"/><path class="point" transform="translate(91.99,120.34)" d="M4,0A4,4 0 1,1 0,-4A4,4 0 0,1 4,0Z" style="opacity: 0.5; stroke-width: 0px; fill: rgb(204, 102, 119); fill-opacity: 1;"/><path class="point" transform="translate(90.17,119.67)" d="M4,0A4,4 0 1,1 0,-4A4,4 0 0,1 4,0Z" style="opacity: 0.5; stroke-width: 0px; fill: rgb(204, 102, 119); fill-opacity: 1;"/><path class="point" transform="translate(91.94,112.88)" d="M4,0A4,4 0 1,1 0,-4A4,4 0 0,1 4,0Z" style="opacity: 0.5; stroke-width: 0px; fill: rgb(204, 102, 119); fill-opacity: 1;"/><path class="point" transform="translate(90.37,109.97)" d="M4,0A4,4 0 1,1 0,-4A4,4 0 0,1 4,0Z" style="opacity: 0.5; stroke-width: 0px; fill: rgb(204, 102, 119); fill-opacity: 1;"/><path class="point" transform="translate(91.2,102.17)" d="M4,0A4,4 0 1,1 0,-4A4,4 0 0,1 4,0Z" style="opacity: 0.5; stroke-width: 0px; fill: rgb(204, 102, 119); fill-opacity: 1;"/><path class="point" transform="translate(90.78,102.11)" d="M4,0A4,4 0 1,1 0,-4A4,4 0 0,1 4,0Z" style="opacity: 0.5; stroke-width: 0px; fill: rgb(204, 102, 119); fill-opacity: 1;"/><path class="point" transform="translate(90.55,93.56)" d="M4,0A4,4 0 1,1 0,-4A4,4 0 0,1 4,0Z" style="opacity: 0.5; stroke-width: 0px; fill: rgb(204, 102, 119); fill-opacity: 1;"/><path class="point" transform="translate(91.35,92.78)" d="M4,0A4,4 0 1,1 0,-4A4,4 0 0,1 4,0Z" style="opacity: 0.5; stroke-width: 0px; fill: rgb(204, 102, 119); fill-opacity: 1;"/><path class="point" transform="translate(92.97,87.49)" d="M4,0A4,4 0 1,1 0,-4A4,4 0 0,1 4,0Z" style="opacity: 0.5; stroke-width: 0px; fill: rgb(204, 102, 119); fill-opacity: 1;"/><path class="point" transform="translate(90.94,67.25)" d="M4,0A4,4 0 1,1 0,-4A4,4 0 0,1 4,0Z" style="opacity: 0.5; stroke-width: 0px; fill: rgb(204, 102, 119); fill-opacity: 1;"/><path class="point" transform="translate(92.68,60.37)" d="M4,0A4,4 0 1,1 0,-4A4,4 0 0,1 4,0Z" style="opacity: 0.5; stroke-width: 0px; fill: rgb(204, 102, 119); fill-opacity: 1;"/><path class="point" transform="translate(93.08,46.67)" d="M4,0A4,4 0 1,1 0,-4A4,4 0 0,1 4,0Z" style="opacity: 0.5; stroke-width: 0px; fill: rgb(204, 102, 119); fill-opacity: 1;"/><path class="point" transform="translate(92.51,44.9)" d="M4,0A4,4 0 1,1 0,-4A4,4 0 0,1 4,0Z" style="opacity: 0.5; stroke-width: 0px; fill: rgb(204, 102, 119); fill-opacity: 1;"/><path class="point" transform="translate(91.53,43.89)" d="M4,0A4,4 0 1,1 0,-4A4,4 0 0,1 4,0Z" style="opacity: 0.5; stroke-width: 0px; fill: rgb(204, 102, 119); fill-opacity: 1;"/><path class="point" transform="translate(91.83,13)" d="M4,0A4,4 0 1,1 0,-4A4,4 0 0,1 4,0Z" style="opacity: 0.5; stroke-width: 0px; fill: rgb(204, 102, 119); fill-opacity: 1;"/></g><g class="points"><path class="point" transform="translate(172.52,178.7)" d="M4,0A4,4 0 1,1 0,-4A4,4 0 0,1 4,0Z" style="opacity: 0.5; stroke-width: 0px; fill: rgb(204, 102, 119); fill-opacity: 1;"/><path class="point" transform="translate(169.05,177.07)" d="M4,0A4,4 0 1,1 0,-4A4,4 0 0,1 4,0Z" style="opacity: 0.5; stroke-width: 0px; fill: rgb(204, 102, 119); fill-opacity: 1;"/><path class="point" transform="translate(170.63,175.7)" d="M4,0A4,4 0 1,1 0,-4A4,4 0 0,1 4,0Z" style="opacity: 0.5; stroke-width: 0px; fill: rgb(204, 102, 119); fill-opacity: 1;"/><path class="point" transform="translate(171.92,175.4)" d="M4,0A4,4 0 1,1 0,-4A4,4 0 0,1 4,0Z" style="opacity: 0.5; stroke-width: 0px; fill: rgb(204, 102, 119); fill-opacity: 1;"/><path class="point" transform="translate(168.14,175.14)" d="M4,0A4,4 0 1,1 0,-4A4,4 0 0,1 4,0Z" style="opacity: 0.5; stroke-width: 0px; fill: rgb(204, 102, 119); fill-opacity: 1;"/><path class="point" transform="translate(169.97,175.03)" d="M4,0A4,4 0 1,1 0,-4A4,4 0 0,1 4,0Z" style="opacity: 0.5; stroke-width: 0px; fill: rgb(204, 102, 119); fill-opacity: 1;"/><path class="point" transform="translate(173.07,174.95)" d="M4,0A4,4 0 1,1 0,-4A4,4 0 0,1 4,0Z" style="opacity: 0.5; stroke-width: 0px; fill: rgb(204, 102, 119); fill-opacity: 1;"/><path class="point" transform="translate(166.95,174.68)" d="M4,0A4,4 0 1,1 0,-4A4,4 0 0,1 4,0Z" style="opacity: 0.5; stroke-width: 0px; fill: rgb(204, 102, 119); fill-opacity: 1;"/><path class="point" transform="translate(169.54,174.05)" d="M4,0A4,4 0 1,1 0,-4A4,4 0 0,1 4,0Z" style="opacity: 0.5; stroke-width: 0px; fill: rgb(204, 102, 119); fill-opacity: 1;"/><path class="point" transform="translate(172.26,173.83)" d="M4,0A4,4 0 1,1 0,-4A4,4 0 0,1 4,0Z" style="opacity: 0.5; stroke-width: 0px; fill: rgb(204, 102, 119); fill-opacity: 1;"/><path class="point" transform="translate(173.17,173.42)" d="M4,0A4,4 0 1,1 0,-4A4,4 0 0,1 4,0Z" style="opacity: 0.5; stroke-width: 0px; fill: rgb(204, 102, 119); fill-opacity: 1;"/><path class="point" transform="translate(173.93,173.12)" d="M4,0A4,4 0 1,1 0,-4A4,4 0 0,1 4,0Z" style="opacity: 0.5; stroke-width: 0px; fill: rgb(204, 102, 119); fill-opacity: 1;"/><path class="point" transform="translate(166.96,173.08)" d="M4,0A4,4 0 1,1 0,-4A4,4 0 0,1 4,0Z" style="opacity: 0.5; stroke-width: 0px; fill: rgb(204, 102, 119); fill-opacity: 1;"/><path class="point" transform="translate(171.29,172.92)" d="M4,0A4,4 0 1,1 0,-4A4,4 0 0,1 4,0Z" style="opacity: 0.5; stroke-width: 0px; fill: rgb(204, 102, 119); fill-opacity: 1;"/><path class="point" transform="translate(166.33,172.7)" d="M4,0A4,4 0 1,1 0,-4A4,4 0 0,1 4,0Z" style="opacity: 0.5; stroke-width: 0px; fill: rgb(204, 102, 119); fill-opacity: 1;"/><path class="point" transform="translate(174.2,172.43)" d="M4,0A4,4 0 1,1 0,-4A4,4 0 0,1 4,0Z" style="opacity: 0.5; stroke-width: 0px; fill: rgb(204, 102, 119); fill-opacity: 1;"/><path class="point" transform="translate(171.11,172.31)" d="M4,0A4,4 0 1,1 0,-4A4,4 0 0,1 4,0Z" style="opacity: 0.5; stroke-width: 0px; fill: rgb(204, 102, 119); fill-opacity: 1;"/><path class="point" transform="translate(169.15,172.12)" d="M4,0A4,4 0 1,1 0,-4A4,4 0 0,1 4,0Z" style="opacity: 0.5; stroke-width: 0px; fill: rgb(204, 102, 119); fill-opacity: 1;"/><path class="point" transform="translate(174.26,171.8)" d="M4,0A4,4 0 1,1 0,-4A4,4 0 0,1 4,0Z" style="opacity: 0.5; stroke-width: 0px; fill: rgb(204, 102, 119); fill-opacity: 1;"/><path class="point" transform="translate(167.41,171.68)" d="M4,0A4,4 0 1,1 0,-4A4,4 0 0,1 4,0Z" style="opacity: 0.5; stroke-width: 0px; fill: rgb(204, 102, 119); fill-opacity: 1;"/><path class="point" transform="translate(168.55,171.34)" d="M4,0A4,4 0 1,1 0,-4A4,4 0 0,1 4,0Z" style="opacity: 0.5; stroke-width: 0px; fill: rgb(204, 102, 119); fill-opacity: 1;"/><path class="point" transform="translate(169.72,171.3)" d="M4,0A4,4 0 1,1 0,-4A4,4 0 0,1 4,0Z" style="opacity: 0.5; stroke-width: 0px; fill: rgb(204, 102, 119); fill-opacity: 1;"/><path class="point" transform="translate(172.3,171)" d="M4,0A4,4 0 1,1 0,-4A4,4 0 0,1 4,0Z" style="opacity: 0.5; stroke-width: 0px; fill: rgb(204, 102, 119); fill-opacity: 1;"/><path class="point" transform="translate(168.26,170.88)" d="M4,0A4,4 0 1,1 0,-4A4,4 0 0,1 4,0Z" style="opacity: 0.5; stroke-width: 0px; fill: rgb(204, 102, 119); fill-opacity: 1;"/><path class="point" transform="translate(169.97,170.87)" d="M4,0A4,4 0 1,1 0,-4A4,4 0 0,1 4,0Z" style="opacity: 0.5; stroke-width: 0px; fill: rgb(204, 102, 119); fill-opacity: 1;"/><path class="point" transform="translate(168.59,170.53)" d="M4,0A4,4 0 1,1 0,-4A4,4 0 0,1 4,0Z" style="opacity: 0.5; stroke-width: 0px; fill: rgb(204, 102, 119); fill-opacity: 1;"/><path class="point" transform="translate(173.45,170.52)" d="M4,0A4,4 0 1,1 0,-4A4,4 0 0,1 4,0Z" style="opacity: 0.5; stroke-width: 0px; fill: rgb(204, 102, 119); fill-opacity: 1;"/><path class="point" transform="translate(169.55,170.12)" d="M4,0A4,4 0 1,1 0,-4A4,4 0 0,1 4,0Z" style="opacity: 0.5; stroke-width: 0px; fill: rgb(204, 102, 119); fill-opacity: 1;"/><path class="point" transform="translate(172.7,170.1)" d="M4,0A4,4 0 1,1 0,-4A4,4 0 0,1 4,0Z" style="opacity: 0.5; stroke-width: 0px; fill: rgb(204, 102, 119); fill-opacity: 1;"/><path class="point" transform="translate(170.48,169.77)" d="M4,0A4,4 0 1,1 0,-4A4,4 0 0,1 4,0Z" style="opacity: 0.5; stroke-width: 0px; fill: rgb(204, 102, 119); fill-opacity: 1;"/><path class="point" transform="translate(172.88,169.31)" d="M4,0A4,4 0 1,1 0,-4A4,4 0 0,1 4,0Z" style="opacity: 0.5; stroke-width: 0px; fill: rgb(204, 102, 119); fill-opacity: 1;"/><path class="point" transform="translate(167.66,169.1)" d="M4,0A4,4 0 1,1 0,-4A4,4 0 0,1 4,0Z" style="opacity: 0.5; stroke-width: 0px; fill: rgb(204, 102, 119); fill-opacity: 1;"/><path class="point" transform="translate(170.9,168.74)" d="M4,0A4,4 0 1,1 0,-4A4,4 0 0,1 4,0Z" style="opacity: 0.5; stroke-width: 0px; fill: rgb(204, 102, 119); fill-opacity: 1;"/><path class="point" transform="translate(172.61,168.67)" d="M4,0A4,4 0 1,1 0,-4A4,4 0 0,1 4,0Z" style="opacity: 0.5; stroke-width: 0px; fill: rgb(204, 102, 119); fill-opacity: 1;"/><path class="point" transform="translate(170.62,168.6)" d="M4,0A4,4 0 1,1 0,-4A4,4 0 0,1 4,0Z" style="opacity: 0.5; stroke-width: 0px; fill: rgb(204, 102, 119); fill-opacity: 1;"/><path class="point" transform="translate(172.03,168.42)" d="M4,0A4,4 0 1,1 0,-4A4,4 0 0,1 4,0Z" style="opacity: 0.5; stroke-width: 0px; fill: rgb(204, 102, 119); fill-opacity: 1;"/><path class="point" transform="translate(174.12,168.35)" d="M4,0A4,4 0 1,1 0,-4A4,4 0 0,1 4,0Z" style="opacity: 0.5; stroke-width: 0px; fill: rgb(204, 102, 119); fill-opacity: 1;"/><path class="point" transform="translate(168.33,168.23)" d="M4,0A4,4 0 1,1 0,-4A4,4 0 0,1 4,0Z" style="opacity: 0.5; stroke-width: 0px; fill: rgb(204, 102, 119); fill-opacity: 1;"/><path class="point" transform="translate(173.07,168.05)" d="M4,0A4,4 0 1,1 0,-4A4,4 0 0,1 4,0Z" style="opacity: 0.5; stroke-width: 0px; fill: rgb(204, 102, 119); fill-opacity: 1;"/><path class="point" transform="translate(171.52,167.68)" d="M4,0A4,4 0 1,1 0,-4A4,4 0 0,1 4,0Z" style="opacity: 0.5; stroke-width: 0px; fill: rgb(204, 102, 119); fill-opacity: 1;"/><path class="point" transform="translate(173.02,167.49)" d="M4,0A4,4 0 1,1 0,-4A4,4 0 0,1 4,0Z" style="opacity: 0.5; stroke-width: 0px; fill: rgb(204, 102, 119); fill-opacity: 1;"/><path class="point" transform="translate(168.03,167.45)" d="M4,0A4,4 0 1,1 0,-4A4,4 0 0,1 4,0Z" style="opacity: 0.5; stroke-width: 0px; fill: rgb(204, 102, 119); fill-opacity: 1;"/><path class="point" transform="translate(174.16,166.99)" d="M4,0A4,4 0 1,1 0,-4A4,4 0 0,1 4,0Z" style="opacity: 0.5; stroke-width: 0px; fill: rgb(204, 102, 119); fill-opacity: 1;"/><path class="point" transform="translate(169.01,166.85)" d="M4,0A4,4 0 1,1 0,-4A4,4 0 0,1 4,0Z" style="opacity: 0.5; stroke-width: 0px; fill: rgb(204, 102, 119); fill-opacity: 1;"/><path class="point" transform="translate(170.36,166.56)" d="M4,0A4,4 0 1,1 0,-4A4,4 0 0,1 4,0Z" style="opacity: 0.5; stroke-width: 0px; fill: rgb(204, 102, 119); fill-opacity: 1;"/><path class="point" transform="translate(167.72,166.22)" d="M4,0A4,4 0 1,1 0,-4A4,4 0 0,1 4,0Z" style="opacity: 0.5; stroke-width: 0px; fill: rgb(204, 102, 119); fill-opacity: 1;"/><path class="point" transform="translate(169.64,166.2)" d="M4,0A4,4 0 1,1 0,-4A4,4 0 0,1 4,0Z" style="opacity: 0.5; stroke-width: 0px; fill: rgb(204, 102, 119); fill-opacity: 1;"/><path class="point" transform="translate(172.5,165.97)" d="M4,0A4,4 0 1,1 0,-4A4,4 0 0,1 4,0Z" style="opacity: 0.5; stroke-width: 0px; fill: rgb(204, 102, 119); fill-opacity: 1;"/><path class="point" transform="translate(173.63,165.6)" d="M4,0A4,4 0 1,1 0,-4A4,4 0 0,1 4,0Z" style="opacity: 0.5; stroke-width: 0px; fill: rgb(204, 102, 119); fill-opacity: 1;"/><path class="point" transform="translate(165.44,165.52)" d="M4,0A4,4 0 1,1 0,-4A4,4 0 0,1 4,0Z" style="opacity: 0.5; stroke-width: 0px; fill: rgb(204, 102, 119); fill-opacity: 1;"/><path class="point" transform="translate(172.66,165.51)" d="M4,0A4,4 0 1,1 0,-4A4,4 0 0,1 4,0Z" style="opacity: 0.5; stroke-width: 0px; fill: rgb(204, 102, 119); fill-opacity: 1;"/><path class="point" transform="translate(175.49,165.36)" d="M4,0A4,4 0 1,1 0,-4A4,4 0 0,1 4,0Z" style="opacity: 0.5; stroke-width: 0px; fill: rgb(204, 102, 119); fill-opacity: 1;"/><path class="point" transform="translate(167.22,165.33)" d="M4,0A4,4 0 1,1 0,-4A4,4 0 0,1 4,0Z" style="opacity: 0.5; stroke-width: 0px; fill: rgb(204, 102, 119); fill-opacity: 1;"/><path class="point" transform="translate(172.15,165.22)" d="M4,0A4,4 0 1,1 0,-4A4,4 0 0,1 4,0Z" style="opacity: 0.5; stroke-width: 0px; fill: rgb(204, 102, 119); fill-opacity: 1;"/><path class="point" transform="translate(170.31,165.14)" d="M4,0A4,4 0 1,1 0,-4A4,4 0 0,1 4,0Z" style="opacity: 0.5; stroke-width: 0px; fill: rgb(204, 102, 119); fill-opacity: 1;"/><path class="point" transform="translate(167.99,165.07)" d="M4,0A4,4 0 1,1 0,-4A4,4 0 0,1 4,0Z" style="opacity: 0.5; stroke-width: 0px; fill: rgb(204, 102, 119); fill-opacity: 1;"/><path class="point" transform="translate(171.97,165.07)" d="M4,0A4,4 0 1,1 0,-4A4,4 0 0,1 4,0Z" style="opacity: 0.5; stroke-width: 0px; fill: rgb(204, 102, 119); fill-opacity: 1;"/><path class="point" transform="translate(171.03,164.42)" d="M4,0A4,4 0 1,1 0,-4A4,4 0 0,1 4,0Z" style="opacity: 0.5; stroke-width: 0px; fill: rgb(204, 102, 119); fill-opacity: 1;"/><path class="point" transform="translate(170,163.94)" d="M4,0A4,4 0 1,1 0,-4A4,4 0 0,1 4,0Z" style="opacity: 0.5; stroke-width: 0px; fill: rgb(204, 102, 119); fill-opacity: 1;"/><path class="point" transform="translate(169.78,163.92)" d="M4,0A4,4 0 1,1 0,-4A4,4 0 0,1 4,0Z" style="opacity: 0.5; stroke-width: 0px; fill: rgb(204, 102, 119); fill-opacity: 1;"/><path class="point" transform="translate(171.75,161.18)" d="M4,0A4,4 0 1,1 0,-4A4,4 0 0,1 4,0Z" style="opacity: 0.5; stroke-width: 0px; fill: rgb(204, 102, 119); fill-opacity: 1;"/><path class="point" transform="translate(170.41,159.81)" d="M4,0A4,4 0 1,1 0,-4A4,4 0 0,1 4,0Z" style="opacity: 0.5; stroke-width: 0px; fill: rgb(204, 102, 119); fill-opacity: 1;"/><path class="point" transform="translate(170.71,157.05)" d="M4,0A4,4 0 1,1 0,-4A4,4 0 0,1 4,0Z" style="opacity: 0.5; stroke-width: 0px; fill: rgb(204, 102, 119); fill-opacity: 1;"/><path class="point" transform="translate(169.92,154.48)" d="M4,0A4,4 0 1,1 0,-4A4,4 0 0,1 4,0Z" style="opacity: 0.5; stroke-width: 0px; fill: rgb(204, 102, 119); fill-opacity: 1;"/><path class="point" transform="translate(170.49,148.23)" d="M4,0A4,4 0 1,1 0,-4A4,4 0 0,1 4,0Z" style="opacity: 0.5; stroke-width: 0px; fill: rgb(204, 102, 119); fill-opacity: 1;"/><path class="point" transform="translate(170.7,148.1)" d="M4,0A4,4 0 1,1 0,-4A4,4 0 0,1 4,0Z" style="opacity: 0.5; stroke-width: 0px; fill: rgb(204, 102, 119); fill-opacity: 1;"/><path class="point" transform="translate(170.35,64.16)" d="M4,0A4,4 0 1,1 0,-4A4,4 0 0,1 4,0Z" style="opacity: 0.5; stroke-width: 0px; fill: rgb(204, 102, 119); fill-opacity: 1;"/></g></g></g></g></g><g class="zerolinelayer-above"/><path class="xlines-above crisp" d="M0,0" style="fill: none;"/><path class="ylines-above crisp" d="M0,0" style="fill: none;"/><g class="overlines-above"/><g class="xaxislayer-above"><g class="xtick"><text text-anchor="middle" x="0" y="333" transform="translate(125,0)" style="font-family: 'Open Sans', verdana, arial, sans-serif; font-size: 12px; fill: rgb(42, 63, 95); fill-opacity: 1; white-space: pre;">unicellular</text></g><g class="xtick"><text text-anchor="middle" x="0" y="333" transform="translate(203,0)" style="font-family: 'Open Sans', verdana, arial, sans-serif; font-size: 12px; fill: rgb(42, 63, 95); fill-opacity: 1; white-space: pre;">transition</text></g><g class="xtick"><text text-anchor="middle" x="0" y="333" transform="translate(281,0)" style="font-family: 'Open Sans', verdana, arial, sans-serif; font-size: 12px; fill: rgb(42, 63, 95); fill-opacity: 1; white-space: pre;">multicellular</text></g></g><g class="yaxislayer-above"><g class="ytick"><text text-anchor="end" x="81" y="4.199999999999999" transform="translate(0,314.68)" style="font-family: 'Open Sans', verdana, arial, sans-serif; font-size: 12px; fill: rgb(42, 63, 95); fill-opacity: 1; white-space: pre;">−0.0004</text></g><g class="ytick"><text text-anchor="end" x="81" y="4.199999999999999" style="font-family: 'Open Sans', verdana, arial, sans-serif; font-size: 12px; fill: rgb(42, 63, 95); fill-opacity: 1; white-space: pre;" transform="translate(0,279.01)">−0.0002</text></g><g class="ytick"><text text-anchor="end" x="81" y="4.199999999999999" style="font-family: 'Open Sans', verdana, arial, sans-serif; font-size: 12px; fill: rgb(42, 63, 95); fill-opacity: 1; white-space: pre;" transform="translate(0,243.35)">0</text></g><g class="ytick"><text text-anchor="end" x="81" y="4.199999999999999" style="font-family: 'Open Sans', verdana, arial, sans-serif; font-size: 12px; fill: rgb(42, 63, 95); fill-opacity: 1; white-space: pre;" transform="translate(0,207.69)">0.0002</text></g><g class="ytick"><text text-anchor="end" x="81" y="4.199999999999999" style="font-family: 'Open Sans', verdana, arial, sans-serif; font-size: 12px; fill: rgb(42, 63, 95); fill-opacity: 1; white-space: pre;" transform="translate(0,172.03)">0.0004</text></g><g class="ytick"><text text-anchor="end" x="81" y="4.199999999999999" style="font-family: 'Open Sans', verdana, arial, sans-serif; font-size: 12px; fill: rgb(42, 63, 95); fill-opacity: 1; white-space: pre;" transform="translate(0,136.37)">0.0006</text></g><g class="ytick"><text text-anchor="end" x="81" y="4.199999999999999" style="font-family: 'Open Sans', verdana, arial, sans-serif; font-size: 12px; fill: rgb(42, 63, 95); fill-opacity: 1; white-space: pre;" transform="translate(0,100.7)">0.0008</text></g><g class="ytick"><text text-anchor="end" x="81" y="4.199999999999999" style="font-family: 'Open Sans', verdana, arial, sans-serif; font-size: 12px; fill: rgb(42, 63, 95); fill-opacity: 1; white-space: pre;" transform="translate(0,65.04)">0.001</text></g></g><g class="overaxes-above"/></g></g><g class="polarlayer"/><g class="smithlayer"/><g class="ternarylayer"/><g class="geolayer"/><g class="funnelarealayer"/><g class="pielayer"/><g class="iciclelayer"/><g class="treemaplayer"/><g class="sunburstlayer"/><g class="glimages"/><defs id="topdefs-0acbb2"><g class="clips"/></defs><g class="layer-above"><g class="imagelayer"/><g class="shapelayer"/></g><g class="infolayer"><g class="g-gtitle"/><g class="g-xtitle"><text class="xtitle" x="201" y="361.3" text-anchor="middle" style="opacity: 1; font-family: 'Open Sans', verdana, arial, sans-serif; font-size: 14px; fill: rgb(42, 63, 95); fill-opacity: 1; white-space: pre;">life cycle</text></g><g class="g-ytitle"><text class="ytitle" transform="rotate(-90,17.271874999999994,190)" x="17.271874999999994" y="190" text-anchor="middle" style="opacity: 1; font-family: 'Open Sans', verdana, arial, sans-serif; font-size: 14px; fill: rgb(42, 63, 95); fill-opacity: 1; white-space: pre;">a</text></g></g></svg>