<svg class="main-svg" xmlns="http://www.w3.org/2000/svg" xmlns:xlink="http://www.w3.org/1999/xlink" width="400" height="350" style="" viewBox="0 0 400 350"><rect x="0" y="0" width="400" height="350" style="fill: rgb(255, 255, 255); fill-opacity: 1;"/><defs id="defs-bdccbc"><g class="clips"><clipPath id="clipbdccbcxyplot" class="plotclip"><rect width="238" height="210"/></clipPath><clipPath class="axesclip" id="clipbdccbcx"><rect x="82" y="0" width="238" height="350"/></clipPath><clipPath class="axesclip" id="clipbdccbcy"><rect x="0" y="60" width="400" height="210"/></clipPath><clipPath class="axesclip" id="clipbdccbcxy"><rect x="82" y="60" width="238" height="210"/></clipPath></g><g class="gradients"/><g class="patterns"/></defs><g class="bglayer"/><g class="layer-below"><g class="imagelayer"/><g class="shapelayer"/></g><g class="cartesianlayer"><g class="subplot xy"><g class="layer-subplot"><g class="shapelayer"/><g class="imagelayer"/></g><g class="minor-gridlayer"><g class="x"/><g class="y"/></g><g class="gridlayer"><g class="x"/><g class="y"><path class="ygrid crisp" transform="translate(0,261.31)" d="M82,0h238" style="stroke: rgb(235, 240, 248); stroke-opacity: 1; stroke-width: 1px;"/><path class="ygrid crisp" transform="translate(0,188.31)" d="M82,0h238" style="stroke: rgb(235, 240, 248); stroke-opacity: 1; stroke-width: 1px;"/><path class="ygrid crisp" transform="translate(0,151.8)" d="M82,0h238" style="stroke: rgb(235, 240, 248); stroke-opacity: 1; stroke-width: 1px;"/><path class="ygrid crisp" transform="translate(0,115.3)" d="M82,0h238" style="stroke: rgb(235, 240, 248); stroke-opacity: 1; stroke-width: 1px;"/><path class="ygrid crisp" transform="translate(0,78.8)" d="M82,0h238" style="stroke: rgb(235, 240, 248); stroke-opacity: 1; stroke-width: 1px;"/></g></g><g class="zerolinelayer"><path class="yzl zl crisp" transform="translate(0,224.81)" d="M82,0h238" style="stroke: rgb(235, 240, 248); stroke-opacity: 1; stroke-width: 2px;"/></g><g class="layer-between"><g class="shapelayer"/><g class="imagelayer"/></g><path class="xlines-below"/><path class="ylines-below"/><g class="overlines-below"/><g class="xaxislayer-below"/><g class="yaxislayer-below"/><g class="overaxes-below"/><g class="overplot"><g class="xy" transform="translate(82,60)" clip-path="url(#clipbdccbcxyplot)"><g class="boxlayer mlayer"><g class="trace boxes" style="opacity: 1;"><path class="box" d="M29.95,164.36H49.39M20.23,175.23H59.1V169.31L49.39,164.36L59.1,159.42V151.46H20.23V159.42L29.95,164.36L20.23,169.31ZM39.67,175.23V199.5M39.67,151.46V132.38M29.95,199.5H49.39M29.95,132.38H49.39" style="vector-effect: none; stroke-width: 2px; stroke: rgb(136, 204, 238); stroke-opacity: 1; fill: rgb(136, 204, 238); fill-opacity: 0.5;"/><path class="box" d="M109.28,141.28H128.72M99.56,157.19H138.44V146.69L128.72,141.28L138.44,135.88V122.26H99.56V135.88L109.28,141.28L99.56,146.69ZM119,157.19V199.13M119,122.26V70.08M109.28,199.13H128.72M109.28,70.08H128.72" style="vector-effect: none; stroke-width: 2px; stroke: rgb(136, 204, 238); stroke-opacity: 1; fill: rgb(136, 204, 238); fill-opacity: 0.5;"/><path class="box" d="M188.61,159.04H208.05M178.9,161.03H217.77V159.46L208.05,159.04L217.77,158.62V156.52H178.9V158.62L188.61,159.04L178.9,159.46ZM198.33,161.03V166.21M198.33,156.52V150.91M188.61,166.21H208.05M188.61,150.91H208.05" style="vector-effect: none; stroke-width: 2px; stroke: rgb(136, 204, 238); stroke-opacity: 1; fill: rgb(136, 204, 238); fill-opacity: 0.5;"/><g class="points"><path class="point" transform="translate(44.71,108.35)" d="M3,0A3,3 0 1,1 0,-3A3,3 0 0,1 3,0Z" style="opacity: 0.5; stroke-width: 1px; fill: rgb(136, 204, 238); fill-opacity: 1; stroke: rgb(255, 255, 255); stroke-opacity: 1;"/><path class="point" transform="translate(33.47,101.98)" d="M3,0A3,3 0 1,1 0,-3A3,3 0 0,1 3,0Z" style="opacity: 0.5; stroke-width: 1px; fill: rgb(136, 204, 238); fill-opacity: 1; stroke: rgb(255, 255, 255); stroke-opacity: 1;"/><path class="point" transform="translate(47.2,96.76)" d="M3,0A3,3 0 1,1 0,-3A3,3 0 0,1 3,0Z" style="opacity: 0.5; stroke-width: 1px; fill: rgb(136, 204, 238); fill-opacity: 1; stroke: rgb(255, 255, 255); stroke-opacity: 1;"/></g><g class="points"><path class="point" transform="translate(110.78,62.8)" d="M3,0A3,3 0 1,1 0,-3A3,3 0 0,1 3,0Z" style="opacity: 0.5; stroke-width: 1px; fill: rgb(136, 204, 238); fill-opacity: 1; stroke: rgb(255, 255, 255); stroke-opacity: 1;"/><path class="point" transform="translate(116.61,54.7)" d="M3,0A3,3 0 1,1 0,-3A3,3 0 0,1 3,0Z" style="opacity: 0.5; stroke-width: 1px; fill: rgb(136, 204, 238); fill-opacity: 1; stroke: rgb(255, 255, 255); stroke-opacity: 1;"/></g><g class="points"><path class="point" transform="translate(203.44,167.79)" d="M3,0A3,3 0 1,1 0,-3A3,3 0 0,1 3,0Z" style="opacity: 0.5; stroke-width: 1px; fill: rgb(136, 204, 238); fill-opacity: 1; stroke: rgb(255, 255, 255); stroke-opacity: 1;"/><path class="point" transform="translate(198.15,149.39)" d="M3,0A3,3 0 1,1 0,-3A3,3 0 0,1 3,0Z" style="opacity: 0.5; stroke-width: 1px; fill: rgb(136, 204, 238); fill-opacity: 1; stroke: rgb(255, 255, 255); stroke-opacity: 1;"/><path class="point" transform="translate(199.88,147.45)" d="M3,0A3,3 0 1,1 0,-3A3,3 0 0,1 3,0Z" style="opacity: 0.5; stroke-width: 1px; fill: rgb(136, 204, 238); fill-opacity: 1; stroke: rgb(255, 255, 255); stroke-opacity: 1;"/><path class="point" transform="translate(196.68,146.81)" d="M3,0A3,3 0 1,1 0,-3A3,3 0 0,1 3,0Z" style="opacity: 0.5; stroke-width: 1px; fill: rgb(136, 204, 238); fill-opacity: 1; stroke: rgb(255, 255, 255); stroke-opacity: 1;"/><path class="point" transform="translate(195.05,145.96)" d="M3,0A3,3 0 1,1 0,-3A3,3 0 0,1 3,0Z" style="opacity: 0.5; stroke-width: 1px; fill: rgb(136, 204, 238); fill-opacity: 1; stroke: rgb(255, 255, 255); stroke-opacity: 1;"/><path class="point" transform="translate(199.25,144.35)" d="M3,0A3,3 0 1,1 0,-3A3,3 0 0,1 3,0Z" style="opacity: 0.5; stroke-width: 1px; fill: rgb(136, 204, 238); fill-opacity: 1; stroke: rgb(255, 255, 255); stroke-opacity: 1;"/><path class="point" transform="translate(197.22,143.77)" d="M3,0A3,3 0 1,1 0,-3A3,3 0 0,1 3,0Z" style="opacity: 0.5; stroke-width: 1px; fill: rgb(136, 204, 238); fill-opacity: 1; stroke: rgb(255, 255, 255); stroke-opacity: 1;"/><path class="point" transform="translate(200.44,143.52)" d="M3,0A3,3 0 1,1 0,-3A3,3 0 0,1 3,0Z" style="opacity: 0.5; stroke-width: 1px; fill: rgb(136, 204, 238); fill-opacity: 1; stroke: rgb(255, 255, 255); stroke-opacity: 1;"/><path class="point" transform="translate(195.26,141.99)" d="M3,0A3,3 0 1,1 0,-3A3,3 0 0,1 3,0Z" style="opacity: 0.5; stroke-width: 1px; fill: rgb(136, 204, 238); fill-opacity: 1; stroke: rgb(255, 255, 255); stroke-opacity: 1;"/><path class="point" transform="translate(196.61,137.48)" d="M3,0A3,3 0 1,1 0,-3A3,3 0 0,1 3,0Z" style="opacity: 0.5; stroke-width: 1px; fill: rgb(136, 204, 238); fill-opacity: 1; stroke: rgb(255, 255, 255); stroke-opacity: 1;"/><path class="point" transform="translate(200.84,125.7)" d="M3,0A3,3 0 1,1 0,-3A3,3 0 0,1 3,0Z" style="opacity: 0.5; stroke-width: 1px; fill: rgb(136, 204, 238); fill-opacity: 1; stroke: rgb(255, 255, 255); stroke-opacity: 1;"/></g></g></g></g></g><g class="zerolinelayer-above"/><path class="xlines-above crisp" d="M0,0" style="fill: none;"/><path class="ylines-above crisp" d="M0,0" style="fill: none;"/><g class="overlines-above"/><g class="xaxislayer-above"><g class="xtick"><text text-anchor="middle" x="0" y="283" transform="translate(121.67,0)" style="font-family: 'Open Sans', verdana, arial, sans-serif; font-size: 12px; fill: rgb(42, 63, 95); fill-opacity: 1; white-space: pre;">neg</text></g><g class="xtick"><text text-anchor="middle" x="0" y="283" transform="translate(201,0)" style="font-family: 'Open Sans', verdana, arial, sans-serif; font-size: 12px; fill: rgb(42, 63, 95); fill-opacity: 1; white-space: pre;">low</text></g><g class="xtick"><text text-anchor="middle" x="0" y="283" transform="translate(280.33000000000004,0)" style="font-family: 'Open Sans', verdana, arial, sans-serif; font-size: 12px; fill: rgb(42, 63, 95); fill-opacity: 1; white-space: pre;">high</text></g></g><g class="yaxislayer-above"><g class="ytick"><text text-anchor="end" x="81" y="4.199999999999999" transform="translate(0,261.31)" style="font-family: 'Open Sans', verdana, arial, sans-serif; font-size: 12px; fill: rgb(42, 63, 95); fill-opacity: 1; white-space: pre;">−0.0005</text></g><g class="ytick"><text text-anchor="end" x="81" y="4.199999999999999" style="font-family: 'Open Sans', verdana, arial, sans-serif; font-size: 12px; fill: rgb(42, 63, 95); fill-opacity: 1; white-space: pre;" transform="translate(0,224.81)">0</text></g><g class="ytick"><text text-anchor="end" x="81" y="4.199999999999999" style="font-family: 'Open Sans', verdana, arial, sans-serif; font-size: 12px; fill: rgb(42, 63, 95); fill-opacity: 1; white-space: pre;" transform="translate(0,188.31)">0.0005</text></g><g class="ytick"><text text-anchor="end" x="81" y="4.199999999999999" style="font-family: 'Open Sans', verdana, arial, sans-serif; font-size: 12px; fill: rgb(42, 63, 95); fill-opacity: 1; white-space: pre;" transform="translate(0,151.8)">0.001</text></g><g class="ytick"><text text-anchor="end" x="81" y="4.199999999999999" style="font-family: 'Open Sans', verdana, arial, sans-serif; font-size: 12px; fill: rgb(42, 63, 95); fill-opacity: 1; white-space: pre;" transform="translate(0,115.3)">0.0015</text></g><g class="ytick"><text text-anchor="end" x="81" y="4.199999999999999" style="font-family: 'Open Sans', verdana, arial, sans-serif; font-size: 12px; fill: rgb(42, 63, 95); fill-opacity: 1; white-space: pre;" transform="translate(0,78.8)">0.002</text></g></g><g class="overaxes-above"/></g></g><g class="polarlayer"/><g class="smithlayer"/><g class="ternarylayer"/><g class="geolayer"/><g class="funnelarealayer"/><g class="pielayer"/><g class="iciclelayer"/><g class="treemaplayer"/><g class="sunburstlayer"/><g class="glimages"/><defs id="topdefs-bdccbc"><g class="clips"/></defs><g class="layer-above"><g class="imagelayer"/><g class="shapelayer"><g class="shape-group" data-index="0" clip-path="url(#clipbdccbcxy)"><path data-index="0" fill-rule="evenodd" d="M121.67,104.35L201,104.35" style="opacity: 1; stroke: rgb(42, 63, 95); stroke-opacity: 1; fill: rgb(0, 0, 0); fill-opacity: 0; stroke-width: 1px;"/></g><g class="shape-group" data-index="1" clip-path="url(#clipbdccbcxy)"><path data-index="1" fill-rule="evenodd" d="M121.67,89.75L280.33000000000004,89.75" style="opacity: 1; stroke: rgb(42, 63, 95); stroke-opacity: 1; fill: rgb(0, 0, 0); fill-opacity: 0; stroke-width: 1px;"/></g><g class="shape-group" data-index="2" clip-path="url(#clipbdccbcxy)"><path data-index="2" fill-rule="evenodd" d="M201,75.15L280.33000000000004,75.15" style="opacity: 1; stroke: rgb(42, 63, 95); stroke-opacity: 1; fill: rgb(0, 0, 0); fill-opacity: 0; stroke-width: 1px;"/></g></g></g><g class="infolayer"><g class="g-gtitle"/><g class="g-xtitle"><text class="xtitle" x="201" y="311.3" text-anchor="middle" style="opacity: 1; font-family: 'Open Sans', verdana, arial, sans-serif; font-size: 14px; fill: rgb(42, 63, 95); fill-opacity: 1; white-space: pre;">mean gamma</text></g><g class="g-ytitle"><text class="ytitle" transform="rotate(-90,17.271874999999994,165)" x="17.271874999999994" y="165" text-anchor="middle" style="opacity: 1; font-family: 'Open Sans', verdana, arial, sans-serif; font-size: 14px; fill: rgb(42, 63, 95); fill-opacity: 1; white-space: pre;">a</text></g><g class="annotation" data-index="0" style="opacity: 1;"><g class="annotation-text-g" transform="rotate(0,121.67,100.7)"><g class="cursor-pointer" transform="translate(108,89)"><rect class="bg" x="0.5" y="0.5" width="26" height="22" style="stroke-width: 1px; stroke: rgb(0, 0, 0); stroke-opacity: 0; fill: rgb(0, 0, 0); fill-opacity: 0;"/><text class="annotation-text" text-anchor="middle" x="13.5703125" y="17" style="font-family: 'Open Sans', verdana, arial, sans-serif; font-size: 14px; fill: rgb(42, 63, 95); fill-opacity: 1; white-space: pre;">***</text></g></g></g><g class="annotation" data-index="1" style="opacity: 1;"><g class="annotation-text-g" transform="rotate(0,121.67,86.1)"><g class="cursor-pointer" transform="translate(116,75)"><rect class="bg" x="0.5" y="0.5" width="11" height="22" style="stroke-width: 1px; stroke: rgb(0, 0, 0); stroke-opacity: 0; fill: rgb(0, 0, 0); fill-opacity: 0;"/><text class="annotation-text" text-anchor="middle" x="5.859375" y="17" style="font-family: 'Open Sans', verdana, arial, sans-serif; font-size: 14px; fill: rgb(42, 63, 95); fill-opacity: 1; white-space: pre;">*</text></g></g></g><g class="annotation" data-index="2" style="opacity: 1;"><g class="annotation-text-g" transform="rotate(0,201,71.5)"><g class="cursor-pointer" transform="translate(188,60)"><rect class="bg" x="0.5" y="0.5" width="26" height="22" style="stroke-width: 1px; stroke: rgb(0, 0, 0); stroke-opacity: 0; fill: rgb(0, 0, 0); fill-opacity: 0;"/><text class="annotation-text" text-anchor="middle" x="13.5703125" y="17" style="font-family: 'Open Sans', verdana, arial, sans-serif; font-size: 14px; fill: rgb(42, 63, 95); fill-opacity: 1; white-space: pre;">***</text></g></g></g></g></svg>