<svg class="main-svg" xmlns="http://www.w3.org/2000/svg" xmlns:xlink="http://www.w3.org/1999/xlink" width="700" height="550" style="" viewBox="0 0 700 550"><rect x="0" y="0" width="700" height="550" style="fill: rgb(255, 255, 255); fill-opacity: 1;"/><defs id="defs-ad28d2"><g class="clips"><clipPath id="clipad28d2xyplot" class="plotclip"><rect width="452.72700000000003" height="187.22"/></clipPath><clipPath id="clipad28d2x2y2plot" class="plotclip"><rect width="79.89299999999999" height="187.22"/></clipPath><clipPath id="clipad28d2x3y3plot" class="plotclip"><rect width="452.72700000000003" height="153.18"/></clipPath><clipPath class="axesclip" id="clipad28d2x"><rect x="82" y="0" width="452.72700000000003" height="550"/></clipPath><clipPath class="axesclip" id="clipad28d2y"><rect x="0" y="100" width="700" height="187.22"/></clipPath><clipPath class="axesclip" id="clipad28d2xy"><rect x="82" y="100" width="452.72700000000003" height="187.22"/></clipPath><clipPath class="axesclip" id="clipad28d2y2"><rect x="0" y="100" width="700" height="187.22"/></clipPath><clipPath class="axesclip" id="clipad28d2xy2"><rect x="82" y="100" width="452.72700000000003" height="187.22"/></clipPath><clipPath class="axesclip" id="clipad28d2y3"><rect x="0" y="316.82" width="700" height="153.18"/></clipPath><clipPath class="axesclip" id="clipad28d2xy3"><rect x="82" y="316.82" width="452.72700000000003" height="153.18"/></clipPath><clipPath class="axesclip" id="clipad28d2x2"><rect x="540.107" y="0" width="79.89299999999999" height="550"/></clipPath><clipPath class="axesclip" id="clipad28d2x2y"><rect x="540.107" y="100" width="79.89299999999999" height="187.22"/></clipPath><clipPath class="axesclip" id="clipad28d2x2y2"><rect x="540.107" y="100" width="79.89299999999999" height="187.22"/></clipPath><clipPath class="axesclip" id="clipad28d2x2y3"><rect x="540.107" y="316.82" width="79.89299999999999" height="153.18"/></clipPath><clipPath class="axesclip" id="clipad28d2x3"><rect x="82" y="0" width="452.72700000000003" height="550"/></clipPath><clipPath class="axesclip" id="clipad28d2x3y"><rect x="82" y="100" width="452.72700000000003" height="187.22"/></clipPath><clipPath class="axesclip" id="clipad28d2x3y2"><rect x="82" y="100" width="452.72700000000003" height="187.22"/></clipPath><clipPath class="axesclip" id="clipad28d2x3y3"><rect x="82" y="316.82" width="452.72700000000003" height="153.18"/></clipPath></g><g class="gradients"/><g class="patterns"/></defs><g class="bglayer"/><g class="layer-below"><g class="imagelayer"/><g class="shapelayer"/></g><g class="cartesianlayer"><g class="subplot xy"><g class="layer-subplot"><g class="shapelayer"/><g class="imagelayer"/></g><g class="minor-gridlayer"><g class="x"/><g class="y"/></g><g class="gridlayer"><g class="x"><path class="xgrid crisp" transform="translate(196.1,0)" d="M0,100v187.22" style="stroke: rgb(235, 240, 248); stroke-opacity: 1; stroke-width: 1px;"/><path class="xgrid crisp" transform="translate(310.41999999999996,0)" d="M0,100v187.22" style="stroke: rgb(235, 240, 248); stroke-opacity: 1; stroke-width: 1px;"/><path class="xgrid crisp" transform="translate(424.75,0)" d="M0,100v187.22" style="stroke: rgb(235, 240, 248); stroke-opacity: 1; stroke-width: 1px;"/></g><g class="y"><path class="ygrid crisp" transform="translate(0,283.77)" d="M82,0h452.72700000000003" style="stroke: rgb(235, 240, 248); stroke-opacity: 1; stroke-width: 1px;"/><path class="ygrid crisp" transform="translate(0,196.76999999999998)" d="M82,0h452.72700000000003" style="stroke: rgb(235, 240, 248); stroke-opacity: 1; stroke-width: 1px;"/><path class="ygrid crisp" transform="translate(0,153.27)" d="M82,0h452.72700000000003" style="stroke: rgb(235, 240, 248); stroke-opacity: 1; stroke-width: 1px;"/><path class="ygrid crisp" transform="translate(0,109.76)" d="M82,0h452.72700000000003" style="stroke: rgb(235, 240, 248); stroke-opacity: 1; stroke-width: 1px;"/></g></g><g class="zerolinelayer"><path class="yzl zl crisp" transform="translate(0,240.27)" d="M82,0h452.72700000000003" style="stroke: rgb(235, 240, 248); stroke-opacity: 1; stroke-width: 2px;"/></g><g class="layer-between"><g class="shapelayer"/><g class="imagelayer"/></g><path class="xlines-below"/><path class="ylines-below"/><g class="overlines-below"/><g class="xaxislayer-below"/><g class="yaxislayer-below"/><g class="overaxes-below"/><g class="overplot"><g class="xy" transform="translate(82,100)" clip-path="url(#clipad28d2xyplot)"><g class="scatterlayer mlayer"><g class="trace scatter trace372d73" style="stroke-miterlimit: 2; opacity: 0.08;"><g class="fills"/><g class="errorbars"/><g class="lines"><path class="js-line" d="M0,140.48L4.57,141.44L9.15,139.94L13.72,141.34L18.29,140.79L27.44,140.79L32.01,141.51L45.73,139.49L50.3,134.24L64.02,133.1L68.6,130.98L73.17,126.79L77.74,117.22L86.89,70.72L91.46,54.85L96.03,55.2L100.61,47.46L109.75,35.66L114.33,34.33L132.62,35.64L137.19,32.86L141.76,35.54L146.34,32.34L155.48,29.24L160.06,31.56L169.2,32.31L173.77,29.9L178.35,26.37L182.92,25.47L187.49,24.15L192.07,24.42L196.64,22.95L201.21,26.02L205.79,26.54L210.36,30.12L219.5,23.75L224.08,25.2L228.65,25.73L233.22,24.02L237.8,26.04L242.37,25.99L251.52,22.16L256.09,23.04L260.66,24.49L265.23,23.89L269.81,28.41L274.38,25.09L278.95,21.1L283.53,22.35L288.1,24.51L292.67,24.53L297.25,22.98L301.82,29.99L310.96,24.94L315.54,28.26L324.68,23.84L329.26,20.5L338.4,15.52L342.98,16.18L352.12,16.29L356.69,17.96L361.27,15.65L365.84,17.37L370.41,17.69L374.99,21.44L379.56,20.96L384.13,17.09L388.71,18.24L393.28,15.49L397.85,15.35L402.42,11.77L407,11.78L411.57,13.68L420.72,17.71L425.29,22.65L429.86,19.7L434.44,20.14L439.01,18.81L443.58,22.46L452.73,25.43" style="vector-effect: none; fill: none; stroke: rgb(183, 86, 135); stroke-opacity: 1; stroke-width: 6px; opacity: 1;"/></g><g class="points"/><g class="text"/></g><g class="trace scatter trace21bd94" style="stroke-miterlimit: 2; opacity: 0.08;"><g class="fills"/><g class="errorbars"/><g class="lines"><path class="js-line" d="M0,140.34L4.57,141.48L9.15,140.64L13.72,138.5L18.29,126.91L22.87,121.82L27.44,97.39L36.58,47.48L41.16,42.57L54.88,21.72L59.45,24.37L64.02,18.39L68.6,19.87L82.31,21.02L86.89,17.71L91.46,19.29L96.03,18.99L105.18,24.94L109.75,26.45L114.33,29.31L118.9,26.11L123.47,27.4L128.04,25.96L132.62,26.86L137.19,32.06L141.76,31.79L146.34,27.15L150.91,26.34L155.48,28.69L160.06,26.89L164.63,28.24L173.77,20.82L178.35,20.34L187.49,22.49L192.07,23.64L196.64,28.09L201.21,28.24L210.36,28.59L214.93,23.48L219.5,18.07L224.08,16.27L233.22,13.12L237.8,14.5L246.94,11.16L251.52,12.1L256.09,17.13L260.66,17.97L274.38,20.42L278.95,20.08L283.53,18.02L288.1,21.33L306.39,22.07L310.96,24.87L315.54,26.09L320.11,31.13L324.68,29.98L329.26,26.92L333.83,25.96L338.4,28.98L342.98,31.8L347.55,30.74L352.12,30.01L356.69,30.91L365.84,33.5L370.41,32.24L388.71,28.69L393.28,28.65L397.85,29.06L402.42,31.12L407,26.92L411.57,25.2L416.14,25.56L420.72,24.1L429.86,27.37L434.44,27.13L443.58,28.4L448.15,26.89L452.73,29.05" style="vector-effect: none; fill: none; stroke: rgb(183, 86, 135); stroke-opacity: 1; stroke-width: 6px; opacity: 1;"/></g><g class="points"/><g class="text"/></g><g class="trace scatter trace152dc4" style="stroke-miterlimit: 2; opacity: 0.08;"><g class="fills"/><g class="errorbars"/><g class="lines"><path class="js-line" d="M0,139.88L9.15,137.62L13.72,138.21L18.29,140.11L22.87,140.36L36.58,135.26L41.16,135.19L45.73,136.94L50.3,131.23L54.88,129.21L59.45,123.38L64.02,124.37L68.6,122.02L77.74,133.61L82.31,129.89L86.89,129.07L91.46,122.96L96.03,123.1L100.61,116.87L109.75,119.14L114.33,121.18L123.47,119.07L128.04,118.23L132.62,114.25L137.19,117.49L150.91,112.41L155.48,112.16L160.06,111.8L164.63,100.75L169.2,99.55L173.77,92.14L178.35,86.38L182.92,75.93L192.07,58.84L196.64,53.35L201.21,47.34L205.79,45.9L210.36,41.32L214.93,39.82L219.5,34.07L224.08,31.37L237.8,34.05L242.37,34.5L256.09,32.77L260.66,31.86L265.23,29.32L269.81,28.97L274.38,28.16L278.95,30.03L288.1,26.04L292.67,20.85L297.25,20.39L301.82,23.41L306.39,20.63L310.96,21.6L320.11,24.25L324.68,29.5L333.83,31.73L338.4,32.43L347.55,34.71L352.12,30.63L356.69,28.31L361.27,29.6L365.84,32.47L370.41,29.83L374.99,25.8L379.56,27.28L388.71,28.69L393.28,28.71L397.85,30.12L402.42,27.53L407,25.34L411.57,27.09L416.14,28.4L420.72,33.94L425.29,29.08L429.86,29.99L434.44,31.64L439.01,31.02L443.58,28.65L448.15,31.51L452.73,33.18" style="vector-effect: none; fill: none; stroke: rgb(183, 86, 135); stroke-opacity: 1; stroke-width: 6px; opacity: 1;"/></g><g class="points"/><g class="text"/></g><g class="trace scatter traced9298b" style="stroke-miterlimit: 2; opacity: 0.08;"><g class="fills"/><g class="errorbars"/><g class="lines"><path class="js-line" d="M0,140.68L9.15,139.19L13.72,135.49L22.87,135.99L27.44,134.32L36.58,124.41L41.16,124.15L45.73,119.7L50.3,118.13L54.88,118.39L59.45,120.5L64.02,120.67L68.6,123.19L73.17,125.98L77.74,125.39L82.31,124.7L86.89,120.17L100.61,121.97L105.18,125.5L109.75,119.12L114.33,124.73L118.9,121.02L123.47,123.03L128.04,114.77L132.62,112.68L137.19,109.68L141.76,101.7L150.91,86.42L155.48,67.48L160.06,60.25L164.63,62.45L169.2,46.81L173.77,47.68L178.35,36.61L182.92,40.36L187.49,34.56L192.07,31.35L196.64,25.4L201.21,22.77L214.93,20.31L219.5,21.35L224.08,18.51L228.65,20.48L233.22,21.05L237.8,26.32L242.37,24.16L246.94,23.87L260.66,26.4L265.23,25.84L269.81,24.69L274.38,27.14L278.95,28.36L283.53,27.14L288.1,24.15L292.67,24.55L301.82,25.15L306.39,21.99L310.96,23.2L315.54,21.26L320.11,19.61L324.68,19.79L333.83,17.76L338.4,14.15L342.98,16.43L347.55,16.18L361.27,12.37L365.84,13.64L370.41,10.05L374.99,11.23L379.56,12.76L384.13,11.87L393.28,16.24L397.85,15.65L407,9.36L411.57,11.74L416.14,16.38L420.72,15.33L425.29,16.88L429.86,16.74L434.44,16.68L439.01,14.28L448.15,12.92L452.73,13.23" style="vector-effect: none; fill: none; stroke: rgb(183, 86, 135); stroke-opacity: 1; stroke-width: 6px; opacity: 1;"/></g><g class="points"/><g class="text"/></g><g class="trace scatter trace687065" style="stroke-miterlimit: 2; opacity: 0.08;"><g class="fills"/><g class="errorbars"/><g class="lines"><path class="js-line" d="M0,140.46L9.15,139.49L13.72,138.86L32.01,143.01L36.58,141.17L41.16,142.43L45.73,141.51L50.3,139.47L54.88,139.27L59.45,142.24L64.02,148.52L68.6,142.56L73.17,144.02L77.74,143.98L82.31,145.94L86.89,148.18L91.46,145.15L96.03,147.72L100.61,147.09L105.18,144.78L109.75,145.56L114.33,143.82L118.9,144.88L123.47,148.37L128.04,149.71L137.19,147.87L141.76,142.92L150.91,144.28L155.48,148.26L164.63,148.2L169.2,145.46L173.77,145.48L178.35,142.52L192.07,143.42L196.64,145.61L201.21,147.72L205.79,145.26L210.36,141.94L214.93,148.33L219.5,142.68L224.08,145.01L228.65,138.35L233.22,137.48L237.8,141.14L242.37,142.45L246.94,142.93L251.52,141.02L256.09,141.53L260.66,139.14L265.23,136.35L269.81,138.94L278.95,132.92L283.53,133.47L288.1,132.17L292.67,132.63L297.25,130.82L301.82,135.56L306.39,135.93L310.96,132.82L315.54,126.77L320.11,116.92L324.68,100.99L329.26,91.19L333.83,77.38L338.4,58.64L347.55,39.62L352.12,41.15L356.69,38.56L361.27,42.6L379.56,28.97L384.13,30.24L388.71,31.52L393.28,30.77L397.85,28.06L402.42,28.08L411.57,27.92L416.14,24.45L420.72,29.43L425.29,28.15L429.86,28.12L434.44,31L443.58,29.4L448.15,31.4L452.73,32.91" style="vector-effect: none; fill: none; stroke: rgb(183, 86, 135); stroke-opacity: 1; stroke-width: 6px; opacity: 1;"/></g><g class="points"/><g class="text"/></g><g class="trace scatter tracefc8723" style="stroke-miterlimit: 2; opacity: 0.08;"><g class="fills"/><g class="errorbars"/><g class="lines"><path class="js-line" d="M0,140.27L13.72,145.38L18.29,147.08L22.87,147.63L27.44,144.87L36.58,147.62L41.16,146.11L45.73,145.31L50.3,146.39L59.45,141.17L64.02,143.38L68.6,145.15L73.17,143.64L77.74,145.54L82.31,141.46L96.03,141.31L100.61,143.97L109.75,143.82L114.33,150.03L118.9,150.18L123.47,153.41L128.04,157.86L132.62,158.59L137.19,160.08L141.76,159.92L146.34,167.51L150.91,169.72L155.48,177.86L160.06,176.64L164.63,173.82L169.2,176.77L173.77,171.92L178.35,169.66L182.92,163.97L187.49,168.91L192.07,169.66L196.64,166.28L201.21,160.31L205.79,164.14L214.93,156.12L219.5,159.03L224.08,156.55L228.65,156.15L233.22,154.53L237.8,147.84L242.37,152.61L246.94,155.12L251.52,147.79L256.09,148.33L260.66,153.87L265.23,156.18L269.81,155.74L274.38,151.1L278.95,149.62L283.53,151.9L297.25,148.72L301.82,152.21L306.39,146.76L310.96,149.25L320.11,150.61L324.68,145.59L329.26,145.62L333.83,147.93L342.98,148.42L347.55,147.07L356.69,148.74L361.27,150.6L365.84,152.26L370.41,149.61L374.99,153.32L379.56,151.88L384.13,150.05L388.71,155.71L393.28,160.92L397.85,152.84L402.42,152.53L407,154.53L416.14,142.46L420.72,141.81L429.86,139.87L434.44,143.89L448.15,139.95L452.73,144.38" style="vector-effect: none; fill: none; stroke: rgb(183, 86, 135); stroke-opacity: 1; stroke-width: 6px; opacity: 1;"/></g><g class="points"/><g class="text"/></g><g class="trace scatter trace0abb40" style="stroke-miterlimit: 2; opacity: 0.08;"><g class="fills"/><g class="errorbars"/><g class="lines"><path class="js-line" d="M0,140.95L13.72,141.57L18.29,145.93L32.01,146.33L36.58,142.26L50.3,149.59L54.88,146.94L64.02,147.11L68.6,144.93L77.74,140.18L82.31,141.59L86.89,141.99L91.46,140.47L100.61,139.61L105.18,136.65L109.75,137.22L114.33,132.74L118.9,124.17L123.47,107.92L132.62,102.91L137.19,93.42L141.76,87.13L146.34,88.75L150.91,82.71L155.48,85.9L160.06,80.07L164.63,77.59L169.2,76.23L173.77,77.03L187.49,79.15L192.07,84.02L196.64,81.6L201.21,88.54L205.79,92.16L210.36,89.28L214.93,92.8L219.5,86.9L224.08,80.18L228.65,76.8L233.22,70.37L237.8,69.46L251.52,72.89L256.09,71.11L265.23,69.46L269.81,71.93L274.38,70.82L278.95,71.95L283.53,75.07L288.1,74.92L292.67,77.5L297.25,77.15L306.39,81.2L310.96,80.79L320.11,77.01L324.68,75.86L329.26,78.06L333.83,75.44L338.4,73.81L342.98,77.06L352.12,73.39L356.69,73.79L361.27,73.3L365.84,75.22L370.41,73.16L374.99,72.93L384.13,70.29L388.71,71.81L393.28,73.55L397.85,73.35L407,73.6L411.57,74.03L420.72,74.51L425.29,70.83L429.86,71.1L434.44,73.82L443.58,76.37L448.15,75.84L452.73,74.93" style="vector-effect: none; fill: none; stroke: rgb(183, 86, 135); stroke-opacity: 1; stroke-width: 6px; opacity: 1;"/></g><g class="points"/><g class="text"/></g><g class="trace scatter traced9b34a" style="stroke-miterlimit: 2; opacity: 0.08;"><g class="fills"/><g class="errorbars"/><g class="lines"><path class="js-line" d="M0,140.02L13.72,140.2L18.29,141.91L27.44,142.85L32.01,146.53L54.88,146.68L59.45,147.94L64.02,147.29L68.6,144.77L73.17,144.84L77.74,142.72L82.31,140.82L86.89,142.7L91.46,140.24L96.03,139.64L109.75,144.18L114.33,147.9L123.47,143.37L128.04,141.76L132.62,146.28L137.19,141.26L141.76,143.5L146.34,140.13L150.91,138.53L155.48,140.39L160.06,143.27L164.63,149.52L169.2,153L173.77,152.97L182.92,146.18L187.49,143.92L228.65,136.47L233.22,140.27L237.8,142.53L242.37,143.09L246.94,141.29L251.52,143.92L256.09,141.26L260.66,141.45L265.23,142.65L269.81,141.54L274.38,141.8L278.95,138.46L292.67,140.76L297.25,139.2L301.82,138.84L306.39,140.14L310.96,139.14L315.54,140.03L320.11,138.87L324.68,142.11L329.26,143.92L333.83,140.52L342.98,142.11L347.55,146.12L352.12,144.77L356.69,146.99L365.84,144.55L370.41,140L379.56,138.4L384.13,134.94L393.28,135.56L397.85,136.52L402.42,139.5L407,139.88L411.57,138.55L416.14,143.24L420.72,143.74L425.29,140.3L429.86,133.29L434.44,133.18L439.01,129.76L443.58,129.83L448.15,127.86L452.73,131.46" style="vector-effect: none; fill: none; stroke: rgb(183, 86, 135); stroke-opacity: 1; stroke-width: 6px; opacity: 1;"/></g><g class="points"/><g class="text"/></g><g class="trace scatter trace29cc88" style="stroke-miterlimit: 2; opacity: 0.08;"><g class="fills"/><g class="errorbars"/><g class="lines"><path class="js-line" d="M0,140.78L9.15,139.69L13.72,138.81L18.29,140.78L22.87,140.88L45.73,140.28L50.3,128.65L59.45,106.23L64.02,104.87L68.6,93.47L73.17,90.47L77.74,92.71L82.31,89.41L86.89,86.16L91.46,86.9L96.03,87.72L100.61,90.63L109.75,87.57L114.33,87.91L118.9,88.9L123.47,88.23L128.04,92.16L132.62,101.39L137.19,96.56L141.76,96.32L146.34,100.26L150.91,98.28L164.63,99.58L169.2,97.39L173.77,99.18L178.35,95.68L182.92,94.42L187.49,91.34L192.07,90.68L196.64,91.76L205.79,88.21L210.36,88.21L224.08,83.76L228.65,84.85L233.22,86.17L237.8,84.02L242.37,81.91L246.94,83.82L251.52,83.89L256.09,78.4L269.81,78.63L274.38,80.54L283.53,78.72L288.1,76.62L292.67,78.07L297.25,82.52L306.39,72.65L310.96,74.26L315.54,73.07L320.11,75.38L324.68,75.03L329.26,76.31L338.4,75.65L342.98,78.4L347.55,77.79L352.12,75.66L356.69,75.73L361.27,78.92L374.99,75.93L379.56,79.22L384.13,79.84L388.71,78L393.28,81.66L397.85,80.1L402.42,82.74L407,81.11L411.57,84L416.14,80.07L420.72,82.3L425.29,79.49L429.86,82.25L434.44,82.39L439.01,83.22L443.58,80.1L448.15,83.06L452.73,82.58" style="vector-effect: none; fill: none; stroke: rgb(183, 86, 135); stroke-opacity: 1; stroke-width: 6px; opacity: 1;"/></g><g class="points"/><g class="text"/></g><g class="trace scatter trace14ad1c" style="stroke-miterlimit: 2; opacity: 0.08;"><g class="fills"/><g class="errorbars"/><g class="lines"><path class="js-line" d="M0,140.33L4.57,141.19L9.15,139.5L22.87,142.68L27.44,142.1L32.01,141.54L36.58,143.04L41.16,142.11L45.73,144.85L50.3,146.93L54.88,145.45L59.45,142.68L64.02,142.41L68.6,139.69L73.17,140.76L82.31,141.37L86.89,138.93L96.03,140.47L100.61,136.93L105.18,131.51L109.75,128.98L118.9,117.97L123.47,111.43L137.19,93.94L141.76,92.64L146.34,92.39L150.91,85.99L155.48,74.36L160.06,70.03L164.63,63L169.2,61.42L173.77,59.79L178.35,59.82L182.92,60.21L187.49,58.53L192.07,57.06L196.64,58.25L205.79,55.94L210.36,58.67L219.5,55.44L224.08,57.45L228.65,59.91L233.22,58.37L237.8,59.7L242.37,57.39L246.94,57.41L251.52,61.81L256.09,60.05L260.66,63.72L265.23,61.51L269.81,62.79L274.38,59.82L278.95,59.17L288.1,55.68L292.67,58.49L297.25,58.14L301.82,60.46L310.96,54.71L315.54,53.7L320.11,56.47L324.68,55.82L333.83,54.02L338.4,56.01L342.98,58.74L347.55,57.59L352.12,54.5L356.69,53.36L365.84,51.1L370.41,50.89L374.99,52.6L379.56,52.26L384.13,54.25L388.71,52.48L393.28,50.76L397.85,52.21L402.42,49.74L407,49.35L411.57,48.39L416.14,45.67L420.72,45.94L425.29,47.8L429.86,47.95L434.44,49.92L443.58,53.24L448.15,51.07L452.73,51.48" style="vector-effect: none; fill: none; stroke: rgb(183, 86, 135); stroke-opacity: 1; stroke-width: 6px; opacity: 1;"/></g><g class="points"/><g class="text"/></g><g class="trace scatter trace17805e" style="stroke-miterlimit: 2; opacity: 0.08;"><g class="fills"/><g class="errorbars"/><g class="lines"><path class="js-line" d="M0,140.68L4.57,140.89L9.15,139.2L18.29,141.6L22.87,140.39L32.01,143.07L36.58,143.87L41.16,145.63L45.73,143.99L73.17,138.29L77.74,138.96L82.31,137.24L86.89,138.18L100.61,132.95L105.18,128.2L109.75,132.48L114.33,132.05L118.9,131.85L123.47,135.86L128.04,130.46L132.62,131.07L137.19,134.22L141.76,131.46L155.48,121.64L160.06,120.94L169.2,113.99L173.77,110.43L178.35,105.98L182.92,106.73L187.49,103.52L192.07,103L196.64,102.2L201.21,103.78L205.79,101.37L210.36,105.09L214.93,118.58L219.5,109.13L224.08,100.94L228.65,96.14L233.22,91.29L237.8,82.51L246.94,55.1L251.52,52.83L260.66,47.77L265.23,51.07L274.38,43.5L278.95,43.54L297.25,39.72L301.82,40.85L310.96,44.13L315.54,46.17L320.11,46.55L324.68,43.35L347.55,45.3L352.12,49.44L356.69,48.67L361.27,51.42L370.41,48.79L374.99,54.36L379.56,59.38L384.13,57.81L388.71,54.13L393.28,54L397.85,51.38L402.42,51.2L407,47.8L411.57,46.85L416.14,50.06L420.72,47.84L425.29,47.42L429.86,44.96L434.44,44.43L439.01,46.15L443.58,44.8L448.15,47.69L452.73,49.42" style="vector-effect: none; fill: none; stroke: rgb(183, 86, 135); stroke-opacity: 1; stroke-width: 6px; opacity: 1;"/></g><g class="points"/><g class="text"/></g><g class="trace scatter traceee0000" style="stroke-miterlimit: 2; opacity: 0.08;"><g class="fills"/><g class="errorbars"/><g class="lines"><path class="js-line" d="M0,140.63L13.72,138.71L18.29,140.83L27.44,136.93L32.01,135.34L36.58,137.49L41.16,135.99L45.73,134.43L50.3,134.7L54.88,133.4L59.45,134.22L64.02,130.11L68.6,135.52L77.74,136.17L82.31,138.07L91.46,141.21L96.03,139.19L100.61,143.13L105.18,143.26L118.9,140.11L123.47,143.09L128.04,140.59L132.62,142.16L137.19,142.81L141.76,141.83L146.34,139.52L150.91,141.04L173.77,139.56L178.35,137.12L182.92,140.83L187.49,135.26L196.64,129.31L201.21,111.16L205.79,102.44L210.36,84.29L214.93,76.19L219.5,80.03L228.65,64.14L233.22,47.43L237.8,47.66L242.37,40.87L260.66,39.53L265.23,39.61L269.81,39.48L274.38,41.14L278.95,40.26L283.53,42.65L301.82,40.32L306.39,38L310.96,36.78L315.54,38.02L320.11,36.21L324.68,37.26L329.26,41.82L333.83,40.08L338.4,41.85L342.98,40.37L347.55,36.8L352.12,38.59L370.41,38.05L374.99,41.31L379.56,42.39L384.13,41.24L397.85,41.79L402.42,39.15L407,43.41L411.57,40.12L416.14,39.05L420.72,35.32L425.29,36.6L429.86,39.53L439.01,38.61L443.58,33.43L452.73,28.52" style="vector-effect: none; fill: none; stroke: rgb(183, 86, 135); stroke-opacity: 1; stroke-width: 6px; opacity: 1;"/></g><g class="points"/><g class="text"/></g><g class="trace scatter tracef3199a" style="stroke-miterlimit: 2; opacity: 0.08;"><g class="fills"/><g class="errorbars"/><g class="lines"><path class="js-line" d="M0,140.49L9.15,143.09L13.72,143.58L18.29,143.98L22.87,142.62L32.01,142.97L36.58,138.62L41.16,138.42L45.73,134.2L54.88,130.36L59.45,131.05L64.02,131.83L68.6,128.73L77.74,133.48L82.31,130.24L86.89,132.85L91.46,128.87L96.03,127.31L100.61,122.83L105.18,125.86L109.75,125.95L118.9,128.41L123.47,124.18L128.04,128.12L132.62,136.01L137.19,138.9L141.76,130.08L146.34,123.25L150.91,106.75L160.06,60.1L164.63,55.21L169.2,48.98L173.77,33.36L178.35,29.64L182.92,31.61L187.49,29.29L192.07,31.08L196.64,31.54L201.21,34.44L205.79,34.94L210.36,31.13L219.5,26.8L224.08,26.52L242.37,29.55L246.94,32.57L251.52,35.91L256.09,31.46L260.66,29.84L265.23,30.85L269.81,30.47L274.38,32.19L283.53,30.23L288.1,31.92L297.25,30.12L301.82,30.74L306.39,29.84L310.96,30.81L320.11,25.84L324.68,26.13L329.26,24.28L333.83,27.75L338.4,27.04L342.98,28.9L347.55,29.39L352.12,25.37L356.69,21.42L361.27,20.49L370.41,26.89L374.99,30.69L384.13,32.75L388.71,31.33L393.28,27.33L397.85,29.27L402.42,28.3L407,31.47L416.14,30.3L420.72,30.12L425.29,27.97L429.86,28.27L434.44,26.5L439.01,28.93L443.58,32.23L448.15,31.74L452.73,31.96" style="vector-effect: none; fill: none; stroke: rgb(183, 86, 135); stroke-opacity: 1; stroke-width: 6px; opacity: 1;"/></g><g class="points"/><g class="text"/></g><g class="trace scatter trace17cac6" style="stroke-miterlimit: 2; opacity: 0.08;"><g class="fills"/><g class="errorbars"/><g class="lines"><path class="js-line" d="M0,139.78L9.15,137.37L13.72,138.81L18.29,141.35L22.87,140.46L27.44,142.79L32.01,140.74L50.3,137.89L54.88,140.48L64.02,137.59L68.6,138.42L73.17,137.31L77.74,139.88L82.31,137.79L86.89,140.07L91.46,137.24L96.03,132.07L100.61,129.88L105.18,130.63L109.75,134.15L114.33,133.27L118.9,131.43L123.47,133.47L128.04,132.31L132.62,125.7L155.48,50.5L160.06,56.65L169.2,40.18L173.77,34L178.35,33.97L182.92,32.18L187.49,35.88L192.07,35.29L196.64,35.62L201.21,32.32L214.93,29.75L219.5,31.03L237.8,29.92L242.37,29.59L246.94,32.8L251.52,32.34L260.66,29.67L265.23,36.91L269.81,37.26L274.38,35.13L278.95,35.22L283.53,37.17L288.1,38.75L292.67,42.63L297.25,42.34L301.82,37.44L320.11,39L324.68,38.51L329.26,37.09L333.83,39.7L342.98,35.72L347.55,37.75L356.69,37.76L361.27,38.75L379.56,41.73L384.13,41.56L393.28,37.66L397.85,39.24L407,30.7L411.57,33.73L425.29,40.18L429.86,36.99L434.44,36.88L439.01,35.22L443.58,37.24L448.15,32.04L452.73,31.87" style="vector-effect: none; fill: none; stroke: rgb(183, 86, 135); stroke-opacity: 1; stroke-width: 6px; opacity: 1;"/></g><g class="points"/><g class="text"/></g><g class="trace scatter tracedccfea" style="stroke-miterlimit: 2; opacity: 0.08;"><g class="fills"/><g class="errorbars"/><g class="lines"><path class="js-line" d="M0,140.16L4.57,138.54L9.15,139.68L13.72,141.62L18.29,138.75L22.87,135.81L27.44,120.32L32.01,100.52L36.58,96.28L41.16,88.44L45.73,55.85L50.3,40.17L54.88,40.19L59.45,25.41L64.02,19.08L68.6,11.07L73.17,10.66L82.31,14.69L86.89,14.82L91.46,18.44L96.03,19.86L105.18,13.59L109.75,15.52L114.33,16.05L118.9,18.88L128.04,17.52L132.62,22.76L141.76,28.25L146.34,27.85L150.91,24.72L155.48,24.5L169.2,24.24L173.77,30.62L178.35,28.45L182.92,30.97L187.49,30.23L192.07,31.07L196.64,30.39L201.21,31.92L205.79,31.49L210.36,34.05L214.93,34.15L219.5,32.16L228.65,28.58L233.22,36.16L237.8,36.34L242.37,31.63L256.09,33.78L260.66,30.91L265.23,27.61L269.81,28.42L274.38,32.23L278.95,29.27L288.1,29.37L292.67,29.14L297.25,30L301.82,27.74L315.54,27.26L320.11,24.69L324.68,24.52L329.26,20.51L338.4,21.65L342.98,19.99L347.55,19.93L352.12,21.87L356.69,24.62L361.27,25.59L374.99,25.99L379.56,28.36L384.13,28.68L388.71,26.61L397.85,28.78L402.42,25.84L407,24.11L411.57,25.56L416.14,23.22L420.72,24.12L429.86,23.64L434.44,28.63L439.01,24.36L443.58,24.85L448.15,25.34L452.73,22.95" style="vector-effect: none; fill: none; stroke: rgb(183, 86, 135); stroke-opacity: 1; stroke-width: 6px; opacity: 1;"/></g><g class="points"/><g class="text"/></g><g class="trace scatter trace32fe3d" style="stroke-miterlimit: 2; opacity: 0.08;"><g class="fills"/><g class="errorbars"/><g class="lines"><path class="js-line" d="M0,139.5L22.87,138.3L27.44,134.81L32.01,138.21L36.58,137.77L41.16,135.92L45.73,131.59L59.45,126.25L64.02,133.7L68.6,128.39L73.17,111.47L82.31,89.23L86.89,83.08L91.46,75.44L96.03,74.14L100.61,71.95L105.18,74.47L109.75,69.4L114.33,69L123.47,66.49L128.04,62.95L137.19,57.83L141.76,51.88L146.34,46.92L150.91,45.88L155.48,45.14L160.06,41.82L164.63,43.1L169.2,42.44L178.35,42.57L182.92,44.37L187.49,44.59L192.07,41.46L196.64,41.08L201.21,38.71L205.79,39.62L210.36,43.55L214.93,46.48L219.5,46.63L224.08,42.1L228.65,41.36L233.22,42.46L237.8,41.24L242.37,42.87L246.94,42.83L251.52,39.81L256.09,41.02L260.66,40.76L265.23,43.01L269.81,42.23L274.38,38.96L278.95,42.09L283.53,41.49L301.82,42.69L306.39,46.77L315.54,46.51L320.11,47.47L329.26,49.06L333.83,48.45L338.4,47.93L342.98,49.31L356.69,51.85L361.27,54.14L374.99,58.47L379.56,58.3L384.13,63.94L388.71,61.83L397.85,60.56L402.42,63.31L411.57,62.08L416.14,60.06L425.29,54.64L429.86,56.25L434.44,58.58L439.01,58.14L443.58,56.94L448.15,59.15L452.73,62.16" style="vector-effect: none; fill: none; stroke: rgb(183, 86, 135); stroke-opacity: 1; stroke-width: 6px; opacity: 1;"/></g><g class="points"/><g class="text"/></g><g class="trace scatter traceae517b" style="stroke-miterlimit: 2; opacity: 0.08;"><g class="fills"/><g class="errorbars"/><g class="lines"><path class="js-line" d="M0,140.08L4.57,138.65L9.15,139.2L18.29,132.4L22.87,131.67L27.44,135.28L32.01,131.92L36.58,130.8L41.16,131.64L45.73,124L50.3,125.73L54.88,112.32L59.45,105.22L64.02,101.03L68.6,86.06L73.17,75.17L77.74,69.57L86.89,59.99L91.46,60.87L105.18,60.52L109.75,58.31L118.9,58.92L123.47,56.29L146.34,55.72L150.91,57.11L169.2,57.52L173.77,58.76L187.49,58.91L192.07,56.35L196.64,60.36L201.21,60.78L210.36,62.28L214.93,64.17L224.08,63.36L228.65,58.9L246.94,58.01L251.52,60.04L265.23,62.47L269.81,60.58L274.38,57.69L278.95,56.86L283.53,58.7L288.1,58.42L297.25,59.2L301.82,61.21L306.39,61.62L310.96,58.77L320.11,63.55L324.68,64.62L333.83,64.28L338.4,65.86L347.55,64.47L352.12,64.49L356.69,60.63L361.27,63.76L370.41,72.69L374.99,70.94L379.56,68.33L384.13,67.74L388.71,67.86L393.28,65.29L402.42,68.87L407,68.09L416.14,63.52L420.72,66.06L425.29,64.77L429.86,67.49L439.01,71.31L443.58,69.66L448.15,71.92L452.73,69.5" style="vector-effect: none; fill: none; stroke: rgb(183, 86, 135); stroke-opacity: 1; stroke-width: 6px; opacity: 1;"/></g><g class="points"/><g class="text"/></g><g class="trace scatter traceb6f14c" style="stroke-miterlimit: 2; opacity: 0.08;"><g class="fills"/><g class="errorbars"/><g class="lines"><path class="js-line" d="M0,140.07L9.15,139.61L13.72,142.66L22.87,137.25L27.44,139.38L41.16,143.79L45.73,143.02L50.3,141.49L54.88,142.42L59.45,139.91L64.02,139.6L73.17,135.9L77.74,129.99L82.31,123.73L86.89,113.16L105.18,44.7L109.75,36.16L118.9,31.62L123.47,30.62L128.04,31.52L132.62,28.86L137.19,27.72L141.76,24.7L146.34,23.59L150.91,25.64L164.63,20.87L169.2,23.55L178.35,24.62L182.92,24.63L187.49,24.39L192.07,27.39L201.21,28.32L205.79,28.88L214.93,34.5L219.5,31.97L224.08,33.32L228.65,31.9L233.22,31.16L237.8,32.23L246.94,33.1L251.52,32.87L256.09,36.36L260.66,35.36L265.23,28.81L269.81,31.07L283.53,33.05L288.1,30.92L292.67,32.77L297.25,32.09L306.39,30.03L310.96,34.78L324.68,36.48L329.26,34.9L333.83,36.04L338.4,39.48L342.98,37.76L347.55,39.23L361.27,36.01L365.84,39.53L370.41,41.59L374.99,39.39L379.56,41.67L384.13,38.16L388.71,39.89L393.28,38.65L397.85,41.27L402.42,40.75L407,38.98L411.57,42.08L439.01,41.1L443.58,42.14L448.15,37.81L452.73,38.18" style="vector-effect: none; fill: none; stroke: rgb(183, 86, 135); stroke-opacity: 1; stroke-width: 6px; opacity: 1;"/></g><g class="points"/><g class="text"/></g><g class="trace scatter tracecaab0f" style="stroke-miterlimit: 2; opacity: 0.08;"><g class="fills"/><g class="errorbars"/><g class="lines"><path class="js-line" d="M0,140.8L18.29,144.18L22.87,141.97L32.01,138.85L36.58,145.76L45.73,144.58L50.3,146.23L54.88,145.11L59.45,145.92L64.02,145.54L68.6,147.49L77.74,146.39L82.31,149.72L86.89,153.2L91.46,150.15L96.03,151.09L100.61,148.8L105.18,153L109.75,152.19L114.33,150.6L118.9,154.24L128.04,152.98L132.62,155.86L137.19,163.54L141.76,161.16L146.34,165.6L150.91,167.26L160.06,174.02L164.63,175.32L173.77,167.93L178.35,161.59L187.49,159.76L192.07,167.69L201.21,166.12L205.79,167.31L219.5,169.16L224.08,165.32L237.8,161.77L242.37,158.86L246.94,163.43L251.52,163.54L256.09,159.23L260.66,161.82L265.23,163.71L269.81,167.52L274.38,162.62L278.95,161.61L288.1,165.55L292.67,164.41L297.25,162.66L301.82,162.6L306.39,156.08L310.96,153.74L315.54,156.81L320.11,157.66L324.68,155.11L329.26,156.81L333.83,154.62L338.4,155.07L342.98,149.63L347.55,151.42L361.27,163.04L365.84,164.86L379.56,155.29L384.13,152.54L393.28,157.12L397.85,154.54L407,165.45L411.57,162.46L416.14,155.79L420.72,158.43L429.86,152.53L434.44,153.76L439.01,153.32L443.58,154.57L448.15,155.37L452.73,163.1" style="vector-effect: none; fill: none; stroke: rgb(183, 86, 135); stroke-opacity: 1; stroke-width: 6px; opacity: 1;"/></g><g class="points"/><g class="text"/></g><g class="trace scatter tracee4c034" style="stroke-miterlimit: 2; opacity: 0.08;"><g class="fills"/><g class="errorbars"/><g class="lines"><path class="js-line" d="M0,140.16L4.57,140.18L9.15,137.1L13.72,139.93L18.29,139.62L27.44,137.75L32.01,123.74L36.58,93.13L41.16,95.23L45.73,92.6L50.3,64.49L54.88,39.32L59.45,33.65L64.02,31.65L68.6,22.78L73.17,21.78L77.74,15.1L86.89,18.17L91.46,22.15L96.03,23.6L100.61,20.23L105.18,24.03L109.75,23.88L114.33,23.53L118.9,20.45L123.47,21.2L128.04,19.86L141.76,15.85L146.34,16.89L150.91,21.44L155.48,23.11L164.63,30.8L169.2,30.78L173.77,26.15L178.35,27.76L182.92,23.75L187.49,23.79L196.64,21.98L201.21,24.31L205.79,23.94L210.36,18.33L214.93,17.69L219.5,20.49L228.65,23.02L233.22,22.7L242.37,26.5L246.94,31.27L256.09,30.71L260.66,33.69L274.38,29.01L278.95,33.83L283.53,30.91L288.1,34.1L301.82,23.77L306.39,25.36L315.54,23.77L320.11,20.04L329.26,15.69L333.83,17.71L338.4,18.88L342.98,14.7L347.55,9.7L352.12,11.04L361.27,10.97L365.84,14.05L374.99,12.33L379.56,11.62L388.71,12.85L393.28,12.3L402.42,15.12L407,16.33L425.29,21.91L429.86,19.79L434.44,25.83L439.01,28L443.58,30.05L448.15,28.48L452.73,30.32" style="vector-effect: none; fill: none; stroke: rgb(183, 86, 135); stroke-opacity: 1; stroke-width: 6px; opacity: 1;"/></g><g class="points"/><g class="text"/></g><g class="trace scatter trace5575cb" style="stroke-miterlimit: 2; opacity: 0.08;"><g class="fills"/><g class="errorbars"/><g class="lines"><path class="js-line" d="M0,141.04L18.29,139.52L22.87,142.4L27.44,143.73L32.01,142.56L41.16,141.9L45.73,143.04L50.3,142.41L54.88,137.2L59.45,134.63L64.02,113.11L77.74,65.93L82.31,56.86L86.89,47.46L91.46,43.36L96.03,41.68L100.61,37.97L109.75,39.93L114.33,38.64L118.9,38.88L123.47,41.79L128.04,45.18L132.62,46.46L137.19,40.57L141.76,41.82L155.48,36.44L160.06,36.69L164.63,35.76L169.2,36.9L173.77,36.72L178.35,38.1L182.92,40.11L187.49,39.36L192.07,36.29L196.64,39L201.21,43.38L205.79,43.38L214.93,34.49L219.5,35.35L224.08,35.41L228.65,37.25L237.8,36.93L242.37,38.97L260.66,38.36L265.23,37.06L274.38,39.58L278.95,43.11L283.53,40.84L288.1,35L292.67,37.08L297.25,33.58L306.39,37.89L310.96,36.24L320.11,34.3L324.68,36.36L333.83,34.81L338.4,34.6L342.98,36.83L347.55,35.04L352.12,36.57L356.69,35.8L365.84,35.87L370.41,36.57L374.99,39.94L379.56,37.17L384.13,35.64L388.71,39.98L393.28,37.35L397.85,36.56L402.42,37.44L407,39.89L416.14,40.35L420.72,35.86L425.29,36.13L429.86,33.64L434.44,32.67L439.01,34.22L443.58,28.11L448.15,26.9L452.73,23.38" style="vector-effect: none; fill: none; stroke: rgb(183, 86, 135); stroke-opacity: 1; stroke-width: 6px; opacity: 1;"/></g><g class="points"/><g class="text"/></g><g class="trace scatter trace6da11d" style="stroke-miterlimit: 2; opacity: 0.08;"><g class="fills"/><g class="errorbars"/><g class="lines"><path class="js-line" d="M0,140.39L9.15,139.51L13.72,136.97L22.87,134.94L27.44,136.46L32.01,134.94L36.58,135.61L45.73,133.99L50.3,127.89L54.88,132.3L59.45,131.87L68.6,122.71L73.17,116.48L77.74,118.59L82.31,102.88L86.89,95.33L91.46,80.34L96.03,74.81L100.61,59.95L105.18,45.01L109.75,48.79L118.9,38.77L123.47,37.53L128.04,36.88L132.62,33.35L137.19,37.33L141.76,38.7L146.34,35.04L150.91,36.34L169.2,43.42L173.77,40.37L178.35,39.42L182.92,36.14L196.64,36.02L201.21,39.37L205.79,39.67L210.36,37.88L214.93,38.59L219.5,40.96L224.08,39.32L228.65,40.58L233.22,39.92L237.8,40.99L242.37,36.51L246.94,36.53L251.52,39.62L256.09,38.14L265.23,33.53L269.81,32.89L278.95,31.53L283.53,24.98L288.1,25.79L292.67,28.4L301.82,28.49L306.39,32.6L310.96,31.94L315.54,34.1L320.11,29.53L324.68,28.38L329.26,32.13L333.83,31.2L338.4,31.71L342.98,28.8L347.55,29.86L352.12,28.52L361.27,30.21L365.84,35.89L370.41,37.11L374.99,34.95L397.85,26.13L402.42,26.41L407,29.94L411.57,28.39L425.29,36.8L429.86,35.9L439.01,39.7L443.58,37.65L452.73,39.6" style="vector-effect: none; fill: none; stroke: rgb(183, 86, 135); stroke-opacity: 1; stroke-width: 6px; opacity: 1;"/></g><g class="points"/><g class="text"/></g><g class="trace scatter trace41241e" style="stroke-miterlimit: 2; opacity: 0.08;"><g class="fills"/><g class="errorbars"/><g class="lines"><path class="js-line" d="M0,140.16L13.72,142.4L18.29,138.93L27.44,134.55L32.01,135.83L36.58,135.21L41.16,132.14L45.73,125.53L50.3,112.32L59.45,87.63L64.02,71.98L68.6,67.87L73.17,58.05L77.74,58.04L82.31,61.29L86.89,62.61L91.46,57.28L96.03,52.74L100.61,51.54L105.18,56.31L109.75,57.39L118.9,52.69L123.47,53.91L128.04,55.53L132.62,54.16L137.19,58.15L141.76,57.01L150.91,57.8L155.48,57.05L160.06,56.7L164.63,58.53L178.35,56.29L182.92,57.72L187.49,59.49L192.07,67.82L201.21,63.16L205.79,60.63L219.5,58.34L224.08,60.03L237.8,57.69L242.37,58.73L251.52,56.53L256.09,59.13L269.81,60.04L274.38,58.99L278.95,60.55L283.53,59.64L292.67,64.72L297.25,64.97L306.39,68.86L310.96,66.6L315.54,65.35L320.11,68.45L329.26,69.91L333.83,81.16L342.98,79.39L347.55,81.18L352.12,80.86L356.69,74.06L361.27,70.99L365.84,72.52L384.13,75.58L388.71,75.58L397.85,78.71L402.42,78.76L411.57,75.31L416.14,70.03L420.72,72.57L425.29,70L439.01,72.55L443.58,72.17L448.15,67.37L452.73,72.2" style="vector-effect: none; fill: none; stroke: rgb(183, 86, 135); stroke-opacity: 1; stroke-width: 6px; opacity: 1;"/></g><g class="points"/><g class="text"/></g><g class="trace scatter trace045e99" style="stroke-miterlimit: 2; opacity: 0.08;"><g class="fills"/><g class="errorbars"/><g class="lines"><path class="js-line" d="M0,140.47L9.15,143.07L13.72,142.65L18.29,140.04L22.87,140.24L27.44,141.74L32.01,138.12L36.58,140L41.16,140.17L45.73,140.46L50.3,135.55L54.88,131.76L59.45,106.51L68.6,72.02L73.17,74.9L77.74,51.91L82.31,46.95L86.89,43.06L91.46,43.72L105.18,36.96L109.75,36.91L114.33,37.38L118.9,39.98L123.47,42.49L128.04,38.77L132.62,37.95L137.19,38.97L141.76,37.01L146.34,37.49L160.06,35.49L164.63,36.78L169.2,36.03L173.77,32.55L182.92,33.06L187.49,33.05L196.64,32.19L201.21,33.23L210.36,30.78L214.93,29.06L228.65,30.74L233.22,29.08L242.37,31.94L246.94,31.08L260.66,34.12L265.23,32.86L269.81,34.45L274.38,38.85L283.53,40.41L288.1,40.15L292.67,40.7L297.25,37.22L306.39,40.95L310.96,38.41L329.26,33.58L333.83,31.57L338.4,30.29L342.98,33.58L347.55,30.44L352.12,31.63L356.69,32.96L361.27,32.24L365.84,30.9L370.41,32.75L374.99,33.67L379.56,32.84L384.13,33.91L388.71,31.09L397.85,38.43L402.42,37L407,34.9L411.57,36.78L416.14,28.54L420.72,29.73L425.29,25.38L429.86,30.84L434.44,22.73L439.01,25.45L443.58,24.94L448.15,21.7L452.73,18.97" style="vector-effect: none; fill: none; stroke: rgb(183, 86, 135); stroke-opacity: 1; stroke-width: 6px; opacity: 1;"/></g><g class="points"/><g class="text"/></g><g class="trace scatter trace1c5e09" style="stroke-miterlimit: 2; opacity: 0.08;"><g class="fills"/><g class="errorbars"/><g class="lines"><path class="js-line" d="M0,140.43L9.15,139.06L13.72,141.37L18.29,139.81L22.87,140.36L36.58,142.36L41.16,144.92L45.73,145.24L50.3,140.57L59.45,143.82L64.02,140.77L68.6,136.9L73.17,135.24L77.74,139.36L82.31,140.46L86.89,139.79L91.46,135.29L96.03,139.46L100.61,141.14L105.18,142.68L109.75,141.67L118.9,122.76L123.47,117.58L128.04,122.49L132.62,114.18L137.19,115.02L141.76,104L146.34,87.32L150.91,80.28L160.06,55.96L164.63,58.68L169.2,48.66L173.77,47.57L178.35,42.16L182.92,40.71L187.49,36.12L192.07,40.88L196.64,43.39L201.21,42.25L205.79,43.54L210.36,42.87L214.93,46.37L219.5,44.87L228.65,44.46L233.22,46.24L237.8,44.15L242.37,46.57L246.94,45.94L251.52,47.56L260.66,43.4L265.23,47.93L269.81,48.93L274.38,48.05L278.95,45.57L283.53,44.87L288.1,44.14L292.67,41.09L301.82,43.06L306.39,41.93L320.11,43.09L324.68,45.34L333.83,42.35L338.4,45.24L347.55,44.64L352.12,45.17L365.84,53.9L370.41,48.41L374.99,42.76L379.56,40.86L393.28,38.66L397.85,36.31L402.42,37.72L407,40.81L411.57,36.09L416.14,39.21L420.72,31.88L425.29,30.22L429.86,26.92L434.44,26.05L439.01,26.49L443.58,25.16L452.73,19.98" style="vector-effect: none; fill: none; stroke: rgb(183, 86, 135); stroke-opacity: 1; stroke-width: 6px; opacity: 1;"/></g><g class="points"/><g class="text"/></g><g class="trace scatter trace35ad20" style="stroke-miterlimit: 2; opacity: 0.08;"><g class="fills"/><g class="errorbars"/><g class="lines"><path class="js-line" d="M0,140.09L4.57,141.17L9.15,140.04L22.87,137.49L27.44,136.07L32.01,134.07L36.58,134.41L41.16,131.94L45.73,132.65L50.3,133.46L54.88,132.03L68.6,139.61L73.17,136.47L82.31,136.09L86.89,139.56L96.03,136.99L100.61,132.81L109.75,132.19L114.33,132.99L123.47,130.31L128.04,132.79L132.62,133.08L137.19,131.82L141.76,135.16L146.34,135.76L155.48,132.29L160.06,128.25L164.63,125.53L169.2,126.34L173.77,127.26L178.35,118.45L182.92,119.44L187.49,118.2L196.64,118.43L201.21,122.9L214.93,122.82L219.5,121.85L224.08,114.72L228.65,114.88L233.22,115.95L237.8,120.35L242.37,122.17L246.94,119.69L251.52,117.56L256.09,112.78L265.23,99.75L269.81,96.85L278.95,101.99L283.53,98.67L288.1,95.86L292.67,96.95L297.25,95.72L301.82,91.8L306.39,90.45L310.96,90.9L320.11,90.42L324.68,95.29L333.83,95.66L338.4,94.53L342.98,108.93L347.55,102.91L352.12,101.88L356.69,106.94L361.27,98.12L365.84,100.23L370.41,90.64L374.99,90.5L384.13,90.33L388.71,92.62L393.28,101.78L397.85,96.37L402.42,86.7L407,83.1L411.57,80.31L416.14,81.88L420.72,84.25L425.29,82.85L429.86,81.53L434.44,84.22L439.01,85.5L443.58,89.6L448.15,88.29L452.73,81.87" style="vector-effect: none; fill: none; stroke: rgb(183, 86, 135); stroke-opacity: 1; stroke-width: 6px; opacity: 1;"/></g><g class="points"/><g class="text"/></g><g class="trace scatter trace824ee7" style="stroke-miterlimit: 2; opacity: 0.08;"><g class="fills"/><g class="errorbars"/><g class="lines"><path class="js-line" d="M0,140.82L4.57,141.23L9.15,139.77L18.29,144.45L22.87,143.57L36.58,140.48L41.16,136.38L45.73,133.23L50.3,134.84L54.88,133.52L59.45,135.42L64.02,132.95L68.6,133.12L73.17,134.11L77.74,130.66L82.31,127.93L86.89,128.27L96.03,120.91L100.61,123.09L105.18,118.15L109.75,116.71L114.33,117.65L118.9,114.93L123.47,93.81L128.04,104.66L132.62,99.97L137.19,86.65L141.76,78.05L146.34,56.03L150.91,52.35L155.48,55.67L164.63,44.2L169.2,42.71L178.35,40.98L182.92,47.26L187.49,42.83L192.07,42.16L196.64,40.97L201.21,42.08L210.36,42.26L214.93,43.3L219.5,45.83L224.08,46.33L228.65,50.89L233.22,47.06L246.94,45.01L251.52,46.9L265.23,44.9L269.81,43.06L288.1,38.28L292.67,39.08L297.25,36.85L301.82,38.72L310.96,38.43L315.54,33.46L320.11,34.24L324.68,32.35L333.83,28.54L338.4,26.25L347.55,21.9L352.12,25.13L356.69,26.27L361.27,24.34L365.84,24.37L370.41,28.33L379.56,26.55L384.13,21.97L388.71,23.98L393.28,22.04L397.85,22.17L402.42,23.98L407,24.94L411.57,22.8L425.29,19.49L429.86,16.56L434.44,16.36L439.01,21.4L443.58,21.03L448.15,24.97L452.73,25.51" style="vector-effect: none; fill: none; stroke: rgb(183, 86, 135); stroke-opacity: 1; stroke-width: 6px; opacity: 1;"/></g><g class="points"/><g class="text"/></g><g class="trace scatter tracec97c6a" style="stroke-miterlimit: 2; opacity: 0.08;"><g class="fills"/><g class="errorbars"/><g class="lines"><path class="js-line" d="M0,139.8L4.57,139.68L9.15,142.32L13.72,141.57L18.29,138.03L22.87,135.9L27.44,131.92L32.01,127.73L36.58,127.54L41.16,129.62L45.73,117.83L50.3,106.66L54.88,86.97L59.45,73.78L64.02,49.92L68.6,38.27L73.17,38.27L91.46,41.76L96.03,41.04L105.18,39.36L109.75,42.43L118.9,39.61L123.47,37.95L128.04,39.65L132.62,39.32L150.91,41.57L155.48,40.35L160.06,42.28L164.63,40.72L173.77,36.59L178.35,34.97L182.92,34.72L187.49,36.9L192.07,37.25L196.64,40.29L210.36,35.85L214.93,37.09L219.5,35.96L224.08,31.51L228.65,28.75L233.22,28.49L242.37,31.3L246.94,26.63L256.09,30.94L260.66,31.38L265.23,32.17L269.81,28.59L274.38,30.85L278.95,29.87L283.53,32.36L288.1,30.77L292.67,32.97L297.25,32.61L310.96,38.25L315.54,37.82L320.11,33.78L324.68,33L333.83,34.65L338.4,32.57L352.12,32.39L356.69,29.45L361.27,31.21L365.84,28.83L374.99,35.01L379.56,35.8L384.13,32.62L388.71,32.74L393.28,29.51L397.85,31.38L402.42,26.81L407,27.94L420.72,26.94L425.29,27.93L429.86,26.33L434.44,27.35L439.01,29.1L443.58,28.08L452.73,29.66" style="vector-effect: none; fill: none; stroke: rgb(183, 86, 135); stroke-opacity: 1; stroke-width: 6px; opacity: 1;"/></g><g class="points"/><g class="text"/></g><g class="trace scatter tracee5c884" style="stroke-miterlimit: 2; opacity: 0.08;"><g class="fills"/><g class="errorbars"/><g class="lines"><path class="js-line" d="M0,140.27L13.72,140.31L18.29,136.77L32.01,117.71L36.58,89.02L41.16,71.26L45.73,62.91L50.3,57.82L54.88,47.91L59.45,40.1L64.02,39.02L73.17,39.96L77.74,37.72L86.89,35.28L91.46,33L96.03,31.37L100.61,33.39L109.75,37.86L114.33,35.37L118.9,36.77L123.47,35.77L128.04,35.15L132.62,37.23L141.76,36.23L146.34,34.88L155.48,35.61L160.06,38.41L164.63,38.16L169.2,40.34L173.77,40.33L178.35,38.34L182.92,37.59L187.49,38.93L201.21,38.96L205.79,42.32L210.36,44.32L214.93,43.51L224.08,37.23L228.65,37.63L246.94,38.92L251.52,36.05L256.09,37.75L260.66,37.03L265.23,33.02L269.81,31.33L274.38,33.53L278.95,33.39L288.1,32.73L292.67,34.47L301.82,33.74L306.39,35.63L310.96,42.07L315.54,39.05L320.11,38.98L324.68,36.79L329.26,36.6L333.83,33.87L338.4,33.2L342.98,34.21L347.55,36.64L352.12,36.51L356.69,36.79L361.27,34.09L365.84,32.39L370.41,28.21L374.99,28.89L379.56,27.49L388.71,27.09L393.28,28.32L402.42,34.34L407,30.42L411.57,32.16L416.14,29.2L420.72,27.8L425.29,28.01L429.86,26.13L434.44,27.3L443.58,24.3L448.15,26.25L452.73,28.49" style="vector-effect: none; fill: none; stroke: rgb(183, 86, 135); stroke-opacity: 1; stroke-width: 6px; opacity: 1;"/></g><g class="points"/><g class="text"/></g><g class="trace scatter trace5f03a0" style="stroke-miterlimit: 2; opacity: 1;"><g class="fills"/><g class="errorbars"/><g class="lines"><path class="js-line" d="M0,139.69L13.72,138.82L18.29,141.1L22.87,143.12L27.44,142.01L32.01,146.17L36.58,146.85L45.73,145.74L50.3,143.84L54.88,141.83L59.45,145.58L64.02,147.07L68.6,144.99L73.17,143.01L77.74,142.76L82.31,139.93L86.89,139.17L91.46,138.26L96.03,134.52L100.61,135.1L105.18,119.85L114.33,64.91L118.9,58.34L128.04,46.74L132.62,41.96L137.19,40.48L141.76,37.44L146.34,39.51L150.91,37.29L155.48,40.26L160.06,37.65L164.63,36.57L169.2,38.4L173.77,37.26L178.35,37.85L182.92,37.59L187.49,38.98L205.79,35.99L210.36,37.27L219.5,39.51L224.08,36.14L228.65,34.1L233.22,33.67L237.8,34.08L242.37,31.57L251.52,30.77L256.09,31.61L265.23,34.4L269.81,33.16L274.38,34.11L278.95,32.59L283.53,30L288.1,32.95L292.67,34.63L297.25,34.1L306.39,39.01L310.96,39.08L320.11,34.24L324.68,32.3L333.83,31.17L338.4,35.81L342.98,32.69L347.55,31.91L352.12,31.26L356.69,32.4L361.27,32.11L365.84,29.04L379.56,32.47L384.13,32.41L388.71,25.36L393.28,20.43L397.85,20.02L402.42,22.44L411.57,13.77L416.14,9.88L420.72,12.6L425.29,13.08L448.15,13.59L452.73,10" style="vector-effect: none; fill: none; stroke: rgb(51, 34, 136); stroke-opacity: 1; stroke-width: 4px; opacity: 1;"/></g><g class="points"/><g class="text"/></g><g class="trace scatter trace9a099a" style="stroke-miterlimit: 2; opacity: 1;"><g class="fills"/><g class="errorbars"/><g class="lines"><path class="js-line" d="M0,140.72L4.57,139.87L9.15,140.58L18.29,143.52L22.87,144.04L32.01,143.49L36.58,141.42L50.3,151.77L54.88,148.42L59.45,146.58L64.02,146.15L73.17,141.37L77.74,143.34L82.31,142.82L86.89,152.02L91.46,149.46L96.03,151.42L100.61,157.8L105.18,161.06L109.75,162.99L114.33,156.78L118.9,155.09L123.47,155.58L128.04,159.08L132.62,157.58L137.19,155.5L141.76,154.83L146.34,153.31L150.91,157.11L155.48,161.74L160.06,163.61L164.63,167.4L169.2,164.31L178.35,162.89L182.92,159.53L187.49,162.71L192.07,167.95L196.64,163.95L201.21,168.3L214.93,166.79L219.5,159.3L228.65,160.24L233.22,156.84L237.8,151.33L242.37,150.86L251.52,152.1L256.09,149.43L260.66,148.6L265.23,153.25L269.81,156.29L274.38,154.77L288.1,149.02L292.67,144.1L297.25,144.13L301.82,145.75L306.39,146.29L310.96,148.19L315.54,150.81L320.11,149.58L324.68,153.91L329.26,153.94L333.83,151.75L338.4,156.67L347.55,152.91L352.12,150.06L361.27,154.17L365.84,150.14L370.41,150.12L374.99,146.12L379.56,144.03L384.13,143.09L388.71,140.49L393.28,142.03L397.85,142.01L402.42,144.92L407,145.14L411.57,142.13L416.14,151.05L420.72,150.27L425.29,150.37L429.86,152.17L434.44,153.53L439.01,157.28L443.58,158.78L448.15,158.75L452.73,161.72" style="vector-effect: none; fill: none; stroke: rgb(204, 102, 119); stroke-opacity: 1; stroke-width: 4px; opacity: 1;"/></g><g class="points"/><g class="text"/></g><g class="trace scatter trace0c6ae4" style="stroke-miterlimit: 2; opacity: 1;"><g class="fills"/><g class="errorbars"/><g class="lines"><path class="js-line" d="M0,140.38L13.72,141.11L18.29,143.75L32.01,144.47L36.58,143.42L41.16,145.53L45.73,150.44L50.3,148.03L54.88,147.92L59.45,148.81L64.02,145.79L73.17,152.28L77.74,151.88L82.31,148.61L86.89,147.23L91.46,150.79L96.03,152.16L100.61,155.97L105.18,157.25L109.75,153.8L114.33,152.86L118.9,149.97L123.47,153.64L128.04,154.18L132.62,149.11L137.19,149.36L141.76,154.31L146.34,157L150.91,154.6L160.06,153.37L164.63,155.37L169.2,155.98L173.77,152.73L178.35,150.05L182.92,146.2L187.49,143.38L192.07,141.86L196.64,147.07L201.21,153.95L205.79,151.13L210.36,143.04L214.93,142.83L219.5,137.88L224.08,137.5L228.65,139.19L237.8,144.51L242.37,145.84L246.94,145.35L251.52,145.93L256.09,143.18L260.66,149.87L265.23,158.08L269.81,152.56L274.38,146.16L278.95,113.75L283.53,108.68L288.1,89.04L292.67,74.42L297.25,63.92L306.39,40.99L310.96,33.87L315.54,38.38L320.11,25.93L324.68,24.72L329.26,17.26L342.98,14.46L347.55,15.76L352.12,19.38L356.69,16.3L370.41,16.45L374.99,13.73L384.13,12.87L388.71,10.03L393.28,9.7L397.85,12.37L402.42,15.42L407,15.96L411.57,17.11L416.14,13.15L420.72,13.54L425.29,15.21L429.86,16.74L434.44,21.28L439.01,22.87L443.58,25.83L448.15,22.29L452.73,26.52" style="vector-effect: none; fill: none; stroke: rgb(136, 204, 238); stroke-opacity: 1; stroke-width: 4px; opacity: 1;"/></g><g class="points"/><g class="text"/></g></g></g></g><g class="zerolinelayer-above"/><path class="xlines-above crisp" d="M0,0" style="fill: none;"/><path class="ylines-above crisp" d="M0,0" style="fill: none;"/><g class="overlines-above"/><g class="xaxislayer-above"/><g class="yaxislayer-above"><g class="ytick"><text text-anchor="end" x="81" y="4.199999999999999" transform="translate(0,283.77)" style="font-family: 'Open Sans', verdana, arial, sans-serif; font-size: 12px; fill: rgb(42, 63, 95); fill-opacity: 1; white-space: pre;">−5</text></g><g class="ytick"><text text-anchor="end" x="81" y="4.199999999999999" style="font-family: 'Open Sans', verdana, arial, sans-serif; font-size: 12px; fill: rgb(42, 63, 95); fill-opacity: 1; white-space: pre;" transform="translate(0,240.27)">0</text></g><g class="ytick"><text text-anchor="end" x="81" y="4.199999999999999" style="font-family: 'Open Sans', verdana, arial, sans-serif; font-size: 12px; fill: rgb(42, 63, 95); fill-opacity: 1; white-space: pre;" transform="translate(0,196.76999999999998)">5</text></g><g class="ytick"><text text-anchor="end" x="81" y="4.199999999999999" style="font-family: 'Open Sans', verdana, arial, sans-serif; font-size: 12px; fill: rgb(42, 63, 95); fill-opacity: 1; white-space: pre;" transform="translate(0,153.27)">10</text></g><g class="ytick"><text text-anchor="end" x="81" y="4.199999999999999" style="font-family: 'Open Sans', verdana, arial, sans-serif; font-size: 12px; fill: rgb(42, 63, 95); fill-opacity: 1; white-space: pre;" transform="translate(0,109.76)">15</text></g></g><g class="overaxes-above"/></g><g class="subplot x2y2"><g class="layer-subplot"><g class="shapelayer"/><g class="imagelayer"/></g><g class="minor-gridlayer"><g class="x2"/><g class="y2"/></g><g class="gridlayer"><g class="x2"/><g class="y2"/></g><g class="zerolinelayer"><path class="x2zl zl crisp" transform="translate(540.107,0)" d="M0,100v187.22" style="stroke: rgb(235, 240, 248); stroke-opacity: 1; stroke-width: 2px;"/></g><g class="layer-between"><g class="shapelayer"/><g class="imagelayer"/></g><path class="xlines-below"/><path class="ylines-below"/><g class="overlines-below"/><g class="xaxislayer-below"/><g class="yaxislayer-below"/><g class="overaxes-below"/><g class="overplot"><g class="x2y2" transform="translate(540.107,100)" clip-path="url(#clipad28d2x2y2plot)"><g class="barlayer mlayer"><g class="trace bars" style="opacity: 1;"><g class="points"><g class="point"><path d="M0,174.2V158.54H9.49V174.2Z" style="vector-effect: none; opacity: 1; stroke-width: 0px; fill: rgb(153, 153, 153); fill-opacity: 1;"/></g><g class="point"><path d="M0,156.8V141.14H4.74V156.8Z" style="vector-effect: none; opacity: 1; stroke-width: 0px; fill: rgb(153, 153, 153); fill-opacity: 1;"/></g><g class="point"><path d="M0,139.4V123.74H4.74V139.4Z" style="vector-effect: none; opacity: 1; stroke-width: 0px; fill: rgb(153, 153, 153); fill-opacity: 1;"/></g><g class="point"><path d="M0,0Z" style="vector-effect: none; opacity: 1; stroke-width: 0px; fill: rgb(153, 153, 153); fill-opacity: 1;"/></g><g class="point"><path d="M0,0Z" style="vector-effect: none; opacity: 1; stroke-width: 0px; fill: rgb(153, 153, 153); fill-opacity: 1;"/></g><g class="point"><path d="M0,87.2V71.54H18.97V87.2Z" style="vector-effect: none; opacity: 1; stroke-width: 0px; fill: rgb(153, 153, 153); fill-opacity: 1;"/></g><g class="point"><path d="M0,69.8V54.14H9.49V69.8Z" style="vector-effect: none; opacity: 1; stroke-width: 0px; fill: rgb(153, 153, 153); fill-opacity: 1;"/></g><g class="point"><path d="M0,52.4V36.74H18.97V52.4Z" style="vector-effect: none; opacity: 1; stroke-width: 0px; fill: rgb(153, 153, 153); fill-opacity: 1;"/></g><g class="point"><path d="M0,35V19.33H75.9V35Z" style="vector-effect: none; opacity: 1; stroke-width: 0px; fill: rgb(153, 153, 153); fill-opacity: 1;"/></g><g class="point"><path d="M0,17.59V1.93H9.49V17.59Z" style="vector-effect: none; opacity: 1; stroke-width: 0px; fill: rgb(153, 153, 153); fill-opacity: 1;"/></g></g></g></g></g></g><g class="zerolinelayer-above"/><path class="xlines-above crisp" d="M0,0" style="fill: none;"/><path class="ylines-above crisp" d="M0,0" style="fill: none;"/><g class="overlines-above"/><g class="xaxislayer-above"/><g class="yaxislayer-above"/><g class="overaxes-above"/></g><g class="subplot x3y3"><g class="layer-subplot"><g class="shapelayer"/><g class="imagelayer"/></g><g class="minor-gridlayer"><g class="x3"/><g class="y3"/></g><g class="gridlayer"><g class="x3"><path class="x3grid crisp" transform="translate(196.1,0)" d="M0,316.82v153.18" style="stroke: rgb(235, 240, 248); stroke-opacity: 1; stroke-width: 1px;"/><path class="x3grid crisp" transform="translate(310.41999999999996,0)" d="M0,316.82v153.18" style="stroke: rgb(235, 240, 248); stroke-opacity: 1; stroke-width: 1px;"/><path class="x3grid crisp" transform="translate(424.75,0)" d="M0,316.82v153.18" style="stroke: rgb(235, 240, 248); stroke-opacity: 1; stroke-width: 1px;"/></g><g class="y3"><path class="y3grid crisp" transform="translate(0,466.2)" d="M82,0h452.72700000000003" style="stroke: rgb(235, 240, 248); stroke-opacity: 1; stroke-width: 1px;"/><path class="y3grid crisp" transform="translate(0,395.43)" d="M82,0h452.72700000000003" style="stroke: rgb(235, 240, 248); stroke-opacity: 1; stroke-width: 1px;"/><path class="y3grid crisp" transform="translate(0,360.05)" d="M82,0h452.72700000000003" style="stroke: rgb(235, 240, 248); stroke-opacity: 1; stroke-width: 1px;"/><path class="y3grid crisp" transform="translate(0,324.65999999999997)" d="M82,0h452.72700000000003" style="stroke: rgb(235, 240, 248); stroke-opacity: 1; stroke-width: 1px;"/></g></g><g class="zerolinelayer"><path class="y3zl zl crisp" transform="translate(0,430.81)" d="M82,0h452.72700000000003" style="stroke: rgb(235, 240, 248); stroke-opacity: 1; stroke-width: 2px;"/></g><g class="layer-between"><g class="shapelayer"/><g class="imagelayer"/></g><path class="xlines-below"/><path class="ylines-below"/><g class="overlines-below"/><g class="xaxislayer-below"/><g class="yaxislayer-below"/><g class="overaxes-below"/><g class="overplot"><g class="x3y3" transform="translate(82,316.82)" clip-path="url(#clipad28d2x3y3plot)"><g class="scatterlayer mlayer"><g class="trace scatter trace9749cf" style="stroke-miterlimit: 2; opacity: 1;"><g class="fills"/><g class="errorbars"/><g class="lines"><path class="js-line" d="M0,130.58L4.57,135.58L9.15,142.14L13.72,129.14L18.29,145.52L27.44,136.74L32.01,126.94L36.58,129.12L41.16,108.63L45.73,108.5L50.3,112.22L54.88,111.33L59.45,105.9L64.02,112.3L68.6,101.58L73.17,85.6L77.74,87.38L82.31,92.46L86.89,85.67L91.46,75.96L96.03,61.78L100.61,38.55L105.18,31.11L109.75,13.1L114.33,33.45L123.47,90.14L128.04,94.29L132.62,101.3L137.19,103.06L141.76,107.57L146.34,106.9L155.48,106.05L160.06,107.18L164.63,106.52L169.2,108.14L173.77,110.53L178.35,110.73L182.92,111.17L187.49,109.82L196.64,109.48L201.21,109.73L205.79,110.3L210.36,109.02L224.08,106.02L228.65,104.75L233.22,107.77L237.8,109.06L246.94,109.68L251.52,111.86L256.09,110.8L260.66,111.28L269.81,108.09L274.38,108.91L278.95,110.17L283.53,109.88L292.67,116.04L297.25,113.69L301.82,111.15L306.39,110.32L310.96,106.83L315.54,105.15L320.11,105.13L324.68,109.94L329.26,108.66L333.83,110.05L338.4,109.68L342.98,111L347.55,107.5L352.12,107.88L361.27,109.57L365.84,110.51L370.41,111.51L374.99,108.92L379.56,105.91L384.13,105.72L388.71,105.02L393.28,101.67L397.85,104.76L402.42,105.24L407,105.6L411.57,103.91L416.14,107.61L420.72,107.66L425.29,109.31L429.86,108.97L434.44,109.66L439.01,106.88L443.58,107.49L448.15,107.24" style="vector-effect: none; fill: none; stroke: rgb(51, 34, 136); stroke-opacity: 1; stroke-width: 2px; opacity: 1;"/></g><g class="points"/><g class="text"/></g><g class="trace scatter trace3912fd" style="stroke-miterlimit: 2; opacity: 1;"><g class="fills"/><g class="errorbars"/><g class="lines"><path class="js-line" d="M0,141.29L4.57,140.87L9.15,141.63L13.72,133.13L18.29,122.81L22.87,120.12L27.44,121.3L32.01,118.01L36.58,123.62L41.16,114.64L45.73,117.95L54.88,103.11L59.45,91.7L64.02,98.66L68.6,97.81L73.17,123.25L77.74,119.72L82.31,131.27L86.89,134.45L91.46,135.07L96.03,128.16L100.61,126.94L105.18,120.16L114.33,119.3L118.9,126.11L123.47,125.2L128.04,128.39L132.62,124.68L137.19,128.03L141.76,99.45L146.34,109.33L150.91,121.65L155.48,116.64L160.06,115.74L164.63,116.32L169.2,114.48L173.77,111.81L178.35,118.78L182.92,122.17L187.49,123.03L192.07,122.17L196.64,120.24L201.21,119.43L205.79,114.71L210.36,111.8L214.93,110.87L219.5,97.86L224.08,91.03L228.65,95.2L233.22,104.79L237.8,107.26L242.37,108.34L246.94,122.27L251.52,130.59L256.09,118.76L260.66,118.99L265.23,124.8L274.38,109.27L278.95,109.81L283.53,112.47L288.1,119.63L292.67,129.24L297.25,137.09L301.82,138.17L306.39,124.99L310.96,122.2L315.54,117.63L320.11,110.69L324.68,112.38L329.26,116.57L333.83,116.91L338.4,114.2L342.98,117.44L347.55,112.1L352.12,118.21L356.69,118.67L361.27,124.04L370.41,124.83L374.99,118.91L379.56,118.13L384.13,103.01L388.71,102.94L393.28,119.73L397.85,119.35L402.42,132.8L407,132.23L411.57,130.67L416.14,123.75L420.72,125.69L425.29,125.07L429.86,116.63L434.44,114.36L439.01,113.27L443.58,113.36L448.15,101.35" style="vector-effect: none; fill: none; stroke: rgb(204, 102, 119); stroke-opacity: 1; stroke-width: 2px; opacity: 1;"/></g><g class="points"/><g class="text"/></g><g class="trace scatter tracee23a05" style="stroke-miterlimit: 2; opacity: 1;"><g class="fills"/><g class="errorbars"/><g class="lines"><path class="js-line" d="M0,98.58L4.57,107.08L9.15,113.52L13.72,121.3L18.29,124.9L22.87,120.65L27.44,118.01L32.01,130.41L36.58,123L41.16,116.48L45.73,116.2L50.3,120L54.88,118.49L59.45,126.35L64.02,123.5L68.6,122.49L73.17,118.42L77.74,115.92L82.31,115.88L86.89,123.6L91.46,123.61L96.03,119.99L100.61,119.35L105.18,113.91L109.75,113.5L114.33,118.22L118.9,117.29L123.47,113.87L128.04,123.69L132.62,131.9L137.19,116.06L141.76,120.58L146.34,117.71L155.48,119.76L160.06,126.85L169.2,126.13L173.77,116.07L178.35,97.08L182.92,93.44L187.49,115.48L192.07,125.52L196.64,109.73L201.21,107.79L205.79,98.54L210.36,78.33L214.93,68.58L219.5,113.58L224.08,106.42L228.65,110.37L233.22,106.06L237.8,107.82L242.37,100.52L246.94,114.16L251.52,120.16L256.09,121.63L260.66,116.28L265.23,91.88L269.81,81.11L274.38,48.03L278.95,23.46L283.53,7.66L288.1,49.81L292.67,45.67L297.25,65.53L301.82,81.18L306.39,80.91L310.96,90.22L320.11,97.17L324.68,93.74L329.26,102.28L333.83,104.33L338.4,110.26L342.98,109.56L352.12,109.96L356.69,108.91L361.27,105.81L365.84,107.38L370.41,107.91L374.99,106.47L379.56,106.28L384.13,107.98L388.71,109.32L393.28,109.12L397.85,112L402.42,110.48L416.14,110.44L420.72,111.85L429.86,117.33L434.44,114.26L439.01,115.78L443.58,114.31L448.15,113.74" style="vector-effect: none; fill: none; stroke: rgb(136, 204, 238); stroke-opacity: 1; stroke-width: 2px; opacity: 1;"/></g><g class="points"/><g class="text"/></g></g></g></g><g class="zerolinelayer-above"/><path class="xlines-above crisp" d="M0,0" style="fill: none;"/><path class="ylines-above crisp" d="M0,0" style="fill: none;"/><g class="overlines-above"/><g class="xaxislayer-above"><g class="x3tick"><text text-anchor="middle" x="0" y="483" transform="translate(196.1,0)" style="font-family: 'Open Sans', verdana, arial, sans-serif; font-size: 12px; fill: rgb(42, 63, 95); fill-opacity: 1; white-space: pre;">50M</text></g><g class="x3tick"><text text-anchor="middle" x="0" y="483" style="font-family: 'Open Sans', verdana, arial, sans-serif; font-size: 12px; fill: rgb(42, 63, 95); fill-opacity: 1; white-space: pre;" transform="translate(310.41999999999996,0)">100M</text></g><g class="x3tick"><text text-anchor="middle" x="0" y="483" style="font-family: 'Open Sans', verdana, arial, sans-serif; font-size: 12px; fill: rgb(42, 63, 95); fill-opacity: 1; white-space: pre;" transform="translate(424.75,0)">150M</text></g></g><g class="yaxislayer-above"><g class="y3tick"><text text-anchor="end" x="81" y="4.199999999999999" transform="translate(0,466.2)" style="font-family: 'Open Sans', verdana, arial, sans-serif; font-size: 12px; fill: rgb(42, 63, 95); fill-opacity: 1; white-space: pre;">−0.0005</text></g><g class="y3tick"><text text-anchor="end" x="81" y="4.199999999999999" style="font-family: 'Open Sans', verdana, arial, sans-serif; font-size: 12px; fill: rgb(42, 63, 95); fill-opacity: 1; white-space: pre;" transform="translate(0,430.81)">0</text></g><g class="y3tick"><text text-anchor="end" x="81" y="4.199999999999999" style="font-family: 'Open Sans', verdana, arial, sans-serif; font-size: 12px; fill: rgb(42, 63, 95); fill-opacity: 1; white-space: pre;" transform="translate(0,395.43)">0.0005</text></g><g class="y3tick"><text text-anchor="end" x="81" y="4.199999999999999" style="font-family: 'Open Sans', verdana, arial, sans-serif; font-size: 12px; fill: rgb(42, 63, 95); fill-opacity: 1; white-space: pre;" transform="translate(0,360.05)">0.001</text></g><g class="y3tick"><text text-anchor="end" x="81" y="4.199999999999999" style="font-family: 'Open Sans', verdana, arial, sans-serif; font-size: 12px; fill: rgb(42, 63, 95); fill-opacity: 1; white-space: pre;" transform="translate(0,324.65999999999997)">0.0015</text></g></g><g class="overaxes-above"/></g></g><g class="polarlayer"/><g class="smithlayer"/><g class="ternarylayer"/><g class="geolayer"/><g class="funnelarealayer"/><g class="pielayer"/><g class="iciclelayer"/><g class="treemaplayer"/><g class="sunburstlayer"/><g class="glimages"/><defs id="topdefs-ad28d2"><g class="clips"/></defs><g class="layer-above"><g class="imagelayer"/><g class="shapelayer"/></g><g class="infolayer"><g class="g-gtitle"/><g class="g-xtitle"/><g class="g-x2title"/><g class="g-x3title"><text class="x3title" x="308.36350000000004" y="511.3" text-anchor="middle" style="opacity: 1; font-family: 'Open Sans', verdana, arial, sans-serif; font-size: 14px; fill: rgb(42, 63, 95); fill-opacity: 1; white-space: pre;">time</text></g><g class="g-ytitle"><text class="ytitle" transform="rotate(-90,47.865625,193.61)" x="47.865625" y="193.61" text-anchor="middle" style="opacity: 1; font-family: 'Open Sans', verdana, arial, sans-serif; font-size: 14px; fill: rgb(42, 63, 95); fill-opacity: 1; white-space: pre;">mean gamma</text></g><g class="g-y2title"/><g class="g-y3title"><text class="y3title" transform="rotate(-90,17.271874999999994,393.40999999999997)" x="17.271874999999994" y="393.40999999999997" text-anchor="middle" style="opacity: 1; font-family: 'Open Sans', verdana, arial, sans-serif; font-size: 14px; fill: rgb(42, 63, 95); fill-opacity: 1; white-space: pre;">a</text></g></g></svg>