<svg class="main-svg" xmlns="http://www.w3.org/2000/svg" xmlns:xlink="http://www.w3.org/1999/xlink" width="700" height="400" style="" viewBox="0 0 700 400"><rect x="0" y="0" width="700" height="400" style="fill: rgb(255, 255, 255); fill-opacity: 1;"/><defs id="defs-b932cc"><g class="clips"><clipPath id="clipb932ccxyplot" class="plotclip"><rect width="454.41" height="220"/></clipPath><clipPath id="clipb932ccx2y2plot" class="plotclip"><rect width="80.18999999999998" height="220"/></clipPath><clipPath class="axesclip" id="clipb932ccx"><rect x="80" y="0" width="454.41" height="400"/></clipPath><clipPath class="axesclip" id="clipb932ccy"><rect x="0" y="100" width="700" height="220"/></clipPath><clipPath class="axesclip" id="clipb932ccxy"><rect x="80" y="100" width="454.41" height="220"/></clipPath><clipPath class="axesclip" id="clipb932ccy2"><rect x="0" y="100" width="700" height="220"/></clipPath><clipPath class="axesclip" id="clipb932ccxy2"><rect x="80" y="100" width="454.41" height="220"/></clipPath><clipPath class="axesclip" id="clipb932ccx2"><rect x="539.81" y="0" width="80.18999999999998" height="400"/></clipPath><clipPath class="axesclip" id="clipb932ccx2y"><rect x="539.81" y="100" width="80.18999999999998" height="220"/></clipPath><clipPath class="axesclip" id="clipb932ccx2y2"><rect x="539.81" y="100" width="80.18999999999998" height="220"/></clipPath></g><g class="gradients"/><g class="patterns"/></defs><g class="bglayer"/><g class="layer-below"><g class="imagelayer"/><g class="shapelayer"/></g><g class="cartesianlayer"><g class="subplot xy"><g class="layer-subplot"><g class="shapelayer"/><g class="imagelayer"/></g><g class="minor-gridlayer"><g class="x"/><g class="y"/></g><g class="gridlayer"><g class="x"><path class="xgrid crisp" transform="translate(193.6,0)" d="M0,100v220" style="stroke: rgb(235, 240, 248); stroke-opacity: 1; stroke-width: 1px;"/><path class="xgrid crisp" transform="translate(307.21000000000004,0)" d="M0,100v220" style="stroke: rgb(235, 240, 248); stroke-opacity: 1; stroke-width: 1px;"/><path class="xgrid crisp" transform="translate(420.81,0)" d="M0,100v220" style="stroke: rgb(235, 240, 248); stroke-opacity: 1; stroke-width: 1px;"/></g><g class="y"><path class="ygrid crisp" transform="translate(0,315.94)" d="M80,0h454.41" style="stroke: rgb(235, 240, 248); stroke-opacity: 1; stroke-width: 1px;"/><path class="ygrid crisp" transform="translate(0,213.70999999999998)" d="M80,0h454.41" style="stroke: rgb(235, 240, 248); stroke-opacity: 1; stroke-width: 1px;"/><path class="ygrid crisp" transform="translate(0,162.59)" d="M80,0h454.41" style="stroke: rgb(235, 240, 248); stroke-opacity: 1; stroke-width: 1px;"/><path class="ygrid crisp" transform="translate(0,111.47)" d="M80,0h454.41" style="stroke: rgb(235, 240, 248); stroke-opacity: 1; stroke-width: 1px;"/></g></g><g class="zerolinelayer"><path class="xzl zl crisp" transform="translate(80,0)" d="M0,100v220" style="stroke: rgb(235, 240, 248); stroke-opacity: 1; stroke-width: 2px;"/><path class="yzl zl crisp" transform="translate(0,264.83000000000004)" d="M80,0h454.41" style="stroke: rgb(235, 240, 248); stroke-opacity: 1; stroke-width: 2px;"/></g><g class="layer-between"><g class="shapelayer"/><g class="imagelayer"/></g><path class="xlines-below"/><path class="ylines-below"/><g class="overlines-below"/><g class="xaxislayer-below"/><g class="yaxislayer-below"/><g class="overaxes-below"/><g class="overplot"><g class="xy" transform="translate(80,100)" clip-path="url(#clipb932ccxyplot)"><g class="scatterlayer mlayer"><g class="trace scatter tracea241dd" style="stroke-miterlimit: 2; opacity: 0.1;"><g class="fills"/><g class="errorbars"/><g class="lines"><path class="js-line" d="M0,164.15L18.18,163.13L22.72,165.8L27.26,168.18L31.81,166.88L36.35,171.76L40.9,172.56L54.53,169.03L59.07,166.66L63.62,171.07L68.16,172.82L77.25,168.05L81.79,167.75L86.34,164.43L90.88,163.54L95.43,162.46L99.97,158.07L104.51,158.75L109.06,140.83L118.15,76.27L122.69,68.55L131.78,54.93L136.32,49.3L140.87,47.57L145.41,43.99L149.96,46.43L154.5,43.82L159.04,47.31L163.59,44.24L168.13,42.97L172.68,45.12L177.22,43.78L181.76,44.48L186.31,44.17L190.85,45.81L209.03,42.29L213.57,43.8L222.66,46.42L227.21,42.47L231.75,40.07L236.29,39.56L240.84,40.05L245.38,37.1L259.01,37.14L263.56,38.81L268.1,40.42L272.65,38.96L277.19,40.08L281.73,38.3L286.28,35.25L290.82,38.72L295.37,40.7L299.91,40.07L309,45.84L313.54,45.92L322.63,40.23L327.18,37.96L336.26,36.63L340.81,42.08L345.35,38.42L349.9,37.5L354.44,36.73L358.98,38.07L363.53,37.73L368.07,34.12L381.7,38.15L386.25,38.08L395.34,24.01L399.88,23.53L404.42,26.37L408.97,20.6L418.06,11.61L422.6,14.81L431.69,15.56L436.23,14.97L449.87,15.96L454.41,11.75" style="vector-effect: none; fill: none; stroke: rgb(183, 86, 135); stroke-opacity: 1; stroke-width: 6px; opacity: 1;"/></g><g class="points"/><g class="text"/></g><g class="trace scatter trace953477" style="stroke-miterlimit: 2; opacity: 0.1;"><g class="fills"/><g class="errorbars"/><g class="lines"><path class="js-line" d="M0,165.07L9.09,166.2L13.63,164.44L18.18,166.09L22.72,165.44L27.26,164.56L31.81,165.44L36.35,166.29L40.9,165.12L49.99,163.91L54.53,157.74L68.16,156.4L72.71,153.92L77.25,148.98L81.79,137.74L90.88,83.1L95.43,64.45L99.97,64.87L104.51,55.77L113.6,41.9L118.15,40.34L136.32,41.88L140.87,38.61L145.41,41.76L149.96,38.01L159.04,34.36L163.59,37.09L172.68,37.97L177.22,35.14L181.76,30.99L186.31,29.93L190.85,28.38L195.4,28.7L199.94,26.97L204.48,30.57L209.03,31.19L213.57,35.39L222.66,27.91L227.21,29.61L231.75,30.24L236.29,28.22L240.84,30.6L245.38,30.54L254.47,26.04L259.01,27.07L263.56,28.77L268.1,28.08L272.65,33.39L277.19,29.48L281.73,24.8L286.28,26.26L290.82,28.81L295.37,28.83L299.91,27L304.45,35.24L313.54,29.31L318.09,33.21L327.18,28.01L331.72,24.09L336.26,20.16L340.81,18.24L358.98,21.1L363.53,18.39L368.07,20.41L372.62,20.78L377.16,25.2L381.7,24.63L386.25,20.09L390.79,21.43L395.34,18.2L399.88,18.04L404.42,13.83L408.97,13.85L422.6,20.81L427.15,26.62L431.69,23.15L436.23,23.66L440.78,22.1L445.32,26.39L454.41,29.88" style="vector-effect: none; fill: none; stroke: rgb(183, 86, 135); stroke-opacity: 1; stroke-width: 6px; opacity: 1;"/></g><g class="points"/><g class="text"/></g><g class="trace scatter trace9501ab" style="stroke-miterlimit: 2; opacity: 0.1;"><g class="fills"/><g class="errorbars"/><g class="lines"><path class="js-line" d="M0,164.91L13.63,165.26L18.18,162.75L22.72,149.13L27.26,143.15L40.9,55.8L45.44,50.03L59.07,25.52L63.62,28.63L68.16,21.61L72.71,23.35L86.34,24.7L90.88,20.81L95.43,22.66L99.97,22.31L109.06,29.31L113.6,31.08L118.15,34.44L122.69,30.69L127.23,32.2L131.78,30.51L136.32,31.56L140.87,37.67L145.41,37.36L149.96,31.9L154.5,30.96L159.04,33.71L163.59,31.59L168.13,33.19L177.22,24.47L181.76,23.91L186.31,24.38L190.85,26.43L195.4,27.78L199.94,33.01L213.57,33.6L218.12,27.59L222.66,21.23L227.21,19.12L236.29,15.42L240.84,17.04L249.93,13.11L254.47,14.21L259.01,20.13L263.56,21.12L272.65,24.16L277.19,24L281.73,23.6L286.28,21.17L290.82,25.07L295.37,25.17L304.45,26.27L309,25.93L313.54,29.22L318.09,30.65L322.63,36.58L327.18,35.23L331.72,31.64L336.26,30.51L345.35,37.37L349.9,36.13L354.44,35.27L358.98,36.32L368.07,39.36L372.62,37.88L386.25,34.11L390.79,33.71L399.88,34.15L404.42,36.57L408.97,31.64L413.51,29.61L418.06,30.03L422.6,28.32L431.69,32.17L436.23,31.88L445.32,33.38L449.87,31.59L454.41,34.14" style="vector-effect: none; fill: none; stroke: rgb(183, 86, 135); stroke-opacity: 1; stroke-width: 6px; opacity: 1;"/></g><g class="points"/><g class="text"/></g><g class="trace scatter trace0c9886" style="stroke-miterlimit: 2; opacity: 0.1;"><g class="fills"/><g class="errorbars"/><g class="lines"><path class="js-line" d="M0,164.37L9.09,163.01L13.63,161.71L18.18,162.41L22.72,164.64L27.26,164.93L31.81,162.82L36.35,159.49L40.9,158.95L45.44,158.86L49.99,160.92L54.53,154.2L59.07,151.83L63.62,144.98L68.16,146.15L72.71,143.39L77.25,149.86L81.79,157L86.34,152.63L90.88,151.67L95.43,144.49L99.97,144.65L104.51,137.34L113.6,140L118.15,142.39L127.23,139.91L131.78,138.93L136.32,134.25L140.87,138.06L154.5,132.09L159.04,131.79L163.59,131.38L168.13,118.39L172.68,116.98L177.22,108.28L181.76,101.51L186.31,89.23L190.85,77.04L195.4,69.14L204.48,55.63L209.03,53.94L213.57,48.56L218.12,46.79L222.66,40.03L227.21,36.86L240.84,40.01L245.38,40.54L259.01,38.51L263.56,37.44L268.1,34.45L272.65,34.05L277.19,33.09L281.73,35.29L290.82,30.6L295.37,24.5L299.91,23.96L304.45,27.51L309,24.24L313.54,25.38L318.09,27.89L322.63,28.49L327.18,34.66L331.72,36.84L345.35,39.36L349.9,40.79L358.98,33.26L363.53,34.78L368.07,38.15L372.62,35.05L377.16,30.32L381.7,32.06L386.25,33.76L390.79,33.71L395.34,33.74L399.88,35.39L408.97,29.78L413.51,31.83L418.06,33.37L422.6,39.88L427.15,34.17L431.69,35.24L436.23,37.18L440.78,36.45L445.32,33.66L449.87,37.02L454.41,38.99" style="vector-effect: none; fill: none; stroke: rgb(183, 86, 135); stroke-opacity: 1; stroke-width: 6px; opacity: 1;"/></g><g class="points"/><g class="text"/></g><g class="trace scatter trace3a3805" style="stroke-miterlimit: 2; opacity: 0.1;"><g class="fills"/><g class="errorbars"/><g class="lines"><path class="js-line" d="M0,165.36L13.63,165.19L18.18,166.97L27.26,169.26L31.81,168.74L36.35,168.61L40.9,166.18L54.53,178.34L59.07,174.41L63.62,172.24L68.16,171.74L77.25,166.12L81.79,168.43L86.34,167.83L90.88,178.64L95.43,175.63L99.97,177.93L104.51,185.43L109.06,189.26L113.6,191.53L118.15,184.23L122.69,182.25L127.23,182.82L131.78,186.93L136.32,185.17L145.41,181.94L149.96,180.15L159.04,190.06L163.59,192.26L168.13,196.72L172.68,193.08L181.76,191.42L186.31,187.46L190.85,191.19L195.4,197.35L199.94,192.66L204.48,197.77L218.12,195.99L222.66,187.19L231.75,188.29L236.29,184.3L240.84,177.82L245.38,177.27L254.47,178.73L259.01,175.59L263.56,174.62L268.1,180.09L272.65,183.65L277.19,181.86L290.82,175.11L295.37,169.33L299.91,169.37L304.45,171.27L309,171.91L313.54,174.14L318.09,177.22L322.63,175.77L327.18,180.86L331.72,180.9L336.26,178.32L340.81,184.1L349.9,179.69L354.44,176.33L363.53,181.16L368.07,176.43L372.62,176.4L377.16,171.7L390.79,165.09L395.34,166.9L399.88,166.88L404.42,170.3L408.97,170.55L413.51,167.01L418.06,177.5L422.6,176.58L427.15,176.7L431.69,178.81L436.23,180.42L440.78,184.82L445.32,186.58L449.87,186.54L454.41,190.03" style="vector-effect: none; fill: none; stroke: rgb(183, 86, 135); stroke-opacity: 1; stroke-width: 6px; opacity: 1;"/></g><g class="points"/><g class="text"/></g><g class="trace scatter tracead306b" style="stroke-miterlimit: 2; opacity: 0.1;"><g class="fills"/><g class="errorbars"/><g class="lines"><path class="js-line" d="M0,164.96L18.18,165.82L22.72,168.92L36.35,169.77L40.9,168.53L45.44,171.01L49.99,176.78L54.53,173.95L59.07,173.81L63.62,174.87L68.16,171.31L77.25,178.94L81.79,178.47L86.34,174.62L90.88,173.01L95.43,177.19L99.97,178.8L104.51,183.28L109.06,184.78L113.6,180.73L118.15,179.62L122.69,176.23L127.23,180.55L131.78,181.18L136.32,175.21L140.87,175.52L145.41,181.32L149.96,184.49L154.5,181.67L163.59,180.22L168.13,182.57L172.68,183.29L177.22,179.47L195.4,166.7L199.94,172.83L204.48,180.91L209.03,177.59L213.57,168.09L218.12,167.84L222.66,162.02L227.21,161.57L236.29,166.97L240.84,169.81L245.38,171.37L249.93,170.8L254.47,171.48L259.01,168.25L268.1,185.76L272.65,179.27L277.19,171.75L281.73,133.67L286.28,127.7L290.82,104.63L299.91,75.11L304.45,60.02L313.54,39.8L318.09,45.11L322.63,30.47L327.18,29.04L331.72,20.28L336.26,19.24L345.35,17L349.9,18.52L354.44,22.77L358.98,19.15L372.62,19.33L377.16,16.13L386.25,15.12L390.79,11.79L395.34,11.4L399.88,14.53L404.42,18.12L408.97,18.75L413.51,20.11L418.06,15.45L427.15,17.87L431.69,19.67L436.23,25L440.78,26.88L445.32,30.35L449.87,26.2L454.41,31.17" style="vector-effect: none; fill: none; stroke: rgb(183, 86, 135); stroke-opacity: 1; stroke-width: 6px; opacity: 1;"/></g><g class="points"/><g class="text"/></g><g class="trace scatter tracee2ab15" style="stroke-miterlimit: 2; opacity: 0.1;"><g class="fills"/><g class="errorbars"/><g class="lines"><path class="js-line" d="M0,165.32L4.54,165.32L9.09,163.63L13.63,163.56L18.18,159.21L27.26,159.8L31.81,157.83L40.9,146.19L45.44,145.89L49.99,140.66L54.53,138.81L59.07,139.12L63.62,141.6L68.16,141.79L72.71,144.76L77.25,148.04L81.79,147.35L86.34,146.53L90.88,141.21L104.51,143.32L109.06,147.48L113.6,139.97L118.15,146.56L122.69,142.21L127.23,144.58L131.78,134.86L136.32,132.41L140.87,128.88L145.41,119.51L154.5,101.56L159.04,79.29L163.59,70.8L168.13,73.39L172.68,55.01L177.22,56.02L181.76,43.02L186.31,47.43L190.85,40.61L195.4,36.84L199.94,29.85L204.48,26.76L209.03,25.91L213.57,23.38L222.66,25.09L227.21,21.75L236.29,24.74L240.84,30.92L245.38,28.39L249.93,28.05L263.56,31.02L268.1,30.36L272.65,29.01L277.19,31.89L281.73,33.32L286.28,31.89L290.82,28.38L295.37,28.85L304.45,29.56L309,25.84L313.54,27.26L318.09,24.99L322.63,23.05L327.18,23.25L336.26,20.87L340.81,16.63L345.35,19.3L349.9,19.02L363.53,14.53L368.07,16.03L372.62,11.81L377.16,13.19L381.7,14.99L386.25,13.95L390.79,17.54L395.34,19.08L399.88,18.39L404.42,13.8L408.97,11L413.51,13.8L418.06,19.24L422.6,18.02L427.15,19.84L431.69,19.67L436.23,19.6L440.78,16.78L449.87,15.19L454.41,15.55" style="vector-effect: none; fill: none; stroke: rgb(183, 86, 135); stroke-opacity: 1; stroke-width: 6px; opacity: 1;"/></g><g class="points"/><g class="text"/></g><g class="trace scatter traced0c1f7" style="stroke-miterlimit: 2; opacity: 0.1;"><g class="fills"/><g class="errorbars"/><g class="lines"><path class="js-line" d="M0,165.05L13.63,163.91L18.18,163.17L36.35,168.05L40.9,165.88L45.44,167.37L49.99,166.29L54.53,163.89L59.07,163.65L63.62,167.14L68.16,174.53L72.71,167.53L77.25,169.23L81.79,169.19L86.34,171.49L90.88,174.13L95.43,170.57L99.97,173.59L104.51,172.84L109.06,170.13L113.6,171.05L118.15,169L122.69,170.25L127.23,174.35L131.78,175.93L136.32,173.9L140.87,173.76L145.41,167.94L149.96,168.83L154.5,169.55L159.04,174.22L168.13,174.15L172.68,170.93L177.22,170.95L181.76,167.47L186.31,167.56L190.85,169.16L195.4,168.53L199.94,171.11L204.48,173.59L209.03,170.7L213.57,166.8L218.12,174.3L222.66,167.66L227.21,170.4L231.75,162.57L236.29,161.55L240.84,165.86L245.38,167.39L249.93,167.96L254.47,165.71L259.01,166.31L263.56,163.5L268.1,160.22L272.65,163.27L281.73,156.19L286.28,156.84L290.82,155.31L295.37,155.85L299.91,153.73L304.45,159.3L309,159.73L313.54,156.08L318.09,148.97L322.63,137.39L327.18,118.67L331.72,107.16L336.26,90.93L340.81,68.91L349.9,46.56L354.44,48.36L358.98,45.31L363.53,50.05L372.62,42.46L377.16,38.59L381.7,34.05L386.25,35.54L390.79,37.04L395.34,36.16L399.88,32.97L404.42,33L413.51,32.8L418.06,28.73L422.6,34.59L427.15,33.07L431.69,33.04L436.23,36.43L445.32,34.55L449.87,36.9L454.41,38.67" style="vector-effect: none; fill: none; stroke: rgb(183, 86, 135); stroke-opacity: 1; stroke-width: 6px; opacity: 1;"/></g><g class="points"/><g class="text"/></g><g class="trace scatter tracebc7b54" style="stroke-miterlimit: 2; opacity: 0.1;"><g class="fills"/><g class="errorbars"/><g class="lines"><path class="js-line" d="M0,164.83L4.54,164.83L9.09,167.32L27.26,173.48L31.81,170.23L40.9,173.47L45.44,171.69L49.99,170.75L54.53,172.02L63.62,165.89L68.16,168.48L72.71,170.56L77.25,168.78L81.79,171.03L86.34,166.22L99.97,166.05L104.51,169.18L113.6,169.01L118.15,176.3L122.69,176.47L127.23,180.28L131.78,185.5L136.32,186.36L140.87,188.1L145.41,187.92L149.96,196.84L154.5,199.44L159.04,209L163.59,207.57L168.13,204.26L172.68,207.72L177.22,202.02L181.76,199.37L186.31,192.68L190.85,198.48L195.4,199.37L199.94,195.39L204.48,188.37L209.03,192.88L218.12,183.45L222.66,186.88L227.21,183.96L231.75,183.49L236.29,181.58L240.84,173.72L245.38,179.33L249.93,182.28L254.47,173.67L259.01,174.3L263.56,180.81L268.1,183.52L272.65,183.01L277.19,177.56L281.73,175.82L286.28,178.49L290.82,177.8L295.37,175.36L299.91,174.76L304.45,178.86L309,172.46L313.54,175.38L318.09,175.37L322.63,176.98L327.18,171.08L331.72,171.12L336.26,173.83L340.81,174.39L345.35,174.4L349.9,172.83L358.98,174.79L363.53,176.96L368.07,178.92L372.62,175.8L377.16,180.17L381.7,178.47L386.25,176.32L390.79,182.98L395.34,189.09L399.88,179.61L404.42,179.24L408.97,181.58L418.06,167.4L422.6,166.64L431.69,164.36L436.23,169.09L449.87,164.46L454.41,169.66" style="vector-effect: none; fill: none; stroke: rgb(183, 86, 135); stroke-opacity: 1; stroke-width: 6px; opacity: 1;"/></g><g class="points"/><g class="text"/></g><g class="trace scatter trace6389df" style="stroke-miterlimit: 2; opacity: 0.1;"><g class="fills"/><g class="errorbars"/><g class="lines"><path class="js-line" d="M0,165.63L18.18,166.36L22.72,171.48L36.35,171.95L40.9,167.17L54.53,175.79L59.07,172.66L68.16,172.87L72.71,170.31L81.79,164.72L86.34,166.38L90.88,166.85L95.43,165.06L104.51,164.05L109.06,160.58L113.6,161.24L118.15,155.99L122.69,145.91L127.23,126.82L136.32,120.92L140.87,109.78L145.41,102.38L149.96,104.29L154.5,97.2L159.04,100.94L163.59,94.09L168.13,91.18L172.68,89.57L177.22,90.52L190.85,93.01L195.4,98.73L199.94,95.89L204.48,104.04L209.03,108.29L213.57,104.91L218.12,109.05L222.66,102.12L227.21,94.22L231.75,90.25L236.29,82.7L240.84,81.62L254.47,85.65L259.01,83.56L268.1,81.62L272.65,84.53L277.19,83.22L281.73,84.54L286.28,88.22L290.82,88.04L295.37,91.07L299.91,90.65L309,95.41L313.54,94.94L322.63,90.5L327.18,89.14L331.72,91.72L336.26,88.65L340.81,86.74L345.35,90.55L354.44,86.24L358.98,86.71L363.53,86.13L368.07,88.39L372.62,85.97L377.16,85.7L386.25,82.6L390.79,84.39L395.34,86.43L399.88,86.2L408.97,86.49L413.51,87L422.6,87.55L427.15,83.23L431.69,83.55L436.23,86.74L445.32,89.74L449.87,89.12L454.41,88.05" style="vector-effect: none; fill: none; stroke: rgb(183, 86, 135); stroke-opacity: 1; stroke-width: 6px; opacity: 1;"/></g><g class="points"/><g class="text"/></g><g class="trace scatter tracede1fba" style="stroke-miterlimit: 2; opacity: 0.1;"><g class="fills"/><g class="errorbars"/><g class="lines"><path class="js-line" d="M0,164.53L18.18,164.75L22.72,166.76L31.81,167.86L36.35,172.19L59.07,172.37L63.62,173.84L68.16,173.08L72.71,170.12L77.25,170.2L81.79,167.71L86.34,165.47L90.88,167.68L95.43,164.79L99.97,164.09L113.6,169.42L118.15,173.8L127.23,168.47L131.78,166.58L136.32,171.89L140.87,165.99L145.41,168.62L149.96,164.66L154.5,162.79L159.04,164.97L163.59,168.36L168.13,175.7L172.68,179.79L177.22,179.75L186.31,171.77L190.85,169.12L209.03,165.46L213.57,164.87L231.75,160.37L236.29,164.83L240.84,167.48L245.38,168.15L249.93,166.03L254.47,169.12L259.01,166L263.56,166.22L268.1,167.63L272.65,166.32L277.19,166.63L281.73,162.71L295.37,165.41L299.91,163.58L304.45,163.15L309,164.68L313.54,163.5L318.09,164.55L322.63,163.18L327.18,166.99L331.72,169.12L336.26,165.12L345.35,166.99L349.9,171.7L354.44,170.12L358.98,172.73L368.07,169.86L372.62,164.51L381.7,162.63L386.25,158.56L395.34,159.3L399.88,160.42L404.42,163.93L408.97,164.37L413.51,162.81L418.06,168.32L422.6,168.91L427.15,164.87L431.69,156.63L436.23,156.5L440.78,152.48L445.32,152.56L449.87,150.24L454.41,154.47" style="vector-effect: none; fill: none; stroke: rgb(183, 86, 135); stroke-opacity: 1; stroke-width: 6px; opacity: 1;"/></g><g class="points"/><g class="text"/></g><g class="trace scatter trace829799" style="stroke-miterlimit: 2; opacity: 0.1;"><g class="fills"/><g class="errorbars"/><g class="lines"><path class="js-line" d="M0,165.42L13.63,164.15L18.18,163.12L22.72,165.43L27.26,165.55L49.99,164.84L54.53,151.18L63.62,124.83L68.16,123.24L72.71,109.84L77.25,106.32L81.79,108.94L86.34,105.06L90.88,101.24L95.43,102.11L99.97,103.08L104.51,106.5L113.6,102.9L118.15,103.3L122.69,104.47L127.23,103.67L131.78,108.29L136.32,119.15L140.87,113.46L145.41,113.19L149.96,117.81L154.5,115.49L168.13,117.01L172.68,114.45L177.22,116.55L181.76,112.43L186.31,110.95L190.85,107.33L195.4,106.55L199.94,107.82L204.48,104.84L209.03,103.66L213.57,103.66L218.12,101.76L227.21,98.43L231.75,99.71L236.29,101.25L240.84,98.73L245.38,96.25L249.93,98.5L254.47,98.58L259.01,92.13L272.65,92.4L277.19,94.64L286.28,92.5L290.82,90.04L295.37,91.74L299.91,96.97L309,85.37L313.54,87.27L318.09,85.86L322.63,88.58L327.18,88.17L331.72,89.67L340.81,88.89L345.35,92.13L349.9,91.41L354.44,88.91L358.98,88.98L363.53,92.74L377.16,89.22L381.7,93.09L386.25,93.82L390.79,91.66L395.34,95.95L399.88,94.13L404.42,97.23L408.97,95.31L413.51,98.71L418.06,94.09L422.6,96.71L427.15,93.41L431.69,96.65L436.23,96.82L440.78,97.78L445.32,94.13L449.87,97.61L454.41,97.04" style="vector-effect: none; fill: none; stroke: rgb(183, 86, 135); stroke-opacity: 1; stroke-width: 6px; opacity: 1;"/></g><g class="points"/><g class="text"/></g><g class="trace scatter tracee1f9b3" style="stroke-miterlimit: 2; opacity: 0.1;"><g class="fills"/><g class="errorbars"/><g class="lines"><path class="js-line" d="M0,164.9L9.09,165.91L13.63,163.93L22.72,167.84L27.26,167.66L36.35,166.32L40.9,168.08L45.44,166.99L49.99,170.22L54.53,172.65L59.07,170.91L63.62,167.66L68.16,167.35L72.71,164.15L77.25,165.41L86.34,166.12L90.88,163.26L99.97,165.06L104.51,160.9L109.06,154.54L113.6,151.57L122.69,138.62L127.23,130.94L140.87,110.39L145.41,108.86L149.96,108.56L154.5,101.05L159.04,87.38L163.59,82.29L168.13,74.03L172.68,72.18L177.22,70.26L181.76,70.3L186.31,70.75L190.85,68.77L195.4,67.05L199.94,68.45L209.03,65.73L213.57,68.94L218.12,67.92L222.66,65.14L231.75,70.39L236.29,68.59L240.84,70.15L245.38,67.44L249.93,67.46L254.47,72.64L259.01,70.57L263.56,74.88L268.1,72.28L272.65,73.79L277.19,70.29L281.73,69.54L290.82,65.43L295.37,68.73L299.91,68.32L304.45,71.05L313.54,64.29L318.09,63.1L322.63,66.35L327.18,65.59L336.26,63.48L340.81,65.81L345.35,69.03L349.9,67.67L354.44,64.05L358.98,62.7L368.07,60.05L372.62,59.8L377.16,61.81L381.7,61.41L386.25,63.74L390.79,61.67L395.34,59.65L399.88,61.35L404.42,58.45L408.97,58L413.51,56.87L418.06,53.67L422.6,53.98L427.15,56.17L431.69,56.34L436.23,58.66L445.32,62.57L449.87,60.02L454.41,60.49" style="vector-effect: none; fill: none; stroke: rgb(183, 86, 135); stroke-opacity: 1; stroke-width: 6px; opacity: 1;"/></g><g class="points"/><g class="text"/></g><g class="trace scatter tracef57ffe" style="stroke-miterlimit: 2; opacity: 0.1;"><g class="fills"/><g class="errorbars"/><g class="lines"><path class="js-line" d="M0,165.31L9.09,165.55L13.63,163.57L22.72,166.4L27.26,164.97L36.35,168.12L40.9,169.06L45.44,171.13L49.99,169.2L77.25,162.5L81.79,163.29L86.34,161.27L90.88,162.37L104.51,156.22L109.06,150.64L113.6,155.67L118.15,155.17L122.69,154.94L127.23,159.65L131.78,153.3L136.32,154.02L140.87,157.72L145.41,154.48L159.04,142.94L163.59,142.11L172.68,133.94L177.22,129.76L181.76,124.54L186.31,125.42L190.85,121.64L195.4,121.03L199.94,120.1L204.48,121.95L209.03,119.12L213.57,123.49L218.12,139.34L222.66,128.24L227.21,118.62L231.75,112.97L236.29,107.27L240.84,96.95L249.93,64.75L254.47,62.08L263.56,56.13L268.1,60.02L277.19,51.12L281.73,51.17L290.82,47.74L295.37,48.11L299.91,46.68L304.45,48L313.54,51.85L318.09,54.26L322.63,54.7L327.18,50.94L349.9,53.23L354.44,58.1L358.98,57.19L363.53,60.42L372.62,57.33L377.16,63.88L381.7,69.78L386.25,67.93L390.79,63.61L395.34,63.46L399.88,60.38L404.42,60.16L408.97,56.17L413.51,55.05L418.06,58.82L422.6,56.22L427.15,55.72L431.69,52.83L436.23,52.2L440.78,54.22L445.32,52.65L449.87,56.04L454.41,58.07" style="vector-effect: none; fill: none; stroke: rgb(183, 86, 135); stroke-opacity: 1; stroke-width: 6px; opacity: 1;"/></g><g class="points"/><g class="text"/></g><g class="trace scatter trace93f389" style="stroke-miterlimit: 2; opacity: 0.1;"><g class="fills"/><g class="errorbars"/><g class="lines"><path class="js-line" d="M0,165.25L13.63,164.54L18.18,162.99L22.72,165.49L27.26,164.07L36.35,159.04L40.9,161.56L49.99,157.97L54.53,158.28L59.07,156.75L63.62,157.72L68.16,152.89L72.71,159.25L77.25,158.82L81.79,160.01L95.43,165.94L99.97,163.56L104.51,168.19L109.06,168.34L118.15,167.48L122.69,164.65L127.23,168.15L131.78,165.21L140.87,167.81L145.41,166.66L149.96,163.94L154.5,165.73L159.04,165.64L163.59,164.02L168.13,165.53L172.68,165.01L177.22,164L181.76,161.13L186.31,165.49L190.85,158.95L199.94,151.94L204.48,130.62L209.03,120.37L213.57,99.05L218.12,89.52L222.66,94.05L231.75,75.37L236.29,55.74L240.84,56.01L245.38,48.03L263.56,46.45L268.1,46.54L272.65,46.39L277.19,48.34L281.73,47.31L286.28,50.12L304.45,47.38L309,44.66L313.54,43.22L318.09,44.67L322.63,42.55L327.18,43.78L331.72,49.15L336.26,47.09L340.81,49.18L345.35,47.44L349.9,43.25L354.44,45.35L372.62,44.71L377.16,48.55L381.7,49.82L386.25,48.46L399.88,49.1L404.42,46.01L408.97,51.01L413.51,47.14L418.06,45.89L422.6,41.5L427.15,43.01L431.69,46.45L440.78,45.38L445.32,39.28L449.87,35.34L454.41,33.51" style="vector-effect: none; fill: none; stroke: rgb(183, 86, 135); stroke-opacity: 1; stroke-width: 6px; opacity: 1;"/></g><g class="points"/><g class="text"/></g><g class="trace scatter tracea2904d" style="stroke-miterlimit: 2; opacity: 0.1;"><g class="fills"/><g class="errorbars"/><g class="lines"><path class="js-line" d="M0,165.09L4.54,165.09L9.09,167.06L22.72,169.19L27.26,167.59L36.35,168.01L40.9,162.89L45.44,162.66L49.99,157.69L59.07,153.19L63.62,154L68.16,154.91L72.71,151.27L81.79,156.85L86.34,153.05L90.88,156.12L95.43,151.43L99.97,149.61L104.51,144.33L109.06,147.9L113.6,148L122.69,150.89L127.23,145.93L131.78,150.55L136.32,159.83L140.87,163.22L145.41,152.86L149.96,144.83L154.5,125.45L163.59,70.62L168.13,64.87L172.68,57.55L177.22,39.2L181.76,34.83L186.31,37.15L190.85,34.42L195.4,36.52L199.94,37.07L204.48,40.47L209.03,41.06L213.57,36.58L222.66,31.49L227.21,31.16L245.38,34.72L249.93,38.27L254.47,42.19L259.01,36.97L263.56,35.07L268.1,36.26L272.65,35.81L277.19,37.83L286.28,35.52L290.82,37.51L299.91,35.39L304.45,36.13L309,35.07L313.54,36.21L322.63,30.36L327.18,30.71L331.72,28.54L336.26,32.61L340.81,31.77L345.35,33.96L349.9,34.54L354.44,29.81L358.98,25.17L363.53,24.08L372.62,31.6L377.16,36.07L386.25,38.48L390.79,36.81L395.34,32.11L399.88,34.39L404.42,33.25L408.97,36.98L413.51,37.12L418.06,35.6L422.6,35.39L427.15,32.87L431.69,33.22L436.23,31.14L445.32,37.88L449.87,37.29L454.41,37.56" style="vector-effect: none; fill: none; stroke: rgb(183, 86, 135); stroke-opacity: 1; stroke-width: 6px; opacity: 1;"/></g><g class="points"/><g class="text"/></g><g class="trace scatter trace98f43d" style="stroke-miterlimit: 2; opacity: 0.1;"><g class="fills"/><g class="errorbars"/><g class="lines"><path class="js-line" d="M0,164.25L9.09,163.05L13.63,161.42L22.72,166.09L27.26,165.06L31.81,167.8L36.35,165.38L40.9,164.32L45.44,164.88L54.53,162.03L59.07,165.07L68.16,161.69L72.71,162.65L77.25,161.35L81.79,164.37L86.34,161.91L90.88,164.59L95.43,161.27L99.97,155.19L104.51,152.62L109.06,153.5L113.6,157.64L118.15,156.6L122.69,154.45L127.23,156.84L131.78,155.48L136.32,147.71L159.04,59.34L163.59,66.57L172.68,47.22L177.22,39.95L181.76,39.92L186.31,37.81L190.85,42.16L195.4,41.47L199.94,41.86L204.48,37.97L218.12,34.96L222.66,36.46L231.75,35.06L236.29,36.7L245.38,34.77L249.93,38.54L259.01,36.54L263.56,34.87L268.1,43.37L272.65,43.78L277.19,41.28L281.73,41.38L290.82,45.53L295.37,50.09L299.91,49.75L304.45,43.99L322.63,45.83L327.18,45.25L331.72,43.58L336.26,46.65L345.35,41.97L349.9,44.36L358.98,44.37L363.53,45.53L381.7,49.03L386.25,48.84L395.34,44.25L399.88,46.11L408.97,36.08L413.51,39.63L427.15,47.22L431.69,43.46L436.23,43.34L440.78,41.39L445.32,43.76L449.87,37.65L454.41,37.45" style="vector-effect: none; fill: none; stroke: rgb(183, 86, 135); stroke-opacity: 1; stroke-width: 6px; opacity: 1;"/></g><g class="points"/><g class="text"/></g><g class="trace scatter trace558dba" style="stroke-miterlimit: 2; opacity: 0.1;"><g class="fills"/><g class="errorbars"/><g class="lines"><path class="js-line" d="M0,164.7L4.54,164.7L9.09,162.8L18.18,166.41L22.72,163.04L27.26,159.59L31.81,141.39L36.35,118.13L40.9,113.14L45.44,103.93L49.99,65.63L54.53,47.21L59.07,47.22L63.62,29.86L68.16,22.42L72.71,13.01L77.25,12.53L86.34,17.26L90.88,17.42L95.43,21.67L99.97,23.33L109.06,15.97L113.6,18.24L118.15,18.86L122.69,22.19L131.78,20.59L136.32,26.74L145.41,33.2L149.96,32.73L154.5,29.04L159.04,28.79L163.59,28.54L168.13,29.93L172.68,28.49L177.22,35.99L181.76,33.43L186.31,36.4L190.85,35.52L195.4,36.51L199.94,35.72L204.48,37.51L209.03,37.01L213.57,40.01L218.12,40.12L222.66,37.79L231.75,33.59L236.29,42.5L240.84,42.7L245.38,37.16L249.93,37.52L254.47,39.5L259.01,39.69L263.56,36.32L268.1,32.44L272.65,33.4L277.19,37.87L281.73,34.4L286.28,33.58L290.82,34.51L299.91,35.25L304.45,32.6L318.09,32.04L322.63,29.02L327.18,28.81L331.72,24.1L336.26,25.59L340.81,25.44L345.35,23.49L349.9,23.42L363.53,30.07L368.07,30.76L377.16,30.54L381.7,33.33L386.25,33.7L390.79,31.27L399.88,33.82L404.42,30.36L408.97,28.33L413.51,30.03L418.06,27.28L422.6,28.35L431.69,27.77L436.23,33.64L440.78,28.63L445.32,29.2L449.87,29.78L454.41,26.97" style="vector-effect: none; fill: none; stroke: rgb(183, 86, 135); stroke-opacity: 1; stroke-width: 6px; opacity: 1;"/></g><g class="points"/><g class="text"/></g><g class="trace scatter tracef75b31" style="stroke-miterlimit: 2; opacity: 0.1;"><g class="fills"/><g class="errorbars"/><g class="lines"><path class="js-line" d="M0,163.93L18.18,163.77L22.72,162.18L27.26,162.52L31.81,158.41L36.35,162.41L40.9,161.89L45.44,159.72L49.99,154.63L63.62,148.35L68.16,157.11L72.71,150.87L77.25,130.99L86.34,104.85L90.88,97.62L95.43,88.65L99.97,87.12L104.51,84.54L109.06,87.5L113.6,81.55L118.15,81.08L127.23,78.13L131.78,73.97L140.87,67.96L145.41,60.96L149.96,55.14L154.5,53.91L159.04,53.05L163.59,49.14L168.13,50.64L172.68,49.87L177.22,49.15L181.76,50.02L186.31,52.14L190.85,52.4L195.4,48.72L199.94,48.27L204.48,45.49L209.03,46.55L218.12,54.62L222.66,54.79L227.21,49.47L231.75,48.6L236.29,49.89L240.84,48.46L245.38,50.38L249.93,50.33L254.47,46.78L259.01,48.21L263.56,47.89L268.1,50.54L272.65,49.62L277.19,45.78L281.73,49.46L286.28,48.75L304.45,50.16L309,54.96L318.09,54.66L322.63,55.79L331.72,57.65L336.26,56.93L340.81,56.32L345.35,57.94L358.98,60.92L363.53,63.62L377.16,68.71L381.7,68.51L386.25,75.14L390.79,72.66L399.88,71.16L404.42,74.39L413.51,72.95L418.06,70.57L427.15,64.21L431.69,66.1L436.23,68.83L440.78,68.32L445.32,66.91L449.87,69.51L454.41,73.04" style="vector-effect: none; fill: none; stroke: rgb(183, 86, 135); stroke-opacity: 1; stroke-width: 6px; opacity: 1;"/></g><g class="points"/><g class="text"/></g><g class="trace scatter traced2d2ca" style="stroke-miterlimit: 2; opacity: 0.1;"><g class="fills"/><g class="errorbars"/><g class="lines"><path class="js-line" d="M0,164.61L4.54,164.61L9.09,162.92L13.63,163.57L18.18,160.51L22.72,155.58L27.26,154.73L31.81,158.96L36.35,155.02L40.9,153.7L45.44,154.68L49.99,145.71L54.53,147.74L59.07,131.98L63.62,123.65L68.16,118.71L72.71,101.13L77.25,88.33L81.79,81.75L90.88,70.49L95.43,71.53L109.06,71.12L113.6,68.52L122.69,69.23L127.23,66.15L149.96,65.48L154.5,67.11L168.13,67.09L172.68,67.59L181.76,69.42L186.31,69.87L190.85,69.22L195.4,66.21L199.94,70.93L204.48,71.42L209.03,71.42L213.57,73.18L218.12,75.4L222.66,75.41L227.21,74.45L231.75,69.22L249.93,68.16L254.47,70.56L268.1,73.41L272.65,71.19L277.19,67.79L281.73,66.81L286.28,68.98L290.82,68.64L299.91,69.57L304.45,71.93L309,72.41L313.54,69.06L322.63,74.67L327.18,75.93L336.26,75.54L340.81,77.4L349.9,75.76L354.44,75.78L358.98,71.24L363.53,74.93L372.62,85.42L377.16,83.37L381.7,80.3L386.25,79.6L390.79,79.74L395.34,76.72L404.42,80.93L408.97,80.01L413.51,78.19L418.06,74.65L422.6,77.62L427.15,76.11L436.23,81.06L440.78,83.79L445.32,81.85L449.87,84.51L454.41,81.67" style="vector-effect: none; fill: none; stroke: rgb(183, 86, 135); stroke-opacity: 1; stroke-width: 6px; opacity: 1;"/></g><g class="points"/><g class="text"/></g><g class="trace scatter trace5730cd" style="stroke-miterlimit: 2; opacity: 0.1;"><g class="fills"/><g class="errorbars"/><g class="lines"><path class="js-line" d="M0,164.6L13.63,164.05L18.18,167.64L27.26,161.28L31.81,163.78L45.44,168.96L49.99,168.06L54.53,166.26L59.07,167.36L63.62,164.4L68.16,164.04L77.25,159.69L81.79,152.75L86.34,145.39L90.88,132.97L109.06,52.52L113.6,42.49L122.69,37.16L127.23,35.99L131.78,37.04L136.32,33.92L140.87,32.58L145.41,29.03L149.96,27.73L154.5,30.13L168.13,24.53L172.68,27.67L181.76,28.94L186.31,28.94L190.85,28.66L195.4,32.18L204.48,33.28L209.03,33.94L218.12,40.54L222.66,37.57L227.21,39.15L231.75,37.48L236.29,36.62L240.84,37.88L249.93,38.89L254.47,38.62L259.01,42.73L263.56,41.55L268.1,33.86L272.65,36.51L281.73,36.89L286.28,38.83L290.82,36.34L295.37,38.51L309,35.28L313.54,40.87L327.18,42.86L331.72,41.01L336.26,42.35L340.81,46.4L345.35,44.37L349.9,46.1L363.53,42.32L368.07,46.45L372.62,48.87L377.16,46.28L381.7,48.97L386.25,44.84L390.79,46.87L395.34,45.42L399.88,48.5L404.42,47.89L408.97,45.8L413.51,49.45L440.78,48.3L445.32,49.51L449.87,44.43L454.41,44.87" style="vector-effect: none; fill: none; stroke: rgb(183, 86, 135); stroke-opacity: 1; stroke-width: 6px; opacity: 1;"/></g><g class="points"/><g class="text"/></g><g class="trace scatter trace77527e" style="stroke-miterlimit: 2; opacity: 0.1;"><g class="fills"/><g class="errorbars"/><g class="lines"><path class="js-line" d="M0,165.46L9.09,166.3L13.63,167.68L22.72,169.42L27.26,166.83L36.35,163.16L40.9,171.28L49.99,169.89L54.53,171.83L59.07,170.52L63.62,171.47L68.16,171.03L72.71,173.32L81.79,172.02L86.34,175.93L90.88,180.02L95.43,176.44L99.97,177.54L104.51,174.85L109.06,179.79L113.6,178.84L118.15,176.97L122.69,181.24L131.78,179.76L136.32,183.15L140.87,192.17L145.41,189.38L149.96,194.6L154.5,196.54L163.59,204.49L168.13,206.01L177.22,197.33L181.76,189.89L190.85,187.73L195.4,197.05L204.48,195.21L209.03,196.61L222.66,198.78L227.21,194.27L240.84,190.1L245.38,186.68L249.93,192.05L254.47,192.17L259.01,187.11L263.56,190.15L268.1,192.37L272.65,196.85L277.19,191.1L281.73,189.91L290.82,194.53L295.37,193.19L299.91,191.14L304.45,191.06L309,183.41L313.54,180.65L318.09,184.27L322.63,185.27L327.18,182.26L331.72,184.27L336.26,181.69L340.81,182.22L345.35,175.83L349.9,177.93L358.98,187.31L363.53,191.59L368.07,193.73L372.62,189.48L377.16,184.71L381.7,182.48L386.25,179.25L390.79,182.81L395.34,184.63L399.88,181.6L408.97,194.42L413.51,190.91L418.06,183.07L422.6,186.16L431.69,179.24L436.23,180.69L440.78,180.16L445.32,181.63L449.87,182.57L454.41,191.66" style="vector-effect: none; fill: none; stroke: rgb(183, 86, 135); stroke-opacity: 1; stroke-width: 6px; opacity: 1;"/></g><g class="points"/><g class="text"/></g><g class="trace scatter trace757a79" style="stroke-miterlimit: 2; opacity: 0.1;"><g class="fills"/><g class="errorbars"/><g class="lines"><path class="js-line" d="M0,164.7L9.09,164.72L13.63,161.11L18.18,164.43L22.72,164.07L31.81,161.87L36.35,145.4L40.9,109.44L45.44,111.9L49.99,108.81L54.53,75.78L59.07,46.2L63.62,39.54L68.16,37.2L72.71,26.77L77.25,25.59L81.79,17.74L90.88,21.35L95.43,26.02L99.97,27.73L104.51,23.78L109.06,28.24L113.6,28.06L118.15,27.65L122.69,24.03L127.23,24.91L131.78,23.33L140.87,20.16L145.41,18.62L149.96,19.85L154.5,25.19L159.04,27.15L163.59,32.9L168.13,36.19L172.68,36.17L177.22,30.73L181.76,32.62L186.31,27.91L190.85,27.95L199.94,25.83L204.48,28.57L209.03,28.13L213.57,21.54L218.12,20.78L222.66,24.08L227.21,26.49L231.75,27.05L236.29,26.68L240.84,28.56L245.38,31.14L249.93,36.75L259.01,36.09L263.56,39.59L268.1,37.31L272.65,36.76L277.19,34.09L281.73,39.75L286.28,36.32L290.82,40.07L304.45,27.93L309,29.8L318.09,27.93L322.63,23.55L331.72,18.44L336.26,20.81L340.81,22.18L345.35,17.27L349.9,11.4L354.44,12.97L363.53,12.89L368.07,16.5L377.16,14.48L381.7,13.66L390.79,15.11L395.34,14.45L404.42,17.76L408.97,19.19L413.51,20.72L418.06,23.91L427.15,25.75L431.69,23.26L436.23,30.35L440.78,32.9L445.32,35.31L449.87,33.47L454.41,35.63" style="vector-effect: none; fill: none; stroke: rgb(183, 86, 135); stroke-opacity: 1; stroke-width: 6px; opacity: 1;"/></g><g class="points"/><g class="text"/></g><g class="trace scatter trace9ef785" style="stroke-miterlimit: 2; opacity: 0.1;"><g class="fills"/><g class="errorbars"/><g class="lines"><path class="js-line" d="M0,165.73L13.63,166.27L18.18,164.23L22.72,163.95L27.26,167.33L31.81,168.9L36.35,167.52L40.9,166.26L45.44,166.75L49.99,168.09L54.53,167.35L59.07,161.22L63.62,158.2L72.71,114.59L77.25,95.13L81.79,77.48L86.34,66.82L90.88,55.77L95.43,50.95L99.97,48.97L104.51,44.62L113.6,46.92L118.15,45.41L122.69,45.69L127.23,49.1L131.78,53.09L136.32,54.59L140.87,47.67L145.41,49.15L159.04,42.82L163.59,43.11L168.13,42.02L172.68,43.36L177.22,43.15L181.76,44.77L186.31,47.13L190.85,46.25L195.4,42.64L199.94,45.83L204.48,50.97L209.03,50.97L218.12,40.53L222.66,41.54L227.21,41.61L231.75,43.77L240.84,43.4L245.38,45.79L263.56,45.07L268.1,43.55L277.19,46.51L281.73,50.66L286.28,47.99L290.82,41.13L295.37,43.58L299.91,39.46L304.45,41.14L309,44.52L322.63,40.3L327.18,42.73L336.26,40.9L340.81,40.66L345.35,43.27L349.9,41.17L354.44,42.97L358.98,42.07L368.07,42.14L372.62,42.97L377.16,46.94L381.7,43.67L386.25,41.87L390.79,46.98L395.34,43.89L399.88,42.96L404.42,43.99L408.97,46.87L418.06,47.41L422.6,42.14L427.15,42.46L431.69,39.53L436.23,38.39L440.78,40.21L445.32,33.03L449.87,31.61L454.41,27.47" style="vector-effect: none; fill: none; stroke: rgb(183, 86, 135); stroke-opacity: 1; stroke-width: 6px; opacity: 1;"/></g><g class="points"/><g class="text"/></g><g class="trace scatter trace64c34c" style="stroke-miterlimit: 2; opacity: 0.1;"><g class="fills"/><g class="errorbars"/><g class="lines"><path class="js-line" d="M0,164.97L13.63,163.93L18.18,160.95L27.26,158.57L31.81,160.35L36.35,158.56L40.9,159.35L49.99,157.45L54.53,150.28L59.07,155.46L63.62,154.95L72.71,144.19L77.25,136.87L81.79,139.35L86.34,120.89L90.88,112.02L95.43,94.41L99.97,87.91L104.51,70.45L109.06,52.89L113.6,57.33L122.69,45.56L127.23,44.1L131.78,43.34L136.32,39.18L140.87,43.86L145.41,45.47L149.96,41.18L154.5,42.7L159.04,44.86L163.59,45.33L172.68,51.02L177.22,47.44L181.76,46.32L186.31,42.47L199.94,42.32L204.48,46.27L209.03,46.61L213.57,44.51L218.12,45.35L222.66,48.13L227.21,46.2L231.75,47.69L236.29,46.91L240.84,48.17L245.38,42.9L249.93,42.93L254.47,46.56L259.01,44.82L268.1,39.4L272.65,38.65L281.73,37.05L286.28,29.35L290.82,30.31L295.37,33.37L299.91,32.58L304.45,33.48L309,38.31L313.54,37.53L318.09,40.08L322.63,34.7L327.18,33.35L331.72,37.75L336.26,36.67L340.81,37.26L345.35,33.84L349.9,35.09L354.44,33.52L358.98,34.77L363.53,35.5L368.07,42.18L372.62,43.61L377.16,41.07L399.88,30.7L404.42,31.04L408.97,35.18L413.51,33.36L427.15,43.24L431.69,42.19L440.78,46.65L445.32,44.24L449.87,46.32L454.41,46.53" style="vector-effect: none; fill: none; stroke: rgb(183, 86, 135); stroke-opacity: 1; stroke-width: 6px; opacity: 1;"/></g><g class="points"/><g class="text"/></g><g class="trace scatter trace58a865" style="stroke-miterlimit: 2; opacity: 0.1;"><g class="fills"/><g class="errorbars"/><g class="lines"><path class="js-line" d="M0,164.7L13.63,165.69L18.18,167.33L22.72,163.26L27.26,161.41L31.81,158.1L36.35,159.62L40.9,158.88L45.44,155.28L49.99,147.51L54.53,131.98L63.62,102.98L68.16,84.58L72.71,79.75L77.25,68.22L81.79,68.2L86.34,72.02L90.88,73.58L95.43,67.31L99.97,61.98L104.51,60.56L109.06,66.17L113.6,67.44L122.69,61.92L127.23,63.35L131.78,65.26L136.32,63.64L140.87,68.33L145.41,66.99L154.5,67.92L159.04,67.04L163.59,66.62L168.13,68.78L177.22,67.29L181.76,66.14L190.85,69.9L195.4,79.69L204.48,74.22L209.03,71.24L222.66,68.55L227.21,70.54L240.84,67.79L245.38,69.01L254.47,66.43L259.01,69.48L272.65,70.56L277.19,69.32L281.73,71.15L286.28,70.08L295.37,76.05L299.91,76.35L309,80.91L313.54,78.26L318.09,76.79L322.63,80.44L331.72,82.15L336.26,95.37L345.35,93.29L349.9,95.4L354.44,95.02L358.98,87.02L363.53,83.41L368.07,85.21L386.25,88.81L390.79,88.81L399.88,92.49L404.42,92.55L413.51,88.49L418.06,82.29L422.6,85.28L427.15,82.25L440.78,85.26L445.32,84.81L449.87,79.16L454.41,84.84" style="vector-effect: none; fill: none; stroke: rgb(183, 86, 135); stroke-opacity: 1; stroke-width: 6px; opacity: 1;"/></g><g class="points"/><g class="text"/></g><g class="trace scatter trace9c76de" style="stroke-miterlimit: 2; opacity: 0.1;"><g class="fills"/><g class="errorbars"/><g class="lines"><path class="js-line" d="M0,165.06L4.54,165.06L9.09,167.02L13.63,168.12L18.18,167.62L22.72,164.56L27.26,164.79L31.81,166.55L36.35,162.3L40.9,164.51L45.44,164.71L49.99,165.05L54.53,159.28L59.07,154.82L63.62,125.16L72.71,84.63L77.25,88.01L81.79,61L86.34,55.17L90.88,50.59L95.43,51.38L109.06,43.44L113.6,43.37L118.15,43.93L122.69,46.98L127.23,49.93L131.78,45.56L136.32,44.6L140.87,45.79L145.41,43.49L149.96,44.06L163.59,41.7L168.13,43.22L172.68,42.34L177.22,38.24L186.31,38.85L190.85,38.84L199.94,37.83L204.48,39.05L213.57,36.17L218.12,34.15L231.75,36.12L236.29,34.17L245.38,37.53L249.93,36.52L263.56,40.09L268.1,38.61L272.65,40.48L277.19,45.65L286.28,47.49L290.82,47.18L295.37,47.83L299.91,43.74L309,48.12L313.54,45.14L331.72,39.45L336.26,37.1L340.81,35.59L345.35,39.46L349.9,35.77L354.44,37.16L358.98,38.73L363.53,37.88L368.07,36.31L372.62,38.49L377.16,39.56L381.7,38.6L386.25,39.85L390.79,36.53L399.88,45.15L404.42,43.48L408.97,41.01L413.51,43.22L418.06,33.53L422.6,34.93L427.15,29.82L431.69,36.24L436.23,26.71L440.78,29.91L445.32,29.31L449.87,25.5L454.41,22.29" style="vector-effect: none; fill: none; stroke: rgb(183, 86, 135); stroke-opacity: 1; stroke-width: 6px; opacity: 1;"/></g><g class="points"/><g class="text"/></g><g class="trace scatter trace027e3f" style="stroke-miterlimit: 2; opacity: 0.1;"><g class="fills"/><g class="errorbars"/><g class="lines"><path class="js-line" d="M0,165.02L9.09,164.93L13.63,163.4L18.18,166.12L22.72,164.29L40.9,167.28L45.44,170.29L49.99,170.67L54.53,165.19L63.62,169L68.16,165.42L72.71,160.87L77.25,158.91L81.79,163.76L86.34,165.05L90.88,164.26L95.43,158.98L99.97,163.88L104.51,165.86L109.06,167.66L113.6,166.48L122.69,144.25L127.23,138.17L131.78,143.94L136.32,134.17L140.87,135.16L145.41,122.21L149.96,102.61L154.5,94.33L163.59,65.76L168.13,68.95L172.68,57.18L177.22,55.9L181.76,49.55L186.31,47.84L190.85,42.44L195.4,48.03L199.94,50.99L204.48,49.64L209.03,51.16L213.57,50.38L218.12,54.49L222.66,52.73L231.75,52.25L236.29,54.33L240.84,51.89L245.38,54.72L249.93,53.98L254.47,55.89L263.56,51L268.1,56.32L272.65,57.5L277.19,56.46L281.73,53.55L286.28,52.73L290.82,51.87L295.37,48.28L304.45,50.59L309,49.28L318.09,50.29L322.63,50.63L327.18,53.28L331.72,52.05L336.26,49.76L340.81,53.16L349.9,52.46L354.44,53.08L363.53,60.71L368.07,63.34L377.16,50.25L381.7,48.01L390.79,47.4L395.34,45.42L399.88,42.67L404.42,44.32L408.97,47.95L413.51,42.41L418.06,46.07L422.6,37.46L427.15,35.51L431.69,31.64L436.23,30.61L440.78,31.13L445.32,29.57L449.87,25.64L454.41,23.47" style="vector-effect: none; fill: none; stroke: rgb(183, 86, 135); stroke-opacity: 1; stroke-width: 6px; opacity: 1;"/></g><g class="points"/><g class="text"/></g><g class="trace scatter trace719a30" style="stroke-miterlimit: 2; opacity: 0.1;"><g class="fills"/><g class="errorbars"/><g class="lines"><path class="js-line" d="M0,164.62L13.63,164.56L18.18,163.93L36.35,157.55L40.9,157.95L45.44,155.04L49.99,155.87L54.53,156.83L59.07,155.15L72.71,164.06L77.25,160.37L86.34,159.92L90.88,163.99L99.97,160.97L104.51,156.07L113.6,155.34L118.15,156.28L127.23,153.12L131.78,156.04L136.32,156.38L140.87,154.91L145.41,158.82L149.96,159.53L159.04,155.45L163.59,150.7L168.13,147.5L172.68,148.46L177.22,149.54L181.76,139.19L186.31,140.35L190.85,138.9L199.94,139.16L204.48,144.42L218.12,144.32L222.66,143.19L227.21,134.81L231.75,135L236.29,136.25L240.84,141.42L245.38,143.56L249.93,140.64L254.47,138.14L259.01,132.53L268.1,117.21L272.65,113.81L281.73,119.84L286.28,115.95L290.82,112.65L295.37,113.93L299.91,112.48L304.45,107.88L309,106.29L313.54,106.81L322.63,106.25L327.18,111.98L336.26,112.41L340.81,111.08L345.35,128.01L349.9,120.92L354.44,119.71L358.98,125.67L363.53,115.3L368.07,117.77L372.62,106.51L377.16,106.35L386.25,106.14L390.79,108.83L395.34,119.61L399.88,113.24L404.42,101.87L408.97,97.65L413.51,94.37L418.06,96.21L422.6,99L427.15,97.35L431.69,95.81L436.23,98.96L440.78,100.47L445.32,105.29L449.87,103.75L454.41,96.21" style="vector-effect: none; fill: none; stroke: rgb(183, 86, 135); stroke-opacity: 1; stroke-width: 6px; opacity: 1;"/></g><g class="points"/><g class="text"/></g><g class="trace scatter traceb07742" style="stroke-miterlimit: 2; opacity: 0.1;"><g class="fills"/><g class="errorbars"/><g class="lines"><path class="js-line" d="M0,165.47L9.09,165.96L13.63,164.24L22.72,169.74L27.26,168.7L31.81,167.84L36.35,165.43L40.9,165.08L45.44,160.25L49.99,156.56L54.53,158.45L59.07,156.9L63.62,159.13L68.16,156.23L72.71,156.43L77.25,157.59L81.79,153.54L86.34,150.33L90.88,150.73L99.97,142.08L104.51,144.64L109.06,138.84L113.6,137.15L118.15,138.25L122.69,135.06L127.23,110.23L131.78,122.98L136.32,117.47L140.87,101.83L145.41,91.72L149.96,65.84L154.5,61.52L159.04,65.41L168.13,51.93L172.68,50.18L181.76,48.16L186.31,55.53L190.85,50.32L195.4,49.55L199.94,48.15L204.48,49.45L213.57,49.66L218.12,50.88L222.66,53.86L227.21,54.45L231.75,59.79L236.29,55.3L249.93,52.89L254.47,55.12L268.1,52.76L272.65,50.59L290.82,44.98L295.37,45.92L299.91,43.3L304.45,45.5L309,44.44L313.54,45.16L318.09,39.31L322.63,40.23L340.81,30.85L345.35,28.03L349.9,25.74L354.44,29.52L358.98,30.87L363.53,28.6L368.07,28.64L372.62,33.29L377.16,31.36L381.7,31.19L386.25,25.81L390.79,28.18L395.34,25.9L399.88,26.05L408.97,29.31L413.51,26.79L427.15,22.9L431.69,19.46L436.23,19.23L440.78,25.15L445.32,24.71L449.87,29.34L454.41,29.97" style="vector-effect: none; fill: none; stroke: rgb(183, 86, 135); stroke-opacity: 1; stroke-width: 6px; opacity: 1;"/></g><g class="points"/><g class="text"/></g><g class="trace scatter trace0004ce" style="stroke-miterlimit: 2; opacity: 0.1;"><g class="fills"/><g class="errorbars"/><g class="lines"><path class="js-line" d="M0,164.28L9.09,164.14L13.63,167.24L18.18,166.36L22.72,162.2L27.26,159.7L31.81,155.02L36.35,150.09L40.9,149.88L45.44,152.31L49.99,138.46L54.53,125.34L59.07,102.19L63.62,86.7L68.16,58.66L72.71,44.97L77.25,44.97L95.43,49.07L99.97,48.22L109.06,46.25L113.6,49.86L122.69,46.54L127.23,44.59L131.78,46.59L136.32,46.21L154.5,48.85L159.04,47.42L163.59,49.68L168.13,47.85L177.22,43L181.76,41.09L186.31,40.8L190.85,43.36L195.4,43.77L199.94,47.35L213.57,42.13L218.12,43.58L222.66,42.25L227.21,37.02L231.75,33.79L236.29,33.48L245.38,36.78L249.93,31.29L254.47,34.89L259.01,36.36L268.1,37.8L272.65,33.6L277.19,36.25L281.73,35.1L286.28,38.03L290.82,36.16L295.37,38.74L299.91,38.33L313.54,44.94L318.09,44.44L322.63,39.69L327.18,38.78L336.26,40.71L340.81,38.27L345.35,38.28L349.9,39.81L354.44,38.06L358.98,34.61L363.53,36.67L368.07,33.88L377.16,41.14L381.7,42.06L386.25,38.33L390.79,38.47L395.34,34.68L399.88,36.88L404.42,31.5L408.97,32.83L422.6,31.65L427.15,32.82L431.69,30.94L436.23,32.14L440.78,34.2L445.32,32.99L454.41,34.86" style="vector-effect: none; fill: none; stroke: rgb(183, 86, 135); stroke-opacity: 1; stroke-width: 6px; opacity: 1;"/></g><g class="points"/><g class="text"/></g><g class="trace scatter tracebe0b0e" style="stroke-miterlimit: 2; opacity: 0.1;"><g class="fills"/><g class="errorbars"/><g class="lines"><path class="js-line" d="M0,164.83L18.18,164.88L22.72,160.71L36.35,138.32L40.9,104.61L45.44,83.73L49.99,73.92L54.53,67.95L59.07,56.3L63.62,47.12L68.16,45.85L77.25,46.95L81.79,44.32L90.88,41.46L95.43,38.78L99.97,36.86L104.51,39.23L113.6,44.48L118.15,41.56L122.69,43.21L127.23,42.03L131.78,41.3L136.32,43.75L145.41,42.57L149.96,40.98L159.04,41.85L163.59,45.13L168.13,44.84L172.68,47.4L177.22,47.4L181.76,45.06L186.31,44.17L190.85,45.74L204.48,45.78L209.03,49.73L213.57,52.08L218.12,51.13L227.21,43.75L231.75,44.22L249.93,45.74L254.47,42.37L259.01,44.36L263.56,43.51L268.1,38.8L272.65,36.82L277.19,39.4L281.73,39.23L286.28,38.03L290.82,38.46L295.37,40.51L299.91,39.67L304.45,39.65L309,41.87L313.54,49.43L318.09,45.88L322.63,45.81L327.18,43.23L331.72,43L336.26,39.81L340.81,39.01L345.35,40.2L349.9,43.06L354.44,42.91L358.98,43.23L363.53,40.06L368.07,38.06L372.62,33.15L377.16,33.95L381.7,32.3L390.79,31.83L395.34,33.28L404.42,40.35L408.97,35.74L413.51,37.79L418.06,34.31L422.6,32.67L427.15,32.91L431.69,30.7L436.23,32.08L440.78,29.4L445.32,28.55L454.41,33.48" style="vector-effect: none; fill: none; stroke: rgb(183, 86, 135); stroke-opacity: 1; stroke-width: 6px; opacity: 1;"/></g><g class="points"/><g class="text"/></g></g></g></g><g class="zerolinelayer-above"/><path class="xlines-above crisp" d="M0,0" style="fill: none;"/><path class="ylines-above crisp" d="M0,0" style="fill: none;"/><g class="overlines-above"/><g class="xaxislayer-above"><g class="xtick"><text text-anchor="middle" x="0" y="333" transform="translate(80,0)" style="font-family: 'Open Sans', verdana, arial, sans-serif; font-size: 12px; fill: rgb(42, 63, 95); fill-opacity: 1; white-space: pre;">0</text></g><g class="xtick"><text text-anchor="middle" x="0" y="333" style="font-family: 'Open Sans', verdana, arial, sans-serif; font-size: 12px; fill: rgb(42, 63, 95); fill-opacity: 1; white-space: pre;" transform="translate(193.6,0)">50M</text></g><g class="xtick"><text text-anchor="middle" x="0" y="333" style="font-family: 'Open Sans', verdana, arial, sans-serif; font-size: 12px; fill: rgb(42, 63, 95); fill-opacity: 1; white-space: pre;" transform="translate(307.21000000000004,0)">100M</text></g><g class="xtick"><text text-anchor="middle" x="0" y="333" style="font-family: 'Open Sans', verdana, arial, sans-serif; font-size: 12px; fill: rgb(42, 63, 95); fill-opacity: 1; white-space: pre;" transform="translate(420.81,0)">150M</text></g><g class="xtick"><text text-anchor="middle" x="0" y="333" style="font-family: 'Open Sans', verdana, arial, sans-serif; font-size: 12px; fill: rgb(42, 63, 95); fill-opacity: 1; white-space: pre;" transform="translate(534.4100000000001,0)">200M</text></g></g><g class="yaxislayer-above"><g class="ytick"><text text-anchor="end" x="79" y="4.199999999999999" transform="translate(0,315.94)" style="font-family: 'Open Sans', verdana, arial, sans-serif; font-size: 12px; fill: rgb(42, 63, 95); fill-opacity: 1; white-space: pre;">−5</text></g><g class="ytick"><text text-anchor="end" x="79" y="4.199999999999999" style="font-family: 'Open Sans', verdana, arial, sans-serif; font-size: 12px; fill: rgb(42, 63, 95); fill-opacity: 1; white-space: pre;" transform="translate(0,264.83000000000004)">0</text></g><g class="ytick"><text text-anchor="end" x="79" y="4.199999999999999" style="font-family: 'Open Sans', verdana, arial, sans-serif; font-size: 12px; fill: rgb(42, 63, 95); fill-opacity: 1; white-space: pre;" transform="translate(0,213.70999999999998)">5</text></g><g class="ytick"><text text-anchor="end" x="79" y="4.199999999999999" style="font-family: 'Open Sans', verdana, arial, sans-serif; font-size: 12px; fill: rgb(42, 63, 95); fill-opacity: 1; white-space: pre;" transform="translate(0,162.59)">10</text></g><g class="ytick"><text text-anchor="end" x="79" y="4.199999999999999" style="font-family: 'Open Sans', verdana, arial, sans-serif; font-size: 12px; fill: rgb(42, 63, 95); fill-opacity: 1; white-space: pre;" transform="translate(0,111.47)">15</text></g></g><g class="overaxes-above"/></g><g class="subplot x2y2"><g class="layer-subplot"><g class="shapelayer"/><g class="imagelayer"/></g><g class="minor-gridlayer"><g class="x2"/><g class="y2"/></g><g class="gridlayer"><g class="x2"/><g class="y2"/></g><g class="zerolinelayer"><path class="x2zl zl crisp" transform="translate(539.81,0)" d="M0,100v220" style="stroke: rgb(235, 240, 248); stroke-opacity: 1; stroke-width: 2px;"/></g><g class="layer-between"><g class="shapelayer"/><g class="imagelayer"/></g><path class="xlines-below"/><path class="ylines-below"/><g class="overlines-below"/><g class="xaxislayer-below"/><g class="yaxislayer-below"/><g class="overaxes-below"/><g class="overplot"><g class="x2y2" transform="translate(539.81,100)" clip-path="url(#clipb932ccx2y2plot)"><g class="barlayer mlayer"><g class="trace bars" style="opacity: 1;"><g class="points"><g class="point"><path d="M0,204.7V186.3H9.52V204.7Z" style="vector-effect: none; opacity: 1; stroke-width: 0px; fill: rgb(153, 153, 153); fill-opacity: 1;"/></g><g class="point"><path d="M0,184.25V165.85H4.76V184.25Z" style="vector-effect: none; opacity: 1; stroke-width: 0px; fill: rgb(153, 153, 153); fill-opacity: 1;"/></g><g class="point"><path d="M0,163.8V145.4H4.76V163.8Z" style="vector-effect: none; opacity: 1; stroke-width: 0px; fill: rgb(153, 153, 153); fill-opacity: 1;"/></g><g class="point"><path d="M0,0Z" style="vector-effect: none; opacity: 1; stroke-width: 0px; fill: rgb(153, 153, 153); fill-opacity: 1;"/></g><g class="point"><path d="M0,0Z" style="vector-effect: none; opacity: 1; stroke-width: 0px; fill: rgb(153, 153, 153); fill-opacity: 1;"/></g><g class="point"><path d="M0,102.46V84.06H19.05V102.46Z" style="vector-effect: none; opacity: 1; stroke-width: 0px; fill: rgb(153, 153, 153); fill-opacity: 1;"/></g><g class="point"><path d="M0,82.02V63.61H9.52V82.02Z" style="vector-effect: none; opacity: 1; stroke-width: 0px; fill: rgb(153, 153, 153); fill-opacity: 1;"/></g><g class="point"><path d="M0,61.57V43.17H19.05V61.57Z" style="vector-effect: none; opacity: 1; stroke-width: 0px; fill: rgb(153, 153, 153); fill-opacity: 1;"/></g><g class="point"><path d="M0,41.12V22.72H76.18V41.12Z" style="vector-effect: none; opacity: 1; stroke-width: 0px; fill: rgb(153, 153, 153); fill-opacity: 1;"/></g><g class="point"><path d="M0,20.68V2.27H9.52V20.68Z" style="vector-effect: none; opacity: 1; stroke-width: 0px; fill: rgb(153, 153, 153); fill-opacity: 1;"/></g></g></g></g></g></g><g class="zerolinelayer-above"/><path class="xlines-above crisp" d="M0,0" style="fill: none;"/><path class="ylines-above crisp" d="M0,0" style="fill: none;"/><g class="overlines-above"/><g class="xaxislayer-above"/><g class="yaxislayer-above"/><g class="overaxes-above"/></g></g><g class="polarlayer"/><g class="smithlayer"/><g class="ternarylayer"/><g class="geolayer"/><g class="funnelarealayer"/><g class="pielayer"/><g class="iciclelayer"/><g class="treemaplayer"/><g class="sunburstlayer"/><g class="glimages"/><defs id="topdefs-b932cc"><g class="clips"/></defs><g class="layer-above"><g class="imagelayer"/><g class="shapelayer"/></g><g class="infolayer"><g class="g-gtitle"/><g class="g-xtitle"><text class="xtitle" x="307.20500000000004" y="361.3" text-anchor="middle" style="opacity: 1; font-family: 'Open Sans', verdana, arial, sans-serif; font-size: 14px; fill: rgb(42, 63, 95); fill-opacity: 1; white-space: pre;">time</text></g><g class="g-x2title"/><g class="g-ytitle"><text class="ytitle" transform="rotate(-90,45.865625,210)" x="45.865625" y="210" text-anchor="middle" style="opacity: 1; font-family: 'Open Sans', verdana, arial, sans-serif; font-size: 14px; fill: rgb(42, 63, 95); fill-opacity: 1; white-space: pre;">mean gamma</text></g><g class="g-y2title"/></g></svg>