<svg class="main-svg" xmlns="http://www.w3.org/2000/svg" xmlns:xlink="http://www.w3.org/1999/xlink" width="700" height="400" style="" viewBox="0 0 700 400"><rect x="0" y="0" width="700" height="400" style="fill: rgb(255, 255, 255); fill-opacity: 1;"/><defs id="defs-538228"><g class="clips"><clipPath id="clip538228xyplot" class="plotclip"><rect width="452.72700000000003" height="220"/></clipPath><clipPath id="clip538228x2y2plot" class="plotclip"><rect width="79.89299999999999" height="220"/></clipPath><clipPath class="axesclip" id="clip538228x"><rect x="80" y="0" width="452.72700000000003" height="400"/></clipPath><clipPath class="axesclip" id="clip538228y"><rect x="0" y="100" width="700" height="220"/></clipPath><clipPath class="axesclip" id="clip538228xy"><rect x="80" y="100" width="452.72700000000003" height="220"/></clipPath><clipPath class="axesclip" id="clip538228y2"><rect x="0" y="100" width="700" height="220"/></clipPath><clipPath class="axesclip" id="clip538228xy2"><rect x="80" y="100" width="452.72700000000003" height="220"/></clipPath><clipPath class="axesclip" id="clip538228x2"><rect x="538.107" y="0" width="79.89299999999999" height="400"/></clipPath><clipPath class="axesclip" id="clip538228x2y"><rect x="538.107" y="100" width="79.89299999999999" height="220"/></clipPath><clipPath class="axesclip" id="clip538228x2y2"><rect x="538.107" y="100" width="79.89299999999999" height="220"/></clipPath></g><g class="gradients"/><g class="patterns"/></defs><g class="bglayer"/><g class="layer-below"><g class="imagelayer"/><g class="shapelayer"/></g><g class="cartesianlayer"><g class="subplot xy"><g class="layer-subplot"><g class="shapelayer"/><g class="imagelayer"/></g><g class="minor-gridlayer"><g class="x"/><g class="y"/></g><g class="gridlayer"><g class="x"><path class="xgrid crisp" transform="translate(194.1,0)" d="M0,100v220" style="stroke: rgb(235, 240, 248); stroke-opacity: 1; stroke-width: 1px;"/><path class="xgrid crisp" transform="translate(308.41999999999996,0)" d="M0,100v220" style="stroke: rgb(235, 240, 248); stroke-opacity: 1; stroke-width: 1px;"/><path class="xgrid crisp" transform="translate(422.75,0)" d="M0,100v220" style="stroke: rgb(235, 240, 248); stroke-opacity: 1; stroke-width: 1px;"/></g><g class="y"><path class="ygrid crisp" transform="translate(0,315.94)" d="M80,0h452.72700000000003" style="stroke: rgb(235, 240, 248); stroke-opacity: 1; stroke-width: 1px;"/><path class="ygrid crisp" transform="translate(0,213.70999999999998)" d="M80,0h452.72700000000003" style="stroke: rgb(235, 240, 248); stroke-opacity: 1; stroke-width: 1px;"/><path class="ygrid crisp" transform="translate(0,162.59)" d="M80,0h452.72700000000003" style="stroke: rgb(235, 240, 248); stroke-opacity: 1; stroke-width: 1px;"/><path class="ygrid crisp" transform="translate(0,111.47)" d="M80,0h452.72700000000003" style="stroke: rgb(235, 240, 248); stroke-opacity: 1; stroke-width: 1px;"/></g></g><g class="zerolinelayer"><path class="yzl zl crisp" transform="translate(0,264.83000000000004)" d="M80,0h452.72700000000003" style="stroke: rgb(235, 240, 248); stroke-opacity: 1; stroke-width: 2px;"/></g><g class="layer-between"><g class="shapelayer"/><g class="imagelayer"/></g><path class="xlines-below"/><path class="ylines-below"/><g class="overlines-below"/><g class="xaxislayer-below"/><g class="yaxislayer-below"/><g class="overaxes-below"/><g class="overplot"><g class="xy" transform="translate(80,100)" clip-path="url(#clip538228xyplot)"><g class="scatterlayer mlayer"><g class="trace scatter trace9b64ee" style="stroke-miterlimit: 2; opacity: 0.1;"><g class="fills"/><g class="errorbars"/><g class="lines"><path class="js-line" d="M0,164.15L13.72,163.13L18.29,165.8L22.87,168.18L27.44,166.88L32.01,171.76L36.58,172.56L50.3,169.03L54.88,166.66L59.45,171.07L64.02,172.82L73.17,168.05L77.74,167.75L82.31,164.43L86.89,163.54L91.46,162.46L96.03,158.07L100.61,158.75L105.18,140.83L114.33,76.27L118.9,68.55L128.04,54.93L132.62,49.3L137.19,47.57L141.76,43.99L146.34,46.43L150.91,43.82L155.48,47.31L160.06,44.24L164.63,42.97L169.2,45.12L173.77,43.78L178.35,44.48L182.92,44.17L187.49,45.81L205.79,42.29L210.36,43.8L219.5,46.42L224.08,42.47L228.65,40.07L233.22,39.56L237.8,40.05L242.37,37.1L256.09,37.14L260.66,38.81L265.23,40.42L269.81,38.96L274.38,40.08L278.95,38.3L283.53,35.25L288.1,38.72L292.67,40.7L297.25,40.07L306.39,45.84L310.96,45.92L320.11,40.23L324.68,37.96L333.83,36.63L338.4,42.08L342.98,38.42L347.55,37.5L352.12,36.73L356.69,38.07L361.27,37.73L365.84,34.12L379.56,38.15L384.13,38.08L393.28,24.01L397.85,23.53L402.42,26.37L407,20.6L416.14,11.61L420.72,14.81L429.86,15.56L434.44,14.97L448.15,15.96L452.73,11.75" style="vector-effect: none; fill: none; stroke: rgb(183, 86, 135); stroke-opacity: 1; stroke-width: 6px; opacity: 1;"/></g><g class="points"/><g class="text"/></g><g class="trace scatter traced6f30a" style="stroke-miterlimit: 2; opacity: 0.1;"><g class="fills"/><g class="errorbars"/><g class="lines"><path class="js-line" d="M0,165.07L4.57,166.2L9.15,164.44L13.72,166.09L18.29,165.44L22.87,164.56L27.44,165.44L32.01,166.29L36.58,165.12L45.73,163.91L50.3,157.74L64.02,156.4L68.6,153.92L73.17,148.98L77.74,137.74L86.89,83.1L91.46,64.45L96.03,64.87L100.61,55.77L109.75,41.9L114.33,40.34L132.62,41.88L137.19,38.61L141.76,41.76L146.34,38.01L155.48,34.36L160.06,37.09L169.2,37.97L173.77,35.14L178.35,30.99L182.92,29.93L187.49,28.38L192.07,28.7L196.64,26.97L201.21,30.57L205.79,31.19L210.36,35.39L219.5,27.91L224.08,29.61L228.65,30.24L233.22,28.22L237.8,30.6L242.37,30.54L251.52,26.04L256.09,27.07L260.66,28.77L265.23,28.08L269.81,33.39L274.38,29.48L278.95,24.8L283.53,26.26L288.1,28.81L292.67,28.83L297.25,27L301.82,35.24L310.96,29.31L315.54,33.21L324.68,28.01L329.26,24.09L333.83,20.16L338.4,18.24L356.69,21.1L361.27,18.39L365.84,20.41L370.41,20.78L374.99,25.2L379.56,24.63L384.13,20.09L388.71,21.43L393.28,18.2L397.85,18.04L402.42,13.83L407,13.85L420.72,20.81L425.29,26.62L429.86,23.15L434.44,23.66L439.01,22.1L443.58,26.39L452.73,29.88" style="vector-effect: none; fill: none; stroke: rgb(183, 86, 135); stroke-opacity: 1; stroke-width: 6px; opacity: 1;"/></g><g class="points"/><g class="text"/></g><g class="trace scatter tracea137fd" style="stroke-miterlimit: 2; opacity: 0.1;"><g class="fills"/><g class="errorbars"/><g class="lines"><path class="js-line" d="M0,164.91L4.57,166.25L9.15,165.26L13.72,162.75L18.29,149.13L22.87,143.15L27.44,114.45L36.58,55.8L41.16,50.03L54.88,25.52L59.45,28.63L64.02,21.61L68.6,23.35L82.31,24.7L86.89,20.81L91.46,22.66L96.03,22.31L105.18,29.31L109.75,31.08L114.33,34.44L118.9,30.69L123.47,32.2L128.04,30.51L132.62,31.56L137.19,37.67L141.76,37.36L146.34,31.9L150.91,30.96L155.48,33.71L160.06,31.59L164.63,33.19L173.77,24.47L178.35,23.91L182.92,24.38L187.49,26.43L192.07,27.78L196.64,33.01L210.36,33.6L214.93,27.59L219.5,21.23L224.08,19.12L233.22,15.42L237.8,17.04L246.94,13.11L251.52,14.21L256.09,20.13L260.66,21.12L269.81,24.16L274.38,24L278.95,23.6L283.53,21.17L288.1,25.07L292.67,25.17L306.39,25.93L310.96,29.22L315.54,30.65L320.11,36.58L324.68,35.23L329.26,31.64L333.83,30.51L338.4,34.06L342.98,37.37L347.55,36.13L352.12,35.27L356.69,36.32L365.84,39.36L370.41,37.88L384.13,34.11L388.71,33.71L397.85,34.15L402.42,36.57L407,31.64L411.57,29.61L416.14,30.03L420.72,28.32L429.86,32.17L434.44,31.88L443.58,33.38L448.15,31.59L452.73,34.14" style="vector-effect: none; fill: none; stroke: rgb(183, 86, 135); stroke-opacity: 1; stroke-width: 6px; opacity: 1;"/></g><g class="points"/><g class="text"/></g><g class="trace scatter trace256a20" style="stroke-miterlimit: 2; opacity: 0.1;"><g class="fills"/><g class="errorbars"/><g class="lines"><path class="js-line" d="M0,164.37L9.15,161.71L13.72,162.41L18.29,164.64L22.87,164.93L36.58,158.95L41.16,158.86L45.73,160.92L50.3,154.2L54.88,151.83L59.45,144.98L64.02,146.15L68.6,143.39L77.74,157L82.31,152.63L86.89,151.67L91.46,144.49L96.03,144.65L100.61,137.34L109.75,140L114.33,142.39L123.47,139.91L128.04,138.93L132.62,134.25L137.19,138.06L150.91,132.09L155.48,131.79L160.06,131.38L164.63,118.39L169.2,116.98L173.77,108.28L178.35,101.51L182.92,89.23L187.49,77.04L192.07,69.14L201.21,55.63L205.79,53.94L210.36,48.56L214.93,46.79L219.5,40.03L224.08,36.86L237.8,40.01L242.37,40.54L256.09,38.51L260.66,37.44L265.23,34.45L269.81,34.05L274.38,33.09L278.95,35.29L288.1,30.6L292.67,24.5L297.25,23.96L301.82,27.51L306.39,24.24L310.96,25.38L315.54,27.89L320.11,28.49L324.68,34.66L329.26,36.84L342.98,39.36L347.55,40.79L356.69,33.26L361.27,34.78L365.84,38.15L370.41,35.05L374.99,30.32L379.56,32.06L384.13,33.76L388.71,33.71L393.28,33.74L397.85,35.39L407,29.78L411.57,31.83L416.14,33.37L420.72,39.88L425.29,34.17L429.86,35.24L434.44,37.18L439.01,36.45L443.58,33.66L448.15,37.02L452.73,38.99" style="vector-effect: none; fill: none; stroke: rgb(183, 86, 135); stroke-opacity: 1; stroke-width: 6px; opacity: 1;"/></g><g class="points"/><g class="text"/></g><g class="trace scatter trace87b156" style="stroke-miterlimit: 2; opacity: 0.1;"><g class="fills"/><g class="errorbars"/><g class="lines"><path class="js-line" d="M0,165.36L4.57,164.36L9.15,165.19L22.87,169.26L27.44,168.74L32.01,168.61L36.58,166.18L50.3,178.34L54.88,174.41L59.45,172.24L64.02,171.74L73.17,166.12L77.74,168.43L82.31,167.83L86.89,178.64L91.46,175.63L96.03,177.93L100.61,185.43L105.18,189.26L109.75,191.53L114.33,184.23L118.9,182.25L123.47,182.82L128.04,186.93L132.62,185.17L141.76,181.94L146.34,180.15L155.48,190.06L160.06,192.26L164.63,196.72L169.2,193.08L178.35,191.42L182.92,187.46L187.49,191.19L192.07,197.35L196.64,192.66L201.21,197.77L214.93,195.99L219.5,187.19L228.65,188.29L233.22,184.3L237.8,177.82L242.37,177.27L251.52,178.73L256.09,175.59L260.66,174.62L265.23,180.09L269.81,183.65L274.38,181.86L288.1,175.11L292.67,169.33L297.25,169.37L301.82,171.27L306.39,171.91L310.96,174.14L315.54,177.22L320.11,175.77L324.68,180.86L329.26,180.9L333.83,178.32L338.4,184.1L347.55,179.69L352.12,176.33L361.27,181.16L365.84,176.43L370.41,176.4L374.99,171.7L388.71,165.09L393.28,166.9L397.85,166.88L402.42,170.3L407,170.55L411.57,167.01L416.14,177.5L420.72,176.58L425.29,176.7L429.86,178.81L434.44,180.42L439.01,184.82L443.58,186.58L448.15,186.54L452.73,190.03" style="vector-effect: none; fill: none; stroke: rgb(183, 86, 135); stroke-opacity: 1; stroke-width: 6px; opacity: 1;"/></g><g class="points"/><g class="text"/></g><g class="trace scatter traceb0f548" style="stroke-miterlimit: 2; opacity: 0.1;"><g class="fills"/><g class="errorbars"/><g class="lines"><path class="js-line" d="M0,164.96L13.72,165.82L18.29,168.92L32.01,169.77L36.58,168.53L41.16,171.01L45.73,176.78L50.3,173.95L54.88,173.81L59.45,174.87L64.02,171.31L73.17,178.94L77.74,178.47L82.31,174.62L86.89,173.01L91.46,177.19L96.03,178.8L100.61,183.28L105.18,184.78L109.75,180.73L114.33,179.62L118.9,176.23L123.47,180.55L128.04,181.18L132.62,175.21L137.19,175.52L141.76,181.32L146.34,184.49L150.91,181.67L160.06,180.22L164.63,182.57L169.2,183.29L173.77,179.47L192.07,166.7L196.64,172.83L201.21,180.91L205.79,177.59L210.36,168.09L214.93,167.84L219.5,162.02L224.08,161.57L233.22,166.97L237.8,169.81L242.37,171.37L246.94,170.8L251.52,171.48L256.09,168.25L265.23,185.76L269.81,179.27L274.38,171.75L278.95,133.67L283.53,127.7L288.1,104.63L297.25,75.11L301.82,60.02L310.96,39.8L315.54,45.11L320.11,30.47L324.68,29.04L329.26,20.28L333.83,19.24L342.98,17L347.55,18.52L352.12,22.77L356.69,19.15L370.41,19.33L374.99,16.13L384.13,15.12L388.71,11.79L393.28,11.4L397.85,14.53L402.42,18.12L407,18.75L411.57,20.11L416.14,15.45L425.29,17.87L429.86,19.67L434.44,25L439.01,26.88L443.58,30.35L448.15,26.2L452.73,31.17" style="vector-effect: none; fill: none; stroke: rgb(183, 86, 135); stroke-opacity: 1; stroke-width: 6px; opacity: 1;"/></g><g class="points"/><g class="text"/></g><g class="trace scatter tracea8caf4" style="stroke-miterlimit: 2; opacity: 0.1;"><g class="fills"/><g class="errorbars"/><g class="lines"><path class="js-line" d="M0,165.32L4.57,163.63L9.15,163.56L13.72,159.21L18.29,159.16L22.87,159.8L27.44,157.83L36.58,146.19L41.16,145.89L45.73,140.66L50.3,138.81L54.88,139.12L59.45,141.6L64.02,141.79L68.6,144.76L73.17,148.04L77.74,147.35L82.31,146.53L86.89,141.21L100.61,143.32L105.18,147.48L109.75,139.97L114.33,146.56L118.9,142.21L123.47,144.58L128.04,134.86L132.62,132.41L137.19,128.88L141.76,119.51L150.91,101.56L155.48,79.29L160.06,70.8L164.63,73.39L169.2,55.01L173.77,56.02L178.35,43.02L182.92,47.43L187.49,40.61L192.07,36.84L196.64,29.85L201.21,26.76L205.79,25.91L210.36,23.38L219.5,25.09L224.08,21.75L233.22,24.74L237.8,30.92L242.37,28.39L246.94,28.05L260.66,31.02L265.23,30.36L269.81,29.01L274.38,31.89L278.95,33.32L283.53,31.89L288.1,28.38L292.67,28.85L301.82,29.56L306.39,25.84L310.96,27.26L315.54,24.99L320.11,23.05L324.68,23.25L333.83,20.87L338.4,16.63L342.98,19.3L347.55,19.02L361.27,14.53L365.84,16.03L370.41,11.81L374.99,13.19L379.56,14.99L384.13,13.95L388.71,17.54L393.28,19.08L397.85,18.39L402.42,13.8L407,11L411.57,13.8L416.14,19.24L420.72,18.02L425.29,19.84L429.86,19.67L434.44,19.6L439.01,16.78L448.15,15.19L452.73,15.55" style="vector-effect: none; fill: none; stroke: rgb(183, 86, 135); stroke-opacity: 1; stroke-width: 6px; opacity: 1;"/></g><g class="points"/><g class="text"/></g><g class="trace scatter traceb33b52" style="stroke-miterlimit: 2; opacity: 0.1;"><g class="fills"/><g class="errorbars"/><g class="lines"><path class="js-line" d="M0,165.05L9.15,163.91L13.72,163.17L32.01,168.05L36.58,165.88L41.16,167.37L45.73,166.29L50.3,163.89L54.88,163.65L59.45,167.14L64.02,174.53L68.6,167.53L73.17,169.23L77.74,169.19L82.31,171.49L86.89,174.13L91.46,170.57L96.03,173.59L100.61,172.84L105.18,170.13L109.75,171.05L114.33,169L118.9,170.25L123.47,174.35L128.04,175.93L132.62,173.9L137.19,173.76L141.76,167.94L146.34,168.83L150.91,169.55L155.48,174.22L164.63,174.15L169.2,170.93L173.77,170.95L178.35,167.47L182.92,167.56L187.49,169.16L192.07,168.53L196.64,171.11L201.21,173.59L205.79,170.7L210.36,166.8L214.93,174.3L219.5,167.66L224.08,170.4L228.65,162.57L233.22,161.55L237.8,165.86L242.37,167.39L246.94,167.96L251.52,165.71L256.09,166.31L260.66,163.5L265.23,160.22L269.81,163.27L278.95,156.19L283.53,156.84L288.1,155.31L292.67,155.85L297.25,153.73L301.82,159.3L306.39,159.73L310.96,156.08L315.54,148.97L320.11,137.39L324.68,118.67L329.26,107.16L333.83,90.93L338.4,68.91L347.55,46.56L352.12,48.36L356.69,45.31L361.27,50.05L370.41,42.46L374.99,38.59L379.56,34.05L384.13,35.54L388.71,37.04L393.28,36.16L397.85,32.97L402.42,33L411.57,32.8L416.14,28.73L420.72,34.59L425.29,33.07L429.86,33.04L434.44,36.43L443.58,34.55L448.15,36.9L452.73,38.67" style="vector-effect: none; fill: none; stroke: rgb(183, 86, 135); stroke-opacity: 1; stroke-width: 6px; opacity: 1;"/></g><g class="points"/><g class="text"/></g><g class="trace scatter trace16384b" style="stroke-miterlimit: 2; opacity: 0.1;"><g class="fills"/><g class="errorbars"/><g class="lines"><path class="js-line" d="M0,164.83L13.72,170.84L18.29,172.83L22.87,173.48L27.44,170.23L36.58,173.47L41.16,171.69L45.73,170.75L50.3,172.02L59.45,165.89L64.02,168.48L68.6,170.56L73.17,168.78L77.74,171.03L82.31,166.22L96.03,166.05L100.61,169.18L109.75,169.01L114.33,176.3L118.9,176.47L123.47,180.28L128.04,185.5L132.62,186.36L137.19,188.1L141.76,187.92L146.34,196.84L150.91,199.44L155.48,209L160.06,207.57L164.63,204.26L169.2,207.72L173.77,202.02L178.35,199.37L182.92,192.68L187.49,198.48L192.07,199.37L196.64,195.39L201.21,188.37L205.79,192.88L214.93,183.45L219.5,186.88L224.08,183.96L228.65,183.49L233.22,181.58L237.8,173.72L242.37,179.33L246.94,182.28L251.52,173.67L256.09,174.3L260.66,180.81L265.23,183.52L269.81,183.01L274.38,177.56L278.95,175.82L283.53,178.49L288.1,177.8L292.67,175.36L297.25,174.76L301.82,178.86L306.39,172.46L310.96,175.38L315.54,175.37L320.11,176.98L324.68,171.08L329.26,171.12L333.83,173.83L338.4,174.39L342.98,174.4L347.55,172.83L356.69,174.79L361.27,176.96L365.84,178.92L370.41,175.8L374.99,180.17L379.56,178.47L384.13,176.32L388.71,182.98L393.28,189.09L397.85,179.61L402.42,179.24L407,181.58L416.14,167.4L420.72,166.64L429.86,164.36L434.44,169.09L448.15,164.46L452.73,169.66" style="vector-effect: none; fill: none; stroke: rgb(183, 86, 135); stroke-opacity: 1; stroke-width: 6px; opacity: 1;"/></g><g class="points"/><g class="text"/></g><g class="trace scatter tracea9d649" style="stroke-miterlimit: 2; opacity: 0.1;"><g class="fills"/><g class="errorbars"/><g class="lines"><path class="js-line" d="M0,165.63L13.72,166.36L18.29,171.48L32.01,171.95L36.58,167.17L50.3,175.79L54.88,172.66L64.02,172.87L68.6,170.31L77.74,164.72L82.31,166.38L86.89,166.85L91.46,165.06L100.61,164.05L105.18,160.58L109.75,161.24L114.33,155.99L118.9,145.91L123.47,126.82L132.62,120.92L137.19,109.78L141.76,102.38L146.34,104.29L150.91,97.2L155.48,100.94L160.06,94.09L164.63,91.18L169.2,89.57L173.77,90.52L187.49,93.01L192.07,98.73L196.64,95.89L201.21,104.04L205.79,108.29L210.36,104.91L214.93,109.05L219.5,102.12L224.08,94.22L228.65,90.25L233.22,82.7L237.8,81.62L251.52,85.65L256.09,83.56L265.23,81.62L269.81,84.53L274.38,83.22L278.95,84.54L283.53,88.22L288.1,88.04L292.67,91.07L297.25,90.65L306.39,95.41L310.96,94.94L320.11,90.5L324.68,89.14L329.26,91.72L333.83,88.65L338.4,86.74L342.98,90.55L352.12,86.24L356.69,86.71L361.27,86.13L365.84,88.39L370.41,85.97L374.99,85.7L384.13,82.6L388.71,84.39L393.28,86.43L397.85,86.2L407,86.49L411.57,87L420.72,87.55L425.29,83.23L429.86,83.55L434.44,86.74L443.58,89.74L448.15,89.12L452.73,88.05" style="vector-effect: none; fill: none; stroke: rgb(183, 86, 135); stroke-opacity: 1; stroke-width: 6px; opacity: 1;"/></g><g class="points"/><g class="text"/></g><g class="trace scatter traceab9e76" style="stroke-miterlimit: 2; opacity: 0.1;"><g class="fills"/><g class="errorbars"/><g class="lines"><path class="js-line" d="M0,164.53L13.72,164.75L18.29,166.76L27.44,167.86L32.01,172.19L54.88,172.37L59.45,173.84L64.02,173.08L68.6,170.12L73.17,170.2L77.74,167.71L82.31,165.47L86.89,167.68L91.46,164.79L96.03,164.09L109.75,169.42L114.33,173.8L123.47,168.47L128.04,166.58L132.62,171.89L137.19,165.99L141.76,168.62L146.34,164.66L150.91,162.79L155.48,164.97L160.06,168.36L164.63,175.7L169.2,179.79L173.77,179.75L182.92,171.77L187.49,169.12L205.79,165.46L210.36,164.87L228.65,160.37L233.22,164.83L237.8,167.48L242.37,168.15L246.94,166.03L251.52,169.12L256.09,166L260.66,166.22L265.23,167.63L269.81,166.32L274.38,166.63L278.95,162.71L292.67,165.41L297.25,163.58L301.82,163.15L306.39,164.68L310.96,163.5L315.54,164.55L320.11,163.18L324.68,166.99L329.26,169.12L333.83,165.12L342.98,166.99L347.55,171.7L352.12,170.12L356.69,172.73L365.84,169.86L370.41,164.51L379.56,162.63L384.13,158.56L393.28,159.3L397.85,160.42L402.42,163.93L407,164.37L411.57,162.81L416.14,168.32L420.72,168.91L425.29,164.87L429.86,156.63L434.44,156.5L439.01,152.48L443.58,152.56L448.15,150.24L452.73,154.47" style="vector-effect: none; fill: none; stroke: rgb(183, 86, 135); stroke-opacity: 1; stroke-width: 6px; opacity: 1;"/></g><g class="points"/><g class="text"/></g><g class="trace scatter trace978ba1" style="stroke-miterlimit: 2; opacity: 0.1;"><g class="fills"/><g class="errorbars"/><g class="lines"><path class="js-line" d="M0,165.42L9.15,164.15L13.72,163.12L18.29,165.43L22.87,165.55L45.73,164.84L50.3,151.18L59.45,124.83L64.02,123.24L68.6,109.84L73.17,106.32L77.74,108.94L82.31,105.06L86.89,101.24L91.46,102.11L96.03,103.08L100.61,106.5L109.75,102.9L114.33,103.3L118.9,104.47L123.47,103.67L128.04,108.29L132.62,119.15L137.19,113.46L141.76,113.19L146.34,117.81L150.91,115.49L164.63,117.01L169.2,114.45L173.77,116.55L178.35,112.43L182.92,110.95L187.49,107.33L192.07,106.55L196.64,107.82L201.21,104.84L205.79,103.66L210.36,103.66L214.93,101.76L224.08,98.43L228.65,99.71L233.22,101.25L237.8,98.73L242.37,96.25L246.94,98.5L251.52,98.58L256.09,92.13L269.81,92.4L274.38,94.64L283.53,92.5L288.1,90.04L292.67,91.74L297.25,96.97L306.39,85.37L310.96,87.27L315.54,85.86L320.11,88.58L324.68,88.17L329.26,89.67L338.4,88.89L342.98,92.13L347.55,91.41L352.12,88.91L356.69,88.98L361.27,92.74L374.99,89.22L379.56,93.09L384.13,93.82L388.71,91.66L393.28,95.95L397.85,94.13L402.42,97.23L407,95.31L411.57,98.71L416.14,94.09L420.72,96.71L425.29,93.41L429.86,96.65L434.44,96.82L439.01,97.78L443.58,94.13L448.15,97.61L452.73,97.04" style="vector-effect: none; fill: none; stroke: rgb(183, 86, 135); stroke-opacity: 1; stroke-width: 6px; opacity: 1;"/></g><g class="points"/><g class="text"/></g><g class="trace scatter tracefef3c3" style="stroke-miterlimit: 2; opacity: 0.1;"><g class="fills"/><g class="errorbars"/><g class="lines"><path class="js-line" d="M0,164.9L4.57,165.91L9.15,163.93L18.29,167.84L22.87,167.66L32.01,166.32L36.58,168.08L41.16,166.99L45.73,170.22L50.3,172.65L54.88,170.91L59.45,167.66L64.02,167.35L68.6,164.15L73.17,165.41L82.31,166.12L86.89,163.26L96.03,165.06L100.61,160.9L105.18,154.54L109.75,151.57L118.9,138.62L123.47,130.94L137.19,110.39L141.76,108.86L146.34,108.56L150.91,101.05L155.48,87.38L160.06,82.29L164.63,74.03L169.2,72.18L173.77,70.26L178.35,70.3L182.92,70.75L187.49,68.77L192.07,67.05L196.64,68.45L205.79,65.73L210.36,68.94L214.93,67.92L219.5,65.14L228.65,70.39L233.22,68.59L237.8,70.15L242.37,67.44L246.94,67.46L251.52,72.64L256.09,70.57L260.66,74.88L265.23,72.28L269.81,73.79L274.38,70.29L278.95,69.54L288.1,65.43L292.67,68.73L297.25,68.32L301.82,71.05L310.96,64.29L315.54,63.1L320.11,66.35L324.68,65.59L333.83,63.48L338.4,65.81L342.98,69.03L347.55,67.67L352.12,64.05L356.69,62.7L365.84,60.05L370.41,59.8L374.99,61.81L379.56,61.41L384.13,63.74L388.71,61.67L393.28,59.65L397.85,61.35L402.42,58.45L407,58L411.57,56.87L416.14,53.67L420.72,53.98L425.29,56.17L429.86,56.34L434.44,58.66L443.58,62.57L448.15,60.02L452.73,60.49" style="vector-effect: none; fill: none; stroke: rgb(183, 86, 135); stroke-opacity: 1; stroke-width: 6px; opacity: 1;"/></g><g class="points"/><g class="text"/></g><g class="trace scatter tracefc080f" style="stroke-miterlimit: 2; opacity: 0.1;"><g class="fills"/><g class="errorbars"/><g class="lines"><path class="js-line" d="M0,165.31L4.57,165.55L9.15,163.57L18.29,166.4L22.87,164.97L32.01,168.12L36.58,169.06L41.16,171.13L45.73,169.2L73.17,162.5L77.74,163.29L82.31,161.27L86.89,162.37L100.61,156.22L105.18,150.64L109.75,155.67L114.33,155.17L118.9,154.94L123.47,159.65L128.04,153.3L132.62,154.02L137.19,157.72L141.76,154.48L155.48,142.94L160.06,142.11L169.2,133.94L173.77,129.76L178.35,124.54L182.92,125.42L187.49,121.64L192.07,121.03L196.64,120.1L201.21,121.95L205.79,119.12L210.36,123.49L214.93,139.34L219.5,128.24L224.08,118.62L228.65,112.97L233.22,107.27L237.8,96.95L246.94,64.75L251.52,62.08L260.66,56.13L265.23,60.02L274.38,51.12L278.95,51.17L288.1,47.74L292.67,48.11L297.25,46.68L301.82,48L310.96,51.85L315.54,54.26L320.11,54.7L324.68,50.94L347.55,53.23L352.12,58.1L356.69,57.19L361.27,60.42L370.41,57.33L374.99,63.88L379.56,69.78L384.13,67.93L388.71,63.61L393.28,63.46L397.85,60.38L402.42,60.16L407,56.17L411.57,55.05L416.14,58.82L420.72,56.22L425.29,55.72L429.86,52.83L434.44,52.2L439.01,54.22L443.58,52.65L448.15,56.04L452.73,58.07" style="vector-effect: none; fill: none; stroke: rgb(183, 86, 135); stroke-opacity: 1; stroke-width: 6px; opacity: 1;"/></g><g class="points"/><g class="text"/></g><g class="trace scatter trace82e8bb" style="stroke-miterlimit: 2; opacity: 0.1;"><g class="fills"/><g class="errorbars"/><g class="lines"><path class="js-line" d="M0,165.25L13.72,162.99L18.29,165.49L22.87,164.07L27.44,160.9L32.01,159.04L36.58,161.56L45.73,157.97L50.3,158.28L54.88,156.75L59.45,157.72L64.02,152.89L68.6,159.25L73.17,158.82L77.74,160.01L91.46,165.94L96.03,163.56L100.61,168.19L105.18,168.34L114.33,167.48L118.9,164.65L123.47,168.15L128.04,165.21L137.19,167.81L141.76,166.66L146.34,163.94L150.91,165.73L155.48,165.64L160.06,164.02L164.63,165.53L169.2,165.01L173.77,164L178.35,161.13L182.92,165.49L187.49,158.95L196.64,151.94L201.21,130.62L205.79,120.37L210.36,99.05L214.93,89.52L219.5,94.05L228.65,75.37L233.22,55.74L237.8,56.01L242.37,48.03L260.66,46.45L265.23,46.54L269.81,46.39L274.38,48.34L278.95,47.31L283.53,50.12L301.82,47.38L306.39,44.66L310.96,43.22L315.54,44.67L320.11,42.55L324.68,43.78L329.26,49.15L333.83,47.09L338.4,49.18L342.98,47.44L347.55,43.25L352.12,45.35L370.41,44.71L374.99,48.55L379.56,49.82L384.13,48.46L397.85,49.1L402.42,46.01L407,51.01L411.57,47.14L416.14,45.89L420.72,41.5L425.29,43.01L429.86,46.45L439.01,45.38L443.58,39.28L448.15,35.34L452.73,33.51" style="vector-effect: none; fill: none; stroke: rgb(183, 86, 135); stroke-opacity: 1; stroke-width: 6px; opacity: 1;"/></g><g class="points"/><g class="text"/></g><g class="trace scatter trace43e4ac" style="stroke-miterlimit: 2; opacity: 0.1;"><g class="fills"/><g class="errorbars"/><g class="lines"><path class="js-line" d="M0,165.09L9.15,168.15L13.72,168.72L18.29,169.19L22.87,167.59L32.01,168.01L36.58,162.89L41.16,162.66L45.73,157.69L54.88,153.19L59.45,154L64.02,154.91L68.6,151.27L77.74,156.85L82.31,153.05L86.89,156.12L91.46,151.43L96.03,149.61L100.61,144.33L105.18,147.9L109.75,148L118.9,150.89L123.47,145.93L128.04,150.55L132.62,159.83L137.19,163.22L141.76,152.86L146.34,144.83L150.91,125.45L160.06,70.62L164.63,64.87L169.2,57.55L173.77,39.2L178.35,34.83L182.92,37.15L187.49,34.42L192.07,36.52L196.64,37.07L201.21,40.47L205.79,41.06L210.36,36.58L219.5,31.49L224.08,31.16L242.37,34.72L246.94,38.27L251.52,42.19L256.09,36.97L260.66,35.07L265.23,36.26L269.81,35.81L274.38,37.83L283.53,35.52L288.1,37.51L297.25,35.39L301.82,36.13L306.39,35.07L310.96,36.21L320.11,30.36L324.68,30.71L329.26,28.54L333.83,32.61L338.4,31.77L342.98,33.96L347.55,34.54L352.12,29.81L356.69,25.17L361.27,24.08L370.41,31.6L374.99,36.07L384.13,38.48L388.71,36.81L393.28,32.11L397.85,34.39L402.42,33.25L407,36.98L411.57,37.12L416.14,35.6L420.72,35.39L425.29,32.87L429.86,33.22L434.44,31.14L443.58,37.88L448.15,37.29L452.73,37.56" style="vector-effect: none; fill: none; stroke: rgb(183, 86, 135); stroke-opacity: 1; stroke-width: 6px; opacity: 1;"/></g><g class="points"/><g class="text"/></g><g class="trace scatter trace9bfbe1" style="stroke-miterlimit: 2; opacity: 0.1;"><g class="fills"/><g class="errorbars"/><g class="lines"><path class="js-line" d="M0,164.25L9.15,161.42L13.72,163.12L18.29,166.09L22.87,165.06L27.44,167.8L32.01,165.38L36.58,164.32L41.16,164.88L50.3,162.03L54.88,165.07L64.02,161.69L68.6,162.65L73.17,161.35L77.74,164.37L82.31,161.91L86.89,164.59L91.46,161.27L96.03,155.19L100.61,152.62L105.18,153.5L109.75,157.64L114.33,156.6L118.9,154.45L123.47,156.84L128.04,155.48L132.62,147.71L150.91,73.01L155.48,59.34L160.06,66.57L164.63,54.86L173.77,39.95L178.35,39.92L182.92,37.81L187.49,42.16L196.64,41.86L201.21,37.97L214.93,34.96L219.5,36.46L228.65,35.06L233.22,36.7L242.37,34.77L246.94,38.54L256.09,36.54L260.66,34.87L265.23,43.37L269.81,43.78L274.38,41.28L278.95,41.38L288.1,45.53L292.67,50.09L297.25,49.75L301.82,43.99L320.11,45.83L324.68,45.25L329.26,43.58L333.83,46.65L342.98,41.97L347.55,44.36L356.69,44.37L361.27,45.53L379.56,49.03L384.13,48.84L393.28,44.25L397.85,46.11L407,36.08L411.57,39.63L425.29,47.22L429.86,43.46L434.44,43.34L439.01,41.39L443.58,43.76L448.15,37.65L452.73,37.45" style="vector-effect: none; fill: none; stroke: rgb(183, 86, 135); stroke-opacity: 1; stroke-width: 6px; opacity: 1;"/></g><g class="points"/><g class="text"/></g><g class="trace scatter trace4792d4" style="stroke-miterlimit: 2; opacity: 0.1;"><g class="fills"/><g class="errorbars"/><g class="lines"><path class="js-line" d="M0,164.7L4.57,162.8L9.15,164.14L13.72,166.41L18.29,163.04L22.87,159.59L27.44,141.39L32.01,118.13L36.58,113.14L41.16,103.93L45.73,65.63L50.3,47.21L54.88,47.22L59.45,29.86L64.02,22.42L68.6,13.01L73.17,12.53L82.31,17.26L86.89,17.42L91.46,21.67L96.03,23.33L105.18,15.97L109.75,18.24L114.33,18.86L118.9,22.19L128.04,20.59L132.62,26.74L141.76,33.2L146.34,32.73L150.91,29.04L155.48,28.79L160.06,28.54L164.63,29.93L169.2,28.49L173.77,35.99L178.35,33.43L182.92,36.4L187.49,35.52L192.07,36.51L196.64,35.72L201.21,37.51L205.79,37.01L210.36,40.01L214.93,40.12L219.5,37.79L228.65,33.59L233.22,42.5L237.8,42.7L242.37,37.16L246.94,37.52L251.52,39.5L256.09,39.69L260.66,36.32L265.23,32.44L269.81,33.4L274.38,37.87L278.95,34.4L283.53,33.58L288.1,34.51L297.25,35.25L301.82,32.6L315.54,32.04L320.11,29.02L324.68,28.81L329.26,24.1L333.83,25.59L338.4,25.44L342.98,23.49L347.55,23.42L361.27,30.07L365.84,30.76L374.99,30.54L379.56,33.33L384.13,33.7L388.71,31.27L397.85,33.82L402.42,30.36L407,28.33L411.57,30.03L416.14,27.28L420.72,28.35L429.86,27.77L434.44,33.64L439.01,28.63L443.58,29.2L448.15,29.78L452.73,26.97" style="vector-effect: none; fill: none; stroke: rgb(183, 86, 135); stroke-opacity: 1; stroke-width: 6px; opacity: 1;"/></g><g class="points"/><g class="text"/></g><g class="trace scatter trace1d75e1" style="stroke-miterlimit: 2; opacity: 0.1;"><g class="fills"/><g class="errorbars"/><g class="lines"><path class="js-line" d="M0,163.93L22.87,162.52L27.44,158.41L32.01,162.41L36.58,161.89L41.16,159.72L45.73,154.63L59.45,148.35L64.02,157.11L68.6,150.87L73.17,130.99L82.31,104.85L86.89,97.62L91.46,88.65L96.03,87.12L100.61,84.54L105.18,87.5L109.75,81.55L114.33,81.08L123.47,78.13L128.04,73.97L137.19,67.96L141.76,60.96L146.34,55.14L150.91,53.91L155.48,53.05L160.06,49.14L164.63,50.64L169.2,49.87L173.77,49.15L178.35,50.02L182.92,52.14L187.49,52.4L192.07,48.72L196.64,48.27L201.21,45.49L205.79,46.55L214.93,54.62L219.5,54.79L224.08,49.47L228.65,48.6L233.22,49.89L237.8,48.46L242.37,50.38L246.94,50.33L251.52,46.78L256.09,48.21L260.66,47.89L265.23,50.54L269.81,49.62L274.38,45.78L278.95,49.46L283.53,48.75L301.82,50.16L306.39,54.96L315.54,54.66L320.11,55.79L329.26,57.65L333.83,56.93L338.4,56.32L342.98,57.94L356.69,60.92L361.27,63.62L374.99,68.71L379.56,68.51L384.13,75.14L388.71,72.66L397.85,71.16L402.42,74.39L411.57,72.95L416.14,70.57L425.29,64.21L429.86,66.1L434.44,68.83L439.01,68.32L443.58,66.91L448.15,69.51L452.73,73.04" style="vector-effect: none; fill: none; stroke: rgb(183, 86, 135); stroke-opacity: 1; stroke-width: 6px; opacity: 1;"/></g><g class="points"/><g class="text"/></g><g class="trace scatter tracef283e9" style="stroke-miterlimit: 2; opacity: 0.1;"><g class="fills"/><g class="errorbars"/><g class="lines"><path class="js-line" d="M0,164.61L4.57,162.92L9.15,163.57L13.72,160.51L18.29,155.58L22.87,154.73L27.44,158.96L32.01,155.02L36.58,153.7L41.16,154.68L45.73,145.71L50.3,147.74L54.88,131.98L59.45,123.65L64.02,118.71L73.17,88.33L77.74,81.75L86.89,70.49L91.46,71.53L105.18,71.12L109.75,68.52L118.9,69.23L123.47,66.15L146.34,65.48L150.91,67.11L164.63,67.09L169.2,67.59L178.35,69.42L182.92,69.87L187.49,69.22L192.07,66.21L196.64,70.93L201.21,71.42L205.79,71.42L210.36,73.18L214.93,75.4L219.5,75.41L224.08,74.45L228.65,69.22L246.94,68.16L251.52,70.56L265.23,73.41L269.81,71.19L274.38,67.79L278.95,66.81L283.53,68.98L288.1,68.64L297.25,69.57L301.82,71.93L306.39,72.41L310.96,69.06L320.11,74.67L324.68,75.93L333.83,75.54L338.4,77.4L347.55,75.76L352.12,75.78L356.69,71.24L361.27,74.93L370.41,85.42L374.99,83.37L379.56,80.3L384.13,79.6L388.71,79.74L393.28,76.72L402.42,80.93L407,80.01L411.57,78.19L416.14,74.65L420.72,77.62L425.29,76.11L434.44,81.06L439.01,83.79L443.58,81.85L448.15,84.51L452.73,81.67" style="vector-effect: none; fill: none; stroke: rgb(183, 86, 135); stroke-opacity: 1; stroke-width: 6px; opacity: 1;"/></g><g class="points"/><g class="text"/></g><g class="trace scatter tracecb9767" style="stroke-miterlimit: 2; opacity: 0.1;"><g class="fills"/><g class="errorbars"/><g class="lines"><path class="js-line" d="M0,164.6L9.15,164.05L13.72,167.64L22.87,161.28L27.44,163.78L41.16,168.96L45.73,168.06L50.3,166.26L54.88,167.36L59.45,164.4L64.02,164.04L73.17,159.69L77.74,152.75L82.31,145.39L86.89,132.97L105.18,52.52L109.75,42.49L118.9,37.16L123.47,35.99L128.04,37.04L132.62,33.92L137.19,32.58L141.76,29.03L146.34,27.73L150.91,30.13L164.63,24.53L169.2,27.67L178.35,28.94L182.92,28.94L187.49,28.66L192.07,32.18L201.21,33.28L205.79,33.94L214.93,40.54L219.5,37.57L224.08,39.15L228.65,37.48L233.22,36.62L237.8,37.88L246.94,38.89L251.52,38.62L256.09,42.73L260.66,41.55L265.23,33.86L269.81,36.51L278.95,36.89L283.53,38.83L288.1,36.34L292.67,38.51L306.39,35.28L310.96,40.87L324.68,42.86L329.26,41.01L333.83,42.35L338.4,46.4L342.98,44.37L347.55,46.1L361.27,42.32L365.84,46.45L370.41,48.87L374.99,46.28L379.56,48.97L384.13,44.84L388.71,46.87L393.28,45.42L397.85,48.5L402.42,47.89L407,45.8L411.57,49.45L439.01,48.3L443.58,49.51L448.15,44.43L452.73,44.87" style="vector-effect: none; fill: none; stroke: rgb(183, 86, 135); stroke-opacity: 1; stroke-width: 6px; opacity: 1;"/></g><g class="points"/><g class="text"/></g><g class="trace scatter trace276ef9" style="stroke-miterlimit: 2; opacity: 0.1;"><g class="fills"/><g class="errorbars"/><g class="lines"><path class="js-line" d="M0,165.46L18.29,169.42L22.87,166.83L32.01,163.16L36.58,171.28L45.73,169.89L50.3,171.83L54.88,170.52L59.45,171.47L64.02,171.03L68.6,173.32L77.74,172.02L82.31,175.93L86.89,180.02L91.46,176.44L96.03,177.54L100.61,174.85L105.18,179.79L109.75,178.84L114.33,176.97L118.9,181.24L128.04,179.76L132.62,183.15L137.19,192.17L141.76,189.38L146.34,194.6L150.91,196.54L160.06,204.49L164.63,206.01L173.77,197.33L178.35,189.89L187.49,187.73L192.07,197.05L201.21,195.21L205.79,196.61L219.5,198.78L224.08,194.27L237.8,190.1L242.37,186.68L246.94,192.05L251.52,192.17L256.09,187.11L260.66,190.15L265.23,192.37L269.81,196.85L274.38,191.1L278.95,189.91L288.1,194.53L292.67,193.19L297.25,191.14L301.82,191.06L306.39,183.41L310.96,180.65L315.54,184.27L320.11,185.27L324.68,182.26L329.26,184.27L333.83,181.69L338.4,182.22L342.98,175.83L347.55,177.93L356.69,187.31L361.27,191.59L365.84,193.73L370.41,189.48L374.99,184.71L379.56,182.48L384.13,179.25L388.71,182.81L393.28,184.63L397.85,181.6L407,194.42L411.57,190.91L416.14,183.07L420.72,186.16L429.86,179.24L434.44,180.69L439.01,180.16L443.58,181.63L448.15,182.57L452.73,191.66" style="vector-effect: none; fill: none; stroke: rgb(183, 86, 135); stroke-opacity: 1; stroke-width: 6px; opacity: 1;"/></g><g class="points"/><g class="text"/></g><g class="trace scatter tracec90a33" style="stroke-miterlimit: 2; opacity: 0.1;"><g class="fills"/><g class="errorbars"/><g class="lines"><path class="js-line" d="M0,164.7L4.57,164.72L9.15,161.11L13.72,164.43L18.29,164.07L27.44,161.87L32.01,145.4L36.58,109.44L41.16,111.9L45.73,108.81L50.3,75.78L54.88,46.2L59.45,39.54L64.02,37.2L68.6,26.77L73.17,25.59L77.74,17.74L86.89,21.35L91.46,26.02L96.03,27.73L100.61,23.78L105.18,28.24L109.75,28.06L114.33,27.65L118.9,24.03L123.47,24.91L128.04,23.33L137.19,20.16L141.76,18.62L146.34,19.85L150.91,25.19L155.48,27.15L160.06,32.9L164.63,36.19L169.2,36.17L173.77,30.73L178.35,32.62L182.92,27.91L187.49,27.95L196.64,25.83L201.21,28.57L205.79,28.13L210.36,21.54L214.93,20.78L219.5,24.08L224.08,26.49L228.65,27.05L233.22,26.68L237.8,28.56L242.37,31.14L246.94,36.75L256.09,36.09L260.66,39.59L265.23,37.31L269.81,36.76L274.38,34.09L278.95,39.75L283.53,36.32L288.1,40.07L301.82,27.93L306.39,29.8L315.54,27.93L320.11,23.55L329.26,18.44L333.83,20.81L338.4,22.18L342.98,17.27L347.55,11.4L352.12,12.97L361.27,12.89L365.84,16.5L374.99,14.48L379.56,13.66L388.71,15.11L393.28,14.45L402.42,17.76L407,19.19L411.57,20.72L416.14,23.91L425.29,25.75L429.86,23.26L434.44,30.35L439.01,32.9L443.58,35.31L448.15,33.47L452.73,35.63" style="vector-effect: none; fill: none; stroke: rgb(183, 86, 135); stroke-opacity: 1; stroke-width: 6px; opacity: 1;"/></g><g class="points"/><g class="text"/></g><g class="trace scatter trace253726" style="stroke-miterlimit: 2; opacity: 0.1;"><g class="fills"/><g class="errorbars"/><g class="lines"><path class="js-line" d="M0,165.73L4.57,165.24L9.15,166.27L13.72,164.23L18.29,163.95L27.44,168.9L32.01,167.52L36.58,166.26L41.16,166.75L45.73,168.09L50.3,167.35L54.88,161.22L59.45,158.2L68.6,114.59L73.17,95.13L77.74,77.48L82.31,66.82L86.89,55.77L91.46,50.95L96.03,48.97L100.61,44.62L109.75,46.92L114.33,45.41L118.9,45.69L123.47,49.1L128.04,53.09L132.62,54.59L137.19,47.67L141.76,49.15L155.48,42.82L160.06,43.11L164.63,42.02L169.2,43.36L173.77,43.15L178.35,44.77L182.92,47.13L187.49,46.25L192.07,42.64L196.64,45.83L201.21,50.97L205.79,50.97L214.93,40.53L219.5,41.54L224.08,41.61L228.65,43.77L237.8,43.4L242.37,45.79L260.66,45.07L265.23,43.55L274.38,46.51L278.95,50.66L283.53,47.99L288.1,41.13L292.67,43.58L297.25,39.46L301.82,41.14L306.39,44.52L320.11,40.3L324.68,42.73L333.83,40.9L338.4,40.66L342.98,43.27L347.55,41.17L352.12,42.97L356.69,42.07L365.84,42.14L370.41,42.97L374.99,46.94L379.56,43.67L384.13,41.87L388.71,46.98L393.28,43.89L397.85,42.96L402.42,43.99L407,46.87L416.14,47.41L420.72,42.14L425.29,42.46L429.86,39.53L434.44,38.39L439.01,40.21L443.58,33.03L448.15,31.61L452.73,27.47" style="vector-effect: none; fill: none; stroke: rgb(183, 86, 135); stroke-opacity: 1; stroke-width: 6px; opacity: 1;"/></g><g class="points"/><g class="text"/></g><g class="trace scatter trace51bd89" style="stroke-miterlimit: 2; opacity: 0.1;"><g class="fills"/><g class="errorbars"/><g class="lines"><path class="js-line" d="M0,164.97L9.15,163.93L13.72,160.95L22.87,158.57L27.44,160.35L32.01,158.56L36.58,159.35L45.73,157.45L50.3,150.28L54.88,155.46L59.45,154.95L68.6,144.19L73.17,136.87L77.74,139.35L82.31,120.89L86.89,112.02L91.46,94.41L96.03,87.91L100.61,70.45L105.18,52.89L109.75,57.33L118.9,45.56L123.47,44.1L128.04,43.34L132.62,39.18L137.19,43.86L141.76,45.47L146.34,41.18L150.91,42.7L155.48,44.86L160.06,45.33L169.2,51.02L173.77,47.44L178.35,46.32L182.92,42.47L196.64,42.32L201.21,46.27L205.79,46.61L210.36,44.51L214.93,45.35L219.5,48.13L224.08,46.2L228.65,47.69L233.22,46.91L237.8,48.17L242.37,42.9L246.94,42.93L251.52,46.56L256.09,44.82L265.23,39.4L269.81,38.65L278.95,37.05L283.53,29.35L288.1,30.31L292.67,33.37L297.25,32.58L301.82,33.48L306.39,38.31L310.96,37.53L315.54,40.08L320.11,34.7L324.68,33.35L329.26,37.75L333.83,36.67L338.4,37.26L342.98,33.84L347.55,35.09L352.12,33.52L356.69,34.77L361.27,35.5L365.84,42.18L370.41,43.61L374.99,41.07L397.85,30.7L402.42,31.04L407,35.18L411.57,33.36L425.29,43.24L429.86,42.19L439.01,46.65L443.58,44.24L448.15,46.32L452.73,46.53" style="vector-effect: none; fill: none; stroke: rgb(183, 86, 135); stroke-opacity: 1; stroke-width: 6px; opacity: 1;"/></g><g class="points"/><g class="text"/></g><g class="trace scatter traceee382d" style="stroke-miterlimit: 2; opacity: 0.1;"><g class="fills"/><g class="errorbars"/><g class="lines"><path class="js-line" d="M0,164.7L13.72,167.33L18.29,163.26L27.44,158.1L32.01,159.62L36.58,158.88L41.16,155.28L45.73,147.51L50.3,131.98L59.45,102.98L64.02,84.58L68.6,79.75L73.17,68.22L77.74,68.2L82.31,72.02L86.89,73.58L91.46,67.31L96.03,61.98L100.61,60.56L105.18,66.17L109.75,67.44L118.9,61.92L123.47,63.35L128.04,65.26L132.62,63.64L137.19,68.33L141.76,66.99L150.91,67.92L155.48,67.04L160.06,66.62L164.63,68.78L173.77,67.29L178.35,66.14L187.49,69.9L192.07,79.69L201.21,74.22L205.79,71.24L219.5,68.55L224.08,70.54L237.8,67.79L242.37,69.01L251.52,66.43L256.09,69.48L269.81,70.56L274.38,69.32L278.95,71.15L283.53,70.08L292.67,76.05L297.25,76.35L306.39,80.91L310.96,78.26L315.54,76.79L320.11,80.44L329.26,82.15L333.83,95.37L342.98,93.29L347.55,95.4L352.12,95.02L356.69,87.02L361.27,83.41L365.84,85.21L384.13,88.81L388.71,88.81L397.85,92.49L402.42,92.55L411.57,88.49L416.14,82.29L420.72,85.28L425.29,82.25L439.01,85.26L443.58,84.81L448.15,79.16L452.73,84.84" style="vector-effect: none; fill: none; stroke: rgb(183, 86, 135); stroke-opacity: 1; stroke-width: 6px; opacity: 1;"/></g><g class="points"/><g class="text"/></g><g class="trace scatter traced5aeda" style="stroke-miterlimit: 2; opacity: 0.1;"><g class="fills"/><g class="errorbars"/><g class="lines"><path class="js-line" d="M0,165.06L9.15,168.12L13.72,167.62L18.29,164.56L22.87,164.79L27.44,166.55L32.01,162.3L36.58,164.51L41.16,164.71L45.73,165.05L50.3,159.28L54.88,154.82L59.45,125.16L68.6,84.63L73.17,88.01L77.74,61L82.31,55.17L86.89,50.59L91.46,51.38L105.18,43.44L109.75,43.37L114.33,43.93L118.9,46.98L123.47,49.93L128.04,45.56L132.62,44.6L137.19,45.79L141.76,43.49L146.34,44.06L160.06,41.7L164.63,43.22L169.2,42.34L173.77,38.24L182.92,38.85L187.49,38.84L196.64,37.83L201.21,39.05L210.36,36.17L214.93,34.15L228.65,36.12L233.22,34.17L242.37,37.53L246.94,36.52L260.66,40.09L265.23,38.61L269.81,40.48L274.38,45.65L283.53,47.49L288.1,47.18L292.67,47.83L297.25,43.74L306.39,48.12L310.96,45.14L329.26,39.45L333.83,37.1L338.4,35.59L342.98,39.46L347.55,35.77L352.12,37.16L356.69,38.73L361.27,37.88L365.84,36.31L370.41,38.49L374.99,39.56L379.56,38.6L384.13,39.85L388.71,36.53L397.85,45.15L402.42,43.48L407,41.01L411.57,43.22L416.14,33.53L420.72,34.93L425.29,29.82L429.86,36.24L434.44,26.71L439.01,29.91L443.58,29.31L448.15,25.5L452.73,22.29" style="vector-effect: none; fill: none; stroke: rgb(183, 86, 135); stroke-opacity: 1; stroke-width: 6px; opacity: 1;"/></g><g class="points"/><g class="text"/></g><g class="trace scatter trace5b2b37" style="stroke-miterlimit: 2; opacity: 0.1;"><g class="fills"/><g class="errorbars"/><g class="lines"><path class="js-line" d="M0,165.02L9.15,163.4L13.72,166.12L18.29,164.29L22.87,164.93L36.58,167.28L41.16,170.29L45.73,170.67L50.3,165.19L59.45,169L64.02,165.42L68.6,160.87L73.17,158.91L77.74,163.76L82.31,165.05L86.89,164.26L91.46,158.98L96.03,163.88L100.61,165.86L105.18,167.66L109.75,166.48L118.9,144.25L123.47,138.17L128.04,143.94L132.62,134.17L137.19,135.16L141.76,122.21L146.34,102.61L150.91,94.33L160.06,65.76L164.63,68.95L169.2,57.18L173.77,55.9L178.35,49.55L182.92,47.84L187.49,42.44L192.07,48.03L196.64,50.99L201.21,49.64L205.79,51.16L210.36,50.38L214.93,54.49L219.5,52.73L228.65,52.25L233.22,54.33L237.8,51.89L242.37,54.72L246.94,53.98L251.52,55.89L260.66,51L265.23,56.32L269.81,57.5L274.38,56.46L278.95,53.55L283.53,52.73L288.1,51.87L292.67,48.28L301.82,50.59L306.39,49.28L315.54,50.29L320.11,50.63L324.68,53.28L329.26,52.05L333.83,49.76L338.4,53.16L347.55,52.46L352.12,53.08L361.27,60.71L365.84,63.34L374.99,50.25L379.56,48.01L388.71,47.4L393.28,45.42L397.85,42.67L402.42,44.32L407,47.95L411.57,42.41L416.14,46.07L420.72,37.46L425.29,35.51L429.86,31.64L434.44,30.61L439.01,31.13L443.58,29.57L448.15,25.64L452.73,23.47" style="vector-effect: none; fill: none; stroke: rgb(183, 86, 135); stroke-opacity: 1; stroke-width: 6px; opacity: 1;"/></g><g class="points"/><g class="text"/></g><g class="trace scatter trace4340f1" style="stroke-miterlimit: 2; opacity: 0.1;"><g class="fills"/><g class="errorbars"/><g class="lines"><path class="js-line" d="M0,164.62L4.57,165.88L9.15,164.56L22.87,161.56L27.44,159.89L32.01,157.55L36.58,157.95L41.16,155.04L45.73,155.87L50.3,156.83L54.88,155.15L68.6,164.06L73.17,160.37L82.31,159.92L86.89,163.99L96.03,160.97L100.61,156.07L109.75,155.34L114.33,156.28L123.47,153.12L128.04,156.04L132.62,156.38L137.19,154.91L141.76,158.82L146.34,159.53L155.48,155.45L160.06,150.7L164.63,147.5L169.2,148.46L173.77,149.54L178.35,139.19L182.92,140.35L187.49,138.9L196.64,139.16L201.21,144.42L214.93,144.32L219.5,143.19L224.08,134.81L228.65,135L233.22,136.25L237.8,141.42L242.37,143.56L246.94,140.64L251.52,138.14L256.09,132.53L265.23,117.21L269.81,113.81L278.95,119.84L283.53,115.95L288.1,112.65L292.67,113.93L297.25,112.48L301.82,107.88L306.39,106.29L310.96,106.81L320.11,106.25L324.68,111.98L333.83,112.41L338.4,111.08L342.98,128.01L347.55,120.92L352.12,119.71L356.69,125.67L361.27,115.3L365.84,117.77L370.41,106.51L374.99,106.35L384.13,106.14L388.71,108.83L393.28,119.61L397.85,113.24L402.42,101.87L407,97.65L411.57,94.37L416.14,96.21L420.72,99L425.29,97.35L429.86,95.81L434.44,98.96L439.01,100.47L443.58,105.29L448.15,103.75L452.73,96.21" style="vector-effect: none; fill: none; stroke: rgb(183, 86, 135); stroke-opacity: 1; stroke-width: 6px; opacity: 1;"/></g><g class="points"/><g class="text"/></g><g class="trace scatter traced21813" style="stroke-miterlimit: 2; opacity: 0.1;"><g class="fills"/><g class="errorbars"/><g class="lines"><path class="js-line" d="M0,165.47L4.57,165.96L9.15,164.24L18.29,169.74L22.87,168.7L27.44,167.84L32.01,165.43L36.58,165.08L41.16,160.25L45.73,156.56L50.3,158.45L54.88,156.9L59.45,159.13L64.02,156.23L68.6,156.43L73.17,157.59L77.74,153.54L82.31,150.33L86.89,150.73L96.03,142.08L100.61,144.64L105.18,138.84L109.75,137.15L114.33,138.25L118.9,135.06L123.47,110.23L128.04,122.98L132.62,117.47L137.19,101.83L141.76,91.72L146.34,65.84L150.91,61.52L155.48,65.41L164.63,51.93L169.2,50.18L178.35,48.16L182.92,55.53L187.49,50.32L192.07,49.55L196.64,48.15L201.21,49.45L210.36,49.66L214.93,50.88L219.5,53.86L224.08,54.45L228.65,59.79L233.22,55.3L246.94,52.89L251.52,55.12L265.23,52.76L269.81,50.59L288.1,44.98L292.67,45.92L297.25,43.3L301.82,45.5L306.39,44.44L310.96,45.16L315.54,39.31L320.11,40.23L338.4,30.85L342.98,28.03L347.55,25.74L352.12,29.52L356.69,30.87L361.27,28.6L365.84,28.64L370.41,33.29L374.99,31.36L379.56,31.19L384.13,25.81L388.71,28.18L393.28,25.9L397.85,26.05L407,29.31L411.57,26.79L425.29,22.9L429.86,19.46L434.44,19.23L439.01,25.15L443.58,24.71L448.15,29.34L452.73,29.97" style="vector-effect: none; fill: none; stroke: rgb(183, 86, 135); stroke-opacity: 1; stroke-width: 6px; opacity: 1;"/></g><g class="points"/><g class="text"/></g><g class="trace scatter trace7fc3f3" style="stroke-miterlimit: 2; opacity: 0.1;"><g class="fills"/><g class="errorbars"/><g class="lines"><path class="js-line" d="M0,164.28L4.57,164.14L9.15,167.24L13.72,166.36L18.29,162.2L22.87,159.7L27.44,155.02L32.01,150.09L36.58,149.88L41.16,152.31L45.73,138.46L50.3,125.34L54.88,102.19L59.45,86.7L64.02,58.66L68.6,44.97L73.17,44.97L91.46,49.07L96.03,48.22L105.18,46.25L109.75,49.86L118.9,46.54L123.47,44.59L128.04,46.59L132.62,46.21L150.91,48.85L155.48,47.42L160.06,49.68L164.63,47.85L173.77,43L178.35,41.09L182.92,40.8L187.49,43.36L192.07,43.77L196.64,47.35L210.36,42.13L214.93,43.58L219.5,42.25L224.08,37.02L228.65,33.79L233.22,33.48L242.37,36.78L246.94,31.29L251.52,34.89L256.09,36.36L265.23,37.8L269.81,33.6L274.38,36.25L278.95,35.1L283.53,38.03L288.1,36.16L292.67,38.74L297.25,38.33L306.39,42.44L310.96,44.94L315.54,44.44L320.11,39.69L329.26,39.11L333.83,40.71L338.4,38.27L342.98,38.28L347.55,39.81L352.12,38.06L356.69,34.61L361.27,36.67L365.84,33.88L370.41,37.92L374.99,41.14L379.56,42.06L384.13,38.33L388.71,38.47L393.28,34.68L397.85,36.88L402.42,31.5L407,32.83L420.72,31.65L425.29,32.82L429.86,30.94L434.44,32.14L439.01,34.2L443.58,32.99L452.73,34.86" style="vector-effect: none; fill: none; stroke: rgb(183, 86, 135); stroke-opacity: 1; stroke-width: 6px; opacity: 1;"/></g><g class="points"/><g class="text"/></g><g class="trace scatter trace6c59a2" style="stroke-miterlimit: 2; opacity: 0.1;"><g class="fills"/><g class="errorbars"/><g class="lines"><path class="js-line" d="M0,164.83L13.72,164.88L18.29,160.71L32.01,138.32L36.58,104.61L41.16,83.73L45.73,73.92L50.3,67.95L54.88,56.3L59.45,47.12L64.02,45.85L73.17,46.95L77.74,44.32L86.89,41.46L91.46,38.78L96.03,36.86L100.61,39.23L109.75,44.48L114.33,41.56L118.9,43.21L123.47,42.03L128.04,41.3L132.62,43.75L141.76,42.57L146.34,40.98L155.48,41.85L160.06,45.13L164.63,44.84L169.2,47.4L173.77,47.4L178.35,45.06L182.92,44.17L187.49,45.74L201.21,45.78L205.79,49.73L210.36,52.08L214.93,51.13L224.08,43.75L228.65,44.22L246.94,45.74L251.52,42.37L256.09,44.36L260.66,43.51L265.23,38.8L269.81,36.82L274.38,39.4L278.95,39.23L283.53,38.03L288.1,38.46L292.67,40.51L297.25,39.67L301.82,39.65L306.39,41.87L310.96,49.43L315.54,45.88L320.11,45.81L324.68,43.23L329.26,43L333.83,39.81L338.4,39.01L342.98,40.2L347.55,43.06L352.12,42.91L356.69,43.23L361.27,40.06L365.84,38.06L370.41,33.15L374.99,33.95L379.56,32.3L388.71,31.83L393.28,33.28L402.42,40.35L407,35.74L411.57,37.79L416.14,34.31L420.72,32.67L425.29,32.91L429.86,30.7L434.44,32.08L439.01,29.4L443.58,28.55L452.73,33.48" style="vector-effect: none; fill: none; stroke: rgb(183, 86, 135); stroke-opacity: 1; stroke-width: 6px; opacity: 1;"/></g><g class="points"/><g class="text"/></g></g></g></g><g class="zerolinelayer-above"/><path class="xlines-above crisp" d="M0,0" style="fill: none;"/><path class="ylines-above crisp" d="M0,0" style="fill: none;"/><g class="overlines-above"/><g class="xaxislayer-above"><g class="xtick"><text text-anchor="middle" x="0" y="333" transform="translate(194.1,0)" style="font-family: 'Open Sans', verdana, arial, sans-serif; font-size: 12px; fill: rgb(42, 63, 95); fill-opacity: 1; white-space: pre;">50M</text></g><g class="xtick"><text text-anchor="middle" x="0" y="333" style="font-family: 'Open Sans', verdana, arial, sans-serif; font-size: 12px; fill: rgb(42, 63, 95); fill-opacity: 1; white-space: pre;" transform="translate(308.41999999999996,0)">100M</text></g><g class="xtick"><text text-anchor="middle" x="0" y="333" style="font-family: 'Open Sans', verdana, arial, sans-serif; font-size: 12px; fill: rgb(42, 63, 95); fill-opacity: 1; white-space: pre;" transform="translate(422.75,0)">150M</text></g></g><g class="yaxislayer-above"><g class="ytick"><text text-anchor="end" x="79" y="4.199999999999999" transform="translate(0,315.94)" style="font-family: 'Open Sans', verdana, arial, sans-serif; font-size: 12px; fill: rgb(42, 63, 95); fill-opacity: 1; white-space: pre;">−5</text></g><g class="ytick"><text text-anchor="end" x="79" y="4.199999999999999" style="font-family: 'Open Sans', verdana, arial, sans-serif; font-size: 12px; fill: rgb(42, 63, 95); fill-opacity: 1; white-space: pre;" transform="translate(0,264.83000000000004)">0</text></g><g class="ytick"><text text-anchor="end" x="79" y="4.199999999999999" style="font-family: 'Open Sans', verdana, arial, sans-serif; font-size: 12px; fill: rgb(42, 63, 95); fill-opacity: 1; white-space: pre;" transform="translate(0,213.70999999999998)">5</text></g><g class="ytick"><text text-anchor="end" x="79" y="4.199999999999999" style="font-family: 'Open Sans', verdana, arial, sans-serif; font-size: 12px; fill: rgb(42, 63, 95); fill-opacity: 1; white-space: pre;" transform="translate(0,162.59)">10</text></g><g class="ytick"><text text-anchor="end" x="79" y="4.199999999999999" style="font-family: 'Open Sans', verdana, arial, sans-serif; font-size: 12px; fill: rgb(42, 63, 95); fill-opacity: 1; white-space: pre;" transform="translate(0,111.47)">15</text></g></g><g class="overaxes-above"/></g><g class="subplot x2y2"><g class="layer-subplot"><g class="shapelayer"/><g class="imagelayer"/></g><g class="minor-gridlayer"><g class="x2"/><g class="y2"/></g><g class="gridlayer"><g class="x2"/><g class="y2"/></g><g class="zerolinelayer"><path class="x2zl zl crisp" transform="translate(538.107,0)" d="M0,100v220" style="stroke: rgb(235, 240, 248); stroke-opacity: 1; stroke-width: 2px;"/></g><g class="layer-between"><g class="shapelayer"/><g class="imagelayer"/></g><path class="xlines-below"/><path class="ylines-below"/><g class="overlines-below"/><g class="xaxislayer-below"/><g class="yaxislayer-below"/><g class="overaxes-below"/><g class="overplot"><g class="x2y2" transform="translate(538.107,100)" clip-path="url(#clip538228x2y2plot)"><g class="barlayer mlayer"><g class="trace bars" style="opacity: 1;"><g class="points"><g class="point"><path d="M0,204.7V186.3H9.49V204.7Z" style="vector-effect: none; opacity: 1; stroke-width: 0px; fill: rgb(153, 153, 153); fill-opacity: 1;"/></g><g class="point"><path d="M0,184.25V165.85H4.74V184.25Z" style="vector-effect: none; opacity: 1; stroke-width: 0px; fill: rgb(153, 153, 153); fill-opacity: 1;"/></g><g class="point"><path d="M0,163.8V145.4H4.74V163.8Z" style="vector-effect: none; opacity: 1; stroke-width: 0px; fill: rgb(153, 153, 153); fill-opacity: 1;"/></g><g class="point"><path d="M0,0Z" style="vector-effect: none; opacity: 1; stroke-width: 0px; fill: rgb(153, 153, 153); fill-opacity: 1;"/></g><g class="point"><path d="M0,0Z" style="vector-effect: none; opacity: 1; stroke-width: 0px; fill: rgb(153, 153, 153); fill-opacity: 1;"/></g><g class="point"><path d="M0,102.46V84.06H18.97V102.46Z" style="vector-effect: none; opacity: 1; stroke-width: 0px; fill: rgb(153, 153, 153); fill-opacity: 1;"/></g><g class="point"><path d="M0,82.02V63.61H9.49V82.02Z" style="vector-effect: none; opacity: 1; stroke-width: 0px; fill: rgb(153, 153, 153); fill-opacity: 1;"/></g><g class="point"><path d="M0,61.57V43.17H18.97V61.57Z" style="vector-effect: none; opacity: 1; stroke-width: 0px; fill: rgb(153, 153, 153); fill-opacity: 1;"/></g><g class="point"><path d="M0,41.12V22.72H75.9V41.12Z" style="vector-effect: none; opacity: 1; stroke-width: 0px; fill: rgb(153, 153, 153); fill-opacity: 1;"/></g><g class="point"><path d="M0,20.68V2.27H9.49V20.68Z" style="vector-effect: none; opacity: 1; stroke-width: 0px; fill: rgb(153, 153, 153); fill-opacity: 1;"/></g></g></g></g></g></g><g class="zerolinelayer-above"/><path class="xlines-above crisp" d="M0,0" style="fill: none;"/><path class="ylines-above crisp" d="M0,0" style="fill: none;"/><g class="overlines-above"/><g class="xaxislayer-above"/><g class="yaxislayer-above"/><g class="overaxes-above"/></g></g><g class="polarlayer"/><g class="smithlayer"/><g class="ternarylayer"/><g class="geolayer"/><g class="funnelarealayer"/><g class="pielayer"/><g class="iciclelayer"/><g class="treemaplayer"/><g class="sunburstlayer"/><g class="glimages"/><defs id="topdefs-538228"><g class="clips"/><clipPath id="legend538228"><rect width="59" height="220" x="0" y="0"/></clipPath></defs><g class="layer-above"><g class="imagelayer"/><g class="shapelayer"/></g><g class="infolayer"><g class="legend" pointer-events="all" transform="translate(628.76,100)"><rect class="bg" shape-rendering="crispEdges" style="stroke: rgb(68, 68, 68); stroke-opacity: 1; fill: rgb(255, 255, 255); fill-opacity: 1; stroke-width: 0px;" width="59" height="220" x="0" y="0"/><g class="scrollbox" transform="" clip-path="url(#legend538228)"><g class="groups" transform=""><g class="traces" transform="translate(0,14.5)" style="opacity: 1;"><text class="legendtext" text-anchor="start" x="40" y="4.680000000000001" style="font-family: 'Open Sans', verdana, arial, sans-serif; font-size: 12px; fill: rgb(42, 63, 95); fill-opacity: 1; white-space: pre;">0</text><g class="layers" style="opacity: 0.1;"><g class="legendfill"/><g class="legendlines"><path class="js-line" d="M5,0h30" style="fill: none; stroke: rgb(183, 86, 135); stroke-opacity: 1; stroke-width: 6px;"/></g><g class="legendsymbols"><g class="legendpoints"/></g></g><rect class="legendtoggle" x="0" y="-9.5" width="53.861328125" height="19" style="fill: rgb(0, 0, 0); fill-opacity: 0;"/></g></g><g class="groups" transform="translate(0,10)"><g class="traces" transform="translate(0,33.5)" style="opacity: 1;"><text class="legendtext" text-anchor="start" x="40" y="4.680000000000001" style="font-family: 'Open Sans', verdana, arial, sans-serif; font-size: 12px; fill: rgb(42, 63, 95); fill-opacity: 1; white-space: pre;">1</text><g class="layers" style="opacity: 0.1;"><g class="legendfill"/><g class="legendlines"><path class="js-line" d="M5,0h30" style="fill: none; stroke: rgb(183, 86, 135); stroke-opacity: 1; stroke-width: 6px;"/></g><g class="legendsymbols"><g class="legendpoints"/></g></g><rect class="legendtoggle" x="0" y="-9.5" width="53.861328125" height="19" style="fill: rgb(0, 0, 0); fill-opacity: 0;"/></g></g><g class="groups" transform="translate(0,20)"><g class="traces" transform="translate(0,52.5)" style="opacity: 1;"><text class="legendtext" text-anchor="start" x="40" y="4.680000000000001" style="font-family: 'Open Sans', verdana, arial, sans-serif; font-size: 12px; fill: rgb(42, 63, 95); fill-opacity: 1; white-space: pre;">2</text><g class="layers" style="opacity: 0.1;"><g class="legendfill"/><g class="legendlines"><path class="js-line" d="M5,0h30" style="fill: none; stroke: rgb(183, 86, 135); stroke-opacity: 1; stroke-width: 6px;"/></g><g class="legendsymbols"><g class="legendpoints"/></g></g><rect class="legendtoggle" x="0" y="-9.5" width="53.861328125" height="19" style="fill: rgb(0, 0, 0); fill-opacity: 0;"/></g></g><g class="groups" transform="translate(0,30)"><g class="traces" transform="translate(0,71.5)" style="opacity: 1;"><text class="legendtext" text-anchor="start" x="40" y="4.680000000000001" style="font-family: 'Open Sans', verdana, arial, sans-serif; font-size: 12px; fill: rgb(42, 63, 95); fill-opacity: 1; white-space: pre;">3</text><g class="layers" style="opacity: 0.1;"><g class="legendfill"/><g class="legendlines"><path class="js-line" d="M5,0h30" style="fill: none; stroke: rgb(183, 86, 135); stroke-opacity: 1; stroke-width: 6px;"/></g><g class="legendsymbols"><g class="legendpoints"/></g></g><rect class="legendtoggle" x="0" y="-9.5" width="53.861328125" height="19" style="fill: rgb(0, 0, 0); fill-opacity: 0;"/></g></g><g class="groups" transform="translate(0,40)"><g class="traces" transform="translate(0,90.5)" style="opacity: 1;"><text class="legendtext" text-anchor="start" x="40" y="4.680000000000001" style="font-family: 'Open Sans', verdana, arial, sans-serif; font-size: 12px; fill: rgb(42, 63, 95); fill-opacity: 1; white-space: pre;">4</text><g class="layers" style="opacity: 0.1;"><g class="legendfill"/><g class="legendlines"><path class="js-line" d="M5,0h30" style="fill: none; stroke: rgb(183, 86, 135); stroke-opacity: 1; stroke-width: 6px;"/></g><g class="legendsymbols"><g class="legendpoints"/></g></g><rect class="legendtoggle" x="0" y="-9.5" width="53.861328125" height="19" style="fill: rgb(0, 0, 0); fill-opacity: 0;"/></g></g><g class="groups" transform="translate(0,50)"><g class="traces" transform="translate(0,109.5)" style="opacity: 1;"><text class="legendtext" text-anchor="start" x="40" y="4.680000000000001" style="font-family: 'Open Sans', verdana, arial, sans-serif; font-size: 12px; fill: rgb(42, 63, 95); fill-opacity: 1; white-space: pre;">5</text><g class="layers" style="opacity: 0.1;"><g class="legendfill"/><g class="legendlines"><path class="js-line" d="M5,0h30" style="fill: none; stroke: rgb(183, 86, 135); stroke-opacity: 1; stroke-width: 6px;"/></g><g class="legendsymbols"><g class="legendpoints"/></g></g><rect class="legendtoggle" x="0" y="-9.5" width="53.861328125" height="19" style="fill: rgb(0, 0, 0); fill-opacity: 0;"/></g></g><g class="groups" transform="translate(0,60)"><g class="traces" transform="translate(0,128.5)" style="opacity: 1;"><text class="legendtext" text-anchor="start" x="40" y="4.680000000000001" style="font-family: 'Open Sans', verdana, arial, sans-serif; font-size: 12px; fill: rgb(42, 63, 95); fill-opacity: 1; white-space: pre;">6</text><g class="layers" style="opacity: 0.1;"><g class="legendfill"/><g class="legendlines"><path class="js-line" d="M5,0h30" style="fill: none; stroke: rgb(183, 86, 135); stroke-opacity: 1; stroke-width: 6px;"/></g><g class="legendsymbols"><g class="legendpoints"/></g></g><rect class="legendtoggle" x="0" y="-9.5" width="53.861328125" height="19" style="fill: rgb(0, 0, 0); fill-opacity: 0;"/></g></g><g class="groups" transform="translate(0,70)"><g class="traces" transform="translate(0,147.5)" style="opacity: 1;"><text class="legendtext" text-anchor="start" x="40" y="4.680000000000001" style="font-family: 'Open Sans', verdana, arial, sans-serif; font-size: 12px; fill: rgb(42, 63, 95); fill-opacity: 1; white-space: pre;">7</text><g class="layers" style="opacity: 0.1;"><g class="legendfill"/><g class="legendlines"><path class="js-line" d="M5,0h30" style="fill: none; stroke: rgb(183, 86, 135); stroke-opacity: 1; stroke-width: 6px;"/></g><g class="legendsymbols"><g class="legendpoints"/></g></g><rect class="legendtoggle" x="0" y="-9.5" width="53.861328125" height="19" style="fill: rgb(0, 0, 0); fill-opacity: 0;"/></g></g><g class="groups" transform="translate(0,80)"><g class="traces" transform="translate(0,166.5)" style="opacity: 1;"><text class="legendtext" text-anchor="start" x="40" y="4.680000000000001" style="font-family: 'Open Sans', verdana, arial, sans-serif; font-size: 12px; fill: rgb(42, 63, 95); fill-opacity: 1; white-space: pre;">8</text><g class="layers" style="opacity: 0.1;"><g class="legendfill"/><g class="legendlines"><path class="js-line" d="M5,0h30" style="fill: none; stroke: rgb(183, 86, 135); stroke-opacity: 1; stroke-width: 6px;"/></g><g class="legendsymbols"><g class="legendpoints"/></g></g><rect class="legendtoggle" x="0" y="-9.5" width="53.861328125" height="19" style="fill: rgb(0, 0, 0); fill-opacity: 0;"/></g></g><g class="groups" transform="translate(0,90)"><g class="traces" transform="translate(0,185.5)" style="opacity: 1;"><text class="legendtext" text-anchor="start" x="40" y="4.680000000000001" style="font-family: 'Open Sans', verdana, arial, sans-serif; font-size: 12px; fill: rgb(42, 63, 95); fill-opacity: 1; white-space: pre;">9</text><g class="layers" style="opacity: 0.1;"><g class="legendfill"/><g class="legendlines"><path class="js-line" d="M5,0h30" style="fill: none; stroke: rgb(183, 86, 135); stroke-opacity: 1; stroke-width: 6px;"/></g><g class="legendsymbols"><g class="legendpoints"/></g></g><rect class="legendtoggle" x="0" y="-9.5" width="53.861328125" height="19" style="fill: rgb(0, 0, 0); fill-opacity: 0;"/></g></g><g class="groups" transform="translate(0,100)"><g class="traces" transform="translate(0,204.5)" style="opacity: 1;"><text class="legendtext" text-anchor="start" x="40" y="4.680000000000001" style="font-family: 'Open Sans', verdana, arial, sans-serif; font-size: 12px; fill: rgb(42, 63, 95); fill-opacity: 1; white-space: pre;">10</text><g class="layers" style="opacity: 0.1;"><g class="legendfill"/><g class="legendlines"><path class="js-line" d="M5,0h30" style="fill: none; stroke: rgb(183, 86, 135); stroke-opacity: 1; stroke-width: 6px;"/></g><g class="legendsymbols"><g class="legendpoints"/></g></g><rect class="legendtoggle" x="0" y="-9.5" width="53.861328125" height="19" style="fill: rgb(0, 0, 0); fill-opacity: 0;"/></g></g><g class="groups" transform="translate(0,110)"><g class="traces" transform="translate(0,223.5)" style="opacity: 1;"><text class="legendtext" text-anchor="start" x="40" y="4.680000000000001" style="font-family: 'Open Sans', verdana, arial, sans-serif; font-size: 12px; fill: rgb(42, 63, 95); fill-opacity: 1; white-space: pre;">11</text><g class="layers" style="opacity: 0.1;"><g class="legendfill"/><g class="legendlines"><path class="js-line" d="M5,0h30" style="fill: none; stroke: rgb(183, 86, 135); stroke-opacity: 1; stroke-width: 6px;"/></g><g class="legendsymbols"><g class="legendpoints"/></g></g><rect class="legendtoggle" x="0" y="-9.5" width="53.861328125" height="19" style="fill: rgb(0, 0, 0); fill-opacity: 0;"/></g></g><g class="groups" transform="translate(0,120)"><g class="traces" transform="translate(0,242.5)" style="opacity: 1;"><text class="legendtext" text-anchor="start" x="40" y="4.680000000000001" style="font-family: 'Open Sans', verdana, arial, sans-serif; font-size: 12px; fill: rgb(42, 63, 95); fill-opacity: 1; white-space: pre;">12</text><g class="layers" style="opacity: 0.1;"><g class="legendfill"/><g class="legendlines"><path class="js-line" d="M5,0h30" style="fill: none; stroke: rgb(183, 86, 135); stroke-opacity: 1; stroke-width: 6px;"/></g><g class="legendsymbols"><g class="legendpoints"/></g></g><rect class="legendtoggle" x="0" y="-9.5" width="53.861328125" height="19" style="fill: rgb(0, 0, 0); fill-opacity: 0;"/></g></g><g class="groups" transform="translate(0,130)"><g class="traces" transform="translate(0,261.5)" style="opacity: 1;"><text class="legendtext" text-anchor="start" x="40" y="4.680000000000001" style="font-family: 'Open Sans', verdana, arial, sans-serif; font-size: 12px; fill: rgb(42, 63, 95); fill-opacity: 1; white-space: pre;">13</text><g class="layers" style="opacity: 0.1;"><g class="legendfill"/><g class="legendlines"><path class="js-line" d="M5,0h30" style="fill: none; stroke: rgb(183, 86, 135); stroke-opacity: 1; stroke-width: 6px;"/></g><g class="legendsymbols"><g class="legendpoints"/></g></g><rect class="legendtoggle" x="0" y="-9.5" width="53.861328125" height="19" style="fill: rgb(0, 0, 0); fill-opacity: 0;"/></g></g><g class="groups" transform="translate(0,140)"><g class="traces" transform="translate(0,280.5)" style="opacity: 1;"><text class="legendtext" text-anchor="start" x="40" y="4.680000000000001" style="font-family: 'Open Sans', verdana, arial, sans-serif; font-size: 12px; fill: rgb(42, 63, 95); fill-opacity: 1; white-space: pre;">14</text><g class="layers" style="opacity: 0.1;"><g class="legendfill"/><g class="legendlines"><path class="js-line" d="M5,0h30" style="fill: none; stroke: rgb(183, 86, 135); stroke-opacity: 1; stroke-width: 6px;"/></g><g class="legendsymbols"><g class="legendpoints"/></g></g><rect class="legendtoggle" x="0" y="-9.5" width="53.861328125" height="19" style="fill: rgb(0, 0, 0); fill-opacity: 0;"/></g></g><g class="groups" transform="translate(0,150)"><g class="traces" transform="translate(0,299.5)" style="opacity: 1;"><text class="legendtext" text-anchor="start" x="40" y="4.680000000000001" style="font-family: 'Open Sans', verdana, arial, sans-serif; font-size: 12px; fill: rgb(42, 63, 95); fill-opacity: 1; white-space: pre;">15</text><g class="layers" style="opacity: 0.1;"><g class="legendfill"/><g class="legendlines"><path class="js-line" d="M5,0h30" style="fill: none; stroke: rgb(183, 86, 135); stroke-opacity: 1; stroke-width: 6px;"/></g><g class="legendsymbols"><g class="legendpoints"/></g></g><rect class="legendtoggle" x="0" y="-9.5" width="53.861328125" height="19" style="fill: rgb(0, 0, 0); fill-opacity: 0;"/></g></g><g class="groups" transform="translate(0,160)"><g class="traces" transform="translate(0,318.5)" style="opacity: 1;"><text class="legendtext" text-anchor="start" x="40" y="4.680000000000001" style="font-family: 'Open Sans', verdana, arial, sans-serif; font-size: 12px; fill: rgb(42, 63, 95); fill-opacity: 1; white-space: pre;">16</text><g class="layers" style="opacity: 0.1;"><g class="legendfill"/><g class="legendlines"><path class="js-line" d="M5,0h30" style="fill: none; stroke: rgb(183, 86, 135); stroke-opacity: 1; stroke-width: 6px;"/></g><g class="legendsymbols"><g class="legendpoints"/></g></g><rect class="legendtoggle" x="0" y="-9.5" width="53.861328125" height="19" style="fill: rgb(0, 0, 0); fill-opacity: 0;"/></g></g><g class="groups" transform="translate(0,170)"><g class="traces" transform="translate(0,337.5)" style="opacity: 1;"><text class="legendtext" text-anchor="start" x="40" y="4.680000000000001" style="font-family: 'Open Sans', verdana, arial, sans-serif; font-size: 12px; fill: rgb(42, 63, 95); fill-opacity: 1; white-space: pre;">17</text><g class="layers" style="opacity: 0.1;"><g class="legendfill"/><g class="legendlines"><path class="js-line" d="M5,0h30" style="fill: none; stroke: rgb(183, 86, 135); stroke-opacity: 1; stroke-width: 6px;"/></g><g class="legendsymbols"><g class="legendpoints"/></g></g><rect class="legendtoggle" x="0" y="-9.5" width="53.861328125" height="19" style="fill: rgb(0, 0, 0); fill-opacity: 0;"/></g></g><g class="groups" transform="translate(0,180)"><g class="traces" transform="translate(0,356.5)" style="opacity: 1;"><text class="legendtext" text-anchor="start" x="40" y="4.680000000000001" style="font-family: 'Open Sans', verdana, arial, sans-serif; font-size: 12px; fill: rgb(42, 63, 95); fill-opacity: 1; white-space: pre;">18</text><g class="layers" style="opacity: 0.1;"><g class="legendfill"/><g class="legendlines"><path class="js-line" d="M5,0h30" style="fill: none; stroke: rgb(183, 86, 135); stroke-opacity: 1; stroke-width: 6px;"/></g><g class="legendsymbols"><g class="legendpoints"/></g></g><rect class="legendtoggle" x="0" y="-9.5" width="53.861328125" height="19" style="fill: rgb(0, 0, 0); fill-opacity: 0;"/></g></g><g class="groups" transform="translate(0,190)"><g class="traces" transform="translate(0,375.5)" style="opacity: 1;"><text class="legendtext" text-anchor="start" x="40" y="4.680000000000001" style="font-family: 'Open Sans', verdana, arial, sans-serif; font-size: 12px; fill: rgb(42, 63, 95); fill-opacity: 1; white-space: pre;">19</text><g class="layers" style="opacity: 0.1;"><g class="legendfill"/><g class="legendlines"><path class="js-line" d="M5,0h30" style="fill: none; stroke: rgb(183, 86, 135); stroke-opacity: 1; stroke-width: 6px;"/></g><g class="legendsymbols"><g class="legendpoints"/></g></g><rect class="legendtoggle" x="0" y="-9.5" width="53.861328125" height="19" style="fill: rgb(0, 0, 0); fill-opacity: 0;"/></g></g><g class="groups" transform="translate(0,200)"><g class="traces" transform="translate(0,394.5)" style="opacity: 1;"><text class="legendtext" text-anchor="start" x="40" y="4.680000000000001" style="font-family: 'Open Sans', verdana, arial, sans-serif; font-size: 12px; fill: rgb(42, 63, 95); fill-opacity: 1; white-space: pre;">20</text><g class="layers" style="opacity: 0.1;"><g class="legendfill"/><g class="legendlines"><path class="js-line" d="M5,0h30" style="fill: none; stroke: rgb(183, 86, 135); stroke-opacity: 1; stroke-width: 6px;"/></g><g class="legendsymbols"><g class="legendpoints"/></g></g><rect class="legendtoggle" x="0" y="-9.5" width="53.861328125" height="19" style="fill: rgb(0, 0, 0); fill-opacity: 0;"/></g></g><g class="groups" transform="translate(0,210)"><g class="traces" transform="translate(0,413.5)" style="opacity: 1;"><text class="legendtext" text-anchor="start" x="40" y="4.680000000000001" style="font-family: 'Open Sans', verdana, arial, sans-serif; font-size: 12px; fill: rgb(42, 63, 95); fill-opacity: 1; white-space: pre;">21</text><g class="layers" style="opacity: 0.1;"><g class="legendfill"/><g class="legendlines"><path class="js-line" d="M5,0h30" style="fill: none; stroke: rgb(183, 86, 135); stroke-opacity: 1; stroke-width: 6px;"/></g><g class="legendsymbols"><g class="legendpoints"/></g></g><rect class="legendtoggle" x="0" y="-9.5" width="53.861328125" height="19" style="fill: rgb(0, 0, 0); fill-opacity: 0;"/></g></g><g class="groups" transform="translate(0,220)"><g class="traces" transform="translate(0,432.5)" style="opacity: 1;"><text class="legendtext" text-anchor="start" x="40" y="4.680000000000001" style="font-family: 'Open Sans', verdana, arial, sans-serif; font-size: 12px; fill: rgb(42, 63, 95); fill-opacity: 1; white-space: pre;">22</text><g class="layers" style="opacity: 0.1;"><g class="legendfill"/><g class="legendlines"><path class="js-line" d="M5,0h30" style="fill: none; stroke: rgb(183, 86, 135); stroke-opacity: 1; stroke-width: 6px;"/></g><g class="legendsymbols"><g class="legendpoints"/></g></g><rect class="legendtoggle" x="0" y="-9.5" width="53.861328125" height="19" style="fill: rgb(0, 0, 0); fill-opacity: 0;"/></g></g><g class="groups" transform="translate(0,230)"><g class="traces" transform="translate(0,451.5)" style="opacity: 1;"><text class="legendtext" text-anchor="start" x="40" y="4.680000000000001" style="font-family: 'Open Sans', verdana, arial, sans-serif; font-size: 12px; fill: rgb(42, 63, 95); fill-opacity: 1; white-space: pre;">23</text><g class="layers" style="opacity: 0.1;"><g class="legendfill"/><g class="legendlines"><path class="js-line" d="M5,0h30" style="fill: none; stroke: rgb(183, 86, 135); stroke-opacity: 1; stroke-width: 6px;"/></g><g class="legendsymbols"><g class="legendpoints"/></g></g><rect class="legendtoggle" x="0" y="-9.5" width="53.861328125" height="19" style="fill: rgb(0, 0, 0); fill-opacity: 0;"/></g></g><g class="groups" transform="translate(0,240)"><g class="traces" transform="translate(0,470.5)" style="opacity: 1;"><text class="legendtext" text-anchor="start" x="40" y="4.680000000000001" style="font-family: 'Open Sans', verdana, arial, sans-serif; font-size: 12px; fill: rgb(42, 63, 95); fill-opacity: 1; white-space: pre;">24</text><g class="layers" style="opacity: 0.1;"><g class="legendfill"/><g class="legendlines"><path class="js-line" d="M5,0h30" style="fill: none; stroke: rgb(183, 86, 135); stroke-opacity: 1; stroke-width: 6px;"/></g><g class="legendsymbols"><g class="legendpoints"/></g></g><rect class="legendtoggle" x="0" y="-9.5" width="53.861328125" height="19" style="fill: rgb(0, 0, 0); fill-opacity: 0;"/></g></g><g class="groups" transform="translate(0,250)"><g class="traces" transform="translate(0,489.5)" style="opacity: 1;"><text class="legendtext" text-anchor="start" x="40" y="4.680000000000001" style="font-family: 'Open Sans', verdana, arial, sans-serif; font-size: 12px; fill: rgb(42, 63, 95); fill-opacity: 1; white-space: pre;">25</text><g class="layers" style="opacity: 0.1;"><g class="legendfill"/><g class="legendlines"><path class="js-line" d="M5,0h30" style="fill: none; stroke: rgb(183, 86, 135); stroke-opacity: 1; stroke-width: 6px;"/></g><g class="legendsymbols"><g class="legendpoints"/></g></g><rect class="legendtoggle" x="0" y="-9.5" width="53.861328125" height="19" style="fill: rgb(0, 0, 0); fill-opacity: 0;"/></g></g><g class="groups" transform="translate(0,260)"><g class="traces" transform="translate(0,508.5)" style="opacity: 1;"><text class="legendtext" text-anchor="start" x="40" y="4.680000000000001" style="font-family: 'Open Sans', verdana, arial, sans-serif; font-size: 12px; fill: rgb(42, 63, 95); fill-opacity: 1; white-space: pre;">26</text><g class="layers" style="opacity: 0.1;"><g class="legendfill"/><g class="legendlines"><path class="js-line" d="M5,0h30" style="fill: none; stroke: rgb(183, 86, 135); stroke-opacity: 1; stroke-width: 6px;"/></g><g class="legendsymbols"><g class="legendpoints"/></g></g><rect class="legendtoggle" x="0" y="-9.5" width="53.861328125" height="19" style="fill: rgb(0, 0, 0); fill-opacity: 0;"/></g></g><g class="groups" transform="translate(0,270)"><g class="traces" transform="translate(0,527.5)" style="opacity: 1;"><text class="legendtext" text-anchor="start" x="40" y="4.680000000000001" style="font-family: 'Open Sans', verdana, arial, sans-serif; font-size: 12px; fill: rgb(42, 63, 95); fill-opacity: 1; white-space: pre;">27</text><g class="layers" style="opacity: 0.1;"><g class="legendfill"/><g class="legendlines"><path class="js-line" d="M5,0h30" style="fill: none; stroke: rgb(183, 86, 135); stroke-opacity: 1; stroke-width: 6px;"/></g><g class="legendsymbols"><g class="legendpoints"/></g></g><rect class="legendtoggle" x="0" y="-9.5" width="53.861328125" height="19" style="fill: rgb(0, 0, 0); fill-opacity: 0;"/></g></g><g class="groups" transform="translate(0,280)"><g class="traces" transform="translate(0,546.5)" style="opacity: 1;"><text class="legendtext" text-anchor="start" x="40" y="4.680000000000001" style="font-family: 'Open Sans', verdana, arial, sans-serif; font-size: 12px; fill: rgb(42, 63, 95); fill-opacity: 1; white-space: pre;">28</text><g class="layers" style="opacity: 0.1;"><g class="legendfill"/><g class="legendlines"><path class="js-line" d="M5,0h30" style="fill: none; stroke: rgb(183, 86, 135); stroke-opacity: 1; stroke-width: 6px;"/></g><g class="legendsymbols"><g class="legendpoints"/></g></g><rect class="legendtoggle" x="0" y="-9.5" width="53.861328125" height="19" style="fill: rgb(0, 0, 0); fill-opacity: 0;"/></g></g><g class="groups" transform="translate(0,290)"><g class="traces" transform="translate(0,565.5)" style="opacity: 1;"><text class="legendtext" text-anchor="start" x="40" y="4.680000000000001" style="font-family: 'Open Sans', verdana, arial, sans-serif; font-size: 12px; fill: rgb(42, 63, 95); fill-opacity: 1; white-space: pre;">29</text><g class="layers" style="opacity: 0.1;"><g class="legendfill"/><g class="legendlines"><path class="js-line" d="M5,0h30" style="fill: none; stroke: rgb(183, 86, 135); stroke-opacity: 1; stroke-width: 6px;"/></g><g class="legendsymbols"><g class="legendpoints"/></g></g><rect class="legendtoggle" x="0" y="-9.5" width="53.861328125" height="19" style="fill: rgb(0, 0, 0); fill-opacity: 0;"/></g></g><g class="groups" transform="translate(0,300)"><g class="traces" transform="translate(0,584.5)" style="opacity: 1;"><text class="legendtext" text-anchor="start" x="40" y="4.680000000000001" style="font-family: 'Open Sans', verdana, arial, sans-serif; font-size: 12px; fill: rgb(42, 63, 95); fill-opacity: 1; white-space: pre;">30</text><g class="layers" style="opacity: 0.1;"><g class="legendfill"/><g class="legendlines"><path class="js-line" d="M5,0h30" style="fill: none; stroke: rgb(183, 86, 135); stroke-opacity: 1; stroke-width: 6px;"/></g><g class="legendsymbols"><g class="legendpoints"/></g></g><rect class="legendtoggle" x="0" y="-9.5" width="53.861328125" height="19" style="fill: rgb(0, 0, 0); fill-opacity: 0;"/></g></g><g class="groups" transform="translate(0,310)"><g class="traces" transform="translate(0,603.5)" style="opacity: 1;"><text class="legendtext" text-anchor="start" x="40" y="4.680000000000001" style="font-family: 'Open Sans', verdana, arial, sans-serif; font-size: 12px; fill: rgb(42, 63, 95); fill-opacity: 1; white-space: pre;">31</text><g class="layers" style="opacity: 0.1;"><g class="legendfill"/><g class="legendlines"><path class="js-line" d="M5,0h30" style="fill: none; stroke: rgb(183, 86, 135); stroke-opacity: 1; stroke-width: 6px;"/></g><g class="legendsymbols"><g class="legendpoints"/></g></g><rect class="legendtoggle" x="0" y="-9.5" width="53.861328125" height="19" style="fill: rgb(0, 0, 0); fill-opacity: 0;"/></g></g></g><rect class="scrollbar" rx="20" ry="3" width="0" height="0" style="fill: rgb(128, 139, 164); fill-opacity: 1;" x="0" y="0"/></g><g class="g-gtitle"/><g class="g-xtitle"><text class="xtitle" x="306.36350000000004" y="361.3" text-anchor="middle" style="opacity: 1; font-family: 'Open Sans', verdana, arial, sans-serif; font-size: 14px; fill: rgb(42, 63, 95); fill-opacity: 1; white-space: pre;">time</text></g><g class="g-x2title"/><g class="g-ytitle"><text class="ytitle" transform="rotate(-90,45.865625,210)" x="45.865625" y="210" text-anchor="middle" style="opacity: 1; font-family: 'Open Sans', verdana, arial, sans-serif; font-size: 14px; fill: rgb(42, 63, 95); fill-opacity: 1; white-space: pre;">mean gamma</text></g><g class="g-y2title"/></g></svg>