<svg class="main-svg" xmlns="http://www.w3.org/2000/svg" xmlns:xlink="http://www.w3.org/1999/xlink" width="700" height="400" style="" viewBox="0 0 700 400"><rect x="0" y="0" width="700" height="400" style="fill: rgb(255, 255, 255); fill-opacity: 1;"/><defs id="defs-586f8f"><g class="clips"><clipPath id="clip586f8fxyplot" class="plotclip"><rect width="454.41" height="220"/></clipPath><clipPath id="clip586f8fx2y2plot" class="plotclip"><rect width="80.18999999999998" height="220"/></clipPath><clipPath class="axesclip" id="clip586f8fx"><rect x="80" y="0" width="454.41" height="400"/></clipPath><clipPath class="axesclip" id="clip586f8fy"><rect x="0" y="100" width="700" height="220"/></clipPath><clipPath class="axesclip" id="clip586f8fxy"><rect x="80" y="100" width="454.41" height="220"/></clipPath><clipPath class="axesclip" id="clip586f8fy2"><rect x="0" y="100" width="700" height="220"/></clipPath><clipPath class="axesclip" id="clip586f8fxy2"><rect x="80" y="100" width="454.41" height="220"/></clipPath><clipPath class="axesclip" id="clip586f8fx2"><rect x="539.81" y="0" width="80.18999999999998" height="400"/></clipPath><clipPath class="axesclip" id="clip586f8fx2y"><rect x="539.81" y="100" width="80.18999999999998" height="220"/></clipPath><clipPath class="axesclip" id="clip586f8fx2y2"><rect x="539.81" y="100" width="80.18999999999998" height="220"/></clipPath></g><g class="gradients"/><g class="patterns"/></defs><g class="bglayer"/><g class="layer-below"><g class="imagelayer"/><g class="shapelayer"/></g><g class="cartesianlayer"><g class="subplot xy"><g class="layer-subplot"><g class="shapelayer"/><g class="imagelayer"/></g><g class="minor-gridlayer"><g class="x"/><g class="y"/></g><g class="gridlayer"><g class="x"><path class="xgrid crisp" transform="translate(194.51999999999998,0)" d="M0,100v220" style="stroke: rgb(235, 240, 248); stroke-opacity: 1; stroke-width: 1px;"/><path class="xgrid crisp" transform="translate(309.27,0)" d="M0,100v220" style="stroke: rgb(235, 240, 248); stroke-opacity: 1; stroke-width: 1px;"/><path class="xgrid crisp" transform="translate(424.02,0)" d="M0,100v220" style="stroke: rgb(235, 240, 248); stroke-opacity: 1; stroke-width: 1px;"/></g><g class="y"><path class="ygrid crisp" transform="translate(0,315.94)" d="M80,0h454.41" style="stroke: rgb(235, 240, 248); stroke-opacity: 1; stroke-width: 1px;"/><path class="ygrid crisp" transform="translate(0,213.70999999999998)" d="M80,0h454.41" style="stroke: rgb(235, 240, 248); stroke-opacity: 1; stroke-width: 1px;"/><path class="ygrid crisp" transform="translate(0,162.59)" d="M80,0h454.41" style="stroke: rgb(235, 240, 248); stroke-opacity: 1; stroke-width: 1px;"/><path class="ygrid crisp" transform="translate(0,111.47)" d="M80,0h454.41" style="stroke: rgb(235, 240, 248); stroke-opacity: 1; stroke-width: 1px;"/></g></g><g class="zerolinelayer"><path class="yzl zl crisp" transform="translate(0,264.83000000000004)" d="M80,0h454.41" style="stroke: rgb(235, 240, 248); stroke-opacity: 1; stroke-width: 2px;"/></g><g class="layer-between"><g class="shapelayer"/><g class="imagelayer"/></g><path class="xlines-below"/><path class="ylines-below"/><g class="overlines-below"/><g class="xaxislayer-below"/><g class="yaxislayer-below"/><g class="overaxes-below"/><g class="overplot"><g class="xy" transform="translate(80,100)" clip-path="url(#clip586f8fxyplot)"><g class="scatterlayer mlayer"><g class="trace scatter traced70ab7" style="stroke-miterlimit: 2; opacity: 0.1;"><g class="fills"/><g class="errorbars"/><g class="lines"><path class="js-line" d="M0,164.15L13.77,163.13L18.36,165.8L22.95,168.18L27.54,166.88L32.13,171.76L36.72,172.56L50.49,169.03L55.08,166.66L59.67,171.07L64.26,172.82L73.44,168.05L78.03,167.75L82.62,164.43L87.21,163.54L91.8,162.46L96.39,158.07L100.98,158.75L105.57,140.83L114.75,76.27L119.34,68.55L128.52,54.93L133.11,49.3L137.7,47.57L142.29,43.99L146.88,46.43L151.47,43.82L156.06,47.31L160.65,44.24L165.24,42.97L169.83,45.12L174.42,43.78L179.01,44.48L183.6,44.17L188.19,45.81L206.55,42.29L211.14,43.8L220.32,46.42L224.91,42.47L229.5,40.07L234.09,39.56L238.68,40.05L243.27,37.1L257.04,37.14L261.63,38.81L266.22,40.42L270.81,38.96L275.4,40.08L279.99,38.3L284.58,35.25L289.17,38.72L293.76,40.7L298.35,40.07L307.53,45.84L312.12,45.92L321.3,40.23L325.89,37.96L335.07,36.63L339.66,42.08L344.25,38.42L348.84,37.5L353.43,36.73L358.02,38.07L362.61,37.73L367.2,34.12L380.97,38.15L385.56,38.08L394.74,24.01L399.33,23.53L403.92,26.37L408.51,20.6L417.69,11.61L422.28,14.81L431.46,15.56L436.05,14.97L449.82,15.96L454.41,11.75" style="vector-effect: none; fill: none; stroke: rgb(183, 86, 135); stroke-opacity: 1; stroke-width: 6px; opacity: 1;"/></g><g class="points"/><g class="text"/></g><g class="trace scatter tracec18dbd" style="stroke-miterlimit: 2; opacity: 0.1;"><g class="fills"/><g class="errorbars"/><g class="lines"><path class="js-line" d="M0,165.07L4.59,166.2L9.18,164.44L13.77,166.09L18.36,165.44L22.95,164.56L27.54,165.44L32.13,166.29L36.72,165.12L45.9,163.91L50.49,157.74L64.26,156.4L68.85,153.92L73.44,148.98L78.03,137.74L87.21,83.1L91.8,64.45L96.39,64.87L100.98,55.77L110.16,41.9L114.75,40.34L133.11,41.88L137.7,38.61L142.29,41.76L146.88,38.01L156.06,34.36L160.65,37.09L169.83,37.97L174.42,35.14L179.01,30.99L183.6,29.93L188.19,28.38L192.78,28.7L197.37,26.97L201.96,30.57L206.55,31.19L211.14,35.39L220.32,27.91L224.91,29.61L229.5,30.24L234.09,28.22L238.68,30.6L243.27,30.54L252.45,26.04L257.04,27.07L261.63,28.77L266.22,28.08L270.81,33.39L275.4,29.48L279.99,24.8L284.58,26.26L289.17,28.81L293.76,28.83L298.35,27L302.94,35.24L312.12,29.31L316.71,33.21L325.89,28.01L330.48,24.09L335.07,20.16L339.66,18.24L358.02,21.1L362.61,18.39L367.2,20.41L371.79,20.78L376.38,25.2L380.97,24.63L385.56,20.09L390.15,21.43L394.74,18.2L399.33,18.04L403.92,13.83L408.51,13.85L422.28,20.81L426.87,26.62L431.46,23.15L436.05,23.66L440.64,22.1L445.23,26.39L454.41,29.88" style="vector-effect: none; fill: none; stroke: rgb(183, 86, 135); stroke-opacity: 1; stroke-width: 6px; opacity: 1;"/></g><g class="points"/><g class="text"/></g><g class="trace scatter traceb5d936" style="stroke-miterlimit: 2; opacity: 0.1;"><g class="fills"/><g class="errorbars"/><g class="lines"><path class="js-line" d="M0,164.91L4.59,166.25L9.18,165.26L13.77,162.75L18.36,149.13L22.95,143.15L27.54,114.45L36.72,55.8L41.31,50.03L55.08,25.52L59.67,28.63L64.26,21.61L68.85,23.35L82.62,24.7L87.21,20.81L91.8,22.66L96.39,22.31L105.57,29.31L110.16,31.08L114.75,34.44L119.34,30.69L123.93,32.2L128.52,30.51L133.11,31.56L137.7,37.67L142.29,37.36L146.88,31.9L151.47,30.96L156.06,33.71L160.65,31.59L165.24,33.19L174.42,24.47L179.01,23.91L183.6,24.38L188.19,26.43L192.78,27.78L197.37,33.01L211.14,33.6L215.73,27.59L220.32,21.23L224.91,19.12L234.09,15.42L238.68,17.04L247.86,13.11L252.45,14.21L257.04,20.13L261.63,21.12L270.81,24.16L275.4,24L279.99,23.6L284.58,21.17L289.17,25.07L293.76,25.17L307.53,25.93L312.12,29.22L316.71,30.65L321.3,36.58L325.89,35.23L330.48,31.64L335.07,30.51L339.66,34.06L344.25,37.37L348.84,36.13L353.43,35.27L358.02,36.32L367.2,39.36L371.79,37.88L385.56,34.11L390.15,33.71L399.33,34.15L403.92,36.57L408.51,31.64L413.1,29.61L417.69,30.03L422.28,28.32L431.46,32.17L436.05,31.88L445.23,33.38L449.82,31.59L454.41,34.14" style="vector-effect: none; fill: none; stroke: rgb(183, 86, 135); stroke-opacity: 1; stroke-width: 6px; opacity: 1;"/></g><g class="points"/><g class="text"/></g><g class="trace scatter trace35308f" style="stroke-miterlimit: 2; opacity: 0.1;"><g class="fills"/><g class="errorbars"/><g class="lines"><path class="js-line" d="M0,164.37L9.18,161.71L13.77,162.41L18.36,164.64L22.95,164.93L36.72,158.95L41.31,158.86L45.9,160.92L50.49,154.2L55.08,151.83L59.67,144.98L64.26,146.15L68.85,143.39L78.03,157L82.62,152.63L87.21,151.67L91.8,144.49L96.39,144.65L100.98,137.34L110.16,140L114.75,142.39L123.93,139.91L128.52,138.93L133.11,134.25L137.7,138.06L151.47,132.09L156.06,131.79L160.65,131.38L165.24,118.39L169.83,116.98L174.42,108.28L179.01,101.51L183.6,89.23L188.19,77.04L192.78,69.14L201.96,55.63L206.55,53.94L211.14,48.56L215.73,46.79L220.32,40.03L224.91,36.86L238.68,40.01L243.27,40.54L257.04,38.51L261.63,37.44L266.22,34.45L270.81,34.05L275.4,33.09L279.99,35.29L289.17,30.6L293.76,24.5L298.35,23.96L302.94,27.51L307.53,24.24L312.12,25.38L316.71,27.89L321.3,28.49L325.89,34.66L330.48,36.84L344.25,39.36L348.84,40.79L358.02,33.26L362.61,34.78L367.2,38.15L371.79,35.05L376.38,30.32L380.97,32.06L385.56,33.76L390.15,33.71L394.74,33.74L399.33,35.39L408.51,29.78L413.1,31.83L417.69,33.37L422.28,39.88L426.87,34.17L431.46,35.24L436.05,37.18L440.64,36.45L445.23,33.66L449.82,37.02L454.41,38.99" style="vector-effect: none; fill: none; stroke: rgb(183, 86, 135); stroke-opacity: 1; stroke-width: 6px; opacity: 1;"/></g><g class="points"/><g class="text"/></g><g class="trace scatter trace5336a3" style="stroke-miterlimit: 2; opacity: 0.1;"><g class="fills"/><g class="errorbars"/><g class="lines"><path class="js-line" d="M0,165.36L4.59,164.36L9.18,165.19L22.95,169.26L27.54,168.74L32.13,168.61L36.72,166.18L50.49,178.34L55.08,174.41L59.67,172.24L64.26,171.74L73.44,166.12L78.03,168.43L82.62,167.83L87.21,178.64L91.8,175.63L96.39,177.93L100.98,185.43L105.57,189.26L110.16,191.53L114.75,184.23L119.34,182.25L123.93,182.82L128.52,186.93L133.11,185.17L142.29,181.94L146.88,180.15L156.06,190.06L160.65,192.26L165.24,196.72L169.83,193.08L179.01,191.42L183.6,187.46L188.19,191.19L192.78,197.35L197.37,192.66L201.96,197.77L215.73,195.99L220.32,187.19L229.5,188.29L234.09,184.3L238.68,177.82L243.27,177.27L252.45,178.73L257.04,175.59L261.63,174.62L266.22,180.09L270.81,183.65L275.4,181.86L289.17,175.11L293.76,169.33L298.35,169.37L302.94,171.27L307.53,171.91L312.12,174.14L316.71,177.22L321.3,175.77L325.89,180.86L330.48,180.9L335.07,178.32L339.66,184.1L348.84,179.69L353.43,176.33L362.61,181.16L367.2,176.43L371.79,176.4L376.38,171.7L390.15,165.09L394.74,166.9L399.33,166.88L403.92,170.3L408.51,170.55L413.1,167.01L417.69,177.5L422.28,176.58L426.87,176.7L431.46,178.81L436.05,180.42L440.64,184.82L445.23,186.58L449.82,186.54L454.41,190.03" style="vector-effect: none; fill: none; stroke: rgb(183, 86, 135); stroke-opacity: 1; stroke-width: 6px; opacity: 1;"/></g><g class="points"/><g class="text"/></g><g class="trace scatter trace9e5fd6" style="stroke-miterlimit: 2; opacity: 0.1;"><g class="fills"/><g class="errorbars"/><g class="lines"><path class="js-line" d="M0,164.96L13.77,165.82L18.36,168.92L32.13,169.77L36.72,168.53L41.31,171.01L45.9,176.78L50.49,173.95L55.08,173.81L59.67,174.87L64.26,171.31L73.44,178.94L78.03,178.47L82.62,174.62L87.21,173.01L91.8,177.19L96.39,178.8L100.98,183.28L105.57,184.78L110.16,180.73L114.75,179.62L119.34,176.23L123.93,180.55L128.52,181.18L133.11,175.21L137.7,175.52L142.29,181.32L146.88,184.49L151.47,181.67L160.65,180.22L165.24,182.57L169.83,183.29L174.42,179.47L192.78,166.7L197.37,172.83L201.96,180.91L206.55,177.59L211.14,168.09L215.73,167.84L220.32,162.02L224.91,161.57L234.09,166.97L238.68,169.81L243.27,171.37L247.86,170.8L252.45,171.48L257.04,168.25L266.22,185.76L270.81,179.27L275.4,171.75L279.99,133.67L284.58,127.7L289.17,104.63L298.35,75.11L302.94,60.02L312.12,39.8L316.71,45.11L321.3,30.47L325.89,29.04L330.48,20.28L335.07,19.24L344.25,17L348.84,18.52L353.43,22.77L358.02,19.15L371.79,19.33L376.38,16.13L385.56,15.12L390.15,11.79L394.74,11.4L399.33,14.53L403.92,18.12L408.51,18.75L413.1,20.11L417.69,15.45L426.87,17.87L431.46,19.67L436.05,25L440.64,26.88L445.23,30.35L449.82,26.2L454.41,31.17" style="vector-effect: none; fill: none; stroke: rgb(183, 86, 135); stroke-opacity: 1; stroke-width: 6px; opacity: 1;"/></g><g class="points"/><g class="text"/></g><g class="trace scatter tracec2a63c" style="stroke-miterlimit: 2; opacity: 0.1;"><g class="fills"/><g class="errorbars"/><g class="lines"><path class="js-line" d="M0,165.32L4.59,163.63L9.18,163.56L13.77,159.21L18.36,159.16L22.95,159.8L27.54,157.83L32.13,150.61L36.72,146.19L41.31,145.89L45.9,140.66L50.49,138.81L55.08,139.12L59.67,141.6L64.26,141.79L73.44,148.04L78.03,147.35L82.62,146.53L87.21,141.21L100.98,143.32L105.57,147.48L110.16,139.97L114.75,146.56L119.34,142.21L123.93,144.58L128.52,134.86L133.11,132.41L137.7,128.88L142.29,119.51L151.47,101.56L156.06,79.29L160.65,70.8L165.24,73.39L169.83,55.01L174.42,56.02L179.01,43.02L183.6,47.43L188.19,40.61L192.78,36.84L197.37,29.85L201.96,26.76L206.55,25.91L211.14,23.38L220.32,25.09L224.91,21.75L234.09,24.74L238.68,30.92L243.27,28.39L247.86,28.05L261.63,31.02L266.22,30.36L270.81,29.01L275.4,31.89L279.99,33.32L284.58,31.89L289.17,28.38L293.76,28.85L302.94,29.56L307.53,25.84L312.12,27.26L316.71,24.99L321.3,23.05L325.89,23.25L335.07,20.87L339.66,16.63L344.25,19.3L348.84,19.02L362.61,14.53L367.2,16.03L371.79,11.81L376.38,13.19L380.97,14.99L385.56,13.95L390.15,17.54L394.74,19.08L399.33,18.39L403.92,13.8L408.51,11L413.1,13.8L417.69,19.24L422.28,18.02L426.87,19.84L431.46,19.67L436.05,19.6L440.64,16.78L449.82,15.19L454.41,15.55" style="vector-effect: none; fill: none; stroke: rgb(183, 86, 135); stroke-opacity: 1; stroke-width: 6px; opacity: 1;"/></g><g class="points"/><g class="text"/></g><g class="trace scatter tracea6ef52" style="stroke-miterlimit: 2; opacity: 0.1;"><g class="fills"/><g class="errorbars"/><g class="lines"><path class="js-line" d="M0,165.05L9.18,163.91L13.77,163.17L32.13,168.05L36.72,165.88L41.31,167.37L45.9,166.29L50.49,163.89L55.08,163.65L59.67,167.14L64.26,174.53L68.85,167.53L73.44,169.23L78.03,169.19L82.62,171.49L87.21,174.13L91.8,170.57L96.39,173.59L100.98,172.84L105.57,170.13L110.16,171.05L114.75,169L119.34,170.25L123.93,174.35L128.52,175.93L133.11,173.9L137.7,173.76L142.29,167.94L146.88,168.83L151.47,169.55L156.06,174.22L165.24,174.15L169.83,170.93L174.42,170.95L179.01,167.47L183.6,167.56L188.19,169.16L192.78,168.53L197.37,171.11L201.96,173.59L206.55,170.7L211.14,166.8L215.73,174.3L220.32,167.66L224.91,170.4L229.5,162.57L234.09,161.55L238.68,165.86L243.27,167.39L247.86,167.96L252.45,165.71L257.04,166.31L261.63,163.5L266.22,160.22L270.81,163.27L279.99,156.19L284.58,156.84L289.17,155.31L293.76,155.85L298.35,153.73L302.94,159.3L307.53,159.73L312.12,156.08L316.71,148.97L321.3,137.39L325.89,118.67L330.48,107.16L335.07,90.93L339.66,68.91L348.84,46.56L353.43,48.36L358.02,45.31L362.61,50.05L371.79,42.46L376.38,38.59L380.97,34.05L385.56,35.54L390.15,37.04L394.74,36.16L399.33,32.97L403.92,33L413.1,32.8L417.69,28.73L422.28,34.59L426.87,33.07L431.46,33.04L436.05,36.43L445.23,34.55L449.82,36.9L454.41,38.67" style="vector-effect: none; fill: none; stroke: rgb(183, 86, 135); stroke-opacity: 1; stroke-width: 6px; opacity: 1;"/></g><g class="points"/><g class="text"/></g><g class="trace scatter trace02c7db" style="stroke-miterlimit: 2; opacity: 0.1;"><g class="fills"/><g class="errorbars"/><g class="lines"><path class="js-line" d="M0,164.83L13.77,170.84L18.36,172.83L22.95,173.48L27.54,170.23L36.72,173.47L41.31,171.69L45.9,170.75L50.49,172.02L59.67,165.89L64.26,168.48L68.85,170.56L73.44,168.78L78.03,171.03L82.62,166.22L96.39,166.05L100.98,169.18L110.16,169.01L114.75,176.3L119.34,176.47L123.93,180.28L128.52,185.5L133.11,186.36L137.7,188.1L142.29,187.92L146.88,196.84L151.47,199.44L156.06,209L160.65,207.57L165.24,204.26L169.83,207.72L174.42,202.02L179.01,199.37L183.6,192.68L188.19,198.48L192.78,199.37L197.37,195.39L201.96,188.37L206.55,192.88L215.73,183.45L220.32,186.88L224.91,183.96L229.5,183.49L234.09,181.58L238.68,173.72L243.27,179.33L247.86,182.28L252.45,173.67L257.04,174.3L261.63,180.81L266.22,183.52L270.81,183.01L275.4,177.56L279.99,175.82L284.58,178.49L289.17,177.8L293.76,175.36L298.35,174.76L302.94,178.86L307.53,172.46L312.12,175.38L316.71,175.37L321.3,176.98L325.89,171.08L330.48,171.12L335.07,173.83L339.66,174.39L344.25,174.4L348.84,172.83L358.02,174.79L362.61,176.96L367.2,178.92L371.79,175.8L376.38,180.17L380.97,178.47L385.56,176.32L390.15,182.98L394.74,189.09L399.33,179.61L403.92,179.24L408.51,181.58L417.69,167.4L422.28,166.64L431.46,164.36L436.05,169.09L449.82,164.46L454.41,169.66" style="vector-effect: none; fill: none; stroke: rgb(183, 86, 135); stroke-opacity: 1; stroke-width: 6px; opacity: 1;"/></g><g class="points"/><g class="text"/></g><g class="trace scatter trace71a79d" style="stroke-miterlimit: 2; opacity: 0.1;"><g class="fills"/><g class="errorbars"/><g class="lines"><path class="js-line" d="M0,165.63L13.77,166.36L18.36,171.48L32.13,171.95L36.72,167.17L50.49,175.79L55.08,172.66L64.26,172.87L68.85,170.31L78.03,164.72L82.62,166.38L87.21,166.85L91.8,165.06L100.98,164.05L105.57,160.58L110.16,161.24L114.75,155.99L119.34,145.91L123.93,126.82L133.11,120.92L137.7,109.78L142.29,102.38L146.88,104.29L151.47,97.2L156.06,100.94L160.65,94.09L165.24,91.18L169.83,89.57L174.42,90.52L188.19,93.01L192.78,98.73L197.37,95.89L201.96,104.04L206.55,108.29L211.14,104.91L215.73,109.05L220.32,102.12L224.91,94.22L229.5,90.25L234.09,82.7L238.68,81.62L252.45,85.65L257.04,83.56L266.22,81.62L270.81,84.53L275.4,83.22L279.99,84.54L284.58,88.22L289.17,88.04L293.76,91.07L298.35,90.65L307.53,95.41L312.12,94.94L321.3,90.5L325.89,89.14L330.48,91.72L335.07,88.65L339.66,86.74L344.25,90.55L353.43,86.24L358.02,86.71L362.61,86.13L367.2,88.39L371.79,85.97L376.38,85.7L385.56,82.6L390.15,84.39L394.74,86.43L399.33,86.2L408.51,86.49L413.1,87L422.28,87.55L426.87,83.23L431.46,83.55L436.05,86.74L445.23,89.74L449.82,89.12L454.41,88.05" style="vector-effect: none; fill: none; stroke: rgb(183, 86, 135); stroke-opacity: 1; stroke-width: 6px; opacity: 1;"/></g><g class="points"/><g class="text"/></g><g class="trace scatter trace1e2f90" style="stroke-miterlimit: 2; opacity: 0.1;"><g class="fills"/><g class="errorbars"/><g class="lines"><path class="js-line" d="M0,164.53L13.77,164.75L18.36,166.76L27.54,167.86L32.13,172.19L55.08,172.37L59.67,173.84L64.26,173.08L68.85,170.12L73.44,170.2L78.03,167.71L82.62,165.47L87.21,167.68L91.8,164.79L96.39,164.09L110.16,169.42L114.75,173.8L123.93,168.47L128.52,166.58L133.11,171.89L137.7,165.99L142.29,168.62L146.88,164.66L151.47,162.79L156.06,164.97L160.65,168.36L165.24,175.7L169.83,179.79L174.42,179.75L183.6,171.77L188.19,169.12L206.55,165.46L211.14,164.87L229.5,160.37L234.09,164.83L238.68,167.48L243.27,168.15L247.86,166.03L252.45,169.12L257.04,166L261.63,166.22L266.22,167.63L270.81,166.32L275.4,166.63L279.99,162.71L293.76,165.41L298.35,163.58L302.94,163.15L307.53,164.68L312.12,163.5L316.71,164.55L321.3,163.18L325.89,166.99L330.48,169.12L335.07,165.12L344.25,166.99L348.84,171.7L353.43,170.12L358.02,172.73L367.2,169.86L371.79,164.51L380.97,162.63L385.56,158.56L394.74,159.3L399.33,160.42L403.92,163.93L408.51,164.37L413.1,162.81L417.69,168.32L422.28,168.91L426.87,164.87L431.46,156.63L436.05,156.5L440.64,152.48L445.23,152.56L449.82,150.24L454.41,154.47" style="vector-effect: none; fill: none; stroke: rgb(183, 86, 135); stroke-opacity: 1; stroke-width: 6px; opacity: 1;"/></g><g class="points"/><g class="text"/></g><g class="trace scatter tracef06327" style="stroke-miterlimit: 2; opacity: 0.1;"><g class="fills"/><g class="errorbars"/><g class="lines"><path class="js-line" d="M0,165.42L9.18,164.15L13.77,163.12L18.36,165.43L22.95,165.55L45.9,164.84L50.49,151.18L59.67,124.83L64.26,123.24L68.85,109.84L73.44,106.32L78.03,108.94L82.62,105.06L87.21,101.24L91.8,102.11L96.39,103.08L100.98,106.5L110.16,102.9L114.75,103.3L119.34,104.47L123.93,103.67L128.52,108.29L133.11,119.15L137.7,113.46L142.29,113.19L146.88,117.81L151.47,115.49L165.24,117.01L169.83,114.45L174.42,116.55L179.01,112.43L183.6,110.95L188.19,107.33L192.78,106.55L197.37,107.82L201.96,104.84L206.55,103.66L211.14,103.66L215.73,101.76L224.91,98.43L229.5,99.71L234.09,101.25L238.68,98.73L243.27,96.25L247.86,98.5L252.45,98.58L257.04,92.13L270.81,92.4L275.4,94.64L284.58,92.5L289.17,90.04L293.76,91.74L298.35,96.97L307.53,85.37L312.12,87.27L316.71,85.86L321.3,88.58L325.89,88.17L330.48,89.67L339.66,88.89L344.25,92.13L348.84,91.41L353.43,88.91L358.02,88.98L362.61,92.74L376.38,89.22L380.97,93.09L385.56,93.82L390.15,91.66L394.74,95.95L399.33,94.13L403.92,97.23L408.51,95.31L413.1,98.71L417.69,94.09L422.28,96.71L426.87,93.41L431.46,96.65L436.05,96.82L440.64,97.78L445.23,94.13L449.82,97.61L454.41,97.04" style="vector-effect: none; fill: none; stroke: rgb(183, 86, 135); stroke-opacity: 1; stroke-width: 6px; opacity: 1;"/></g><g class="points"/><g class="text"/></g><g class="trace scatter trace766420" style="stroke-miterlimit: 2; opacity: 0.1;"><g class="fills"/><g class="errorbars"/><g class="lines"><path class="js-line" d="M0,164.9L4.59,165.91L9.18,163.93L18.36,167.84L22.95,167.66L32.13,166.32L36.72,168.08L41.31,166.99L45.9,170.22L50.49,172.65L55.08,170.91L59.67,167.66L64.26,167.35L68.85,164.15L73.44,165.41L82.62,166.12L87.21,163.26L96.39,165.06L100.98,160.9L105.57,154.54L110.16,151.57L119.34,138.62L123.93,130.94L137.7,110.39L142.29,108.86L146.88,108.56L151.47,101.05L156.06,87.38L160.65,82.29L165.24,74.03L169.83,72.18L174.42,70.26L179.01,70.3L183.6,70.75L188.19,68.77L192.78,67.05L197.37,68.45L206.55,65.73L211.14,68.94L215.73,67.92L220.32,65.14L229.5,70.39L234.09,68.59L238.68,70.15L243.27,67.44L247.86,67.46L252.45,72.64L257.04,70.57L261.63,74.88L266.22,72.28L270.81,73.79L275.4,70.29L279.99,69.54L289.17,65.43L293.76,68.73L298.35,68.32L302.94,71.05L312.12,64.29L316.71,63.1L321.3,66.35L325.89,65.59L335.07,63.48L339.66,65.81L344.25,69.03L348.84,67.67L353.43,64.05L358.02,62.7L367.2,60.05L371.79,59.8L376.38,61.81L380.97,61.41L385.56,63.74L390.15,61.67L394.74,59.65L399.33,61.35L403.92,58.45L408.51,58L413.1,56.87L417.69,53.67L422.28,53.98L426.87,56.17L431.46,56.34L436.05,58.66L445.23,62.57L449.82,60.02L454.41,60.49" style="vector-effect: none; fill: none; stroke: rgb(183, 86, 135); stroke-opacity: 1; stroke-width: 6px; opacity: 1;"/></g><g class="points"/><g class="text"/></g><g class="trace scatter trace683cd4" style="stroke-miterlimit: 2; opacity: 0.1;"><g class="fills"/><g class="errorbars"/><g class="lines"><path class="js-line" d="M0,165.31L4.59,165.55L9.18,163.57L18.36,166.4L22.95,164.97L32.13,168.12L36.72,169.06L41.31,171.13L45.9,169.2L73.44,162.5L78.03,163.29L82.62,161.27L87.21,162.37L100.98,156.22L105.57,150.64L110.16,155.67L114.75,155.17L119.34,154.94L123.93,159.65L128.52,153.3L133.11,154.02L137.7,157.72L142.29,154.48L156.06,142.94L160.65,142.11L169.83,133.94L174.42,129.76L179.01,124.54L183.6,125.42L188.19,121.64L192.78,121.03L197.37,120.1L201.96,121.95L206.55,119.12L211.14,123.49L215.73,139.34L220.32,128.24L224.91,118.62L229.5,112.97L234.09,107.27L238.68,96.95L247.86,64.75L252.45,62.08L261.63,56.13L266.22,60.02L275.4,51.12L279.99,51.17L289.17,47.74L293.76,48.11L298.35,46.68L302.94,48L312.12,51.85L316.71,54.26L321.3,54.7L325.89,50.94L348.84,53.23L353.43,58.1L358.02,57.19L362.61,60.42L371.79,57.33L376.38,63.88L380.97,69.78L385.56,67.93L390.15,63.61L394.74,63.46L399.33,60.38L403.92,60.16L408.51,56.17L413.1,55.05L417.69,58.82L422.28,56.22L426.87,55.72L431.46,52.83L436.05,52.2L440.64,54.22L445.23,52.65L449.82,56.04L454.41,58.07" style="vector-effect: none; fill: none; stroke: rgb(183, 86, 135); stroke-opacity: 1; stroke-width: 6px; opacity: 1;"/></g><g class="points"/><g class="text"/></g><g class="trace scatter tracee1cf3f" style="stroke-miterlimit: 2; opacity: 0.1;"><g class="fills"/><g class="errorbars"/><g class="lines"><path class="js-line" d="M0,165.25L13.77,162.99L18.36,165.49L22.95,164.07L27.54,160.9L32.13,159.04L36.72,161.56L45.9,157.97L50.49,158.28L55.08,156.75L59.67,157.72L64.26,152.89L68.85,159.25L73.44,158.82L78.03,160.01L91.8,165.94L96.39,163.56L100.98,168.19L105.57,168.34L114.75,167.48L119.34,164.65L123.93,168.15L128.52,165.21L137.7,167.81L142.29,166.66L146.88,163.94L151.47,165.73L156.06,165.64L160.65,164.02L165.24,165.53L169.83,165.01L174.42,164L179.01,161.13L183.6,165.49L188.19,158.95L197.37,151.94L201.96,130.62L206.55,120.37L211.14,99.05L215.73,89.52L220.32,94.05L229.5,75.37L234.09,55.74L238.68,56.01L243.27,48.03L261.63,46.45L266.22,46.54L270.81,46.39L275.4,48.34L279.99,47.31L284.58,50.12L302.94,47.38L307.53,44.66L312.12,43.22L316.71,44.67L321.3,42.55L325.89,43.78L330.48,49.15L335.07,47.09L339.66,49.18L344.25,47.44L348.84,43.25L353.43,45.35L371.79,44.71L376.38,48.55L380.97,49.82L385.56,48.46L399.33,49.1L403.92,46.01L408.51,51.01L413.1,47.14L417.69,45.89L422.28,41.5L426.87,43.01L431.46,46.45L440.64,45.38L445.23,39.28L449.82,35.34L454.41,33.51" style="vector-effect: none; fill: none; stroke: rgb(183, 86, 135); stroke-opacity: 1; stroke-width: 6px; opacity: 1;"/></g><g class="points"/><g class="text"/></g><g class="trace scatter trace75379d" style="stroke-miterlimit: 2; opacity: 0.1;"><g class="fills"/><g class="errorbars"/><g class="lines"><path class="js-line" d="M0,165.09L9.18,168.15L13.77,168.72L18.36,169.19L22.95,167.59L32.13,168.01L36.72,162.89L41.31,162.66L45.9,157.69L55.08,153.19L59.67,154L64.26,154.91L68.85,151.27L78.03,156.85L82.62,153.05L87.21,156.12L91.8,151.43L96.39,149.61L100.98,144.33L105.57,147.9L110.16,148L119.34,150.89L123.93,145.93L128.52,150.55L133.11,159.83L137.7,163.22L142.29,152.86L146.88,144.83L151.47,125.45L160.65,70.62L165.24,64.87L169.83,57.55L174.42,39.2L179.01,34.83L183.6,37.15L188.19,34.42L192.78,36.52L197.37,37.07L201.96,40.47L206.55,41.06L211.14,36.58L220.32,31.49L224.91,31.16L243.27,34.72L247.86,38.27L252.45,42.19L257.04,36.97L261.63,35.07L266.22,36.26L270.81,35.81L275.4,37.83L284.58,35.52L289.17,37.51L298.35,35.39L302.94,36.13L307.53,35.07L312.12,36.21L321.3,30.36L325.89,30.71L330.48,28.54L335.07,32.61L339.66,31.77L344.25,33.96L348.84,34.54L353.43,29.81L358.02,25.17L362.61,24.08L371.79,31.6L376.38,36.07L385.56,38.48L390.15,36.81L394.74,32.11L399.33,34.39L403.92,33.25L408.51,36.98L413.1,37.12L417.69,35.6L422.28,35.39L426.87,32.87L431.46,33.22L436.05,31.14L445.23,37.88L449.82,37.29L454.41,37.56" style="vector-effect: none; fill: none; stroke: rgb(183, 86, 135); stroke-opacity: 1; stroke-width: 6px; opacity: 1;"/></g><g class="points"/><g class="text"/></g><g class="trace scatter trace86dde7" style="stroke-miterlimit: 2; opacity: 0.1;"><g class="fills"/><g class="errorbars"/><g class="lines"><path class="js-line" d="M0,164.25L9.18,161.42L13.77,163.12L18.36,166.09L22.95,165.06L27.54,167.8L32.13,165.38L36.72,164.32L41.31,164.88L50.49,162.03L55.08,165.07L64.26,161.69L68.85,162.65L73.44,161.35L78.03,164.37L82.62,161.91L87.21,164.59L91.8,161.27L96.39,155.19L100.98,152.62L105.57,153.5L110.16,157.64L114.75,156.6L119.34,154.45L123.93,156.84L128.52,155.48L133.11,147.71L151.47,73.01L156.06,59.34L160.65,66.57L165.24,54.86L174.42,39.95L179.01,39.92L183.6,37.81L188.19,42.16L197.37,41.86L201.96,37.97L215.73,34.96L220.32,36.46L229.5,35.06L234.09,36.7L243.27,34.77L247.86,38.54L257.04,36.54L261.63,34.87L266.22,43.37L270.81,43.78L275.4,41.28L279.99,41.38L289.17,45.53L293.76,50.09L298.35,49.75L302.94,43.99L321.3,45.83L325.89,45.25L330.48,43.58L335.07,46.65L344.25,41.97L348.84,44.36L358.02,44.37L362.61,45.53L380.97,49.03L385.56,48.84L394.74,44.25L399.33,46.11L408.51,36.08L413.1,39.63L426.87,47.22L431.46,43.46L436.05,43.34L440.64,41.39L445.23,43.76L449.82,37.65L454.41,37.45" style="vector-effect: none; fill: none; stroke: rgb(183, 86, 135); stroke-opacity: 1; stroke-width: 6px; opacity: 1;"/></g><g class="points"/><g class="text"/></g><g class="trace scatter trace7025d9" style="stroke-miterlimit: 2; opacity: 0.1;"><g class="fills"/><g class="errorbars"/><g class="lines"><path class="js-line" d="M0,164.7L4.59,162.8L9.18,164.14L13.77,166.41L18.36,163.04L22.95,159.59L27.54,141.39L32.13,118.13L36.72,113.14L41.31,103.93L45.9,65.63L50.49,47.21L55.08,47.22L59.67,29.86L64.26,22.42L68.85,13.01L73.44,12.53L82.62,17.26L87.21,17.42L91.8,21.67L96.39,23.33L105.57,15.97L110.16,18.24L114.75,18.86L119.34,22.19L128.52,20.59L133.11,26.74L142.29,33.2L146.88,32.73L151.47,29.04L156.06,28.79L160.65,28.54L165.24,29.93L169.83,28.49L174.42,35.99L179.01,33.43L183.6,36.4L188.19,35.52L192.78,36.51L197.37,35.72L201.96,37.51L206.55,37.01L211.14,40.01L215.73,40.12L220.32,37.79L229.5,33.59L234.09,42.5L238.68,42.7L243.27,37.16L247.86,37.52L252.45,39.5L257.04,39.69L261.63,36.32L266.22,32.44L270.81,33.4L275.4,37.87L279.99,34.4L284.58,33.58L289.17,34.51L298.35,35.25L302.94,32.6L316.71,32.04L321.3,29.02L325.89,28.81L330.48,24.1L335.07,25.59L339.66,25.44L344.25,23.49L348.84,23.42L362.61,30.07L367.2,30.76L376.38,30.54L380.97,33.33L385.56,33.7L390.15,31.27L399.33,33.82L403.92,30.36L408.51,28.33L413.1,30.03L417.69,27.28L422.28,28.35L431.46,27.77L436.05,33.64L440.64,28.63L445.23,29.2L449.82,29.78L454.41,26.97" style="vector-effect: none; fill: none; stroke: rgb(183, 86, 135); stroke-opacity: 1; stroke-width: 6px; opacity: 1;"/></g><g class="points"/><g class="text"/></g><g class="trace scatter trace0809a0" style="stroke-miterlimit: 2; opacity: 0.1;"><g class="fills"/><g class="errorbars"/><g class="lines"><path class="js-line" d="M0,163.93L22.95,162.52L27.54,158.41L32.13,162.41L36.72,161.89L41.31,159.72L45.9,154.63L59.67,148.35L64.26,157.11L68.85,150.87L73.44,130.99L82.62,104.85L87.21,97.62L91.8,88.65L96.39,87.12L100.98,84.54L105.57,87.5L110.16,81.55L114.75,81.08L123.93,78.13L128.52,73.97L137.7,67.96L142.29,60.96L146.88,55.14L151.47,53.91L156.06,53.05L160.65,49.14L165.24,50.64L169.83,49.87L174.42,49.15L179.01,50.02L183.6,52.14L188.19,52.4L192.78,48.72L197.37,48.27L201.96,45.49L206.55,46.55L215.73,54.62L220.32,54.79L224.91,49.47L229.5,48.6L234.09,49.89L238.68,48.46L243.27,50.38L247.86,50.33L252.45,46.78L257.04,48.21L261.63,47.89L266.22,50.54L270.81,49.62L275.4,45.78L279.99,49.46L284.58,48.75L302.94,50.16L307.53,54.96L316.71,54.66L321.3,55.79L330.48,57.65L335.07,56.93L339.66,56.32L344.25,57.94L358.02,60.92L362.61,63.62L376.38,68.71L380.97,68.51L385.56,75.14L390.15,72.66L399.33,71.16L403.92,74.39L413.1,72.95L417.69,70.57L426.87,64.21L431.46,66.1L436.05,68.83L440.64,68.32L445.23,66.91L449.82,69.51L454.41,73.04" style="vector-effect: none; fill: none; stroke: rgb(183, 86, 135); stroke-opacity: 1; stroke-width: 6px; opacity: 1;"/></g><g class="points"/><g class="text"/></g><g class="trace scatter tracef8b289" style="stroke-miterlimit: 2; opacity: 0.1;"><g class="fills"/><g class="errorbars"/><g class="lines"><path class="js-line" d="M0,164.61L4.59,162.92L9.18,163.57L13.77,160.51L18.36,155.58L22.95,154.73L27.54,158.96L32.13,155.02L36.72,153.7L41.31,154.68L45.9,145.71L50.49,147.74L55.08,131.98L59.67,123.65L64.26,118.71L73.44,88.33L78.03,81.75L87.21,70.49L91.8,71.53L105.57,71.12L110.16,68.52L119.34,69.23L123.93,66.15L146.88,65.48L151.47,67.11L165.24,67.09L169.83,67.59L179.01,69.42L183.6,69.87L188.19,69.22L192.78,66.21L197.37,70.93L201.96,71.42L206.55,71.42L211.14,73.18L215.73,75.4L220.32,75.41L224.91,74.45L229.5,69.22L247.86,68.16L252.45,70.56L266.22,73.41L270.81,71.19L275.4,67.79L279.99,66.81L284.58,68.98L289.17,68.64L298.35,69.57L302.94,71.93L307.53,72.41L312.12,69.06L321.3,74.67L325.89,75.93L335.07,75.54L339.66,77.4L348.84,75.76L353.43,75.78L358.02,71.24L362.61,74.93L371.79,85.42L376.38,83.37L380.97,80.3L385.56,79.6L390.15,79.74L394.74,76.72L403.92,80.93L408.51,80.01L413.1,78.19L417.69,74.65L422.28,77.62L426.87,76.11L436.05,81.06L440.64,83.79L445.23,81.85L449.82,84.51L454.41,81.67" style="vector-effect: none; fill: none; stroke: rgb(183, 86, 135); stroke-opacity: 1; stroke-width: 6px; opacity: 1;"/></g><g class="points"/><g class="text"/></g><g class="trace scatter trace0a1f61" style="stroke-miterlimit: 2; opacity: 0.1;"><g class="fills"/><g class="errorbars"/><g class="lines"><path class="js-line" d="M0,164.6L9.18,164.05L13.77,167.64L22.95,161.28L27.54,163.78L41.31,168.96L45.9,168.06L50.49,166.26L55.08,167.36L59.67,164.4L64.26,164.04L73.44,159.69L78.03,152.75L82.62,145.39L87.21,132.97L105.57,52.52L110.16,42.49L119.34,37.16L123.93,35.99L128.52,37.04L133.11,33.92L137.7,32.58L142.29,29.03L146.88,27.73L151.47,30.13L165.24,24.53L169.83,27.67L179.01,28.94L183.6,28.94L188.19,28.66L192.78,32.18L201.96,33.28L206.55,33.94L215.73,40.54L220.32,37.57L224.91,39.15L229.5,37.48L234.09,36.62L238.68,37.88L247.86,38.89L252.45,38.62L257.04,42.73L261.63,41.55L266.22,33.86L270.81,36.51L279.99,36.89L284.58,38.83L289.17,36.34L293.76,38.51L307.53,35.28L312.12,40.87L325.89,42.86L330.48,41.01L335.07,42.35L339.66,46.4L344.25,44.37L348.84,46.1L362.61,42.32L367.2,46.45L371.79,48.87L376.38,46.28L380.97,48.97L385.56,44.84L390.15,46.87L394.74,45.42L399.33,48.5L403.92,47.89L408.51,45.8L413.1,49.45L440.64,48.3L445.23,49.51L449.82,44.43L454.41,44.87" style="vector-effect: none; fill: none; stroke: rgb(183, 86, 135); stroke-opacity: 1; stroke-width: 6px; opacity: 1;"/></g><g class="points"/><g class="text"/></g><g class="trace scatter trace0edf28" style="stroke-miterlimit: 2; opacity: 0.1;"><g class="fills"/><g class="errorbars"/><g class="lines"><path class="js-line" d="M0,165.46L18.36,169.42L22.95,166.83L32.13,163.16L36.72,171.28L45.9,169.89L50.49,171.83L55.08,170.52L59.67,171.47L64.26,171.03L68.85,173.32L78.03,172.02L82.62,175.93L87.21,180.02L91.8,176.44L96.39,177.54L100.98,174.85L105.57,179.79L110.16,178.84L114.75,176.97L119.34,181.24L128.52,179.76L133.11,183.15L137.7,192.17L142.29,189.38L146.88,194.6L151.47,196.54L160.65,204.49L165.24,206.01L174.42,197.33L179.01,189.89L188.19,187.73L192.78,197.05L201.96,195.21L206.55,196.61L220.32,198.78L224.91,194.27L238.68,190.1L243.27,186.68L247.86,192.05L252.45,192.17L257.04,187.11L261.63,190.15L266.22,192.37L270.81,196.85L275.4,191.1L279.99,189.91L289.17,194.53L293.76,193.19L298.35,191.14L302.94,191.06L307.53,183.41L312.12,180.65L316.71,184.27L321.3,185.27L325.89,182.26L330.48,184.27L335.07,181.69L339.66,182.22L344.25,175.83L348.84,177.93L358.02,187.31L362.61,191.59L367.2,193.73L371.79,189.48L376.38,184.71L380.97,182.48L385.56,179.25L390.15,182.81L394.74,184.63L399.33,181.6L408.51,194.42L413.1,190.91L417.69,183.07L422.28,186.16L431.46,179.24L436.05,180.69L440.64,180.16L445.23,181.63L449.82,182.57L454.41,191.66" style="vector-effect: none; fill: none; stroke: rgb(183, 86, 135); stroke-opacity: 1; stroke-width: 6px; opacity: 1;"/></g><g class="points"/><g class="text"/></g><g class="trace scatter trace696b87" style="stroke-miterlimit: 2; opacity: 0.1;"><g class="fills"/><g class="errorbars"/><g class="lines"><path class="js-line" d="M0,164.7L4.59,164.72L9.18,161.11L13.77,164.43L18.36,164.07L27.54,161.87L32.13,145.4L36.72,109.44L41.31,111.9L45.9,108.81L50.49,75.78L55.08,46.2L59.67,39.54L64.26,37.2L68.85,26.77L73.44,25.59L78.03,17.74L87.21,21.35L91.8,26.02L96.39,27.73L100.98,23.78L105.57,28.24L110.16,28.06L114.75,27.65L119.34,24.03L123.93,24.91L128.52,23.33L137.7,20.16L142.29,18.62L146.88,19.85L151.47,25.19L156.06,27.15L160.65,32.9L165.24,36.19L169.83,36.17L174.42,30.73L179.01,32.62L183.6,27.91L188.19,27.95L197.37,25.83L201.96,28.57L206.55,28.13L211.14,21.54L215.73,20.78L220.32,24.08L224.91,26.49L229.5,27.05L234.09,26.68L238.68,28.56L243.27,31.14L247.86,36.75L257.04,36.09L261.63,39.59L266.22,37.31L270.81,36.76L275.4,34.09L279.99,39.75L284.58,36.32L289.17,40.07L302.94,27.93L307.53,29.8L316.71,27.93L321.3,23.55L330.48,18.44L335.07,20.81L339.66,22.18L344.25,17.27L348.84,11.4L353.43,12.97L362.61,12.89L367.2,16.5L376.38,14.48L380.97,13.66L390.15,15.11L394.74,14.45L403.92,17.76L408.51,19.19L413.1,20.72L417.69,23.91L426.87,25.75L431.46,23.26L436.05,30.35L440.64,32.9L445.23,35.31L449.82,33.47L454.41,35.63" style="vector-effect: none; fill: none; stroke: rgb(183, 86, 135); stroke-opacity: 1; stroke-width: 6px; opacity: 1;"/></g><g class="points"/><g class="text"/></g><g class="trace scatter traced6ba09" style="stroke-miterlimit: 2; opacity: 0.1;"><g class="fills"/><g class="errorbars"/><g class="lines"><path class="js-line" d="M0,165.73L4.59,165.24L9.18,166.27L13.77,164.23L18.36,163.95L27.54,168.9L32.13,167.52L36.72,166.26L41.31,166.75L45.9,168.09L50.49,167.35L55.08,161.22L59.67,158.2L68.85,114.59L73.44,95.13L78.03,77.48L82.62,66.82L87.21,55.77L91.8,50.95L96.39,48.97L100.98,44.62L110.16,46.92L114.75,45.41L119.34,45.69L123.93,49.1L128.52,53.09L133.11,54.59L137.7,47.67L142.29,49.15L156.06,42.82L160.65,43.11L165.24,42.02L169.83,43.36L174.42,43.15L179.01,44.77L183.6,47.13L188.19,46.25L192.78,42.64L197.37,45.83L201.96,50.97L206.55,50.97L215.73,40.53L220.32,41.54L224.91,41.61L229.5,43.77L238.68,43.4L243.27,45.79L261.63,45.07L266.22,43.55L275.4,46.51L279.99,50.66L284.58,47.99L289.17,41.13L293.76,43.58L298.35,39.46L302.94,41.14L307.53,44.52L321.3,40.3L325.89,42.73L335.07,40.9L339.66,40.66L344.25,43.27L348.84,41.17L353.43,42.97L358.02,42.07L367.2,42.14L371.79,42.97L376.38,46.94L380.97,43.67L385.56,41.87L390.15,46.98L394.74,43.89L399.33,42.96L403.92,43.99L408.51,46.87L417.69,47.41L422.28,42.14L426.87,42.46L431.46,39.53L436.05,38.39L440.64,40.21L445.23,33.03L449.82,31.61L454.41,27.47" style="vector-effect: none; fill: none; stroke: rgb(183, 86, 135); stroke-opacity: 1; stroke-width: 6px; opacity: 1;"/></g><g class="points"/><g class="text"/></g><g class="trace scatter trace5088a5" style="stroke-miterlimit: 2; opacity: 0.1;"><g class="fills"/><g class="errorbars"/><g class="lines"><path class="js-line" d="M0,164.97L9.18,163.93L13.77,160.95L22.95,158.57L27.54,160.35L32.13,158.56L36.72,159.35L45.9,157.45L50.49,150.28L55.08,155.46L59.67,154.95L68.85,144.19L73.44,136.87L78.03,139.35L82.62,120.89L87.21,112.02L91.8,94.41L96.39,87.91L100.98,70.45L105.57,52.89L110.16,57.33L119.34,45.56L123.93,44.1L128.52,43.34L133.11,39.18L137.7,43.86L142.29,45.47L146.88,41.18L151.47,42.7L156.06,44.86L160.65,45.33L169.83,51.02L174.42,47.44L179.01,46.32L183.6,42.47L197.37,42.32L201.96,46.27L206.55,46.61L211.14,44.51L215.73,45.35L220.32,48.13L224.91,46.2L229.5,47.69L234.09,46.91L238.68,48.17L243.27,42.9L247.86,42.93L252.45,46.56L257.04,44.82L266.22,39.4L270.81,38.65L279.99,37.05L284.58,29.35L289.17,30.31L293.76,33.37L298.35,32.58L302.94,33.48L307.53,38.31L312.12,37.53L316.71,40.08L321.3,34.7L325.89,33.35L330.48,37.75L335.07,36.67L339.66,37.26L344.25,33.84L348.84,35.09L353.43,33.52L358.02,34.77L362.61,35.5L367.2,42.18L371.79,43.61L376.38,41.07L399.33,30.7L403.92,31.04L408.51,35.18L413.1,33.36L426.87,43.24L431.46,42.19L440.64,46.65L445.23,44.24L449.82,46.32L454.41,46.53" style="vector-effect: none; fill: none; stroke: rgb(183, 86, 135); stroke-opacity: 1; stroke-width: 6px; opacity: 1;"/></g><g class="points"/><g class="text"/></g><g class="trace scatter tracef36cca" style="stroke-miterlimit: 2; opacity: 0.1;"><g class="fills"/><g class="errorbars"/><g class="lines"><path class="js-line" d="M0,164.7L13.77,167.33L18.36,163.26L27.54,158.1L32.13,159.62L36.72,158.88L41.31,155.28L45.9,147.51L50.49,131.98L59.67,102.98L64.26,84.58L68.85,79.75L73.44,68.22L78.03,68.2L82.62,72.02L87.21,73.58L91.8,67.31L96.39,61.98L100.98,60.56L105.57,66.17L110.16,67.44L119.34,61.92L123.93,63.35L128.52,65.26L133.11,63.64L137.7,68.33L142.29,66.99L151.47,67.92L156.06,67.04L160.65,66.62L165.24,68.78L174.42,67.29L179.01,66.14L188.19,69.9L192.78,79.69L201.96,74.22L206.55,71.24L220.32,68.55L224.91,70.54L238.68,67.79L243.27,69.01L252.45,66.43L257.04,69.48L270.81,70.56L275.4,69.32L279.99,71.15L284.58,70.08L293.76,76.05L298.35,76.35L307.53,80.91L312.12,78.26L316.71,76.79L321.3,80.44L330.48,82.15L335.07,95.37L344.25,93.29L348.84,95.4L353.43,95.02L358.02,87.02L362.61,83.41L367.2,85.21L385.56,88.81L390.15,88.81L399.33,92.49L403.92,92.55L413.1,88.49L417.69,82.29L422.28,85.28L426.87,82.25L440.64,85.26L445.23,84.81L449.82,79.16L454.41,84.84" style="vector-effect: none; fill: none; stroke: rgb(183, 86, 135); stroke-opacity: 1; stroke-width: 6px; opacity: 1;"/></g><g class="points"/><g class="text"/></g><g class="trace scatter trace4de1a6" style="stroke-miterlimit: 2; opacity: 0.1;"><g class="fills"/><g class="errorbars"/><g class="lines"><path class="js-line" d="M0,165.06L9.18,168.12L13.77,167.62L18.36,164.56L22.95,164.79L27.54,166.55L32.13,162.3L36.72,164.51L41.31,164.71L45.9,165.05L50.49,159.28L55.08,154.82L59.67,125.16L68.85,84.63L73.44,88.01L78.03,61L82.62,55.17L87.21,50.59L91.8,51.38L105.57,43.44L110.16,43.37L114.75,43.93L119.34,46.98L123.93,49.93L128.52,45.56L133.11,44.6L137.7,45.79L142.29,43.49L146.88,44.06L160.65,41.7L165.24,43.22L169.83,42.34L174.42,38.24L183.6,38.85L188.19,38.84L197.37,37.83L201.96,39.05L211.14,36.17L215.73,34.15L229.5,36.12L234.09,34.17L243.27,37.53L247.86,36.52L261.63,40.09L266.22,38.61L270.81,40.48L275.4,45.65L284.58,47.49L289.17,47.18L293.76,47.83L298.35,43.74L307.53,48.12L312.12,45.14L330.48,39.45L335.07,37.1L339.66,35.59L344.25,39.46L348.84,35.77L353.43,37.16L358.02,38.73L362.61,37.88L367.2,36.31L371.79,38.49L376.38,39.56L380.97,38.6L385.56,39.85L390.15,36.53L399.33,45.15L403.92,43.48L408.51,41.01L413.1,43.22L417.69,33.53L422.28,34.93L426.87,29.82L431.46,36.24L436.05,26.71L440.64,29.91L445.23,29.31L449.82,25.5L454.41,22.29" style="vector-effect: none; fill: none; stroke: rgb(183, 86, 135); stroke-opacity: 1; stroke-width: 6px; opacity: 1;"/></g><g class="points"/><g class="text"/></g><g class="trace scatter trace4d9101" style="stroke-miterlimit: 2; opacity: 0.1;"><g class="fills"/><g class="errorbars"/><g class="lines"><path class="js-line" d="M0,165.02L9.18,163.4L13.77,166.12L18.36,164.29L22.95,164.93L36.72,167.28L41.31,170.29L45.9,170.67L50.49,165.19L59.67,169L64.26,165.42L68.85,160.87L73.44,158.91L78.03,163.76L82.62,165.05L87.21,164.26L91.8,158.98L96.39,163.88L100.98,165.86L105.57,167.66L110.16,166.48L119.34,144.25L123.93,138.17L128.52,143.94L133.11,134.17L137.7,135.16L142.29,122.21L146.88,102.61L151.47,94.33L160.65,65.76L165.24,68.95L169.83,57.18L174.42,55.9L179.01,49.55L183.6,47.84L188.19,42.44L192.78,48.03L197.37,50.99L201.96,49.64L206.55,51.16L211.14,50.38L215.73,54.49L220.32,52.73L229.5,52.25L234.09,54.33L238.68,51.89L243.27,54.72L247.86,53.98L252.45,55.89L261.63,51L266.22,56.32L270.81,57.5L275.4,56.46L279.99,53.55L284.58,52.73L289.17,51.87L293.76,48.28L302.94,50.59L307.53,49.28L316.71,50.29L321.3,50.63L325.89,53.28L330.48,52.05L335.07,49.76L339.66,53.16L348.84,52.46L353.43,53.08L362.61,60.71L367.2,63.34L376.38,50.25L380.97,48.01L390.15,47.4L394.74,45.42L399.33,42.67L403.92,44.32L408.51,47.95L413.1,42.41L417.69,46.07L422.28,37.46L426.87,35.51L431.46,31.64L436.05,30.61L440.64,31.13L445.23,29.57L449.82,25.64L454.41,23.47" style="vector-effect: none; fill: none; stroke: rgb(183, 86, 135); stroke-opacity: 1; stroke-width: 6px; opacity: 1;"/></g><g class="points"/><g class="text"/></g><g class="trace scatter traceb25276" style="stroke-miterlimit: 2; opacity: 0.1;"><g class="fills"/><g class="errorbars"/><g class="lines"><path class="js-line" d="M0,164.62L4.59,165.88L9.18,164.56L22.95,161.56L27.54,159.89L32.13,157.55L36.72,157.95L41.31,155.04L45.9,155.87L50.49,156.83L55.08,155.15L68.85,164.06L73.44,160.37L82.62,159.92L87.21,163.99L96.39,160.97L100.98,156.07L110.16,155.34L114.75,156.28L123.93,153.12L128.52,156.04L133.11,156.38L137.7,154.91L142.29,158.82L146.88,159.53L156.06,155.45L160.65,150.7L165.24,147.5L169.83,148.46L174.42,149.54L179.01,139.19L183.6,140.35L188.19,138.9L197.37,139.16L201.96,144.42L215.73,144.32L220.32,143.19L224.91,134.81L229.5,135L234.09,136.25L238.68,141.42L243.27,143.56L247.86,140.64L252.45,138.14L257.04,132.53L266.22,117.21L270.81,113.81L279.99,119.84L284.58,115.95L289.17,112.65L293.76,113.93L298.35,112.48L302.94,107.88L307.53,106.29L312.12,106.81L321.3,106.25L325.89,111.98L335.07,112.41L339.66,111.08L344.25,128.01L348.84,120.92L353.43,119.71L358.02,125.67L362.61,115.3L367.2,117.77L371.79,106.51L376.38,106.35L385.56,106.14L390.15,108.83L394.74,119.61L399.33,113.24L403.92,101.87L408.51,97.65L413.1,94.37L417.69,96.21L422.28,99L426.87,97.35L431.46,95.81L436.05,98.96L440.64,100.47L445.23,105.29L449.82,103.75L454.41,96.21" style="vector-effect: none; fill: none; stroke: rgb(183, 86, 135); stroke-opacity: 1; stroke-width: 6px; opacity: 1;"/></g><g class="points"/><g class="text"/></g><g class="trace scatter trace5eb446" style="stroke-miterlimit: 2; opacity: 0.1;"><g class="fills"/><g class="errorbars"/><g class="lines"><path class="js-line" d="M0,165.47L4.59,165.96L9.18,164.24L18.36,169.74L22.95,168.7L27.54,167.84L32.13,165.43L36.72,165.08L41.31,160.25L45.9,156.56L50.49,158.45L55.08,156.9L59.67,159.13L64.26,156.23L68.85,156.43L73.44,157.59L78.03,153.54L82.62,150.33L87.21,150.73L96.39,142.08L100.98,144.64L105.57,138.84L110.16,137.15L114.75,138.25L119.34,135.06L123.93,110.23L128.52,122.98L133.11,117.47L137.7,101.83L142.29,91.72L146.88,65.84L151.47,61.52L156.06,65.41L165.24,51.93L169.83,50.18L179.01,48.16L183.6,55.53L188.19,50.32L192.78,49.55L197.37,48.15L201.96,49.45L211.14,49.66L215.73,50.88L220.32,53.86L224.91,54.45L229.5,59.79L234.09,55.3L247.86,52.89L252.45,55.12L266.22,52.76L270.81,50.59L289.17,44.98L293.76,45.92L298.35,43.3L302.94,45.5L307.53,44.44L312.12,45.16L316.71,39.31L321.3,40.23L339.66,30.85L344.25,28.03L348.84,25.74L353.43,29.52L358.02,30.87L362.61,28.6L367.2,28.64L371.79,33.29L376.38,31.36L380.97,31.19L385.56,25.81L390.15,28.18L394.74,25.9L399.33,26.05L408.51,29.31L413.1,26.79L426.87,22.9L431.46,19.46L436.05,19.23L440.64,25.15L445.23,24.71L449.82,29.34L454.41,29.97" style="vector-effect: none; fill: none; stroke: rgb(183, 86, 135); stroke-opacity: 1; stroke-width: 6px; opacity: 1;"/></g><g class="points"/><g class="text"/></g><g class="trace scatter tracec34cea" style="stroke-miterlimit: 2; opacity: 0.1;"><g class="fills"/><g class="errorbars"/><g class="lines"><path class="js-line" d="M0,164.28L4.59,164.14L9.18,167.24L13.77,166.36L18.36,162.2L22.95,159.7L27.54,155.02L32.13,150.09L36.72,149.88L41.31,152.31L45.9,138.46L50.49,125.34L55.08,102.19L59.67,86.7L64.26,58.66L68.85,44.97L73.44,44.97L91.8,49.07L96.39,48.22L105.57,46.25L110.16,49.86L119.34,46.54L123.93,44.59L128.52,46.59L133.11,46.21L151.47,48.85L156.06,47.42L160.65,49.68L165.24,47.85L174.42,43L179.01,41.09L183.6,40.8L188.19,43.36L192.78,43.77L197.37,47.35L211.14,42.13L215.73,43.58L220.32,42.25L224.91,37.02L229.5,33.79L234.09,33.48L243.27,36.78L247.86,31.29L252.45,34.89L257.04,36.36L266.22,37.8L270.81,33.6L275.4,36.25L279.99,35.1L284.58,38.03L289.17,36.16L293.76,38.74L298.35,38.33L307.53,42.44L312.12,44.94L316.71,44.44L321.3,39.69L330.48,39.11L335.07,40.71L339.66,38.27L344.25,38.28L348.84,39.81L353.43,38.06L358.02,34.61L362.61,36.67L367.2,33.88L371.79,37.92L376.38,41.14L380.97,42.06L385.56,38.33L390.15,38.47L394.74,34.68L399.33,36.88L403.92,31.5L408.51,32.83L422.28,31.65L426.87,32.82L431.46,30.94L436.05,32.14L440.64,34.2L445.23,32.99L454.41,34.86" style="vector-effect: none; fill: none; stroke: rgb(183, 86, 135); stroke-opacity: 1; stroke-width: 6px; opacity: 1;"/></g><g class="points"/><g class="text"/></g><g class="trace scatter trace11ea4d" style="stroke-miterlimit: 2; opacity: 0.1;"><g class="fills"/><g class="errorbars"/><g class="lines"><path class="js-line" d="M0,164.83L13.77,164.88L18.36,160.71L32.13,138.32L36.72,104.61L41.31,83.73L45.9,73.92L50.49,67.95L55.08,56.3L59.67,47.12L64.26,45.85L73.44,46.95L78.03,44.32L87.21,41.46L91.8,38.78L96.39,36.86L100.98,39.23L110.16,44.48L114.75,41.56L119.34,43.21L123.93,42.03L128.52,41.3L133.11,43.75L142.29,42.57L146.88,40.98L156.06,41.85L160.65,45.13L165.24,44.84L169.83,47.4L174.42,47.4L179.01,45.06L183.6,44.17L188.19,45.74L201.96,45.78L206.55,49.73L211.14,52.08L215.73,51.13L224.91,43.75L229.5,44.22L247.86,45.74L252.45,42.37L257.04,44.36L261.63,43.51L266.22,38.8L270.81,36.82L275.4,39.4L279.99,39.23L284.58,38.03L289.17,38.46L293.76,40.51L298.35,39.67L302.94,39.65L307.53,41.87L312.12,49.43L316.71,45.88L321.3,45.81L325.89,43.23L330.48,43L335.07,39.81L339.66,39.01L344.25,40.2L348.84,43.06L353.43,42.91L358.02,43.23L362.61,40.06L367.2,38.06L371.79,33.15L376.38,33.95L380.97,32.3L390.15,31.83L394.74,33.28L403.92,40.35L408.51,35.74L413.1,37.79L417.69,34.31L422.28,32.67L426.87,32.91L431.46,30.7L436.05,32.08L440.64,29.4L445.23,28.55L454.41,33.48" style="vector-effect: none; fill: none; stroke: rgb(183, 86, 135); stroke-opacity: 1; stroke-width: 6px; opacity: 1;"/></g><g class="points"/><g class="text"/></g></g></g></g><g class="zerolinelayer-above"/><path class="xlines-above crisp" d="M0,0" style="fill: none;"/><path class="ylines-above crisp" d="M0,0" style="fill: none;"/><g class="overlines-above"/><g class="xaxislayer-above"><g class="xtick"><text text-anchor="middle" x="0" y="333" transform="translate(194.51999999999998,0)" style="font-family: 'Open Sans', verdana, arial, sans-serif; font-size: 12px; fill: rgb(42, 63, 95); fill-opacity: 1; white-space: pre;">50M</text></g><g class="xtick"><text text-anchor="middle" x="0" y="333" style="font-family: 'Open Sans', verdana, arial, sans-serif; font-size: 12px; fill: rgb(42, 63, 95); fill-opacity: 1; white-space: pre;" transform="translate(309.27,0)">100M</text></g><g class="xtick"><text text-anchor="middle" x="0" y="333" style="font-family: 'Open Sans', verdana, arial, sans-serif; font-size: 12px; fill: rgb(42, 63, 95); fill-opacity: 1; white-space: pre;" transform="translate(424.02,0)">150M</text></g></g><g class="yaxislayer-above"><g class="ytick"><text text-anchor="end" x="79" y="4.199999999999999" transform="translate(0,315.94)" style="font-family: 'Open Sans', verdana, arial, sans-serif; font-size: 12px; fill: rgb(42, 63, 95); fill-opacity: 1; white-space: pre;">−5</text></g><g class="ytick"><text text-anchor="end" x="79" y="4.199999999999999" style="font-family: 'Open Sans', verdana, arial, sans-serif; font-size: 12px; fill: rgb(42, 63, 95); fill-opacity: 1; white-space: pre;" transform="translate(0,264.83000000000004)">0</text></g><g class="ytick"><text text-anchor="end" x="79" y="4.199999999999999" style="font-family: 'Open Sans', verdana, arial, sans-serif; font-size: 12px; fill: rgb(42, 63, 95); fill-opacity: 1; white-space: pre;" transform="translate(0,213.70999999999998)">5</text></g><g class="ytick"><text text-anchor="end" x="79" y="4.199999999999999" style="font-family: 'Open Sans', verdana, arial, sans-serif; font-size: 12px; fill: rgb(42, 63, 95); fill-opacity: 1; white-space: pre;" transform="translate(0,162.59)">10</text></g><g class="ytick"><text text-anchor="end" x="79" y="4.199999999999999" style="font-family: 'Open Sans', verdana, arial, sans-serif; font-size: 12px; fill: rgb(42, 63, 95); fill-opacity: 1; white-space: pre;" transform="translate(0,111.47)">15</text></g></g><g class="overaxes-above"/></g><g class="subplot x2y2"><g class="layer-subplot"><g class="shapelayer"/><g class="imagelayer"/></g><g class="minor-gridlayer"><g class="x2"/><g class="y2"/></g><g class="gridlayer"><g class="x2"/><g class="y2"/></g><g class="zerolinelayer"><path class="x2zl zl crisp" transform="translate(539.81,0)" d="M0,100v220" style="stroke: rgb(235, 240, 248); stroke-opacity: 1; stroke-width: 2px;"/></g><g class="layer-between"><g class="shapelayer"/><g class="imagelayer"/></g><path class="xlines-below"/><path class="ylines-below"/><g class="overlines-below"/><g class="xaxislayer-below"/><g class="yaxislayer-below"/><g class="overaxes-below"/><g class="overplot"><g class="x2y2" transform="translate(539.81,100)" clip-path="url(#clip586f8fx2y2plot)"><g class="barlayer mlayer"><g class="trace bars" style="opacity: 1;"><g class="points"><g class="point"><path d="M0,204.7V186.3H9.52V204.7Z" style="vector-effect: none; opacity: 1; stroke-width: 0px; fill: rgb(153, 153, 153); fill-opacity: 1;"/></g><g class="point"><path d="M0,184.25V165.85H4.76V184.25Z" style="vector-effect: none; opacity: 1; stroke-width: 0px; fill: rgb(153, 153, 153); fill-opacity: 1;"/></g><g class="point"><path d="M0,163.8V145.4H4.76V163.8Z" style="vector-effect: none; opacity: 1; stroke-width: 0px; fill: rgb(153, 153, 153); fill-opacity: 1;"/></g><g class="point"><path d="M0,0Z" style="vector-effect: none; opacity: 1; stroke-width: 0px; fill: rgb(153, 153, 153); fill-opacity: 1;"/></g><g class="point"><path d="M0,0Z" style="vector-effect: none; opacity: 1; stroke-width: 0px; fill: rgb(153, 153, 153); fill-opacity: 1;"/></g><g class="point"><path d="M0,102.46V84.06H19.05V102.46Z" style="vector-effect: none; opacity: 1; stroke-width: 0px; fill: rgb(153, 153, 153); fill-opacity: 1;"/></g><g class="point"><path d="M0,82.02V63.61H9.52V82.02Z" style="vector-effect: none; opacity: 1; stroke-width: 0px; fill: rgb(153, 153, 153); fill-opacity: 1;"/></g><g class="point"><path d="M0,61.57V43.17H19.05V61.57Z" style="vector-effect: none; opacity: 1; stroke-width: 0px; fill: rgb(153, 153, 153); fill-opacity: 1;"/></g><g class="point"><path d="M0,41.12V22.72H76.18V41.12Z" style="vector-effect: none; opacity: 1; stroke-width: 0px; fill: rgb(153, 153, 153); fill-opacity: 1;"/></g><g class="point"><path d="M0,20.68V2.27H9.52V20.68Z" style="vector-effect: none; opacity: 1; stroke-width: 0px; fill: rgb(153, 153, 153); fill-opacity: 1;"/></g></g></g></g></g></g><g class="zerolinelayer-above"/><path class="xlines-above crisp" d="M0,0" style="fill: none;"/><path class="ylines-above crisp" d="M0,0" style="fill: none;"/><g class="overlines-above"/><g class="xaxislayer-above"/><g class="yaxislayer-above"/><g class="overaxes-above"/></g></g><g class="polarlayer"/><g class="smithlayer"/><g class="ternarylayer"/><g class="geolayer"/><g class="funnelarealayer"/><g class="pielayer"/><g class="iciclelayer"/><g class="treemaplayer"/><g class="sunburstlayer"/><g class="glimages"/><defs id="topdefs-586f8f"><g class="clips"/></defs><g class="layer-above"><g class="imagelayer"/><g class="shapelayer"/></g><g class="infolayer"><g class="g-gtitle"/><g class="g-xtitle"><text class="xtitle" x="307.20500000000004" y="361.3" text-anchor="middle" style="opacity: 1; font-family: 'Open Sans', verdana, arial, sans-serif; font-size: 14px; fill: rgb(42, 63, 95); fill-opacity: 1; white-space: pre;">time</text></g><g class="g-x2title"/><g class="g-ytitle"><text class="ytitle" transform="rotate(-90,45.865625,210)" x="45.865625" y="210" text-anchor="middle" style="opacity: 1; font-family: 'Open Sans', verdana, arial, sans-serif; font-size: 14px; fill: rgb(42, 63, 95); fill-opacity: 1; white-space: pre;">mean gamma</text></g><g class="g-y2title"/></g></svg>