<svg class="main-svg" xmlns="http://www.w3.org/2000/svg" xmlns:xlink="http://www.w3.org/1999/xlink" width="600" height="300" style="" viewBox="0 0 600 300"><rect x="0" y="0" width="600" height="300" style="fill: rgb(255, 255, 255); fill-opacity: 1;"/><defs id="defs-35bbfe"><g class="clips"><clipPath id="clip35bbfexyplot" class="plotclip"><rect width="440" height="160"/></clipPath><clipPath class="axesclip" id="clip35bbfex"><rect x="80" y="0" width="440" height="300"/></clipPath><clipPath class="axesclip" id="clip35bbfey"><rect x="0" y="60" width="600" height="160"/></clipPath><clipPath class="axesclip" id="clip35bbfexy"><rect x="80" y="60" width="440" height="160"/></clipPath></g><g class="gradients"/><g class="patterns"/></defs><g class="bglayer"/><g class="layer-below"><g class="imagelayer"/><g class="shapelayer"/></g><g class="cartesianlayer"><g class="subplot xy"><g class="layer-subplot"><g class="shapelayer"/><g class="imagelayer"/></g><g class="minor-gridlayer"><g class="x"/><g class="y"/></g><g class="gridlayer"><g class="x"><path class="xgrid crisp" transform="translate(202.87,0)" d="M0,60v160" style="stroke: rgb(235, 240, 248); stroke-opacity: 1; stroke-width: 1px;"/><path class="xgrid crisp" transform="translate(300,0)" d="M0,60v160" style="stroke: rgb(235, 240, 248); stroke-opacity: 1; stroke-width: 1px;"/><path class="xgrid crisp" transform="translate(397.12,0)" d="M0,60v160" style="stroke: rgb(235, 240, 248); stroke-opacity: 1; stroke-width: 1px;"/><path class="xgrid crisp" transform="translate(494.25,0)" d="M0,60v160" style="stroke: rgb(235, 240, 248); stroke-opacity: 1; stroke-width: 1px;"/></g><g class="y"><path class="ygrid crisp" transform="translate(0,145.93)" d="M80,0h440" style="stroke: rgb(235, 240, 248); stroke-opacity: 1; stroke-width: 1px;"/><path class="ygrid crisp" transform="translate(0,71.85)" d="M80,0h440" style="stroke: rgb(235, 240, 248); stroke-opacity: 1; stroke-width: 1px;"/></g></g><g class="zerolinelayer"><path class="xzl zl crisp" transform="translate(105.75,0)" d="M0,60v160" style="stroke: rgb(235, 240, 248); stroke-opacity: 1; stroke-width: 2px;"/><path class="yzl zl crisp" transform="translate(0,220)" d="M80,0h440" style="stroke: rgb(235, 240, 248); stroke-opacity: 1; stroke-width: 2px;"/></g><g class="layer-between"><g class="shapelayer"/><g class="imagelayer"/></g><path class="xlines-below"/><path class="ylines-below"/><g class="overlines-below"/><g class="xaxislayer-below"/><g class="yaxislayer-below"/><g class="overaxes-below"/><g class="overplot"><g class="xy" transform="translate(80,60)" clip-path="url(#clip35bbfexyplot)"><g class="scatterlayer mlayer"><g class="trace scatter trace1f51e2" style="stroke-miterlimit: 2; opacity: 1;"><g class="fills"/><g class="errorbars"/><g class="lines"/><g class="points"><path class="point" transform="translate(25.75,20.68)" d="M3,0A3,3 0 1,1 0,-3A3,3 0 0,1 3,0Z" style="opacity: 0.5; stroke-width: 1px; fill: rgb(204, 102, 119); fill-opacity: 1; stroke: rgb(255, 255, 255); stroke-opacity: 1;"/><path class="point" transform="translate(25.75,129.36)" d="M3,0A3,3 0 1,1 0,-3A3,3 0 0,1 3,0Z" style="opacity: 0.5; stroke-width: 1px; fill: rgb(204, 102, 119); fill-opacity: 1; stroke: rgb(255, 255, 255); stroke-opacity: 1;"/><path class="point" transform="translate(25.75,51.85)" d="M3,0A3,3 0 1,1 0,-3A3,3 0 0,1 3,0Z" style="opacity: 0.5; stroke-width: 1px; fill: rgb(204, 102, 119); fill-opacity: 1; stroke: rgb(255, 255, 255); stroke-opacity: 1;"/><path class="point" transform="translate(25.75,57.5)" d="M3,0A3,3 0 1,1 0,-3A3,3 0 0,1 3,0Z" style="opacity: 0.5; stroke-width: 1px; fill: rgb(204, 102, 119); fill-opacity: 1; stroke: rgb(255, 255, 255); stroke-opacity: 1;"/><path class="point" transform="translate(25.75,146.33)" d="M3,0A3,3 0 1,1 0,-3A3,3 0 0,1 3,0Z" style="opacity: 0.5; stroke-width: 1px; fill: rgb(204, 102, 119); fill-opacity: 1; stroke: rgb(255, 255, 255); stroke-opacity: 1;"/><path class="point" transform="translate(25.75,74.84)" d="M3,0A3,3 0 1,1 0,-3A3,3 0 0,1 3,0Z" style="opacity: 0.5; stroke-width: 1px; fill: rgb(204, 102, 119); fill-opacity: 1; stroke: rgb(255, 255, 255); stroke-opacity: 1;"/><path class="point" transform="translate(25.75,67.46)" d="M3,0A3,3 0 1,1 0,-3A3,3 0 0,1 3,0Z" style="opacity: 0.5; stroke-width: 1px; fill: rgb(204, 102, 119); fill-opacity: 1; stroke: rgb(255, 255, 255); stroke-opacity: 1;"/><path class="point" transform="translate(25.75,131.89)" d="M3,0A3,3 0 1,1 0,-3A3,3 0 0,1 3,0Z" style="opacity: 0.5; stroke-width: 1px; fill: rgb(204, 102, 119); fill-opacity: 1; stroke: rgb(255, 255, 255); stroke-opacity: 1;"/><path class="point" transform="translate(25.75,51.11)" d="M3,0A3,3 0 1,1 0,-3A3,3 0 0,1 3,0Z" style="opacity: 0.5; stroke-width: 1px; fill: rgb(204, 102, 119); fill-opacity: 1; stroke: rgb(255, 255, 255); stroke-opacity: 1;"/><path class="point" transform="translate(25.75,111.93)" d="M3,0A3,3 0 1,1 0,-3A3,3 0 0,1 3,0Z" style="opacity: 0.5; stroke-width: 1px; fill: rgb(204, 102, 119); fill-opacity: 1; stroke: rgb(255, 255, 255); stroke-opacity: 1;"/><path class="point" transform="translate(64.6,102.93)" d="M3,0A3,3 0 1,1 0,-3A3,3 0 0,1 3,0Z" style="opacity: 0.5; stroke-width: 1px; fill: rgb(204, 102, 119); fill-opacity: 1; stroke: rgb(255, 255, 255); stroke-opacity: 1;"/><path class="point" transform="translate(64.6,111.51)" d="M3,0A3,3 0 1,1 0,-3A3,3 0 0,1 3,0Z" style="opacity: 0.5; stroke-width: 1px; fill: rgb(204, 102, 119); fill-opacity: 1; stroke: rgb(255, 255, 255); stroke-opacity: 1;"/><path class="point" transform="translate(64.6,103.63)" d="M3,0A3,3 0 1,1 0,-3A3,3 0 0,1 3,0Z" style="opacity: 0.5; stroke-width: 1px; fill: rgb(204, 102, 119); fill-opacity: 1; stroke: rgb(255, 255, 255); stroke-opacity: 1;"/><path class="point" transform="translate(64.6,106.71)" d="M3,0A3,3 0 1,1 0,-3A3,3 0 0,1 3,0Z" style="opacity: 0.5; stroke-width: 1px; fill: rgb(204, 102, 119); fill-opacity: 1; stroke: rgb(255, 255, 255); stroke-opacity: 1;"/><path class="point" transform="translate(64.6,89.4)" d="M3,0A3,3 0 1,1 0,-3A3,3 0 0,1 3,0Z" style="opacity: 0.5; stroke-width: 1px; fill: rgb(204, 102, 119); fill-opacity: 1; stroke: rgb(255, 255, 255); stroke-opacity: 1;"/><path class="point" transform="translate(64.6,119.71)" d="M3,0A3,3 0 1,1 0,-3A3,3 0 0,1 3,0Z" style="opacity: 0.5; stroke-width: 1px; fill: rgb(204, 102, 119); fill-opacity: 1; stroke: rgb(255, 255, 255); stroke-opacity: 1;"/><path class="point" transform="translate(64.6,112.66)" d="M3,0A3,3 0 1,1 0,-3A3,3 0 0,1 3,0Z" style="opacity: 0.5; stroke-width: 1px; fill: rgb(204, 102, 119); fill-opacity: 1; stroke: rgb(255, 255, 255); stroke-opacity: 1;"/><path class="point" transform="translate(64.6,127.95)" d="M3,0A3,3 0 1,1 0,-3A3,3 0 0,1 3,0Z" style="opacity: 0.5; stroke-width: 1px; fill: rgb(204, 102, 119); fill-opacity: 1; stroke: rgb(255, 255, 255); stroke-opacity: 1;"/><path class="point" transform="translate(64.6,103.92)" d="M3,0A3,3 0 1,1 0,-3A3,3 0 0,1 3,0Z" style="opacity: 0.5; stroke-width: 1px; fill: rgb(204, 102, 119); fill-opacity: 1; stroke: rgb(255, 255, 255); stroke-opacity: 1;"/><path class="point" transform="translate(64.6,56.9)" d="M3,0A3,3 0 1,1 0,-3A3,3 0 0,1 3,0Z" style="opacity: 0.5; stroke-width: 1px; fill: rgb(204, 102, 119); fill-opacity: 1; stroke: rgb(255, 255, 255); stroke-opacity: 1;"/><path class="point" transform="translate(103.45,114.18)" d="M3,0A3,3 0 1,1 0,-3A3,3 0 0,1 3,0Z" style="opacity: 0.5; stroke-width: 1px; fill: rgb(204, 102, 119); fill-opacity: 1; stroke: rgb(255, 255, 255); stroke-opacity: 1;"/><path class="point" transform="translate(103.45,26.89)" d="M3,0A3,3 0 1,1 0,-3A3,3 0 0,1 3,0Z" style="opacity: 0.5; stroke-width: 1px; fill: rgb(204, 102, 119); fill-opacity: 1; stroke: rgb(255, 255, 255); stroke-opacity: 1;"/><path class="point" transform="translate(103.45,135.89)" d="M3,0A3,3 0 1,1 0,-3A3,3 0 0,1 3,0Z" style="opacity: 0.5; stroke-width: 1px; fill: rgb(204, 102, 119); fill-opacity: 1; stroke: rgb(255, 255, 255); stroke-opacity: 1;"/><path class="point" transform="translate(103.45,110.09)" d="M3,0A3,3 0 1,1 0,-3A3,3 0 0,1 3,0Z" style="opacity: 0.5; stroke-width: 1px; fill: rgb(204, 102, 119); fill-opacity: 1; stroke: rgb(255, 255, 255); stroke-opacity: 1;"/><path class="point" transform="translate(103.45,142.3)" d="M3,0A3,3 0 1,1 0,-3A3,3 0 0,1 3,0Z" style="opacity: 0.5; stroke-width: 1px; fill: rgb(204, 102, 119); fill-opacity: 1; stroke: rgb(255, 255, 255); stroke-opacity: 1;"/><path class="point" transform="translate(103.45,103.3)" d="M3,0A3,3 0 1,1 0,-3A3,3 0 0,1 3,0Z" style="opacity: 0.5; stroke-width: 1px; fill: rgb(204, 102, 119); fill-opacity: 1; stroke: rgb(255, 255, 255); stroke-opacity: 1;"/><path class="point" transform="translate(103.45,116.19)" d="M3,0A3,3 0 1,1 0,-3A3,3 0 0,1 3,0Z" style="opacity: 0.5; stroke-width: 1px; fill: rgb(204, 102, 119); fill-opacity: 1; stroke: rgb(255, 255, 255); stroke-opacity: 1;"/><path class="point" transform="translate(103.45,106.03)" d="M3,0A3,3 0 1,1 0,-3A3,3 0 0,1 3,0Z" style="opacity: 0.5; stroke-width: 1px; fill: rgb(204, 102, 119); fill-opacity: 1; stroke: rgb(255, 255, 255); stroke-opacity: 1;"/><path class="point" transform="translate(103.45,51.72)" d="M3,0A3,3 0 1,1 0,-3A3,3 0 0,1 3,0Z" style="opacity: 0.5; stroke-width: 1px; fill: rgb(204, 102, 119); fill-opacity: 1; stroke: rgb(255, 255, 255); stroke-opacity: 1;"/><path class="point" transform="translate(103.45,31.56)" d="M3,0A3,3 0 1,1 0,-3A3,3 0 0,1 3,0Z" style="opacity: 0.5; stroke-width: 1px; fill: rgb(204, 102, 119); fill-opacity: 1; stroke: rgb(255, 255, 255); stroke-opacity: 1;"/><path class="point" transform="translate(142.3,15.76)" d="M3,0A3,3 0 1,1 0,-3A3,3 0 0,1 3,0Z" style="opacity: 0.5; stroke-width: 1px; fill: rgb(204, 102, 119); fill-opacity: 1; stroke: rgb(255, 255, 255); stroke-opacity: 1;"/><path class="point" transform="translate(142.3,48.62)" d="M3,0A3,3 0 1,1 0,-3A3,3 0 0,1 3,0Z" style="opacity: 0.5; stroke-width: 1px; fill: rgb(204, 102, 119); fill-opacity: 1; stroke: rgb(255, 255, 255); stroke-opacity: 1;"/><path class="point" transform="translate(142.3,14.95)" d="M3,0A3,3 0 1,1 0,-3A3,3 0 0,1 3,0Z" style="opacity: 0.5; stroke-width: 1px; fill: rgb(204, 102, 119); fill-opacity: 1; stroke: rgb(255, 255, 255); stroke-opacity: 1;"/><path class="point" transform="translate(142.3,17.89)" d="M3,0A3,3 0 1,1 0,-3A3,3 0 0,1 3,0Z" style="opacity: 0.5; stroke-width: 1px; fill: rgb(204, 102, 119); fill-opacity: 1; stroke: rgb(255, 255, 255); stroke-opacity: 1;"/><path class="point" transform="translate(142.3,42.38)" d="M3,0A3,3 0 1,1 0,-3A3,3 0 0,1 3,0Z" style="opacity: 0.5; stroke-width: 1px; fill: rgb(204, 102, 119); fill-opacity: 1; stroke: rgb(255, 255, 255); stroke-opacity: 1;"/><path class="point" transform="translate(142.3,12.69)" d="M3,0A3,3 0 1,1 0,-3A3,3 0 0,1 3,0Z" style="opacity: 0.5; stroke-width: 1px; fill: rgb(204, 102, 119); fill-opacity: 1; stroke: rgb(255, 255, 255); stroke-opacity: 1;"/><path class="point" transform="translate(142.3,30.73)" d="M3,0A3,3 0 1,1 0,-3A3,3 0 0,1 3,0Z" style="opacity: 0.5; stroke-width: 1px; fill: rgb(204, 102, 119); fill-opacity: 1; stroke: rgb(255, 255, 255); stroke-opacity: 1;"/><path class="point" transform="translate(142.3,19.81)" d="M3,0A3,3 0 1,1 0,-3A3,3 0 0,1 3,0Z" style="opacity: 0.5; stroke-width: 1px; fill: rgb(204, 102, 119); fill-opacity: 1; stroke: rgb(255, 255, 255); stroke-opacity: 1;"/><path class="point" transform="translate(142.3,25.32)" d="M3,0A3,3 0 1,1 0,-3A3,3 0 0,1 3,0Z" style="opacity: 0.5; stroke-width: 1px; fill: rgb(204, 102, 119); fill-opacity: 1; stroke: rgb(255, 255, 255); stroke-opacity: 1;"/><path class="point" transform="translate(142.3,17.57)" d="M3,0A3,3 0 1,1 0,-3A3,3 0 0,1 3,0Z" style="opacity: 0.5; stroke-width: 1px; fill: rgb(204, 102, 119); fill-opacity: 1; stroke: rgb(255, 255, 255); stroke-opacity: 1;"/><path class="point" transform="translate(181.15,15.73)" d="M3,0A3,3 0 1,1 0,-3A3,3 0 0,1 3,0Z" style="opacity: 0.5; stroke-width: 1px; fill: rgb(204, 102, 119); fill-opacity: 1; stroke: rgb(255, 255, 255); stroke-opacity: 1;"/><path class="point" transform="translate(181.15,31.31)" d="M3,0A3,3 0 1,1 0,-3A3,3 0 0,1 3,0Z" style="opacity: 0.5; stroke-width: 1px; fill: rgb(204, 102, 119); fill-opacity: 1; stroke: rgb(255, 255, 255); stroke-opacity: 1;"/><path class="point" transform="translate(181.15,17.68)" d="M3,0A3,3 0 1,1 0,-3A3,3 0 0,1 3,0Z" style="opacity: 0.5; stroke-width: 1px; fill: rgb(204, 102, 119); fill-opacity: 1; stroke: rgb(255, 255, 255); stroke-opacity: 1;"/><path class="point" transform="translate(181.15,25.51)" d="M3,0A3,3 0 1,1 0,-3A3,3 0 0,1 3,0Z" style="opacity: 0.5; stroke-width: 1px; fill: rgb(204, 102, 119); fill-opacity: 1; stroke: rgb(255, 255, 255); stroke-opacity: 1;"/><path class="point" transform="translate(181.15,17.33)" d="M3,0A3,3 0 1,1 0,-3A3,3 0 0,1 3,0Z" style="opacity: 0.5; stroke-width: 1px; fill: rgb(204, 102, 119); fill-opacity: 1; stroke: rgb(255, 255, 255); stroke-opacity: 1;"/><path class="point" transform="translate(181.15,43.59)" d="M3,0A3,3 0 1,1 0,-3A3,3 0 0,1 3,0Z" style="opacity: 0.5; stroke-width: 1px; fill: rgb(204, 102, 119); fill-opacity: 1; stroke: rgb(255, 255, 255); stroke-opacity: 1;"/><path class="point" transform="translate(181.15,24.8)" d="M3,0A3,3 0 1,1 0,-3A3,3 0 0,1 3,0Z" style="opacity: 0.5; stroke-width: 1px; fill: rgb(204, 102, 119); fill-opacity: 1; stroke: rgb(255, 255, 255); stroke-opacity: 1;"/><path class="point" transform="translate(181.15,47.73)" d="M3,0A3,3 0 1,1 0,-3A3,3 0 0,1 3,0Z" style="opacity: 0.5; stroke-width: 1px; fill: rgb(204, 102, 119); fill-opacity: 1; stroke: rgb(255, 255, 255); stroke-opacity: 1;"/><path class="point" transform="translate(181.15,33.32)" d="M3,0A3,3 0 1,1 0,-3A3,3 0 0,1 3,0Z" style="opacity: 0.5; stroke-width: 1px; fill: rgb(204, 102, 119); fill-opacity: 1; stroke: rgb(255, 255, 255); stroke-opacity: 1;"/><path class="point" transform="translate(181.15,22.79)" d="M3,0A3,3 0 1,1 0,-3A3,3 0 0,1 3,0Z" style="opacity: 0.5; stroke-width: 1px; fill: rgb(204, 102, 119); fill-opacity: 1; stroke: rgb(255, 255, 255); stroke-opacity: 1;"/><path class="point" transform="translate(220,18.75)" d="M3,0A3,3 0 1,1 0,-3A3,3 0 0,1 3,0Z" style="opacity: 0.5; stroke-width: 1px; fill: rgb(204, 102, 119); fill-opacity: 1; stroke: rgb(255, 255, 255); stroke-opacity: 1;"/><path class="point" transform="translate(220,23.47)" d="M3,0A3,3 0 1,1 0,-3A3,3 0 0,1 3,0Z" style="opacity: 0.5; stroke-width: 1px; fill: rgb(204, 102, 119); fill-opacity: 1; stroke: rgb(255, 255, 255); stroke-opacity: 1;"/><path class="point" transform="translate(220,17.87)" d="M3,0A3,3 0 1,1 0,-3A3,3 0 0,1 3,0Z" style="opacity: 0.5; stroke-width: 1px; fill: rgb(204, 102, 119); fill-opacity: 1; stroke: rgb(255, 255, 255); stroke-opacity: 1;"/><path class="point" transform="translate(220,15.84)" d="M3,0A3,3 0 1,1 0,-3A3,3 0 0,1 3,0Z" style="opacity: 0.5; stroke-width: 1px; fill: rgb(204, 102, 119); fill-opacity: 1; stroke: rgb(255, 255, 255); stroke-opacity: 1;"/><path class="point" transform="translate(220,15.3)" d="M3,0A3,3 0 1,1 0,-3A3,3 0 0,1 3,0Z" style="opacity: 0.5; stroke-width: 1px; fill: rgb(204, 102, 119); fill-opacity: 1; stroke: rgb(255, 255, 255); stroke-opacity: 1;"/><path class="point" transform="translate(220,16.88)" d="M3,0A3,3 0 1,1 0,-3A3,3 0 0,1 3,0Z" style="opacity: 0.5; stroke-width: 1px; fill: rgb(204, 102, 119); fill-opacity: 1; stroke: rgb(255, 255, 255); stroke-opacity: 1;"/><path class="point" transform="translate(220,30.71)" d="M3,0A3,3 0 1,1 0,-3A3,3 0 0,1 3,0Z" style="opacity: 0.5; stroke-width: 1px; fill: rgb(204, 102, 119); fill-opacity: 1; stroke: rgb(255, 255, 255); stroke-opacity: 1;"/><path class="point" transform="translate(220,17)" d="M3,0A3,3 0 1,1 0,-3A3,3 0 0,1 3,0Z" style="opacity: 0.5; stroke-width: 1px; fill: rgb(204, 102, 119); fill-opacity: 1; stroke: rgb(255, 255, 255); stroke-opacity: 1;"/><path class="point" transform="translate(220,15.35)" d="M3,0A3,3 0 1,1 0,-3A3,3 0 0,1 3,0Z" style="opacity: 0.5; stroke-width: 1px; fill: rgb(204, 102, 119); fill-opacity: 1; stroke: rgb(255, 255, 255); stroke-opacity: 1;"/><path class="point" transform="translate(220,31.65)" d="M3,0A3,3 0 1,1 0,-3A3,3 0 0,1 3,0Z" style="opacity: 0.5; stroke-width: 1px; fill: rgb(204, 102, 119); fill-opacity: 1; stroke: rgb(255, 255, 255); stroke-opacity: 1;"/><path class="point" transform="translate(258.85,21.02)" d="M3,0A3,3 0 1,1 0,-3A3,3 0 0,1 3,0Z" style="opacity: 0.5; stroke-width: 1px; fill: rgb(204, 102, 119); fill-opacity: 1; stroke: rgb(255, 255, 255); stroke-opacity: 1;"/><path class="point" transform="translate(258.85,17.58)" d="M3,0A3,3 0 1,1 0,-3A3,3 0 0,1 3,0Z" style="opacity: 0.5; stroke-width: 1px; fill: rgb(204, 102, 119); fill-opacity: 1; stroke: rgb(255, 255, 255); stroke-opacity: 1;"/><path class="point" transform="translate(258.85,15.5)" d="M3,0A3,3 0 1,1 0,-3A3,3 0 0,1 3,0Z" style="opacity: 0.5; stroke-width: 1px; fill: rgb(204, 102, 119); fill-opacity: 1; stroke: rgb(255, 255, 255); stroke-opacity: 1;"/><path class="point" transform="translate(258.85,16.77)" d="M3,0A3,3 0 1,1 0,-3A3,3 0 0,1 3,0Z" style="opacity: 0.5; stroke-width: 1px; fill: rgb(204, 102, 119); fill-opacity: 1; stroke: rgb(255, 255, 255); stroke-opacity: 1;"/><path class="point" transform="translate(258.85,23.39)" d="M3,0A3,3 0 1,1 0,-3A3,3 0 0,1 3,0Z" style="opacity: 0.5; stroke-width: 1px; fill: rgb(204, 102, 119); fill-opacity: 1; stroke: rgb(255, 255, 255); stroke-opacity: 1;"/><path class="point" transform="translate(258.85,16.52)" d="M3,0A3,3 0 1,1 0,-3A3,3 0 0,1 3,0Z" style="opacity: 0.5; stroke-width: 1px; fill: rgb(204, 102, 119); fill-opacity: 1; stroke: rgb(255, 255, 255); stroke-opacity: 1;"/><path class="point" transform="translate(258.85,15.74)" d="M3,0A3,3 0 1,1 0,-3A3,3 0 0,1 3,0Z" style="opacity: 0.5; stroke-width: 1px; fill: rgb(204, 102, 119); fill-opacity: 1; stroke: rgb(255, 255, 255); stroke-opacity: 1;"/><path class="point" transform="translate(258.85,16.11)" d="M3,0A3,3 0 1,1 0,-3A3,3 0 0,1 3,0Z" style="opacity: 0.5; stroke-width: 1px; fill: rgb(204, 102, 119); fill-opacity: 1; stroke: rgb(255, 255, 255); stroke-opacity: 1;"/><path class="point" transform="translate(258.85,17.04)" d="M3,0A3,3 0 1,1 0,-3A3,3 0 0,1 3,0Z" style="opacity: 0.5; stroke-width: 1px; fill: rgb(204, 102, 119); fill-opacity: 1; stroke: rgb(255, 255, 255); stroke-opacity: 1;"/><path class="point" transform="translate(258.85,15.01)" d="M3,0A3,3 0 1,1 0,-3A3,3 0 0,1 3,0Z" style="opacity: 0.5; stroke-width: 1px; fill: rgb(204, 102, 119); fill-opacity: 1; stroke: rgb(255, 255, 255); stroke-opacity: 1;"/><path class="point" transform="translate(297.7,16.89)" d="M3,0A3,3 0 1,1 0,-3A3,3 0 0,1 3,0Z" style="opacity: 0.5; stroke-width: 1px; fill: rgb(204, 102, 119); fill-opacity: 1; stroke: rgb(255, 255, 255); stroke-opacity: 1;"/><path class="point" transform="translate(297.7,27.51)" d="M3,0A3,3 0 1,1 0,-3A3,3 0 0,1 3,0Z" style="opacity: 0.5; stroke-width: 1px; fill: rgb(204, 102, 119); fill-opacity: 1; stroke: rgb(255, 255, 255); stroke-opacity: 1;"/><path class="point" transform="translate(297.7,18.88)" d="M3,0A3,3 0 1,1 0,-3A3,3 0 0,1 3,0Z" style="opacity: 0.5; stroke-width: 1px; fill: rgb(204, 102, 119); fill-opacity: 1; stroke: rgb(255, 255, 255); stroke-opacity: 1;"/><path class="point" transform="translate(297.7,19.27)" d="M3,0A3,3 0 1,1 0,-3A3,3 0 0,1 3,0Z" style="opacity: 0.5; stroke-width: 1px; fill: rgb(204, 102, 119); fill-opacity: 1; stroke: rgb(255, 255, 255); stroke-opacity: 1;"/><path class="point" transform="translate(297.7,16.83)" d="M3,0A3,3 0 1,1 0,-3A3,3 0 0,1 3,0Z" style="opacity: 0.5; stroke-width: 1px; fill: rgb(204, 102, 119); fill-opacity: 1; stroke: rgb(255, 255, 255); stroke-opacity: 1;"/><path class="point" transform="translate(297.7,19.48)" d="M3,0A3,3 0 1,1 0,-3A3,3 0 0,1 3,0Z" style="opacity: 0.5; stroke-width: 1px; fill: rgb(204, 102, 119); fill-opacity: 1; stroke: rgb(255, 255, 255); stroke-opacity: 1;"/><path class="point" transform="translate(297.7,18.08)" d="M3,0A3,3 0 1,1 0,-3A3,3 0 0,1 3,0Z" style="opacity: 0.5; stroke-width: 1px; fill: rgb(204, 102, 119); fill-opacity: 1; stroke: rgb(255, 255, 255); stroke-opacity: 1;"/><path class="point" transform="translate(297.7,18.42)" d="M3,0A3,3 0 1,1 0,-3A3,3 0 0,1 3,0Z" style="opacity: 0.5; stroke-width: 1px; fill: rgb(204, 102, 119); fill-opacity: 1; stroke: rgb(255, 255, 255); stroke-opacity: 1;"/><path class="point" transform="translate(297.7,16.1)" d="M3,0A3,3 0 1,1 0,-3A3,3 0 0,1 3,0Z" style="opacity: 0.5; stroke-width: 1px; fill: rgb(204, 102, 119); fill-opacity: 1; stroke: rgb(255, 255, 255); stroke-opacity: 1;"/><path class="point" transform="translate(297.7,33.97)" d="M3,0A3,3 0 1,1 0,-3A3,3 0 0,1 3,0Z" style="opacity: 0.5; stroke-width: 1px; fill: rgb(204, 102, 119); fill-opacity: 1; stroke: rgb(255, 255, 255); stroke-opacity: 1;"/><path class="point" transform="translate(336.55,21.98)" d="M3,0A3,3 0 1,1 0,-3A3,3 0 0,1 3,0Z" style="opacity: 0.5; stroke-width: 1px; fill: rgb(204, 102, 119); fill-opacity: 1; stroke: rgb(255, 255, 255); stroke-opacity: 1;"/><path class="point" transform="translate(336.55,28.63)" d="M3,0A3,3 0 1,1 0,-3A3,3 0 0,1 3,0Z" style="opacity: 0.5; stroke-width: 1px; fill: rgb(204, 102, 119); fill-opacity: 1; stroke: rgb(255, 255, 255); stroke-opacity: 1;"/><path class="point" transform="translate(336.55,28.91)" d="M3,0A3,3 0 1,1 0,-3A3,3 0 0,1 3,0Z" style="opacity: 0.5; stroke-width: 1px; fill: rgb(204, 102, 119); fill-opacity: 1; stroke: rgb(255, 255, 255); stroke-opacity: 1;"/><path class="point" transform="translate(336.55,22.08)" d="M3,0A3,3 0 1,1 0,-3A3,3 0 0,1 3,0Z" style="opacity: 0.5; stroke-width: 1px; fill: rgb(204, 102, 119); fill-opacity: 1; stroke: rgb(255, 255, 255); stroke-opacity: 1;"/><path class="point" transform="translate(336.55,28.21)" d="M3,0A3,3 0 1,1 0,-3A3,3 0 0,1 3,0Z" style="opacity: 0.5; stroke-width: 1px; fill: rgb(204, 102, 119); fill-opacity: 1; stroke: rgb(255, 255, 255); stroke-opacity: 1;"/><path class="point" transform="translate(336.55,22.68)" d="M3,0A3,3 0 1,1 0,-3A3,3 0 0,1 3,0Z" style="opacity: 0.5; stroke-width: 1px; fill: rgb(204, 102, 119); fill-opacity: 1; stroke: rgb(255, 255, 255); stroke-opacity: 1;"/><path class="point" transform="translate(336.55,20.04)" d="M3,0A3,3 0 1,1 0,-3A3,3 0 0,1 3,0Z" style="opacity: 0.5; stroke-width: 1px; fill: rgb(204, 102, 119); fill-opacity: 1; stroke: rgb(255, 255, 255); stroke-opacity: 1;"/><path class="point" transform="translate(336.55,18.1)" d="M3,0A3,3 0 1,1 0,-3A3,3 0 0,1 3,0Z" style="opacity: 0.5; stroke-width: 1px; fill: rgb(204, 102, 119); fill-opacity: 1; stroke: rgb(255, 255, 255); stroke-opacity: 1;"/><path class="point" transform="translate(336.55,79.32)" d="M3,0A3,3 0 1,1 0,-3A3,3 0 0,1 3,0Z" style="opacity: 0.5; stroke-width: 1px; fill: rgb(204, 102, 119); fill-opacity: 1; stroke: rgb(255, 255, 255); stroke-opacity: 1;"/><path class="point" transform="translate(336.55,23.28)" d="M3,0A3,3 0 1,1 0,-3A3,3 0 0,1 3,0Z" style="opacity: 0.5; stroke-width: 1px; fill: rgb(204, 102, 119); fill-opacity: 1; stroke: rgb(255, 255, 255); stroke-opacity: 1;"/><path class="point" transform="translate(375.4,41.82)" d="M3,0A3,3 0 1,1 0,-3A3,3 0 0,1 3,0Z" style="opacity: 0.5; stroke-width: 1px; fill: rgb(204, 102, 119); fill-opacity: 1; stroke: rgb(255, 255, 255); stroke-opacity: 1;"/><path class="point" transform="translate(375.4,31.19)" d="M3,0A3,3 0 1,1 0,-3A3,3 0 0,1 3,0Z" style="opacity: 0.5; stroke-width: 1px; fill: rgb(204, 102, 119); fill-opacity: 1; stroke: rgb(255, 255, 255); stroke-opacity: 1;"/><path class="point" transform="translate(375.4,27.46)" d="M3,0A3,3 0 1,1 0,-3A3,3 0 0,1 3,0Z" style="opacity: 0.5; stroke-width: 1px; fill: rgb(204, 102, 119); fill-opacity: 1; stroke: rgb(255, 255, 255); stroke-opacity: 1;"/><path class="point" transform="translate(375.4,28.25)" d="M3,0A3,3 0 1,1 0,-3A3,3 0 0,1 3,0Z" style="opacity: 0.5; stroke-width: 1px; fill: rgb(204, 102, 119); fill-opacity: 1; stroke: rgb(255, 255, 255); stroke-opacity: 1;"/><path class="point" transform="translate(375.4,49.46)" d="M3,0A3,3 0 1,1 0,-3A3,3 0 0,1 3,0Z" style="opacity: 0.5; stroke-width: 1px; fill: rgb(204, 102, 119); fill-opacity: 1; stroke: rgb(255, 255, 255); stroke-opacity: 1;"/><path class="point" transform="translate(375.4,31.3)" d="M3,0A3,3 0 1,1 0,-3A3,3 0 0,1 3,0Z" style="opacity: 0.5; stroke-width: 1px; fill: rgb(204, 102, 119); fill-opacity: 1; stroke: rgb(255, 255, 255); stroke-opacity: 1;"/><path class="point" transform="translate(375.4,36.04)" d="M3,0A3,3 0 1,1 0,-3A3,3 0 0,1 3,0Z" style="opacity: 0.5; stroke-width: 1px; fill: rgb(204, 102, 119); fill-opacity: 1; stroke: rgb(255, 255, 255); stroke-opacity: 1;"/><path class="point" transform="translate(375.4,33.8)" d="M3,0A3,3 0 1,1 0,-3A3,3 0 0,1 3,0Z" style="opacity: 0.5; stroke-width: 1px; fill: rgb(204, 102, 119); fill-opacity: 1; stroke: rgb(255, 255, 255); stroke-opacity: 1;"/><path class="point" transform="translate(375.4,27.91)" d="M3,0A3,3 0 1,1 0,-3A3,3 0 0,1 3,0Z" style="opacity: 0.5; stroke-width: 1px; fill: rgb(204, 102, 119); fill-opacity: 1; stroke: rgb(255, 255, 255); stroke-opacity: 1;"/><path class="point" transform="translate(375.4,36.66)" d="M3,0A3,3 0 1,1 0,-3A3,3 0 0,1 3,0Z" style="opacity: 0.5; stroke-width: 1px; fill: rgb(204, 102, 119); fill-opacity: 1; stroke: rgb(255, 255, 255); stroke-opacity: 1;"/><path class="point" transform="translate(414.25,50.77)" d="M3,0A3,3 0 1,1 0,-3A3,3 0 0,1 3,0Z" style="opacity: 0.5; stroke-width: 1px; fill: rgb(204, 102, 119); fill-opacity: 1; stroke: rgb(255, 255, 255); stroke-opacity: 1;"/><path class="point" transform="translate(414.25,45.01)" d="M3,0A3,3 0 1,1 0,-3A3,3 0 0,1 3,0Z" style="opacity: 0.5; stroke-width: 1px; fill: rgb(204, 102, 119); fill-opacity: 1; stroke: rgb(255, 255, 255); stroke-opacity: 1;"/><path class="point" transform="translate(414.25,55.31)" d="M3,0A3,3 0 1,1 0,-3A3,3 0 0,1 3,0Z" style="opacity: 0.5; stroke-width: 1px; fill: rgb(204, 102, 119); fill-opacity: 1; stroke: rgb(255, 255, 255); stroke-opacity: 1;"/><path class="point" transform="translate(414.25,46.09)" d="M3,0A3,3 0 1,1 0,-3A3,3 0 0,1 3,0Z" style="opacity: 0.5; stroke-width: 1px; fill: rgb(204, 102, 119); fill-opacity: 1; stroke: rgb(255, 255, 255); stroke-opacity: 1;"/><path class="point" transform="translate(414.25,55.28)" d="M3,0A3,3 0 1,1 0,-3A3,3 0 0,1 3,0Z" style="opacity: 0.5; stroke-width: 1px; fill: rgb(204, 102, 119); fill-opacity: 1; stroke: rgb(255, 255, 255); stroke-opacity: 1;"/><path class="point" transform="translate(414.25,52.36)" d="M3,0A3,3 0 1,1 0,-3A3,3 0 0,1 3,0Z" style="opacity: 0.5; stroke-width: 1px; fill: rgb(204, 102, 119); fill-opacity: 1; stroke: rgb(255, 255, 255); stroke-opacity: 1;"/><path class="point" transform="translate(414.25,54.18)" d="M3,0A3,3 0 1,1 0,-3A3,3 0 0,1 3,0Z" style="opacity: 0.5; stroke-width: 1px; fill: rgb(204, 102, 119); fill-opacity: 1; stroke: rgb(255, 255, 255); stroke-opacity: 1;"/><path class="point" transform="translate(414.25,49.64)" d="M3,0A3,3 0 1,1 0,-3A3,3 0 0,1 3,0Z" style="opacity: 0.5; stroke-width: 1px; fill: rgb(204, 102, 119); fill-opacity: 1; stroke: rgb(255, 255, 255); stroke-opacity: 1;"/><path class="point" transform="translate(414.25,48.15)" d="M3,0A3,3 0 1,1 0,-3A3,3 0 0,1 3,0Z" style="opacity: 0.5; stroke-width: 1px; fill: rgb(204, 102, 119); fill-opacity: 1; stroke: rgb(255, 255, 255); stroke-opacity: 1;"/><path class="point" transform="translate(414.25,66.03)" d="M3,0A3,3 0 1,1 0,-3A3,3 0 0,1 3,0Z" style="opacity: 0.5; stroke-width: 1px; fill: rgb(204, 102, 119); fill-opacity: 1; stroke: rgb(255, 255, 255); stroke-opacity: 1;"/></g><g class="text"/></g><g class="trace scatter tracee31434" style="stroke-miterlimit: 2; opacity: 1;"><g class="fills"/><g class="errorbars"/><g class="lines"><path class="js-line" d="M25.75,84.29L64.6,103.53L103.45,93.81L142.3,24.57L181.15,27.98L220,20.28L258.85,17.47L297.7,20.54L336.55,29.32L375.4,34.39L414.25,52.28" style="vector-effect: none; fill: none; stroke: rgb(204, 102, 119); stroke-opacity: 1; stroke-width: 2px; opacity: 1;"/></g><g class="points"/><g class="text"/></g></g></g></g><g class="zerolinelayer-above"/><path class="xlines-above crisp" d="M0,0" style="fill: none;"/><path class="ylines-above crisp" d="M0,0" style="fill: none;"/><g class="overlines-above"/><g class="xaxislayer-above"><g class="xtick"><text text-anchor="middle" x="0" y="233" transform="translate(105.75,0)" style="font-family: 'Open Sans', verdana, arial, sans-serif; font-size: 12px; fill: rgb(42, 63, 95); fill-opacity: 1; white-space: pre;">0</text></g><g class="xtick"><text text-anchor="middle" x="0" y="233" style="font-family: 'Open Sans', verdana, arial, sans-serif; font-size: 12px; fill: rgb(42, 63, 95); fill-opacity: 1; white-space: pre;" transform="translate(202.87,0)">5</text></g><g class="xtick"><text text-anchor="middle" x="0" y="233" style="font-family: 'Open Sans', verdana, arial, sans-serif; font-size: 12px; fill: rgb(42, 63, 95); fill-opacity: 1; white-space: pre;" transform="translate(300,0)">10</text></g><g class="xtick"><text text-anchor="middle" x="0" y="233" style="font-family: 'Open Sans', verdana, arial, sans-serif; font-size: 12px; fill: rgb(42, 63, 95); fill-opacity: 1; white-space: pre;" transform="translate(397.12,0)">15</text></g><g class="xtick"><text text-anchor="middle" x="0" y="233" style="font-family: 'Open Sans', verdana, arial, sans-serif; font-size: 12px; fill: rgb(42, 63, 95); fill-opacity: 1; white-space: pre;" transform="translate(494.25,0)">20</text></g></g><g class="yaxislayer-above"><g class="ytick"><text text-anchor="end" x="79" y="4.199999999999999" transform="translate(0,220)" style="font-family: 'Open Sans', verdana, arial, sans-serif; font-size: 12px; fill: rgb(42, 63, 95); fill-opacity: 1; white-space: pre;">0</text></g><g class="ytick"><text text-anchor="end" x="79" y="4.199999999999999" style="font-family: 'Open Sans', verdana, arial, sans-serif; font-size: 12px; fill: rgb(42, 63, 95); fill-opacity: 1; white-space: pre;" transform="translate(0,145.93)">0.5</text></g><g class="ytick"><text text-anchor="end" x="79" y="4.199999999999999" style="font-family: 'Open Sans', verdana, arial, sans-serif; font-size: 12px; fill: rgb(42, 63, 95); fill-opacity: 1; white-space: pre;" transform="translate(0,71.85)">1</text></g></g><g class="overaxes-above"/></g></g><g class="polarlayer"/><g class="smithlayer"/><g class="ternarylayer"/><g class="geolayer"/><g class="funnelarealayer"/><g class="pielayer"/><g class="iciclelayer"/><g class="treemaplayer"/><g class="sunburstlayer"/><g class="glimages"/><defs id="topdefs-35bbfe"><g class="clips"/></defs><g class="layer-above"><g class="imagelayer"/><g class="shapelayer"/></g><g class="infolayer"><g class="g-gtitle"/><g class="g-xtitle"><text class="xtitle" x="300" y="261.3" text-anchor="middle" style="opacity: 1; font-family: 'Open Sans', verdana, arial, sans-serif; font-size: 14px; fill: rgb(42, 63, 95); fill-opacity: 1; white-space: pre;">gamma</text></g><g class="g-ytitle"><text class="ytitle" transform="rotate(-90,42.725,140)" x="42.725" y="140" text-anchor="middle" style="opacity: 1; font-family: 'Open Sans', verdana, arial, sans-serif; font-size: 14px; fill: rgb(42, 63, 95); fill-opacity: 1; white-space: pre;">cosine similarity</text></g></g></svg>