<svg class="main-svg" xmlns="http://www.w3.org/2000/svg" xmlns:xlink="http://www.w3.org/1999/xlink" width="600" height="400" style="" viewBox="0 0 600 400"><rect x="0" y="0" width="600" height="400" style="fill: rgb(255, 255, 255); fill-opacity: 1;"/><defs id="defs-25a1dc"><g class="clips"><clipPath id="clip25a1dcxyplot" class="plotclip"><rect width="440" height="220"/></clipPath><clipPath class="axesclip" id="clip25a1dcx"><rect x="80" y="0" width="440" height="400"/></clipPath><clipPath class="axesclip" id="clip25a1dcy"><rect x="0" y="100" width="600" height="220"/></clipPath><clipPath class="axesclip" id="clip25a1dcxy"><rect x="80" y="100" width="440" height="220"/></clipPath></g><g class="gradients"/><g class="patterns"/></defs><g class="bglayer"/><g class="layer-below"><g class="imagelayer"/><g class="shapelayer"/></g><g class="cartesianlayer"><g class="subplot xy"><g class="layer-subplot"><g class="shapelayer"/><g class="imagelayer"/></g><g class="minor-gridlayer"><g class="x"/><g class="y"/></g><g class="gridlayer"><g class="x"><path class="xgrid crisp" transform="translate(168,0)" d="M0,100v220" style="stroke: rgb(235, 240, 248); stroke-opacity: 1; stroke-width: 1px;"/><path class="xgrid crisp" transform="translate(256,0)" d="M0,100v220" style="stroke: rgb(235, 240, 248); stroke-opacity: 1; stroke-width: 1px;"/><path class="xgrid crisp" transform="translate(344,0)" d="M0,100v220" style="stroke: rgb(235, 240, 248); stroke-opacity: 1; stroke-width: 1px;"/><path class="xgrid crisp" transform="translate(432,0)" d="M0,100v220" style="stroke: rgb(235, 240, 248); stroke-opacity: 1; stroke-width: 1px;"/></g><g class="y"><path class="ygrid crisp" transform="translate(0,311.90999999999997)" d="M80,0h440" style="stroke: rgb(235, 240, 248); stroke-opacity: 1; stroke-width: 1px;"/><path class="ygrid crisp" transform="translate(0,272.83000000000004)" d="M80,0h440" style="stroke: rgb(235, 240, 248); stroke-opacity: 1; stroke-width: 1px;"/><path class="ygrid crisp" transform="translate(0,233.74)" d="M80,0h440" style="stroke: rgb(235, 240, 248); stroke-opacity: 1; stroke-width: 1px;"/><path class="ygrid crisp" transform="translate(0,194.66)" d="M80,0h440" style="stroke: rgb(235, 240, 248); stroke-opacity: 1; stroke-width: 1px;"/><path class="ygrid crisp" transform="translate(0,155.57999999999998)" d="M80,0h440" style="stroke: rgb(235, 240, 248); stroke-opacity: 1; stroke-width: 1px;"/><path class="ygrid crisp" transform="translate(0,116.5)" d="M80,0h440" style="stroke: rgb(235, 240, 248); stroke-opacity: 1; stroke-width: 1px;"/></g></g><g class="zerolinelayer"><path class="xzl zl crisp" transform="translate(80,0)" d="M0,100v220" style="stroke: rgb(235, 240, 248); stroke-opacity: 1; stroke-width: 2px;"/></g><g class="layer-between"><g class="shapelayer"/><g class="imagelayer"/></g><path class="xlines-below"/><path class="ylines-below"/><g class="overlines-below"/><g class="xaxislayer-below"/><g class="yaxislayer-below"/><g class="overaxes-below"/><g class="overplot"><g class="xy" transform="translate(80,100)" clip-path="url(#clip25a1dcxyplot)"><g class="scatterlayer mlayer"><g class="trace scatter trace1cc4c6" style="stroke-miterlimit: 2; opacity: 1;"><g class="fills"/><g class="errorbars"/><g class="lines"><path class="js-line" d="M0,11L4.4,32.22L8.8,46.13L22,74.37L26.4,79.13L30.8,85.09L35.2,87.22L39.6,91.11L44,91.7L48.4,93.02L52.8,95.45L57.2,95.22L61.6,95.77L66,94.11L70.4,95.06L74.8,95.43L79.2,93.43L92.4,96.39L96.8,96.4L105.6,96.74L110,96.39L132,96.23L136.4,96.62L145.2,95.87L149.6,97.35L154,95.71L158.4,96.85L162.8,94.55L167.2,96.15L171.6,97.02L176,99.23L184.8,96.32L189.2,96.15L193.6,97.36L198,96.08L206.8,95.72L211.2,96.37L220,95.59L224.4,96.56L228.8,96.79L233.2,96.01L237.6,97.29L242,95.99L246.4,95.6L250.8,96.53L259.6,94.21L264,95.37L268.4,96.23L272.8,98.39L277.2,98.23L281.6,96.44L290.4,96.72L294.8,96.86L303.6,97.97L308,98.52L316.8,93.93L321.2,94.36L325.6,95L330,96.54L343.2,94.35L347.6,95.72L356.4,99.39L360.8,98.73L365.2,98.56L369.6,99.69L374,98.89L378.4,95.96L382.8,98.41L387.2,96.77L391.6,96.88L396,95.78L418,97.32L422.4,98.9L431.2,96.23L435.6,96.03L440,98.44" style="vector-effect: none; fill: none; stroke: rgb(231, 248, 191); stroke-opacity: 1; stroke-width: 2px; opacity: 1;"/></g><g class="points"/><g class="text"/></g><g class="trace scatter tracecee3fb" style="stroke-miterlimit: 2; opacity: 0.3;"><g class="fills"><g><path class="js-fill" d="M0,11L4.4,29.75L8.8,42.53L13.2,50.23L17.6,62.09L22,70.74L26.4,75.44L30.8,81.56L35.2,83.31L39.6,86.85L44,86.36L48.4,87.17L52.8,89.73L61.6,91.56L66,89.84L70.4,89.21L74.8,91.25L79.2,89.61L83.6,89.38L92.4,91.21L96.8,91.17L101.2,92.34L105.6,91.97L110,90.19L114.4,90.14L118.8,89.35L123.2,91.38L127.6,91.49L132,92.68L140.8,92L145.2,90.12L149.6,92.25L154,90.53L158.4,91.11L162.8,89.71L167.2,92.19L171.6,91.65L176,92.97L180.4,90.78L189.2,90.21L193.6,91.92L198,90.22L202.4,90.9L206.8,89.89L211.2,90.55L215.6,92.46L220,91.98L224.4,91.85L228.8,92.89L233.2,91.99L237.6,93.03L246.4,90.41L250.8,90.83L255.2,88.66L259.6,89.35L264,90.73L268.4,93.25L272.8,94L277.2,93.89L281.6,91.87L286,91.95L290.4,90.71L294.8,90.96L299.2,90.89L303.6,92.3L308,94.26L312.4,89.7L316.8,87.58L321.2,89.41L330,91.28L334.4,90.29L338.8,90.25L343.2,88.59L347.6,89.99L352,92.99L365.2,93.7L369.6,95.57L374,94.56L378.4,92.34L382.8,94.92L387.2,94.23L391.6,91.48L396,91.52L400.4,91.24L404.8,91.74L413.6,91.24L418,93.22L422.4,94.33L426.8,93.13L431.2,91.11L435.6,91.89L440,91.79L440,105.08L435.6,100.16L431.2,101.35L426.8,101.88L422.4,103.47L418,101.43L413.6,102.58L409.2,101.38L404.8,101.87L396,100.04L391.6,102.27L387.2,99.31L382.8,101.91L378.4,99.57L374,103.21L369.6,103.8L365.2,103.42L360.8,103.85L356.4,105.4L352,101.52L347.6,101.45L343.2,100.11L338.8,101.06L330,101.81L325.6,99.89L321.2,99.31L316.8,100.27L312.4,102.05L308,102.79L303.6,103.64L299.2,103.27L290.4,102.72L286,100.66L281.6,101.02L277.2,102.58L272.8,102.78L268.4,99.21L264,100.01L259.6,99.08L255.2,102.6L250.8,102.22L242,100.14L237.6,101.56L233.2,100.03L228.8,100.69L224.4,101.26L220,99.2L215.6,99.46L211.2,102.18L202.4,100.95L198,101.94L193.6,102.79L189.2,102.1L184.8,102.17L180.4,104.87L176,105.49L171.6,102.39L167.2,100.11L162.8,99.39L158.4,102.59L154,100.88L149.6,102.46L145.2,101.62L132,99.79L127.6,101.09L123.2,101.71L118.8,103.43L114.4,102.29L110,102.6L101.2,100.98L96.8,101.64L92.4,101.57L88,98.95L83.6,99.59L79.2,97.25L74.8,99.61L70.4,100.9L66,98.38L61.6,99.98L57.2,99.81L52.8,101.18L44,97.03L39.6,95.37L35.2,91.13L30.8,88.62L22,78L17.6,69.79L8.8,49.72L4.4,34.69L0,11Z" style="fill: rgb(231, 248, 191); fill-opacity: 1; stroke-width: 0;"/></g></g><g class="errorbars"/><g class="lines"><path class="js-line" d="M0,11L4.4,29.75L8.8,42.53L13.2,50.23L17.6,62.09L22,70.74L26.4,75.44L30.8,81.56L35.2,83.31L39.6,86.85L44,86.36L48.4,87.17L52.8,89.73L61.6,91.56L66,89.84L70.4,89.21L74.8,91.25L79.2,89.61L83.6,89.38L92.4,91.21L96.8,91.17L101.2,92.34L105.6,91.97L110,90.19L114.4,90.14L118.8,89.35L123.2,91.38L127.6,91.49L132,92.68L140.8,92L145.2,90.12L149.6,92.25L154,90.53L158.4,91.11L162.8,89.71L167.2,92.19L171.6,91.65L176,92.97L180.4,90.78L189.2,90.21L193.6,91.92L198,90.22L202.4,90.9L206.8,89.89L211.2,90.55L215.6,92.46L220,91.98L224.4,91.85L228.8,92.89L233.2,91.99L237.6,93.03L246.4,90.41L250.8,90.83L255.2,88.66L259.6,89.35L264,90.73L268.4,93.25L272.8,94L277.2,93.89L281.6,91.87L286,91.95L290.4,90.71L294.8,90.96L299.2,90.89L303.6,92.3L308,94.26L312.4,89.7L316.8,87.58L321.2,89.41L330,91.28L334.4,90.29L338.8,90.25L343.2,88.59L347.6,89.99L352,92.99L365.2,93.7L369.6,95.57L374,94.56L378.4,92.34L382.8,94.92L387.2,94.23L391.6,91.48L396,91.52L400.4,91.24L404.8,91.74L413.6,91.24L418,93.22L422.4,94.33L426.8,93.13L431.2,91.11L435.6,91.89L440,91.79L440,105.08L435.6,100.16L431.2,101.35L426.8,101.88L422.4,103.47L418,101.43L413.6,102.58L409.2,101.38L404.8,101.87L396,100.04L391.6,102.27L387.2,99.31L382.8,101.91L378.4,99.57L374,103.21L369.6,103.8L365.2,103.42L360.8,103.85L356.4,105.4L352,101.52L347.6,101.45L343.2,100.11L338.8,101.06L330,101.81L325.6,99.89L321.2,99.31L316.8,100.27L312.4,102.05L308,102.79L303.6,103.64L299.2,103.27L290.4,102.72L286,100.66L281.6,101.02L277.2,102.58L272.8,102.78L268.4,99.21L264,100.01L259.6,99.08L255.2,102.6L250.8,102.22L242,100.14L237.6,101.56L233.2,100.03L228.8,100.69L224.4,101.26L220,99.2L215.6,99.46L211.2,102.18L202.4,100.95L198,101.94L193.6,102.79L189.2,102.1L184.8,102.17L180.4,104.87L176,105.49L171.6,102.39L167.2,100.11L162.8,99.39L158.4,102.59L154,100.88L149.6,102.46L145.2,101.62L132,99.79L127.6,101.09L123.2,101.71L118.8,103.43L114.4,102.29L110,102.6L101.2,100.98L96.8,101.64L92.4,101.57L88,98.95L83.6,99.59L79.2,97.25L74.8,99.61L70.4,100.9L66,98.38L61.6,99.98L57.2,99.81L52.8,101.18L44,97.03L39.6,95.37L35.2,91.13L30.8,88.62L22,78L17.6,69.79L8.8,49.72L4.4,34.69L0,11" style="vector-effect: none; fill: none; stroke: rgb(0, 0, 0); stroke-opacity: 0; stroke-width: 2px; opacity: 1;"/></g><g class="points"/><g class="text"/></g><g class="trace scatter tracede82e9" style="stroke-miterlimit: 2; opacity: 1;"><g class="fills"/><g class="errorbars"/><g class="lines"><path class="js-line" d="M0,11L4.4,26.08L8.8,34.2L22,56.08L26.4,62.37L30.8,67.79L35.2,71.32L48.4,81.12L52.8,84.26L61.6,87.62L66,89.89L79.2,91.24L83.6,92.92L88,92.41L92.4,93.95L96.8,93.71L101.2,95.4L105.6,95.74L110,97.03L114.4,95.46L118.8,95.37L123.2,93.88L127.6,95.52L132,97.4L136.4,96.14L140.8,96.56L145.2,95.16L149.6,96.45L154,96.81L158.4,94.92L162.8,95.97L180.4,94.52L184.8,95.04L202.4,96.68L206.8,95.85L211.2,94.5L215.6,96.57L228.8,98.09L233.2,98.6L237.6,98.25L242,99.78L246.4,99.98L250.8,98.6L255.2,99.44L259.6,97.3L264,95.95L268.4,96.02L272.8,98.73L277.2,99.13L281.6,98.48L286,99.52L290.4,99.34L294.8,98.38L299.2,98.97L303.6,100.35L308,99.07L312.4,100.1L316.8,101L321.2,98.67L330,97.58L334.4,96.11L338.8,94.86L343.2,94.55L347.6,95.99L352,96.29L356.4,97.53L360.8,97.97L365.2,96.26L369.6,95.9L374,96.15L378.4,94.07L391.6,93.74L396,96.44L400.4,95.49L404.8,96.69L409.2,96.84L413.6,96.18L422.4,94.98L426.8,95.07L431.2,96.55L435.6,95.8L440,96.31" style="vector-effect: none; fill: none; stroke: rgb(152, 213, 164); stroke-opacity: 1; stroke-width: 2px; opacity: 1;"/></g><g class="points"/><g class="text"/></g><g class="trace scatter trace3e057e" style="stroke-miterlimit: 2; opacity: 0.3;"><g class="fills"><g><path class="js-fill" d="M0,11L4.4,24.64L8.8,31.81L26.4,58.38L30.8,62.88L44,70.85L48.4,75.5L52.8,80.32L57.2,80.89L61.6,83.27L66,84.12L70.4,84.13L74.8,85.71L83.6,86.33L88,85.83L92.4,88.14L96.8,87.01L101.2,89.79L105.6,89.41L110,90.31L114.4,88.58L118.8,91.44L123.2,91.5L136.4,90.04L140.8,91.91L145.2,90L149.6,90.41L158.4,89.31L162.8,90.31L167.2,89.95L171.6,92.94L180.4,88.53L184.8,89.46L193.6,88.68L198,90.27L202.4,92.29L206.8,89.32L211.2,87.19L215.6,87.87L220,91.2L224.4,90.33L228.8,92.31L233.2,90.5L237.6,91.01L242,94.23L246.4,94.44L250.8,92.3L255.2,93.95L259.6,92.21L264,90.84L268.4,91.62L272.8,93L277.2,93.28L281.6,93.61L286,93.08L294.8,92.81L299.2,94.58L303.6,94.93L308,93.77L312.4,95.2L316.8,94.12L321.2,90.6L325.6,93.49L330,94.68L334.4,92.4L343.2,88.87L347.6,91.93L360.8,93.55L365.2,90.94L374,90.51L378.4,87.69L382.8,87.67L387.2,89.63L391.6,89.44L396,91.36L400.4,92.28L404.8,92.19L413.6,92.03L418,91.82L422.4,92.06L426.8,90.66L431.2,91.42L435.6,90.78L440,90.35L440,102.26L435.6,100.83L431.2,101.68L422.4,97.89L418,99.1L409.2,101.21L404.8,101.18L400.4,98.69L396,101.51L391.6,98.04L387.2,97.63L382.8,100.61L378.4,100.46L374,101.79L369.6,100.92L360.8,102.39L356.4,102.1L352,100.12L347.6,100.05L343.2,100.22L338.8,99.25L330,100.47L325.6,102.86L321.2,106.74L316.8,107.88L312.4,105L308,104.37L303.6,105.76L299.2,103.35L294.8,103.95L290.4,105.66L286,105.96L281.6,103.35L277.2,104.98L272.8,104.46L268.4,100.42L264,101.07L259.6,102.4L255.2,104.93L237.6,105.49L233.2,106.7L228.8,103.87L224.4,105.7L220,103.31L215.6,105.27L211.2,101.81L206.8,102.39L202.4,101.08L198,102.62L189.2,101.95L184.8,100.63L180.4,100.52L176,99.24L171.6,98.33L167.2,100.94L162.8,101.64L158.4,100.54L154,103.5L149.6,102.49L145.2,100.32L140.8,101.2L136.4,102.25L132,104.17L123.2,96.26L118.8,99.31L114.4,102.35L110,103.76L101.2,101L96.8,100.4L88,98.98L83.6,99.5L79.2,96.32L74.8,96.73L70.4,96.78L66,95.67L61.6,91.98L57.2,90.22L44,84.25L39.6,80.79L30.8,72.69L26.4,66.36L17.6,53.24L13.2,45.72L4.4,27.51L0,11Z" style="fill: rgb(152, 213, 164); fill-opacity: 1; stroke-width: 0;"/></g></g><g class="errorbars"/><g class="lines"><path class="js-line" d="M0,11L4.4,24.64L8.8,31.81L26.4,58.38L30.8,62.88L44,70.85L48.4,75.5L52.8,80.32L57.2,80.89L61.6,83.27L66,84.12L70.4,84.13L74.8,85.71L83.6,86.33L88,85.83L92.4,88.14L96.8,87.01L101.2,89.79L105.6,89.41L110,90.31L114.4,88.58L118.8,91.44L123.2,91.5L136.4,90.04L140.8,91.91L145.2,90L149.6,90.41L158.4,89.31L162.8,90.31L167.2,89.95L171.6,92.94L180.4,88.53L184.8,89.46L193.6,88.68L198,90.27L202.4,92.29L206.8,89.32L211.2,87.19L215.6,87.87L220,91.2L224.4,90.33L228.8,92.31L233.2,90.5L237.6,91.01L242,94.23L246.4,94.44L250.8,92.3L255.2,93.95L259.6,92.21L264,90.84L268.4,91.62L272.8,93L277.2,93.28L281.6,93.61L286,93.08L294.8,92.81L299.2,94.58L303.6,94.93L308,93.77L312.4,95.2L316.8,94.12L321.2,90.6L325.6,93.49L330,94.68L334.4,92.4L343.2,88.87L347.6,91.93L360.8,93.55L365.2,90.94L374,90.51L378.4,87.69L382.8,87.67L387.2,89.63L391.6,89.44L396,91.36L400.4,92.28L404.8,92.19L413.6,92.03L418,91.82L422.4,92.06L426.8,90.66L431.2,91.42L435.6,90.78L440,90.35L440,102.26L435.6,100.83L431.2,101.68L422.4,97.89L418,99.1L409.2,101.21L404.8,101.18L400.4,98.69L396,101.51L391.6,98.04L387.2,97.63L382.8,100.61L378.4,100.46L374,101.79L369.6,100.92L360.8,102.39L356.4,102.1L352,100.12L347.6,100.05L343.2,100.22L338.8,99.25L330,100.47L325.6,102.86L321.2,106.74L316.8,107.88L312.4,105L308,104.37L303.6,105.76L299.2,103.35L294.8,103.95L290.4,105.66L286,105.96L281.6,103.35L277.2,104.98L272.8,104.46L268.4,100.42L264,101.07L259.6,102.4L255.2,104.93L237.6,105.49L233.2,106.7L228.8,103.87L224.4,105.7L220,103.31L215.6,105.27L211.2,101.81L206.8,102.39L202.4,101.08L198,102.62L189.2,101.95L184.8,100.63L180.4,100.52L176,99.24L171.6,98.33L167.2,100.94L162.8,101.64L158.4,100.54L154,103.5L149.6,102.49L145.2,100.32L140.8,101.2L136.4,102.25L132,104.17L123.2,96.26L118.8,99.31L114.4,102.35L110,103.76L101.2,101L96.8,100.4L88,98.98L83.6,99.5L79.2,96.32L74.8,96.73L70.4,96.78L66,95.67L61.6,91.98L57.2,90.22L44,84.25L39.6,80.79L30.8,72.69L26.4,66.36L17.6,53.24L13.2,45.72L4.4,27.51L0,11" style="vector-effect: none; fill: none; stroke: rgb(0, 0, 0); stroke-opacity: 0; stroke-width: 2px; opacity: 1;"/></g><g class="points"/><g class="text"/></g><g class="trace scatter trace3d6a28" style="stroke-miterlimit: 2; opacity: 1;"><g class="fills"/><g class="errorbars"/><g class="lines"><path class="js-line" d="M0,11L4.4,24.73L8.8,32.66L17.6,47.98L22,53.66L30.8,65.96L35.2,71.94L39.6,77.13L44,81L48.4,84.43L52.8,84.84L57.2,87.85L61.6,88.54L66,90.7L70.4,90.83L79.2,90.77L83.6,92.83L88,93.41L92.4,94.85L101.2,97.02L105.6,96.53L110,94.69L114.4,94.68L118.8,94.29L123.2,94.69L127.6,94.38L132,96.65L136.4,95.4L140.8,95.18L145.2,95.38L149.6,94.76L154,95.34L158.4,94.39L167.2,96.25L171.6,95.95L180.4,93.56L184.8,93.56L189.2,92.38L193.6,95.34L206.8,98.05L211.2,97.37L215.6,95.9L220,95.54L224.4,94.35L228.8,94.22L233.2,94.52L237.6,96.07L250.8,93.85L255.2,94.18L268.4,92.62L272.8,91.09L277.2,92.99L281.6,93.31L286,93.82L290.4,91.93L294.8,94.68L299.2,94.78L303.6,93.58L308,94.57L312.4,95.26L316.8,94.92L325.6,94.84L330,95.53L334.4,95.67L338.8,96.8L343.2,97.66L347.6,97.14L356.4,96.17L360.8,94.83L365.2,95.99L369.6,95.99L374,94.87L378.4,94.97L382.8,96L387.2,95.92L391.6,95.71L396,97.03L400.4,94.53L404.8,96.19L409.2,95.05L413.6,96.11L418,96.15L422.4,97.23L426.8,98.34L431.2,96.33L435.6,95.37L440,95.92" style="vector-effect: none; fill: none; stroke: rgb(63, 175, 153); stroke-opacity: 1; stroke-width: 2px; opacity: 1;"/></g><g class="points"/><g class="text"/></g><g class="trace scatter trace296d79" style="stroke-miterlimit: 2; opacity: 0.3;"><g class="fills"><g><path class="js-fill" d="M0,11L4.4,23.71L8.8,30.48L13.2,36.66L17.6,44.22L35.2,67.89L39.6,70.92L44,76.99L48.4,80.79L52.8,80.37L57.2,83.75L61.6,83.86L66,85.08L70.4,85.43L74.8,84.47L79.2,84.45L83.6,86.16L88,86.88L92.4,88.94L101.2,92L105.6,90.99L110,91.19L114.4,88.59L118.8,88.88L123.2,90.15L127.6,90.62L132,92.79L136.4,91.25L140.8,92.23L149.6,89.82L154,90.19L158.4,89.25L162.8,89.38L167.2,91.94L171.6,91.07L176,90.36L180.4,88.36L193.6,89.16L198,90.64L202.4,90.14L206.8,92.02L211.2,89.74L215.6,89.58L224.4,86.93L228.8,87.54L233.2,87.15L237.6,89.2L242,88.8L246.4,86.36L250.8,87.47L255.2,89.45L259.6,89.47L264,87.82L272.8,86.15L277.2,88.47L281.6,88.99L286,88.64L290.4,87.31L294.8,89.85L299.2,90.88L303.6,88.12L312.4,90.68L316.8,89.41L338.8,88.95L343.2,90.53L347.6,89.73L352,90.64L356.4,89.68L360.8,90.51L365.2,90.91L369.6,90.23L374,88.03L378.4,88.16L382.8,88.8L387.2,88.61L391.6,90.02L396,90.6L400.4,89.59L404.8,92.04L409.2,89.75L413.6,91.77L422.4,92.05L426.8,93.45L431.2,90.26L435.6,91.97L440,90.14L440,101.69L435.6,98.78L431.2,102.39L426.8,103.23L422.4,102.42L418,100.24L413.6,100.45L404.8,100.34L400.4,99.46L396,103.46L391.6,101.4L387.2,103.22L382.8,103.21L378.4,101.78L374,101.72L365.2,101.06L360.8,99.15L356.4,102.67L352,103.24L347.6,104.55L343.2,104.8L338.8,104.66L334.4,102.33L330,101.82L325.6,100.4L321.2,99.9L316.8,100.42L299.2,98.69L294.8,99.52L290.4,96.56L286,99.01L281.6,97.63L277.2,97.5L272.8,96.03L268.4,98.24L259.6,97.75L255.2,98.91L246.4,101.73L242,101.81L237.6,102.94L233.2,101.89L228.8,100.9L224.4,101.78L220,102.64L215.6,102.23L211.2,105L206.8,104.08L202.4,104.99L198,102.3L193.6,101.51L189.2,96.39L184.8,98.49L180.4,98.75L176,98.76L171.6,100.82L162.8,100.75L158.4,99.52L154,100.49L149.6,99.69L145.2,99.54L140.8,98.12L132,100.5L127.6,98.14L114.4,100.78L110,98.19L105.6,102.07L101.2,102.03L83.6,99.51L79.2,97.09L66,96.32L61.6,93.21L57.2,91.95L52.8,89.3L48.4,88.06L44,85.01L39.6,83.34L35.2,76L30.8,70.77L26.4,64.12L17.6,51.74L13.2,43.48L4.4,25.74L0,11Z" style="fill: rgb(63, 175, 153); fill-opacity: 1; stroke-width: 0;"/></g></g><g class="errorbars"/><g class="lines"><path class="js-line" d="M0,11L4.4,23.71L8.8,30.48L13.2,36.66L17.6,44.22L35.2,67.89L39.6,70.92L44,76.99L48.4,80.79L52.8,80.37L57.2,83.75L61.6,83.86L66,85.08L70.4,85.43L74.8,84.47L79.2,84.45L83.6,86.16L88,86.88L92.4,88.94L101.2,92L105.6,90.99L110,91.19L114.4,88.59L118.8,88.88L123.2,90.15L127.6,90.62L132,92.79L136.4,91.25L140.8,92.23L149.6,89.82L154,90.19L158.4,89.25L162.8,89.38L167.2,91.94L171.6,91.07L176,90.36L180.4,88.36L193.6,89.16L198,90.64L202.4,90.14L206.8,92.02L211.2,89.74L215.6,89.58L224.4,86.93L228.8,87.54L233.2,87.15L237.6,89.2L242,88.8L246.4,86.36L250.8,87.47L255.2,89.45L259.6,89.47L264,87.82L272.8,86.15L277.2,88.47L281.6,88.99L286,88.64L290.4,87.31L294.8,89.85L299.2,90.88L303.6,88.12L312.4,90.68L316.8,89.41L338.8,88.95L343.2,90.53L347.6,89.73L352,90.64L356.4,89.68L360.8,90.51L365.2,90.91L369.6,90.23L374,88.03L378.4,88.16L382.8,88.8L387.2,88.61L391.6,90.02L396,90.6L400.4,89.59L404.8,92.04L409.2,89.75L413.6,91.77L422.4,92.05L426.8,93.45L431.2,90.26L435.6,91.97L440,90.14L440,101.69L435.6,98.78L431.2,102.39L426.8,103.23L422.4,102.42L418,100.24L413.6,100.45L404.8,100.34L400.4,99.46L396,103.46L391.6,101.4L387.2,103.22L382.8,103.21L378.4,101.78L374,101.72L365.2,101.06L360.8,99.15L356.4,102.67L352,103.24L347.6,104.55L343.2,104.8L338.8,104.66L334.4,102.33L330,101.82L325.6,100.4L321.2,99.9L316.8,100.42L299.2,98.69L294.8,99.52L290.4,96.56L286,99.01L281.6,97.63L277.2,97.5L272.8,96.03L268.4,98.24L259.6,97.75L255.2,98.91L246.4,101.73L242,101.81L237.6,102.94L233.2,101.89L228.8,100.9L224.4,101.78L220,102.64L215.6,102.23L211.2,105L206.8,104.08L202.4,104.99L198,102.3L193.6,101.51L189.2,96.39L184.8,98.49L180.4,98.75L176,98.76L171.6,100.82L162.8,100.75L158.4,99.52L154,100.49L149.6,99.69L145.2,99.54L140.8,98.12L132,100.5L127.6,98.14L114.4,100.78L110,98.19L105.6,102.07L101.2,102.03L83.6,99.51L79.2,97.09L66,96.32L61.6,93.21L57.2,91.95L52.8,89.3L48.4,88.06L44,85.01L39.6,83.34L35.2,76L30.8,70.77L26.4,64.12L17.6,51.74L13.2,43.48L4.4,25.74L0,11" style="vector-effect: none; fill: none; stroke: rgb(0, 0, 0); stroke-opacity: 0; stroke-width: 2px; opacity: 1;"/></g><g class="points"/><g class="text"/></g><g class="trace scatter trace899d95" style="stroke-miterlimit: 2; opacity: 1;"><g class="fills"/><g class="errorbars"/><g class="lines"><path class="js-line" d="M0,11L4.4,23.61L8.8,30.68L39.6,80.74L44,86.78L48.4,93.2L52.8,97.28L57.2,103.7L61.6,108.38L70.4,112.17L74.8,115.76L79.2,118.94L83.6,119.09L88,120.43L92.4,118.84L105.6,117.25L110,114.82L114.4,115L118.8,114.19L123.2,111.58L127.6,111.81L132,111.6L136.4,109.95L140.8,109.47L145.2,109.78L149.6,109.18L154,107.48L158.4,108.72L162.8,109.04L171.6,109.61L176,111.31L180.4,110.62L184.8,111.58L189.2,109.42L193.6,111.56L198,113.33L202.4,110.98L206.8,111.14L211.2,108.69L215.6,107.88L220,108.52L224.4,106.63L228.8,106.1L233.2,105.43L237.6,105.52L242,104.99L246.4,105.47L250.8,104.34L255.2,105.64L259.6,106.83L264,105.39L268.4,105.71L272.8,106.87L277.2,108.49L281.6,108.43L290.4,107.58L294.8,108.37L303.6,110.54L308,109.61L316.8,108.15L321.2,107.32L325.6,107.91L330,109.82L334.4,109.75L338.8,108.92L352,111.15L356.4,109.67L360.8,110.97L365.2,109.18L374,105.68L378.4,105.27L382.8,104.98L387.2,105.65L391.6,105.26L396,106.42L400.4,106.18L404.8,106.76L413.6,107.65L418,107.58L422.4,107.03L426.8,107.85L435.6,108.33L440,106.61" style="vector-effect: none; fill: none; stroke: rgb(0, 134, 146); stroke-opacity: 1; stroke-width: 2px; opacity: 1;"/></g><g class="points"/><g class="text"/></g><g class="trace scatter trace6e172e" style="stroke-miterlimit: 2; opacity: 0.3;"><g class="fills"><g><path class="js-fill" d="M0,11L4.4,22.48L8.8,29.31L26.4,58.04L30.8,65.19L48.4,90.61L52.8,94.96L61.6,104.14L66,106.93L70.4,106.9L74.8,108.49L79.2,111.24L83.6,111.28L88,111.94L92.4,110.66L96.8,108.16L101.2,107.88L105.6,108.8L110,107.69L114.4,107.37L118.8,105.48L123.2,102.56L127.6,103.25L132,104.39L136.4,103.41L140.8,104.79L145.2,104.99L154,102.61L158.4,103.56L171.6,102.25L176,103.87L180.4,103.83L184.8,107.32L189.2,105.13L193.6,105.86L198,108.85L202.4,106.64L206.8,107.31L211.2,103.35L215.6,101.92L220,102.53L228.8,100.21L233.2,99.84L237.6,100.02L242,98.51L246.4,100.34L250.8,97.69L259.6,101.51L264,98.02L272.8,99.49L277.2,101.62L290.4,101.31L294.8,101.74L303.6,105.44L308,104.77L312.4,104.47L316.8,103.27L321.2,101.6L325.6,102.25L334.4,104.44L338.8,102.65L347.6,105.48L352,106.08L356.4,102.34L360.8,104.75L365.2,104.06L369.6,99.83L374,100.7L378.4,98.37L382.8,99.16L387.2,99.18L391.6,99.4L396,101.39L400.4,101.41L404.8,100.37L409.2,101.77L413.6,100.7L418,100.73L422.4,102.06L426.8,102.26L431.2,101.27L435.6,102.09L440,100.13L440,113.09L435.6,114.57L431.2,115.14L426.8,113.44L422.4,112L418,114.44L413.6,114.61L409.2,113L404.8,113.16L400.4,110.94L396,111.46L391.6,111.12L387.2,112.12L382.8,110.79L378.4,112.16L374,110.66L369.6,114.82L365.2,114.29L360.8,117.19L356.4,117L343.2,114.86L338.8,115.2L334.4,115.05L330,116.11L325.6,113.57L321.2,113.04L316.8,113.03L312.4,113.97L303.6,115.64L299.2,114.69L294.8,115.01L290.4,113.85L286,115.2L281.6,115.59L277.2,115.36L272.8,114.26L268.4,112.56L264,112.76L246.4,110.6L242,111.48L233.2,111.03L228.8,111.98L224.4,112.28L220,114.52L215.6,113.84L211.2,114.04L202.4,115.31L198,117.81L193.6,117.25L189.2,113.71L180.4,117.41L176,118.76L171.6,116.97L167.2,116.14L154,112.35L149.6,114.9L140.8,114.15L136.4,116.49L127.6,120.36L123.2,120.61L118.8,122.89L114.4,122.64L110,121.96L105.6,125.7L96.8,128.72L92.4,127.01L88,128.92L83.6,126.89L79.2,126.65L74.8,123.03L70.4,117.43L66,114.04L61.6,112.62L57.2,107.35L52.8,99.6L48.4,95.78L39.6,83.68L35.2,76.06L17.6,47.54L13.2,39.3L4.4,24.74L0,11Z" style="fill: rgb(0, 134, 146); fill-opacity: 1; stroke-width: 0;"/></g></g><g class="errorbars"/><g class="lines"><path class="js-line" d="M0,11L4.4,22.48L8.8,29.31L26.4,58.04L30.8,65.19L48.4,90.61L52.8,94.96L61.6,104.14L66,106.93L70.4,106.9L74.8,108.49L79.2,111.24L83.6,111.28L88,111.94L92.4,110.66L96.8,108.16L101.2,107.88L105.6,108.8L110,107.69L114.4,107.37L118.8,105.48L123.2,102.56L127.6,103.25L132,104.39L136.4,103.41L140.8,104.79L145.2,104.99L154,102.61L158.4,103.56L171.6,102.25L176,103.87L180.4,103.83L184.8,107.32L189.2,105.13L193.6,105.86L198,108.85L202.4,106.64L206.8,107.31L211.2,103.35L215.6,101.92L220,102.53L228.8,100.21L233.2,99.84L237.6,100.02L242,98.51L246.4,100.34L250.8,97.69L259.6,101.51L264,98.02L272.8,99.49L277.2,101.62L290.4,101.31L294.8,101.74L303.6,105.44L308,104.77L312.4,104.47L316.8,103.27L321.2,101.6L325.6,102.25L334.4,104.44L338.8,102.65L347.6,105.48L352,106.08L356.4,102.34L360.8,104.75L365.2,104.06L369.6,99.83L374,100.7L378.4,98.37L382.8,99.16L387.2,99.18L391.6,99.4L396,101.39L400.4,101.41L404.8,100.37L409.2,101.77L413.6,100.7L418,100.73L422.4,102.06L426.8,102.26L431.2,101.27L435.6,102.09L440,100.13L440,113.09L435.6,114.57L431.2,115.14L426.8,113.44L422.4,112L418,114.44L413.6,114.61L409.2,113L404.8,113.16L400.4,110.94L396,111.46L391.6,111.12L387.2,112.12L382.8,110.79L378.4,112.16L374,110.66L369.6,114.82L365.2,114.29L360.8,117.19L356.4,117L343.2,114.86L338.8,115.2L334.4,115.05L330,116.11L325.6,113.57L321.2,113.04L316.8,113.03L312.4,113.97L303.6,115.64L299.2,114.69L294.8,115.01L290.4,113.85L286,115.2L281.6,115.59L277.2,115.36L272.8,114.26L268.4,112.56L264,112.76L246.4,110.6L242,111.48L233.2,111.03L228.8,111.98L224.4,112.28L220,114.52L215.6,113.84L211.2,114.04L202.4,115.31L198,117.81L193.6,117.25L189.2,113.71L180.4,117.41L176,118.76L171.6,116.97L167.2,116.14L154,112.35L149.6,114.9L140.8,114.15L136.4,116.49L127.6,120.36L123.2,120.61L118.8,122.89L114.4,122.64L110,121.96L105.6,125.7L96.8,128.72L92.4,127.01L88,128.92L83.6,126.89L79.2,126.65L74.8,123.03L70.4,117.43L66,114.04L61.6,112.62L57.2,107.35L52.8,99.6L48.4,95.78L39.6,83.68L35.2,76.06L17.6,47.54L13.2,39.3L4.4,24.74L0,11" style="vector-effect: none; fill: none; stroke: rgb(0, 0, 0); stroke-opacity: 0; stroke-width: 2px; opacity: 1;"/></g><g class="points"/><g class="text"/></g><g class="trace scatter trace4ac918" style="stroke-miterlimit: 2; opacity: 1;"><g class="fills"/><g class="errorbars"/><g class="lines"><path class="js-line" d="M0,11L4.4,23.22L8.8,29.81L17.6,43.99L22,51.65L44,89.33L48.4,96.17L57.2,110.37L61.6,114.95L79.2,136.68L83.6,140.77L88,144.99L92.4,147.33L96.8,151.44L101.2,154.49L110,160.28L114.4,161.21L118.8,161.53L123.2,161.08L132,158.49L136.4,158.32L140.8,157.56L145.2,155.49L154,151.83L158.4,152.43L167.2,151.15L171.6,151.44L176,149.9L180.4,149.75L184.8,149.9L189.2,148.24L193.6,149.66L198,148.85L202.4,147.8L206.8,145.91L211.2,144.05L215.6,143.41L220,143.5L224.4,144.5L228.8,144.57L233.2,145.57L242,148.53L246.4,148.7L250.8,147.96L255.2,148.22L259.6,148.08L264,148.76L268.4,148.16L272.8,149.65L277.2,147.57L281.6,147.77L290.4,146.41L294.8,147.31L299.2,145.67L303.6,146.97L308,148.04L312.4,148.13L325.6,146.29L330,145.35L334.4,143.77L338.8,143.03L343.2,143.42L347.6,145.66L352,145.99L356.4,147.13L360.8,148.27L365.2,146.84L369.6,145.53L374,146L382.8,145.92L387.2,147.31L391.6,147.48L396,149.95L400.4,149.78L404.8,151.7L409.2,150.84L413.6,152.3L418,151.59L422.4,153.55L431.2,153.45L435.6,152.29L440,153.18" style="vector-effect: none; fill: none; stroke: rgb(0, 89, 134); stroke-opacity: 1; stroke-width: 2px; opacity: 1;"/></g><g class="points"/><g class="text"/></g><g class="trace scatter trace552478" style="stroke-miterlimit: 2; opacity: 0.3;"><g class="fills"><g><path class="js-fill" d="M0,11L4.4,22.04L8.8,28.59L17.6,41.58L22,49.11L30.8,64.97L35.2,71.03L44,86.19L48.4,91.43L57.2,105.12L61.6,109.9L74.8,125.2L79.2,132.16L88,138.97L92.4,141.77L96.8,146.75L101.2,148.83L105.6,151.51L110,153.22L123.2,153.52L127.6,150.16L132,147.92L136.4,148.34L140.8,148.14L145.2,146.72L154,146.82L158.4,146.05L167.2,144.61L171.6,145.76L180.4,144.12L184.8,142.15L189.2,140.33L193.6,140.6L206.8,137.69L211.2,135.28L220,133.04L224.4,135.35L228.8,135.73L233.2,138.18L242,141.32L246.4,141.42L250.8,140.1L255.2,139.7L259.6,140.48L264,143.08L268.4,142.24L272.8,140.34L277.2,137.15L281.6,136.22L290.4,135.08L294.8,136.32L299.2,135.89L303.6,137.22L312.4,140.1L316.8,139.25L321.2,139.69L325.6,136.34L334.4,131.88L338.8,130.53L343.2,133.69L347.6,138.03L352,137.27L356.4,138.8L360.8,139.45L365.2,138.83L369.6,138.61L374,140.07L378.4,137.66L382.8,136.18L387.2,138.05L391.6,137.34L396,138.86L400.4,138.79L409.2,141.57L413.6,144.66L418,142.69L422.4,143.2L431.2,141.79L435.6,142.01L440,141.98L440,164.39L435.6,162.57L431.2,165.11L426.8,165.19L422.4,163.9L418,160.49L413.6,159.94L409.2,160.1L404.8,163.01L400.4,160.77L396,161.04L391.6,157.62L387.2,156.57L378.4,154.53L374,151.93L369.6,152.45L365.2,154.85L360.8,157.09L356.4,155.46L343.2,153.15L338.8,155.53L334.4,155.66L330,156.6L321.2,155.31L316.8,155.83L312.4,156.17L308,157.48L299.2,155.46L294.8,158.31L290.4,157.73L286,158.32L281.6,159.33L277.2,157.99L272.8,158.97L268.4,154.09L264,154.44L259.6,155.67L255.2,156.74L250.8,155.82L242,155.75L237.6,153.73L233.2,152.97L228.8,153.4L220,153.96L215.6,152.92L211.2,152.81L206.8,154.13L202.4,156.72L198,158.2L193.6,158.72L189.2,156.16L184.8,157.64L180.4,155.38L176,155.04L171.6,157.11L158.4,158.81L154,156.84L149.6,161.28L145.2,164.26L140.8,166.97L136.4,168.3L127.6,169.5L123.2,168.64L118.8,169.18L114.4,168.92L110,167.33L105.6,163.45L92.4,152.89L88,151L79.2,141.19L74.8,136.63L70.4,130.1L66,125.37L57.2,115.62L52.8,108.59L44,92.46L39.6,86.62L30.8,69.81L26.4,61.4L17.6,46.4L13.2,38.33L4.4,24.4L0,11Z" style="fill: rgb(0, 89, 134); fill-opacity: 1; stroke-width: 0;"/></g></g><g class="errorbars"/><g class="lines"><path class="js-line" d="M0,11L4.4,22.04L8.8,28.59L17.6,41.58L22,49.11L30.8,64.97L35.2,71.03L44,86.19L48.4,91.43L57.2,105.12L61.6,109.9L74.8,125.2L79.2,132.16L88,138.97L92.4,141.77L96.8,146.75L101.2,148.83L105.6,151.51L110,153.22L123.2,153.52L127.6,150.16L132,147.92L136.4,148.34L140.8,148.14L145.2,146.72L154,146.82L158.4,146.05L167.2,144.61L171.6,145.76L180.4,144.12L184.8,142.15L189.2,140.33L193.6,140.6L206.8,137.69L211.2,135.28L220,133.04L224.4,135.35L228.8,135.73L233.2,138.18L242,141.32L246.4,141.42L250.8,140.1L255.2,139.7L259.6,140.48L264,143.08L268.4,142.24L272.8,140.34L277.2,137.15L281.6,136.22L290.4,135.08L294.8,136.32L299.2,135.89L303.6,137.22L312.4,140.1L316.8,139.25L321.2,139.69L325.6,136.34L334.4,131.88L338.8,130.53L343.2,133.69L347.6,138.03L352,137.27L356.4,138.8L360.8,139.45L365.2,138.83L369.6,138.61L374,140.07L378.4,137.66L382.8,136.18L387.2,138.05L391.6,137.34L396,138.86L400.4,138.79L409.2,141.57L413.6,144.66L418,142.69L422.4,143.2L431.2,141.79L435.6,142.01L440,141.98L440,164.39L435.6,162.57L431.2,165.11L426.8,165.19L422.4,163.9L418,160.49L413.6,159.94L409.2,160.1L404.8,163.01L400.4,160.77L396,161.04L391.6,157.62L387.2,156.57L378.4,154.53L374,151.93L369.6,152.45L365.2,154.85L360.8,157.09L356.4,155.46L343.2,153.15L338.8,155.53L334.4,155.66L330,156.6L321.2,155.31L316.8,155.83L312.4,156.17L308,157.48L299.2,155.46L294.8,158.31L290.4,157.73L286,158.32L281.6,159.33L277.2,157.99L272.8,158.97L268.4,154.09L264,154.44L259.6,155.67L255.2,156.74L250.8,155.82L242,155.75L237.6,153.73L233.2,152.97L228.8,153.4L220,153.96L215.6,152.92L211.2,152.81L206.8,154.13L202.4,156.72L198,158.2L193.6,158.72L189.2,156.16L184.8,157.64L180.4,155.38L176,155.04L171.6,157.11L158.4,158.81L154,156.84L149.6,161.28L145.2,164.26L140.8,166.97L136.4,168.3L127.6,169.5L123.2,168.64L118.8,169.18L114.4,168.92L110,167.33L105.6,163.45L92.4,152.89L88,151L79.2,141.19L74.8,136.63L70.4,130.1L66,125.37L57.2,115.62L52.8,108.59L44,92.46L39.6,86.62L30.8,69.81L26.4,61.4L17.6,46.4L13.2,38.33L4.4,24.4L0,11" style="vector-effect: none; fill: none; stroke: rgb(0, 0, 0); stroke-opacity: 0; stroke-width: 2px; opacity: 1;"/></g><g class="points"/><g class="text"/></g><g class="trace scatter tracefe28ad" style="stroke-miterlimit: 2; opacity: 1;"><g class="fills"/><g class="errorbars"/><g class="lines"><path class="js-line" d="M0,11L4.4,22.09L8.8,28.58L26.4,55.68L30.8,62.71L39.6,76L44,83L57.2,103.57L61.6,111.27L79.2,139.34L83.6,145.49L96.8,165.5L101.2,171.15L114.4,185.45L118.8,188.36L123.2,191.65L127.6,189.85L132,190.74L136.4,189.33L145.2,188.69L149.6,188.32L158.4,188.33L162.8,187.61L171.6,186.24L176,185.83L184.8,184.29L189.2,184.51L211.2,183.46L215.6,184.14L220,184.55L224.4,184.12L228.8,184.25L233.2,183.46L246.4,183.09L250.8,181.88L255.2,181.89L259.6,182.66L277.2,182.46L281.6,181.91L286,180.89L290.4,181.59L294.8,181.78L299.2,183.23L303.6,183.27L308,182.13L316.8,181.53L321.2,180.38L325.6,181.71L330,181.49L334.4,182.17L338.8,181.77L343.2,182.29L347.6,184.85L352,183.47L356.4,183.97L360.8,184.79L365.2,184.83L369.6,183.99L374,185.13L378.4,183.82L382.8,183.62L387.2,183.65L391.6,182.8L396,183.45L400.4,182.54L404.8,181.12L409.2,180.74L418,180.42L422.4,181.45L426.8,182.42L431.2,182.38L440,183.2" style="vector-effect: none; fill: none; stroke: rgb(59, 33, 121); stroke-opacity: 1; stroke-width: 2px; opacity: 1;"/></g><g class="points"/><g class="text"/></g><g class="trace scatter tracecb751f" style="stroke-miterlimit: 2; opacity: 0.3;"><g class="fills"><g><path class="js-fill" d="M0,11L4.4,21.05L8.8,27.06L17.6,38.99L22,46.05L30.8,59.32L35.2,65.01L52.8,91.55L57.2,99.26L70.4,120.03L74.8,126.24L83.6,139.64L88,145.72L96.8,158.95L101.2,165.27L114.4,180.03L118.8,182.64L123.2,187.94L127.6,185.33L132,186.92L136.4,186.83L140.8,185.94L145.2,186.43L149.6,185.48L154,185.32L158.4,183.11L162.8,182.08L167.2,182.29L171.6,181.55L180.4,178.59L184.8,179.02L193.6,179.01L198,180.24L202.4,179L206.8,178.79L211.2,177.75L215.6,179.56L220,180.22L224.4,179.3L250.8,178.76L255.2,179.1L259.6,180.92L264,180.68L268.4,179.95L272.8,180.21L277.2,179.83L281.6,178.53L286,177.2L290.4,177.5L294.8,175.27L299.2,177.3L303.6,177.58L308,176.33L316.8,175.58L321.2,173.59L325.6,174.97L330,175.17L343.2,176.33L347.6,179.99L352,178.39L356.4,178.9L365.2,180.19L369.6,179.42L374,180.49L378.4,178.09L382.8,178.36L387.2,177.69L396,178.12L400.4,177.06L409.2,175.38L413.6,175.64L418,174.29L422.4,175.98L426.8,177.16L431.2,176.03L435.6,176.06L440,176.99L440,189.42L435.6,188.9L431.2,188.73L426.8,187.68L413.6,186.04L409.2,186.09L404.8,186.24L400.4,188.02L396,188.77L391.6,187.91L387.2,189.61L382.8,188.89L374,189.77L369.6,188.57L360.8,190.01L356.4,189.04L352,188.54L347.6,189.72L343.2,188.25L338.8,187.7L334.4,188.89L330,187.81L325.6,188.45L321.2,187.17L299.2,189.17L294.8,188.29L290.4,185.68L286,184.58L281.6,185.29L277.2,185.08L268.4,186.1L264,184.77L255.2,184.68L250.8,185L246.4,187.21L242,187.57L233.2,188.01L228.8,189.35L215.6,188.73L211.2,189.16L202.4,189.7L198,188.3L193.6,189.71L189.2,189.82L184.8,189.56L180.4,190.81L176,191.73L171.6,190.93L162.8,193.15L158.4,193.54L154,191.83L149.6,191.16L145.2,190.95L140.8,192.62L136.4,191.83L132,194.56L127.6,194.36L123.2,195.36L118.8,194.07L114.4,190.86L110,188.02L105.6,181.54L96.8,172.04L92.4,166.68L83.6,151.34L79.2,145.38L70.4,129.91L66,123.46L52.8,100.22L48.4,94.54L30.8,66.09L26.4,58.37L22,51.77L17.6,43.79L8.8,30.11L4.4,23.13L0,11Z" style="fill: rgb(59, 33, 121); fill-opacity: 1; stroke-width: 0;"/></g></g><g class="errorbars"/><g class="lines"><path class="js-line" d="M0,11L4.4,21.05L8.8,27.06L17.6,38.99L22,46.05L30.8,59.32L35.2,65.01L52.8,91.55L57.2,99.26L70.4,120.03L74.8,126.24L83.6,139.64L88,145.72L96.8,158.95L101.2,165.27L114.4,180.03L118.8,182.64L123.2,187.94L127.6,185.33L132,186.92L136.4,186.83L140.8,185.94L145.2,186.43L149.6,185.48L154,185.32L158.4,183.11L162.8,182.08L167.2,182.29L171.6,181.55L180.4,178.59L184.8,179.02L193.6,179.01L198,180.24L202.4,179L206.8,178.79L211.2,177.75L215.6,179.56L220,180.22L224.4,179.3L250.8,178.76L255.2,179.1L259.6,180.92L264,180.68L268.4,179.95L272.8,180.21L277.2,179.83L281.6,178.53L286,177.2L290.4,177.5L294.8,175.27L299.2,177.3L303.6,177.58L308,176.33L316.8,175.58L321.2,173.59L325.6,174.97L330,175.17L343.2,176.33L347.6,179.99L352,178.39L356.4,178.9L365.2,180.19L369.6,179.42L374,180.49L378.4,178.09L382.8,178.36L387.2,177.69L396,178.12L400.4,177.06L409.2,175.38L413.6,175.64L418,174.29L422.4,175.98L426.8,177.16L431.2,176.03L435.6,176.06L440,176.99L440,189.42L435.6,188.9L431.2,188.73L426.8,187.68L413.6,186.04L409.2,186.09L404.8,186.24L400.4,188.02L396,188.77L391.6,187.91L387.2,189.61L382.8,188.89L374,189.77L369.6,188.57L360.8,190.01L356.4,189.04L352,188.54L347.6,189.72L343.2,188.25L338.8,187.7L334.4,188.89L330,187.81L325.6,188.45L321.2,187.17L299.2,189.17L294.8,188.29L290.4,185.68L286,184.58L281.6,185.29L277.2,185.08L268.4,186.1L264,184.77L255.2,184.68L250.8,185L246.4,187.21L242,187.57L233.2,188.01L228.8,189.35L215.6,188.73L211.2,189.16L202.4,189.7L198,188.3L193.6,189.71L189.2,189.82L184.8,189.56L180.4,190.81L176,191.73L171.6,190.93L162.8,193.15L158.4,193.54L154,191.83L149.6,191.16L145.2,190.95L140.8,192.62L136.4,191.83L132,194.56L127.6,194.36L123.2,195.36L118.8,194.07L114.4,190.86L110,188.02L105.6,181.54L96.8,172.04L92.4,166.68L83.6,151.34L79.2,145.38L70.4,129.91L66,123.46L52.8,100.22L48.4,94.54L30.8,66.09L26.4,58.37L22,51.77L17.6,43.79L8.8,30.11L4.4,23.13L0,11" style="vector-effect: none; fill: none; stroke: rgb(0, 0, 0); stroke-opacity: 0; stroke-width: 2px; opacity: 1;"/></g><g class="points"/><g class="text"/></g><g class="trace scatter tracea3ea04" style="stroke-miterlimit: 2; opacity: 1;"><g class="fills"/><g class="errorbars"/><g class="lines"><path class="js-line" d="M0,11L4.4,21.33L8.8,26.8L30.8,55.98L35.2,61.87L52.8,89.25L57.2,95.55L70.4,117.18L74.8,124.92L92.4,153.22L96.8,161.08L118.8,196.03L123.2,198.87L132,201.67L136.4,201.27L145.2,200.98L149.6,199.69L158.4,199.63L162.8,198.55L167.2,198.19L171.6,198.99L180.4,197.97L184.8,198.72L198,197.61L202.4,197.29L215.6,197.84L220,197.49L237.6,196.96L242,196.3L246.4,197.02L250.8,196.5L272.8,196.54L277.2,195.84L281.6,196.35L286,195.95L303.6,195.8L308,195.47L312.4,196.07L316.8,195.63L321.2,196.02L325.6,195.61L334.4,195.54L338.8,195.67L343.2,196.54L347.6,196.63L378.4,195.47L382.8,195.59L387.2,196.02L391.6,195.23L400.4,196.23L404.8,196.14L418,195.86L422.4,195.81L440,194.9" style="vector-effect: none; fill: none; stroke: rgb(130, 48, 131); stroke-opacity: 1; stroke-width: 2px; opacity: 1;"/></g><g class="points"/><g class="text"/></g><g class="trace scatter trace299480" style="stroke-miterlimit: 2; opacity: 0.3;"><g class="fills"><g><path class="js-fill" d="M0,11L4.4,20.25L8.8,25.25L13.2,29.6L17.6,35.17L35.2,57.12L39.6,64.1L44,69.6L48.4,76.35L66,101.4L70.4,108.37L83.6,129.47L88,135.77L92.4,142.88L96.8,151.63L110,173.38L114.4,182.12L118.8,191.22L123.2,195.13L132,200.01L136.4,199.64L145.2,199.18L149.6,197.12L158.4,197.15L162.8,195.47L167.2,194.92L171.6,195.57L184.8,194.57L189.2,194.45L202.4,192.98L206.8,193.05L211.2,192.8L215.6,193.58L220,193.34L224.4,193.91L233.2,194.3L237.6,194.02L242,192.67L246.4,193.33L255.2,192.5L259.6,193.3L268.4,192.6L272.8,194.14L277.2,192.97L281.6,193.48L290.4,194.07L294.8,193.8L299.2,194.89L303.6,192.75L316.8,192L321.2,191.93L338.8,191.53L343.2,192.79L365.2,193.14L369.6,192L374,191.7L378.4,192.31L382.8,192.24L387.2,193.18L391.6,192.45L396,194.03L400.4,193.62L404.8,194.35L409.2,193.72L413.6,193.9L418,193.25L422.4,193.61L426.8,192.92L431.2,193.05L435.6,191.87L440,192.13L440,197.67L435.6,197.77L418,198.46L413.6,197.7L400.4,198.84L396,198L391.6,198L387.2,198.87L369.6,198.51L365.2,198.27L360.8,199.52L356.4,199.62L347.6,200.24L343.2,200.29L330,198.88L325.6,199.51L321.2,200.11L316.8,199.26L312.4,199.58L308,198.63L303.6,198.84L299.2,197.74L290.4,198.04L286,198.03L281.6,199.22L277.2,198.72L268.4,199.86L264,200.15L246.4,200.7L242,199.93L228.8,200.4L224.4,200.77L215.6,202.1L211.2,202.51L202.4,201.61L198,202.02L193.6,203.05L189.2,202.66L184.8,202.87L180.4,201.46L171.6,202.41L167.2,201.47L127.6,203.34L123.2,202.61L118.8,200.83L114.4,197.3L105.6,185.55L101.2,177.7L92.4,163.56L88,154.8L79.2,141.35L74.8,134.15L57.2,102.98L52.8,95.94L39.6,73.73L35.2,66.63L4.4,22.41L0,11Z" style="fill: rgb(130, 48, 131); fill-opacity: 1; stroke-width: 0;"/></g></g><g class="errorbars"/><g class="lines"><path class="js-line" d="M0,11L4.4,20.25L8.8,25.25L13.2,29.6L17.6,35.17L35.2,57.12L39.6,64.1L44,69.6L48.4,76.35L66,101.4L70.4,108.37L83.6,129.47L88,135.77L92.4,142.88L96.8,151.63L110,173.38L114.4,182.12L118.8,191.22L123.2,195.13L132,200.01L136.4,199.64L145.2,199.18L149.6,197.12L158.4,197.15L162.8,195.47L167.2,194.92L171.6,195.57L184.8,194.57L189.2,194.45L202.4,192.98L206.8,193.05L211.2,192.8L215.6,193.58L220,193.34L224.4,193.91L233.2,194.3L237.6,194.02L242,192.67L246.4,193.33L255.2,192.5L259.6,193.3L268.4,192.6L272.8,194.14L277.2,192.97L281.6,193.48L290.4,194.07L294.8,193.8L299.2,194.89L303.6,192.75L316.8,192L321.2,191.93L338.8,191.53L343.2,192.79L365.2,193.14L369.6,192L374,191.7L378.4,192.31L382.8,192.24L387.2,193.18L391.6,192.45L396,194.03L400.4,193.62L404.8,194.35L409.2,193.72L413.6,193.9L418,193.25L422.4,193.61L426.8,192.92L431.2,193.05L435.6,191.87L440,192.13L440,197.67L435.6,197.77L418,198.46L413.6,197.7L400.4,198.84L396,198L391.6,198L387.2,198.87L369.6,198.51L365.2,198.27L360.8,199.52L356.4,199.62L347.6,200.24L343.2,200.29L330,198.88L325.6,199.51L321.2,200.11L316.8,199.26L312.4,199.58L308,198.63L303.6,198.84L299.2,197.74L290.4,198.04L286,198.03L281.6,199.22L277.2,198.72L268.4,199.86L264,200.15L246.4,200.7L242,199.93L228.8,200.4L224.4,200.77L215.6,202.1L211.2,202.51L202.4,201.61L198,202.02L193.6,203.05L189.2,202.66L184.8,202.87L180.4,201.46L171.6,202.41L167.2,201.47L127.6,203.34L123.2,202.61L118.8,200.83L114.4,197.3L105.6,185.55L101.2,177.7L92.4,163.56L88,154.8L79.2,141.35L74.8,134.15L57.2,102.98L52.8,95.94L39.6,73.73L35.2,66.63L4.4,22.41L0,11" style="vector-effect: none; fill: none; stroke: rgb(0, 0, 0); stroke-opacity: 0; stroke-width: 2px; opacity: 1;"/></g><g class="points"/><g class="text"/></g><g class="trace scatter traceb225de" style="stroke-miterlimit: 2; opacity: 1;"><g class="fills"/><g class="errorbars"/><g class="lines"><path class="js-line" d="M0,11L4.4,20.67L8.8,25.12L22,38.5L26.4,43.2L52.8,75.88L57.2,81.87L70.4,99.99L74.8,106.29L83.6,118.53L88,125.71L123.2,184.11L127.6,190.31L132,195.27L136.4,198.93L140.8,201.98L145.2,203.26L171.6,202.95L176,202.21L198,203.01L202.4,202.69L215.6,202.86L220,202.82L228.8,203.29L233.2,203.11L255.2,202.57L259.6,202.42L268.4,202.77L272.8,202.5L299.2,202.33L303.6,202.7L312.4,202.81L316.8,202.71L321.2,202.81L325.6,201.78L365.2,202.17L369.6,201.86L382.8,201.71L387.2,201.84L418,202.31L422.4,202.21L431.2,201.93L435.6,202.2L440,201.59" style="vector-effect: none; fill: none; stroke: rgb(183, 86, 135); stroke-opacity: 1; stroke-width: 2px; opacity: 1;"/></g><g class="points"/><g class="text"/></g><g class="trace scatter trace0dbec0" style="stroke-miterlimit: 2; opacity: 0.3;"><g class="fills"><g><path class="js-fill" d="M0,11L4.4,19.76L8.8,24.25L13.2,27.52L17.6,32.62L39.6,54.49L44,59.88L52.8,71.09L57.2,77.09L66,86.7L70.4,93.23L88,118.03L92.4,125.36L96.8,132.83L101.2,138.63L114.4,157.72L118.8,165.9L132,188.14L136.4,193.8L140.8,199.15L145.2,201.86L158.4,201.72L162.8,202.17L176,201.16L180.4,201.01L184.8,202L189.2,201.83L198,201.97L202.4,201.46L220,201.58L224.4,202.13L233.2,201.43L237.6,201.75L242,201.72L246.4,200.7L264,200.62L268.4,201.47L281.6,199.43L286,200.14L290.4,199.45L294.8,199.6L303.6,200.35L308,200.56L316.8,200.61L321.2,200.94L325.6,199.93L330,199.74L338.8,200.32L343.2,199.36L352,199.41L356.4,200.81L360.8,200.11L365.2,200.44L378.4,199.52L382.8,198.39L387.2,199.52L391.6,199.48L396,200.24L400.4,200.17L404.8,201.09L409.2,201.04L422.4,200.03L426.8,200L435.6,200.35L440,199.51L440,203.67L435.6,204.05L431.2,203.48L426.8,203.71L422.4,204.38L418,204.15L413.6,204.58L409.2,204.16L400.4,204.42L396,204.86L387.2,204.15L382.8,205.02L374,204.04L369.6,203.68L343.2,204.94L338.8,204.27L334.4,203.51L330,203.98L325.6,203.63L321.2,204.69L303.6,205.06L299.2,205L294.8,204.27L290.4,205.15L286,204.64L281.6,204.89L268.4,204.08L264,204.78L255.2,204.93L250.8,205.08L246.4,204.48L242,204.95L237.6,204.43L233.2,204.78L224.4,204.64L220,204.06L189.2,203.86L184.8,204.22L176,203.26L171.6,204.15L162.8,204.65L158.4,204.14L145.2,204.66L140.8,204.8L136.4,204.06L132,202.39L127.6,200.09L123.2,195.1L114.4,181.22L110,172.44L105.6,165.18L101.2,155.57L79.2,118.99L74.8,113.42L52.8,80.67L48.4,74.93L22,39.99L17.6,35.17L4.4,21.57L0,11Z" style="fill: rgb(183, 86, 135); fill-opacity: 1; stroke-width: 0;"/></g></g><g class="errorbars"/><g class="lines"><path class="js-line" d="M0,11L4.4,19.76L8.8,24.25L13.2,27.52L17.6,32.62L39.6,54.49L44,59.88L52.8,71.09L57.2,77.09L66,86.7L70.4,93.23L88,118.03L92.4,125.36L96.8,132.83L101.2,138.63L114.4,157.72L118.8,165.9L132,188.14L136.4,193.8L140.8,199.15L145.2,201.86L158.4,201.72L162.8,202.17L176,201.16L180.4,201.01L184.8,202L189.2,201.83L198,201.97L202.4,201.46L220,201.58L224.4,202.13L233.2,201.43L237.6,201.75L242,201.72L246.4,200.7L264,200.62L268.4,201.47L281.6,199.43L286,200.14L290.4,199.45L294.8,199.6L303.6,200.35L308,200.56L316.8,200.61L321.2,200.94L325.6,199.93L330,199.74L338.8,200.32L343.2,199.36L352,199.41L356.4,200.81L360.8,200.11L365.2,200.44L378.4,199.52L382.8,198.39L387.2,199.52L391.6,199.48L396,200.24L400.4,200.17L404.8,201.09L409.2,201.04L422.4,200.03L426.8,200L435.6,200.35L440,199.51L440,203.67L435.6,204.05L431.2,203.48L426.8,203.71L422.4,204.38L418,204.15L413.6,204.58L409.2,204.16L400.4,204.42L396,204.86L387.2,204.15L382.8,205.02L374,204.04L369.6,203.68L343.2,204.94L338.8,204.27L334.4,203.51L330,203.98L325.6,203.63L321.2,204.69L303.6,205.06L299.2,205L294.8,204.27L290.4,205.15L286,204.64L281.6,204.89L268.4,204.08L264,204.78L255.2,204.93L250.8,205.08L246.4,204.48L242,204.95L237.6,204.43L233.2,204.78L224.4,204.64L220,204.06L189.2,203.86L184.8,204.22L176,203.26L171.6,204.15L162.8,204.65L158.4,204.14L145.2,204.66L140.8,204.8L136.4,204.06L132,202.39L127.6,200.09L123.2,195.1L114.4,181.22L110,172.44L105.6,165.18L101.2,155.57L79.2,118.99L74.8,113.42L52.8,80.67L48.4,74.93L22,39.99L17.6,35.17L4.4,21.57L0,11" style="vector-effect: none; fill: none; stroke: rgb(0, 0, 0); stroke-opacity: 0; stroke-width: 2px; opacity: 1;"/></g><g class="points"/><g class="text"/></g><g class="trace scatter trace967ffa" style="stroke-miterlimit: 2; opacity: 1;"><g class="fills"/><g class="errorbars"/><g class="lines"><path class="js-line" d="M0,11L4.4,19.76L8.8,23.5L22,33.47L26.4,37.08L35.2,43.37L39.6,46.94L48.4,54.2L52.8,58.68L66,70.58L70.4,75.13L79.2,85.07L83.6,89.17L96.8,103.83L101.2,110.38L123.2,139.5L127.6,145.86L136.4,158.42L140.8,165.42L149.6,179.15L154,185.71L162.8,196.17L167.2,199.84L171.6,202.77L176,204L180.4,203.92L184.8,204.69L193.6,203.88L198,203.43L202.4,203.99L206.8,203.63L228.8,204.43L233.2,204.32L255.2,204.52L259.6,204.82L281.6,204.29L286,204.76L290.4,204.05L294.8,204.31L316.8,203.73L321.2,204.48L330,204.22L334.4,203.72L347.6,203.31L352,204.1L360.8,204.35L365.2,204.33L378.4,203.21L382.8,203.76L387.2,204.75L391.6,203.9L418,204.48L422.4,204.11L435.6,203.71L440,203.62" style="vector-effect: none; fill: none; stroke: rgb(221, 134, 127); stroke-opacity: 1; stroke-width: 2px; opacity: 1;"/></g><g class="points"/><g class="text"/></g><g class="trace scatter trace3b9be1" style="stroke-miterlimit: 2; opacity: 0.3;"><g class="fills"><g><path class="js-fill" d="M0,11L4.4,18.88L8.8,22.61L17.6,26.73L22,30.17L35.2,39.27L39.6,43.19L48.4,49.41L52.8,53.41L61.6,60.56L66,64.1L74.8,72.89L79.2,78.25L83.6,81.29L88,86.36L92.4,89.21L96.8,94.3L110,109.09L114.4,115.53L127.6,130.19L132,136.79L140.8,149.71L145.2,158.38L162.8,188.04L167.2,194.44L171.6,199.52L176,203.44L180.4,202.66L184.8,203.62L189.2,202.22L193.6,202.74L198,202.3L202.4,203.15L206.8,202.17L211.2,202.95L224.4,203.57L228.8,203.53L237.6,203.68L242,202.34L255.2,203.25L259.6,203.96L277.2,203.64L281.6,203.07L286,204L290.4,202.54L294.8,203.36L299.2,203.24L312.4,203.42L316.8,202.85L321.2,203.96L325.6,203.35L343.2,201.96L347.6,202.3L356.4,203.4L360.8,203.66L369.6,202.58L374,203L378.4,201.41L382.8,202.29L387.2,203.75L391.6,202.91L396,203.09L400.4,202.22L409.2,203.6L413.6,203.56L426.8,203.25L431.2,201.86L435.6,202.81L440,202.21L440,205.03L435.6,204.61L426.8,204.68L422.4,205.16L404.8,205.03L400.4,204.94L391.6,204.88L387.2,205.75L378.4,205.01L374,205.39L365.2,205.74L360.8,205.03L356.4,205.56L352,205.16L347.6,204.32L343.2,205L334.4,205.15L330,205.37L325.6,205.66L321.2,205L316.8,204.6L312.4,205.49L308,204.99L303.6,205.74L299.2,205.1L294.8,205.25L281.6,205.51L277.2,204.72L268.4,205.7L264,205.26L255.2,205.79L250.8,205.56L246.4,205.77L242,205.02L202.4,204.83L198,204.55L184.8,205.77L180.4,205.18L176,204.56L171.6,206.02L162.8,204.29L158.4,201.34L154,198.43L149.6,192.38L145.2,187.48L140.8,181.13L132,166.89L127.6,161.53L118.8,146.27L114.4,140.71L110,135.35L105.6,127.98L92.4,107.17L88,101.52L74.8,87.63L70.4,82.15L61.6,73.07L57.2,68.45L39.6,50.68L35.2,47.48L22,36.76L17.6,32.53L4.4,20.63L0,11Z" style="fill: rgb(221, 134, 127); fill-opacity: 1; stroke-width: 0;"/></g></g><g class="errorbars"/><g class="lines"><path class="js-line" d="M0,11L4.4,18.88L8.8,22.61L17.6,26.73L22,30.17L35.2,39.27L39.6,43.19L48.4,49.41L52.8,53.41L61.6,60.56L66,64.1L74.8,72.89L79.2,78.25L83.6,81.29L88,86.36L92.4,89.21L96.8,94.3L110,109.09L114.4,115.53L127.6,130.19L132,136.79L140.8,149.71L145.2,158.38L162.8,188.04L167.2,194.44L171.6,199.52L176,203.44L180.4,202.66L184.8,203.62L189.2,202.22L193.6,202.74L198,202.3L202.4,203.15L206.8,202.17L211.2,202.95L224.4,203.57L228.8,203.53L237.6,203.68L242,202.34L255.2,203.25L259.6,203.96L277.2,203.64L281.6,203.07L286,204L290.4,202.54L294.8,203.36L299.2,203.24L312.4,203.42L316.8,202.85L321.2,203.96L325.6,203.35L343.2,201.96L347.6,202.3L356.4,203.4L360.8,203.66L369.6,202.58L374,203L378.4,201.41L382.8,202.29L387.2,203.75L391.6,202.91L396,203.09L400.4,202.22L409.2,203.6L413.6,203.56L426.8,203.25L431.2,201.86L435.6,202.81L440,202.21L440,205.03L435.6,204.61L426.8,204.68L422.4,205.16L404.8,205.03L400.4,204.94L391.6,204.88L387.2,205.75L378.4,205.01L374,205.39L365.2,205.74L360.8,205.03L356.4,205.56L352,205.16L347.6,204.32L343.2,205L334.4,205.15L330,205.37L325.6,205.66L321.2,205L316.8,204.6L312.4,205.49L308,204.99L303.6,205.74L299.2,205.1L294.8,205.25L281.6,205.51L277.2,204.72L268.4,205.7L264,205.26L255.2,205.79L250.8,205.56L246.4,205.77L242,205.02L202.4,204.83L198,204.55L184.8,205.77L180.4,205.18L176,204.56L171.6,206.02L162.8,204.29L158.4,201.34L154,198.43L149.6,192.38L145.2,187.48L140.8,181.13L132,166.89L127.6,161.53L118.8,146.27L114.4,140.71L110,135.35L105.6,127.98L92.4,107.17L88,101.52L74.8,87.63L70.4,82.15L61.6,73.07L57.2,68.45L39.6,50.68L35.2,47.48L22,36.76L17.6,32.53L4.4,20.63L0,11" style="vector-effect: none; fill: none; stroke: rgb(0, 0, 0); stroke-opacity: 0; stroke-width: 2px; opacity: 1;"/></g><g class="points"/><g class="text"/></g><g class="trace scatter tracec1da20" style="stroke-miterlimit: 2; opacity: 1;"><g class="fills"/><g class="errorbars"/><g class="lines"><path class="js-line" d="M0,11L4.4,18.68L8.8,21.47L30.8,33.18L35.2,35.34L48.4,42.03L52.8,45.3L70.4,53.94L74.8,57.03L96.8,69.89L101.2,73.32L110,79.04L114.4,82.66L123.2,90.51L127.6,94.35L145.2,110.04L149.6,114.74L158.4,124.69L162.8,130.55L167.2,135.68L171.6,141.98L184.8,160.22L189.2,167.48L198,178.67L202.4,183.55L206.8,189.45L211.2,193.64L215.6,197.55L220,200.36L228.8,203.06L233.2,203.68L242,204.49L246.4,204.07L259.6,204.22L264,203.98L286,204.55L290.4,204.36L308,203.9L312.4,204.13L334.4,203.95L338.8,204.33L387.2,203.68L391.6,204.46L400.4,204.19L404.8,204.94L413.6,204.4L418,204.59L426.8,204.36L431.2,204.53L435.6,203.99L440,204.43" style="vector-effect: none; fill: none; stroke: rgb(244, 188, 119); stroke-opacity: 1; stroke-width: 2px; opacity: 1;"/></g><g class="points"/><g class="text"/></g><g class="trace scatter trace0b6505" style="stroke-miterlimit: 2; opacity: 0.3;"><g class="fills"><g><path class="js-fill" d="M0,11L4.4,17.61L8.8,19.74L26.4,28.86L30.8,31.07L35.2,33.62L39.6,35.11L57.2,42.7L61.6,43.92L70.4,47.71L74.8,49.89L105.6,67.14L110,68.57L123.2,79.39L127.6,83.99L145.2,99.72L149.6,103.92L167.2,123.14L171.6,128.69L180.4,141.45L184.8,146.13L189.2,153.02L193.6,158.38L202.4,169.74L206.8,178.3L215.6,190.23L220,194.55L224.4,197.4L228.8,199.26L233.2,201.35L237.6,202.6L242,203.58L246.4,202.74L250.8,203.69L255.2,203.59L268.4,202.91L272.8,203.58L299.2,203.22L303.6,202.77L308,202.08L312.4,202.77L316.8,202.33L321.2,203.01L330,203.44L334.4,203.3L352,203.52L356.4,203.05L365.2,203.39L369.6,202.75L374,203.22L378.4,202.4L382.8,203.07L387.2,202.57L391.6,203.79L396,202.99L400.4,202.86L404.8,204.12L413.6,203.52L418,204L435.6,202.81L440,203.52L440,205.35L435.6,205.17L426.8,205.73L422.4,204.99L400.4,205.51L396,205.2L382.8,204.5L378.4,205.2L343.2,205.65L338.8,205.21L334.4,204.6L330,204.93L325.6,205.3L321.2,204.83L316.8,205.67L312.4,205.49L308,205.72L303.6,205.14L286,205.6L281.6,205.43L277.2,205.85L272.8,205.06L268.4,205.54L264,204.8L255.2,205.39L250.8,204.99L228.8,206.86L224.4,206.35L220,206.16L215.6,204.87L206.8,200.61L202.4,197.35L193.6,188.53L189.2,181.95L184.8,174.31L180.4,168.44L176,160.77L171.6,155.26L167.2,148.23L162.8,142.75L154,129.93L149.6,125.56L140.8,115.72L136.4,112.58L110,89.51L105.6,84.65L101.2,81.75L96.8,77.65L83.6,70.57L79.2,66.76L74.8,64.17L70.4,60.16L52.8,49.45L48.4,45.01L39.6,39.57L35.2,37.06L26.4,32.73L22,30.44L4.4,19.76L0,11Z" style="fill: rgb(244, 188, 119); fill-opacity: 1; stroke-width: 0;"/></g></g><g class="errorbars"/><g class="lines"><path class="js-line" d="M0,11L4.4,17.61L8.8,19.74L26.4,28.86L30.8,31.07L35.2,33.62L39.6,35.11L57.2,42.7L61.6,43.92L70.4,47.71L74.8,49.89L105.6,67.14L110,68.57L123.2,79.39L127.6,83.99L145.2,99.72L149.6,103.92L167.2,123.14L171.6,128.69L180.4,141.45L184.8,146.13L189.2,153.02L193.6,158.38L202.4,169.74L206.8,178.3L215.6,190.23L220,194.55L224.4,197.4L228.8,199.26L233.2,201.35L237.6,202.6L242,203.58L246.4,202.74L250.8,203.69L255.2,203.59L268.4,202.91L272.8,203.58L299.2,203.22L303.6,202.77L308,202.08L312.4,202.77L316.8,202.33L321.2,203.01L330,203.44L334.4,203.3L352,203.52L356.4,203.05L365.2,203.39L369.6,202.75L374,203.22L378.4,202.4L382.8,203.07L387.2,202.57L391.6,203.79L396,202.99L400.4,202.86L404.8,204.12L413.6,203.52L418,204L435.6,202.81L440,203.52L440,205.35L435.6,205.17L426.8,205.73L422.4,204.99L400.4,205.51L396,205.2L382.8,204.5L378.4,205.2L343.2,205.65L338.8,205.21L334.4,204.6L330,204.93L325.6,205.3L321.2,204.83L316.8,205.67L312.4,205.49L308,205.72L303.6,205.14L286,205.6L281.6,205.43L277.2,205.85L272.8,205.06L268.4,205.54L264,204.8L255.2,205.39L250.8,204.99L228.8,206.86L224.4,206.35L220,206.16L215.6,204.87L206.8,200.61L202.4,197.35L193.6,188.53L189.2,181.95L184.8,174.31L180.4,168.44L176,160.77L171.6,155.26L167.2,148.23L162.8,142.75L154,129.93L149.6,125.56L140.8,115.72L136.4,112.58L110,89.51L105.6,84.65L101.2,81.75L96.8,77.65L83.6,70.57L79.2,66.76L74.8,64.17L70.4,60.16L52.8,49.45L48.4,45.01L39.6,39.57L35.2,37.06L26.4,32.73L22,30.44L4.4,19.76L0,11" style="vector-effect: none; fill: none; stroke: rgb(0, 0, 0); stroke-opacity: 0; stroke-width: 2px; opacity: 1;"/></g><g class="points"/><g class="text"/></g><g class="trace scatter traceece7f0" style="stroke-miterlimit: 2; opacity: 1;"><g class="fills"/><g class="errorbars"/><g class="lines"><path class="js-line" d="M0,11L4.4,18.38L8.8,20.13L26.4,25.8L30.8,26.73L39.6,28.91L44,30.27L66,36.57L70.4,36.74L79.2,38.67L83.6,39.58L88,41.85L92.4,42.78L101.2,45.72L105.6,47.53L136.4,59.5L140.8,61.02L154,66.28L158.4,67.4L176,76.06L180.4,78.82L184.8,80.26L189.2,83.8L224.4,105.63L228.8,108.95L242,118.74L246.4,122.89L264,141.28L268.4,146.42L286,164.59L290.4,169.15L299.2,178.67L303.6,182.76L312.4,190.76L316.8,193.96L330,200.36L334.4,201.9L343.2,203.99L347.6,204.2L352,203.63L356.4,204.02L369.6,204.66L374,203.71L391.6,204.87L396,204.52L431.2,203.93L435.6,203.8L440,204.68" style="vector-effect: none; fill: none; stroke: rgb(248, 246, 139); stroke-opacity: 1; stroke-width: 2px; opacity: 1;"/></g><g class="points"/><g class="text"/></g><g class="trace scatter trace059905" style="stroke-miterlimit: 2; opacity: 0.3;"><g class="fills"><g><path class="js-fill" d="M0,11L4.4,17.96L8.8,19.26L26.4,23.93L30.8,23.65L66,31.45L70.4,31.62L79.2,33.35L83.6,34.3L88,35.95L92.4,36.68L96.8,37.01L101.2,38.47L118.8,44.69L123.2,45.97L127.6,48.13L132,48.79L140.8,52.26L145.2,53.96L158.4,58.46L162.8,60.91L171.6,63.63L176,65.54L193.6,74.6L198,76.26L220,88.46L224.4,91.57L246.4,105.49L250.8,109.92L264,122.27L268.4,127.06L272.8,129.67L277.2,133.42L294.8,154.67L299.2,159.26L316.8,180.59L321.2,184.56L325.6,188.89L330,191.72L334.4,195.56L338.8,197.9L343.2,201.45L347.6,202.82L356.4,202.79L360.8,202.99L365.2,203.78L369.6,203.24L374,202.33L378.4,203.14L391.6,204.16L396,203.58L400.4,203.51L404.8,202.65L409.2,203.33L413.6,203.2L418,202.72L422.4,203.51L431.2,202.72L435.6,202.39L440,203.3L440,206.06L435.6,205.2L431.2,205.15L426.8,205.5L422.4,204.97L391.6,205.59L387.2,206.06L382.8,204.81L378.4,205.07L374,205.09L369.6,206.07L360.8,205.18L356.4,205.25L352,204.66L347.6,205.58L338.8,208.09L334.4,208.23L330,209L325.6,208.8L312.4,206.17L308,203.56L299.2,198.08L294.8,193.81L272.8,171.85L268.4,165.79L264,160.29L259.6,156.19L255.2,151.66L250.8,144.66L233.2,127.01L228.8,123.64L220,116.23L215.6,113.79L198,102.76L193.6,98.37L184.8,90.91L180.4,89.68L176,86.57L171.6,85.03L167.2,82.36L162.8,78.06L158.4,76.33L154,75.46L140.8,69.78L136.4,68.14L123.2,62.39L118.8,60.29L110,56.95L105.6,55.01L92.4,48.89L88,47.74L83.6,44.86L79.2,43.99L66,41.69L61.6,39.81L48.4,35.77L44,34.43L35.2,30.48L30.8,29.82L26.4,27.67L22,26.54L4.4,18.79L0,11Z" style="fill: rgb(248, 246, 139); fill-opacity: 1; stroke-width: 0;"/></g></g><g class="errorbars"/><g class="lines"><path class="js-line" d="M0,11L4.4,17.96L8.8,19.26L26.4,23.93L30.8,23.65L66,31.45L70.4,31.62L79.2,33.35L83.6,34.3L88,35.95L92.4,36.68L96.8,37.01L101.2,38.47L118.8,44.69L123.2,45.97L127.6,48.13L132,48.79L140.8,52.26L145.2,53.96L158.4,58.46L162.8,60.91L171.6,63.63L176,65.54L193.6,74.6L198,76.26L220,88.46L224.4,91.57L246.4,105.49L250.8,109.92L264,122.27L268.4,127.06L272.8,129.67L277.2,133.42L294.8,154.67L299.2,159.26L316.8,180.59L321.2,184.56L325.6,188.89L330,191.72L334.4,195.56L338.8,197.9L343.2,201.45L347.6,202.82L356.4,202.79L360.8,202.99L365.2,203.78L369.6,203.24L374,202.33L378.4,203.14L391.6,204.16L396,203.58L400.4,203.51L404.8,202.65L409.2,203.33L413.6,203.2L418,202.72L422.4,203.51L431.2,202.72L435.6,202.39L440,203.3L440,206.06L435.6,205.2L431.2,205.15L426.8,205.5L422.4,204.97L391.6,205.59L387.2,206.06L382.8,204.81L378.4,205.07L374,205.09L369.6,206.07L360.8,205.18L356.4,205.25L352,204.66L347.6,205.58L338.8,208.09L334.4,208.23L330,209L325.6,208.8L312.4,206.17L308,203.56L299.2,198.08L294.8,193.81L272.8,171.85L268.4,165.79L264,160.29L259.6,156.19L255.2,151.66L250.8,144.66L233.2,127.01L228.8,123.64L220,116.23L215.6,113.79L198,102.76L193.6,98.37L184.8,90.91L180.4,89.68L176,86.57L171.6,85.03L167.2,82.36L162.8,78.06L158.4,76.33L154,75.46L140.8,69.78L136.4,68.14L123.2,62.39L118.8,60.29L110,56.95L105.6,55.01L92.4,48.89L88,47.74L83.6,44.86L79.2,43.99L66,41.69L61.6,39.81L48.4,35.77L44,34.43L35.2,30.48L30.8,29.82L26.4,27.67L22,26.54L4.4,18.79L0,11" style="vector-effect: none; fill: none; stroke: rgb(0, 0, 0); stroke-opacity: 0; stroke-width: 2px; opacity: 1;"/></g><g class="points"/><g class="text"/></g></g></g></g><g class="zerolinelayer-above"/><path class="xlines-above crisp" d="M0,0" style="fill: none;"/><path class="ylines-above crisp" d="M0,0" style="fill: none;"/><g class="overlines-above"/><g class="xaxislayer-above"><g class="xtick"><text text-anchor="middle" x="0" y="333" transform="translate(80,0)" style="font-family: 'Open Sans', verdana, arial, sans-serif; font-size: 12px; fill: rgb(42, 63, 95); fill-opacity: 1; white-space: pre;">0</text></g><g class="xtick"><text text-anchor="middle" x="0" y="333" style="font-family: 'Open Sans', verdana, arial, sans-serif; font-size: 12px; fill: rgb(42, 63, 95); fill-opacity: 1; white-space: pre;" transform="translate(168,0)">1M</text></g><g class="xtick"><text text-anchor="middle" x="0" y="333" style="font-family: 'Open Sans', verdana, arial, sans-serif; font-size: 12px; fill: rgb(42, 63, 95); fill-opacity: 1; white-space: pre;" transform="translate(256,0)">2M</text></g><g class="xtick"><text text-anchor="middle" x="0" y="333" style="font-family: 'Open Sans', verdana, arial, sans-serif; font-size: 12px; fill: rgb(42, 63, 95); fill-opacity: 1; white-space: pre;" transform="translate(344,0)">3M</text></g><g class="xtick"><text text-anchor="middle" x="0" y="333" style="font-family: 'Open Sans', verdana, arial, sans-serif; font-size: 12px; fill: rgb(42, 63, 95); fill-opacity: 1; white-space: pre;" transform="translate(432,0)">4M</text></g><g class="xtick"><text text-anchor="middle" x="0" y="333" style="font-family: 'Open Sans', verdana, arial, sans-serif; font-size: 12px; fill: rgb(42, 63, 95); fill-opacity: 1; white-space: pre;" transform="translate(520,0)">5M</text></g></g><g class="yaxislayer-above"><g class="ytick"><text text-anchor="end" x="79" y="4.199999999999999" transform="translate(0,311.90999999999997)" style="font-family: 'Open Sans', verdana, arial, sans-serif; font-size: 12px; fill: rgb(42, 63, 95); fill-opacity: 1; white-space: pre;">100</text></g><g class="ytick"><text text-anchor="end" x="79" y="4.199999999999999" style="font-family: 'Open Sans', verdana, arial, sans-serif; font-size: 12px; fill: rgb(42, 63, 95); fill-opacity: 1; white-space: pre;" transform="translate(0,272.83000000000004)">200</text></g><g class="ytick"><text text-anchor="end" x="79" y="4.199999999999999" style="font-family: 'Open Sans', verdana, arial, sans-serif; font-size: 12px; fill: rgb(42, 63, 95); fill-opacity: 1; white-space: pre;" transform="translate(0,233.74)">300</text></g><g class="ytick"><text text-anchor="end" x="79" y="4.199999999999999" style="font-family: 'Open Sans', verdana, arial, sans-serif; font-size: 12px; fill: rgb(42, 63, 95); fill-opacity: 1; white-space: pre;" transform="translate(0,194.66)">400</text></g><g class="ytick"><text text-anchor="end" x="79" y="4.199999999999999" style="font-family: 'Open Sans', verdana, arial, sans-serif; font-size: 12px; fill: rgb(42, 63, 95); fill-opacity: 1; white-space: pre;" transform="translate(0,155.57999999999998)">500</text></g><g class="ytick"><text text-anchor="end" x="79" y="4.199999999999999" style="font-family: 'Open Sans', verdana, arial, sans-serif; font-size: 12px; fill: rgb(42, 63, 95); fill-opacity: 1; white-space: pre;" transform="translate(0,116.5)">600</text></g></g><g class="overaxes-above"/></g></g><g class="polarlayer"/><g class="smithlayer"/><g class="ternarylayer"/><g class="geolayer"/><g class="funnelarealayer"/><g class="pielayer"/><g class="iciclelayer"/><g class="treemaplayer"/><g class="sunburstlayer"/><g class="glimages"/><defs id="topdefs-25a1dc"><g class="clips"/><clipPath id="legend25a1dc"><rect width="59" height="219" x="0" y="0"/></clipPath></defs><g class="layer-above"><g class="imagelayer"/><g class="shapelayer"/></g><g class="infolayer"><g class="legend" pointer-events="all" transform="translate(528.8,100)"><rect class="bg" shape-rendering="crispEdges" style="stroke: rgb(68, 68, 68); stroke-opacity: 1; fill: rgb(255, 255, 255); fill-opacity: 1; stroke-width: 0px;" width="59" height="219" x="0" y="0"/><g class="scrollbox" transform="" clip-path="url(#legend25a1dc)"><g class="groups"><g class="traces" transform="translate(0,14.5)" style="opacity: 1;"><text class="legendtext" text-anchor="start" x="40" y="4.680000000000001" style="font-family: 'Open Sans', verdana, arial, sans-serif; font-size: 12px; fill: rgb(42, 63, 95); fill-opacity: 1; white-space: pre;">0</text><g class="layers" style="opacity: 1;"><g class="legendfill"/><g class="legendlines"><path class="js-line" d="M5,0h30" style="fill: none; stroke: rgb(231, 248, 191); stroke-opacity: 1; stroke-width: 2px;"/></g><g class="legendsymbols"><g class="legendpoints"/></g></g><rect class="legendtoggle" x="0" y="-9.5" width="53.861328125" height="19" style="fill: rgb(0, 0, 0); fill-opacity: 0;"/></g><g class="traces" transform="translate(0,33.5)" style="opacity: 1;"><text class="legendtext" text-anchor="start" x="40" y="4.680000000000001" style="font-family: 'Open Sans', verdana, arial, sans-serif; font-size: 12px; fill: rgb(42, 63, 95); fill-opacity: 1; white-space: pre;">2</text><g class="layers" style="opacity: 1;"><g class="legendfill"/><g class="legendlines"><path class="js-line" d="M5,0h30" style="fill: none; stroke: rgb(152, 213, 164); stroke-opacity: 1; stroke-width: 2px;"/></g><g class="legendsymbols"><g class="legendpoints"/></g></g><rect class="legendtoggle" x="0" y="-9.5" width="53.861328125" height="19" style="fill: rgb(0, 0, 0); fill-opacity: 0;"/></g><g class="traces" transform="translate(0,52.5)" style="opacity: 1;"><text class="legendtext" text-anchor="start" x="40" y="4.680000000000001" style="font-family: 'Open Sans', verdana, arial, sans-serif; font-size: 12px; fill: rgb(42, 63, 95); fill-opacity: 1; white-space: pre;">4</text><g class="layers" style="opacity: 1;"><g class="legendfill"/><g class="legendlines"><path class="js-line" d="M5,0h30" style="fill: none; stroke: rgb(63, 175, 153); stroke-opacity: 1; stroke-width: 2px;"/></g><g class="legendsymbols"><g class="legendpoints"/></g></g><rect class="legendtoggle" x="0" y="-9.5" width="53.861328125" height="19" style="fill: rgb(0, 0, 0); fill-opacity: 0;"/></g><g class="traces" transform="translate(0,71.5)" style="opacity: 1;"><text class="legendtext" text-anchor="start" x="40" y="4.680000000000001" style="font-family: 'Open Sans', verdana, arial, sans-serif; font-size: 12px; fill: rgb(42, 63, 95); fill-opacity: 1; white-space: pre;">6</text><g class="layers" style="opacity: 1;"><g class="legendfill"/><g class="legendlines"><path class="js-line" d="M5,0h30" style="fill: none; stroke: rgb(0, 134, 146); stroke-opacity: 1; stroke-width: 2px;"/></g><g class="legendsymbols"><g class="legendpoints"/></g></g><rect class="legendtoggle" x="0" y="-9.5" width="53.861328125" height="19" style="fill: rgb(0, 0, 0); fill-opacity: 0;"/></g><g class="traces" transform="translate(0,90.5)" style="opacity: 1;"><text class="legendtext" text-anchor="start" x="40" y="4.680000000000001" style="font-family: 'Open Sans', verdana, arial, sans-serif; font-size: 12px; fill: rgb(42, 63, 95); fill-opacity: 1; white-space: pre;">8</text><g class="layers" style="opacity: 1;"><g class="legendfill"/><g class="legendlines"><path class="js-line" d="M5,0h30" style="fill: none; stroke: rgb(0, 89, 134); stroke-opacity: 1; stroke-width: 2px;"/></g><g class="legendsymbols"><g class="legendpoints"/></g></g><rect class="legendtoggle" x="0" y="-9.5" width="53.861328125" height="19" style="fill: rgb(0, 0, 0); fill-opacity: 0;"/></g><g class="traces" transform="translate(0,109.5)" style="opacity: 1;"><text class="legendtext" text-anchor="start" x="40" y="4.680000000000001" style="font-family: 'Open Sans', verdana, arial, sans-serif; font-size: 12px; fill: rgb(42, 63, 95); fill-opacity: 1; white-space: pre;">10</text><g class="layers" style="opacity: 1;"><g class="legendfill"/><g class="legendlines"><path class="js-line" d="M5,0h30" style="fill: none; stroke: rgb(59, 33, 121); stroke-opacity: 1; stroke-width: 2px;"/></g><g class="legendsymbols"><g class="legendpoints"/></g></g><rect class="legendtoggle" x="0" y="-9.5" width="53.861328125" height="19" style="fill: rgb(0, 0, 0); fill-opacity: 0;"/></g><g class="traces" transform="translate(0,128.5)" style="opacity: 1;"><text class="legendtext" text-anchor="start" x="40" y="4.680000000000001" style="font-family: 'Open Sans', verdana, arial, sans-serif; font-size: 12px; fill: rgb(42, 63, 95); fill-opacity: 1; white-space: pre;">12</text><g class="layers" style="opacity: 1;"><g class="legendfill"/><g class="legendlines"><path class="js-line" d="M5,0h30" style="fill: none; stroke: rgb(130, 48, 131); stroke-opacity: 1; stroke-width: 2px;"/></g><g class="legendsymbols"><g class="legendpoints"/></g></g><rect class="legendtoggle" x="0" y="-9.5" width="53.861328125" height="19" style="fill: rgb(0, 0, 0); fill-opacity: 0;"/></g><g class="traces" transform="translate(0,147.5)" style="opacity: 1;"><text class="legendtext" text-anchor="start" x="40" y="4.680000000000001" style="font-family: 'Open Sans', verdana, arial, sans-serif; font-size: 12px; fill: rgb(42, 63, 95); fill-opacity: 1; white-space: pre;">14</text><g class="layers" style="opacity: 1;"><g class="legendfill"/><g class="legendlines"><path class="js-line" d="M5,0h30" style="fill: none; stroke: rgb(183, 86, 135); stroke-opacity: 1; stroke-width: 2px;"/></g><g class="legendsymbols"><g class="legendpoints"/></g></g><rect class="legendtoggle" x="0" y="-9.5" width="53.861328125" height="19" style="fill: rgb(0, 0, 0); fill-opacity: 0;"/></g><g class="traces" transform="translate(0,166.5)" style="opacity: 1;"><text class="legendtext" text-anchor="start" x="40" y="4.680000000000001" style="font-family: 'Open Sans', verdana, arial, sans-serif; font-size: 12px; fill: rgb(42, 63, 95); fill-opacity: 1; white-space: pre;">16</text><g class="layers" style="opacity: 1;"><g class="legendfill"/><g class="legendlines"><path class="js-line" d="M5,0h30" style="fill: none; stroke: rgb(221, 134, 127); stroke-opacity: 1; stroke-width: 2px;"/></g><g class="legendsymbols"><g class="legendpoints"/></g></g><rect class="legendtoggle" x="0" y="-9.5" width="53.861328125" height="19" style="fill: rgb(0, 0, 0); fill-opacity: 0;"/></g><g class="traces" transform="translate(0,185.5)" style="opacity: 1;"><text class="legendtext" text-anchor="start" x="40" y="4.680000000000001" style="font-family: 'Open Sans', verdana, arial, sans-serif; font-size: 12px; fill: rgb(42, 63, 95); fill-opacity: 1; white-space: pre;">18</text><g class="layers" style="opacity: 1;"><g class="legendfill"/><g class="legendlines"><path class="js-line" d="M5,0h30" style="fill: none; stroke: rgb(244, 188, 119); stroke-opacity: 1; stroke-width: 2px;"/></g><g class="legendsymbols"><g class="legendpoints"/></g></g><rect class="legendtoggle" x="0" y="-9.5" width="53.861328125" height="19" style="fill: rgb(0, 0, 0); fill-opacity: 0;"/></g><g class="traces" transform="translate(0,204.5)" style="opacity: 1;"><text class="legendtext" text-anchor="start" x="40" y="4.680000000000001" style="font-family: 'Open Sans', verdana, arial, sans-serif; font-size: 12px; fill: rgb(42, 63, 95); fill-opacity: 1; white-space: pre;">20</text><g class="layers" style="opacity: 1;"><g class="legendfill"/><g class="legendlines"><path class="js-line" d="M5,0h30" style="fill: none; stroke: rgb(248, 246, 139); stroke-opacity: 1; stroke-width: 2px;"/></g><g class="legendsymbols"><g class="legendpoints"/></g></g><rect class="legendtoggle" x="0" y="-9.5" width="53.861328125" height="19" style="fill: rgb(0, 0, 0); fill-opacity: 0;"/></g></g></g><rect class="scrollbar" rx="20" ry="3" width="0" height="0" style="fill: rgb(128, 139, 164); fill-opacity: 1;" x="0" y="0"/></g><g class="g-gtitle"/><g class="g-xtitle"><text class="xtitle" x="300" y="361.3" text-anchor="middle" style="opacity: 1; font-family: 'Open Sans', verdana, arial, sans-serif; font-size: 14px; fill: rgb(42, 63, 95); fill-opacity: 1; white-space: pre;">time</text></g><g class="g-ytitle"><text class="ytitle" transform="rotate(-90,39.00625,210)" x="39.00625" y="210" text-anchor="middle" style="opacity: 1; font-family: 'Open Sans', verdana, arial, sans-serif; font-size: 14px; fill: rgb(42, 63, 95); fill-opacity: 1; white-space: pre;">distance to peak</text></g></g></svg>