<svg class="main-svg" xmlns="http://www.w3.org/2000/svg" xmlns:xlink="http://www.w3.org/1999/xlink" width="600" height="400" style="" viewBox="0 0 600 400"><rect x="0" y="0" width="600" height="400" style="fill: rgb(255, 255, 255); fill-opacity: 1;"/><defs id="defs-9dc05f"><g class="clips"><clipPath id="clip9dc05fxyplot" class="plotclip"><rect width="433" height="220"/></clipPath><clipPath class="axesclip" id="clip9dc05fx"><rect x="80" y="0" width="433" height="400"/></clipPath><clipPath class="axesclip" id="clip9dc05fy"><rect x="0" y="100" width="600" height="220"/></clipPath><clipPath class="axesclip" id="clip9dc05fxy"><rect x="80" y="100" width="433" height="220"/></clipPath></g><g class="gradients"/><g class="patterns"/></defs><g class="bglayer"/><g class="layer-below"><g class="imagelayer"/><g class="shapelayer"/></g><g class="cartesianlayer"><g class="subplot xy"><g class="layer-subplot"><g class="shapelayer"/><g class="imagelayer"/></g><g class="minor-gridlayer"><g class="x"/><g class="y"/></g><g class="gridlayer"><g class="x"><path class="xgrid crisp" transform="translate(166.6,0)" d="M0,100v220" style="stroke: rgb(235, 240, 248); stroke-opacity: 1; stroke-width: 1px;"/><path class="xgrid crisp" transform="translate(253.2,0)" d="M0,100v220" style="stroke: rgb(235, 240, 248); stroke-opacity: 1; stroke-width: 1px;"/><path class="xgrid crisp" transform="translate(339.8,0)" d="M0,100v220" style="stroke: rgb(235, 240, 248); stroke-opacity: 1; stroke-width: 1px;"/><path class="xgrid crisp" transform="translate(426.4,0)" d="M0,100v220" style="stroke: rgb(235, 240, 248); stroke-opacity: 1; stroke-width: 1px;"/></g><g class="y"><path class="ygrid crisp" transform="translate(0,310.69)" d="M80,0h433" style="stroke: rgb(235, 240, 248); stroke-opacity: 1; stroke-width: 1px;"/><path class="ygrid crisp" transform="translate(0,276.58000000000004)" d="M80,0h433" style="stroke: rgb(235, 240, 248); stroke-opacity: 1; stroke-width: 1px;"/><path class="ygrid crisp" transform="translate(0,242.47)" d="M80,0h433" style="stroke: rgb(235, 240, 248); stroke-opacity: 1; stroke-width: 1px;"/><path class="ygrid crisp" transform="translate(0,208.36)" d="M80,0h433" style="stroke: rgb(235, 240, 248); stroke-opacity: 1; stroke-width: 1px;"/><path class="ygrid crisp" transform="translate(0,174.25)" d="M80,0h433" style="stroke: rgb(235, 240, 248); stroke-opacity: 1; stroke-width: 1px;"/><path class="ygrid crisp" transform="translate(0,140.14)" d="M80,0h433" style="stroke: rgb(235, 240, 248); stroke-opacity: 1; stroke-width: 1px;"/><path class="ygrid crisp" transform="translate(0,106.04)" d="M80,0h433" style="stroke: rgb(235, 240, 248); stroke-opacity: 1; stroke-width: 1px;"/></g></g><g class="zerolinelayer"><path class="xzl zl crisp" transform="translate(80,0)" d="M0,100v220" style="stroke: rgb(235, 240, 248); stroke-opacity: 1; stroke-width: 2px;"/></g><g class="layer-between"><g class="shapelayer"/><g class="imagelayer"/></g><path class="xlines-below"/><path class="ylines-below"/><g class="overlines-below"/><g class="xaxislayer-below"/><g class="yaxislayer-below"/><g class="overaxes-below"/><g class="overplot"><g class="xy" transform="translate(80,100)" clip-path="url(#clip9dc05fxyplot)"><g class="scatterlayer mlayer"><g class="trace scatter trace8db036" style="stroke-miterlimit: 2; opacity: 1;"><g class="fills"/><g class="errorbars"/><g class="lines"><path class="js-line" d="M0,11.72L4.33,21.06L8.66,24.03L21.65,40.24L25.98,43.77L34.64,53.79L38.97,61.15L43.3,69.88L47.63,74.96L51.96,75.9L56.29,82.5L60.62,83.53L64.95,89.64L69.28,89.62L73.61,92.27L77.94,93.14L82.27,94.98L86.6,98.03L90.93,102.55L95.26,105.26L99.59,103.74L103.92,106.45L108.25,111.58L112.58,104.5L116.91,109.72L121.24,102.8L125.57,108.2L129.9,109.63L134.23,113.22L138.56,112.66L142.89,113.15L147.22,112.69L151.55,107.4L155.88,108.88L160.21,109.48L164.54,109.93L168.87,102.31L173.2,100.22L177.53,95.73L181.86,96.88L186.19,94.79L190.52,96.78L194.85,96.92L199.18,104.14L203.51,104.73L207.84,108.4L212.17,107.98L216.5,104.84L220.83,104.33L225.16,107.06L229.49,104.31L233.82,102.72L238.15,105.14L242.48,104.23L246.81,110.8L251.14,111.43L255.47,109.93L259.8,112.32L264.13,115.67L268.46,117.6L272.79,118.69L277.12,118.06L281.45,121.84L285.78,119.39L290.11,115.81L294.44,112.44L298.77,106.62L303.1,103.36L307.43,102.02L311.76,105.52L316.09,106.63L324.75,107.25L329.08,104.66L337.74,114.92L342.07,117.93L346.4,119.7L350.73,114.18L355.06,106.22L359.39,111.9L363.72,111.4L368.05,113.96L376.71,113.13L381.04,107.45L385.37,106.9L389.7,104.35L394.03,105.72L398.36,108.17L402.69,111.17L407.02,115.2L415.68,108.38L420.01,107.79L424.34,103.43L428.67,108.12L433,112.2" style="vector-effect: none; fill: none; stroke: rgb(85, 99, 170); stroke-opacity: 1; stroke-width: 2px; opacity: 1;"/></g><g class="points"/><g class="text"/></g><g class="trace scatter trace778133" style="stroke-miterlimit: 2; opacity: 0.3;"><g class="fills"><g><path class="js-fill" d="M0,11L4.33,16.21L8.66,18.65L12.99,21.1L17.32,24.52L21.65,31.11L25.98,31.81L38.97,43.72L43.3,51.86L47.63,61.34L51.96,61.63L56.29,62.98L60.62,61.14L69.28,64.68L73.61,62.2L77.94,63.58L82.27,70.39L86.6,71.5L90.93,79.77L99.59,80.82L103.92,84.63L112.58,87.65L116.91,95L121.24,87.59L125.57,90.38L129.9,89.6L134.23,82.28L138.56,86.75L142.89,82.68L147.22,85.49L151.55,78.38L155.88,81.68L160.21,78.05L164.54,76.35L168.87,72.7L173.2,74.1L177.53,79.11L181.86,78.5L186.19,80.16L194.85,64.75L199.18,71.86L207.84,88.52L212.17,88.28L220.83,77.64L225.16,83.75L229.49,87.78L233.82,79.53L238.15,82.41L242.48,80.09L246.81,78.66L251.14,79.92L255.47,77.87L259.8,82.05L264.13,95.96L268.46,96.86L272.79,102.27L277.12,100.48L281.45,99.09L285.78,91.47L290.11,93.05L294.44,87.75L298.77,84.81L303.1,83.4L307.43,86.63L311.76,84.49L316.09,86.43L320.42,91.1L324.75,90.59L329.08,93.65L333.41,97.84L337.74,98.63L342.07,100.26L346.4,103.89L350.73,104.21L355.06,90.68L359.39,92.54L363.72,87.11L368.05,89.4L372.38,93.01L376.71,84.2L381.04,78.61L385.37,75.52L389.7,76.82L394.03,77.91L398.36,77.65L402.69,81.18L407.02,83.64L411.35,82.86L415.68,79.2L420.01,78.25L424.34,81.02L428.67,77.61L433,84.15L433,140.25L428.67,138.62L424.34,125.83L420.01,137.34L415.68,137.56L411.35,141.03L407.02,146.75L402.69,141.16L398.36,138.69L394.03,133.52L389.7,131.88L385.37,138.28L381.04,136.29L376.71,142.06L372.38,134.31L368.05,138.51L363.72,135.7L359.39,131.26L355.06,121.76L350.73,124.15L346.4,135.52L342.07,135.61L337.74,131.21L333.41,121.5L329.08,115.68L324.75,123.91L320.42,123.15L316.09,126.82L311.76,126.56L307.43,117.41L298.77,128.42L294.44,137.12L290.11,138.58L285.78,147.3L281.45,144.58L277.12,135.64L272.79,135.11L268.46,138.34L264.13,135.39L259.8,142.58L255.47,141.98L251.14,142.93L246.81,142.93L242.48,128.38L238.15,127.88L233.82,125.92L229.49,120.83L225.16,130.36L220.83,131.02L216.5,126.73L203.51,128.95L199.18,136.43L190.52,121.03L186.19,109.42L181.86,115.26L177.53,112.36L173.2,126.34L168.87,131.92L164.54,143.51L160.21,140.91L155.88,136.08L151.55,136.41L142.89,143.63L138.56,138.58L134.23,144.16L129.9,129.66L125.57,126.02L121.24,118L116.91,124.44L112.58,121.35L108.25,137.11L103.92,128.27L99.59,126.65L95.26,129.9L90.93,125.33L86.6,124.56L82.27,119.58L77.94,122.71L73.61,122.34L69.28,114.55L64.95,116.38L60.62,105.93L56.29,102.02L51.96,90.18L47.63,88.57L43.3,87.91L34.64,67.87L30.31,61.64L12.99,37.79L8.66,29.4L4.33,25.91L0,12.44Z" style="fill: rgb(85, 99, 170); fill-opacity: 1; stroke-width: 0;"/></g></g><g class="errorbars"/><g class="lines"><path class="js-line" d="M0,11L4.33,16.21L8.66,18.65L12.99,21.1L17.32,24.52L21.65,31.11L25.98,31.81L38.97,43.72L43.3,51.86L47.63,61.34L51.96,61.63L56.29,62.98L60.62,61.14L69.28,64.68L73.61,62.2L77.94,63.58L82.27,70.39L86.6,71.5L90.93,79.77L99.59,80.82L103.92,84.63L112.58,87.65L116.91,95L121.24,87.59L125.57,90.38L129.9,89.6L134.23,82.28L138.56,86.75L142.89,82.68L147.22,85.49L151.55,78.38L155.88,81.68L160.21,78.05L164.54,76.35L168.87,72.7L173.2,74.1L177.53,79.11L181.86,78.5L186.19,80.16L194.85,64.75L199.18,71.86L207.84,88.52L212.17,88.28L220.83,77.64L225.16,83.75L229.49,87.78L233.82,79.53L238.15,82.41L242.48,80.09L246.81,78.66L251.14,79.92L255.47,77.87L259.8,82.05L264.13,95.96L268.46,96.86L272.79,102.27L277.12,100.48L281.45,99.09L285.78,91.47L290.11,93.05L294.44,87.75L298.77,84.81L303.1,83.4L307.43,86.63L311.76,84.49L316.09,86.43L320.42,91.1L324.75,90.59L329.08,93.65L333.41,97.84L337.74,98.63L342.07,100.26L346.4,103.89L350.73,104.21L355.06,90.68L359.39,92.54L363.72,87.11L368.05,89.4L372.38,93.01L376.71,84.2L381.04,78.61L385.37,75.52L389.7,76.82L394.03,77.91L398.36,77.65L402.69,81.18L407.02,83.64L411.35,82.86L415.68,79.2L420.01,78.25L424.34,81.02L428.67,77.61L433,84.15L433,140.25L428.67,138.62L424.34,125.83L420.01,137.34L415.68,137.56L411.35,141.03L407.02,146.75L402.69,141.16L398.36,138.69L394.03,133.52L389.7,131.88L385.37,138.28L381.04,136.29L376.71,142.06L372.38,134.31L368.05,138.51L363.72,135.7L359.39,131.26L355.06,121.76L350.73,124.15L346.4,135.52L342.07,135.61L337.74,131.21L333.41,121.5L329.08,115.68L324.75,123.91L320.42,123.15L316.09,126.82L311.76,126.56L307.43,117.41L298.77,128.42L294.44,137.12L290.11,138.58L285.78,147.3L281.45,144.58L277.12,135.64L272.79,135.11L268.46,138.34L264.13,135.39L259.8,142.58L255.47,141.98L251.14,142.93L246.81,142.93L242.48,128.38L238.15,127.88L233.82,125.92L229.49,120.83L225.16,130.36L220.83,131.02L216.5,126.73L203.51,128.95L199.18,136.43L190.52,121.03L186.19,109.42L181.86,115.26L177.53,112.36L173.2,126.34L168.87,131.92L164.54,143.51L160.21,140.91L155.88,136.08L151.55,136.41L142.89,143.63L138.56,138.58L134.23,144.16L129.9,129.66L125.57,126.02L121.24,118L116.91,124.44L112.58,121.35L108.25,137.11L103.92,128.27L99.59,126.65L95.26,129.9L90.93,125.33L86.6,124.56L82.27,119.58L77.94,122.71L73.61,122.34L69.28,114.55L64.95,116.38L60.62,105.93L56.29,102.02L51.96,90.18L47.63,88.57L43.3,87.91L34.64,67.87L30.31,61.64L12.99,37.79L8.66,29.4L4.33,25.91L0,12.44" style="vector-effect: none; fill: none; stroke: rgb(0, 0, 0); stroke-opacity: 0; stroke-width: 2px; opacity: 1;"/></g><g class="points"/><g class="text"/></g><g class="trace scatter tracee719fc" style="stroke-miterlimit: 2; opacity: 1;"><g class="fills"/><g class="errorbars"/><g class="lines"><path class="js-line" d="M0,15.37L4.33,23.34L8.66,26.84L17.32,33.92L21.65,35.98L30.31,43.29L34.64,46.23L38.97,48.76L43.3,53.71L47.63,58.75L51.96,65.81L56.29,68.41L60.62,73.49L64.95,78.69L69.28,81.61L73.61,83.29L77.94,89.07L82.27,94.87L86.6,98.39L90.93,103.48L95.26,109.9L103.92,122.63L108.25,124.16L112.58,132.95L116.91,138.09L125.57,148.95L129.9,150.02L134.23,149.32L138.56,151.41L142.89,148.99L147.22,150.67L151.55,151.52L155.88,154.3L160.21,156.92L164.54,153.64L168.87,148.16L173.2,149.64L177.53,149.93L181.86,148.58L186.19,148.58L190.52,150.37L199.18,148.39L203.51,143.94L207.84,142.72L212.17,140.47L216.5,135.06L220.83,133.94L229.49,131.39L233.82,129.61L238.15,130.02L242.48,128.73L246.81,125.72L251.14,129.52L255.47,133.33L259.8,130.45L272.79,130.33L277.12,123.52L281.45,122.27L285.78,121.89L290.11,118.46L294.44,118.35L298.77,115.87L303.1,115.4L307.43,116.38L311.76,123.65L316.09,125.45L320.42,129.38L324.75,127.26L329.08,126.27L333.41,125.16L337.74,126.03L342.07,125.53L346.4,124.18L355.06,127.51L359.39,132.8L363.72,136.71L368.05,137.65L372.38,134.46L376.71,138.3L381.04,138.92L385.37,138.48L389.7,137.88L394.03,136.49L398.36,130.88L402.69,134.08L407.02,134.93L411.35,137.64L415.68,133.33L420.01,135.32L424.34,135.18L428.67,136.08L433,134.02" style="vector-effect: none; fill: none; stroke: rgb(64, 125, 183); stroke-opacity: 1; stroke-width: 2px; opacity: 1;"/></g><g class="points"/><g class="text"/></g><g class="trace scatter trace384881" style="stroke-miterlimit: 2; opacity: 0.3;"><g class="fills"><g><path class="js-fill" d="M0,14.53L4.33,20.67L8.66,22.62L12.99,24.6L17.32,28.03L21.65,29.5L25.98,33.53L34.64,37.93L38.97,39.15L47.63,47.07L51.96,53.49L56.29,56.13L60.62,61.69L69.28,68.25L73.61,69.61L77.94,75.17L82.27,79.5L86.6,82.63L90.93,87.64L95.26,91.19L99.59,98.18L103.92,106.17L108.25,106.5L112.58,114.19L116.91,118.21L125.57,126.88L129.9,128.5L134.23,131.64L138.56,137.39L142.89,132.78L147.22,137.28L151.55,135.45L155.88,137.85L160.21,140.25L164.54,138.02L168.87,134.27L173.2,135.63L177.53,129.64L181.86,128.54L186.19,124.83L190.52,126.05L194.85,129.12L199.18,130.74L203.51,127.24L207.84,126.42L212.17,126.67L216.5,120.82L225.16,122.48L229.49,115.73L233.82,112.34L238.15,112.85L242.48,111.9L246.81,107.92L251.14,108.59L255.47,115.7L259.8,112.66L264.13,113.81L268.46,112.02L272.79,106.85L281.45,104.96L285.78,105.56L290.11,104.53L294.44,101.99L298.77,96.21L303.1,98.46L311.76,110.14L316.09,111.61L320.42,114.01L324.75,113.52L329.08,110.77L333.41,106.63L337.74,103.73L342.07,102.89L346.4,106.86L350.73,104L355.06,106.25L359.39,116.68L363.72,118.36L368.05,117.45L372.38,116.12L376.71,117.63L381.04,110.53L385.37,112.4L389.7,113.52L394.03,109.66L398.36,107.67L402.69,104.81L407.02,107.63L411.35,109.28L415.68,111.9L420.01,118.93L428.67,117.66L433,117.63L433,150.41L428.67,154.5L424.34,152.22L420.01,151.72L415.68,154.76L411.35,166L407.02,162.24L402.69,163.34L398.36,154.09L394.03,163.31L389.7,162.25L385.37,164.56L381.04,167.32L376.71,158.96L372.38,152.81L368.05,157.86L363.72,155.06L359.39,148.92L355.06,148.78L350.73,147.49L346.4,141.5L342.07,148.17L337.74,148.34L333.41,143.69L329.08,141.78L324.75,141.01L320.42,144.75L316.09,139.29L311.76,137.16L307.43,127.98L303.1,132.34L298.77,135.53L294.44,134.7L290.11,132.39L285.78,138.21L281.45,139.58L277.12,140.97L272.79,153.81L268.46,149.41L264.13,147.23L259.8,148.24L255.47,150.95L251.14,150.45L246.81,143.53L238.15,147.19L233.82,146.88L229.49,147.06L225.16,143.18L216.5,149.31L212.17,154.28L207.84,159.02L203.51,160.64L199.18,166.04L194.85,169.14L190.52,174.69L186.19,172.34L181.86,168.63L177.53,170.23L173.2,163.64L168.87,162.05L164.54,169.25L160.21,173.58L151.55,167.59L147.22,164.06L142.89,165.2L138.56,165.42L134.23,167.01L129.9,171.53L125.57,171.03L121.24,164.53L112.58,151.7L108.25,141.81L103.92,139.08L99.59,135.42L95.26,128.62L90.93,119.33L86.6,114.15L82.27,110.24L73.61,96.98L69.28,94.97L64.95,92.25L60.62,85.29L56.29,80.68L51.96,78.13L47.63,70.43L43.3,64.33L38.97,58.37L34.64,54.53L21.65,42.46L17.32,39.8L12.99,37.01L8.66,31.06L4.33,26.01L0,16.21Z" style="fill: rgb(64, 125, 183); fill-opacity: 1; stroke-width: 0;"/></g></g><g class="errorbars"/><g class="lines"><path class="js-line" d="M0,14.53L4.33,20.67L8.66,22.62L12.99,24.6L17.32,28.03L21.65,29.5L25.98,33.53L34.64,37.93L38.97,39.15L47.63,47.07L51.96,53.49L56.29,56.13L60.62,61.69L69.28,68.25L73.61,69.61L77.94,75.17L82.27,79.5L86.6,82.63L90.93,87.64L95.26,91.19L99.59,98.18L103.92,106.17L108.25,106.5L112.58,114.19L116.91,118.21L125.57,126.88L129.9,128.5L134.23,131.64L138.56,137.39L142.89,132.78L147.22,137.28L151.55,135.45L155.88,137.85L160.21,140.25L164.54,138.02L168.87,134.27L173.2,135.63L177.53,129.64L181.86,128.54L186.19,124.83L190.52,126.05L194.85,129.12L199.18,130.74L203.51,127.24L207.84,126.42L212.17,126.67L216.5,120.82L225.16,122.48L229.49,115.73L233.82,112.34L238.15,112.85L242.48,111.9L246.81,107.92L251.14,108.59L255.47,115.7L259.8,112.66L264.13,113.81L268.46,112.02L272.79,106.85L281.45,104.96L285.78,105.56L290.11,104.53L294.44,101.99L298.77,96.21L303.1,98.46L311.76,110.14L316.09,111.61L320.42,114.01L324.75,113.52L329.08,110.77L333.41,106.63L337.74,103.73L342.07,102.89L346.4,106.86L350.73,104L355.06,106.25L359.39,116.68L363.72,118.36L368.05,117.45L372.38,116.12L376.71,117.63L381.04,110.53L385.37,112.4L389.7,113.52L394.03,109.66L398.36,107.67L402.69,104.81L407.02,107.63L411.35,109.28L415.68,111.9L420.01,118.93L428.67,117.66L433,117.63L433,150.41L428.67,154.5L424.34,152.22L420.01,151.72L415.68,154.76L411.35,166L407.02,162.24L402.69,163.34L398.36,154.09L394.03,163.31L389.7,162.25L385.37,164.56L381.04,167.32L376.71,158.96L372.38,152.81L368.05,157.86L363.72,155.06L359.39,148.92L355.06,148.78L350.73,147.49L346.4,141.5L342.07,148.17L337.74,148.34L333.41,143.69L329.08,141.78L324.75,141.01L320.42,144.75L316.09,139.29L311.76,137.16L307.43,127.98L303.1,132.34L298.77,135.53L294.44,134.7L290.11,132.39L285.78,138.21L281.45,139.58L277.12,140.97L272.79,153.81L268.46,149.41L264.13,147.23L259.8,148.24L255.47,150.95L251.14,150.45L246.81,143.53L238.15,147.19L233.82,146.88L229.49,147.06L225.16,143.18L216.5,149.31L212.17,154.28L207.84,159.02L203.51,160.64L199.18,166.04L194.85,169.14L190.52,174.69L186.19,172.34L181.86,168.63L177.53,170.23L173.2,163.64L168.87,162.05L164.54,169.25L160.21,173.58L151.55,167.59L147.22,164.06L142.89,165.2L138.56,165.42L134.23,167.01L129.9,171.53L125.57,171.03L121.24,164.53L112.58,151.7L108.25,141.81L103.92,139.08L99.59,135.42L95.26,128.62L90.93,119.33L86.6,114.15L82.27,110.24L73.61,96.98L69.28,94.97L64.95,92.25L60.62,85.29L56.29,80.68L51.96,78.13L47.63,70.43L43.3,64.33L38.97,58.37L34.64,54.53L21.65,42.46L17.32,39.8L12.99,37.01L8.66,31.06L4.33,26.01L0,16.21" style="vector-effect: none; fill: none; stroke: rgb(0, 0, 0); stroke-opacity: 0; stroke-width: 2px; opacity: 1;"/></g><g class="points"/><g class="text"/></g><g class="trace scatter trace6c7285" style="stroke-miterlimit: 2; opacity: 1;"><g class="fills"/><g class="errorbars"/><g class="lines"><path class="js-line" d="M0,21.8L8.66,34.5L12.99,38.2L17.32,40.9L21.65,44.78L25.98,48L30.31,53.5L38.97,65.41L43.3,69.65L51.96,79.69L56.29,85.19L77.94,110.86L82.27,117.83L95.26,134.89L99.59,141.01L112.58,158.19L116.91,164.35L121.24,171.18L125.57,175.61L129.9,180.26L134.23,180.99L142.89,187.35L147.22,187.96L151.55,191.1L155.88,189.11L160.21,189.62L164.54,191.44L173.2,182.35L177.53,180.16L181.86,175.53L186.19,176.63L190.52,174.96L194.85,170.33L199.18,170.52L203.51,167.37L207.84,167.3L212.17,163.28L216.5,164.97L220.83,163.5L225.16,166.11L229.49,166.93L233.82,165.9L238.15,163.66L242.48,161.33L246.81,161.61L251.14,163.77L255.47,164.76L259.8,164.88L264.13,164.1L268.46,163.92L272.79,162.71L277.12,160.98L281.45,161.93L285.78,163.14L290.11,159.77L294.44,160.51L298.77,162.42L307.43,160.34L311.76,161.37L316.09,166.83L320.42,169L324.75,170.03L329.08,169.01L337.74,164.36L342.07,162.36L346.4,160.95L350.73,158.46L355.06,158.08L359.39,156.1L363.72,154.86L368.05,152.71L372.38,150.45L376.71,155.04L381.04,155.7L385.37,153.68L389.7,156.12L394.03,154.62L398.36,154.59L402.69,156.72L407.02,160.09L411.35,157.49L415.68,159.5L420.01,158.94L424.34,155.42L428.67,155.41L433,154.56" style="vector-effect: none; fill: none; stroke: rgb(87, 175, 174); stroke-opacity: 1; stroke-width: 2px; opacity: 1;"/></g><g class="points"/><g class="text"/></g><g class="trace scatter trace70a222" style="stroke-miterlimit: 2; opacity: 0.3;"><g class="fills"><g><path class="js-fill" d="M0,21.04L4.33,28.06L8.66,32.04L25.98,43.05L30.31,47.79L38.97,56.73L43.3,60.95L60.62,79.75L64.95,83.71L69.28,90.24L73.61,94.58L77.94,99.09L82.27,106.12L99.59,131.82L103.92,136.47L108.25,140.79L112.58,148.55L116.91,152.84L121.24,161.53L129.9,173.35L134.23,172.48L138.56,173.43L142.89,177.38L147.22,177.4L151.55,179.26L155.88,175.9L160.21,177.95L164.54,182.94L168.87,177.73L177.53,167.65L181.86,160.17L186.19,158.85L190.52,159.84L194.85,153.91L199.18,150.94L203.51,149.73L207.84,151.8L220.83,150.25L225.16,152.93L229.49,153.7L233.82,153.54L238.15,151.84L242.48,152L251.14,149.93L255.47,150.34L259.8,152.14L264.13,152.89L268.46,148.54L272.79,146.71L277.12,144.21L281.45,145.41L285.78,150.09L290.11,145.81L294.44,146.03L298.77,150.83L303.1,149.7L307.43,147.52L311.76,145.44L316.09,153.77L320.42,156.3L324.75,157L329.08,153.32L333.41,152.19L342.07,146.56L346.4,144.85L350.73,140.04L355.06,138.6L359.39,137.9L363.72,141.62L372.38,141.16L376.71,142.67L381.04,139.36L385.37,137.19L389.7,138.37L394.03,136.64L398.36,137.02L402.69,139.12L407.02,144.58L411.35,140.74L415.68,143.59L420.01,143.53L424.34,139.89L428.67,140.81L433,138.25L433,170.86L428.67,170.01L424.34,170.94L420.01,174.34L415.68,175.4L411.35,174.25L407.02,175.61L402.69,174.31L398.36,172.17L394.03,172.61L389.7,173.87L385.37,170.16L381.04,172.03L376.71,167.42L372.38,159.74L363.72,168.1L359.39,174.3L355.06,177.56L350.73,176.89L346.4,177.05L342.07,178.16L333.41,180.35L329.08,184.71L316.09,179.88L311.76,177.3L307.43,173.16L303.1,172.6L294.44,174.98L290.11,173.73L281.45,178.45L277.12,177.74L268.46,179.29L264.13,175.3L255.47,179.18L251.14,177.61L246.81,172.2L242.48,170.67L238.15,175.49L233.82,178.27L229.49,180.16L225.16,179.3L220.83,176.75L216.5,178.55L212.17,175.24L207.84,182.79L203.51,185L199.18,190.09L194.85,186.75L190.52,190.09L186.19,194.42L181.86,190.89L177.53,192.66L173.2,192.4L164.54,199.93L160.21,201.3L151.55,202.94L147.22,198.51L142.89,197.32L138.56,195.17L134.23,189.49L129.9,187.18L125.57,183.26L121.24,180.84L116.91,175.86L112.58,167.83L108.25,164.7L103.92,156.58L95.26,144.62L90.93,139.76L86.6,133.77L82.27,129.54L73.61,115.96L69.28,110.49L64.95,106.54L60.62,100.81L47.63,82.89L43.3,78.34L38.97,74.08L34.64,65.79L25.98,52.96L21.65,48.97L8.66,36.97L4.33,29.36L0,22.56Z" style="fill: rgb(87, 175, 174); fill-opacity: 1; stroke-width: 0;"/></g></g><g class="errorbars"/><g class="lines"><path class="js-line" d="M0,21.04L4.33,28.06L8.66,32.04L25.98,43.05L30.31,47.79L38.97,56.73L43.3,60.95L60.62,79.75L64.95,83.71L69.28,90.24L73.61,94.58L77.94,99.09L82.27,106.12L99.59,131.82L103.92,136.47L108.25,140.79L112.58,148.55L116.91,152.84L121.24,161.53L129.9,173.35L134.23,172.48L138.56,173.43L142.89,177.38L147.22,177.4L151.55,179.26L155.88,175.9L160.21,177.95L164.54,182.94L168.87,177.73L177.53,167.65L181.86,160.17L186.19,158.85L190.52,159.84L194.85,153.91L199.18,150.94L203.51,149.73L207.84,151.8L220.83,150.25L225.16,152.93L229.49,153.7L233.82,153.54L238.15,151.84L242.48,152L251.14,149.93L255.47,150.34L259.8,152.14L264.13,152.89L268.46,148.54L272.79,146.71L277.12,144.21L281.45,145.41L285.78,150.09L290.11,145.81L294.44,146.03L298.77,150.83L303.1,149.7L307.43,147.52L311.76,145.44L316.09,153.77L320.42,156.3L324.75,157L329.08,153.32L333.41,152.19L342.07,146.56L346.4,144.85L350.73,140.04L355.06,138.6L359.39,137.9L363.72,141.62L372.38,141.16L376.71,142.67L381.04,139.36L385.37,137.19L389.7,138.37L394.03,136.64L398.36,137.02L402.69,139.12L407.02,144.58L411.35,140.74L415.68,143.59L420.01,143.53L424.34,139.89L428.67,140.81L433,138.25L433,170.86L428.67,170.01L424.34,170.94L420.01,174.34L415.68,175.4L411.35,174.25L407.02,175.61L402.69,174.31L398.36,172.17L394.03,172.61L389.7,173.87L385.37,170.16L381.04,172.03L376.71,167.42L372.38,159.74L363.72,168.1L359.39,174.3L355.06,177.56L350.73,176.89L346.4,177.05L342.07,178.16L333.41,180.35L329.08,184.71L316.09,179.88L311.76,177.3L307.43,173.16L303.1,172.6L294.44,174.98L290.11,173.73L281.45,178.45L277.12,177.74L268.46,179.29L264.13,175.3L255.47,179.18L251.14,177.61L246.81,172.2L242.48,170.67L238.15,175.49L233.82,178.27L229.49,180.16L225.16,179.3L220.83,176.75L216.5,178.55L212.17,175.24L207.84,182.79L203.51,185L199.18,190.09L194.85,186.75L190.52,190.09L186.19,194.42L181.86,190.89L177.53,192.66L173.2,192.4L164.54,199.93L160.21,201.3L151.55,202.94L147.22,198.51L142.89,197.32L138.56,195.17L134.23,189.49L129.9,187.18L125.57,183.26L121.24,180.84L116.91,175.86L112.58,167.83L108.25,164.7L103.92,156.58L95.26,144.62L90.93,139.76L86.6,133.77L82.27,129.54L73.61,115.96L69.28,110.49L64.95,106.54L60.62,100.81L47.63,82.89L43.3,78.34L38.97,74.08L34.64,65.79L25.98,52.96L21.65,48.97L8.66,36.97L4.33,29.36L0,22.56" style="vector-effect: none; fill: none; stroke: rgb(0, 0, 0); stroke-opacity: 0; stroke-width: 2px; opacity: 1;"/></g><g class="points"/><g class="text"/></g><g class="trace scatter trace2c6697" style="stroke-miterlimit: 2; opacity: 1;"><g class="fills"/><g class="errorbars"/><g class="lines"><path class="js-line" d="M0,25.1L4.33,32.29L8.66,37.15L34.64,68.4L38.97,72.45L51.96,88.91L56.29,94.93L60.62,100.14L64.95,106.9L73.61,119.16L77.94,124.14L99.59,152.36L103.92,156.66L108.25,159.98L112.58,165.95L116.91,171.95L121.24,176.42L125.57,179.94L129.9,184.91L138.56,190L142.89,191.89L151.55,197.57L155.88,198.61L160.21,199.11L164.54,197.97L168.87,194.05L173.2,193.9L177.53,193.67L181.86,194.64L186.19,192.96L190.52,193.99L194.85,189.48L199.18,187.66L203.51,187.03L207.84,187.49L212.17,185.65L216.5,186.27L229.49,184.2L233.82,182.41L238.15,184.11L242.48,184.28L255.47,185.44L259.8,184.9L264.13,183.05L268.46,182.98L272.79,185.36L277.12,184.47L281.45,183.24L285.78,183.43L290.11,181.3L294.44,182.71L298.77,180.53L303.1,182.24L307.43,182.33L311.76,183.47L316.09,181.84L320.42,183.69L324.75,184.41L329.08,183.01L337.74,183.15L342.07,182.31L350.73,175.46L355.06,175.09L359.39,174.38L363.72,172.9L368.05,174.67L372.38,175.46L376.71,177.33L381.04,176.5L389.7,178.91L394.03,179.15L398.36,180.35L402.69,182.99L407.02,182.09L411.35,183.32L420.01,183.83L424.34,184.37L428.67,183.93L433,182.53" style="vector-effect: none; fill: none; stroke: rgb(142, 208, 165); stroke-opacity: 1; stroke-width: 2px; opacity: 1;"/></g><g class="points"/><g class="text"/></g><g class="trace scatter trace4af998" style="stroke-miterlimit: 2; opacity: 0.3;"><g class="fills"><g><path class="js-fill" d="M0,24.3L4.33,30.84L8.66,35.07L17.32,43.66L21.65,46.9L25.98,53.15L30.31,57.62L34.64,63.43L38.97,65.83L47.63,74.26L51.96,79.26L56.29,85.13L60.62,89.09L64.95,95.87L69.28,100.64L73.61,107.49L77.94,111.21L86.6,119.77L90.93,125.37L99.59,140.4L103.92,144.7L121.24,162.14L125.57,163.73L129.9,171.43L134.23,174.41L138.56,179.66L142.89,182.43L147.22,185.64L151.55,187.3L160.21,192.05L164.54,191.65L168.87,188.69L173.2,190.22L186.19,186.58L190.52,187.6L194.85,181.48L199.18,179.38L203.51,177.92L207.84,178.57L212.17,178.05L216.5,178.85L220.83,176.03L225.16,174.52L233.82,173.97L238.15,175.5L242.48,177.08L246.81,176.16L255.47,178.21L259.8,176.53L264.13,171.34L268.46,171.41L277.12,172.36L281.45,171.77L285.78,171.37L290.11,169.35L294.44,170.76L298.77,168.99L303.1,169.15L307.43,170.11L311.76,172.74L316.09,169.91L320.42,171.32L324.75,170.83L329.08,168.19L333.41,170.47L342.07,168.53L346.4,166.82L350.73,162.44L355.06,164.4L359.39,163.63L363.72,160.72L372.38,164L376.71,168.54L381.04,166.41L385.37,167.78L389.7,170.17L394.03,169.55L398.36,171.91L402.69,172.99L407.02,171.53L411.35,172.54L415.68,172.49L420.01,175.68L424.34,175.85L428.67,177.42L433,174.14L433,190.91L428.67,190.44L424.34,192.89L420.01,191.98L415.68,194L411.35,194.1L407.02,192.65L402.69,192.99L398.36,188.79L394.03,188.76L389.7,187.65L385.37,187.83L381.04,186.59L376.71,186.12L372.38,186.91L368.05,186.89L363.72,185.09L355.06,185.78L350.73,188.48L346.4,190.75L342.07,196.1L337.74,196.58L333.41,196.11L329.08,197.84L324.75,197.98L316.09,193.78L311.76,194.2L303.1,195.33L298.77,192.06L294.44,194.65L290.11,193.26L285.78,195.48L281.45,194.7L272.79,199.03L268.46,194.54L264.13,194.77L259.8,193.27L255.47,192.68L251.14,192.92L246.81,193.1L242.48,191.47L238.15,192.72L233.82,190.85L225.16,196.11L220.83,195.24L216.5,193.68L212.17,193.26L207.84,196.41L203.51,196.14L199.18,195.94L194.85,197.48L190.52,200.39L186.19,199.33L181.86,200.98L177.53,198.25L173.2,197.58L168.87,199.41L164.54,204.29L160.21,206.16L151.55,207.85L147.22,204.53L142.89,201.34L138.56,200.34L134.23,201.14L129.9,198.39L125.57,196.16L121.24,190.7L116.91,185.45L112.58,178.57L108.25,170.76L103.92,168.62L99.59,164.32L95.26,161.52L90.93,157.39L86.6,151.39L73.61,130.82L69.28,126.24L60.62,111.2L56.29,104.73L30.31,67.84L25.98,62.06L4.33,33.73L0,25.9Z" style="fill: rgb(142, 208, 165); fill-opacity: 1; stroke-width: 0;"/></g></g><g class="errorbars"/><g class="lines"><path class="js-line" d="M0,24.3L4.33,30.84L8.66,35.07L17.32,43.66L21.65,46.9L25.98,53.15L30.31,57.62L34.64,63.43L38.97,65.83L47.63,74.26L51.96,79.26L56.29,85.13L60.62,89.09L64.95,95.87L69.28,100.64L73.61,107.49L77.94,111.21L86.6,119.77L90.93,125.37L99.59,140.4L103.92,144.7L121.24,162.14L125.57,163.73L129.9,171.43L134.23,174.41L138.56,179.66L142.89,182.43L147.22,185.64L151.55,187.3L160.21,192.05L164.54,191.65L168.87,188.69L173.2,190.22L186.19,186.58L190.52,187.6L194.85,181.48L199.18,179.38L203.51,177.92L207.84,178.57L212.17,178.05L216.5,178.85L220.83,176.03L225.16,174.52L233.82,173.97L238.15,175.5L242.48,177.08L246.81,176.16L255.47,178.21L259.8,176.53L264.13,171.34L268.46,171.41L277.12,172.36L281.45,171.77L285.78,171.37L290.11,169.35L294.44,170.76L298.77,168.99L303.1,169.15L307.43,170.11L311.76,172.74L316.09,169.91L320.42,171.32L324.75,170.83L329.08,168.19L333.41,170.47L342.07,168.53L346.4,166.82L350.73,162.44L355.06,164.4L359.39,163.63L363.72,160.72L372.38,164L376.71,168.54L381.04,166.41L385.37,167.78L389.7,170.17L394.03,169.55L398.36,171.91L402.69,172.99L407.02,171.53L411.35,172.54L415.68,172.49L420.01,175.68L424.34,175.85L428.67,177.42L433,174.14L433,190.91L428.67,190.44L424.34,192.89L420.01,191.98L415.68,194L411.35,194.1L407.02,192.65L402.69,192.99L398.36,188.79L394.03,188.76L389.7,187.65L385.37,187.83L381.04,186.59L376.71,186.12L372.38,186.91L368.05,186.89L363.72,185.09L355.06,185.78L350.73,188.48L346.4,190.75L342.07,196.1L337.74,196.58L333.41,196.11L329.08,197.84L324.75,197.98L316.09,193.78L311.76,194.2L303.1,195.33L298.77,192.06L294.44,194.65L290.11,193.26L285.78,195.48L281.45,194.7L272.79,199.03L268.46,194.54L264.13,194.77L259.8,193.27L255.47,192.68L251.14,192.92L246.81,193.1L242.48,191.47L238.15,192.72L233.82,190.85L225.16,196.11L220.83,195.24L216.5,193.68L212.17,193.26L207.84,196.41L203.51,196.14L199.18,195.94L194.85,197.48L190.52,200.39L186.19,199.33L181.86,200.98L177.53,198.25L173.2,197.58L168.87,199.41L164.54,204.29L160.21,206.16L151.55,207.85L147.22,204.53L142.89,201.34L138.56,200.34L134.23,201.14L129.9,198.39L125.57,196.16L121.24,190.7L116.91,185.45L112.58,178.57L108.25,170.76L103.92,168.62L99.59,164.32L95.26,161.52L90.93,157.39L86.6,151.39L73.61,130.82L69.28,126.24L60.62,111.2L56.29,104.73L30.31,67.84L25.98,62.06L4.33,33.73L0,25.9" style="vector-effect: none; fill: none; stroke: rgb(0, 0, 0); stroke-opacity: 0; stroke-width: 2px; opacity: 1;"/></g><g class="points"/><g class="text"/></g><g class="trace scatter trace3a89a4" style="stroke-miterlimit: 2; opacity: 1;"><g class="fills"/><g class="errorbars"/><g class="lines"><path class="js-line" d="M0,28.57L4.33,35.41L8.66,39.92L17.32,48.1L21.65,52.51L56.29,93.02L60.62,99.7L69.28,109.3L73.61,114.46L90.93,138.13L95.26,144.7L103.92,156.05L108.25,163.01L116.91,175.24L121.24,181.45L125.57,187.02L129.9,189.6L138.56,196.87L142.89,199.08L147.22,201.21L151.55,201.68L155.88,201.08L160.21,201.95L164.54,202.94L168.87,202.58L190.52,199.63L194.85,197.69L203.51,198.13L207.84,195.12L216.5,196.1L220.83,194.77L229.49,196.99L233.82,197.16L242.48,195.57L246.81,193.72L255.47,194.78L259.8,193.9L264.13,194.07L268.46,191.9L277.12,192.18L281.45,194.07L285.78,192.78L290.11,193.68L311.76,195.47L316.09,194.75L320.42,195.91L324.75,195.25L329.08,194.33L333.41,194.29L337.74,193.17L342.07,193.58L346.4,190.86L350.73,191.14L355.06,190.61L359.39,189.3L368.05,187.21L372.38,188.81L376.71,191.41L381.04,192.91L389.7,191.74L394.03,194.28L398.36,193.73L402.69,194.95L411.35,193.6L415.68,194.27L424.34,194.56L428.67,192.72L433,192.21" style="vector-effect: none; fill: none; stroke: rgb(192, 229, 161); stroke-opacity: 1; stroke-width: 2px; opacity: 1;"/></g><g class="points"/><g class="text"/></g><g class="trace scatter traceb525d4" style="stroke-miterlimit: 2; opacity: 0.3;"><g class="fills"><g><path class="js-fill" d="M0,27.67L4.33,34.35L8.66,38.19L12.99,41.11L17.32,45.01L25.98,54.23L30.31,60.78L34.64,64.68L38.97,70.28L56.29,87.74L60.62,94.19L64.95,99.18L69.28,101.93L73.61,106.33L77.94,112.67L86.6,124.48L90.93,128.59L95.26,136.05L99.59,141.22L112.58,159.55L116.91,164.15L121.24,171.85L125.57,177.16L129.9,177.79L134.23,180.65L142.89,190.84L147.22,194.29L151.55,194.72L155.88,194.17L164.54,197.46L168.87,196.16L173.2,194.93L177.53,195.39L181.86,195.49L186.19,193.82L194.85,190.1L199.18,190.78L203.51,191.58L207.84,188.65L216.5,191.35L220.83,188.96L225.16,191.64L229.49,192.33L242.48,187.62L246.81,184.77L251.14,185.17L255.47,187.13L259.8,185.31L264.13,186.25L272.79,183.43L277.12,184.62L281.45,187.85L285.78,186.96L290.11,185.95L294.44,188.12L298.77,187.82L303.1,190.18L307.43,188.1L311.76,189.44L316.09,188.94L320.42,190.63L324.75,191.13L329.08,190.3L337.74,186.63L342.07,187.6L346.4,184.12L350.73,186.09L363.72,183.34L368.05,183.4L372.38,186.3L376.71,187.98L381.04,191.19L385.37,188.62L389.7,187.99L394.03,190.37L398.36,190.26L402.69,189.11L407.02,188.13L411.35,188.12L415.68,187.33L420.01,187.79L424.34,189.17L428.67,186.19L433,184.78L433,199.64L428.67,199.25L424.34,199.94L420.01,201.55L415.68,201.21L411.35,199.08L407.02,200.5L402.69,200.79L398.36,197.2L394.03,198.19L389.7,195.5L385.37,196.6L381.04,194.62L376.71,194.83L372.38,191.31L368.05,191.01L363.72,192.71L359.39,193.75L355.06,196.07L350.73,196.2L346.4,197.59L342.07,199.56L337.74,199.71L333.41,199.96L329.08,198.37L324.75,199.36L320.42,201.19L316.09,200.57L311.76,201.51L307.43,202.72L303.1,198.81L298.77,200.86L294.44,199.84L290.11,201.41L285.78,198.59L281.45,200.29L277.12,199.74L272.79,200.64L268.46,199.1L264.13,201.89L259.8,202.5L246.81,202.66L242.48,203.52L233.82,203.51L229.49,201.65L225.16,200.59L220.83,200.58L207.84,201.59L203.51,204.67L194.85,205.29L190.52,207.16L186.19,206.45L181.86,206.77L173.2,208.86L168.87,209L155.88,208L151.55,208.64L142.89,207.32L138.56,208L134.23,205.21L129.9,201.42L125.57,196.88L121.24,191.04L116.91,186.32L112.58,179.94L103.92,164.49L99.59,158.96L90.93,147.66L86.6,139.47L34.64,69.62L30.31,65.4L25.98,60.85L21.65,55.14L12.99,46.34L8.66,41.66L4.33,36.48L0,29.47Z" style="fill: rgb(192, 229, 161); fill-opacity: 1; stroke-width: 0;"/></g></g><g class="errorbars"/><g class="lines"><path class="js-line" d="M0,27.67L4.33,34.35L8.66,38.19L12.99,41.11L17.32,45.01L25.98,54.23L30.31,60.78L34.64,64.68L38.97,70.28L56.29,87.74L60.62,94.19L64.95,99.18L69.28,101.93L73.61,106.33L77.94,112.67L86.6,124.48L90.93,128.59L95.26,136.05L99.59,141.22L112.58,159.55L116.91,164.15L121.24,171.85L125.57,177.16L129.9,177.79L134.23,180.65L142.89,190.84L147.22,194.29L151.55,194.72L155.88,194.17L164.54,197.46L168.87,196.16L173.2,194.93L177.53,195.39L181.86,195.49L186.19,193.82L194.85,190.1L199.18,190.78L203.51,191.58L207.84,188.65L216.5,191.35L220.83,188.96L225.16,191.64L229.49,192.33L242.48,187.62L246.81,184.77L251.14,185.17L255.47,187.13L259.8,185.31L264.13,186.25L272.79,183.43L277.12,184.62L281.45,187.85L285.78,186.96L290.11,185.95L294.44,188.12L298.77,187.82L303.1,190.18L307.43,188.1L311.76,189.44L316.09,188.94L320.42,190.63L324.75,191.13L329.08,190.3L337.74,186.63L342.07,187.6L346.4,184.12L350.73,186.09L363.72,183.34L368.05,183.4L372.38,186.3L376.71,187.98L381.04,191.19L385.37,188.62L389.7,187.99L394.03,190.37L398.36,190.26L402.69,189.11L407.02,188.13L411.35,188.12L415.68,187.33L420.01,187.79L424.34,189.17L428.67,186.19L433,184.78L433,199.64L428.67,199.25L424.34,199.94L420.01,201.55L415.68,201.21L411.35,199.08L407.02,200.5L402.69,200.79L398.36,197.2L394.03,198.19L389.7,195.5L385.37,196.6L381.04,194.62L376.71,194.83L372.38,191.31L368.05,191.01L363.72,192.71L359.39,193.75L355.06,196.07L350.73,196.2L346.4,197.59L342.07,199.56L337.74,199.71L333.41,199.96L329.08,198.37L324.75,199.36L320.42,201.19L316.09,200.57L311.76,201.51L307.43,202.72L303.1,198.81L298.77,200.86L294.44,199.84L290.11,201.41L285.78,198.59L281.45,200.29L277.12,199.74L272.79,200.64L268.46,199.1L264.13,201.89L259.8,202.5L246.81,202.66L242.48,203.52L233.82,203.51L229.49,201.65L225.16,200.59L220.83,200.58L207.84,201.59L203.51,204.67L194.85,205.29L190.52,207.16L186.19,206.45L181.86,206.77L173.2,208.86L168.87,209L155.88,208L151.55,208.64L142.89,207.32L138.56,208L134.23,205.21L129.9,201.42L125.57,196.88L121.24,191.04L116.91,186.32L112.58,179.94L103.92,164.49L99.59,158.96L90.93,147.66L86.6,139.47L34.64,69.62L30.31,65.4L25.98,60.85L21.65,55.14L12.99,46.34L8.66,41.66L4.33,36.48L0,29.47" style="vector-effect: none; fill: none; stroke: rgb(0, 0, 0); stroke-opacity: 0; stroke-width: 2px; opacity: 1;"/></g><g class="points"/><g class="text"/></g><g class="trace scatter traced4893d" style="stroke-miterlimit: 2; opacity: 1;"><g class="fills"/><g class="errorbars"/><g class="lines"><path class="js-line" d="M0,28.8L4.33,37.05L8.66,41.1L30.31,64.55L34.64,69.28L47.63,85.17L51.96,91.39L90.93,144.96L95.26,152.49L99.59,157.26L103.92,163.2L121.24,186.85L125.57,191.78L134.23,200.26L138.56,201.92L155.88,201.82L160.21,200.22L164.54,198.68L168.87,198.84L173.2,198.05L177.53,198.16L186.19,197.77L190.52,196.4L199.18,196.1L203.51,196.47L216.5,195.24L220.83,194.94L225.16,195L229.49,193.75L233.82,194.09L238.15,192.72L242.48,192.39L246.81,193.01L251.14,193.65L255.47,192.38L259.8,193.41L264.13,193.37L272.79,192.21L277.12,191.97L285.78,193.22L290.11,192.57L298.77,193.5L303.1,194.78L311.76,195.97L316.09,195.79L320.42,195.54L324.75,194.5L342.07,194.89L346.4,194.4L350.73,193.31L355.06,194.21L363.72,193.54L368.05,192.82L372.38,193.26L376.71,192.87L381.04,192.71L385.37,193.9L398.36,192.14L402.69,192.44L407.02,193.51L411.35,193.35L415.68,195.43L420.01,194.52L428.67,193.37L433,191.99" style="vector-effect: none; fill: none; stroke: rgb(233, 246, 157); stroke-opacity: 1; stroke-width: 2px; opacity: 1;"/></g><g class="points"/><g class="text"/></g><g class="trace scatter trace430147" style="stroke-miterlimit: 2; opacity: 0.3;"><g class="fills"><g><path class="js-fill" d="M0,28.59L4.33,36.02L8.66,39.16L17.32,45.52L21.65,50.35L25.98,56.15L30.31,59.61L43.3,75.05L47.63,80.49L60.62,98.6L64.95,103.71L69.28,108.95L73.61,115.42L82.27,127.44L86.6,134.1L95.26,144.33L99.59,149.73L108.25,162.62L112.58,167.06L121.24,179.78L125.57,184.15L129.9,189.89L134.23,196.91L138.56,199.34L142.89,199.05L147.22,199.23L151.55,198.18L155.88,199.32L160.21,197.4L164.54,195.61L168.87,195.15L173.2,193.98L177.53,194.5L181.86,194.83L186.19,193.65L190.52,192.46L194.85,192.44L199.18,193.66L203.51,193.9L207.84,193.4L212.17,192.11L216.5,191.48L220.83,189.5L225.16,189.89L229.49,187.91L233.82,187.82L238.15,185.84L246.81,185.83L251.14,187.61L255.47,185.78L259.8,187.54L268.46,184.92L272.79,185.56L277.12,184.44L281.45,184.21L285.78,185.11L290.11,184.27L294.44,186L298.77,185.8L303.1,188.57L307.43,189.22L320.42,190.76L324.75,189.16L329.08,189.14L333.41,190.19L337.74,189.14L342.07,189.41L350.73,187.9L355.06,188.97L359.39,189.27L363.72,187.85L368.05,186.7L372.38,188.45L376.71,187.83L381.04,188.29L385.37,188.43L389.7,186.89L394.03,186.2L398.36,183.09L402.69,182.91L407.02,183.76L411.35,183.42L415.68,185.25L420.01,184.13L424.34,184.1L428.67,184.69L433,183.01L433,200.97L428.67,202.04L420.01,204.92L415.68,205.61L411.35,203.27L407.02,203.26L394.03,199.64L389.7,199.78L385.37,199.37L381.04,197.14L368.05,198.93L363.72,199.23L359.39,198.95L355.06,199.44L350.73,198.71L346.4,199.91L337.74,200.92L333.41,199.7L320.42,200.32L316.09,201.74L311.76,202.23L307.43,201.83L303.1,200.98L298.77,201.2L294.44,199.93L290.11,200.87L285.78,201.32L281.45,200.23L272.79,198.86L268.46,200.03L264.13,200.86L259.8,199.27L255.47,198.97L251.14,199.7L246.81,200.19L242.48,198.89L233.82,200.35L229.49,199.59L220.83,200.38L216.5,199L212.17,197.89L207.84,198.6L203.51,199.03L199.18,198.54L186.19,201.88L181.86,201.67L168.87,202.52L164.54,201.74L151.55,205.11L147.22,203.69L142.89,204.66L138.56,204.5L129.9,202.51L125.57,199.41L112.58,182.28L108.25,175.75L99.59,164.78L95.26,160.65L90.93,151.07L86.6,145.26L77.94,133.84L73.61,127.05L47.63,89.84L43.3,84.67L12.99,48.59L8.66,43.03L4.33,38.08L0,29.01Z" style="fill: rgb(233, 246, 157); fill-opacity: 1; stroke-width: 0;"/></g></g><g class="errorbars"/><g class="lines"><path class="js-line" d="M0,28.59L4.33,36.02L8.66,39.16L17.32,45.52L21.65,50.35L25.98,56.15L30.31,59.61L43.3,75.05L47.63,80.49L60.62,98.6L64.95,103.71L69.28,108.95L73.61,115.42L82.27,127.44L86.6,134.1L95.26,144.33L99.59,149.73L108.25,162.62L112.58,167.06L121.24,179.78L125.57,184.15L129.9,189.89L134.23,196.91L138.56,199.34L142.89,199.05L147.22,199.23L151.55,198.18L155.88,199.32L160.21,197.4L164.54,195.61L168.87,195.15L173.2,193.98L177.53,194.5L181.86,194.83L186.19,193.65L190.52,192.46L194.85,192.44L199.18,193.66L203.51,193.9L207.84,193.4L212.17,192.11L216.5,191.48L220.83,189.5L225.16,189.89L229.49,187.91L233.82,187.82L238.15,185.84L246.81,185.83L251.14,187.61L255.47,185.78L259.8,187.54L268.46,184.92L272.79,185.56L277.12,184.44L281.45,184.21L285.78,185.11L290.11,184.27L294.44,186L298.77,185.8L303.1,188.57L307.43,189.22L320.42,190.76L324.75,189.16L329.08,189.14L333.41,190.19L337.74,189.14L342.07,189.41L350.73,187.9L355.06,188.97L359.39,189.27L363.72,187.85L368.05,186.7L372.38,188.45L376.71,187.83L381.04,188.29L385.37,188.43L389.7,186.89L394.03,186.2L398.36,183.09L402.69,182.91L407.02,183.76L411.35,183.42L415.68,185.25L420.01,184.13L424.34,184.1L428.67,184.69L433,183.01L433,200.97L428.67,202.04L420.01,204.92L415.68,205.61L411.35,203.27L407.02,203.26L394.03,199.64L389.7,199.78L385.37,199.37L381.04,197.14L368.05,198.93L363.72,199.23L359.39,198.95L355.06,199.44L350.73,198.71L346.4,199.91L337.74,200.92L333.41,199.7L320.42,200.32L316.09,201.74L311.76,202.23L307.43,201.83L303.1,200.98L298.77,201.2L294.44,199.93L290.11,200.87L285.78,201.32L281.45,200.23L272.79,198.86L268.46,200.03L264.13,200.86L259.8,199.27L255.47,198.97L251.14,199.7L246.81,200.19L242.48,198.89L233.82,200.35L229.49,199.59L220.83,200.38L216.5,199L212.17,197.89L207.84,198.6L203.51,199.03L199.18,198.54L186.19,201.88L181.86,201.67L168.87,202.52L164.54,201.74L151.55,205.11L147.22,203.69L142.89,204.66L138.56,204.5L129.9,202.51L125.57,199.41L112.58,182.28L108.25,175.75L99.59,164.78L95.26,160.65L90.93,151.07L86.6,145.26L77.94,133.84L73.61,127.05L47.63,89.84L43.3,84.67L12.99,48.59L8.66,43.03L4.33,38.08L0,29.01" style="vector-effect: none; fill: none; stroke: rgb(0, 0, 0); stroke-opacity: 0; stroke-width: 2px; opacity: 1;"/></g><g class="points"/><g class="text"/></g><g class="trace scatter tracefdccf9" style="stroke-miterlimit: 2; opacity: 1;"><g class="fills"/><g class="errorbars"/><g class="lines"><path class="js-line" d="M0,31.92L4.33,40.17L8.66,44.92L17.32,54.82L21.65,58.82L34.64,74.83L38.97,80.38L51.96,97.35L56.29,103.06L69.28,120.14L73.61,126.4L86.6,145.8L90.93,152.73L99.59,164.83L103.92,169.18L112.58,181.75L116.91,187.01L121.24,193.79L125.57,197.64L134.23,201.3L138.56,201.67L142.89,202.69L147.22,201.19L151.55,200.37L155.88,201L173.2,200.83L177.53,200.21L199.18,198.29L203.51,198.3L207.84,199.41L212.17,198.25L225.16,198.47L229.49,196.93L259.8,196.01L264.13,195.44L272.79,195.85L277.12,196.67L294.44,194.74L298.77,194.79L329.08,194.44L333.41,195.14L346.4,196.32L350.73,195.79L355.06,196.99L359.39,197.08L376.71,196.91L381.04,197.34L385.37,196.85L389.7,197.13L394.03,196.27L398.36,196.92L402.69,195.7L407.02,196.23L411.35,197.01L415.68,196.83L424.34,197.96L428.67,197.29L433,197.87" style="vector-effect: none; fill: none; stroke: rgb(255, 255, 191); stroke-opacity: 1; stroke-width: 2px; opacity: 1;"/></g><g class="points"/><g class="text"/></g><g class="trace scatter tracea6018f" style="stroke-miterlimit: 2; opacity: 0.3;"><g class="fills"><g><path class="js-fill" d="M0,31.52L4.33,39.52L8.66,43.55L12.99,49.21L17.32,52.79L21.65,56.39L25.98,61L30.31,65.02L34.64,71.39L47.63,86.14L51.96,91.56L60.62,101.92L64.95,107.27L73.61,120.31L77.94,125.76L86.6,138.69L90.93,146.53L99.59,157.6L103.92,162.46L116.91,181.04L121.24,187.76L125.57,192.69L129.9,195.86L138.56,199.28L142.89,199.07L151.55,196.48L155.88,197.55L160.21,197.79L164.54,196.42L168.87,197.68L173.2,197.97L190.52,196.19L194.85,196.43L203.51,195.1L207.84,196.27L212.17,194.45L216.5,194.96L220.83,194.21L225.16,195.25L229.49,192.57L233.82,191.85L238.15,191.08L242.48,191.49L246.81,191.32L251.14,192.1L264.13,191.19L268.46,191.61L272.79,193.06L277.12,193.57L285.78,192.21L290.11,190.6L298.77,189.96L303.1,189.24L316.09,188.98L320.42,190.42L324.75,189.09L329.08,190.36L337.74,191.24L342.07,192.36L346.4,192.46L350.73,191.69L368.05,191.18L372.38,190.3L381.04,192.28L385.37,191.35L394.03,191.52L398.36,193.19L402.69,190.53L407.02,191.36L411.35,192.68L415.68,192.01L433,194.72L433,201.02L428.67,200.93L424.34,202.5L420.01,202.62L415.68,201.64L398.36,200.65L394.03,201.01L389.7,202.75L385.37,202.35L376.71,202.41L372.38,203.27L363.72,202.29L359.39,202.79L355.06,202.43L350.73,199.89L346.4,200.17L342.07,198.93L337.74,200.31L333.41,199.77L329.08,198.53L324.75,199.72L320.42,199.39L316.09,199.85L307.43,199.59L303.1,200.23L294.44,199.07L290.11,199.78L285.78,198.97L281.45,199.08L277.12,199.78L272.79,198.65L264.13,199.69L259.8,200.06L242.48,202.49L238.15,202.37L229.49,201.3L225.16,201.68L220.83,202.68L216.5,201.75L207.84,202.56L203.51,201.5L199.18,200.67L194.85,200.87L186.19,202.02L181.86,202.53L164.54,204.44L160.21,204.14L147.22,204.72L142.89,206.3L138.56,204.06L134.23,204.67L129.9,203.15L125.57,202.58L121.24,199.82L116.91,192.99L112.58,189.33L108.25,182.93L103.92,175.9L99.59,172.07L90.93,158.93L86.6,152.91L82.27,145.31L77.94,139.33L69.28,126.08L64.95,120.43L60.62,115.33L56.29,108.89L38.97,84.68L34.64,78.27L21.65,61.24L17.32,56.85L8.66,46.3L4.33,40.81L0,32.32Z" style="fill: rgb(255, 255, 191); fill-opacity: 1; stroke-width: 0;"/></g></g><g class="errorbars"/><g class="lines"><path class="js-line" d="M0,31.52L4.33,39.52L8.66,43.55L12.99,49.21L17.32,52.79L21.65,56.39L25.98,61L30.31,65.02L34.64,71.39L47.63,86.14L51.96,91.56L60.62,101.92L64.95,107.27L73.61,120.31L77.94,125.76L86.6,138.69L90.93,146.53L99.59,157.6L103.92,162.46L116.91,181.04L121.24,187.76L125.57,192.69L129.9,195.86L138.56,199.28L142.89,199.07L151.55,196.48L155.88,197.55L160.21,197.79L164.54,196.42L168.87,197.68L173.2,197.97L190.52,196.19L194.85,196.43L203.51,195.1L207.84,196.27L212.17,194.45L216.5,194.96L220.83,194.21L225.16,195.25L229.49,192.57L233.82,191.85L238.15,191.08L242.48,191.49L246.81,191.32L251.14,192.1L264.13,191.19L268.46,191.61L272.79,193.06L277.12,193.57L285.78,192.21L290.11,190.6L298.77,189.96L303.1,189.24L316.09,188.98L320.42,190.42L324.75,189.09L329.08,190.36L337.74,191.24L342.07,192.36L346.4,192.46L350.73,191.69L368.05,191.18L372.38,190.3L381.04,192.28L385.37,191.35L394.03,191.52L398.36,193.19L402.69,190.53L407.02,191.36L411.35,192.68L415.68,192.01L433,194.72L433,201.02L428.67,200.93L424.34,202.5L420.01,202.62L415.68,201.64L398.36,200.65L394.03,201.01L389.7,202.75L385.37,202.35L376.71,202.41L372.38,203.27L363.72,202.29L359.39,202.79L355.06,202.43L350.73,199.89L346.4,200.17L342.07,198.93L337.74,200.31L333.41,199.77L329.08,198.53L324.75,199.72L320.42,199.39L316.09,199.85L307.43,199.59L303.1,200.23L294.44,199.07L290.11,199.78L285.78,198.97L281.45,199.08L277.12,199.78L272.79,198.65L264.13,199.69L259.8,200.06L242.48,202.49L238.15,202.37L229.49,201.3L225.16,201.68L220.83,202.68L216.5,201.75L207.84,202.56L203.51,201.5L199.18,200.67L194.85,200.87L186.19,202.02L181.86,202.53L164.54,204.44L160.21,204.14L147.22,204.72L142.89,206.3L138.56,204.06L134.23,204.67L129.9,203.15L125.57,202.58L121.24,199.82L116.91,192.99L112.58,189.33L108.25,182.93L103.92,175.9L99.59,172.07L90.93,158.93L86.6,152.91L82.27,145.31L77.94,139.33L69.28,126.08L64.95,120.43L60.62,115.33L56.29,108.89L38.97,84.68L34.64,78.27L21.65,61.24L17.32,56.85L8.66,46.3L4.33,40.81L0,32.32" style="vector-effect: none; fill: none; stroke: rgb(0, 0, 0); stroke-opacity: 0; stroke-width: 2px; opacity: 1;"/></g><g class="points"/><g class="text"/></g><g class="trace scatter trace331790" style="stroke-miterlimit: 2; opacity: 1;"><g class="fills"/><g class="errorbars"/><g class="lines"><path class="js-line" d="M0,35.13L4.33,42.6L8.66,47.67L17.32,57.02L21.65,62.45L30.31,72.47L34.64,78.48L43.3,90.33L47.63,96.11L56.29,107.86L60.62,114.85L77.94,140.35L82.27,144.87L90.93,157.21L95.26,162.8L112.58,184.77L116.91,191.41L121.24,195.51L125.57,197.7L129.9,200.31L134.23,201.51L142.89,201.47L147.22,201.55L151.55,199.89L155.88,199.9L160.21,199.37L164.54,200.25L173.2,199.33L177.53,199.54L190.52,197.71L194.85,197.53L199.18,197.36L203.51,198.03L216.5,196.81L220.83,196.76L225.16,196.5L229.49,197.58L238.15,196.38L242.48,197.13L251.14,196.11L255.47,196.97L259.8,196.31L264.13,196.44L281.45,196.65L285.78,197.04L290.11,197.71L294.44,197.57L303.1,198.61L307.43,198.21L316.09,198.97L320.42,198.42L337.74,198.27L342.07,198.8L359.39,198.65L363.72,198.96L381.04,198.69L385.37,197.7L398.36,197.1L402.69,197.46L433,196.21" style="vector-effect: none; fill: none; stroke: rgb(254, 228, 146); stroke-opacity: 1; stroke-width: 2px; opacity: 1;"/></g><g class="points"/><g class="text"/></g><g class="trace scatter trace453184" style="stroke-miterlimit: 2; opacity: 0.3;"><g class="fills"><g><path class="js-fill" d="M0,34.63L4.33,41.48L8.66,45.83L12.99,49.03L17.32,53.56L34.64,73.08L38.97,78.95L56.29,100.64L60.62,107.38L69.28,118.53L73.61,124.5L77.94,130.73L82.27,135.07L86.6,142.18L90.93,147.71L108.25,168.49L112.58,175.37L116.91,183.65L121.24,188.59L125.57,191.33L129.9,195.55L134.23,198.06L138.56,198.67L147.22,198.18L151.55,195.74L155.88,195.76L160.21,194.84L164.54,196.18L168.87,195.88L190.52,192.64L194.85,192.2L199.18,192.48L203.51,193.52L212.17,192.41L216.5,192.21L225.16,192.26L229.49,193.3L238.15,192.13L242.48,193.05L246.81,192.01L251.14,192.8L255.47,193.43L259.8,193.03L264.13,193.53L268.46,192.38L294.44,193.48L298.77,194.39L316.09,195.61L320.42,195.01L329.08,195.38L333.41,196.48L342.07,195.95L346.4,195.66L350.73,196.59L355.06,195.43L363.72,195.77L368.05,194.89L372.38,195.91L376.71,195.68L381.04,194.32L385.37,193.9L389.7,194.02L394.03,194.98L398.36,193.47L402.69,193.57L407.02,192.64L411.35,192.63L415.68,193.48L420.01,192.43L424.34,192.03L428.67,192.85L433,192.71L433,199.71L415.68,199.95L411.35,201.11L407.02,201.88L402.69,201.35L394.03,200.76L389.7,200.8L385.37,201.5L381.04,203.06L376.71,202.34L372.38,203.08L359.39,201.94L355.06,201.46L350.73,200.99L346.4,201.58L342.07,201.64L337.74,200.7L329.08,201.78L324.75,201.33L311.76,202.51L307.43,201.38L303.1,202.55L298.77,202.51L294.44,201.67L290.11,202.34L285.78,200.81L281.45,200.47L272.79,200.71L268.46,200.23L264.13,199.35L259.8,199.59L255.47,200.5L251.14,199.41L242.48,201.2L238.15,200.63L229.49,201.86L225.16,200.75L216.5,201.41L212.17,201.88L190.52,202.77L186.19,203.29L181.86,203.57L177.53,204.78L173.2,203.56L168.87,203.58L164.54,204.31L160.21,203.9L147.22,204.92L142.89,204.29L134.23,204.95L129.9,205.06L121.24,202.43L116.91,199.17L99.59,178.13L95.26,172.64L73.61,142.8L69.28,135.23L64.95,129.53L60.62,122.32L51.96,108.66L47.63,102.43L25.98,71.25L21.65,66.48L8.66,49.51L4.33,43.73L0,35.63Z" style="fill: rgb(254, 228, 146); fill-opacity: 1; stroke-width: 0;"/></g></g><g class="errorbars"/><g class="lines"><path class="js-line" d="M0,34.63L4.33,41.48L8.66,45.83L12.99,49.03L17.32,53.56L34.64,73.08L38.97,78.95L56.29,100.64L60.62,107.38L69.28,118.53L73.61,124.5L77.94,130.73L82.27,135.07L86.6,142.18L90.93,147.71L108.25,168.49L112.58,175.37L116.91,183.65L121.24,188.59L125.57,191.33L129.9,195.55L134.23,198.06L138.56,198.67L147.22,198.18L151.55,195.74L155.88,195.76L160.21,194.84L164.54,196.18L168.87,195.88L190.52,192.64L194.85,192.2L199.18,192.48L203.51,193.52L212.17,192.41L216.5,192.21L225.16,192.26L229.49,193.3L238.15,192.13L242.48,193.05L246.81,192.01L251.14,192.8L255.47,193.43L259.8,193.03L264.13,193.53L268.46,192.38L294.44,193.48L298.77,194.39L316.09,195.61L320.42,195.01L329.08,195.38L333.41,196.48L342.07,195.95L346.4,195.66L350.73,196.59L355.06,195.43L363.72,195.77L368.05,194.89L372.38,195.91L376.71,195.68L381.04,194.32L385.37,193.9L389.7,194.02L394.03,194.98L398.36,193.47L402.69,193.57L407.02,192.64L411.35,192.63L415.68,193.48L420.01,192.43L424.34,192.03L428.67,192.85L433,192.71L433,199.71L415.68,199.95L411.35,201.11L407.02,201.88L402.69,201.35L394.03,200.76L389.7,200.8L385.37,201.5L381.04,203.06L376.71,202.34L372.38,203.08L359.39,201.94L355.06,201.46L350.73,200.99L346.4,201.58L342.07,201.64L337.74,200.7L329.08,201.78L324.75,201.33L311.76,202.51L307.43,201.38L303.1,202.55L298.77,202.51L294.44,201.67L290.11,202.34L285.78,200.81L281.45,200.47L272.79,200.71L268.46,200.23L264.13,199.35L259.8,199.59L255.47,200.5L251.14,199.41L242.48,201.2L238.15,200.63L229.49,201.86L225.16,200.75L216.5,201.41L212.17,201.88L190.52,202.77L186.19,203.29L181.86,203.57L177.53,204.78L173.2,203.56L168.87,203.58L164.54,204.31L160.21,203.9L147.22,204.92L142.89,204.29L134.23,204.95L129.9,205.06L121.24,202.43L116.91,199.17L99.59,178.13L95.26,172.64L73.61,142.8L69.28,135.23L64.95,129.53L60.62,122.32L51.96,108.66L47.63,102.43L25.98,71.25L21.65,66.48L8.66,49.51L4.33,43.73L0,35.63" style="vector-effect: none; fill: none; stroke: rgb(0, 0, 0); stroke-opacity: 0; stroke-width: 2px; opacity: 1;"/></g><g class="points"/><g class="text"/></g><g class="trace scatter trace56d64f" style="stroke-miterlimit: 2; opacity: 1;"><g class="fills"/><g class="errorbars"/><g class="lines"><path class="js-line" d="M0,35.35L4.33,44.14L8.66,48.79L17.32,58.62L21.65,63.92L30.31,73.81L34.64,79.08L73.61,133.16L77.94,139.5L116.91,194.17L121.24,197.22L129.9,200.08L134.23,200.26L142.89,200.45L147.22,199.75L151.55,200.4L155.88,199.59L168.87,199.11L173.2,199.02L181.86,198.74L186.19,198.5L199.18,197.26L203.51,197.39L242.48,196.99L246.81,197.18L264.13,198.41L268.46,198.57L272.79,199.09L277.12,198.17L290.11,198.89L294.44,198.56L311.76,197.22L316.09,197.28L324.75,197.76L329.08,197.9L337.74,198.04L342.07,198.54L350.73,198.25L355.06,196.73L372.38,198.52L376.71,198.53L398.36,197.9L402.69,197.74L411.35,197.45L415.68,196.72L424.34,196.99L428.67,196.5L433,196.91" style="vector-effect: none; fill: none; stroke: rgb(254, 191, 111); stroke-opacity: 1; stroke-width: 2px; opacity: 1;"/></g><g class="points"/><g class="text"/></g><g class="trace scatter trace0834b4" style="stroke-miterlimit: 2; opacity: 0.3;"><g class="fills"><g><path class="js-fill" d="M0,35.35L4.33,43.44L8.66,47.21L21.65,61.76L25.98,65.72L38.97,81.74L43.3,87.81L47.63,92.23L51.96,98.06L64.95,115.81L69.28,121.67L73.61,127.22L77.94,134.21L103.92,168.39L108.25,175.15L121.24,192.27L125.57,195.81L129.9,198.08L134.23,198.81L142.89,198.73L147.22,197.84L160.21,196.69L164.54,197.4L173.2,196.94L177.53,196.95L203.51,195.18L207.84,196L216.5,194.95L220.83,195.4L225.16,194.83L229.49,195.23L233.82,194.56L238.15,195.04L259.8,195.4L264.13,196.57L268.46,196.41L272.79,197.67L277.12,194.88L281.45,195.39L290.11,197.18L294.44,196.6L316.09,194.06L320.42,194.53L329.08,194.87L333.41,194.81L342.07,196.18L346.4,195.55L350.73,196.35L355.06,193.69L363.72,195.03L368.05,196.29L372.38,196.66L376.71,195.78L385.37,194.9L389.7,195.81L394.03,196.19L398.36,195.81L407.02,195.43L411.35,195.64L415.68,194.55L420.01,194.96L424.34,194.65L428.67,193.58L433,193.79L433,200.02L424.34,199.34L420.01,199.51L415.68,198.9L411.35,199.27L407.02,200.39L402.69,200.11L394.03,200.06L389.7,200.63L376.71,201.29L372.38,200.38L359.39,200.37L355.06,199.76L342.07,200.9L337.74,200.39L320.42,201.06L316.09,200.49L311.76,199.69L307.43,199.73L285.78,200.55L281.45,201.58L277.12,201.45L272.79,200.51L264.13,200.25L259.8,199.95L233.82,199.15L229.49,199.26L225.16,198.65L220.83,199.36L212.17,199.72L207.84,198.61L203.51,199.59L199.18,199.22L177.53,201.51L173.2,201.11L164.54,201.52L160.21,202.6L155.88,202.06L151.55,203.33L147.22,201.67L142.89,202.16L125.57,201.78L121.24,202.18L116.91,200.86L112.58,197.36L90.93,165.45L86.6,158.36L77.94,144.79L73.61,139.1L43.3,93.57L38.97,88.37L25.98,71.37L21.65,66.07L12.99,54.57L8.66,50.36L4.33,44.85L0,35.35Z" style="fill: rgb(254, 191, 111); fill-opacity: 1; stroke-width: 0;"/></g></g><g class="errorbars"/><g class="lines"><path class="js-line" d="M0,35.35L4.33,43.44L8.66,47.21L21.65,61.76L25.98,65.72L38.97,81.74L43.3,87.81L47.63,92.23L51.96,98.06L64.95,115.81L69.28,121.67L73.61,127.22L77.94,134.21L103.92,168.39L108.25,175.15L121.24,192.27L125.57,195.81L129.9,198.08L134.23,198.81L142.89,198.73L147.22,197.84L160.21,196.69L164.54,197.4L173.2,196.94L177.53,196.95L203.51,195.18L207.84,196L216.5,194.95L220.83,195.4L225.16,194.83L229.49,195.23L233.82,194.56L238.15,195.04L259.8,195.4L264.13,196.57L268.46,196.41L272.79,197.67L277.12,194.88L281.45,195.39L290.11,197.18L294.44,196.6L316.09,194.06L320.42,194.53L329.08,194.87L333.41,194.81L342.07,196.18L346.4,195.55L350.73,196.35L355.06,193.69L363.72,195.03L368.05,196.29L372.38,196.66L376.71,195.78L385.37,194.9L389.7,195.81L394.03,196.19L398.36,195.81L407.02,195.43L411.35,195.64L415.68,194.55L420.01,194.96L424.34,194.65L428.67,193.58L433,193.79L433,200.02L424.34,199.34L420.01,199.51L415.68,198.9L411.35,199.27L407.02,200.39L402.69,200.11L394.03,200.06L389.7,200.63L376.71,201.29L372.38,200.38L359.39,200.37L355.06,199.76L342.07,200.9L337.74,200.39L320.42,201.06L316.09,200.49L311.76,199.69L307.43,199.73L285.78,200.55L281.45,201.58L277.12,201.45L272.79,200.51L264.13,200.25L259.8,199.95L233.82,199.15L229.49,199.26L225.16,198.65L220.83,199.36L212.17,199.72L207.84,198.61L203.51,199.59L199.18,199.22L177.53,201.51L173.2,201.11L164.54,201.52L160.21,202.6L155.88,202.06L151.55,203.33L147.22,201.67L142.89,202.16L125.57,201.78L121.24,202.18L116.91,200.86L112.58,197.36L90.93,165.45L86.6,158.36L77.94,144.79L73.61,139.1L43.3,93.57L38.97,88.37L25.98,71.37L21.65,66.07L12.99,54.57L8.66,50.36L4.33,44.85L0,35.35" style="vector-effect: none; fill: none; stroke: rgb(0, 0, 0); stroke-opacity: 0; stroke-width: 2px; opacity: 1;"/></g><g class="points"/><g class="text"/></g><g class="trace scatter trace126a5d" style="stroke-miterlimit: 2; opacity: 1;"><g class="fills"/><g class="errorbars"/><g class="lines"><path class="js-line" d="M0,38.5L4.33,46.46L8.66,51.23L34.64,83.55L38.97,89.57L60.62,119.56L64.95,126.59L86.6,157.61L90.93,164.8L103.92,183.03L108.25,188.38L112.58,192.9L116.91,195.87L121.24,197.96L125.57,199.06L142.89,199.17L147.22,198.72L160.21,198.33L164.54,199.39L168.87,199.42L173.2,198.45L177.53,199.19L181.86,198.98L199.18,197.4L203.51,197.44L220.83,196.43L225.16,197.36L264.13,196.99L268.46,197.69L281.45,196.92L285.78,197.2L303.1,196.61L307.43,196.57L311.76,195.77L316.09,196.75L346.4,197.38L350.73,196.83L372.38,195.43L376.71,195.78L381.04,196.33L385.37,195.97L394.03,196.66L398.36,195.84L411.35,197.12L415.68,196.69L428.67,196.26L433,196.23" style="vector-effect: none; fill: none; stroke: rgb(250, 145, 83); stroke-opacity: 1; stroke-width: 2px; opacity: 1;"/></g><g class="points"/><g class="text"/></g><g class="trace scatter trace76c37c" style="stroke-miterlimit: 2; opacity: 0.3;"><g class="fills"><g><path class="js-fill" d="M0,38.13L4.33,45.56L8.66,50.13L25.98,70.43L30.31,75.97L47.63,98.09L51.96,103.13L56.29,108.55L60.62,115.7L73.61,135.63L77.94,140.56L112.58,189L116.91,194.19L121.24,196.61L125.57,197.75L142.89,197.52L147.22,197.27L151.55,196.34L155.88,196.41L160.21,195.98L164.54,197.39L168.87,197.59L173.2,196.73L177.53,197.7L181.86,197.29L186.19,196.28L190.52,196.26L194.85,194.86L199.18,195.56L212.17,194.36L216.5,195.19L220.83,194.54L225.16,195.79L233.82,194.72L238.15,195.79L251.14,193.97L255.47,194.94L277.12,195.2L281.45,194.15L285.78,194.72L290.11,194.13L307.43,192.85L311.76,191.92L316.09,194.04L320.42,193.55L346.4,194.77L350.73,194.23L359.39,193.55L363.72,193.44L368.05,192.29L372.38,193.05L381.04,194.04L385.37,193.01L389.7,192.94L394.03,194.14L398.36,192.85L402.69,193.82L415.68,193.7L420.01,193.52L424.34,192.98L428.67,193.75L433,194.41L433,198.04L424.34,198.88L420.01,199.19L411.35,199.97L407.02,199.86L402.69,198.84L398.36,198.83L389.7,199.35L385.37,198.94L372.38,197.81L368.05,198.49L355.06,199.39L350.73,199.43L346.4,199.98L342.07,199.73L329.08,200.85L324.75,200.92L316.09,199.46L311.76,199.62L307.43,200.29L303.1,199.97L281.45,199.7L277.12,199.6L268.46,199.82L264.13,199.06L238.15,199.09L233.82,200.12L229.49,198.98L225.16,198.94L220.83,198.33L216.5,199.08L207.84,199.66L203.51,199.66L199.18,199.23L194.85,200.07L173.2,200.18L168.87,201.25L164.54,201.39L160.21,200.69L155.88,200.13L151.55,200.69L147.22,200.17L142.89,200.82L134.23,199.77L129.9,200.53L125.57,200.37L121.24,199.3L116.91,197.54L112.58,196.8L108.25,193.79L103.92,189.34L90.93,170.6L86.6,162.04L82.27,155.49L77.94,150.53L73.61,144.32L69.28,136.52L64.95,130.79L60.62,123.42L47.63,104.23L43.3,98.49L34.64,85.51L30.31,80.61L21.65,68.83L17.32,63.35L4.33,47.35L0,38.87Z" style="fill: rgb(250, 145, 83); fill-opacity: 1; stroke-width: 0;"/></g></g><g class="errorbars"/><g class="lines"><path class="js-line" d="M0,38.13L4.33,45.56L8.66,50.13L25.98,70.43L30.31,75.97L47.63,98.09L51.96,103.13L56.29,108.55L60.62,115.7L73.61,135.63L77.94,140.56L112.58,189L116.91,194.19L121.24,196.61L125.57,197.75L142.89,197.52L147.22,197.27L151.55,196.34L155.88,196.41L160.21,195.98L164.54,197.39L168.87,197.59L173.2,196.73L177.53,197.7L181.86,197.29L186.19,196.28L190.52,196.26L194.85,194.86L199.18,195.56L212.17,194.36L216.5,195.19L220.83,194.54L225.16,195.79L233.82,194.72L238.15,195.79L251.14,193.97L255.47,194.94L277.12,195.2L281.45,194.15L285.78,194.72L290.11,194.13L307.43,192.85L311.76,191.92L316.09,194.04L320.42,193.55L346.4,194.77L350.73,194.23L359.39,193.55L363.72,193.44L368.05,192.29L372.38,193.05L381.04,194.04L385.37,193.01L389.7,192.94L394.03,194.14L398.36,192.85L402.69,193.82L415.68,193.7L420.01,193.52L424.34,192.98L428.67,193.75L433,194.41L433,198.04L424.34,198.88L420.01,199.19L411.35,199.97L407.02,199.86L402.69,198.84L398.36,198.83L389.7,199.35L385.37,198.94L372.38,197.81L368.05,198.49L355.06,199.39L350.73,199.43L346.4,199.98L342.07,199.73L329.08,200.85L324.75,200.92L316.09,199.46L311.76,199.62L307.43,200.29L303.1,199.97L281.45,199.7L277.12,199.6L268.46,199.82L264.13,199.06L238.15,199.09L233.82,200.12L229.49,198.98L225.16,198.94L220.83,198.33L216.5,199.08L207.84,199.66L203.51,199.66L199.18,199.23L194.85,200.07L173.2,200.18L168.87,201.25L164.54,201.39L160.21,200.69L155.88,200.13L151.55,200.69L147.22,200.17L142.89,200.82L134.23,199.77L129.9,200.53L125.57,200.37L121.24,199.3L116.91,197.54L112.58,196.8L108.25,193.79L103.92,189.34L90.93,170.6L86.6,162.04L82.27,155.49L77.94,150.53L73.61,144.32L69.28,136.52L64.95,130.79L60.62,123.42L47.63,104.23L43.3,98.49L34.64,85.51L30.31,80.61L21.65,68.83L17.32,63.35L4.33,47.35L0,38.87" style="vector-effect: none; fill: none; stroke: rgb(0, 0, 0); stroke-opacity: 0; stroke-width: 2px; opacity: 1;"/></g><g class="points"/><g class="text"/></g><g class="trace scatter trace2d0cca" style="stroke-miterlimit: 2; opacity: 1;"><g class="fills"/><g class="errorbars"/><g class="lines"><path class="js-line" d="M0,41.7L4.33,48.78L8.66,53.34L43.3,96.06L47.63,102.19L56.29,114.98L60.62,120.76L69.28,133.21L73.61,140.31L90.93,164.66L95.26,171.32L103.92,183.73L108.25,189.21L112.58,193.43L116.91,195.95L125.57,197.8L129.9,197.54L164.54,197.48L168.87,196.83L177.53,196.29L181.86,195.92L194.85,196.7L199.18,196.4L216.5,197.19L220.83,196.39L233.82,196.99L238.15,196.74L272.79,196.48L277.12,196.21L281.45,196.57L285.78,196.1L307.43,196.39L311.76,195.9L316.09,196.59L320.42,196.07L342.07,195.59L346.4,195.41L368.05,195.5L372.38,195.1L381.04,195.49L385.37,195.64L398.36,195.53L402.69,196.56L411.35,195.72L415.68,195.99L433,197.21" style="vector-effect: none; fill: none; stroke: rgb(233, 94, 72); stroke-opacity: 1; stroke-width: 2px; opacity: 1;"/></g><g class="points"/><g class="text"/></g><g class="trace scatter trace97bb80" style="stroke-miterlimit: 2; opacity: 0.3;"><g class="fills"><g><path class="js-fill" d="M0,41.39L4.33,48.06L8.66,51.82L17.32,61.39L21.65,66.31L43.3,92.95L47.63,99.36L56.29,111.56L60.62,116.92L77.94,141.03L82.27,147.86L90.93,159.22L95.26,166.93L112.58,190.47L116.91,195.02L129.9,196.45L134.23,196.34L138.56,196.57L142.89,196.01L151.55,196.05L155.88,195.74L160.21,196.49L164.54,196.04L168.87,195.21L173.2,195.2L181.86,194.23L186.19,194.29L194.85,194.94L199.18,194.76L216.5,195.93L220.83,195.13L225.16,194.83L229.49,195.37L233.82,195.56L238.15,194.83L251.14,194.96L255.47,194.42L259.8,193.83L264.13,194.45L277.12,194.02L281.45,194.32L290.11,193.89L294.44,194.04L298.77,194.9L303.1,194.72L337.74,193.94L342.07,193.54L355.06,193.37L359.39,192.84L368.05,193.77L372.38,193.09L376.71,193.64L381.04,192.95L385.37,193.21L389.7,194.37L398.36,193.79L402.69,194.74L411.35,194.35L415.68,194.3L420.01,194.1L424.34,195.57L428.67,194.81L433,195.63L433,198.8L428.67,198.61L415.68,197.69L411.35,197.1L402.69,198.37L398.36,197.27L394.03,197.78L389.7,197.16L385.37,198.07L381.04,198.02L368.05,197.22L363.72,197.7L350.73,197.5L346.4,197.25L337.74,197.86L333.41,197.65L329.08,197.13L324.75,197.87L316.09,198.35L311.76,197.38L303.1,198.8L298.77,198.64L294.44,198.13L290.11,198.55L277.12,198.41L272.79,198.97L264.13,199.45L259.8,198.86L229.49,197.74L225.16,198.72L220.83,197.66L216.5,198.45L203.51,198.27L199.18,198.04L190.52,198.88L186.19,198.01L181.86,197.61L177.53,198.03L164.54,198.92L160.21,199.24L155.88,199.57L151.55,198.44L142.89,199.21L138.56,198.61L125.57,199.19L121.24,198.25L116.91,196.88L112.58,196.39L108.25,192.93L103.92,188.21L99.59,183.05L95.26,175.7L82.27,158.06L77.94,151.32L73.61,145.06L69.28,136.98L56.29,118.39L51.96,112.4L47.63,105.02L43.3,99.17L12.99,60.93L8.66,54.85L4.33,49.49L0,42Z" style="fill: rgb(233, 94, 72); fill-opacity: 1; stroke-width: 0;"/></g></g><g class="errorbars"/><g class="lines"><path class="js-line" d="M0,41.39L4.33,48.06L8.66,51.82L17.32,61.39L21.65,66.31L43.3,92.95L47.63,99.36L56.29,111.56L60.62,116.92L77.94,141.03L82.27,147.86L90.93,159.22L95.26,166.93L112.58,190.47L116.91,195.02L129.9,196.45L134.23,196.34L138.56,196.57L142.89,196.01L151.55,196.05L155.88,195.74L160.21,196.49L164.54,196.04L168.87,195.21L173.2,195.2L181.86,194.23L186.19,194.29L194.85,194.94L199.18,194.76L216.5,195.93L220.83,195.13L225.16,194.83L229.49,195.37L233.82,195.56L238.15,194.83L251.14,194.96L255.47,194.42L259.8,193.83L264.13,194.45L277.12,194.02L281.45,194.32L290.11,193.89L294.44,194.04L298.77,194.9L303.1,194.72L337.74,193.94L342.07,193.54L355.06,193.37L359.39,192.84L368.05,193.77L372.38,193.09L376.71,193.64L381.04,192.95L385.37,193.21L389.7,194.37L398.36,193.79L402.69,194.74L411.35,194.35L415.68,194.3L420.01,194.1L424.34,195.57L428.67,194.81L433,195.63L433,198.8L428.67,198.61L415.68,197.69L411.35,197.1L402.69,198.37L398.36,197.27L394.03,197.78L389.7,197.16L385.37,198.07L381.04,198.02L368.05,197.22L363.72,197.7L350.73,197.5L346.4,197.25L337.74,197.86L333.41,197.65L329.08,197.13L324.75,197.87L316.09,198.35L311.76,197.38L303.1,198.8L298.77,198.64L294.44,198.13L290.11,198.55L277.12,198.41L272.79,198.97L264.13,199.45L259.8,198.86L229.49,197.74L225.16,198.72L220.83,197.66L216.5,198.45L203.51,198.27L199.18,198.04L190.52,198.88L186.19,198.01L181.86,197.61L177.53,198.03L164.54,198.92L160.21,199.24L155.88,199.57L151.55,198.44L142.89,199.21L138.56,198.61L125.57,199.19L121.24,198.25L116.91,196.88L112.58,196.39L108.25,192.93L103.92,188.21L99.59,183.05L95.26,175.7L82.27,158.06L77.94,151.32L73.61,145.06L69.28,136.98L56.29,118.39L51.96,112.4L47.63,105.02L43.3,99.17L12.99,60.93L8.66,54.85L4.33,49.49L0,42" style="vector-effect: none; fill: none; stroke: rgb(0, 0, 0); stroke-opacity: 0; stroke-width: 2px; opacity: 1;"/></g><g class="points"/><g class="text"/></g></g></g></g><g class="zerolinelayer-above"/><path class="xlines-above crisp" d="M0,0" style="fill: none;"/><path class="ylines-above crisp" d="M0,0" style="fill: none;"/><g class="overlines-above"/><g class="xaxislayer-above"><g class="xtick"><text text-anchor="middle" x="0" y="333" transform="translate(80,0)" style="font-family: 'Open Sans', verdana, arial, sans-serif; font-size: 12px; fill: rgb(42, 63, 95); fill-opacity: 1; white-space: pre;">0</text></g><g class="xtick"><text text-anchor="middle" x="0" y="333" style="font-family: 'Open Sans', verdana, arial, sans-serif; font-size: 12px; fill: rgb(42, 63, 95); fill-opacity: 1; white-space: pre;" transform="translate(166.6,0)">1M</text></g><g class="xtick"><text text-anchor="middle" x="0" y="333" style="font-family: 'Open Sans', verdana, arial, sans-serif; font-size: 12px; fill: rgb(42, 63, 95); fill-opacity: 1; white-space: pre;" transform="translate(253.2,0)">2M</text></g><g class="xtick"><text text-anchor="middle" x="0" y="333" style="font-family: 'Open Sans', verdana, arial, sans-serif; font-size: 12px; fill: rgb(42, 63, 95); fill-opacity: 1; white-space: pre;" transform="translate(339.8,0)">3M</text></g><g class="xtick"><text text-anchor="middle" x="0" y="333" style="font-family: 'Open Sans', verdana, arial, sans-serif; font-size: 12px; fill: rgb(42, 63, 95); fill-opacity: 1; white-space: pre;" transform="translate(426.4,0)">4M</text></g><g class="xtick"><text text-anchor="middle" x="0" y="333" style="font-family: 'Open Sans', verdana, arial, sans-serif; font-size: 12px; fill: rgb(42, 63, 95); fill-opacity: 1; white-space: pre;" transform="translate(513,0)">5M</text></g></g><g class="yaxislayer-above"><g class="ytick"><text text-anchor="end" x="79" y="4.199999999999999" transform="translate(0,310.69)" style="font-family: 'Open Sans', verdana, arial, sans-serif; font-size: 12px; fill: rgb(42, 63, 95); fill-opacity: 1; white-space: pre;">100</text></g><g class="ytick"><text text-anchor="end" x="79" y="4.199999999999999" style="font-family: 'Open Sans', verdana, arial, sans-serif; font-size: 12px; fill: rgb(42, 63, 95); fill-opacity: 1; white-space: pre;" transform="translate(0,276.58000000000004)">200</text></g><g class="ytick"><text text-anchor="end" x="79" y="4.199999999999999" style="font-family: 'Open Sans', verdana, arial, sans-serif; font-size: 12px; fill: rgb(42, 63, 95); fill-opacity: 1; white-space: pre;" transform="translate(0,242.47)">300</text></g><g class="ytick"><text text-anchor="end" x="79" y="4.199999999999999" style="font-family: 'Open Sans', verdana, arial, sans-serif; font-size: 12px; fill: rgb(42, 63, 95); fill-opacity: 1; white-space: pre;" transform="translate(0,208.36)">400</text></g><g class="ytick"><text text-anchor="end" x="79" y="4.199999999999999" style="font-family: 'Open Sans', verdana, arial, sans-serif; font-size: 12px; fill: rgb(42, 63, 95); fill-opacity: 1; white-space: pre;" transform="translate(0,174.25)">500</text></g><g class="ytick"><text text-anchor="end" x="79" y="4.199999999999999" style="font-family: 'Open Sans', verdana, arial, sans-serif; font-size: 12px; fill: rgb(42, 63, 95); fill-opacity: 1; white-space: pre;" transform="translate(0,140.14)">600</text></g><g class="ytick"><text text-anchor="end" x="79" y="4.199999999999999" style="font-family: 'Open Sans', verdana, arial, sans-serif; font-size: 12px; fill: rgb(42, 63, 95); fill-opacity: 1; white-space: pre;" transform="translate(0,106.04)">700</text></g></g><g class="overaxes-above"/></g></g><g class="polarlayer"/><g class="smithlayer"/><g class="ternarylayer"/><g class="geolayer"/><g class="funnelarealayer"/><g class="pielayer"/><g class="iciclelayer"/><g class="treemaplayer"/><g class="sunburstlayer"/><g class="glimages"/><defs id="topdefs-9dc05f"><g class="clips"/><clipPath id="legend9dc05f"><rect width="66" height="219" x="0" y="0"/></clipPath></defs><g class="layer-above"><g class="imagelayer"/><g class="shapelayer"/></g><g class="infolayer"><g class="legend" pointer-events="all" transform="translate(521.6600000000001,100)"><rect class="bg" shape-rendering="crispEdges" style="stroke: rgb(68, 68, 68); stroke-opacity: 1; fill: rgb(255, 255, 255); fill-opacity: 1; stroke-width: 0px;" width="66" height="219" x="0" y="0"/><g class="scrollbox" transform="" clip-path="url(#legend9dc05f)"><g class="groups"><g class="traces" transform="translate(0,14.5)" style="opacity: 1;"><text class="legendtext" text-anchor="start" x="40" y="4.680000000000001" style="font-family: 'Open Sans', verdana, arial, sans-serif; font-size: 12px; fill: rgb(42, 63, 95); fill-opacity: 1; white-space: pre;">5</text><g class="layers" style="opacity: 1;"><g class="legendfill"/><g class="legendlines"><path class="js-line" d="M5,0h30" style="fill: none; stroke: rgb(85, 99, 170); stroke-opacity: 1; stroke-width: 2px;"/></g><g class="legendsymbols"><g class="legendpoints"/></g></g><rect class="legendtoggle" x="0" y="-9.5" width="60.72265625" height="19" style="fill: rgb(0, 0, 0); fill-opacity: 0;"/></g><g class="traces" transform="translate(0,33.5)" style="opacity: 1;"><text class="legendtext" text-anchor="start" x="40" y="4.680000000000001" style="font-family: 'Open Sans', verdana, arial, sans-serif; font-size: 12px; fill: rgb(42, 63, 95); fill-opacity: 1; white-space: pre;">12</text><g class="layers" style="opacity: 1;"><g class="legendfill"/><g class="legendlines"><path class="js-line" d="M5,0h30" style="fill: none; stroke: rgb(64, 125, 183); stroke-opacity: 1; stroke-width: 2px;"/></g><g class="legendsymbols"><g class="legendpoints"/></g></g><rect class="legendtoggle" x="0" y="-9.5" width="60.72265625" height="19" style="fill: rgb(0, 0, 0); fill-opacity: 0;"/></g><g class="traces" transform="translate(0,52.5)" style="opacity: 1;"><text class="legendtext" text-anchor="start" x="40" y="4.680000000000001" style="font-family: 'Open Sans', verdana, arial, sans-serif; font-size: 12px; fill: rgb(42, 63, 95); fill-opacity: 1; white-space: pre;">25</text><g class="layers" style="opacity: 1;"><g class="legendfill"/><g class="legendlines"><path class="js-line" d="M5,0h30" style="fill: none; stroke: rgb(87, 175, 174); stroke-opacity: 1; stroke-width: 2px;"/></g><g class="legendsymbols"><g class="legendpoints"/></g></g><rect class="legendtoggle" x="0" y="-9.5" width="60.72265625" height="19" style="fill: rgb(0, 0, 0); fill-opacity: 0;"/></g><g class="traces" transform="translate(0,71.5)" style="opacity: 1;"><text class="legendtext" text-anchor="start" x="40" y="4.680000000000001" style="font-family: 'Open Sans', verdana, arial, sans-serif; font-size: 12px; fill: rgb(42, 63, 95); fill-opacity: 1; white-space: pre;">38</text><g class="layers" style="opacity: 1;"><g class="legendfill"/><g class="legendlines"><path class="js-line" d="M5,0h30" style="fill: none; stroke: rgb(142, 208, 165); stroke-opacity: 1; stroke-width: 2px;"/></g><g class="legendsymbols"><g class="legendpoints"/></g></g><rect class="legendtoggle" x="0" y="-9.5" width="60.72265625" height="19" style="fill: rgb(0, 0, 0); fill-opacity: 0;"/></g><g class="traces" transform="translate(0,90.5)" style="opacity: 1;"><text class="legendtext" text-anchor="start" x="40" y="4.680000000000001" style="font-family: 'Open Sans', verdana, arial, sans-serif; font-size: 12px; fill: rgb(42, 63, 95); fill-opacity: 1; white-space: pre;">50</text><g class="layers" style="opacity: 1;"><g class="legendfill"/><g class="legendlines"><path class="js-line" d="M5,0h30" style="fill: none; stroke: rgb(192, 229, 161); stroke-opacity: 1; stroke-width: 2px;"/></g><g class="legendsymbols"><g class="legendpoints"/></g></g><rect class="legendtoggle" x="0" y="-9.5" width="60.72265625" height="19" style="fill: rgb(0, 0, 0); fill-opacity: 0;"/></g><g class="traces" transform="translate(0,109.5)" style="opacity: 1;"><text class="legendtext" text-anchor="start" x="40" y="4.680000000000001" style="font-family: 'Open Sans', verdana, arial, sans-serif; font-size: 12px; fill: rgb(42, 63, 95); fill-opacity: 1; white-space: pre;">62</text><g class="layers" style="opacity: 1;"><g class="legendfill"/><g class="legendlines"><path class="js-line" d="M5,0h30" style="fill: none; stroke: rgb(233, 246, 157); stroke-opacity: 1; stroke-width: 2px;"/></g><g class="legendsymbols"><g class="legendpoints"/></g></g><rect class="legendtoggle" x="0" y="-9.5" width="60.72265625" height="19" style="fill: rgb(0, 0, 0); fill-opacity: 0;"/></g><g class="traces" transform="translate(0,128.5)" style="opacity: 1;"><text class="legendtext" text-anchor="start" x="40" y="4.680000000000001" style="font-family: 'Open Sans', verdana, arial, sans-serif; font-size: 12px; fill: rgb(42, 63, 95); fill-opacity: 1; white-space: pre;">75</text><g class="layers" style="opacity: 1;"><g class="legendfill"/><g class="legendlines"><path class="js-line" d="M5,0h30" style="fill: none; stroke: rgb(255, 255, 191); stroke-opacity: 1; stroke-width: 2px;"/></g><g class="legendsymbols"><g class="legendpoints"/></g></g><rect class="legendtoggle" x="0" y="-9.5" width="60.72265625" height="19" style="fill: rgb(0, 0, 0); fill-opacity: 0;"/></g><g class="traces" transform="translate(0,147.5)" style="opacity: 1;"><text class="legendtext" text-anchor="start" x="40" y="4.680000000000001" style="font-family: 'Open Sans', verdana, arial, sans-serif; font-size: 12px; fill: rgb(42, 63, 95); fill-opacity: 1; white-space: pre;">88</text><g class="layers" style="opacity: 1;"><g class="legendfill"/><g class="legendlines"><path class="js-line" d="M5,0h30" style="fill: none; stroke: rgb(254, 228, 146); stroke-opacity: 1; stroke-width: 2px;"/></g><g class="legendsymbols"><g class="legendpoints"/></g></g><rect class="legendtoggle" x="0" y="-9.5" width="60.72265625" height="19" style="fill: rgb(0, 0, 0); fill-opacity: 0;"/></g><g class="traces" transform="translate(0,166.5)" style="opacity: 1;"><text class="legendtext" text-anchor="start" x="40" y="4.680000000000001" style="font-family: 'Open Sans', verdana, arial, sans-serif; font-size: 12px; fill: rgb(42, 63, 95); fill-opacity: 1; white-space: pre;">100</text><g class="layers" style="opacity: 1;"><g class="legendfill"/><g class="legendlines"><path class="js-line" d="M5,0h30" style="fill: none; stroke: rgb(254, 191, 111); stroke-opacity: 1; stroke-width: 2px;"/></g><g class="legendsymbols"><g class="legendpoints"/></g></g><rect class="legendtoggle" x="0" y="-9.5" width="60.72265625" height="19" style="fill: rgb(0, 0, 0); fill-opacity: 0;"/></g><g class="traces" transform="translate(0,185.5)" style="opacity: 1;"><text class="legendtext" text-anchor="start" x="40" y="4.680000000000001" style="font-family: 'Open Sans', verdana, arial, sans-serif; font-size: 12px; fill: rgb(42, 63, 95); fill-opacity: 1; white-space: pre;">112</text><g class="layers" style="opacity: 1;"><g class="legendfill"/><g class="legendlines"><path class="js-line" d="M5,0h30" style="fill: none; stroke: rgb(250, 145, 83); stroke-opacity: 1; stroke-width: 2px;"/></g><g class="legendsymbols"><g class="legendpoints"/></g></g><rect class="legendtoggle" x="0" y="-9.5" width="60.72265625" height="19" style="fill: rgb(0, 0, 0); fill-opacity: 0;"/></g><g class="traces" transform="translate(0,204.5)" style="opacity: 1;"><text class="legendtext" text-anchor="start" x="40" y="4.680000000000001" style="font-family: 'Open Sans', verdana, arial, sans-serif; font-size: 12px; fill: rgb(42, 63, 95); fill-opacity: 1; white-space: pre;">125</text><g class="layers" style="opacity: 1;"><g class="legendfill"/><g class="legendlines"><path class="js-line" d="M5,0h30" style="fill: none; stroke: rgb(233, 94, 72); stroke-opacity: 1; stroke-width: 2px;"/></g><g class="legendsymbols"><g class="legendpoints"/></g></g><rect class="legendtoggle" x="0" y="-9.5" width="60.72265625" height="19" style="fill: rgb(0, 0, 0); fill-opacity: 0;"/></g></g></g><rect class="scrollbar" rx="20" ry="3" width="0" height="0" style="fill: rgb(128, 139, 164); fill-opacity: 1;" x="0" y="0"/></g><g class="g-gtitle"/><g class="g-xtitle"><text class="xtitle" x="296.5" y="361.3" text-anchor="middle" style="opacity: 1; font-family: 'Open Sans', verdana, arial, sans-serif; font-size: 14px; fill: rgb(42, 63, 95); fill-opacity: 1; white-space: pre;">time</text></g><g class="g-ytitle"><text class="ytitle" transform="rotate(-90,39.00625,210)" x="39.00625" y="210" text-anchor="middle" style="opacity: 1; font-family: 'Open Sans', verdana, arial, sans-serif; font-size: 14px; fill: rgb(42, 63, 95); fill-opacity: 1; white-space: pre;">distance to peak</text></g></g></svg>