<svg class="main-svg" xmlns="http://www.w3.org/2000/svg" xmlns:xlink="http://www.w3.org/1999/xlink" width="600" height="400" style="" viewBox="0 0 600 400"><rect x="0" y="0" width="600" height="400" style="fill: rgb(255, 255, 255); fill-opacity: 1;"/><defs id="defs-77f920"><g class="clips"><clipPath id="clip77f920xyplot" class="plotclip"><rect width="433" height="220"/></clipPath><clipPath class="axesclip" id="clip77f920x"><rect x="80" y="0" width="433" height="400"/></clipPath><clipPath class="axesclip" id="clip77f920y"><rect x="0" y="100" width="600" height="220"/></clipPath><clipPath class="axesclip" id="clip77f920xy"><rect x="80" y="100" width="433" height="220"/></clipPath></g><g class="gradients"/><g class="patterns"/></defs><g class="bglayer"/><g class="layer-below"><g class="imagelayer"/><g class="shapelayer"/></g><g class="cartesianlayer"><g class="subplot xy"><g class="layer-subplot"><g class="shapelayer"/><g class="imagelayer"/></g><g class="minor-gridlayer"><g class="x"/><g class="y"/></g><g class="gridlayer"><g class="x"><path class="xgrid crisp" transform="translate(166.6,0)" d="M0,100v220" style="stroke: rgb(235, 240, 248); stroke-opacity: 1; stroke-width: 1px;"/><path class="xgrid crisp" transform="translate(253.2,0)" d="M0,100v220" style="stroke: rgb(235, 240, 248); stroke-opacity: 1; stroke-width: 1px;"/><path class="xgrid crisp" transform="translate(339.8,0)" d="M0,100v220" style="stroke: rgb(235, 240, 248); stroke-opacity: 1; stroke-width: 1px;"/><path class="xgrid crisp" transform="translate(426.4,0)" d="M0,100v220" style="stroke: rgb(235, 240, 248); stroke-opacity: 1; stroke-width: 1px;"/></g><g class="y"><path class="ygrid crisp" transform="translate(0,283.33000000000004)" d="M80,0h433" style="stroke: rgb(235, 240, 248); stroke-opacity: 1; stroke-width: 1px;"/><path class="ygrid crisp" transform="translate(0,246.67)" d="M80,0h433" style="stroke: rgb(235, 240, 248); stroke-opacity: 1; stroke-width: 1px;"/><path class="ygrid crisp" transform="translate(0,210)" d="M80,0h433" style="stroke: rgb(235, 240, 248); stroke-opacity: 1; stroke-width: 1px;"/><path class="ygrid crisp" transform="translate(0,173.32999999999998)" d="M80,0h433" style="stroke: rgb(235, 240, 248); stroke-opacity: 1; stroke-width: 1px;"/><path class="ygrid crisp" transform="translate(0,136.67000000000002)" d="M80,0h433" style="stroke: rgb(235, 240, 248); stroke-opacity: 1; stroke-width: 1px;"/></g></g><g class="zerolinelayer"><path class="xzl zl crisp" transform="translate(80,0)" d="M0,100v220" style="stroke: rgb(235, 240, 248); stroke-opacity: 1; stroke-width: 2px;"/></g><g class="layer-between"><g class="shapelayer"/><g class="imagelayer"/></g><path class="xlines-below"/><path class="ylines-below"/><g class="overlines-below"/><g class="xaxislayer-below"/><g class="yaxislayer-below"/><g class="overaxes-below"/><g class="overplot"><g class="xy" transform="translate(80,100)" clip-path="url(#clip77f920xyplot)"><g class="scatterlayer mlayer"><g class="trace scatter tracec105ab" style="stroke-miterlimit: 2; opacity: 1;"><g class="fills"/><g class="errorbars"/><g class="lines"><path class="js-line" d="M0,6.11L4.33,16.15L8.66,19.34L12.99,25.17L17.32,29.72L21.65,36.77L25.98,40.56L34.64,51.33L38.97,59.25L43.3,68.63L47.63,74.09L51.96,75.11L56.29,82.19L60.62,83.31L64.95,89.87L69.28,89.85L73.61,92.7L77.94,93.64L82.27,95.61L86.6,98.89L90.93,103.75L95.26,106.67L99.59,105.03L103.92,107.94L108.25,113.46L112.58,105.85L116.91,111.46L121.24,104.02L125.57,109.83L129.9,111.37L134.23,115.22L138.56,114.62L142.89,115.15L147.22,114.65L151.55,108.97L155.88,110.56L160.21,111.2L164.54,111.68L168.87,103.49L173.2,101.25L177.53,96.43L181.86,97.66L186.19,95.41L190.52,97.55L194.85,97.7L199.18,105.47L203.51,106.1L207.84,110.04L212.17,109.59L216.5,106.21L220.83,105.66L225.16,108.6L229.49,105.64L233.82,103.94L238.15,106.54L242.48,105.56L246.81,112.62L251.14,113.3L255.47,111.68L259.8,114.25L264.13,117.86L268.46,119.93L272.79,121.1L277.12,120.43L281.45,124.49L285.78,121.85L290.11,118.01L294.44,114.38L298.77,108.12L303.1,104.63L307.43,103.18L311.76,106.95L316.09,108.14L324.75,108.81L329.08,106.02L337.74,117.05L342.07,120.29L346.4,122.19L350.73,116.26L355.06,107.7L359.39,113.8L363.72,113.27L368.05,116.02L376.71,115.13L381.04,109.02L385.37,108.43L389.7,105.69L394.03,107.16L398.36,109.8L402.69,113.02L407.02,117.35L415.68,110.02L420.01,109.39L424.34,104.7L428.67,109.74L433,114.13" style="vector-effect: none; fill: none; stroke: rgb(231, 248, 191); stroke-opacity: 1; stroke-width: 2px; opacity: 1;"/></g><g class="points"/><g class="text"/></g><g class="trace scatter trace5b20d6" style="stroke-miterlimit: 2; opacity: 0.3;"><g class="fills"><g><path class="js-fill" d="M0,5.34L4.33,10.94L8.66,13.56L12.99,16.2L17.32,19.87L21.65,26.95L25.98,27.71L38.97,40.51L43.3,49.26L47.63,59.46L51.96,59.76L56.29,61.21L60.62,59.24L69.28,63.04L73.61,60.38L77.94,61.86L82.27,69.18L86.6,70.37L90.93,79.27L99.59,80.39L103.92,84.49L112.58,87.73L116.91,95.64L121.24,87.67L125.57,90.67L129.9,89.84L134.23,81.96L138.56,86.76L142.89,82.39L147.22,85.41L151.55,77.77L155.88,81.32L160.21,77.42L164.54,75.58L168.87,71.66L173.2,73.17L177.53,78.55L181.86,77.9L186.19,79.68L194.85,63.11L199.18,70.76L207.84,88.67L212.17,88.41L220.83,76.97L225.16,83.54L229.49,87.88L233.82,79.01L238.15,82.1L242.48,79.61L246.81,78.07L251.14,79.43L255.47,77.22L259.8,81.71L264.13,96.67L268.46,97.64L272.79,103.46L277.12,101.53L281.45,100.04L285.78,91.84L290.11,93.54L294.44,87.84L298.77,84.68L303.1,83.16L307.43,86.64L311.76,84.33L316.09,86.42L320.42,91.44L324.75,90.9L329.08,94.18L333.41,98.69L337.74,99.54L342.07,101.29L346.4,105.19L350.73,105.54L355.06,90.99L359.39,92.99L363.72,87.15L368.05,89.62L372.38,93.49L376.71,84.03L381.04,78.01L385.37,74.7L389.7,76.09L394.03,77.27L398.36,76.99L402.69,80.78L407.02,83.43L411.35,82.59L415.68,78.65L420.01,77.63L424.34,80.61L428.67,76.94L433,83.98L433,144.28L428.67,142.53L424.34,128.78L420.01,141.15L415.68,141.39L411.35,145.12L407.02,151.27L402.69,145.26L398.36,142.61L394.03,137.05L389.7,135.28L385.37,142.17L381.04,140.02L376.71,146.23L372.38,137.9L368.05,142.41L363.72,139.39L359.39,134.61L355.06,124.4L350.73,126.97L346.4,139.19L342.07,139.29L337.74,134.56L333.41,124.12L329.08,117.86L324.75,126.71L320.42,125.9L316.09,129.85L311.76,129.56L307.43,119.73L298.77,131.56L294.44,140.92L290.11,142.49L285.78,151.86L281.45,148.94L277.12,139.32L272.79,138.75L268.46,142.23L264.13,139.05L259.8,146.79L255.47,146.14L251.14,147.16L246.81,147.16L242.48,131.52L238.15,130.98L233.82,128.87L229.49,123.4L225.16,133.65L220.83,134.36L216.5,129.74L203.51,132.13L199.18,140.18L190.52,123.62L186.19,111.14L181.86,117.41L177.53,114.3L173.2,129.33L168.87,135.32L164.54,147.78L160.21,144.99L155.88,139.8L151.55,140.16L142.89,147.91L138.56,142.48L134.23,148.49L129.9,132.9L125.57,128.99L121.24,120.36L116.91,127.29L112.58,123.96L108.25,140.91L103.92,131.4L99.59,129.66L95.26,133.15L90.93,128.24L86.6,127.41L82.27,122.05L77.94,125.42L73.61,125.03L69.28,116.66L64.95,118.62L60.62,107.38L56.29,103.18L51.96,90.45L47.63,88.73L43.3,88.01L34.64,66.47L30.31,59.77L12.99,34.13L8.66,25.12L4.33,21.37L0,6.89Z" style="fill: rgb(231, 248, 191); fill-opacity: 1; stroke-width: 0;"/></g></g><g class="errorbars"/><g class="lines"><path class="js-line" d="M0,5.34L4.33,10.94L8.66,13.56L12.99,16.2L17.32,19.87L21.65,26.95L25.98,27.71L38.97,40.51L43.3,49.26L47.63,59.46L51.96,59.76L56.29,61.21L60.62,59.24L69.28,63.04L73.61,60.38L77.94,61.86L82.27,69.18L86.6,70.37L90.93,79.27L99.59,80.39L103.92,84.49L112.58,87.73L116.91,95.64L121.24,87.67L125.57,90.67L129.9,89.84L134.23,81.96L138.56,86.76L142.89,82.39L147.22,85.41L151.55,77.77L155.88,81.32L160.21,77.42L164.54,75.58L168.87,71.66L173.2,73.17L177.53,78.55L181.86,77.9L186.19,79.68L194.85,63.11L199.18,70.76L207.84,88.67L212.17,88.41L220.83,76.97L225.16,83.54L229.49,87.88L233.82,79.01L238.15,82.1L242.48,79.61L246.81,78.07L251.14,79.43L255.47,77.22L259.8,81.71L264.13,96.67L268.46,97.64L272.79,103.46L277.12,101.53L281.45,100.04L285.78,91.84L290.11,93.54L294.44,87.84L298.77,84.68L303.1,83.16L307.43,86.64L311.76,84.33L316.09,86.42L320.42,91.44L324.75,90.9L329.08,94.18L333.41,98.69L337.74,99.54L342.07,101.29L346.4,105.19L350.73,105.54L355.06,90.99L359.39,92.99L363.72,87.15L368.05,89.62L372.38,93.49L376.71,84.03L381.04,78.01L385.37,74.7L389.7,76.09L394.03,77.27L398.36,76.99L402.69,80.78L407.02,83.43L411.35,82.59L415.68,78.65L420.01,77.63L424.34,80.61L428.67,76.94L433,83.98L433,144.28L428.67,142.53L424.34,128.78L420.01,141.15L415.68,141.39L411.35,145.12L407.02,151.27L402.69,145.26L398.36,142.61L394.03,137.05L389.7,135.28L385.37,142.17L381.04,140.02L376.71,146.23L372.38,137.9L368.05,142.41L363.72,139.39L359.39,134.61L355.06,124.4L350.73,126.97L346.4,139.19L342.07,139.29L337.74,134.56L333.41,124.12L329.08,117.86L324.75,126.71L320.42,125.9L316.09,129.85L311.76,129.56L307.43,119.73L298.77,131.56L294.44,140.92L290.11,142.49L285.78,151.86L281.45,148.94L277.12,139.32L272.79,138.75L268.46,142.23L264.13,139.05L259.8,146.79L255.47,146.14L251.14,147.16L246.81,147.16L242.48,131.52L238.15,130.98L233.82,128.87L229.49,123.4L225.16,133.65L220.83,134.36L216.5,129.74L203.51,132.13L199.18,140.18L190.52,123.62L186.19,111.14L181.86,117.41L177.53,114.3L173.2,129.33L168.87,135.32L164.54,147.78L160.21,144.99L155.88,139.8L151.55,140.16L142.89,147.91L138.56,142.48L134.23,148.49L129.9,132.9L125.57,128.99L121.24,120.36L116.91,127.29L112.58,123.96L108.25,140.91L103.92,131.4L99.59,129.66L95.26,133.15L90.93,128.24L86.6,127.41L82.27,122.05L77.94,125.42L73.61,125.03L69.28,116.66L64.95,118.62L60.62,107.38L56.29,103.18L51.96,90.45L47.63,88.73L43.3,88.01L34.64,66.47L30.31,59.77L12.99,34.13L8.66,25.12L4.33,21.37L0,6.89" style="vector-effect: none; fill: none; stroke: rgb(0, 0, 0); stroke-opacity: 0; stroke-width: 2px; opacity: 1;"/></g><g class="points"/><g class="text"/></g><g class="trace scatter tracef81204" style="stroke-miterlimit: 2; opacity: 1;"><g class="fills"/><g class="errorbars"/><g class="lines"><path class="js-line" d="M0,10.04L4.33,18.6L8.66,22.37L17.32,29.97L21.65,32.19L30.31,40.05L34.64,43.2L38.97,45.93L43.3,51.25L47.63,56.66L51.96,64.25L56.29,67.05L60.62,72.51L64.95,78.1L69.28,81.24L73.61,83.05L77.94,89.26L82.27,95.5L86.6,99.28L90.93,104.76L95.26,111.66L103.92,125.34L108.25,126.98L112.58,136.43L116.91,141.96L125.57,153.64L129.9,154.78L134.23,154.03L138.56,156.27L142.89,153.67L147.22,155.48L151.55,156.4L155.88,159.38L160.21,162.2L164.54,158.67L168.87,152.78L173.2,154.37L177.53,154.69L181.86,153.24L186.19,153.24L190.52,155.16L199.18,153.03L203.51,148.25L207.84,146.93L212.17,144.52L216.5,138.7L220.83,137.49L229.49,134.76L233.82,132.84L238.15,133.28L242.48,131.89L246.81,128.66L251.14,132.75L255.47,136.84L259.8,133.74L272.79,133.61L277.12,126.3L281.45,124.95L285.78,124.54L290.11,120.85L294.44,120.74L298.77,118.07L303.1,117.57L307.43,118.62L311.76,126.43L316.09,128.37L320.42,132.6L324.75,130.32L329.08,129.26L333.41,128.06L337.74,129L342.07,128.46L346.4,127L355.06,130.59L359.39,136.27L363.72,140.47L368.05,141.49L372.38,138.06L376.71,142.18L381.04,142.86L385.37,142.37L389.7,141.74L394.03,140.24L398.36,134.21L402.69,137.64L407.02,138.56L411.35,141.47L415.68,136.85L420.01,138.98L424.34,138.83L428.67,139.8L433,137.58" style="vector-effect: none; fill: none; stroke: rgb(186, 227, 175); stroke-opacity: 1; stroke-width: 2px; opacity: 1;"/></g><g class="points"/><g class="text"/></g><g class="trace scatter trace095512" style="stroke-miterlimit: 2; opacity: 0.3;"><g class="fills"><g><path class="js-fill" d="M0,9.14L4.33,15.73L8.66,17.83L12.99,19.96L17.32,23.65L21.65,25.23L25.98,29.56L34.64,34.28L38.97,35.59L47.63,44.11L51.96,51.01L56.29,53.85L60.62,59.82L69.28,66.88L73.61,68.34L77.94,74.32L82.27,78.98L86.6,82.34L90.93,87.72L95.26,91.54L99.59,99.05L103.92,107.65L108.25,108L112.58,116.27L116.91,120.59L125.57,129.9L129.9,131.65L134.23,135.03L138.56,141.21L142.89,136.25L147.22,141.09L151.55,139.12L155.88,141.7L160.21,144.28L164.54,141.89L168.87,137.85L173.2,139.32L177.53,132.88L181.86,131.7L186.19,127.71L190.52,129.02L194.85,132.32L199.18,134.05L203.51,130.29L207.84,129.41L212.17,129.68L216.5,123.39L225.16,125.18L229.49,117.92L233.82,114.28L238.15,114.83L242.48,113.8L246.81,109.52L251.14,110.25L255.47,117.89L259.8,114.62L264.13,115.85L268.46,113.93L272.79,108.37L281.45,106.34L285.78,106.99L290.11,105.88L294.44,103.15L298.77,96.93L303.1,99.36L311.76,111.91L316.09,113.49L320.42,116.07L324.75,115.55L329.08,112.59L333.41,108.14L337.74,105.02L342.07,104.12L346.4,108.39L350.73,105.31L355.06,107.73L359.39,118.94L363.72,120.75L368.05,119.77L372.38,118.34L376.71,119.97L381.04,112.33L385.37,114.34L389.7,115.55L394.03,111.4L398.36,109.26L402.69,106.18L407.02,109.21L411.35,110.98L415.68,113.81L420.01,121.36L428.67,120L433,119.96L433,155.2L428.67,159.6L424.34,157.14L420.01,156.61L415.68,159.88L411.35,171.96L407.02,167.92L402.69,169.11L398.36,159.16L394.03,169.07L389.7,167.93L385.37,170.41L381.04,173.38L376.71,164.39L372.38,157.78L368.05,163.21L363.72,160.2L359.39,153.6L355.06,153.45L350.73,152.07L346.4,145.62L342.07,152.79L337.74,152.98L333.41,147.97L329.08,145.93L324.75,145.09L320.42,149.12L316.09,143.25L311.76,140.96L307.43,131.09L303.1,135.78L298.77,139.2L294.44,138.32L290.11,135.83L285.78,142.09L281.45,143.56L277.12,145.05L272.79,158.86L268.46,154.12L264.13,151.79L259.8,152.86L255.47,155.78L251.14,155.25L246.81,147.8L238.15,151.74L233.82,151.41L229.49,151.6L225.16,147.43L216.5,154.02L212.17,159.37L207.84,164.45L203.51,166.2L199.18,172.01L194.85,175.34L190.52,181.3L186.19,178.77L181.86,174.78L177.53,176.5L173.2,169.43L168.87,167.72L164.54,175.46L160.21,180.11L151.55,173.68L147.22,169.88L142.89,171.1L138.56,171.34L134.23,173.04L129.9,177.91L125.57,177.37L121.24,170.38L112.58,156.59L108.25,145.96L103.92,143.03L99.59,139.08L95.26,131.77L90.93,121.79L86.6,116.23L82.27,112.02L73.61,97.77L69.28,95.6L64.95,92.69L60.62,85.2L56.29,80.24L51.96,77.5L47.63,69.22L43.3,62.67L38.97,56.26L34.64,52.13L21.65,39.16L17.32,36.29L12.99,33.29L8.66,26.9L4.33,21.47L0,10.94Z" style="fill: rgb(186, 227, 175); fill-opacity: 1; stroke-width: 0;"/></g></g><g class="errorbars"/><g class="lines"><path class="js-line" d="M0,9.14L4.33,15.73L8.66,17.83L12.99,19.96L17.32,23.65L21.65,25.23L25.98,29.56L34.64,34.28L38.97,35.59L47.63,44.11L51.96,51.01L56.29,53.85L60.62,59.82L69.28,66.88L73.61,68.34L77.94,74.32L82.27,78.98L86.6,82.34L90.93,87.72L95.26,91.54L99.59,99.05L103.92,107.65L108.25,108L112.58,116.27L116.91,120.59L125.57,129.9L129.9,131.65L134.23,135.03L138.56,141.21L142.89,136.25L147.22,141.09L151.55,139.12L155.88,141.7L160.21,144.28L164.54,141.89L168.87,137.85L173.2,139.32L177.53,132.88L181.86,131.7L186.19,127.71L190.52,129.02L194.85,132.32L199.18,134.05L203.51,130.29L207.84,129.41L212.17,129.68L216.5,123.39L225.16,125.18L229.49,117.92L233.82,114.28L238.15,114.83L242.48,113.8L246.81,109.52L251.14,110.25L255.47,117.89L259.8,114.62L264.13,115.85L268.46,113.93L272.79,108.37L281.45,106.34L285.78,106.99L290.11,105.88L294.44,103.15L298.77,96.93L303.1,99.36L311.76,111.91L316.09,113.49L320.42,116.07L324.75,115.55L329.08,112.59L333.41,108.14L337.74,105.02L342.07,104.12L346.4,108.39L350.73,105.31L355.06,107.73L359.39,118.94L363.72,120.75L368.05,119.77L372.38,118.34L376.71,119.97L381.04,112.33L385.37,114.34L389.7,115.55L394.03,111.4L398.36,109.26L402.69,106.18L407.02,109.21L411.35,110.98L415.68,113.81L420.01,121.36L428.67,120L433,119.96L433,155.2L428.67,159.6L424.34,157.14L420.01,156.61L415.68,159.88L411.35,171.96L407.02,167.92L402.69,169.11L398.36,159.16L394.03,169.07L389.7,167.93L385.37,170.41L381.04,173.38L376.71,164.39L372.38,157.78L368.05,163.21L363.72,160.2L359.39,153.6L355.06,153.45L350.73,152.07L346.4,145.62L342.07,152.79L337.74,152.98L333.41,147.97L329.08,145.93L324.75,145.09L320.42,149.12L316.09,143.25L311.76,140.96L307.43,131.09L303.1,135.78L298.77,139.2L294.44,138.32L290.11,135.83L285.78,142.09L281.45,143.56L277.12,145.05L272.79,158.86L268.46,154.12L264.13,151.79L259.8,152.86L255.47,155.78L251.14,155.25L246.81,147.8L238.15,151.74L233.82,151.41L229.49,151.6L225.16,147.43L216.5,154.02L212.17,159.37L207.84,164.45L203.51,166.2L199.18,172.01L194.85,175.34L190.52,181.3L186.19,178.77L181.86,174.78L177.53,176.5L173.2,169.43L168.87,167.72L164.54,175.46L160.21,180.11L151.55,173.68L147.22,169.88L142.89,171.1L138.56,171.34L134.23,173.04L129.9,177.91L125.57,177.37L121.24,170.38L112.58,156.59L108.25,145.96L103.92,143.03L99.59,139.08L95.26,131.77L90.93,121.79L86.6,116.23L82.27,112.02L73.61,97.77L69.28,95.6L64.95,92.69L60.62,85.2L56.29,80.24L51.96,77.5L47.63,69.22L43.3,62.67L38.97,56.26L34.64,52.13L21.65,39.16L17.32,36.29L12.99,33.29L8.66,26.9L4.33,21.47L0,10.94" style="vector-effect: none; fill: none; stroke: rgb(0, 0, 0); stroke-opacity: 0; stroke-width: 2px; opacity: 1;"/></g><g class="points"/><g class="text"/></g><g class="trace scatter traceb365fd" style="stroke-miterlimit: 2; opacity: 1;"><g class="fills"/><g class="errorbars"/><g class="lines"><path class="js-line" d="M0,16.95L8.66,30.6L12.99,34.58L17.32,37.48L21.65,41.65L25.98,45.11L30.31,51.02L38.97,63.82L43.3,68.38L51.96,79.18L56.29,85.09L77.94,112.69L82.27,120.18L95.26,138.51L99.59,145.1L112.58,163.57L116.91,170.19L121.24,177.53L125.57,182.29L129.9,187.3L134.23,188.07L142.89,194.92L147.22,195.56L151.55,198.94L155.88,196.81L160.21,197.36L164.54,199.31L173.2,189.54L177.53,187.18L181.86,182.21L186.19,183.39L190.52,181.6L194.85,176.62L199.18,176.82L203.51,173.43L207.84,173.36L212.17,169.03L216.5,170.86L220.83,169.28L225.16,172.08L229.49,172.96L233.82,171.86L238.15,169.45L242.48,166.94L246.81,167.24L251.14,169.56L255.47,170.63L259.8,170.75L264.13,169.92L268.46,169.72L272.79,168.42L277.12,166.56L281.45,167.58L285.78,168.89L290.11,165.26L294.44,166.05L298.77,168.11L307.43,165.87L311.76,166.99L316.09,172.85L320.42,175.18L324.75,176.3L329.08,175.2L337.74,170.19L342.07,168.05L346.4,166.53L350.73,163.86L355.06,163.45L359.39,161.32L363.72,159.99L368.05,157.67L372.38,155.24L376.71,160.18L381.04,160.88L385.37,158.71L389.7,161.34L394.03,159.73L398.36,159.7L402.69,161.98L407.02,165.61L411.35,162.82L415.68,164.97L420.01,164.37L424.34,160.58L428.67,160.58L433,159.66" style="vector-effect: none; fill: none; stroke: rgb(99, 187, 157); stroke-opacity: 1; stroke-width: 2px; opacity: 1;"/></g><g class="points"/><g class="text"/></g><g class="trace scatter traced006ad" style="stroke-miterlimit: 2; opacity: 0.3;"><g class="fills"><g><path class="js-fill" d="M0,16.13L4.33,23.67L8.66,27.95L17.32,33.2L21.65,37.15L25.98,39.79L30.31,44.88L38.97,54.5L43.3,59.04L60.62,79.24L64.95,83.5L69.28,90.52L73.61,95.18L77.94,100.03L82.27,107.59L99.59,135.22L103.92,140.22L108.25,144.86L112.58,153.21L116.91,157.82L121.24,167.15L129.9,179.86L134.23,178.93L138.56,179.95L142.89,184.2L147.22,184.22L151.55,186.21L155.88,182.6L160.21,184.81L164.54,190.17L168.87,184.58L177.53,173.74L181.86,165.7L186.19,164.27L190.52,165.34L194.85,158.96L199.18,155.77L203.51,154.47L207.84,156.7L220.83,155.03L225.16,157.91L229.49,158.74L233.82,158.56L238.15,156.74L242.48,156.91L251.14,154.68L255.47,155.13L259.8,157.06L264.13,157.87L268.46,153.19L272.79,151.22L277.12,148.54L281.45,149.82L285.78,154.86L290.11,150.26L294.44,150.49L298.77,155.65L303.1,154.44L307.43,152.09L311.76,149.86L316.09,158.82L320.42,161.53L324.75,162.28L329.08,158.33L333.41,157.12L342.07,151.07L346.4,149.22L350.73,144.05L355.06,142.51L359.39,141.75L363.72,145.75L372.38,145.26L376.71,146.88L381.04,143.32L385.37,140.99L389.7,142.26L394.03,140.39L398.36,140.8L402.69,143.07L407.02,148.93L411.35,144.8L415.68,147.87L420.01,147.81L424.34,143.89L428.67,144.88L433,142.13L433,177.18L428.67,176.27L424.34,177.27L420.01,180.93L415.68,182.07L411.35,180.83L407.02,182.29L402.69,180.9L398.36,178.6L394.03,179.07L389.7,180.42L385.37,176.44L381.04,178.45L376.71,173.49L372.38,165.23L363.72,174.22L359.39,180.89L355.06,184.39L350.73,183.67L346.4,183.84L342.07,185.03L333.41,187.39L329.08,192.07L316.09,186.88L311.76,184.11L307.43,179.65L303.1,179.06L294.44,181.62L290.11,180.27L281.45,185.34L277.12,184.58L268.46,186.25L264.13,181.96L255.47,186.13L251.14,184.44L246.81,178.62L242.48,176.98L238.15,182.16L233.82,185.15L229.49,187.18L225.16,186.26L220.83,183.52L216.5,185.46L212.17,181.89L207.84,190.02L203.51,192.39L199.18,197.86L194.85,194.27L190.52,197.85L186.19,202.51L181.86,198.72L177.53,200.62L173.2,200.35L164.54,208.44L160.21,209.91L151.55,211.67L147.22,206.91L142.89,205.63L138.56,203.32L134.23,197.21L129.9,194.73L125.57,190.51L121.24,187.91L116.91,182.56L112.58,173.93L108.25,170.57L103.92,161.84L95.26,148.98L90.93,143.75L86.6,137.31L82.27,132.77L73.61,118.16L69.28,112.29L64.95,108.04L60.62,101.89L47.63,82.62L43.3,77.73L38.97,73.15L34.64,64.24L25.98,50.44L21.65,46.15L8.66,33.25L4.33,25.07L0,17.76Z" style="fill: rgb(99, 187, 157); fill-opacity: 1; stroke-width: 0;"/></g></g><g class="errorbars"/><g class="lines"><path class="js-line" d="M0,16.13L4.33,23.67L8.66,27.95L17.32,33.2L21.65,37.15L25.98,39.79L30.31,44.88L38.97,54.5L43.3,59.04L60.62,79.24L64.95,83.5L69.28,90.52L73.61,95.18L77.94,100.03L82.27,107.59L99.59,135.22L103.92,140.22L108.25,144.86L112.58,153.21L116.91,157.82L121.24,167.15L129.9,179.86L134.23,178.93L138.56,179.95L142.89,184.2L147.22,184.22L151.55,186.21L155.88,182.6L160.21,184.81L164.54,190.17L168.87,184.58L177.53,173.74L181.86,165.7L186.19,164.27L190.52,165.34L194.85,158.96L199.18,155.77L203.51,154.47L207.84,156.7L220.83,155.03L225.16,157.91L229.49,158.74L233.82,158.56L238.15,156.74L242.48,156.91L251.14,154.68L255.47,155.13L259.8,157.06L264.13,157.87L268.46,153.19L272.79,151.22L277.12,148.54L281.45,149.82L285.78,154.86L290.11,150.26L294.44,150.49L298.77,155.65L303.1,154.44L307.43,152.09L311.76,149.86L316.09,158.82L320.42,161.53L324.75,162.28L329.08,158.33L333.41,157.12L342.07,151.07L346.4,149.22L350.73,144.05L355.06,142.51L359.39,141.75L363.72,145.75L372.38,145.26L376.71,146.88L381.04,143.32L385.37,140.99L389.7,142.26L394.03,140.39L398.36,140.8L402.69,143.07L407.02,148.93L411.35,144.8L415.68,147.87L420.01,147.81L424.34,143.89L428.67,144.88L433,142.13L433,177.18L428.67,176.27L424.34,177.27L420.01,180.93L415.68,182.07L411.35,180.83L407.02,182.29L402.69,180.9L398.36,178.6L394.03,179.07L389.7,180.42L385.37,176.44L381.04,178.45L376.71,173.49L372.38,165.23L363.72,174.22L359.39,180.89L355.06,184.39L350.73,183.67L346.4,183.84L342.07,185.03L333.41,187.39L329.08,192.07L316.09,186.88L311.76,184.11L307.43,179.65L303.1,179.06L294.44,181.62L290.11,180.27L281.45,185.34L277.12,184.58L268.46,186.25L264.13,181.96L255.47,186.13L251.14,184.44L246.81,178.62L242.48,176.98L238.15,182.16L233.82,185.15L229.49,187.18L225.16,186.26L220.83,183.52L216.5,185.46L212.17,181.89L207.84,190.02L203.51,192.39L199.18,197.86L194.85,194.27L190.52,197.85L186.19,202.51L181.86,198.72L177.53,200.62L173.2,200.35L164.54,208.44L160.21,209.91L151.55,211.67L147.22,206.91L142.89,205.63L138.56,203.32L134.23,197.21L129.9,194.73L125.57,190.51L121.24,187.91L116.91,182.56L112.58,173.93L108.25,170.57L103.92,161.84L95.26,148.98L90.93,143.75L86.6,137.31L82.27,132.77L73.61,118.16L69.28,112.29L64.95,108.04L60.62,101.89L47.63,82.62L43.3,77.73L38.97,73.15L34.64,64.24L25.98,50.44L21.65,46.15L8.66,33.25L4.33,25.07L0,17.76" style="vector-effect: none; fill: none; stroke: rgb(0, 0, 0); stroke-opacity: 0; stroke-width: 2px; opacity: 1;"/></g><g class="points"/><g class="text"/></g><g class="trace scatter traceca5dd2" style="stroke-miterlimit: 2; opacity: 1;"><g class="fills"/><g class="errorbars"/><g class="lines"><path class="js-line" d="M0,20.49L4.33,28.22L8.66,33.45L17.32,44.24L21.65,49.15L34.64,67.04L38.97,71.39L51.96,89.09L56.29,95.56L60.62,101.17L64.95,108.43L73.61,121.6L77.94,126.96L99.59,157.29L103.92,161.92L108.25,165.49L112.58,171.91L116.91,178.36L121.24,183.17L125.57,186.95L129.9,192.29L138.56,197.76L142.89,199.79L151.55,205.9L155.88,207.01L160.21,207.55L164.54,206.33L168.87,202.12L173.2,201.95L177.53,201.71L181.86,202.75L186.19,200.94L190.52,202.06L194.85,197.2L199.18,195.25L203.51,194.57L207.84,195.06L212.17,193.09L216.5,193.75L229.49,191.53L233.82,189.6L238.15,191.43L242.48,191.61L255.47,192.86L259.8,192.28L264.13,190.29L268.46,190.21L272.79,192.77L277.12,191.82L281.45,190.49L285.78,190.69L290.11,188.41L294.44,189.92L298.77,187.58L303.1,189.42L307.43,189.51L311.76,190.74L316.09,188.99L320.42,190.98L324.75,191.75L329.08,190.25L337.74,190.39L342.07,189.5L350.73,182.13L355.06,181.74L359.39,180.97L363.72,179.38L368.05,181.28L372.38,182.13L376.71,184.15L381.04,183.25L389.7,185.84L394.03,186.1L398.36,187.39L402.69,190.23L407.02,189.26L411.35,190.58L420.01,191.13L424.34,191.71L428.67,191.24L433,189.73" style="vector-effect: none; fill: none; stroke: rgb(26, 144, 148); stroke-opacity: 1; stroke-width: 2px; opacity: 1;"/></g><g class="points"/><g class="text"/></g><g class="trace scatter trace2daf48" style="stroke-miterlimit: 2; opacity: 0.3;"><g class="fills"><g><path class="js-fill" d="M0,19.63L4.33,26.67L8.66,31.21L17.32,40.44L21.65,43.92L25.98,50.65L30.31,55.45L34.64,61.7L38.97,64.28L47.63,73.34L51.96,78.72L56.29,85.02L60.62,89.28L64.95,96.57L69.28,101.7L73.61,109.06L77.94,113.07L82.27,117.15L86.6,122.27L90.93,128.29L95.26,136.83L99.59,144.44L103.92,149.06L121.24,167.82L125.57,169.52L129.9,177.8L134.23,181.01L138.56,186.65L142.89,189.63L147.22,193.08L151.55,194.85L160.21,199.97L164.54,199.54L168.87,196.35L173.2,198L186.19,194.09L190.52,195.18L194.85,188.6L199.18,186.34L203.51,184.78L207.84,185.47L212.17,184.91L216.5,185.77L220.83,182.74L225.16,181.12L233.82,180.53L238.15,182.17L242.48,183.87L246.81,182.88L255.47,185.08L259.8,183.28L264.13,177.7L268.46,177.78L277.12,178.8L281.45,178.16L285.78,177.74L290.11,175.56L294.44,177.08L298.77,175.18L303.1,175.34L307.43,176.38L311.76,179.2L316.09,176.16L320.42,177.69L324.75,177.15L329.08,174.31L333.41,176.76L342.07,174.68L346.4,172.84L350.73,168.13L355.06,170.25L359.39,169.41L363.72,166.29L372.38,169.82L376.71,174.69L381.04,172.41L385.37,173.88L389.7,176.44L394.03,175.77L398.36,178.32L402.69,179.48L407.02,177.9L411.35,179L415.68,178.94L420.01,182.37L424.34,182.55L428.67,184.24L433,180.71L433,198.74L428.67,198.24L424.34,200.87L420.01,199.89L415.68,202.07L411.35,202.17L407.02,200.61L402.69,200.98L398.36,196.46L394.03,196.43L389.7,195.24L385.37,195.43L381.04,194.09L376.71,193.6L372.38,194.44L368.05,194.42L363.72,192.48L355.06,193.23L350.73,196.13L346.4,198.57L342.07,204.31L337.74,204.84L333.41,204.32L329.08,206.19L324.75,206.34L316.09,201.82L311.76,202.28L303.1,203.49L298.77,199.98L294.44,202.76L290.11,201.27L285.78,203.65L281.45,202.82L272.79,207.47L268.46,202.64L264.13,202.89L259.8,201.28L255.47,200.64L251.14,200.9L246.81,201.1L242.48,199.34L238.15,200.69L233.82,198.68L225.16,204.33L220.83,203.39L216.5,201.72L212.17,201.26L207.84,204.66L203.51,204.36L199.18,204.15L194.85,205.81L190.52,208.93L186.19,207.79L181.86,209.56L177.53,206.63L173.2,205.9L168.87,207.88L164.54,213.12L160.21,215.13L151.55,216.95L147.22,213.38L142.89,209.96L138.56,208.88L134.23,209.74L129.9,206.78L125.57,204.38L121.24,198.52L116.91,192.87L112.58,185.47L108.25,177.07L103.92,174.78L99.59,170.15L95.26,167.15L90.93,162.71L86.6,156.26L73.61,134.14L69.28,129.22L60.62,113.05L56.29,106.1L30.31,66.44L25.98,60.22L4.33,29.77L0,21.35Z" style="fill: rgb(26, 144, 148); fill-opacity: 1; stroke-width: 0;"/></g></g><g class="errorbars"/><g class="lines"><path class="js-line" d="M0,19.63L4.33,26.67L8.66,31.21L17.32,40.44L21.65,43.92L25.98,50.65L30.31,55.45L34.64,61.7L38.97,64.28L47.63,73.34L51.96,78.72L56.29,85.02L60.62,89.28L64.95,96.57L69.28,101.7L73.61,109.06L77.94,113.07L82.27,117.15L86.6,122.27L90.93,128.29L95.26,136.83L99.59,144.44L103.92,149.06L121.24,167.82L125.57,169.52L129.9,177.8L134.23,181.01L138.56,186.65L142.89,189.63L147.22,193.08L151.55,194.85L160.21,199.97L164.54,199.54L168.87,196.35L173.2,198L186.19,194.09L190.52,195.18L194.85,188.6L199.18,186.34L203.51,184.78L207.84,185.47L212.17,184.91L216.5,185.77L220.83,182.74L225.16,181.12L233.82,180.53L238.15,182.17L242.48,183.87L246.81,182.88L255.47,185.08L259.8,183.28L264.13,177.7L268.46,177.78L277.12,178.8L281.45,178.16L285.78,177.74L290.11,175.56L294.44,177.08L298.77,175.18L303.1,175.34L307.43,176.38L311.76,179.2L316.09,176.16L320.42,177.69L324.75,177.15L329.08,174.31L333.41,176.76L342.07,174.68L346.4,172.84L350.73,168.13L355.06,170.25L359.39,169.41L363.72,166.29L372.38,169.82L376.71,174.69L381.04,172.41L385.37,173.88L389.7,176.44L394.03,175.77L398.36,178.32L402.69,179.48L407.02,177.9L411.35,179L415.68,178.94L420.01,182.37L424.34,182.55L428.67,184.24L433,180.71L433,198.74L428.67,198.24L424.34,200.87L420.01,199.89L415.68,202.07L411.35,202.17L407.02,200.61L402.69,200.98L398.36,196.46L394.03,196.43L389.7,195.24L385.37,195.43L381.04,194.09L376.71,193.6L372.38,194.44L368.05,194.42L363.72,192.48L355.06,193.23L350.73,196.13L346.4,198.57L342.07,204.31L337.74,204.84L333.41,204.32L329.08,206.19L324.75,206.34L316.09,201.82L311.76,202.28L303.1,203.49L298.77,199.98L294.44,202.76L290.11,201.27L285.78,203.65L281.45,202.82L272.79,207.47L268.46,202.64L264.13,202.89L259.8,201.28L255.47,200.64L251.14,200.9L246.81,201.1L242.48,199.34L238.15,200.69L233.82,198.68L225.16,204.33L220.83,203.39L216.5,201.72L212.17,201.26L207.84,204.66L203.51,204.36L199.18,204.15L194.85,205.81L190.52,208.93L186.19,207.79L181.86,209.56L177.53,206.63L173.2,205.9L168.87,207.88L164.54,213.12L160.21,215.13L151.55,216.95L147.22,213.38L142.89,209.96L138.56,208.88L134.23,209.74L129.9,206.78L125.57,204.38L121.24,198.52L116.91,192.87L112.58,185.47L108.25,177.07L103.92,174.78L99.59,170.15L95.26,167.15L90.93,162.71L86.6,156.26L73.61,134.14L69.28,129.22L60.62,113.05L56.29,106.1L30.31,66.44L25.98,60.22L4.33,29.77L0,21.35" style="vector-effect: none; fill: none; stroke: rgb(0, 0, 0); stroke-opacity: 0; stroke-width: 2px; opacity: 1;"/></g><g class="points"/><g class="text"/></g><g class="trace scatter trace1c6805" style="stroke-miterlimit: 2; opacity: 1;"><g class="fills"/><g class="errorbars"/><g class="lines"><path class="js-line" d="M0,24.22L4.33,31.58L8.66,36.43L17.32,45.22L21.65,49.96L56.29,93.51L60.62,100.69L69.28,111L73.61,116.56L90.93,142L95.26,149.07L103.92,161.27L108.25,168.75L116.91,181.89L121.24,188.57L125.57,194.56L129.9,197.34L138.56,205.15L142.89,207.52L147.22,209.81L151.55,210.32L155.88,209.68L160.21,210.61L164.54,211.68L168.87,211.28L190.52,208.11L194.85,206.03L203.51,206.5L207.84,203.26L216.5,204.32L220.83,202.89L229.49,205.28L233.82,205.46L242.48,203.75L246.81,201.76L255.47,202.9L259.8,201.96L264.13,202.14L268.46,199.8L277.12,200.11L281.45,202.13L285.78,200.75L290.11,201.72L311.76,203.65L316.09,202.87L320.42,204.12L324.75,203.4L329.08,202.42L333.41,202.38L337.74,201.17L342.07,201.61L346.4,198.68L350.73,198.99L355.06,198.42L359.39,197.01L368.05,194.76L372.38,196.48L376.71,199.27L381.04,200.88L389.7,199.63L394.03,202.36L398.36,201.77L402.69,203.09L411.35,201.63L415.68,202.35L424.34,202.66L428.67,200.69L433,200.14" style="vector-effect: none; fill: none; stroke: rgb(0, 100, 136); stroke-opacity: 1; stroke-width: 2px; opacity: 1;"/></g><g class="points"/><g class="text"/></g><g class="trace scatter trace28a3ae" style="stroke-miterlimit: 2; opacity: 0.3;"><g class="fills"><g><path class="js-fill" d="M0,23.25L4.33,30.44L8.66,34.56L12.99,37.7L17.32,41.9L25.98,51.8L30.31,58.85L34.64,63.05L38.97,69.06L56.29,87.83L60.62,94.77L64.95,100.13L69.28,103.08L73.61,107.81L77.94,114.64L86.6,127.32L90.93,131.75L95.26,139.76L99.59,145.33L112.58,165.03L116.91,169.98L121.24,178.25L125.57,183.95L129.9,184.63L134.23,187.71L142.89,198.67L147.22,202.37L151.55,202.84L155.88,202.24L164.54,205.78L168.87,204.38L173.2,203.06L177.53,203.55L181.86,203.66L186.19,201.87L194.85,197.87L199.18,198.6L203.51,199.46L207.84,196.31L216.5,199.21L220.83,196.64L225.16,199.52L229.49,200.27L242.48,195.2L246.81,192.14L251.14,192.57L255.47,194.68L259.8,192.72L264.13,193.73L272.79,190.7L277.12,191.98L281.45,195.45L285.78,194.5L290.11,193.41L294.44,195.74L298.77,195.42L303.1,197.96L307.43,195.72L311.76,197.16L316.09,196.62L320.42,198.44L324.75,198.98L329.08,198.08L337.74,194.14L342.07,195.18L346.4,191.44L350.73,193.56L363.72,190.6L368.05,190.66L372.38,193.79L376.71,195.59L381.04,199.04L385.37,196.28L389.7,195.6L394.03,198.16L398.36,198.04L402.69,196.81L407.02,195.75L411.35,195.74L415.68,194.89L420.01,195.38L424.34,196.87L428.67,193.67L433,192.15L433,208.12L428.67,207.7L424.34,208.45L420.01,210.18L415.68,209.81L411.35,207.52L407.02,209.05L402.69,209.37L398.36,205.51L394.03,206.57L389.7,203.67L385.37,204.86L381.04,202.73L376.71,202.96L372.38,199.17L368.05,198.85L363.72,200.67L359.39,201.8L355.06,204.29L350.73,204.43L346.4,205.92L342.07,208.03L337.74,208.2L333.41,208.47L329.08,206.76L324.75,207.83L320.42,209.79L316.09,209.12L311.76,210.13L307.43,211.43L303.1,207.23L298.77,209.43L294.44,208.34L290.11,210.03L285.78,207L281.45,208.82L277.12,208.23L272.79,209.2L268.46,207.54L264.13,210.54L259.8,211.2L246.81,211.37L242.48,212.3L233.82,212.28L229.49,210.28L225.16,209.14L220.83,209.13L207.84,210.22L203.51,213.53L194.85,214.2L190.52,216.2L186.19,215.45L181.86,215.79L173.2,218.03L168.87,218.19L160.21,216.97L155.88,217.11L151.55,217.8L147.22,217.25L142.89,216.38L138.56,217.11L134.23,214.11L129.9,210.04L125.57,205.16L121.24,198.88L116.91,193.81L112.58,186.95L103.92,170.34L99.59,164.39L90.93,152.24L86.6,143.44L34.64,68.36L30.31,63.82L25.98,58.92L21.65,52.79L12.99,43.32L8.66,38.29L4.33,32.72L0,25.19Z" style="fill: rgb(0, 100, 136); fill-opacity: 1; stroke-width: 0;"/></g></g><g class="errorbars"/><g class="lines"><path class="js-line" d="M0,23.25L4.33,30.44L8.66,34.56L12.99,37.7L17.32,41.9L25.98,51.8L30.31,58.85L34.64,63.05L38.97,69.06L56.29,87.83L60.62,94.77L64.95,100.13L69.28,103.08L73.61,107.81L77.94,114.64L86.6,127.32L90.93,131.75L95.26,139.76L99.59,145.33L112.58,165.03L116.91,169.98L121.24,178.25L125.57,183.95L129.9,184.63L134.23,187.71L142.89,198.67L147.22,202.37L151.55,202.84L155.88,202.24L164.54,205.78L168.87,204.38L173.2,203.06L177.53,203.55L181.86,203.66L186.19,201.87L194.85,197.87L199.18,198.6L203.51,199.46L207.84,196.31L216.5,199.21L220.83,196.64L225.16,199.52L229.49,200.27L242.48,195.2L246.81,192.14L251.14,192.57L255.47,194.68L259.8,192.72L264.13,193.73L272.79,190.7L277.12,191.98L281.45,195.45L285.78,194.5L290.11,193.41L294.44,195.74L298.77,195.42L303.1,197.96L307.43,195.72L311.76,197.16L316.09,196.62L320.42,198.44L324.75,198.98L329.08,198.08L337.74,194.14L342.07,195.18L346.4,191.44L350.73,193.56L363.72,190.6L368.05,190.66L372.38,193.79L376.71,195.59L381.04,199.04L385.37,196.28L389.7,195.6L394.03,198.16L398.36,198.04L402.69,196.81L407.02,195.75L411.35,195.74L415.68,194.89L420.01,195.38L424.34,196.87L428.67,193.67L433,192.15L433,208.12L428.67,207.7L424.34,208.45L420.01,210.18L415.68,209.81L411.35,207.52L407.02,209.05L402.69,209.37L398.36,205.51L394.03,206.57L389.7,203.67L385.37,204.86L381.04,202.73L376.71,202.96L372.38,199.17L368.05,198.85L363.72,200.67L359.39,201.8L355.06,204.29L350.73,204.43L346.4,205.92L342.07,208.03L337.74,208.2L333.41,208.47L329.08,206.76L324.75,207.83L320.42,209.79L316.09,209.12L311.76,210.13L307.43,211.43L303.1,207.23L298.77,209.43L294.44,208.34L290.11,210.03L285.78,207L281.45,208.82L277.12,208.23L272.79,209.2L268.46,207.54L264.13,210.54L259.8,211.2L246.81,211.37L242.48,212.3L233.82,212.28L229.49,210.28L225.16,209.14L220.83,209.13L207.84,210.22L203.51,213.53L194.85,214.2L190.52,216.2L186.19,215.45L181.86,215.79L173.2,218.03L168.87,218.19L160.21,216.97L155.88,217.11L151.55,217.8L147.22,217.25L142.89,216.38L138.56,217.11L134.23,214.11L129.9,210.04L125.57,205.16L121.24,198.88L116.91,193.81L112.58,186.95L103.92,170.34L99.59,164.39L90.93,152.24L86.6,143.44L34.64,68.36L30.31,63.82L25.98,58.92L21.65,52.79L12.99,43.32L8.66,38.29L4.33,32.72L0,25.19" style="vector-effect: none; fill: none; stroke: rgb(0, 0, 0); stroke-opacity: 0; stroke-width: 2px; opacity: 1;"/></g><g class="points"/><g class="text"/></g><g class="trace scatter tracee42366" style="stroke-miterlimit: 2; opacity: 1;"><g class="fills"/><g class="errorbars"/><g class="lines"><path class="js-line" d="M0,24.47L4.33,33.34L8.66,37.69L30.31,62.91L34.64,67.98L47.63,85.07L51.96,91.76L82.27,137.2L86.6,143.67L90.93,149.34L95.26,157.43L99.59,162.56L103.92,168.95L121.24,194.38L125.57,199.68L134.23,208.79L138.56,210.58L155.88,210.47L160.21,208.75L164.54,207.09L168.87,207.26L173.2,206.42L177.53,206.54L186.19,206.11L190.52,204.64L199.18,204.32L203.51,204.71L212.17,203.14L216.5,203.4L225.16,203.14L229.49,201.79L233.82,202.15L238.15,200.69L242.48,200.33L246.81,201L251.14,201.69L255.47,200.31L259.8,201.42L264.13,201.38L272.79,200.14L277.12,199.88L281.45,200.15L285.78,201.22L290.11,200.53L294.44,200.95L298.77,201.52L303.1,202.9L311.76,204.17L316.09,203.98L320.42,203.72L324.75,202.6L342.07,203.02L346.4,202.49L350.73,201.32L355.06,202.28L363.72,201.57L368.05,200.79L372.38,201.26L376.71,200.85L381.04,200.68L385.37,201.95L398.36,200.06L402.69,200.39L407.02,201.54L411.35,201.36L415.68,203.6L420.01,202.63L428.67,201.38L433,199.9" style="vector-effect: none; fill: none; stroke: rgb(51, 51, 122); stroke-opacity: 1; stroke-width: 2px; opacity: 1;"/></g><g class="points"/><g class="text"/></g><g class="trace scatter trace76fd1f" style="stroke-miterlimit: 2; opacity: 0.3;"><g class="fills"><g><path class="js-fill" d="M0,24.25L4.33,32.23L8.66,35.61L17.32,42.44L21.65,47.64L25.98,53.87L30.31,57.6L43.3,74.19L47.63,80.04L60.62,99.5L64.95,105L69.28,110.63L73.61,117.59L82.27,130.51L86.6,137.67L95.26,148.66L99.59,154.47L108.25,168.32L112.58,173.11L121.24,186.78L125.57,191.47L129.9,197.65L134.23,205.19L138.56,207.8L142.89,207.49L147.22,207.68L151.55,206.56L155.88,207.78L160.21,205.72L164.54,203.79L168.87,203.3L173.2,202.04L177.53,202.6L181.86,202.95L186.19,201.68L190.52,200.4L194.85,200.38L199.18,201.69L203.51,201.96L207.84,201.42L212.17,200.03L216.5,199.35L220.83,197.23L225.16,197.65L229.49,195.51L233.82,195.42L238.15,193.29L246.81,193.28L251.14,195.19L255.47,193.22L259.8,195.12L268.46,192.3L272.79,192.98L277.12,191.78L281.45,191.54L285.78,192.51L290.11,191.61L294.44,193.46L298.77,193.25L303.1,196.23L307.43,196.93L320.42,198.58L324.75,196.86L329.08,196.83L333.41,197.96L337.74,196.84L342.07,197.12L350.73,195.5L355.06,196.66L359.39,196.97L363.72,195.45L368.05,194.22L372.38,196.1L376.71,195.43L381.04,195.92L385.37,196.08L389.7,194.42L394.03,193.68L398.36,190.34L402.69,190.14L407.02,191.06L411.35,190.69L415.68,192.66L420.01,191.45L424.34,191.42L428.67,192.05L433,190.25L433,209.55L428.67,210.7L420.01,213.8L415.68,214.55L411.35,212.03L407.02,212.02L394.03,208.12L389.7,208.27L385.37,207.83L381.04,205.44L368.05,207.36L363.72,207.68L359.39,207.38L355.06,207.91L350.73,207.13L346.4,208.42L337.74,209.5L333.41,208.19L320.42,208.85L316.09,210.38L311.76,210.91L307.43,210.48L303.1,209.56L298.77,209.8L294.44,208.44L290.11,209.45L285.78,209.93L281.45,208.76L272.79,207.29L268.46,208.54L264.13,209.44L259.8,207.73L255.47,207.41L251.14,208.19L246.81,208.71L242.48,207.32L233.82,208.89L229.49,208.08L220.83,208.92L216.5,207.44L212.17,206.24L207.84,207L203.51,207.47L199.18,206.94L186.19,210.54L181.86,210.31L168.87,211.22L164.54,210.39L151.55,214L147.22,212.47L142.89,213.52L138.56,213.35L129.9,211.21L125.57,207.88L112.58,189.46L108.25,182.44L99.59,170.65L95.26,166.21L90.93,155.91L86.6,149.67L77.94,137.39L73.61,130.09L47.63,90.09L43.3,84.53L25.98,62.12L21.65,57.89L4.33,34.45L0,24.69Z" style="fill: rgb(51, 51, 122); fill-opacity: 1; stroke-width: 0;"/></g></g><g class="errorbars"/><g class="lines"><path class="js-line" d="M0,24.25L4.33,32.23L8.66,35.61L17.32,42.44L21.65,47.64L25.98,53.87L30.31,57.6L43.3,74.19L47.63,80.04L60.62,99.5L64.95,105L69.28,110.63L73.61,117.59L82.27,130.51L86.6,137.67L95.26,148.66L99.59,154.47L108.25,168.32L112.58,173.11L121.24,186.78L125.57,191.47L129.9,197.65L134.23,205.19L138.56,207.8L142.89,207.49L147.22,207.68L151.55,206.56L155.88,207.78L160.21,205.72L164.54,203.79L168.87,203.3L173.2,202.04L177.53,202.6L181.86,202.95L186.19,201.68L190.52,200.4L194.85,200.38L199.18,201.69L203.51,201.96L207.84,201.42L212.17,200.03L216.5,199.35L220.83,197.23L225.16,197.65L229.49,195.51L233.82,195.42L238.15,193.29L246.81,193.28L251.14,195.19L255.47,193.22L259.8,195.12L268.46,192.3L272.79,192.98L277.12,191.78L281.45,191.54L285.78,192.51L290.11,191.61L294.44,193.46L298.77,193.25L303.1,196.23L307.43,196.93L320.42,198.58L324.75,196.86L329.08,196.83L333.41,197.96L337.74,196.84L342.07,197.12L350.73,195.5L355.06,196.66L359.39,196.97L363.72,195.45L368.05,194.22L372.38,196.1L376.71,195.43L381.04,195.92L385.37,196.08L389.7,194.42L394.03,193.68L398.36,190.34L402.69,190.14L407.02,191.06L411.35,190.69L415.68,192.66L420.01,191.45L424.34,191.42L428.67,192.05L433,190.25L433,209.55L428.67,210.7L420.01,213.8L415.68,214.55L411.35,212.03L407.02,212.02L394.03,208.12L389.7,208.27L385.37,207.83L381.04,205.44L368.05,207.36L363.72,207.68L359.39,207.38L355.06,207.91L350.73,207.13L346.4,208.42L337.74,209.5L333.41,208.19L320.42,208.85L316.09,210.38L311.76,210.91L307.43,210.48L303.1,209.56L298.77,209.8L294.44,208.44L290.11,209.45L285.78,209.93L281.45,208.76L272.79,207.29L268.46,208.54L264.13,209.44L259.8,207.73L255.47,207.41L251.14,208.19L246.81,208.71L242.48,207.32L233.82,208.89L229.49,208.08L220.83,208.92L216.5,207.44L212.17,206.24L207.84,207L203.51,207.47L199.18,206.94L186.19,210.54L181.86,210.31L168.87,211.22L164.54,210.39L151.55,214L147.22,212.47L142.89,213.52L138.56,213.35L129.9,211.21L125.57,207.88L112.58,189.46L108.25,182.44L99.59,170.65L95.26,166.21L90.93,155.91L86.6,149.67L77.94,137.39L73.61,130.09L47.63,90.09L43.3,84.53L25.98,62.12L21.65,57.89L4.33,34.45L0,24.69" style="vector-effect: none; fill: none; stroke: rgb(0, 0, 0); stroke-opacity: 0; stroke-width: 2px; opacity: 1;"/></g><g class="points"/><g class="text"/></g><g class="trace scatter traceb6fd75" style="stroke-miterlimit: 2; opacity: 1;"><g class="fills"/><g class="errorbars"/><g class="lines"><path class="js-line" d="M0,27.82L4.33,36.69L8.66,41.8L17.32,52.44L21.65,56.74L34.64,73.96L38.97,79.92L51.96,98.16L56.29,104.3L69.28,122.66L73.61,129.4L86.6,150.25L90.93,157.7L99.59,170.71L103.92,175.38L112.58,188.9L116.91,194.55L121.24,201.84L125.57,205.97L134.23,209.9L138.56,210.31L142.89,211.4L147.22,209.79L151.55,208.91L155.88,209.59L173.2,209.4L177.53,208.73L199.18,206.67L203.51,206.68L207.84,207.88L212.17,206.64L225.16,206.86L229.49,205.22L259.8,204.22L264.13,203.61L272.79,204.05L277.12,204.94L290.11,203.34L294.44,202.86L333.41,203.29L337.74,203.97L342.07,203.83L346.4,204.55L350.73,203.99L355.06,205.27L381.04,205.65L385.37,205.13L389.7,205.42L394.03,204.5L398.36,205.2L402.69,203.89L411.35,205.3L415.68,205.1L424.34,206.32L428.67,205.6L433,206.22" style="vector-effect: none; fill: none; stroke: rgb(120, 45, 128); stroke-opacity: 1; stroke-width: 2px; opacity: 1;"/></g><g class="points"/><g class="text"/></g><g class="trace scatter trace17f69f" style="stroke-miterlimit: 2; opacity: 0.3;"><g class="fills"><g><path class="js-fill" d="M0,27.39L4.33,36L8.66,40.33L12.99,46.42L17.32,50.26L21.65,54.13L25.98,59.08L30.31,63.4L34.64,70.26L47.63,86.11L51.96,91.94L60.62,103.08L64.95,108.83L73.61,122.84L77.94,128.7L86.6,142.61L90.93,151.04L99.59,162.93L103.92,168.16L116.91,188.13L121.24,195.36L125.57,200.65L129.9,204.06L138.56,207.74L142.89,207.51L151.55,204.73L155.88,205.87L160.21,206.14L164.54,204.66L168.87,206.02L173.2,206.32L190.52,204.42L194.85,204.67L203.51,203.25L207.84,204.5L212.17,202.54L216.5,203.09L220.83,202.29L225.16,203.41L229.49,200.52L233.82,199.75L238.15,198.92L242.48,199.37L246.81,199.18L251.14,200.02L264.13,199.04L268.46,199.49L272.79,201.05L277.12,201.6L285.78,200.14L290.11,198.41L298.77,197.72L303.1,196.95L316.09,196.66L320.42,198.22L324.75,196.78L329.08,198.15L337.74,199.09L342.07,200.3L346.4,200.41L350.73,199.58L368.05,199.03L372.38,198.08L381.04,200.22L385.37,199.22L394.03,199.4L398.36,201.19L402.69,198.33L407.02,199.22L411.35,200.64L415.68,199.92L433,202.83L433,209.61L428.67,209.51L424.34,211.2L420.01,211.33L415.68,210.27L398.36,209.21L394.03,209.6L389.7,211.46L385.37,211.04L376.71,211.1L372.38,212.03L363.72,210.97L359.39,211.51L355.06,211.13L350.73,208.4L346.4,208.69L342.07,207.36L337.74,208.84L333.41,208.26L329.08,206.93L324.75,208.21L320.42,207.86L316.09,208.35L307.43,208.07L303.1,208.76L294.44,207.51L290.11,208.28L285.78,207.4L281.45,207.53L277.12,208.27L272.79,207.06L264.13,208.18L259.8,208.57L242.48,211.19L238.15,211.06L229.49,209.91L225.16,210.32L220.83,211.39L216.5,210.39L207.84,211.26L203.51,210.12L199.18,209.23L194.85,209.45L186.19,210.68L181.86,211.24L164.54,213.29L160.21,212.97L147.22,213.59L142.89,215.29L138.56,212.88L134.23,213.53L129.9,211.9L125.57,211.29L121.24,208.31L116.91,200.97L112.58,197.04L108.25,190.16L103.92,182.61L99.59,178.48L90.93,164.37L86.6,157.89L82.27,149.72L77.94,143.3L69.28,129.05L64.95,122.97L60.62,117.49L56.29,110.57L38.97,84.55L34.64,77.66L21.65,59.35L17.32,54.62L8.66,43.28L4.33,37.38L0,28.25Z" style="fill: rgb(120, 45, 128); fill-opacity: 1; stroke-width: 0;"/></g></g><g class="errorbars"/><g class="lines"><path class="js-line" d="M0,27.39L4.33,36L8.66,40.33L12.99,46.42L17.32,50.26L21.65,54.13L25.98,59.08L30.31,63.4L34.64,70.26L47.63,86.11L51.96,91.94L60.62,103.08L64.95,108.83L73.61,122.84L77.94,128.7L86.6,142.61L90.93,151.04L99.59,162.93L103.92,168.16L116.91,188.13L121.24,195.36L125.57,200.65L129.9,204.06L138.56,207.74L142.89,207.51L151.55,204.73L155.88,205.87L160.21,206.14L164.54,204.66L168.87,206.02L173.2,206.32L190.52,204.42L194.85,204.67L203.51,203.25L207.84,204.5L212.17,202.54L216.5,203.09L220.83,202.29L225.16,203.41L229.49,200.52L233.82,199.75L238.15,198.92L242.48,199.37L246.81,199.18L251.14,200.02L264.13,199.04L268.46,199.49L272.79,201.05L277.12,201.6L285.78,200.14L290.11,198.41L298.77,197.72L303.1,196.95L316.09,196.66L320.42,198.22L324.75,196.78L329.08,198.15L337.74,199.09L342.07,200.3L346.4,200.41L350.73,199.58L368.05,199.03L372.38,198.08L381.04,200.22L385.37,199.22L394.03,199.4L398.36,201.19L402.69,198.33L407.02,199.22L411.35,200.64L415.68,199.92L433,202.83L433,209.61L428.67,209.51L424.34,211.2L420.01,211.33L415.68,210.27L398.36,209.21L394.03,209.6L389.7,211.46L385.37,211.04L376.71,211.1L372.38,212.03L363.72,210.97L359.39,211.51L355.06,211.13L350.73,208.4L346.4,208.69L342.07,207.36L337.74,208.84L333.41,208.26L329.08,206.93L324.75,208.21L320.42,207.86L316.09,208.35L307.43,208.07L303.1,208.76L294.44,207.51L290.11,208.28L285.78,207.4L281.45,207.53L277.12,208.27L272.79,207.06L264.13,208.18L259.8,208.57L242.48,211.19L238.15,211.06L229.49,209.91L225.16,210.32L220.83,211.39L216.5,210.39L207.84,211.26L203.51,210.12L199.18,209.23L194.85,209.45L186.19,210.68L181.86,211.24L164.54,213.29L160.21,212.97L147.22,213.59L142.89,215.29L138.56,212.88L134.23,213.53L129.9,211.9L125.57,211.29L121.24,208.31L116.91,200.97L112.58,197.04L108.25,190.16L103.92,182.61L99.59,178.48L90.93,164.37L86.6,157.89L82.27,149.72L77.94,143.3L69.28,129.05L64.95,122.97L60.62,117.49L56.29,110.57L38.97,84.55L34.64,77.66L21.65,59.35L17.32,54.62L8.66,43.28L4.33,37.38L0,28.25" style="vector-effect: none; fill: none; stroke: rgb(0, 0, 0); stroke-opacity: 0; stroke-width: 2px; opacity: 1;"/></g><g class="points"/><g class="text"/></g><g class="trace scatter trace15ea85" style="stroke-miterlimit: 2; opacity: 1;"><g class="fills"/><g class="errorbars"/><g class="lines"><path class="js-line" d="M0,31.28L4.33,39.31L8.66,44.76L17.32,54.8L21.65,60.65L30.31,71.42L34.64,77.88L43.3,90.61L47.63,96.83L56.29,109.46L60.62,116.98L64.95,124.18L69.28,129.91L77.94,144.38L82.27,149.25L86.6,156.63L90.93,162.51L112.58,192.14L116.91,199.28L121.24,203.68L125.57,206.04L129.9,208.84L134.23,210.13L142.89,210.1L147.22,210.18L151.55,208.39L155.88,208.4L160.21,207.83L164.54,208.78L173.2,207.79L177.53,208.02L190.52,206.05L194.85,205.86L199.18,205.67L203.51,206.4L216.5,205.08L220.83,205.02L225.16,204.75L229.49,205.91L238.15,204.62L242.48,205.42L251.14,204.32L255.47,205.25L259.8,204.54L264.13,204.69L272.79,204.94L277.12,205.01L285.78,205.33L290.11,206.05L294.44,205.9L298.77,206.84L316.09,207.4L320.42,206.82L329.08,206.99L333.41,207.16L337.74,206.66L342.07,207.22L359.39,207.06L363.72,207.39L376.71,207.45L381.04,207.11L389.7,205.73L394.03,206.22L398.36,205.39L402.69,205.78L424.34,204.25L428.67,204.64L433,204.44" style="vector-effect: none; fill: none; stroke: rgb(178, 83, 135); stroke-opacity: 1; stroke-width: 2px; opacity: 1;"/></g><g class="points"/><g class="text"/></g><g class="trace scatter trace0fde26" style="stroke-miterlimit: 2; opacity: 0.3;"><g class="fills"><g><path class="js-fill" d="M0,30.74L4.33,38.1L8.66,42.78L12.99,46.22L17.32,51.09L34.64,72.08L38.97,78.38L56.29,101.7L60.62,108.95L69.28,120.93L73.61,127.35L77.94,134.04L82.27,138.71L86.6,146.35L90.93,152.3L108.25,174.63L112.58,182.04L116.91,190.94L121.24,196.25L125.57,199.2L129.9,203.73L134.23,206.43L138.56,207.08L147.22,206.55L151.55,203.94L155.88,203.95L160.21,202.96L164.54,204.41L168.87,204.08L190.52,200.6L194.85,200.12L199.18,200.42L203.51,201.55L212.17,200.35L216.5,200.13L225.16,200.19L229.49,201.31L238.15,200.06L242.48,201.04L246.81,199.92L251.14,200.77L255.47,201.45L259.8,201.02L264.13,201.56L268.46,200.32L294.44,201.5L298.77,202.48L316.09,203.79L320.42,203.15L329.08,203.55L333.41,204.73L337.74,204.05L342.07,204.16L346.4,203.85L350.73,204.84L355.06,203.6L359.39,203.53L363.72,203.97L368.05,203.01L372.38,204.12L376.71,203.87L381.04,202.41L385.37,201.96L389.7,202.08L394.03,203.11L398.36,201.49L402.69,201.6L407.02,200.6L411.35,200.58L415.68,201.5L420.01,200.38L424.34,199.95L428.67,200.83L433,200.67L433,208.2L424.34,208.55L420.01,208.19L415.68,208.46L411.35,209.7L407.02,210.53L402.69,209.96L394.03,209.33L389.7,209.37L385.37,210.12L381.04,211.81L376.71,211.02L372.38,211.83L363.72,210.81L359.39,210.59L350.73,209.57L346.4,210.21L342.07,210.27L337.74,209.27L329.08,210.42L324.75,209.94L311.76,211.21L307.43,210L303.1,211.25L298.77,211.21L294.44,210.31L290.11,211.03L285.78,209.38L281.45,209.02L272.79,209.28L268.46,208.76L264.13,207.82L259.8,208.07L255.47,209.05L251.14,207.88L242.48,209.81L238.15,209.19L229.49,210.51L225.16,209.31L216.5,210.03L212.17,210.53L190.52,211.49L186.19,212.05L181.86,212.35L177.53,213.65L173.2,212.34L168.87,212.36L164.54,213.14L160.21,212.7L151.55,212.85L147.22,213.8L142.89,213.12L138.56,213.88L129.9,213.96L125.57,212.88L121.24,211.12L116.91,207.62L99.59,185L95.26,179.1L73.61,147.02L69.28,138.88L64.95,132.75L60.62,125L51.96,110.32L47.63,103.62L25.98,70.11L21.65,64.97L8.66,46.73L4.33,40.52L0,31.81Z" style="fill: rgb(178, 83, 135); fill-opacity: 1; stroke-width: 0;"/></g></g><g class="errorbars"/><g class="lines"><path class="js-line" d="M0,30.74L4.33,38.1L8.66,42.78L12.99,46.22L17.32,51.09L34.64,72.08L38.97,78.38L56.29,101.7L60.62,108.95L69.28,120.93L73.61,127.35L77.94,134.04L82.27,138.71L86.6,146.35L90.93,152.3L108.25,174.63L112.58,182.04L116.91,190.94L121.24,196.25L125.57,199.2L129.9,203.73L134.23,206.43L138.56,207.08L147.22,206.55L151.55,203.94L155.88,203.95L160.21,202.96L164.54,204.41L168.87,204.08L190.52,200.6L194.85,200.12L199.18,200.42L203.51,201.55L212.17,200.35L216.5,200.13L225.16,200.19L229.49,201.31L238.15,200.06L242.48,201.04L246.81,199.92L251.14,200.77L255.47,201.45L259.8,201.02L264.13,201.56L268.46,200.32L294.44,201.5L298.77,202.48L316.09,203.79L320.42,203.15L329.08,203.55L333.41,204.73L337.74,204.05L342.07,204.16L346.4,203.85L350.73,204.84L355.06,203.6L359.39,203.53L363.72,203.97L368.05,203.01L372.38,204.12L376.71,203.87L381.04,202.41L385.37,201.96L389.7,202.08L394.03,203.11L398.36,201.49L402.69,201.6L407.02,200.6L411.35,200.58L415.68,201.5L420.01,200.38L424.34,199.95L428.67,200.83L433,200.67L433,208.2L424.34,208.55L420.01,208.19L415.68,208.46L411.35,209.7L407.02,210.53L402.69,209.96L394.03,209.33L389.7,209.37L385.37,210.12L381.04,211.81L376.71,211.02L372.38,211.83L363.72,210.81L359.39,210.59L350.73,209.57L346.4,210.21L342.07,210.27L337.74,209.27L329.08,210.42L324.75,209.94L311.76,211.21L307.43,210L303.1,211.25L298.77,211.21L294.44,210.31L290.11,211.03L285.78,209.38L281.45,209.02L272.79,209.28L268.46,208.76L264.13,207.82L259.8,208.07L255.47,209.05L251.14,207.88L242.48,209.81L238.15,209.19L229.49,210.51L225.16,209.31L216.5,210.03L212.17,210.53L190.52,211.49L186.19,212.05L181.86,212.35L177.53,213.65L173.2,212.34L168.87,212.36L164.54,213.14L160.21,212.7L151.55,212.85L147.22,213.8L142.89,213.12L138.56,213.88L129.9,213.96L125.57,212.88L121.24,211.12L116.91,207.62L99.59,185L95.26,179.1L73.61,147.02L69.28,138.88L64.95,132.75L60.62,125L51.96,110.32L47.63,103.62L25.98,70.11L21.65,64.97L8.66,46.73L4.33,40.52L0,31.81" style="vector-effect: none; fill: none; stroke: rgb(0, 0, 0); stroke-opacity: 0; stroke-width: 2px; opacity: 1;"/></g><g class="points"/><g class="text"/></g><g class="trace scatter traceda6fb5" style="stroke-miterlimit: 2; opacity: 1;"><g class="fills"/><g class="errorbars"/><g class="lines"><path class="js-line" d="M0,31.51L4.33,40.96L8.66,45.96L17.32,56.53L21.65,62.22L30.31,72.85L34.64,78.52L73.61,136.65L77.94,143.47L116.91,202.24L121.24,205.53L129.9,208.6L134.23,208.79L142.89,208.99L147.22,208.25L151.55,208.95L155.88,208.07L168.87,207.55L173.2,207.46L181.86,207.16L186.19,206.9L199.18,205.57L203.51,205.7L220.83,205.7L225.16,205.01L229.49,205.55L233.82,205.13L268.46,206.98L272.79,207.53L277.12,206.54L281.45,206.88L285.78,206.67L290.11,207.32L316.09,205.59L320.42,206.14L337.74,206.41L342.07,206.94L350.73,206.63L355.06,204.99L372.38,206.92L376.71,206.93L398.36,206.26L402.69,206.08L411.35,205.77L415.68,204.99L420.01,205.54L424.34,205.28L428.67,204.75L433,205.19" style="vector-effect: none; fill: none; stroke: rgb(218, 130, 128); stroke-opacity: 1; stroke-width: 2px; opacity: 1;"/></g><g class="points"/><g class="text"/></g><g class="trace scatter trace3cf562" style="stroke-miterlimit: 2; opacity: 0.3;"><g class="fills"><g><path class="js-fill" d="M0,31.51L4.33,40.21L8.66,44.26L21.65,59.91L25.98,64.16L38.97,81.39L43.3,87.91L47.63,92.66L51.96,98.93L64.95,118L69.28,124.3L73.61,130.27L77.94,137.78L103.92,174.53L108.25,181.8L121.24,200.2L125.57,204L129.9,206.45L134.23,207.23L142.89,207.15L147.22,206.19L160.21,204.96L164.54,205.71L173.2,205.22L177.53,205.23L203.51,203.33L207.84,204.22L216.5,203.08L220.83,203.57L225.16,202.95L229.49,203.38L233.82,202.67L238.15,203.18L259.8,203.57L264.13,204.83L268.46,204.66L272.79,206L277.12,203.01L281.45,203.56L290.11,205.48L294.44,204.86L303.1,203.68L307.43,203.53L316.09,202.13L320.42,202.63L329.08,203L333.41,202.93L342.07,204.41L346.4,203.73L350.73,204.59L355.06,201.73L359.39,202.07L363.72,203.17L368.05,204.53L372.38,204.92L381.04,203.74L385.37,203.03L394.03,204.42L398.36,204.01L407.02,203.6L411.35,203.82L415.68,202.65L420.01,203.09L424.34,202.76L428.67,201.61L433,201.84L433,208.54L424.34,207.8L420.01,207.98L415.68,207.33L411.35,207.73L407.02,208.93L402.69,208.63L394.03,208.57L389.7,209.19L376.71,209.89L372.38,208.92L359.39,208.91L355.06,208.26L342.07,209.48L337.74,208.93L320.42,209.65L316.09,209.04L311.76,208.18L307.43,208.22L285.78,209.1L281.45,210.21L277.12,210.07L272.79,209.07L264.13,208.78L259.8,208.46L233.82,207.6L229.49,207.72L225.16,207.06L220.83,207.82L216.5,208.41L212.17,208.21L207.84,207.02L203.51,208.08L199.18,207.67L194.85,208.19L190.52,208.25L186.19,209.2L164.54,210.15L160.21,211.31L155.88,210.73L151.55,212.09L147.22,210.3L142.89,210.83L125.57,210.43L121.24,210.86L116.91,209.44L112.58,205.68L90.93,171.37L86.6,163.75L77.94,149.16L73.61,143.04L43.3,94.1L38.97,88.51L25.98,70.23L21.65,64.53L12.99,52.17L8.66,47.65L4.33,41.72L0,31.51Z" style="fill: rgb(218, 130, 128); fill-opacity: 1; stroke-width: 0;"/></g></g><g class="errorbars"/><g class="lines"><path class="js-line" d="M0,31.51L4.33,40.21L8.66,44.26L21.65,59.91L25.98,64.16L38.97,81.39L43.3,87.91L47.63,92.66L51.96,98.93L64.95,118L69.28,124.3L73.61,130.27L77.94,137.78L103.92,174.53L108.25,181.8L121.24,200.2L125.57,204L129.9,206.45L134.23,207.23L142.89,207.15L147.22,206.19L160.21,204.96L164.54,205.71L173.2,205.22L177.53,205.23L203.51,203.33L207.84,204.22L216.5,203.08L220.83,203.57L225.16,202.95L229.49,203.38L233.82,202.67L238.15,203.18L259.8,203.57L264.13,204.83L268.46,204.66L272.79,206L277.12,203.01L281.45,203.56L290.11,205.48L294.44,204.86L303.1,203.68L307.43,203.53L316.09,202.13L320.42,202.63L329.08,203L333.41,202.93L342.07,204.41L346.4,203.73L350.73,204.59L355.06,201.73L359.39,202.07L363.72,203.17L368.05,204.53L372.38,204.92L381.04,203.74L385.37,203.03L394.03,204.42L398.36,204.01L407.02,203.6L411.35,203.82L415.68,202.65L420.01,203.09L424.34,202.76L428.67,201.61L433,201.84L433,208.54L424.34,207.8L420.01,207.98L415.68,207.33L411.35,207.73L407.02,208.93L402.69,208.63L394.03,208.57L389.7,209.19L376.71,209.89L372.38,208.92L359.39,208.91L355.06,208.26L342.07,209.48L337.74,208.93L320.42,209.65L316.09,209.04L311.76,208.18L307.43,208.22L285.78,209.1L281.45,210.21L277.12,210.07L272.79,209.07L264.13,208.78L259.8,208.46L233.82,207.6L229.49,207.72L225.16,207.06L220.83,207.82L216.5,208.41L212.17,208.21L207.84,207.02L203.51,208.08L199.18,207.67L194.85,208.19L190.52,208.25L186.19,209.2L164.54,210.15L160.21,211.31L155.88,210.73L151.55,212.09L147.22,210.3L142.89,210.83L125.57,210.43L121.24,210.86L116.91,209.44L112.58,205.68L90.93,171.37L86.6,163.75L77.94,149.16L73.61,143.04L43.3,94.1L38.97,88.51L25.98,70.23L21.65,64.53L12.99,52.17L8.66,47.65L4.33,41.72L0,31.51" style="vector-effect: none; fill: none; stroke: rgb(0, 0, 0); stroke-opacity: 0; stroke-width: 2px; opacity: 1;"/></g><g class="points"/><g class="text"/></g><g class="trace scatter tracecd69f6" style="stroke-miterlimit: 2; opacity: 1;"><g class="fills"/><g class="errorbars"/><g class="lines"><path class="js-line" d="M0,34.9L4.33,43.45L8.66,48.59L34.64,83.33L38.97,89.8L60.62,122.04L64.95,129.59L77.94,149.97L82.27,155.88L99.59,183.79L103.92,190.26L112.58,200.88L116.91,204.07L121.24,206.31L125.57,207.5L142.89,207.62L147.22,207.14L160.21,206.72L164.54,207.86L168.87,207.89L173.2,206.85L177.53,207.64L181.86,207.42L199.18,205.71L203.51,205.76L220.83,204.68L225.16,205.68L259.8,205.32L264.13,205.27L268.46,206.03L272.79,205.65L285.78,205.5L290.11,205.17L298.77,205.22L303.1,204.86L307.43,204.83L311.76,203.97L316.09,205.02L320.42,205.18L329.08,205.73L333.41,205.85L342.07,205.57L346.4,205.69L355.06,204.75L359.39,204.69L372.38,203.6L376.71,203.97L381.04,204.57L385.37,204.18L394.03,204.92L398.36,204.04L411.35,205.41L415.68,204.96L428.67,204.5L433,204.46" style="vector-effect: none; fill: none; stroke: rgb(242, 184, 120); stroke-opacity: 1; stroke-width: 2px; opacity: 1;"/></g><g class="points"/><g class="text"/></g><g class="trace scatter trace8dc8fb" style="stroke-miterlimit: 2; opacity: 0.3;"><g class="fills"><g><path class="js-fill" d="M0,34.5L4.33,42.49L8.66,47.4L30.31,75.18L34.64,81.23L47.63,98.96L51.96,104.37L56.29,110.2L60.62,117.89L73.61,139.32L77.94,144.61L112.58,196.69L116.91,202.26L121.24,204.87L125.57,206.09L138.56,206.16L142.89,205.84L160.21,204.19L164.54,205.7L168.87,205.93L173.2,205L177.53,206.04L181.86,205.59L186.19,204.52L190.52,204.49L194.85,202.99L199.18,203.73L212.17,202.45L216.5,203.34L220.83,202.64L225.16,203.99L233.82,202.84L238.15,203.99L251.14,202.03L255.47,203.07L277.12,203.36L281.45,202.22L285.78,202.84L290.11,202.2L307.43,200.83L311.76,199.83L316.09,202.1L320.42,201.58L346.4,202.89L350.73,202.31L359.39,201.58L363.72,201.46L368.05,200.22L372.38,201.04L381.04,202.1L385.37,200.99L389.7,200.93L394.03,202.22L398.36,200.82L402.69,201.87L415.68,201.73L420.01,201.55L424.34,200.96L428.67,201.79L433,202.51L433,206.41L424.34,207.3L420.01,207.65L411.35,208.48L407.02,208.36L402.69,207.26L398.36,207.26L389.7,207.81L385.37,207.37L372.38,206.15L368.05,206.89L355.06,207.86L350.73,207.9L346.4,208.49L342.07,208.22L329.08,209.42L324.75,209.5L316.09,207.94L311.76,208.11L307.43,208.82L303.1,208.48L281.45,208.19L277.12,208.08L268.46,208.31L264.13,207.5L242.48,207.73L238.15,207.53L233.82,208.64L229.49,207.41L220.83,206.71L216.5,207.53L207.84,208.14L203.51,208.15L199.18,207.69L194.85,208.59L173.2,208.7L168.87,209.85L164.54,210.01L160.21,209.26L155.88,208.66L151.55,209.25L147.22,208.7L142.89,209.39L134.23,208.26L129.9,209.08L125.57,208.91L121.24,207.76L116.91,205.87L112.58,205.07L108.25,201.84L103.92,197.05L90.93,176.91L86.6,167.71L82.27,160.66L77.94,155.33L73.61,148.66L69.28,140.27L64.95,134.11L60.62,126.18L47.63,105.56L43.3,99.39L34.64,85.43L30.31,80.17L21.65,67.5L17.32,61.61L4.33,44.41L0,35.29Z" style="fill: rgb(242, 184, 120); fill-opacity: 1; stroke-width: 0;"/></g></g><g class="errorbars"/><g class="lines"><path class="js-line" d="M0,34.5L4.33,42.49L8.66,47.4L30.31,75.18L34.64,81.23L47.63,98.96L51.96,104.37L56.29,110.2L60.62,117.89L73.61,139.32L77.94,144.61L112.58,196.69L116.91,202.26L121.24,204.87L125.57,206.09L138.56,206.16L142.89,205.84L160.21,204.19L164.54,205.7L168.87,205.93L173.2,205L177.53,206.04L181.86,205.59L186.19,204.52L190.52,204.49L194.85,202.99L199.18,203.73L212.17,202.45L216.5,203.34L220.83,202.64L225.16,203.99L233.82,202.84L238.15,203.99L251.14,202.03L255.47,203.07L277.12,203.36L281.45,202.22L285.78,202.84L290.11,202.2L307.43,200.83L311.76,199.83L316.09,202.1L320.42,201.58L346.4,202.89L350.73,202.31L359.39,201.58L363.72,201.46L368.05,200.22L372.38,201.04L381.04,202.1L385.37,200.99L389.7,200.93L394.03,202.22L398.36,200.82L402.69,201.87L415.68,201.73L420.01,201.55L424.34,200.96L428.67,201.79L433,202.51L433,206.41L424.34,207.3L420.01,207.65L411.35,208.48L407.02,208.36L402.69,207.26L398.36,207.26L389.7,207.81L385.37,207.37L372.38,206.15L368.05,206.89L355.06,207.86L350.73,207.9L346.4,208.49L342.07,208.22L329.08,209.42L324.75,209.5L316.09,207.94L311.76,208.11L307.43,208.82L303.1,208.48L281.45,208.19L277.12,208.08L268.46,208.31L264.13,207.5L242.48,207.73L238.15,207.53L233.82,208.64L229.49,207.41L220.83,206.71L216.5,207.53L207.84,208.14L203.51,208.15L199.18,207.69L194.85,208.59L173.2,208.7L168.87,209.85L164.54,210.01L160.21,209.26L155.88,208.66L151.55,209.25L147.22,208.7L142.89,209.39L134.23,208.26L129.9,209.08L125.57,208.91L121.24,207.76L116.91,205.87L112.58,205.07L108.25,201.84L103.92,197.05L90.93,176.91L86.6,167.71L82.27,160.66L77.94,155.33L73.61,148.66L69.28,140.27L64.95,134.11L60.62,126.18L47.63,105.56L43.3,99.39L34.64,85.43L30.31,80.17L21.65,67.5L17.32,61.61L4.33,44.41L0,35.29" style="vector-effect: none; fill: none; stroke: rgb(0, 0, 0); stroke-opacity: 0; stroke-width: 2px; opacity: 1;"/></g><g class="points"/><g class="text"/></g><g class="trace scatter tracedc5d0d" style="stroke-miterlimit: 2; opacity: 1;"><g class="fills"/><g class="errorbars"/><g class="lines"><path class="js-line" d="M0,38.33L4.33,45.94L8.66,50.85L43.3,96.78L47.63,103.36L56.29,117.11L60.62,123.33L69.28,136.72L73.61,144.34L90.93,170.52L95.26,177.68L103.92,191.02L108.25,196.92L112.58,201.45L116.91,204.16L125.57,206.15L129.9,205.87L164.54,205.8L168.87,205.11L177.53,204.52L181.86,204.12L194.85,204.97L199.18,204.64L216.5,205.49L220.83,204.64L233.82,205.27L238.15,205.01L268.46,204.96L272.79,204.72L285.78,204.32L290.11,204.45L294.44,204.31L298.77,205.04L307.43,204.63L311.76,204.1L316.09,204.84L320.42,204.28L342.07,203.77L346.4,203.58L363.72,203.69L368.05,203.67L372.38,203.24L376.71,203.81L389.7,203.96L394.03,204.18L398.36,203.71L402.69,204.81L411.35,203.91L415.68,204.2L433,205.52" style="vector-effect: none; fill: none; stroke: rgb(248, 246, 139); stroke-opacity: 1; stroke-width: 2px; opacity: 1;"/></g><g class="points"/><g class="text"/></g><g class="trace scatter traced306f9" style="stroke-miterlimit: 2; opacity: 0.3;"><g class="fills"><g><path class="js-fill" d="M0,38.01L4.33,45.18L8.66,49.22L17.32,59.5L21.65,64.79L43.3,93.43L47.63,100.32L56.29,113.44L60.62,119.2L77.94,145.12L82.27,152.46L90.93,164.68L95.26,172.96L112.58,198.26L116.91,203.16L129.9,204.7L134.23,204.58L138.56,204.82L142.89,204.23L147.22,204.64L151.55,204.27L155.88,203.93L160.21,204.74L181.86,202.31L186.19,202.37L190.52,203.13L194.85,203.07L203.51,203.06L207.84,203.29L216.5,204.13L220.83,203.28L225.16,202.96L229.49,203.53L233.82,203.74L238.15,202.95L251.14,203.09L255.47,202.51L259.8,201.88L264.13,202.54L277.12,202.09L281.45,202.4L290.11,201.94L294.44,202.11L298.77,203.03L303.1,202.84L337.74,202L342.07,201.57L355.06,201.38L359.39,200.81L368.05,201.82L372.38,201.08L376.71,201.67L381.04,200.93L385.37,201.21L389.7,202.46L398.36,201.83L402.69,202.86L411.35,202.44L415.68,202.38L420.01,202.17L424.34,203.75L428.67,202.94L433,203.81L433,207.22L428.67,207.02L415.68,206.03L411.35,205.39L402.69,206.76L398.36,205.58L394.03,206.13L389.7,205.46L385.37,206.44L381.04,206.39L368.05,205.53L363.72,206.04L350.73,205.83L346.4,205.55L337.74,206.21L333.41,205.98L329.08,205.43L324.75,206.23L316.09,206.74L311.76,205.7L303.1,207.23L298.77,207.05L294.44,206.5L290.11,206.96L277.12,206.8L272.79,207.41L264.13,207.92L259.8,207.29L233.82,206.81L229.49,206.09L225.16,207.14L220.83,205.99L216.5,206.85L212.17,206.94L199.18,206.4L194.85,206.87L190.52,207.3L186.19,206.37L181.86,205.94L177.53,206.4L164.54,207.35L160.21,207.69L155.88,208.05L151.55,206.84L142.89,207.66L138.56,207.01L125.57,207.64L121.24,206.63L116.91,205.16L112.58,204.63L108.25,200.91L103.92,195.84L99.59,190.29L95.26,182.39L82.27,163.43L77.94,156.18L73.61,149.45L69.28,140.76L56.29,120.78L51.96,114.34L47.63,106.41L43.3,100.12L12.99,59.01L8.66,52.47L4.33,46.71L0,38.66Z" style="fill: rgb(248, 246, 139); fill-opacity: 1; stroke-width: 0;"/></g></g><g class="errorbars"/><g class="lines"><path class="js-line" d="M0,38.01L4.33,45.18L8.66,49.22L17.32,59.5L21.65,64.79L43.3,93.43L47.63,100.32L56.29,113.44L60.62,119.2L77.94,145.12L82.27,152.46L90.93,164.68L95.26,172.96L112.58,198.26L116.91,203.16L129.9,204.7L134.23,204.58L138.56,204.82L142.89,204.23L147.22,204.64L151.55,204.27L155.88,203.93L160.21,204.74L181.86,202.31L186.19,202.37L190.52,203.13L194.85,203.07L203.51,203.06L207.84,203.29L216.5,204.13L220.83,203.28L225.16,202.96L229.49,203.53L233.82,203.74L238.15,202.95L251.14,203.09L255.47,202.51L259.8,201.88L264.13,202.54L277.12,202.09L281.45,202.4L290.11,201.94L294.44,202.11L298.77,203.03L303.1,202.84L337.74,202L342.07,201.57L355.06,201.38L359.39,200.81L368.05,201.82L372.38,201.08L376.71,201.67L381.04,200.93L385.37,201.21L389.7,202.46L398.36,201.83L402.69,202.86L411.35,202.44L415.68,202.38L420.01,202.17L424.34,203.75L428.67,202.94L433,203.81L433,207.22L428.67,207.02L415.68,206.03L411.35,205.39L402.69,206.76L398.36,205.58L394.03,206.13L389.7,205.46L385.37,206.44L381.04,206.39L368.05,205.53L363.72,206.04L350.73,205.83L346.4,205.55L337.74,206.21L333.41,205.98L329.08,205.43L324.75,206.23L316.09,206.74L311.76,205.7L303.1,207.23L298.77,207.05L294.44,206.5L290.11,206.96L277.12,206.8L272.79,207.41L264.13,207.92L259.8,207.29L233.82,206.81L229.49,206.09L225.16,207.14L220.83,205.99L216.5,206.85L212.17,206.94L199.18,206.4L194.85,206.87L190.52,207.3L186.19,206.37L181.86,205.94L177.53,206.4L164.54,207.35L160.21,207.69L155.88,208.05L151.55,206.84L142.89,207.66L138.56,207.01L125.57,207.64L121.24,206.63L116.91,205.16L112.58,204.63L108.25,200.91L103.92,195.84L99.59,190.29L95.26,182.39L82.27,163.43L77.94,156.18L73.61,149.45L69.28,140.76L56.29,120.78L51.96,114.34L47.63,106.41L43.3,100.12L12.99,59.01L8.66,52.47L4.33,46.71L0,38.66" style="vector-effect: none; fill: none; stroke: rgb(0, 0, 0); stroke-opacity: 0; stroke-width: 2px; opacity: 1;"/></g><g class="points"/><g class="text"/></g></g></g></g><g class="zerolinelayer-above"/><path class="xlines-above crisp" d="M0,0" style="fill: none;"/><path class="ylines-above crisp" d="M0,0" style="fill: none;"/><g class="overlines-above"/><g class="xaxislayer-above"><g class="xtick"><text text-anchor="middle" x="0" y="333" transform="translate(80,0)" style="font-family: 'Open Sans', verdana, arial, sans-serif; font-size: 12px; fill: rgb(42, 63, 95); fill-opacity: 1; white-space: pre;">0</text></g><g class="xtick"><text text-anchor="middle" x="0" y="333" style="font-family: 'Open Sans', verdana, arial, sans-serif; font-size: 12px; fill: rgb(42, 63, 95); fill-opacity: 1; white-space: pre;" transform="translate(166.6,0)">1M</text></g><g class="xtick"><text text-anchor="middle" x="0" y="333" style="font-family: 'Open Sans', verdana, arial, sans-serif; font-size: 12px; fill: rgb(42, 63, 95); fill-opacity: 1; white-space: pre;" transform="translate(253.2,0)">2M</text></g><g class="xtick"><text text-anchor="middle" x="0" y="333" style="font-family: 'Open Sans', verdana, arial, sans-serif; font-size: 12px; fill: rgb(42, 63, 95); fill-opacity: 1; white-space: pre;" transform="translate(339.8,0)">3M</text></g><g class="xtick"><text text-anchor="middle" x="0" y="333" style="font-family: 'Open Sans', verdana, arial, sans-serif; font-size: 12px; fill: rgb(42, 63, 95); fill-opacity: 1; white-space: pre;" transform="translate(426.4,0)">4M</text></g><g class="xtick"><text text-anchor="middle" x="0" y="333" style="font-family: 'Open Sans', verdana, arial, sans-serif; font-size: 12px; fill: rgb(42, 63, 95); fill-opacity: 1; white-space: pre;" transform="translate(513,0)">5M</text></g></g><g class="yaxislayer-above"><g class="ytick"><text text-anchor="end" x="79" y="4.199999999999999" transform="translate(0,320)" style="font-family: 'Open Sans', verdana, arial, sans-serif; font-size: 12px; fill: rgb(42, 63, 95); fill-opacity: 1; white-space: pre;">100</text></g><g class="ytick"><text text-anchor="end" x="79" y="4.199999999999999" style="font-family: 'Open Sans', verdana, arial, sans-serif; font-size: 12px; fill: rgb(42, 63, 95); fill-opacity: 1; white-space: pre;" transform="translate(0,283.33000000000004)">200</text></g><g class="ytick"><text text-anchor="end" x="79" y="4.199999999999999" style="font-family: 'Open Sans', verdana, arial, sans-serif; font-size: 12px; fill: rgb(42, 63, 95); fill-opacity: 1; white-space: pre;" transform="translate(0,246.67)">300</text></g><g class="ytick"><text text-anchor="end" x="79" y="4.199999999999999" style="font-family: 'Open Sans', verdana, arial, sans-serif; font-size: 12px; fill: rgb(42, 63, 95); fill-opacity: 1; white-space: pre;" transform="translate(0,210)">400</text></g><g class="ytick"><text text-anchor="end" x="79" y="4.199999999999999" style="font-family: 'Open Sans', verdana, arial, sans-serif; font-size: 12px; fill: rgb(42, 63, 95); fill-opacity: 1; white-space: pre;" transform="translate(0,173.32999999999998)">500</text></g><g class="ytick"><text text-anchor="end" x="79" y="4.199999999999999" style="font-family: 'Open Sans', verdana, arial, sans-serif; font-size: 12px; fill: rgb(42, 63, 95); fill-opacity: 1; white-space: pre;" transform="translate(0,136.67000000000002)">600</text></g><g class="ytick"><text text-anchor="end" x="79" y="4.199999999999999" style="font-family: 'Open Sans', verdana, arial, sans-serif; font-size: 12px; fill: rgb(42, 63, 95); fill-opacity: 1; white-space: pre;" transform="translate(0,100)">700</text></g></g><g class="overaxes-above"/></g></g><g class="polarlayer"/><g class="smithlayer"/><g class="ternarylayer"/><g class="geolayer"/><g class="funnelarealayer"/><g class="pielayer"/><g class="iciclelayer"/><g class="treemaplayer"/><g class="sunburstlayer"/><g class="glimages"/><defs id="topdefs-77f920"><g class="clips"/><clipPath id="legend77f920"><rect width="66" height="219" x="0" y="0"/></clipPath></defs><g class="layer-above"><g class="imagelayer"/><g class="shapelayer"/></g><g class="infolayer"><g class="legend" pointer-events="all" transform="translate(521.6600000000001,100)"><rect class="bg" shape-rendering="crispEdges" style="stroke: rgb(68, 68, 68); stroke-opacity: 1; fill: rgb(255, 255, 255); fill-opacity: 1; stroke-width: 0px;" width="66" height="219" x="0" y="0"/><g class="scrollbox" transform="" clip-path="url(#legend77f920)"><g class="groups"><g class="traces" transform="translate(0,14.5)" style="opacity: 1;"><text class="legendtext" text-anchor="start" x="40" y="4.680000000000001" style="font-family: 'Open Sans', verdana, arial, sans-serif; font-size: 12px; fill: rgb(42, 63, 95); fill-opacity: 1; white-space: pre;">5</text><g class="layers" style="opacity: 1;"><g class="legendfill"/><g class="legendlines"><path class="js-line" d="M5,0h30" style="fill: none; stroke: rgb(231, 248, 191); stroke-opacity: 1; stroke-width: 2px;"/></g><g class="legendsymbols"><g class="legendpoints"/></g></g><rect class="legendtoggle" x="0" y="-9.5" width="60.72265625" height="19" style="fill: rgb(0, 0, 0); fill-opacity: 0;"/></g><g class="traces" transform="translate(0,33.5)" style="opacity: 1;"><text class="legendtext" text-anchor="start" x="40" y="4.680000000000001" style="font-family: 'Open Sans', verdana, arial, sans-serif; font-size: 12px; fill: rgb(42, 63, 95); fill-opacity: 1; white-space: pre;">12</text><g class="layers" style="opacity: 1;"><g class="legendfill"/><g class="legendlines"><path class="js-line" d="M5,0h30" style="fill: none; stroke: rgb(186, 227, 175); stroke-opacity: 1; stroke-width: 2px;"/></g><g class="legendsymbols"><g class="legendpoints"/></g></g><rect class="legendtoggle" x="0" y="-9.5" width="60.72265625" height="19" style="fill: rgb(0, 0, 0); fill-opacity: 0;"/></g><g class="traces" transform="translate(0,52.5)" style="opacity: 1;"><text class="legendtext" text-anchor="start" x="40" y="4.680000000000001" style="font-family: 'Open Sans', verdana, arial, sans-serif; font-size: 12px; fill: rgb(42, 63, 95); fill-opacity: 1; white-space: pre;">25</text><g class="layers" style="opacity: 1;"><g class="legendfill"/><g class="legendlines"><path class="js-line" d="M5,0h30" style="fill: none; stroke: rgb(99, 187, 157); stroke-opacity: 1; stroke-width: 2px;"/></g><g class="legendsymbols"><g class="legendpoints"/></g></g><rect class="legendtoggle" x="0" y="-9.5" width="60.72265625" height="19" style="fill: rgb(0, 0, 0); fill-opacity: 0;"/></g><g class="traces" transform="translate(0,71.5)" style="opacity: 1;"><text class="legendtext" text-anchor="start" x="40" y="4.680000000000001" style="font-family: 'Open Sans', verdana, arial, sans-serif; font-size: 12px; fill: rgb(42, 63, 95); fill-opacity: 1; white-space: pre;">38</text><g class="layers" style="opacity: 1;"><g class="legendfill"/><g class="legendlines"><path class="js-line" d="M5,0h30" style="fill: none; stroke: rgb(26, 144, 148); stroke-opacity: 1; stroke-width: 2px;"/></g><g class="legendsymbols"><g class="legendpoints"/></g></g><rect class="legendtoggle" x="0" y="-9.5" width="60.72265625" height="19" style="fill: rgb(0, 0, 0); fill-opacity: 0;"/></g><g class="traces" transform="translate(0,90.5)" style="opacity: 1;"><text class="legendtext" text-anchor="start" x="40" y="4.680000000000001" style="font-family: 'Open Sans', verdana, arial, sans-serif; font-size: 12px; fill: rgb(42, 63, 95); fill-opacity: 1; white-space: pre;">50</text><g class="layers" style="opacity: 1;"><g class="legendfill"/><g class="legendlines"><path class="js-line" d="M5,0h30" style="fill: none; stroke: rgb(0, 100, 136); stroke-opacity: 1; stroke-width: 2px;"/></g><g class="legendsymbols"><g class="legendpoints"/></g></g><rect class="legendtoggle" x="0" y="-9.5" width="60.72265625" height="19" style="fill: rgb(0, 0, 0); fill-opacity: 0;"/></g><g class="traces" transform="translate(0,109.5)" style="opacity: 1;"><text class="legendtext" text-anchor="start" x="40" y="4.680000000000001" style="font-family: 'Open Sans', verdana, arial, sans-serif; font-size: 12px; fill: rgb(42, 63, 95); fill-opacity: 1; white-space: pre;">62</text><g class="layers" style="opacity: 1;"><g class="legendfill"/><g class="legendlines"><path class="js-line" d="M5,0h30" style="fill: none; stroke: rgb(51, 51, 122); stroke-opacity: 1; stroke-width: 2px;"/></g><g class="legendsymbols"><g class="legendpoints"/></g></g><rect class="legendtoggle" x="0" y="-9.5" width="60.72265625" height="19" style="fill: rgb(0, 0, 0); fill-opacity: 0;"/></g><g class="traces" transform="translate(0,128.5)" style="opacity: 1;"><text class="legendtext" text-anchor="start" x="40" y="4.680000000000001" style="font-family: 'Open Sans', verdana, arial, sans-serif; font-size: 12px; fill: rgb(42, 63, 95); fill-opacity: 1; white-space: pre;">75</text><g class="layers" style="opacity: 1;"><g class="legendfill"/><g class="legendlines"><path class="js-line" d="M5,0h30" style="fill: none; stroke: rgb(120, 45, 128); stroke-opacity: 1; stroke-width: 2px;"/></g><g class="legendsymbols"><g class="legendpoints"/></g></g><rect class="legendtoggle" x="0" y="-9.5" width="60.72265625" height="19" style="fill: rgb(0, 0, 0); fill-opacity: 0;"/></g><g class="traces" transform="translate(0,147.5)" style="opacity: 1;"><text class="legendtext" text-anchor="start" x="40" y="4.680000000000001" style="font-family: 'Open Sans', verdana, arial, sans-serif; font-size: 12px; fill: rgb(42, 63, 95); fill-opacity: 1; white-space: pre;">88</text><g class="layers" style="opacity: 1;"><g class="legendfill"/><g class="legendlines"><path class="js-line" d="M5,0h30" style="fill: none; stroke: rgb(178, 83, 135); stroke-opacity: 1; stroke-width: 2px;"/></g><g class="legendsymbols"><g class="legendpoints"/></g></g><rect class="legendtoggle" x="0" y="-9.5" width="60.72265625" height="19" style="fill: rgb(0, 0, 0); fill-opacity: 0;"/></g><g class="traces" transform="translate(0,166.5)" style="opacity: 1;"><text class="legendtext" text-anchor="start" x="40" y="4.680000000000001" style="font-family: 'Open Sans', verdana, arial, sans-serif; font-size: 12px; fill: rgb(42, 63, 95); fill-opacity: 1; white-space: pre;">100</text><g class="layers" style="opacity: 1;"><g class="legendfill"/><g class="legendlines"><path class="js-line" d="M5,0h30" style="fill: none; stroke: rgb(218, 130, 128); stroke-opacity: 1; stroke-width: 2px;"/></g><g class="legendsymbols"><g class="legendpoints"/></g></g><rect class="legendtoggle" x="0" y="-9.5" width="60.72265625" height="19" style="fill: rgb(0, 0, 0); fill-opacity: 0;"/></g><g class="traces" transform="translate(0,185.5)" style="opacity: 1;"><text class="legendtext" text-anchor="start" x="40" y="4.680000000000001" style="font-family: 'Open Sans', verdana, arial, sans-serif; font-size: 12px; fill: rgb(42, 63, 95); fill-opacity: 1; white-space: pre;">112</text><g class="layers" style="opacity: 1;"><g class="legendfill"/><g class="legendlines"><path class="js-line" d="M5,0h30" style="fill: none; stroke: rgb(242, 184, 120); stroke-opacity: 1; stroke-width: 2px;"/></g><g class="legendsymbols"><g class="legendpoints"/></g></g><rect class="legendtoggle" x="0" y="-9.5" width="60.72265625" height="19" style="fill: rgb(0, 0, 0); fill-opacity: 0;"/></g><g class="traces" transform="translate(0,204.5)" style="opacity: 1;"><text class="legendtext" text-anchor="start" x="40" y="4.680000000000001" style="font-family: 'Open Sans', verdana, arial, sans-serif; font-size: 12px; fill: rgb(42, 63, 95); fill-opacity: 1; white-space: pre;">125</text><g class="layers" style="opacity: 1;"><g class="legendfill"/><g class="legendlines"><path class="js-line" d="M5,0h30" style="fill: none; stroke: rgb(248, 246, 139); stroke-opacity: 1; stroke-width: 2px;"/></g><g class="legendsymbols"><g class="legendpoints"/></g></g><rect class="legendtoggle" x="0" y="-9.5" width="60.72265625" height="19" style="fill: rgb(0, 0, 0); fill-opacity: 0;"/></g></g></g><rect class="scrollbar" rx="20" ry="3" width="0" height="0" style="fill: rgb(128, 139, 164); fill-opacity: 1;" x="0" y="0"/></g><g class="g-gtitle"/><g class="g-xtitle"><text class="xtitle" x="296.5" y="361.3" text-anchor="middle" style="opacity: 1; font-family: 'Open Sans', verdana, arial, sans-serif; font-size: 14px; fill: rgb(42, 63, 95); fill-opacity: 1; white-space: pre;">time</text></g><g class="g-ytitle"><text class="ytitle" transform="rotate(-90,39.00625,210)" x="39.00625" y="210" text-anchor="middle" style="opacity: 1; font-family: 'Open Sans', verdana, arial, sans-serif; font-size: 14px; fill: rgb(42, 63, 95); fill-opacity: 1; white-space: pre;">distance to peak</text></g></g></svg>