<svg class="main-svg" xmlns="http://www.w3.org/2000/svg" xmlns:xlink="http://www.w3.org/1999/xlink" width="600" height="400" style="" viewBox="0 0 600 400"><rect x="0" y="0" width="600" height="400" style="fill: rgb(255, 255, 255); fill-opacity: 1;"/><defs id="defs-e5e62a"><g class="clips"><clipPath id="clipe5e62axyplot" class="plotclip"><rect width="440" height="220"/></clipPath><clipPath class="axesclip" id="clipe5e62ax"><rect x="80" y="0" width="440" height="400"/></clipPath><clipPath class="axesclip" id="clipe5e62ay"><rect x="0" y="100" width="600" height="220"/></clipPath><clipPath class="axesclip" id="clipe5e62axy"><rect x="80" y="100" width="440" height="220"/></clipPath></g><g class="gradients"/><g class="patterns"/></defs><g class="bglayer"/><g class="layer-below"><g class="imagelayer"/><g class="shapelayer"/></g><g class="cartesianlayer"><g class="subplot xy"><g class="layer-subplot"><g class="shapelayer"/><g class="imagelayer"/></g><g class="minor-gridlayer"><g class="x"/><g class="y"/></g><g class="gridlayer"><g class="x"><path class="xgrid crisp" transform="translate(168,0)" d="M0,100v220" style="stroke: rgb(235, 240, 248); stroke-opacity: 1; stroke-width: 1px;"/><path class="xgrid crisp" transform="translate(256,0)" d="M0,100v220" style="stroke: rgb(235, 240, 248); stroke-opacity: 1; stroke-width: 1px;"/><path class="xgrid crisp" transform="translate(344,0)" d="M0,100v220" style="stroke: rgb(235, 240, 248); stroke-opacity: 1; stroke-width: 1px;"/><path class="xgrid crisp" transform="translate(432,0)" d="M0,100v220" style="stroke: rgb(235, 240, 248); stroke-opacity: 1; stroke-width: 1px;"/></g><g class="y"><path class="ygrid crisp" transform="translate(0,283.33000000000004)" d="M80,0h440" style="stroke: rgb(235, 240, 248); stroke-opacity: 1; stroke-width: 1px;"/><path class="ygrid crisp" transform="translate(0,246.67)" d="M80,0h440" style="stroke: rgb(235, 240, 248); stroke-opacity: 1; stroke-width: 1px;"/><path class="ygrid crisp" transform="translate(0,210)" d="M80,0h440" style="stroke: rgb(235, 240, 248); stroke-opacity: 1; stroke-width: 1px;"/><path class="ygrid crisp" transform="translate(0,173.32999999999998)" d="M80,0h440" style="stroke: rgb(235, 240, 248); stroke-opacity: 1; stroke-width: 1px;"/><path class="ygrid crisp" transform="translate(0,136.67000000000002)" d="M80,0h440" style="stroke: rgb(235, 240, 248); stroke-opacity: 1; stroke-width: 1px;"/></g></g><g class="zerolinelayer"><path class="xzl zl crisp" transform="translate(80,0)" d="M0,100v220" style="stroke: rgb(235, 240, 248); stroke-opacity: 1; stroke-width: 2px;"/></g><g class="layer-between"><g class="shapelayer"/><g class="imagelayer"/></g><path class="xlines-below"/><path class="ylines-below"/><g class="overlines-below"/><g class="xaxislayer-below"/><g class="yaxislayer-below"/><g class="overaxes-below"/><g class="overplot"><g class="xy" transform="translate(80,100)" clip-path="url(#clipe5e62axyplot)"><g class="scatterlayer mlayer"><g class="trace scatter tracec73ab4" style="stroke-miterlimit: 2; opacity: 1;"><g class="fills"/><g class="errorbars"/><g class="lines"><path class="js-line" d="M0,31.51L4.4,51.42L8.8,64.47L22,90.96L26.4,95.43L30.8,101.02L35.2,103.01L39.6,106.67L44,107.22L48.4,108.46L52.8,110.74L61.6,111.04L66,109.48L74.8,110.72L79.2,108.85L92.4,111.62L96.8,111.63L110,111.63L114.4,111.46L140.8,111.7L145.2,111.13L149.6,112.53L154,110.98L158.4,112.05L162.8,109.89L176,114.28L180.4,112.97L184.8,111.56L189.2,111.4L193.6,112.53L198,111.33L220,110.87L224.4,111.78L228.8,112L233.2,111.26L237.6,112.47L242,111.24L246.4,110.88L250.8,111.75L259.6,109.58L264,110.66L268.4,111.47L272.8,113.49L277.2,113.35L281.6,111.67L290.4,111.93L294.8,112.06L303.6,113.1L308,113.62L316.8,109.31L321.2,109.72L325.6,110.32L330,111.77L343.2,109.71L347.6,110.99L356.4,114.43L360.8,113.82L365.2,113.65L369.6,114.71L374,113.97L378.4,111.22L382.8,113.52L387.2,111.98L391.6,112.08L396,111.05L418,112.49L422.4,113.98L431.2,111.47L435.6,111.28L440,113.54" style="vector-effect: none; fill: none; stroke: rgb(231, 248, 191); stroke-opacity: 1; stroke-width: 2px; opacity: 1;"/></g><g class="points"/><g class="text"/></g><g class="trace scatter trace361de6" style="stroke-miterlimit: 2; opacity: 0.3;"><g class="fills"><g><path class="js-fill" d="M0,31.51L4.4,49.1L8.8,61.09L13.2,68.31L17.6,79.44L22,87.56L26.4,91.96L30.8,97.7L35.2,99.35L39.6,102.67L44,102.22L48.4,102.97L52.8,105.37L61.6,107.09L66,105.48L70.4,104.88L74.8,106.8L79.2,105.26L83.6,105.05L92.4,106.76L96.8,106.72L101.2,107.83L105.6,107.47L110,105.81L114.4,105.76L118.8,105.02L123.2,106.92L127.6,107.02L132,108.14L140.8,107.5L145.2,105.74L149.6,107.73L154,106.13L158.4,106.67L162.8,105.35L167.2,107.68L171.6,107.17L176,108.41L180.4,106.36L189.2,105.82L193.6,107.43L198,105.84L202.4,106.47L206.8,105.52L211.2,106.14L215.6,107.94L220,107.49L224.4,107.36L228.8,108.34L233.2,107.49L237.6,108.47L246.4,106.01L250.8,106.4L255.2,104.37L259.6,105.01L264,106.31L268.4,108.68L272.8,109.37L277.2,109.28L281.6,107.38L286,107.46L290.4,106.29L294.8,106.53L299.2,106.46L303.6,107.78L308,109.62L312.4,105.34L316.8,103.36L321.2,105.08L330,106.82L334.4,105.9L338.8,105.86L343.2,104.31L347.6,105.61L352,108.43L365.2,109.1L369.6,110.85L374,109.91L378.4,107.83L382.8,110.24L387.2,109.6L391.6,107.01L396,107.05L404.8,107.26L409.2,107.31L413.6,106.79L418,108.64L422.4,109.69L426.8,108.57L431.2,106.67L435.6,107.4L440,107.31L440,119.77L435.6,115.16L431.2,116.27L426.8,116.77L422.4,118.27L418,116.35L413.6,117.42L409.2,116.3L404.8,116.76L396,115.05L391.6,117.14L387.2,114.36L382.8,116.8L378.4,114.61L374,118.02L369.6,118.58L365.2,118.21L360.8,118.62L356.4,120.08L352,116.44L347.6,116.37L343.2,115.11L338.8,116.01L330,116.71L325.6,114.9L321.2,114.36L316.8,115.26L312.4,116.94L308,117.62L303.6,118.42L299.2,118.07L290.4,117.56L286,115.63L281.6,115.97L277.2,117.42L272.8,117.61L268.4,114.27L264,115.02L259.6,114.14L255.2,117.45L250.8,117.1L242,115.14L237.6,116.47L233.2,115.04L228.8,115.65L224.4,116.19L220,114.26L215.6,114.5L211.2,117.05L202.4,115.9L198,116.82L193.6,117.63L189.2,116.98L184.8,117.04L180.4,119.58L176,120.16L171.6,117.25L167.2,115.11L162.8,114.43L158.4,117.44L154,115.83L149.6,117.32L145.2,116.53L132,114.81L127.6,116.03L123.2,116.61L118.8,118.23L114.4,117.16L110,117.44L101.2,115.93L96.8,116.54L92.4,116.49L88,114.02L83.6,114.62L79.2,112.43L74.8,114.64L70.4,115.85L66,113.49L61.6,114.99L57.2,114.83L52.8,116.11L44,112.22L39.6,110.67L35.2,106.68L30.8,104.33L22,94.37L17.6,86.66L8.8,67.84L4.4,53.74L0,31.51Z" style="fill: rgb(231, 248, 191); fill-opacity: 1; stroke-width: 0;"/></g></g><g class="errorbars"/><g class="lines"><path class="js-line" d="M0,31.51L4.4,49.1L8.8,61.09L13.2,68.31L17.6,79.44L22,87.56L26.4,91.96L30.8,97.7L35.2,99.35L39.6,102.67L44,102.22L48.4,102.97L52.8,105.37L61.6,107.09L66,105.48L70.4,104.88L74.8,106.8L79.2,105.26L83.6,105.05L92.4,106.76L96.8,106.72L101.2,107.83L105.6,107.47L110,105.81L114.4,105.76L118.8,105.02L123.2,106.92L127.6,107.02L132,108.14L140.8,107.5L145.2,105.74L149.6,107.73L154,106.13L158.4,106.67L162.8,105.35L167.2,107.68L171.6,107.17L176,108.41L180.4,106.36L189.2,105.82L193.6,107.43L198,105.84L202.4,106.47L206.8,105.52L211.2,106.14L215.6,107.94L220,107.49L224.4,107.36L228.8,108.34L233.2,107.49L237.6,108.47L246.4,106.01L250.8,106.4L255.2,104.37L259.6,105.01L264,106.31L268.4,108.68L272.8,109.37L277.2,109.28L281.6,107.38L286,107.46L290.4,106.29L294.8,106.53L299.2,106.46L303.6,107.78L308,109.62L312.4,105.34L316.8,103.36L321.2,105.08L330,106.82L334.4,105.9L338.8,105.86L343.2,104.31L347.6,105.61L352,108.43L365.2,109.1L369.6,110.85L374,109.91L378.4,107.83L382.8,110.24L387.2,109.6L391.6,107.01L396,107.05L404.8,107.26L409.2,107.31L413.6,106.79L418,108.64L422.4,109.69L426.8,108.57L431.2,106.67L435.6,107.4L440,107.31L440,119.77L435.6,115.16L431.2,116.27L426.8,116.77L422.4,118.27L418,116.35L413.6,117.42L409.2,116.3L404.8,116.76L396,115.05L391.6,117.14L387.2,114.36L382.8,116.8L378.4,114.61L374,118.02L369.6,118.58L365.2,118.21L360.8,118.62L356.4,120.08L352,116.44L347.6,116.37L343.2,115.11L338.8,116.01L330,116.71L325.6,114.9L321.2,114.36L316.8,115.26L312.4,116.94L308,117.62L303.6,118.42L299.2,118.07L290.4,117.56L286,115.63L281.6,115.97L277.2,117.42L272.8,117.61L268.4,114.27L264,115.02L259.6,114.14L255.2,117.45L250.8,117.1L242,115.14L237.6,116.47L233.2,115.04L228.8,115.65L224.4,116.19L220,114.26L215.6,114.5L211.2,117.05L202.4,115.9L198,116.82L193.6,117.63L189.2,116.98L184.8,117.04L180.4,119.58L176,120.16L171.6,117.25L167.2,115.11L162.8,114.43L158.4,117.44L154,115.83L149.6,117.32L145.2,116.53L132,114.81L127.6,116.03L123.2,116.61L118.8,118.23L114.4,117.16L110,117.44L101.2,115.93L96.8,116.54L92.4,116.49L88,114.02L83.6,114.62L79.2,112.43L74.8,114.64L70.4,115.85L66,113.49L61.6,114.99L57.2,114.83L52.8,116.11L44,112.22L39.6,110.67L35.2,106.68L30.8,104.33L22,94.37L17.6,86.66L8.8,67.84L4.4,53.74L0,31.51" style="vector-effect: none; fill: none; stroke: rgb(0, 0, 0); stroke-opacity: 0; stroke-width: 2px; opacity: 1;"/></g><g class="points"/><g class="text"/></g><g class="trace scatter trace3e6b83" style="stroke-miterlimit: 2; opacity: 1;"><g class="fills"/><g class="errorbars"/><g class="lines"><path class="js-line" d="M0,31.51L4.4,45.65L8.8,53.27L22,73.8L26.4,79.7L30.8,84.78L35.2,88.1L48.4,97.29L52.8,100.24L61.6,103.4L66,105.53L79.2,106.79L83.6,108.36L88,107.88L92.4,109.34L96.8,109.1L101.2,110.69L105.6,111.01L110,112.23L114.4,110.75L118.8,110.67L123.2,109.27L127.6,110.8L132,112.57L136.4,111.39L140.8,111.78L145.2,110.47L149.6,111.67L154,112.01L158.4,110.25L162.8,111.23L180.4,109.87L184.8,110.36L202.4,111.9L206.8,111.12L211.2,109.85L215.6,111.79L233.2,113.69L237.6,113.37L242,114.8L246.4,114.99L250.8,113.69L255.2,114.48L264,111.21L268.4,111.27L272.8,113.81L277.2,114.19L281.6,113.58L286,114.56L299.2,114.04L303.6,115.33L308,114.13L312.4,115.1L316.8,115.95L321.2,113.76L330,112.74L334.4,111.36L338.8,110.18L343.2,109.89L347.6,111.25L352,111.53L360.8,113.1L365.2,111.5L374,111.4L378.4,109.45L391.6,109.13L396,111.66L400.4,110.77L404.8,111.9L409.2,112.04L413.6,111.42L422.4,110.3L426.8,110.38L431.2,111.77L435.6,111.07L440,111.54" style="vector-effect: none; fill: none; stroke: rgb(152, 213, 164); stroke-opacity: 1; stroke-width: 2px; opacity: 1;"/></g><g class="points"/><g class="text"/></g><g class="trace scatter trace98ad7d" style="stroke-miterlimit: 2; opacity: 0.3;"><g class="fills"><g><path class="js-fill" d="M0,31.51L4.4,44.31L8.8,51.04L26.4,75.96L30.8,80.18L44,87.66L48.4,92.02L52.8,96.55L57.2,97.08L61.6,99.31L66,100.11L70.4,100.12L74.8,101.6L83.6,102.18L88,101.72L92.4,103.88L96.8,102.83L101.2,105.43L105.6,105.07L110,105.92L114.4,104.29L118.8,106.98L123.2,107.04L136.4,105.66L140.8,107.42L145.2,105.63L149.6,106.01L158.4,104.98L162.8,105.91L167.2,105.58L171.6,108.39L180.4,104.24L184.8,105.12L193.6,104.39L198,105.88L202.4,107.77L206.8,104.99L211.2,102.99L215.6,103.62L220,106.75L224.4,105.94L228.8,107.79L233.2,106.09L237.6,106.57L242,109.6L246.4,109.79L250.8,107.78L255.2,109.33L259.6,107.7L264,106.41L268.4,107.14L272.8,108.44L277.2,108.7L281.6,109.01L286,108.52L294.8,108.26L299.2,109.92L303.6,110.25L308,109.16L312.4,110.51L316.8,109.49L321.2,106.18L325.6,108.9L330,110.02L334.4,107.88L343.2,104.57L347.6,107.44L360.8,108.95L365.2,106.51L374,106.11L378.4,103.46L382.8,103.44L387.2,105.28L391.6,105.1L396,106.9L400.4,107.77L404.8,107.68L413.6,107.53L418,107.33L422.4,107.56L426.8,106.25L431.2,106.96L435.6,106.36L440,105.96L440,117.13L435.6,115.79L431.2,116.58L422.4,113.03L418,114.17L409.2,116.14L404.8,116.11L400.4,113.78L396,116.43L391.6,113.17L387.2,112.78L382.8,115.58L378.4,115.44L374,116.69L369.6,115.87L360.8,117.25L356.4,116.98L352,115.12L347.6,115.05L343.2,115.21L338.8,114.31L330,115.45L325.6,117.69L321.2,121.33L316.8,122.41L312.4,119.7L308,119.1L303.6,120.42L299.2,118.16L294.8,118.72L290.4,120.32L286,120.6L281.6,118.15L277.2,119.68L272.8,119.19L268.4,115.4L264,116.01L259.6,117.26L255.2,119.63L237.6,120.16L233.2,121.3L228.8,118.64L224.4,120.36L220,118.12L215.6,119.95L211.2,116.71L206.8,117.25L202.4,116.02L198,117.46L189.2,116.84L184.8,115.6L180.4,115.5L176,114.29L171.6,113.44L167.2,115.89L162.8,116.55L158.4,115.51L154,118.3L149.6,117.34L145.2,115.31L140.8,116.14L136.4,117.12L132,118.92L123.2,111.49L118.8,114.36L114.4,117.21L110,118.53L101.2,115.95L96.8,115.38L88,114.05L83.6,114.54L79.2,111.55L74.8,111.94L70.4,111.99L66,110.95L61.6,107.48L57.2,105.84L44,100.23L39.6,96.98L30.8,89.39L26.4,83.45L17.6,71.14L13.2,64.09L4.4,47L0,31.51Z" style="fill: rgb(152, 213, 164); fill-opacity: 1; stroke-width: 0;"/></g></g><g class="errorbars"/><g class="lines"><path class="js-line" d="M0,31.51L4.4,44.31L8.8,51.04L26.4,75.96L30.8,80.18L44,87.66L48.4,92.02L52.8,96.55L57.2,97.08L61.6,99.31L66,100.11L70.4,100.12L74.8,101.6L83.6,102.18L88,101.72L92.4,103.88L96.8,102.83L101.2,105.43L105.6,105.07L110,105.92L114.4,104.29L118.8,106.98L123.2,107.04L136.4,105.66L140.8,107.42L145.2,105.63L149.6,106.01L158.4,104.98L162.8,105.91L167.2,105.58L171.6,108.39L180.4,104.24L184.8,105.12L193.6,104.39L198,105.88L202.4,107.77L206.8,104.99L211.2,102.99L215.6,103.62L220,106.75L224.4,105.94L228.8,107.79L233.2,106.09L237.6,106.57L242,109.6L246.4,109.79L250.8,107.78L255.2,109.33L259.6,107.7L264,106.41L268.4,107.14L272.8,108.44L277.2,108.7L281.6,109.01L286,108.52L294.8,108.26L299.2,109.92L303.6,110.25L308,109.16L312.4,110.51L316.8,109.49L321.2,106.18L325.6,108.9L330,110.02L334.4,107.88L343.2,104.57L347.6,107.44L360.8,108.95L365.2,106.51L374,106.11L378.4,103.46L382.8,103.44L387.2,105.28L391.6,105.1L396,106.9L400.4,107.77L404.8,107.68L413.6,107.53L418,107.33L422.4,107.56L426.8,106.25L431.2,106.96L435.6,106.36L440,105.96L440,117.13L435.6,115.79L431.2,116.58L422.4,113.03L418,114.17L409.2,116.14L404.8,116.11L400.4,113.78L396,116.43L391.6,113.17L387.2,112.78L382.8,115.58L378.4,115.44L374,116.69L369.6,115.87L360.8,117.25L356.4,116.98L352,115.12L347.6,115.05L343.2,115.21L338.8,114.31L330,115.45L325.6,117.69L321.2,121.33L316.8,122.41L312.4,119.7L308,119.1L303.6,120.42L299.2,118.16L294.8,118.72L290.4,120.32L286,120.6L281.6,118.15L277.2,119.68L272.8,119.19L268.4,115.4L264,116.01L259.6,117.26L255.2,119.63L237.6,120.16L233.2,121.3L228.8,118.64L224.4,120.36L220,118.12L215.6,119.95L211.2,116.71L206.8,117.25L202.4,116.02L198,117.46L189.2,116.84L184.8,115.6L180.4,115.5L176,114.29L171.6,113.44L167.2,115.89L162.8,116.55L158.4,115.51L154,118.3L149.6,117.34L145.2,115.31L140.8,116.14L136.4,117.12L132,118.92L123.2,111.49L118.8,114.36L114.4,117.21L110,118.53L101.2,115.95L96.8,115.38L88,114.05L83.6,114.54L79.2,111.55L74.8,111.94L70.4,111.99L66,110.95L61.6,107.48L57.2,105.84L44,100.23L39.6,96.98L30.8,89.39L26.4,83.45L17.6,71.14L13.2,64.09L4.4,47L0,31.51" style="vector-effect: none; fill: none; stroke: rgb(0, 0, 0); stroke-opacity: 0; stroke-width: 2px; opacity: 1;"/></g><g class="points"/><g class="text"/></g><g class="trace scatter trace01ee84" style="stroke-miterlimit: 2; opacity: 1;"><g class="fills"/><g class="errorbars"/><g class="lines"><path class="js-line" d="M0,31.51L4.4,44.39L8.8,51.83L17.6,66.2L22,71.53L30.8,83.07L35.2,88.69L39.6,93.55L44,97.19L48.4,100.4L52.8,100.78L57.2,103.61L61.6,104.25L66,106.28L70.4,106.41L79.2,106.35L83.6,108.28L88,108.82L92.4,110.17L101.2,112.21L105.6,111.76L110,110.02L114.4,110.02L123.2,110.03L127.6,109.73L132,111.86L136.4,110.69L149.6,110.09L154,110.64L158.4,109.74L162.8,110.38L167.2,111.49L171.6,111.21L180.4,108.96L184.8,108.97L189.2,107.86L193.6,110.63L206.8,113.18L211.2,112.54L215.6,111.17L220,110.83L224.4,109.71L228.8,109.58L233.2,109.87L237.6,111.32L250.8,109.24L255.2,109.55L268.4,108.09L272.8,106.65L277.2,108.43L281.6,108.73L286,109.21L290.4,107.44L294.8,110.02L299.2,110.12L303.6,108.98L308,109.91L312.4,110.56L316.8,110.24L325.6,110.17L330,110.82L334.4,110.95L338.8,112.01L343.2,112.82L347.6,112.33L356.4,111.42L360.8,110.16L365.2,111.24L369.6,111.25L374,110.2L378.4,110.29L382.8,111.26L387.2,111.18L391.6,110.98L396,112.22L400.4,109.87L404.8,111.43L409.2,110.36L413.6,111.36L418,111.4L422.4,112.41L426.8,113.45L431.2,111.56L435.6,110.67L440,111.18" style="vector-effect: none; fill: none; stroke: rgb(63, 175, 153); stroke-opacity: 1; stroke-width: 2px; opacity: 1;"/></g><g class="points"/><g class="text"/></g><g class="trace scatter trace2f54cc" style="stroke-miterlimit: 2; opacity: 0.3;"><g class="fills"><g><path class="js-fill" d="M0,31.51L4.4,43.44L8.8,49.78L13.2,55.58L17.6,62.67L35.2,84.88L39.6,87.73L44,93.42L48.4,96.99L52.8,96.59L57.2,99.76L61.6,99.87L66,101.01L70.4,101.34L74.8,100.44L79.2,100.42L83.6,102.02L88,102.69L92.4,104.63L101.2,107.51L105.6,106.56L110,106.74L114.4,104.3L118.8,104.58L123.2,105.77L127.6,106.2L132,108.24L136.4,106.8L140.8,107.72L149.6,105.45L154,105.81L158.4,104.93L162.8,105.04L167.2,107.45L171.6,106.63L176,105.96L180.4,104.09L193.6,104.84L198,106.23L202.4,105.76L206.8,107.52L211.2,105.38L215.6,105.24L224.4,102.75L228.8,103.32L233.2,102.95L237.6,104.87L242,104.5L246.4,102.21L250.8,103.25L255.2,105.11L259.6,105.13L264,103.58L272.8,102.01L277.2,104.19L281.6,104.68L286,104.35L290.4,103.1L294.8,105.49L299.2,106.45L303.6,103.87L312.4,106.27L316.8,105.07L338.8,104.64L343.2,106.12L347.6,105.38L352,106.23L356.4,105.32L360.8,106.11L365.2,106.48L369.6,105.84L374,103.77L378.4,103.9L382.8,104.5L387.2,104.33L396,106.19L400.4,105.24L404.8,107.54L409.2,105.39L413.6,107.28L418,107.55L422.4,107.55L426.8,108.86L431.2,105.87L435.6,107.47L440,105.76L440,116.6L435.6,113.86L431.2,117.25L426.8,118.04L422.4,117.28L418,115.24L413.6,115.43L400.4,114.51L396,118.25L391.6,116.32L387.2,118.03L382.8,118.02L378.4,116.68L365.2,116L360.8,114.21L356.4,117.51L352,118.05L347.6,119.28L343.2,119.51L338.8,119.38L334.4,117.2L330,116.71L325.6,115.38L321.2,114.91L316.8,115.4L299.2,113.78L294.8,114.56L290.4,111.78L286,114.08L281.6,112.78L277.2,112.66L272.8,111.29L268.4,113.35L259.6,112.9L255.2,113.99L246.4,116.63L242,116.7L237.6,117.77L233.2,116.78L228.8,115.85L224.4,116.67L220,117.49L215.6,117.1L211.2,119.7L206.8,118.84L202.4,119.69L198,117.16L193.6,116.43L189.2,111.62L184.8,113.59L180.4,113.84L176,113.84L171.6,115.78L162.8,115.71L158.4,114.56L154,115.47L149.6,114.72L145.2,114.58L140.8,113.24L132,115.48L127.6,113.26L114.4,115.74L110,113.31L105.6,116.95L101.2,116.91L83.6,114.54L79.2,112.28L66,111.55L61.6,108.64L57.2,107.45L52.8,104.97L48.4,103.81L44,100.95L39.6,99.37L35.2,92.49L30.8,87.58L26.4,81.35L13.2,61.98L8.8,53.88L4.4,45.34L0,31.51Z" style="fill: rgb(63, 175, 153); fill-opacity: 1; stroke-width: 0;"/></g></g><g class="errorbars"/><g class="lines"><path class="js-line" d="M0,31.51L4.4,43.44L8.8,49.78L13.2,55.58L17.6,62.67L35.2,84.88L39.6,87.73L44,93.42L48.4,96.99L52.8,96.59L57.2,99.76L61.6,99.87L66,101.01L70.4,101.34L74.8,100.44L79.2,100.42L83.6,102.02L88,102.69L92.4,104.63L101.2,107.51L105.6,106.56L110,106.74L114.4,104.3L118.8,104.58L123.2,105.77L127.6,106.2L132,108.24L136.4,106.8L140.8,107.72L149.6,105.45L154,105.81L158.4,104.93L162.8,105.04L167.2,107.45L171.6,106.63L176,105.96L180.4,104.09L193.6,104.84L198,106.23L202.4,105.76L206.8,107.52L211.2,105.38L215.6,105.24L224.4,102.75L228.8,103.32L233.2,102.95L237.6,104.87L242,104.5L246.4,102.21L250.8,103.25L255.2,105.11L259.6,105.13L264,103.58L272.8,102.01L277.2,104.19L281.6,104.68L286,104.35L290.4,103.1L294.8,105.49L299.2,106.45L303.6,103.87L312.4,106.27L316.8,105.07L338.8,104.64L343.2,106.12L347.6,105.38L352,106.23L356.4,105.32L360.8,106.11L365.2,106.48L369.6,105.84L374,103.77L378.4,103.9L382.8,104.5L387.2,104.33L396,106.19L400.4,105.24L404.8,107.54L409.2,105.39L413.6,107.28L418,107.55L422.4,107.55L426.8,108.86L431.2,105.87L435.6,107.47L440,105.76L440,116.6L435.6,113.86L431.2,117.25L426.8,118.04L422.4,117.28L418,115.24L413.6,115.43L400.4,114.51L396,118.25L391.6,116.32L387.2,118.03L382.8,118.02L378.4,116.68L365.2,116L360.8,114.21L356.4,117.51L352,118.05L347.6,119.28L343.2,119.51L338.8,119.38L334.4,117.2L330,116.71L325.6,115.38L321.2,114.91L316.8,115.4L299.2,113.78L294.8,114.56L290.4,111.78L286,114.08L281.6,112.78L277.2,112.66L272.8,111.29L268.4,113.35L259.6,112.9L255.2,113.99L246.4,116.63L242,116.7L237.6,117.77L233.2,116.78L228.8,115.85L224.4,116.67L220,117.49L215.6,117.1L211.2,119.7L206.8,118.84L202.4,119.69L198,117.16L193.6,116.43L189.2,111.62L184.8,113.59L180.4,113.84L176,113.84L171.6,115.78L162.8,115.71L158.4,114.56L154,115.47L149.6,114.72L145.2,114.58L140.8,113.24L132,115.48L127.6,113.26L114.4,115.74L110,113.31L105.6,116.95L101.2,116.91L83.6,114.54L79.2,112.28L66,111.55L61.6,108.64L57.2,107.45L52.8,104.97L48.4,103.81L44,100.95L39.6,99.37L35.2,92.49L30.8,87.58L26.4,81.35L13.2,61.98L8.8,53.88L4.4,45.34L0,31.51" style="vector-effect: none; fill: none; stroke: rgb(0, 0, 0); stroke-opacity: 0; stroke-width: 2px; opacity: 1;"/></g><g class="points"/><g class="text"/></g><g class="trace scatter tracea0876a" style="stroke-miterlimit: 2; opacity: 1;"><g class="fills"/><g class="errorbars"/><g class="lines"><path class="js-line" d="M0,31.51L4.4,43.34L8.8,49.97L39.6,96.94L44,102.6L48.4,108.63L52.8,112.45L57.2,118.48L61.6,122.87L70.4,126.42L74.8,129.8L79.2,132.78L83.6,132.91L88,134.18L92.4,132.68L105.6,131.19L110,128.92L114.4,129.09L118.8,128.32L123.2,125.88L127.6,126.09L132,125.89L136.4,124.34L149.6,123.62L154,122.03L158.4,123.19L162.8,123.49L171.6,124.02L176,125.62L180.4,124.97L184.8,125.87L189.2,123.85L193.6,125.85L198,127.51L202.4,125.31L206.8,125.46L211.2,123.16L215.6,122.4L220,123L224.4,121.23L228.8,120.73L237.6,120.19L242,119.69L246.4,120.14L250.8,119.08L259.6,121.41L264,120.07L268.4,120.36L272.8,121.46L277.2,122.97L281.6,122.92L290.4,122.12L294.8,122.86L303.6,124.89L308,124.02L316.8,122.65L321.2,121.87L325.6,122.43L330,124.22L343.2,124.02L347.6,124.96L352,125.47L356.4,124.08L360.8,125.3L365.2,123.62L374,120.34L378.4,119.95L382.8,119.68L387.2,120.31L391.6,119.94L396,121.04L400.4,120.8L404.8,121.35L413.6,122.19L418,122.12L422.4,121.6L426.8,122.37L435.6,122.82L440,121.21" style="vector-effect: none; fill: none; stroke: rgb(0, 134, 146); stroke-opacity: 1; stroke-width: 2px; opacity: 1;"/></g><g class="points"/><g class="text"/></g><g class="trace scatter trace363ad6" style="stroke-miterlimit: 2; opacity: 0.3;"><g class="fills"><g><path class="js-fill" d="M0,31.51L4.4,42.28L8.8,48.68L26.4,75.64L30.8,82.35L48.4,106.2L52.8,110.28L61.6,118.89L66,121.51L70.4,121.48L74.8,122.98L79.2,125.55L83.6,125.59L88,126.21L92.4,125.01L96.8,122.66L101.2,122.4L105.6,123.27L110,122.22L114.4,121.92L118.8,120.15L123.2,117.41L127.6,118.06L132,119.13L136.4,118.21L140.8,119.5L145.2,119.69L154,117.46L158.4,118.34L171.6,117.12L176,118.64L180.4,118.61L184.8,121.88L189.2,119.82L193.6,120.51L198,123.31L202.4,121.23L206.8,121.86L211.2,118.15L215.6,116.81L220,117.38L228.8,115.21L233.2,114.86L237.6,115.02L242,113.61L246.4,115.33L250.8,112.84L259.6,116.43L264,113.15L272.8,114.53L277.2,116.52L290.4,116.24L294.8,116.64L303.6,120.11L308,119.48L312.4,119.2L316.8,118.07L321.2,116.51L325.6,117.12L334.4,119.18L338.8,117.49L347.6,120.15L352,120.71L356.4,117.2L360.8,119.46L365.2,118.82L369.6,114.85L374,115.66L378.4,113.48L387.2,114.24L391.6,114.44L396,116.31L400.4,116.34L404.8,115.35L409.2,116.67L413.6,115.66L418,115.69L422.4,116.94L426.8,117.13L431.2,116.2L435.6,116.96L440,115.13L440,127.29L435.6,128.68L431.2,129.22L422.4,126.27L418,128.56L413.6,128.72L409.2,127.21L404.8,127.36L400.4,125.27L396,125.76L391.6,125.44L387.2,126.38L382.8,125.13L378.4,126.42L374,125.01L369.6,128.91L365.2,128.42L360.8,131.13L356.4,130.95L343.2,128.95L338.8,129.27L334.4,129.13L330,130.13L325.6,127.74L321.2,127.24L316.8,127.23L312.4,128.11L303.6,129.68L299.2,128.79L294.8,129.09L290.4,128L286,129.27L281.6,129.63L277.2,129.42L272.8,128.39L268.4,126.79L264,126.98L246.4,124.96L242,125.78L233.2,125.35L228.8,126.25L224.4,126.53L220,128.63L215.6,127.99L211.2,128.18L202.4,129.38L198,131.71L193.6,131.19L189.2,127.87L180.4,131.34L176,132.61L171.6,130.93L167.2,130.15L154,126.6L149.6,128.99L140.8,128.28L136.4,130.48L127.6,134.11L123.2,134.34L118.8,136.48L114.4,136.25L110,135.61L105.6,139.12L96.8,141.95L92.4,140.35L88,142.14L83.6,140.24L79.2,140.01L74.8,136.62L70.4,131.36L66,128.18L61.6,126.85L57.2,121.9L52.8,114.63L48.4,111.05L39.6,99.7L35.2,92.55L17.6,65.79L13.2,58.06L4.4,44.4L0,31.51Z" style="fill: rgb(0, 134, 146); fill-opacity: 1; stroke-width: 0;"/></g></g><g class="errorbars"/><g class="lines"><path class="js-line" d="M0,31.51L4.4,42.28L8.8,48.68L26.4,75.64L30.8,82.35L48.4,106.2L52.8,110.28L61.6,118.89L66,121.51L70.4,121.48L74.8,122.98L79.2,125.55L83.6,125.59L88,126.21L92.4,125.01L96.8,122.66L101.2,122.4L105.6,123.27L110,122.22L114.4,121.92L118.8,120.15L123.2,117.41L127.6,118.06L132,119.13L136.4,118.21L140.8,119.5L145.2,119.69L154,117.46L158.4,118.34L171.6,117.12L176,118.64L180.4,118.61L184.8,121.88L189.2,119.82L193.6,120.51L198,123.31L202.4,121.23L206.8,121.86L211.2,118.15L215.6,116.81L220,117.38L228.8,115.21L233.2,114.86L237.6,115.02L242,113.61L246.4,115.33L250.8,112.84L259.6,116.43L264,113.15L272.8,114.53L277.2,116.52L290.4,116.24L294.8,116.64L303.6,120.11L308,119.48L312.4,119.2L316.8,118.07L321.2,116.51L325.6,117.12L334.4,119.18L338.8,117.49L347.6,120.15L352,120.71L356.4,117.2L360.8,119.46L365.2,118.82L369.6,114.85L374,115.66L378.4,113.48L387.2,114.24L391.6,114.44L396,116.31L400.4,116.34L404.8,115.35L409.2,116.67L413.6,115.66L418,115.69L422.4,116.94L426.8,117.13L431.2,116.2L435.6,116.96L440,115.13L440,127.29L435.6,128.68L431.2,129.22L422.4,126.27L418,128.56L413.6,128.72L409.2,127.21L404.8,127.36L400.4,125.27L396,125.76L391.6,125.44L387.2,126.38L382.8,125.13L378.4,126.42L374,125.01L369.6,128.91L365.2,128.42L360.8,131.13L356.4,130.95L343.2,128.95L338.8,129.27L334.4,129.13L330,130.13L325.6,127.74L321.2,127.24L316.8,127.23L312.4,128.11L303.6,129.68L299.2,128.79L294.8,129.09L290.4,128L286,129.27L281.6,129.63L277.2,129.42L272.8,128.39L268.4,126.79L264,126.98L246.4,124.96L242,125.78L233.2,125.35L228.8,126.25L224.4,126.53L220,128.63L215.6,127.99L211.2,128.18L202.4,129.38L198,131.71L193.6,131.19L189.2,127.87L180.4,131.34L176,132.61L171.6,130.93L167.2,130.15L154,126.6L149.6,128.99L140.8,128.28L136.4,130.48L127.6,134.11L123.2,134.34L118.8,136.48L114.4,136.25L110,135.61L105.6,139.12L96.8,141.95L92.4,140.35L88,142.14L83.6,140.24L79.2,140.01L74.8,136.62L70.4,131.36L66,128.18L61.6,126.85L57.2,121.9L52.8,114.63L48.4,111.05L39.6,99.7L35.2,92.55L17.6,65.79L13.2,58.06L4.4,44.4L0,31.51" style="vector-effect: none; fill: none; stroke: rgb(0, 0, 0); stroke-opacity: 0; stroke-width: 2px; opacity: 1;"/></g><g class="points"/><g class="text"/></g><g class="trace scatter trace1e2d75" style="stroke-miterlimit: 2; opacity: 1;"><g class="fills"/><g class="errorbars"/><g class="lines"><path class="js-line" d="M0,31.51L4.4,42.97L8.8,49.15L17.6,62.46L22,69.65L44,104.99L48.4,111.41L57.2,124.74L61.6,129.03L79.2,149.42L83.6,153.25L88,157.22L92.4,159.42L101.2,166.13L105.6,168.94L110,171.56L114.4,172.43L123.2,172.31L127.6,171.14L132,169.89L136.4,169.72L140.8,169.01L145.2,167.07L154,163.64L158.4,164.2L167.2,163L171.6,163.27L176,161.82L180.4,161.68L184.8,161.82L189.2,160.27L193.6,161.6L198,160.84L202.4,159.86L206.8,158.08L211.2,156.33L215.6,155.74L220,155.82L224.4,156.76L228.8,156.82L233.2,157.76L242,160.54L246.4,160.7L250.8,160L255.2,160.25L259.6,160.11L264,160.76L268.4,160.19L272.8,161.59L277.2,159.64L281.6,159.83L290.4,158.55L294.8,159.4L299.2,157.86L303.6,159.07L308,160.08L312.4,160.17L325.6,158.44L330,157.56L334.4,156.07L338.8,155.38L343.2,155.74L347.6,157.84L352,158.15L356.4,159.23L360.8,160.3L365.2,158.95L369.6,157.72L374,158.16L382.8,158.09L387.2,159.4L391.6,159.56L396,161.87L400.4,161.71L404.8,163.51L409.2,162.7L413.6,164.08L418,163.41L422.4,165.25L431.2,165.16L435.6,164.07L440,164.91" style="vector-effect: none; fill: none; stroke: rgb(0, 89, 134); stroke-opacity: 1; stroke-width: 2px; opacity: 1;"/></g><g class="points"/><g class="text"/></g><g class="trace scatter tracea77d81" style="stroke-miterlimit: 2; opacity: 0.3;"><g class="fills"><g><path class="js-fill" d="M0,31.51L4.4,41.87L8.8,48.01L17.6,60.19L22,67.26L30.8,82.14L35.2,87.83L44,102.05L48.4,106.97L57.2,119.81L61.6,124.29L74.8,138.65L79.2,145.18L88,151.57L92.4,154.2L96.8,158.87L101.2,160.82L105.6,163.34L110,164.94L123.2,165.22L127.6,162.07L132,159.97L136.4,160.36L140.8,160.18L145.2,158.84L154,158.94L158.4,158.21L167.2,156.86L171.6,157.94L180.4,156.4L184.8,154.56L189.2,152.84L193.6,153.1L206.8,150.37L211.2,148.11L220,146.01L224.4,148.17L228.8,148.53L233.2,150.82L242,153.77L246.4,153.87L250.8,152.63L255.2,152.26L259.6,152.99L264,155.43L268.4,154.64L272.8,152.85L277.2,149.87L281.6,148.99L290.4,147.92L294.8,149.08L299.2,148.68L303.6,149.93L312.4,152.63L316.8,151.83L321.2,152.25L325.6,149.11L334.4,144.92L338.8,143.65L343.2,146.61L347.6,150.68L352,149.97L356.4,151.41L360.8,152.02L365.2,151.44L369.6,151.23L374,152.6L378.4,150.34L382.8,148.95L387.2,150.71L391.6,150.04L396,151.47L400.4,151.4L409.2,154.01L413.6,156.91L418,155.06L422.4,155.54L431.2,154.21L435.6,154.42L440,154.4L440,175.41L435.6,173.71L431.2,176.1L426.8,176.17L422.4,174.96L418,171.76L413.6,171.24L409.2,171.4L404.8,174.12L400.4,172.02L396,172.28L391.6,169.07L387.2,168.08L378.4,166.16L374,163.73L369.6,164.21L365.2,166.47L360.8,168.57L356.4,167.04L343.2,164.87L338.8,167.11L334.4,167.23L330,168.11L321.2,166.9L316.8,167.38L312.4,167.71L308,168.93L299.2,167.04L294.8,169.72L290.4,169.17L286,169.73L281.6,170.67L277.2,169.41L272.8,170.33L268.4,165.75L264,166.08L259.6,167.24L255.2,168.24L250.8,167.38L242,167.31L237.6,165.42L233.2,164.7L228.8,165.11L220,165.63L215.6,164.66L211.2,164.56L206.8,165.79L202.4,168.22L198,169.61L193.6,170.1L189.2,167.69L184.8,169.09L180.4,166.96L176,166.64L171.6,168.59L158.4,170.18L154,168.34L149.6,172.5L145.2,175.3L140.8,177.84L136.4,179.09L127.6,180.21L123.2,179.41L118.8,179.92L114.4,179.67L110,178.18L105.6,174.54L92.4,164.63L88,162.86L79.2,153.65L74.8,149.37L70.4,143.25L66,138.81L57.2,129.66L52.8,123.07L44,107.93L39.6,102.46L30.8,86.69L26.4,78.79L17.6,64.72L13.2,57.15L4.4,44.08L0,31.51Z" style="fill: rgb(0, 89, 134); fill-opacity: 1; stroke-width: 0;"/></g></g><g class="errorbars"/><g class="lines"><path class="js-line" d="M0,31.51L4.4,41.87L8.8,48.01L17.6,60.19L22,67.26L30.8,82.14L35.2,87.83L44,102.05L48.4,106.97L57.2,119.81L61.6,124.29L74.8,138.65L79.2,145.18L88,151.57L92.4,154.2L96.8,158.87L101.2,160.82L105.6,163.34L110,164.94L123.2,165.22L127.6,162.07L132,159.97L136.4,160.36L140.8,160.18L145.2,158.84L154,158.94L158.4,158.21L167.2,156.86L171.6,157.94L180.4,156.4L184.8,154.56L189.2,152.84L193.6,153.1L206.8,150.37L211.2,148.11L220,146.01L224.4,148.17L228.8,148.53L233.2,150.82L242,153.77L246.4,153.87L250.8,152.63L255.2,152.26L259.6,152.99L264,155.43L268.4,154.64L272.8,152.85L277.2,149.87L281.6,148.99L290.4,147.92L294.8,149.08L299.2,148.68L303.6,149.93L312.4,152.63L316.8,151.83L321.2,152.25L325.6,149.11L334.4,144.92L338.8,143.65L343.2,146.61L347.6,150.68L352,149.97L356.4,151.41L360.8,152.02L365.2,151.44L369.6,151.23L374,152.6L378.4,150.34L382.8,148.95L387.2,150.71L391.6,150.04L396,151.47L400.4,151.4L409.2,154.01L413.6,156.91L418,155.06L422.4,155.54L431.2,154.21L435.6,154.42L440,154.4L440,175.41L435.6,173.71L431.2,176.1L426.8,176.17L422.4,174.96L418,171.76L413.6,171.24L409.2,171.4L404.8,174.12L400.4,172.02L396,172.28L391.6,169.07L387.2,168.08L378.4,166.16L374,163.73L369.6,164.21L365.2,166.47L360.8,168.57L356.4,167.04L343.2,164.87L338.8,167.11L334.4,167.23L330,168.11L321.2,166.9L316.8,167.38L312.4,167.71L308,168.93L299.2,167.04L294.8,169.72L290.4,169.17L286,169.73L281.6,170.67L277.2,169.41L272.8,170.33L268.4,165.75L264,166.08L259.6,167.24L255.2,168.24L250.8,167.38L242,167.31L237.6,165.42L233.2,164.7L228.8,165.11L220,165.63L215.6,164.66L211.2,164.56L206.8,165.79L202.4,168.22L198,169.61L193.6,170.1L189.2,167.69L184.8,169.09L180.4,166.96L176,166.64L171.6,168.59L158.4,170.18L154,168.34L149.6,172.5L145.2,175.3L140.8,177.84L136.4,179.09L127.6,180.21L123.2,179.41L118.8,179.92L114.4,179.67L110,178.18L105.6,174.54L92.4,164.63L88,162.86L79.2,153.65L74.8,149.37L70.4,143.25L66,138.81L57.2,129.66L52.8,123.07L44,107.93L39.6,102.46L30.8,86.69L26.4,78.79L17.6,64.72L13.2,57.15L4.4,44.08L0,31.51" style="vector-effect: none; fill: none; stroke: rgb(0, 0, 0); stroke-opacity: 0; stroke-width: 2px; opacity: 1;"/></g><g class="points"/><g class="text"/></g><g class="trace scatter trace6832f2" style="stroke-miterlimit: 2; opacity: 1;"><g class="fills"/><g class="errorbars"/><g class="lines"><path class="js-line" d="M0,31.51L4.4,41.91L8.8,48.01L26.4,73.42L30.8,80.02L39.6,92.49L44,99.05L57.2,118.35L61.6,125.58L79.2,151.92L83.6,157.69L96.8,176.46L101.2,181.76L114.4,195.18L118.8,197.9L123.2,201L127.6,199.3L132,200.14L136.4,198.82L145.2,198.21L149.6,197.87L158.4,197.88L162.8,197.21L176,195.53L180.4,194.48L189.2,194.3L193.6,194.15L215.6,193.95L220,194.33L242,192.99L246.4,192.97L250.8,191.82L255.2,191.84L264,192.62L268.4,192.9L281.6,191.86L286,190.9L303.6,193.13L308,192.07L316.8,191.5L321.2,190.42L325.6,191.67L330,191.46L334.4,192.1L338.8,191.72L343.2,192.21L347.6,194.62L352,193.32L356.4,193.79L365.2,194.6L369.6,193.81L374,194.88L378.4,193.65L391.6,192.69L396,193.3L409.2,190.76L413.6,190.85L418,190.45L422.4,191.43L426.8,192.34L431.2,192.3L440,193.07" style="vector-effect: none; fill: none; stroke: rgb(59, 33, 121); stroke-opacity: 1; stroke-width: 2px; opacity: 1;"/></g><g class="points"/><g class="text"/></g><g class="trace scatter traceea9ecb" style="stroke-miterlimit: 2; opacity: 0.3;"><g class="fills"><g><path class="js-fill" d="M0,31.51L4.4,40.94L8.8,46.58L17.6,57.76L22,64.39L30.8,76.84L35.2,82.18L52.8,107.08L57.2,114.31L70.4,133.8L74.8,139.63L83.6,152.2L88,157.9L105.6,180.86L110,185.54L114.4,190.1L118.8,192.54L123.2,197.52L127.6,195.07L132,196.56L136.4,196.47L140.8,195.64L145.2,196.09L154,195.06L158.4,192.99L162.8,192.02L167.2,192.21L171.6,191.52L176,189.99L180.4,188.74L184.8,189.14L193.6,189.13L198,190.29L202.4,189.12L206.8,188.92L211.2,187.95L215.6,189.65L220,190.27L224.4,189.41L250.8,188.9L255.2,189.22L259.6,190.93L264,190.71L268.4,190.01L272.8,190.26L277.2,189.9L281.6,188.69L286,187.44L290.4,187.72L294.8,185.63L299.2,187.53L303.6,187.79L308,186.62L316.8,185.92L321.2,184.05L325.6,185.34L330,185.53L343.2,186.62L347.6,190.05L352,188.56L356.4,189.03L365.2,190.24L369.6,189.52L374,190.52L378.4,188.27L382.8,188.52L387.2,187.89L396,188.3L400.4,187.3L409.2,185.73L413.6,185.97L418,184.7L422.4,186.29L426.8,187.4L431.2,186.33L435.6,186.36L440,187.24L440,198.9L435.6,198.41L431.2,198.26L426.8,197.27L413.6,195.73L409.2,195.78L404.8,195.92L400.4,197.59L396,198.3L391.6,197.49L387.2,199.08L382.8,198.41L374,199.23L369.6,198.1L360.8,199.45L356.4,198.55L352,198.08L347.6,199.18L343.2,197.8L338.8,197.29L334.4,198.4L330,197.39L325.6,197.99L321.2,196.79L299.2,198.67L294.8,197.84L290.4,195.39L286,194.36L281.6,195.03L277.2,194.83L268.4,195.79L264,194.54L255.2,194.46L250.8,194.75L246.4,196.83L242,197.17L233.2,197.58L228.8,198.84L215.6,198.26L211.2,198.66L202.4,199.17L198,197.85L193.6,199.17L189.2,199.27L184.8,199.03L180.4,200.21L176,201.07L171.6,200.32L162.8,202.4L158.4,202.76L154,201.16L149.6,200.54L145.2,200.33L140.8,201.91L136.4,201.16L132,203.72L127.6,203.53L123.2,204.48L118.8,203.27L114.4,200.25L110,197.59L105.6,191.51L96.8,182.6L92.4,177.57L83.6,163.18L79.2,157.58L70.4,143.07L66,137.01L52.8,115.21L48.4,109.88L30.8,83.2L26.4,75.95L22,69.76L17.6,62.27L8.8,49.43L4.4,42.89L0,31.51Z" style="fill: rgb(59, 33, 121); fill-opacity: 1; stroke-width: 0;"/></g></g><g class="errorbars"/><g class="lines"><path class="js-line" d="M0,31.51L4.4,40.94L8.8,46.58L17.6,57.76L22,64.39L30.8,76.84L35.2,82.18L52.8,107.08L57.2,114.31L70.4,133.8L74.8,139.63L83.6,152.2L88,157.9L105.6,180.86L110,185.54L114.4,190.1L118.8,192.54L123.2,197.52L127.6,195.07L132,196.56L136.4,196.47L140.8,195.64L145.2,196.09L154,195.06L158.4,192.99L162.8,192.02L167.2,192.21L171.6,191.52L176,189.99L180.4,188.74L184.8,189.14L193.6,189.13L198,190.29L202.4,189.12L206.8,188.92L211.2,187.95L215.6,189.65L220,190.27L224.4,189.41L250.8,188.9L255.2,189.22L259.6,190.93L264,190.71L268.4,190.01L272.8,190.26L277.2,189.9L281.6,188.69L286,187.44L290.4,187.72L294.8,185.63L299.2,187.53L303.6,187.79L308,186.62L316.8,185.92L321.2,184.05L325.6,185.34L330,185.53L343.2,186.62L347.6,190.05L352,188.56L356.4,189.03L365.2,190.24L369.6,189.52L374,190.52L378.4,188.27L382.8,188.52L387.2,187.89L396,188.3L400.4,187.3L409.2,185.73L413.6,185.97L418,184.7L422.4,186.29L426.8,187.4L431.2,186.33L435.6,186.36L440,187.24L440,198.9L435.6,198.41L431.2,198.26L426.8,197.27L413.6,195.73L409.2,195.78L404.8,195.92L400.4,197.59L396,198.3L391.6,197.49L387.2,199.08L382.8,198.41L374,199.23L369.6,198.1L360.8,199.45L356.4,198.55L352,198.08L347.6,199.18L343.2,197.8L338.8,197.29L334.4,198.4L330,197.39L325.6,197.99L321.2,196.79L299.2,198.67L294.8,197.84L290.4,195.39L286,194.36L281.6,195.03L277.2,194.83L268.4,195.79L264,194.54L255.2,194.46L250.8,194.75L246.4,196.83L242,197.17L233.2,197.58L228.8,198.84L215.6,198.26L211.2,198.66L202.4,199.17L198,197.85L193.6,199.17L189.2,199.27L184.8,199.03L180.4,200.21L176,201.07L171.6,200.32L162.8,202.4L158.4,202.76L154,201.16L149.6,200.54L145.2,200.33L140.8,201.91L136.4,201.16L132,203.72L127.6,203.53L123.2,204.48L118.8,203.27L114.4,200.25L110,197.59L105.6,191.51L96.8,182.6L92.4,177.57L83.6,163.18L79.2,157.58L70.4,143.07L66,137.01L52.8,115.21L48.4,109.88L30.8,83.2L26.4,75.95L22,69.76L17.6,62.27L8.8,49.43L4.4,42.89L0,31.51" style="vector-effect: none; fill: none; stroke: rgb(0, 0, 0); stroke-opacity: 0; stroke-width: 2px; opacity: 1;"/></g><g class="points"/><g class="text"/></g><g class="trace scatter trace06957d" style="stroke-miterlimit: 2; opacity: 1;"><g class="fills"/><g class="errorbars"/><g class="lines"><path class="js-line" d="M0,31.51L4.4,41.2L8.8,46.33L30.8,73.7L35.2,79.24L52.8,104.92L57.2,110.84L70.4,131.12L74.8,138.39L92.4,164.94L96.8,172.31L118.8,205.1L123.2,207.77L132,210.4L136.4,210.02L145.2,209.75L149.6,208.54L158.4,208.49L162.8,207.47L167.2,207.13L171.6,207.88L180.4,206.92L184.8,207.63L211.2,206.62L215.6,206.8L228.8,206.38L233.2,206.39L242,205.36L246.4,206.03L255.2,205.59L259.6,205.79L290.4,205.13L294.8,205.03L299.2,205.37L303.6,204.88L308,204.58L312.4,205.14L316.8,204.73L321.2,205.09L334.4,204.64L338.8,204.76L347.6,205.66L352,205.54L378.4,204.58L382.8,204.69L387.2,205.1L391.6,204.35L400.4,205.29L404.8,205.2L418,204.94L422.4,204.9L440,204.05" style="vector-effect: none; fill: none; stroke: rgb(130, 48, 131); stroke-opacity: 1; stroke-width: 2px; opacity: 1;"/></g><g class="points"/><g class="text"/></g><g class="trace scatter traced762f9" style="stroke-miterlimit: 2; opacity: 0.3;"><g class="fills"><g><path class="js-fill" d="M0,31.51L4.4,40.18L8.8,44.88L13.2,48.96L17.6,54.18L35.2,74.77L39.6,81.33L44,86.49L48.4,92.82L66,116.32L70.4,122.86L83.6,142.66L88,148.56L92.4,155.23L96.8,163.45L110,183.85L114.4,192.05L118.8,200.59L123.2,204.26L132,208.84L136.4,208.49L145.2,208.06L149.6,206.13L158.4,206.15L162.8,204.58L167.2,204.06L171.6,204.68L184.8,203.74L189.2,203.62L202.4,202.24L206.8,202.31L211.2,202.07L215.6,202.81L220,202.58L224.4,203.12L233.2,203.48L237.6,203.22L242,201.95L246.4,202.57L255.2,201.79L259.6,202.54L268.4,201.89L272.8,203.33L277.2,202.23L281.6,202.71L290.4,203.26L294.8,203.01L299.2,204.03L303.6,202.03L316.8,201.32L321.2,201.26L338.8,200.88L343.2,202.07L365.2,202.39L369.6,201.32L374,201.04L378.4,201.62L382.8,201.55L387.2,202.43L391.6,201.74L396,203.23L400.4,202.84L404.8,203.53L409.2,202.94L413.6,203.11L418,202.5L422.4,202.83L426.8,202.19L431.2,202.31L435.6,201.2L440,201.45L440,206.64L435.6,206.74L418,207.38L413.6,206.67L400.4,207.74L396,206.95L391.6,206.95L387.2,207.77L369.6,207.43L365.2,207.21L360.8,208.38L356.4,208.47L347.6,209.05L343.2,209.1L330,207.78L325.6,208.37L321.2,208.93L316.8,208.14L312.4,208.44L308,207.54L303.6,207.74L299.2,206.71L286,206.98L281.6,208.1L272.8,207.83L268.4,208.7L255.2,209.39L250.8,208.77L246.4,209.49L242,208.76L228.8,209.2L224.4,209.56L215.6,210.8L211.2,211.18L202.4,210.33L198,210.72L193.6,211.69L189.2,211.32L184.8,211.52L180.4,210.2L171.6,211.09L167.2,210.2L127.6,211.96L123.2,211.28L118.8,209.61L114.4,206.29L105.6,195.27L101.2,187.91L92.4,174.64L88,166.42L79.2,153.8L74.8,147.05L57.2,117.8L52.8,111.2L39.6,90.37L35.2,83.7L4.4,42.21L0,31.51Z" style="fill: rgb(130, 48, 131); fill-opacity: 1; stroke-width: 0;"/></g></g><g class="errorbars"/><g class="lines"><path class="js-line" d="M0,31.51L4.4,40.18L8.8,44.88L13.2,48.96L17.6,54.18L35.2,74.77L39.6,81.33L44,86.49L48.4,92.82L66,116.32L70.4,122.86L83.6,142.66L88,148.56L92.4,155.23L96.8,163.45L110,183.85L114.4,192.05L118.8,200.59L123.2,204.26L132,208.84L136.4,208.49L145.2,208.06L149.6,206.13L158.4,206.15L162.8,204.58L167.2,204.06L171.6,204.68L184.8,203.74L189.2,203.62L202.4,202.24L206.8,202.31L211.2,202.07L215.6,202.81L220,202.58L224.4,203.12L233.2,203.48L237.6,203.22L242,201.95L246.4,202.57L255.2,201.79L259.6,202.54L268.4,201.89L272.8,203.33L277.2,202.23L281.6,202.71L290.4,203.26L294.8,203.01L299.2,204.03L303.6,202.03L316.8,201.32L321.2,201.26L338.8,200.88L343.2,202.07L365.2,202.39L369.6,201.32L374,201.04L378.4,201.62L382.8,201.55L387.2,202.43L391.6,201.74L396,203.23L400.4,202.84L404.8,203.53L409.2,202.94L413.6,203.11L418,202.5L422.4,202.83L426.8,202.19L431.2,202.31L435.6,201.2L440,201.45L440,206.64L435.6,206.74L418,207.38L413.6,206.67L400.4,207.74L396,206.95L391.6,206.95L387.2,207.77L369.6,207.43L365.2,207.21L360.8,208.38L356.4,208.47L347.6,209.05L343.2,209.1L330,207.78L325.6,208.37L321.2,208.93L316.8,208.14L312.4,208.44L308,207.54L303.6,207.74L299.2,206.71L286,206.98L281.6,208.1L272.8,207.83L268.4,208.7L255.2,209.39L250.8,208.77L246.4,209.49L242,208.76L228.8,209.2L224.4,209.56L215.6,210.8L211.2,211.18L202.4,210.33L198,210.72L193.6,211.69L189.2,211.32L184.8,211.52L180.4,210.2L171.6,211.09L167.2,210.2L127.6,211.96L123.2,211.28L118.8,209.61L114.4,206.29L105.6,195.27L101.2,187.91L92.4,174.64L88,166.42L79.2,153.8L74.8,147.05L57.2,117.8L52.8,111.2L39.6,90.37L35.2,83.7L4.4,42.21L0,31.51" style="vector-effect: none; fill: none; stroke: rgb(0, 0, 0); stroke-opacity: 0; stroke-width: 2px; opacity: 1;"/></g><g class="points"/><g class="text"/></g><g class="trace scatter trace9b8dc8" style="stroke-miterlimit: 2; opacity: 1;"><g class="fills"/><g class="errorbars"/><g class="lines"><path class="js-line" d="M0,31.51L4.4,40.58L8.8,44.76L22,57.31L26.4,61.72L52.8,92.38L57.2,98L70.4,114.99L74.8,120.91L83.6,132.39L88,139.12L123.2,193.92L127.6,199.74L132,204.39L136.4,207.82L140.8,210.68L145.2,211.88L171.6,211.59L176,210.9L198,211.66L202.4,211.35L215.6,211.51L220,211.47L228.8,211.92L233.2,211.74L255.2,211.24L259.6,211.1L272.8,211.17L277.2,211.16L286,211.07L290.4,210.99L299.2,211.01L303.6,211.37L312.4,211.46L316.8,211.37L321.2,211.47L325.6,210.5L365.2,210.86L369.6,210.58L387.2,210.55L391.6,210.62L396,211.22L400.4,210.98L413.6,211.25L418,210.99L440,210.32" style="vector-effect: none; fill: none; stroke: rgb(183, 86, 135); stroke-opacity: 1; stroke-width: 2px; opacity: 1;"/></g><g class="points"/><g class="text"/></g><g class="trace scatter traceab24c3" style="stroke-miterlimit: 2; opacity: 0.3;"><g class="fills"><g><path class="js-fill" d="M0,31.51L4.4,39.73L8.8,43.94L13.2,47.01L17.6,51.79L39.6,72.31L44,77.37L52.8,87.89L57.2,93.51L66,102.53L70.4,108.66L88,131.92L92.4,138.8L96.8,145.81L101.2,151.25L114.4,169.16L118.8,176.83L132,197.7L136.4,203.01L140.8,208.03L145.2,210.57L158.4,210.45L162.8,210.86L176,209.92L180.4,209.77L184.8,210.7L189.2,210.54L198,210.67L202.4,210.2L220,210.31L224.4,210.83L237.6,210.47L242,210.44L246.4,209.48L250.8,209.46L259.6,209.05L264,209.41L268.4,210.21L272.8,209.46L281.6,208.29L286,208.96L290.4,208.31L294.8,208.46L303.6,209.15L308,209.35L316.8,209.4L321.2,209.71L330,208.58L334.4,208.71L338.8,209.13L343.2,208.23L352,208.28L356.4,209.58L360.8,208.93L365.2,209.24L378.4,208.38L382.8,207.32L387.2,208.38L391.6,208.34L396,209.05L400.4,208.99L404.8,209.85L409.2,209.8L426.8,208.82L431.2,209.19L435.6,209.16L440,208.36L440,212.27L435.6,212.63L431.2,212.09L426.8,212.31L422.4,212.94L418,212.72L413.6,213.12L409.2,212.73L387.2,212.72L382.8,213.54L374,212.62L369.6,212.28L343.2,213.47L338.8,212.84L334.4,212.12L330,212.56L325.6,212.23L321.2,213.22L303.6,213.58L299.2,213.52L294.8,212.84L290.4,213.66L281.6,213.41L277.2,213.1L268.4,212.65L264,213.31L255.2,213.45L250.8,213.6L246.4,213.04L242,213.47L237.6,212.98L233.2,213.32L224.4,213.18L220,212.64L189.2,212.45L184.8,212.79L176,211.88L171.6,212.72L162.8,213.19L158.4,212.71L145.2,213.2L140.8,213.33L136.4,212.64L132,211.07L127.6,208.91L123.2,204.23L114.4,191.21L110,182.97L105.6,176.16L101.2,167.14L79.2,132.83L74.8,127.6L52.8,96.87L48.4,91.49L22,58.71L17.6,54.18L4.4,41.43L0,31.51Z" style="fill: rgb(183, 86, 135); fill-opacity: 1; stroke-width: 0;"/></g></g><g class="errorbars"/><g class="lines"><path class="js-line" d="M0,31.51L4.4,39.73L8.8,43.94L13.2,47.01L17.6,51.79L39.6,72.31L44,77.37L52.8,87.89L57.2,93.51L66,102.53L70.4,108.66L88,131.92L92.4,138.8L96.8,145.81L101.2,151.25L114.4,169.16L118.8,176.83L132,197.7L136.4,203.01L140.8,208.03L145.2,210.57L158.4,210.45L162.8,210.86L176,209.92L180.4,209.77L184.8,210.7L189.2,210.54L198,210.67L202.4,210.2L220,210.31L224.4,210.83L237.6,210.47L242,210.44L246.4,209.48L250.8,209.46L259.6,209.05L264,209.41L268.4,210.21L272.8,209.46L281.6,208.29L286,208.96L290.4,208.31L294.8,208.46L303.6,209.15L308,209.35L316.8,209.4L321.2,209.71L330,208.58L334.4,208.71L338.8,209.13L343.2,208.23L352,208.28L356.4,209.58L360.8,208.93L365.2,209.24L378.4,208.38L382.8,207.32L387.2,208.38L391.6,208.34L396,209.05L400.4,208.99L404.8,209.85L409.2,209.8L426.8,208.82L431.2,209.19L435.6,209.16L440,208.36L440,212.27L435.6,212.63L431.2,212.09L426.8,212.31L422.4,212.94L418,212.72L413.6,213.12L409.2,212.73L387.2,212.72L382.8,213.54L374,212.62L369.6,212.28L343.2,213.47L338.8,212.84L334.4,212.12L330,212.56L325.6,212.23L321.2,213.22L303.6,213.58L299.2,213.52L294.8,212.84L290.4,213.66L281.6,213.41L277.2,213.1L268.4,212.65L264,213.31L255.2,213.45L250.8,213.6L246.4,213.04L242,213.47L237.6,212.98L233.2,213.32L224.4,213.18L220,212.64L189.2,212.45L184.8,212.79L176,211.88L171.6,212.72L162.8,213.19L158.4,212.71L145.2,213.2L140.8,213.33L136.4,212.64L132,211.07L127.6,208.91L123.2,204.23L114.4,191.21L110,182.97L105.6,176.16L101.2,167.14L79.2,132.83L74.8,127.6L52.8,96.87L48.4,91.49L22,58.71L17.6,54.18L4.4,41.43L0,31.51" style="vector-effect: none; fill: none; stroke: rgb(0, 0, 0); stroke-opacity: 0; stroke-width: 2px; opacity: 1;"/></g><g class="points"/><g class="text"/></g><g class="trace scatter traceb0130c" style="stroke-miterlimit: 2; opacity: 1;"><g class="fills"/><g class="errorbars"/><g class="lines"><path class="js-line" d="M0,31.51L4.4,39.72L8.8,43.24L22,52.59L26.4,55.98L35.2,61.88L39.6,65.22L48.4,72.04L52.8,76.24L66,87.41L70.4,91.68L79.2,101.01L83.6,104.84L96.8,118.6L101.2,124.75L123.2,152.06L127.6,158.04L136.4,169.82L140.8,176.39L149.6,189.27L154,195.42L162.8,205.23L167.2,208.68L171.6,211.43L176,212.58L180.4,212.51L184.8,213.23L193.6,212.47L198,212.04L202.4,212.57L206.8,212.24L233.2,212.88L237.6,212.91L242,212.28L246.4,212.71L268.4,213.32L272.8,212.9L281.6,212.85L286,213.3L290.4,212.62L294.8,212.87L316.8,212.32L321.2,213.03L330,212.79L334.4,212.32L347.6,211.93L352,212.67L360.8,212.91L365.2,212.89L378.4,211.84L382.8,212.36L387.2,213.28L391.6,212.48L418,213.03L422.4,212.68L440,212.23" style="vector-effect: none; fill: none; stroke: rgb(221, 134, 127); stroke-opacity: 1; stroke-width: 2px; opacity: 1;"/></g><g class="points"/><g class="text"/></g><g class="trace scatter traced15ed5" style="stroke-miterlimit: 2; opacity: 0.3;"><g class="fills"><g><path class="js-fill" d="M0,31.51L4.4,38.91L8.8,42.4L17.6,46.27L22,49.5L35.2,58.03L39.6,61.71L48.4,67.54L52.8,71.3L61.6,78L66,81.33L74.8,89.58L79.2,94.6L83.6,97.45L88,102.21L92.4,104.89L96.8,109.66L110,123.54L114.4,129.58L127.6,143.33L132,149.52L140.8,161.65L145.2,169.78L162.8,197.61L167.2,203.61L176,212.05L180.4,211.33L184.8,212.22L189.2,210.91L193.6,211.4L198,210.99L202.4,211.79L206.8,210.86L215.6,211.92L220,211.93L237.6,212.28L242,211.02L255.2,211.87L259.6,212.54L281.6,211.71L286,212.58L290.4,211.21L294.8,211.98L316.8,211.51L321.2,212.55L334.4,210.98L338.8,211.06L347.6,210.99L352,211.67L360.8,212.26L365.2,211.57L374,211.64L378.4,210.15L387.2,212.35L391.6,211.56L396,211.73L400.4,210.91L409.2,212.2L413.6,212.17L426.8,211.88L431.2,210.58L435.6,211.46L440,210.91L440,213.55L435.6,213.15L426.8,213.22L422.4,213.67L404.8,213.55L400.4,213.47L391.6,213.41L387.2,214.22L378.4,213.53L374,213.88L365.2,214.21L360.8,213.55L356.4,214.04L352,213.67L347.6,212.88L343.2,213.52L334.4,213.66L330,213.87L325.6,214.14L321.2,213.52L316.8,213.14L312.4,213.98L308,213.51L303.6,214.21L294.8,213.76L290.4,214.04L272.8,213.78L268.4,214.18L264,213.77L259.6,214.15L246.4,214.24L242,213.53L202.4,213.36L198,213.1L184.8,214.24L180.4,213.69L176,213.11L171.6,214.48L162.8,212.85L158.4,210.08L154,207.35L149.6,201.68L145.2,197.08L140.8,191.13L132,177.77L127.6,172.74L118.8,158.41L114.4,153.21L110,148.17L105.6,141.26L92.4,121.74L88,116.43L74.8,103.41L70.4,98.27L61.6,89.74L57.2,85.41L39.6,68.74L35.2,65.73L22,55.68L17.6,51.71L4.4,40.54L0,31.51Z" style="fill: rgb(221, 134, 127); fill-opacity: 1; stroke-width: 0;"/></g></g><g class="errorbars"/><g class="lines"><path class="js-line" d="M0,31.51L4.4,38.91L8.8,42.4L17.6,46.27L22,49.5L35.2,58.03L39.6,61.71L48.4,67.54L52.8,71.3L61.6,78L66,81.33L74.8,89.58L79.2,94.6L83.6,97.45L88,102.21L92.4,104.89L96.8,109.66L110,123.54L114.4,129.58L127.6,143.33L132,149.52L140.8,161.65L145.2,169.78L162.8,197.61L167.2,203.61L176,212.05L180.4,211.33L184.8,212.22L189.2,210.91L193.6,211.4L198,210.99L202.4,211.79L206.8,210.86L215.6,211.92L220,211.93L237.6,212.28L242,211.02L255.2,211.87L259.6,212.54L281.6,211.71L286,212.58L290.4,211.21L294.8,211.98L316.8,211.51L321.2,212.55L334.4,210.98L338.8,211.06L347.6,210.99L352,211.67L360.8,212.26L365.2,211.57L374,211.64L378.4,210.15L387.2,212.35L391.6,211.56L396,211.73L400.4,210.91L409.2,212.2L413.6,212.17L426.8,211.88L431.2,210.58L435.6,211.46L440,210.91L440,213.55L435.6,213.15L426.8,213.22L422.4,213.67L404.8,213.55L400.4,213.47L391.6,213.41L387.2,214.22L378.4,213.53L374,213.88L365.2,214.21L360.8,213.55L356.4,214.04L352,213.67L347.6,212.88L343.2,213.52L334.4,213.66L330,213.87L325.6,214.14L321.2,213.52L316.8,213.14L312.4,213.98L308,213.51L303.6,214.21L294.8,213.76L290.4,214.04L272.8,213.78L268.4,214.18L264,213.77L259.6,214.15L246.4,214.24L242,213.53L202.4,213.36L198,213.1L184.8,214.24L180.4,213.69L176,213.11L171.6,214.48L162.8,212.85L158.4,210.08L154,207.35L149.6,201.68L145.2,197.08L140.8,191.13L132,177.77L127.6,172.74L118.8,158.41L114.4,153.21L110,148.17L105.6,141.26L92.4,121.74L88,116.43L74.8,103.41L70.4,98.27L61.6,89.74L57.2,85.41L39.6,68.74L35.2,65.73L22,55.68L17.6,51.71L4.4,40.54L0,31.51" style="vector-effect: none; fill: none; stroke: rgb(0, 0, 0); stroke-opacity: 0; stroke-width: 2px; opacity: 1;"/></g><g class="points"/><g class="text"/></g><g class="trace scatter trace6734ce" style="stroke-miterlimit: 2; opacity: 1;"><g class="fills"/><g class="errorbars"/><g class="lines"><path class="js-line" d="M0,31.51L4.4,38.72L8.8,41.33L30.8,52.32L35.2,54.34L48.4,60.62L52.8,63.68L70.4,71.79L74.8,74.69L96.8,86.76L101.2,89.98L110,95.34L114.4,98.74L123.2,106.11L127.6,109.71L145.2,124.43L149.6,128.84L158.4,138.17L162.8,143.67L171.6,154.39L176,160.06L180.4,166.56L184.8,171.51L193.6,183.92L198,188.81L211.2,202.87L215.6,206.53L220,209.16L224.4,210.59L233.2,212.28L237.6,212.62L242,213.04L246.4,212.65L259.6,212.79L264,212.56L286,213.1L290.4,212.92L312.4,212.7L316.8,212.58L343.2,212.85L347.6,213.13L365.2,213.05L369.6,212.46L374,212.81L378.4,212.39L400.4,212.76L404.8,213.46L413.6,212.96L418,213.14L435.6,212.57L440,212.99" style="vector-effect: none; fill: none; stroke: rgb(244, 188, 119); stroke-opacity: 1; stroke-width: 2px; opacity: 1;"/></g><g class="points"/><g class="text"/></g><g class="trace scatter trace203fe9" style="stroke-miterlimit: 2; opacity: 0.3;"><g class="fills"><g><path class="js-fill" d="M0,31.51L4.4,37.71L8.8,39.71L26.4,48.26L30.8,50.34L35.2,52.73L39.6,54.13L57.2,61.25L61.6,62.39L74.8,67.99L79.2,70.25L96.8,79.48L101.2,82.07L110,85.52L114.4,88.76L123.2,95.67L127.6,99.99L145.2,114.75L149.6,118.69L167.2,136.71L171.6,141.93L180.4,153.89L184.8,158.29L189.2,164.75L193.6,169.78L202.4,180.44L206.8,188.47L215.6,199.66L220,203.72L224.4,206.39L228.8,208.14L237.6,211.27L242,212.18L246.4,211.4L250.8,212.29L272.8,212.18L277.2,212.2L290.4,212.09L294.8,211.7L303.6,211.43L308,210.77L312.4,211.42L316.8,211.02L325.6,212.19L330,212.06L347.6,211.73L352,212.13L360.8,211.83L365.2,212.01L369.6,211.41L374,211.84L378.4,211.08L382.8,211.71L387.2,211.24L391.6,212.38L400.4,211.51L404.8,212.69L413.6,212.13L418,212.58L435.6,211.47L440,212.13L440,213.85L435.6,213.67L426.8,214.21L422.4,213.51L400.4,214L396,213.71L378.4,213.7L374,213.78L369.6,213.5L365.2,214.09L356.4,213.84L352,214.25L343.2,214.13L338.8,213.71L334.4,213.14L330,213.45L325.6,213.8L321.2,213.36L316.8,214.14L312.4,213.98L299.2,213.87L294.8,213.77L268.4,214.02L264,213.33L255.2,213.89L250.8,213.51L228.8,215.26L224.4,214.79L220,214.61L215.6,213.4L206.8,209.4L202.4,206.35L193.6,198.07L189.2,191.89L184.8,184.73L180.4,179.22L176,172.02L171.6,166.85L167.2,160.26L162.8,155.11L154,143.09L149.6,138.98L140.8,129.76L136.4,126.81L110,105.17L105.6,100.6L101.2,97.88L96.8,94.04L83.6,87.39L79.2,83.82L74.8,81.39L70.4,77.63L52.8,67.58L48.4,63.42L39.6,58.31L35.2,55.95L26.4,51.89L22,49.74L4.4,39.72L0,31.51Z" style="fill: rgb(244, 188, 119); fill-opacity: 1; stroke-width: 0;"/></g></g><g class="errorbars"/><g class="lines"><path class="js-line" d="M0,31.51L4.4,37.71L8.8,39.71L26.4,48.26L30.8,50.34L35.2,52.73L39.6,54.13L57.2,61.25L61.6,62.39L74.8,67.99L79.2,70.25L96.8,79.48L101.2,82.07L110,85.52L114.4,88.76L123.2,95.67L127.6,99.99L145.2,114.75L149.6,118.69L167.2,136.71L171.6,141.93L180.4,153.89L184.8,158.29L189.2,164.75L193.6,169.78L202.4,180.44L206.8,188.47L215.6,199.66L220,203.72L224.4,206.39L228.8,208.14L237.6,211.27L242,212.18L246.4,211.4L250.8,212.29L272.8,212.18L277.2,212.2L290.4,212.09L294.8,211.7L303.6,211.43L308,210.77L312.4,211.42L316.8,211.02L325.6,212.19L330,212.06L347.6,211.73L352,212.13L360.8,211.83L365.2,212.01L369.6,211.41L374,211.84L378.4,211.08L382.8,211.71L387.2,211.24L391.6,212.38L400.4,211.51L404.8,212.69L413.6,212.13L418,212.58L435.6,211.47L440,212.13L440,213.85L435.6,213.67L426.8,214.21L422.4,213.51L400.4,214L396,213.71L378.4,213.7L374,213.78L369.6,213.5L365.2,214.09L356.4,213.84L352,214.25L343.2,214.13L338.8,213.71L334.4,213.14L330,213.45L325.6,213.8L321.2,213.36L316.8,214.14L312.4,213.98L299.2,213.87L294.8,213.77L268.4,214.02L264,213.33L255.2,213.89L250.8,213.51L228.8,215.26L224.4,214.79L220,214.61L215.6,213.4L206.8,209.4L202.4,206.35L193.6,198.07L189.2,191.89L184.8,184.73L180.4,179.22L176,172.02L171.6,166.85L167.2,160.26L162.8,155.11L154,143.09L149.6,138.98L140.8,129.76L136.4,126.81L110,105.17L105.6,100.6L101.2,97.88L96.8,94.04L83.6,87.39L79.2,83.82L74.8,81.39L70.4,77.63L52.8,67.58L48.4,63.42L39.6,58.31L35.2,55.95L26.4,51.89L22,49.74L4.4,39.72L0,31.51" style="vector-effect: none; fill: none; stroke: rgb(0, 0, 0); stroke-opacity: 0; stroke-width: 2px; opacity: 1;"/></g><g class="points"/><g class="text"/></g><g class="trace scatter trace24ca8b" style="stroke-miterlimit: 2; opacity: 1;"><g class="fills"/><g class="errorbars"/><g class="lines"><path class="js-line" d="M0,31.51L4.4,38.43L8.8,40.07L26.4,45.39L30.8,46.27L39.6,48.31L44,49.59L66,55.5L70.4,55.65L79.2,57.47L83.6,58.32L88,60.45L92.4,61.33L101.2,64.08L105.6,65.78L136.4,77.01L140.8,78.44L154,83.37L158.4,84.42L176,92.54L180.4,95.14L184.8,96.49L189.2,99.81L224.4,120.29L228.8,123.4L242,132.59L246.4,136.48L264,153.74L268.4,158.56L286,175.61L290.4,179.89L299.2,188.81L303.6,192.66L312.4,200.16L316.8,203.16L330,209.16L334.4,210.61L343.2,212.57L347.6,212.77L352,212.24L356.4,212.6L369.6,213.2L374,212.31L391.6,213.4L396,213.07L431.2,212.52L435.6,212.39L440,213.22" style="vector-effect: none; fill: none; stroke: rgb(248, 246, 139); stroke-opacity: 1; stroke-width: 2px; opacity: 1;"/></g><g class="points"/><g class="text"/></g><g class="trace scatter tracedfcfca" style="stroke-miterlimit: 2; opacity: 0.3;"><g class="fills"><g><path class="js-fill" d="M0,31.51L4.4,38.04L8.8,39.25L26.4,43.64L30.8,43.37L66,50.7L70.4,50.86L79.2,52.48L83.6,53.37L88,54.92L92.4,55.6L96.8,55.92L101.2,57.28L118.8,63.11L123.2,64.31L127.6,66.34L132,66.96L140.8,70.22L145.2,71.81L158.4,76.04L162.8,78.33L171.6,80.88L176,82.68L193.6,91.18L198,92.74L220,104.18L224.4,107.1L246.4,120.16L250.8,124.31L264,135.9L268.4,140.4L272.8,142.85L277.2,146.37L294.8,166.3L299.2,170.6L316.8,190.61L321.2,194.34L325.6,198.41L330,201.06L334.4,204.66L338.8,206.86L343.2,210.19L347.6,211.47L356.4,211.44L360.8,211.63L365.2,212.37L369.6,211.87L374,211.01L378.4,211.77L391.6,212.73L396,212.19L418,211.38L422.4,212.12L435.6,211.07L440,211.93L440,214.51L435.6,213.71L404.8,213.82L400.4,214.05L387.2,214.51L382.8,213.34L369.6,214.53L365.2,213.87L352,213.2L347.6,214.06L334.4,216.55L330,217.27L321.2,216.21L316.8,215.7L312.4,214.62L308,212.17L299.2,207.02L294.8,203.02L272.8,182.42L268.4,176.73L264,171.57L259.6,167.72L255.2,163.47L250.8,156.91L233.2,140.35L228.8,137.19L220,130.24L215.6,127.94L198,117.6L193.6,113.47L184.8,106.48L180.4,105.33L176,102.41L171.6,100.96L167.2,98.46L162.8,94.43L158.4,92.8L154,91.99L140.8,86.66L136.4,85.11L123.2,79.72L118.8,77.75L110,74.62L105.6,72.8L92.4,67.06L88,65.98L83.6,63.28L79.2,62.46L66,60.31L61.6,58.54L48.4,54.74L44,53.49L35.2,49.79L30.8,49.17L26.4,47.14L22,46.09L4.4,38.82L0,31.51Z" style="fill: rgb(248, 246, 139); fill-opacity: 1; stroke-width: 0;"/></g></g><g class="errorbars"/><g class="lines"><path class="js-line" d="M0,31.51L4.4,38.04L8.8,39.25L26.4,43.64L30.8,43.37L66,50.7L70.4,50.86L79.2,52.48L83.6,53.37L88,54.92L92.4,55.6L96.8,55.92L101.2,57.28L118.8,63.11L123.2,64.31L127.6,66.34L132,66.96L140.8,70.22L145.2,71.81L158.4,76.04L162.8,78.33L171.6,80.88L176,82.68L193.6,91.18L198,92.74L220,104.18L224.4,107.1L246.4,120.16L250.8,124.31L264,135.9L268.4,140.4L272.8,142.85L277.2,146.37L294.8,166.3L299.2,170.6L316.8,190.61L321.2,194.34L325.6,198.41L330,201.06L334.4,204.66L338.8,206.86L343.2,210.19L347.6,211.47L356.4,211.44L360.8,211.63L365.2,212.37L369.6,211.87L374,211.01L378.4,211.77L391.6,212.73L396,212.19L418,211.38L422.4,212.12L435.6,211.07L440,211.93L440,214.51L435.6,213.71L404.8,213.82L400.4,214.05L387.2,214.51L382.8,213.34L369.6,214.53L365.2,213.87L352,213.2L347.6,214.06L334.4,216.55L330,217.27L321.2,216.21L316.8,215.7L312.4,214.62L308,212.17L299.2,207.02L294.8,203.02L272.8,182.42L268.4,176.73L264,171.57L259.6,167.72L255.2,163.47L250.8,156.91L233.2,140.35L228.8,137.19L220,130.24L215.6,127.94L198,117.6L193.6,113.47L184.8,106.48L180.4,105.33L176,102.41L171.6,100.96L167.2,98.46L162.8,94.43L158.4,92.8L154,91.99L140.8,86.66L136.4,85.11L123.2,79.72L118.8,77.75L110,74.62L105.6,72.8L92.4,67.06L88,65.98L83.6,63.28L79.2,62.46L66,60.31L61.6,58.54L48.4,54.74L44,53.49L35.2,49.79L30.8,49.17L26.4,47.14L22,46.09L4.4,38.82L0,31.51" style="vector-effect: none; fill: none; stroke: rgb(0, 0, 0); stroke-opacity: 0; stroke-width: 2px; opacity: 1;"/></g><g class="points"/><g class="text"/></g></g></g></g><g class="zerolinelayer-above"/><path class="xlines-above crisp" d="M0,0" style="fill: none;"/><path class="ylines-above crisp" d="M0,0" style="fill: none;"/><g class="overlines-above"/><g class="xaxislayer-above"><g class="xtick"><text text-anchor="middle" x="0" y="333" transform="translate(80,0)" style="font-family: 'Open Sans', verdana, arial, sans-serif; font-size: 12px; fill: rgb(42, 63, 95); fill-opacity: 1; white-space: pre;">0</text></g><g class="xtick"><text text-anchor="middle" x="0" y="333" style="font-family: 'Open Sans', verdana, arial, sans-serif; font-size: 12px; fill: rgb(42, 63, 95); fill-opacity: 1; white-space: pre;" transform="translate(168,0)">1M</text></g><g class="xtick"><text text-anchor="middle" x="0" y="333" style="font-family: 'Open Sans', verdana, arial, sans-serif; font-size: 12px; fill: rgb(42, 63, 95); fill-opacity: 1; white-space: pre;" transform="translate(256,0)">2M</text></g><g class="xtick"><text text-anchor="middle" x="0" y="333" style="font-family: 'Open Sans', verdana, arial, sans-serif; font-size: 12px; fill: rgb(42, 63, 95); fill-opacity: 1; white-space: pre;" transform="translate(344,0)">3M</text></g><g class="xtick"><text text-anchor="middle" x="0" y="333" style="font-family: 'Open Sans', verdana, arial, sans-serif; font-size: 12px; fill: rgb(42, 63, 95); fill-opacity: 1; white-space: pre;" transform="translate(432,0)">4M</text></g><g class="xtick"><text text-anchor="middle" x="0" y="333" style="font-family: 'Open Sans', verdana, arial, sans-serif; font-size: 12px; fill: rgb(42, 63, 95); fill-opacity: 1; white-space: pre;" transform="translate(520,0)">5M</text></g></g><g class="yaxislayer-above"><g class="ytick"><text text-anchor="end" x="79" y="4.199999999999999" transform="translate(0,320)" style="font-family: 'Open Sans', verdana, arial, sans-serif; font-size: 12px; fill: rgb(42, 63, 95); fill-opacity: 1; white-space: pre;">100</text></g><g class="ytick"><text text-anchor="end" x="79" y="4.199999999999999" style="font-family: 'Open Sans', verdana, arial, sans-serif; font-size: 12px; fill: rgb(42, 63, 95); fill-opacity: 1; white-space: pre;" transform="translate(0,283.33000000000004)">200</text></g><g class="ytick"><text text-anchor="end" x="79" y="4.199999999999999" style="font-family: 'Open Sans', verdana, arial, sans-serif; font-size: 12px; fill: rgb(42, 63, 95); fill-opacity: 1; white-space: pre;" transform="translate(0,246.67)">300</text></g><g class="ytick"><text text-anchor="end" x="79" y="4.199999999999999" style="font-family: 'Open Sans', verdana, arial, sans-serif; font-size: 12px; fill: rgb(42, 63, 95); fill-opacity: 1; white-space: pre;" transform="translate(0,210)">400</text></g><g class="ytick"><text text-anchor="end" x="79" y="4.199999999999999" style="font-family: 'Open Sans', verdana, arial, sans-serif; font-size: 12px; fill: rgb(42, 63, 95); fill-opacity: 1; white-space: pre;" transform="translate(0,173.32999999999998)">500</text></g><g class="ytick"><text text-anchor="end" x="79" y="4.199999999999999" style="font-family: 'Open Sans', verdana, arial, sans-serif; font-size: 12px; fill: rgb(42, 63, 95); fill-opacity: 1; white-space: pre;" transform="translate(0,136.67000000000002)">600</text></g><g class="ytick"><text text-anchor="end" x="79" y="4.199999999999999" style="font-family: 'Open Sans', verdana, arial, sans-serif; font-size: 12px; fill: rgb(42, 63, 95); fill-opacity: 1; white-space: pre;" transform="translate(0,100)">700</text></g></g><g class="overaxes-above"/></g></g><g class="polarlayer"/><g class="smithlayer"/><g class="ternarylayer"/><g class="geolayer"/><g class="funnelarealayer"/><g class="pielayer"/><g class="iciclelayer"/><g class="treemaplayer"/><g class="sunburstlayer"/><g class="glimages"/><defs id="topdefs-e5e62a"><g class="clips"/><clipPath id="legende5e62a"><rect width="59" height="219" x="0" y="0"/></clipPath></defs><g class="layer-above"><g class="imagelayer"/><g class="shapelayer"/></g><g class="infolayer"><g class="legend" pointer-events="all" transform="translate(528.8,100)"><rect class="bg" shape-rendering="crispEdges" style="stroke: rgb(68, 68, 68); stroke-opacity: 1; fill: rgb(255, 255, 255); fill-opacity: 1; stroke-width: 0px;" width="59" height="219" x="0" y="0"/><g class="scrollbox" transform="" clip-path="url(#legende5e62a)"><g class="groups"><g class="traces" transform="translate(0,14.5)" style="opacity: 1;"><text class="legendtext" text-anchor="start" x="40" y="4.680000000000001" style="font-family: 'Open Sans', verdana, arial, sans-serif; font-size: 12px; fill: rgb(42, 63, 95); fill-opacity: 1; white-space: pre;">0</text><g class="layers" style="opacity: 1;"><g class="legendfill"/><g class="legendlines"><path class="js-line" d="M5,0h30" style="fill: none; stroke: rgb(231, 248, 191); stroke-opacity: 1; stroke-width: 2px;"/></g><g class="legendsymbols"><g class="legendpoints"/></g></g><rect class="legendtoggle" x="0" y="-9.5" width="53.861328125" height="19" style="fill: rgb(0, 0, 0); fill-opacity: 0;"/></g><g class="traces" transform="translate(0,33.5)" style="opacity: 1;"><text class="legendtext" text-anchor="start" x="40" y="4.680000000000001" style="font-family: 'Open Sans', verdana, arial, sans-serif; font-size: 12px; fill: rgb(42, 63, 95); fill-opacity: 1; white-space: pre;">2</text><g class="layers" style="opacity: 1;"><g class="legendfill"/><g class="legendlines"><path class="js-line" d="M5,0h30" style="fill: none; stroke: rgb(152, 213, 164); stroke-opacity: 1; stroke-width: 2px;"/></g><g class="legendsymbols"><g class="legendpoints"/></g></g><rect class="legendtoggle" x="0" y="-9.5" width="53.861328125" height="19" style="fill: rgb(0, 0, 0); fill-opacity: 0;"/></g><g class="traces" transform="translate(0,52.5)" style="opacity: 1;"><text class="legendtext" text-anchor="start" x="40" y="4.680000000000001" style="font-family: 'Open Sans', verdana, arial, sans-serif; font-size: 12px; fill: rgb(42, 63, 95); fill-opacity: 1; white-space: pre;">4</text><g class="layers" style="opacity: 1;"><g class="legendfill"/><g class="legendlines"><path class="js-line" d="M5,0h30" style="fill: none; stroke: rgb(63, 175, 153); stroke-opacity: 1; stroke-width: 2px;"/></g><g class="legendsymbols"><g class="legendpoints"/></g></g><rect class="legendtoggle" x="0" y="-9.5" width="53.861328125" height="19" style="fill: rgb(0, 0, 0); fill-opacity: 0;"/></g><g class="traces" transform="translate(0,71.5)" style="opacity: 1;"><text class="legendtext" text-anchor="start" x="40" y="4.680000000000001" style="font-family: 'Open Sans', verdana, arial, sans-serif; font-size: 12px; fill: rgb(42, 63, 95); fill-opacity: 1; white-space: pre;">6</text><g class="layers" style="opacity: 1;"><g class="legendfill"/><g class="legendlines"><path class="js-line" d="M5,0h30" style="fill: none; stroke: rgb(0, 134, 146); stroke-opacity: 1; stroke-width: 2px;"/></g><g class="legendsymbols"><g class="legendpoints"/></g></g><rect class="legendtoggle" x="0" y="-9.5" width="53.861328125" height="19" style="fill: rgb(0, 0, 0); fill-opacity: 0;"/></g><g class="traces" transform="translate(0,90.5)" style="opacity: 1;"><text class="legendtext" text-anchor="start" x="40" y="4.680000000000001" style="font-family: 'Open Sans', verdana, arial, sans-serif; font-size: 12px; fill: rgb(42, 63, 95); fill-opacity: 1; white-space: pre;">8</text><g class="layers" style="opacity: 1;"><g class="legendfill"/><g class="legendlines"><path class="js-line" d="M5,0h30" style="fill: none; stroke: rgb(0, 89, 134); stroke-opacity: 1; stroke-width: 2px;"/></g><g class="legendsymbols"><g class="legendpoints"/></g></g><rect class="legendtoggle" x="0" y="-9.5" width="53.861328125" height="19" style="fill: rgb(0, 0, 0); fill-opacity: 0;"/></g><g class="traces" transform="translate(0,109.5)" style="opacity: 1;"><text class="legendtext" text-anchor="start" x="40" y="4.680000000000001" style="font-family: 'Open Sans', verdana, arial, sans-serif; font-size: 12px; fill: rgb(42, 63, 95); fill-opacity: 1; white-space: pre;">10</text><g class="layers" style="opacity: 1;"><g class="legendfill"/><g class="legendlines"><path class="js-line" d="M5,0h30" style="fill: none; stroke: rgb(59, 33, 121); stroke-opacity: 1; stroke-width: 2px;"/></g><g class="legendsymbols"><g class="legendpoints"/></g></g><rect class="legendtoggle" x="0" y="-9.5" width="53.861328125" height="19" style="fill: rgb(0, 0, 0); fill-opacity: 0;"/></g><g class="traces" transform="translate(0,128.5)" style="opacity: 1;"><text class="legendtext" text-anchor="start" x="40" y="4.680000000000001" style="font-family: 'Open Sans', verdana, arial, sans-serif; font-size: 12px; fill: rgb(42, 63, 95); fill-opacity: 1; white-space: pre;">12</text><g class="layers" style="opacity: 1;"><g class="legendfill"/><g class="legendlines"><path class="js-line" d="M5,0h30" style="fill: none; stroke: rgb(130, 48, 131); stroke-opacity: 1; stroke-width: 2px;"/></g><g class="legendsymbols"><g class="legendpoints"/></g></g><rect class="legendtoggle" x="0" y="-9.5" width="53.861328125" height="19" style="fill: rgb(0, 0, 0); fill-opacity: 0;"/></g><g class="traces" transform="translate(0,147.5)" style="opacity: 1;"><text class="legendtext" text-anchor="start" x="40" y="4.680000000000001" style="font-family: 'Open Sans', verdana, arial, sans-serif; font-size: 12px; fill: rgb(42, 63, 95); fill-opacity: 1; white-space: pre;">14</text><g class="layers" style="opacity: 1;"><g class="legendfill"/><g class="legendlines"><path class="js-line" d="M5,0h30" style="fill: none; stroke: rgb(183, 86, 135); stroke-opacity: 1; stroke-width: 2px;"/></g><g class="legendsymbols"><g class="legendpoints"/></g></g><rect class="legendtoggle" x="0" y="-9.5" width="53.861328125" height="19" style="fill: rgb(0, 0, 0); fill-opacity: 0;"/></g><g class="traces" transform="translate(0,166.5)" style="opacity: 1;"><text class="legendtext" text-anchor="start" x="40" y="4.680000000000001" style="font-family: 'Open Sans', verdana, arial, sans-serif; font-size: 12px; fill: rgb(42, 63, 95); fill-opacity: 1; white-space: pre;">16</text><g class="layers" style="opacity: 1;"><g class="legendfill"/><g class="legendlines"><path class="js-line" d="M5,0h30" style="fill: none; stroke: rgb(221, 134, 127); stroke-opacity: 1; stroke-width: 2px;"/></g><g class="legendsymbols"><g class="legendpoints"/></g></g><rect class="legendtoggle" x="0" y="-9.5" width="53.861328125" height="19" style="fill: rgb(0, 0, 0); fill-opacity: 0;"/></g><g class="traces" transform="translate(0,185.5)" style="opacity: 1;"><text class="legendtext" text-anchor="start" x="40" y="4.680000000000001" style="font-family: 'Open Sans', verdana, arial, sans-serif; font-size: 12px; fill: rgb(42, 63, 95); fill-opacity: 1; white-space: pre;">18</text><g class="layers" style="opacity: 1;"><g class="legendfill"/><g class="legendlines"><path class="js-line" d="M5,0h30" style="fill: none; stroke: rgb(244, 188, 119); stroke-opacity: 1; stroke-width: 2px;"/></g><g class="legendsymbols"><g class="legendpoints"/></g></g><rect class="legendtoggle" x="0" y="-9.5" width="53.861328125" height="19" style="fill: rgb(0, 0, 0); fill-opacity: 0;"/></g><g class="traces" transform="translate(0,204.5)" style="opacity: 1;"><text class="legendtext" text-anchor="start" x="40" y="4.680000000000001" style="font-family: 'Open Sans', verdana, arial, sans-serif; font-size: 12px; fill: rgb(42, 63, 95); fill-opacity: 1; white-space: pre;">20</text><g class="layers" style="opacity: 1;"><g class="legendfill"/><g class="legendlines"><path class="js-line" d="M5,0h30" style="fill: none; stroke: rgb(248, 246, 139); stroke-opacity: 1; stroke-width: 2px;"/></g><g class="legendsymbols"><g class="legendpoints"/></g></g><rect class="legendtoggle" x="0" y="-9.5" width="53.861328125" height="19" style="fill: rgb(0, 0, 0); fill-opacity: 0;"/></g></g></g><rect class="scrollbar" rx="20" ry="3" width="0" height="0" style="fill: rgb(128, 139, 164); fill-opacity: 1;" x="0" y="0"/></g><g class="g-gtitle"/><g class="g-xtitle"><text class="xtitle" x="300" y="361.3" text-anchor="middle" style="opacity: 1; font-family: 'Open Sans', verdana, arial, sans-serif; font-size: 14px; fill: rgb(42, 63, 95); fill-opacity: 1; white-space: pre;">time</text></g><g class="g-ytitle"><text class="ytitle" transform="rotate(-90,39.00625,210)" x="39.00625" y="210" text-anchor="middle" style="opacity: 1; font-family: 'Open Sans', verdana, arial, sans-serif; font-size: 14px; fill: rgb(42, 63, 95); fill-opacity: 1; white-space: pre;">distance to peak</text></g></g></svg>