<svg class="main-svg" xmlns="http://www.w3.org/2000/svg" xmlns:xlink="http://www.w3.org/1999/xlink" width="600" height="400" style="" viewBox="0 0 600 400"><rect x="0" y="0" width="600" height="400" style="fill: rgb(255, 255, 255); fill-opacity: 1;"/><defs id="defs-64b33d"><g class="clips"><clipPath id="clip64b33dxyplot" class="plotclip"><rect width="433" height="220"/></clipPath><clipPath class="axesclip" id="clip64b33dx"><rect x="80" y="0" width="433" height="400"/></clipPath><clipPath class="axesclip" id="clip64b33dy"><rect x="0" y="100" width="600" height="220"/></clipPath><clipPath class="axesclip" id="clip64b33dxy"><rect x="80" y="100" width="433" height="220"/></clipPath></g><g class="gradients"/><g class="patterns"/></defs><g class="bglayer"/><g class="layer-below"><g class="imagelayer"/><g class="shapelayer"/></g><g class="cartesianlayer"><g class="subplot xy"><g class="layer-subplot"><g class="shapelayer"/><g class="imagelayer"/></g><g class="minor-gridlayer"><g class="x"/><g class="y"/></g><g class="gridlayer"><g class="x"><path class="xgrid crisp" transform="translate(188.25,0)" d="M0,100v220" style="stroke: rgb(235, 240, 248); stroke-opacity: 1; stroke-width: 1px;"/><path class="xgrid crisp" transform="translate(296.5,0)" d="M0,100v220" style="stroke: rgb(235, 240, 248); stroke-opacity: 1; stroke-width: 1px;"/><path class="xgrid crisp" transform="translate(404.75,0)" d="M0,100v220" style="stroke: rgb(235, 240, 248); stroke-opacity: 1; stroke-width: 1px;"/></g><g class="y"><path class="ygrid crisp" transform="translate(0,283.45)" d="M80,0h433" style="stroke: rgb(235, 240, 248); stroke-opacity: 1; stroke-width: 1px;"/><path class="ygrid crisp" transform="translate(0,247.84)" d="M80,0h433" style="stroke: rgb(235, 240, 248); stroke-opacity: 1; stroke-width: 1px;"/><path class="ygrid crisp" transform="translate(0,212.23000000000002)" d="M80,0h433" style="stroke: rgb(235, 240, 248); stroke-opacity: 1; stroke-width: 1px;"/><path class="ygrid crisp" transform="translate(0,176.61)" d="M80,0h433" style="stroke: rgb(235, 240, 248); stroke-opacity: 1; stroke-width: 1px;"/><path class="ygrid crisp" transform="translate(0,141)" d="M80,0h433" style="stroke: rgb(235, 240, 248); stroke-opacity: 1; stroke-width: 1px;"/><path class="ygrid crisp" transform="translate(0,105.39)" d="M80,0h433" style="stroke: rgb(235, 240, 248); stroke-opacity: 1; stroke-width: 1px;"/></g></g><g class="zerolinelayer"><path class="xzl zl crisp" transform="translate(80,0)" d="M0,100v220" style="stroke: rgb(235, 240, 248); stroke-opacity: 1; stroke-width: 2px;"/></g><g class="layer-between"><g class="shapelayer"/><g class="imagelayer"/></g><path class="xlines-below"/><path class="ylines-below"/><g class="overlines-below"/><g class="xaxislayer-below"/><g class="yaxislayer-below"/><g class="overaxes-below"/><g class="overplot"><g class="xy" transform="translate(80,100)" clip-path="url(#clip64b33dxyplot)"><g class="scatterlayer mlayer"><g class="trace scatter trace6989b5" style="stroke-miterlimit: 2; opacity: 1;"><g class="fills"/><g class="errorbars"/><g class="lines"><path class="js-line" d="M0,11.41L5.41,25.54L10.83,34.87L16.24,44.29L21.65,56.73L27.06,67.05L32.48,79.62L37.89,89.29L43.3,92.67L48.71,89.05L54.13,100.73L59.54,97.27L64.95,96.52L70.36,109.19L75.78,111.34L81.19,105.2L86.6,100.76L92.01,107.79L97.43,106.73L102.84,121.47L108.25,132.46L113.66,126.72L119.08,117.19L124.49,100.04L129.9,105.57L135.31,109.83L140.73,122.12L146.14,116.56L151.55,98.49L156.96,124.62L162.38,118.72L167.79,108.55L173.2,106.74L178.61,101.56L184.03,99.39L189.44,103.21L194.85,112.84L200.26,111.66L205.68,116.71L211.09,116.53L216.5,114.85L221.91,113.15L227.33,103.06L232.74,104.31L238.15,108.11L243.56,105.68L248.98,105.51L254.39,111.98L259.8,111.88L265.21,115.33L270.63,112.01L276.04,108.98L281.45,103.48L286.86,118.01L292.27,114.23L303.1,85.52L308.51,98.13L313.93,99.61L319.34,96.42L324.75,104.97L330.16,105.38L335.58,107.59L340.99,107.44L346.4,118.09L351.81,119.46L357.23,110.43L362.64,114.11L368.05,123.62L373.46,125.74L378.88,130.54L384.29,113.74L389.7,98.28L395.11,99.24L400.53,121.18L405.94,116.71L411.35,125.03L416.76,130.63L422.18,110.73L427.59,116.82L433,119.48" style="vector-effect: none; fill: none; stroke: rgb(85, 99, 170); stroke-opacity: 1; stroke-width: 2px; opacity: 1;"/></g><g class="points"/><g class="text"/></g><g class="trace scatter tracee28457" style="stroke-miterlimit: 2; opacity: 0.3;"><g class="fills"><g><path class="js-fill" d="M0,11L5.41,18.27L10.83,26.98L16.24,30.25L21.65,39.66L27.06,51.35L32.48,55.88L37.89,67.66L43.3,68.06L48.71,73.09L54.13,83.44L59.54,81.81L64.95,77.78L70.36,86.61L75.78,93L81.19,85.77L86.6,77.08L92.01,90.88L97.43,92.05L102.84,107.34L108.25,114.93L113.66,96.85L119.08,89.17L124.49,78.17L129.9,79.65L135.31,85.84L140.73,98.78L146.14,107.49L151.55,90.78L156.96,101.37L162.38,101.53L167.79,80.24L173.2,81.07L178.61,75.93L184.03,79.86L189.44,80.71L194.85,98.79L200.26,75.09L205.68,87.3L211.09,107.26L216.5,90.26L221.91,99.75L227.33,88.97L232.74,93.57L238.15,91.59L243.56,96.84L248.98,90.7L254.39,95.2L259.8,81.76L265.21,93.86L270.63,90.01L276.04,87.82L281.45,87.82L286.86,101.2L292.27,90.92L297.69,87L303.1,72.7L308.51,68.94L313.93,81.91L319.34,76.99L324.75,76.49L330.16,85.31L335.58,98.55L340.99,86.63L346.4,103.18L357.23,87.22L362.64,87.91L368.05,110.86L373.46,101.43L378.88,118.54L384.29,96.53L389.7,89.16L395.11,67.55L400.53,84.85L405.94,81.58L411.35,97.27L416.76,105.92L422.18,98.5L427.59,85.94L433,85.03L433,153.93L427.59,147.7L422.18,122.96L416.76,155.34L411.35,152.8L405.94,151.84L400.53,157.51L389.7,107.4L384.29,130.96L378.88,142.53L373.46,150.04L368.05,136.38L362.64,140.31L357.23,133.65L351.81,143.36L346.4,133L340.99,128.25L335.58,116.63L330.16,125.45L324.75,133.44L319.34,115.84L313.93,117.3L308.51,127.33L303.1,98.34L297.69,111.16L292.27,137.53L286.86,134.81L281.45,119.15L276.04,130.13L270.63,134.02L265.21,136.79L259.8,142L254.39,128.75L248.98,120.33L243.56,114.51L238.15,124.62L232.74,115.05L227.33,117.14L221.91,126.55L216.5,139.44L211.09,125.79L205.68,146.12L200.26,148.22L194.85,126.9L189.44,125.7L184.03,118.91L178.61,127.19L167.79,136.86L162.38,135.9L156.96,147.87L151.55,106.21L140.73,145.46L135.31,133.81L129.9,131.49L124.49,121.91L119.08,145.22L113.66,156.58L108.25,149.98L102.84,135.61L97.43,121.41L92.01,124.7L81.19,124.63L75.78,129.69L70.36,131.77L64.95,115.27L59.54,112.74L54.13,118.01L48.71,105.02L43.3,117.28L37.89,110.93L32.48,103.35L27.06,82.74L21.65,73.79L10.83,42.77L5.41,32.81L0,11.83Z" style="fill: rgb(85, 99, 170); fill-opacity: 1; stroke-width: 0;"/></g></g><g class="errorbars"/><g class="lines"><path class="js-line" d="M0,11L5.41,18.27L10.83,26.98L16.24,30.25L21.65,39.66L27.06,51.35L32.48,55.88L37.89,67.66L43.3,68.06L48.71,73.09L54.13,83.44L59.54,81.81L64.95,77.78L70.36,86.61L75.78,93L81.19,85.77L86.6,77.08L92.01,90.88L97.43,92.05L102.84,107.34L108.25,114.93L113.66,96.85L119.08,89.17L124.49,78.17L129.9,79.65L135.31,85.84L140.73,98.78L146.14,107.49L151.55,90.78L156.96,101.37L162.38,101.53L167.79,80.24L173.2,81.07L178.61,75.93L184.03,79.86L189.44,80.71L194.85,98.79L200.26,75.09L205.68,87.3L211.09,107.26L216.5,90.26L221.91,99.75L227.33,88.97L232.74,93.57L238.15,91.59L243.56,96.84L248.98,90.7L254.39,95.2L259.8,81.76L265.21,93.86L270.63,90.01L276.04,87.82L281.45,87.82L286.86,101.2L292.27,90.92L297.69,87L303.1,72.7L308.51,68.94L313.93,81.91L319.34,76.99L324.75,76.49L330.16,85.31L335.58,98.55L340.99,86.63L346.4,103.18L357.23,87.22L362.64,87.91L368.05,110.86L373.46,101.43L378.88,118.54L384.29,96.53L389.7,89.16L395.11,67.55L400.53,84.85L405.94,81.58L411.35,97.27L416.76,105.92L422.18,98.5L427.59,85.94L433,85.03L433,153.93L427.59,147.7L422.18,122.96L416.76,155.34L411.35,152.8L405.94,151.84L400.53,157.51L389.7,107.4L384.29,130.96L378.88,142.53L373.46,150.04L368.05,136.38L362.64,140.31L357.23,133.65L351.81,143.36L346.4,133L340.99,128.25L335.58,116.63L330.16,125.45L324.75,133.44L319.34,115.84L313.93,117.3L308.51,127.33L303.1,98.34L297.69,111.16L292.27,137.53L286.86,134.81L281.45,119.15L276.04,130.13L270.63,134.02L265.21,136.79L259.8,142L254.39,128.75L248.98,120.33L243.56,114.51L238.15,124.62L232.74,115.05L227.33,117.14L221.91,126.55L216.5,139.44L211.09,125.79L205.68,146.12L200.26,148.22L194.85,126.9L189.44,125.7L184.03,118.91L178.61,127.19L167.79,136.86L162.38,135.9L156.96,147.87L151.55,106.21L140.73,145.46L135.31,133.81L129.9,131.49L124.49,121.91L119.08,145.22L113.66,156.58L108.25,149.98L102.84,135.61L97.43,121.41L92.01,124.7L81.19,124.63L75.78,129.69L70.36,131.77L64.95,115.27L59.54,112.74L54.13,118.01L48.71,105.02L43.3,117.28L37.89,110.93L32.48,103.35L27.06,82.74L21.65,73.79L10.83,42.77L5.41,32.81L0,11.83" style="vector-effect: none; fill: none; stroke: rgb(0, 0, 0); stroke-opacity: 0; stroke-width: 2px; opacity: 1;"/></g><g class="points"/><g class="text"/></g><g class="trace scatter tracec290c0" style="stroke-miterlimit: 2; opacity: 1;"><g class="fills"/><g class="errorbars"/><g class="lines"><path class="js-line" d="M0,14.96L5.41,29.27L10.83,35.18L27.06,62.01L32.48,74.28L37.89,87.85L43.3,99.38L54.13,118.82L59.54,123.35L64.95,130.34L70.36,130.93L75.78,132.81L81.19,133.04L92.01,111.18L97.43,118.92L102.84,116.04L108.25,123.66L113.66,113.62L119.08,112.15L124.49,116.89L129.9,123.02L135.31,125.97L140.73,122.1L146.14,116.08L151.55,111.94L156.96,117.81L162.38,112.86L167.79,119.61L173.2,118.82L178.61,116.33L184.03,115.38L189.44,116.81L194.85,116.12L200.26,128.02L205.68,127.92L211.09,128.7L216.5,120.31L221.91,116.96L227.33,109.48L232.74,120.52L238.15,123.33L243.56,115.36L248.98,113.95L254.39,102.83L259.8,101.04L265.21,108.19L270.63,113.17L276.04,117.16L281.45,110.57L286.86,118.17L292.27,109.86L297.69,110.25L303.1,115.19L308.51,113.14L313.93,117.91L324.75,109.29L330.16,108.93L335.58,115.91L340.99,112.66L346.4,121.58L351.81,117.84L357.23,128L362.64,123.31L368.05,118.94L373.46,119.61L384.29,112.12L389.7,115.52L395.11,124.16L400.53,121.72L405.94,116.75L411.35,123.8L416.76,117.44L422.18,122.1L427.59,122.04L433,123.36" style="vector-effect: none; fill: none; stroke: rgb(64, 125, 183); stroke-opacity: 1; stroke-width: 2px; opacity: 1;"/></g><g class="points"/><g class="text"/></g><g class="trace scatter trace0b79af" style="stroke-miterlimit: 2; opacity: 0.3;"><g class="fills"><g><path class="js-fill" d="M0,14.29L5.41,24.37L10.83,30.26L16.24,40.63L21.65,46.32L27.06,55.14L32.48,66.9L43.3,86.18L48.71,96.85L54.13,100.15L59.54,109.76L64.95,115.14L70.36,112.63L75.78,122.76L81.19,121.05L92.01,102.74L97.43,106.64L102.84,91.99L108.25,111.26L113.66,104.18L119.08,95.47L124.49,103.6L129.9,109.67L135.31,105.75L140.73,99.51L146.14,98.73L151.55,103.09L156.96,103.49L162.38,99.59L167.79,103.2L173.2,105.48L178.61,107.58L184.03,103.28L189.44,103.04L194.85,104.54L200.26,104.3L205.68,114.9L211.09,111.53L216.5,102.25L221.91,100.09L227.33,99.31L232.74,115.05L238.15,110.18L243.56,104.06L248.98,108.62L254.39,94.12L259.8,93.55L265.21,97.38L270.63,92.27L276.04,95.13L281.45,95.22L286.86,104.5L292.27,100.73L297.69,101.68L303.1,106.93L308.51,101.31L313.93,102.35L319.34,104.33L324.75,94.14L330.16,95.45L335.58,101.79L340.99,103.21L346.4,114.25L351.81,103.67L357.23,108.6L362.64,107.47L368.05,99.77L373.46,104.17L378.88,97.54L384.29,98.67L389.7,104.41L395.11,108.01L400.53,99.95L411.35,98.23L416.76,97.73L422.18,101.01L427.59,100.35L433,108.06L433,138.65L427.59,143.72L422.18,143.19L416.76,137.15L411.35,149.37L405.94,134.6L400.53,143.5L395.11,140.31L389.7,126.62L384.29,125.57L378.88,134.52L373.46,135.06L368.05,138.1L362.64,139.15L357.23,147.4L351.81,132.01L346.4,128.9L340.99,122.12L335.58,130.02L330.16,122.41L324.75,124.44L319.34,123.54L313.93,133.47L308.51,124.98L303.1,123.46L297.69,118.82L292.27,118.99L286.86,131.84L281.45,125.93L276.04,139.19L270.63,134.07L265.21,119L259.8,108.53L254.39,111.55L248.98,119.28L243.56,126.67L238.15,136.47L232.74,125.99L227.33,119.66L221.91,133.83L216.5,138.37L211.09,145.86L205.68,140.95L200.26,151.74L194.85,127.71L189.44,130.58L184.03,127.48L178.61,125.07L173.2,132.17L167.79,136.03L162.38,126.13L156.96,132.13L151.55,120.79L140.73,144.69L135.31,146.18L129.9,136.37L124.49,130.18L119.08,128.84L113.66,123.05L108.25,136.06L102.84,140.08L97.43,131.2L92.01,119.61L86.6,133.38L81.19,145.03L75.78,142.86L70.36,149.22L64.95,145.54L59.54,136.94L54.13,137.5L48.71,122.31L43.3,112.59L37.89,99.42L32.48,81.65L27.06,68.88L16.24,48.02L10.83,40.11L5.41,34.17L0,15.62Z" style="fill: rgb(64, 125, 183); fill-opacity: 1; stroke-width: 0;"/></g></g><g class="errorbars"/><g class="lines"><path class="js-line" d="M0,14.29L5.41,24.37L10.83,30.26L16.24,40.63L21.65,46.32L27.06,55.14L32.48,66.9L43.3,86.18L48.71,96.85L54.13,100.15L59.54,109.76L64.95,115.14L70.36,112.63L75.78,122.76L81.19,121.05L92.01,102.74L97.43,106.64L102.84,91.99L108.25,111.26L113.66,104.18L119.08,95.47L124.49,103.6L129.9,109.67L135.31,105.75L140.73,99.51L146.14,98.73L151.55,103.09L156.96,103.49L162.38,99.59L167.79,103.2L173.2,105.48L178.61,107.58L184.03,103.28L189.44,103.04L194.85,104.54L200.26,104.3L205.68,114.9L211.09,111.53L216.5,102.25L221.91,100.09L227.33,99.31L232.74,115.05L238.15,110.18L243.56,104.06L248.98,108.62L254.39,94.12L259.8,93.55L265.21,97.38L270.63,92.27L276.04,95.13L281.45,95.22L286.86,104.5L292.27,100.73L297.69,101.68L303.1,106.93L308.51,101.31L313.93,102.35L319.34,104.33L324.75,94.14L330.16,95.45L335.58,101.79L340.99,103.21L346.4,114.25L351.81,103.67L357.23,108.6L362.64,107.47L368.05,99.77L373.46,104.17L378.88,97.54L384.29,98.67L389.7,104.41L395.11,108.01L400.53,99.95L411.35,98.23L416.76,97.73L422.18,101.01L427.59,100.35L433,108.06L433,138.65L427.59,143.72L422.18,143.19L416.76,137.15L411.35,149.37L405.94,134.6L400.53,143.5L395.11,140.31L389.7,126.62L384.29,125.57L378.88,134.52L373.46,135.06L368.05,138.1L362.64,139.15L357.23,147.4L351.81,132.01L346.4,128.9L340.99,122.12L335.58,130.02L330.16,122.41L324.75,124.44L319.34,123.54L313.93,133.47L308.51,124.98L303.1,123.46L297.69,118.82L292.27,118.99L286.86,131.84L281.45,125.93L276.04,139.19L270.63,134.07L265.21,119L259.8,108.53L254.39,111.55L248.98,119.28L243.56,126.67L238.15,136.47L232.74,125.99L227.33,119.66L221.91,133.83L216.5,138.37L211.09,145.86L205.68,140.95L200.26,151.74L194.85,127.71L189.44,130.58L184.03,127.48L178.61,125.07L173.2,132.17L167.79,136.03L162.38,126.13L156.96,132.13L151.55,120.79L140.73,144.69L135.31,146.18L129.9,136.37L124.49,130.18L119.08,128.84L113.66,123.05L108.25,136.06L102.84,140.08L97.43,131.2L92.01,119.61L86.6,133.38L81.19,145.03L75.78,142.86L70.36,149.22L64.95,145.54L59.54,136.94L54.13,137.5L48.71,122.31L43.3,112.59L37.89,99.42L32.48,81.65L27.06,68.88L16.24,48.02L10.83,40.11L5.41,34.17L0,15.62" style="vector-effect: none; fill: none; stroke: rgb(0, 0, 0); stroke-opacity: 0; stroke-width: 2px; opacity: 1;"/></g><g class="points"/><g class="text"/></g><g class="trace scatter tracea88d2d" style="stroke-miterlimit: 2; opacity: 1;"><g class="fills"/><g class="errorbars"/><g class="lines"><path class="js-line" d="M0,21.84L5.41,35.18L10.83,45L21.65,67.53L27.06,77.39L32.48,88.27L37.89,96.79L48.71,117.33L54.13,126.83L59.54,139.11L64.95,149.29L70.36,154.55L75.78,157.06L81.19,156.45L86.6,153.04L92.01,147.95L97.43,139.02L102.84,131.48L108.25,132.71L113.66,127.49L119.08,124.32L124.49,121.25L129.9,121.87L135.31,120.38L140.73,124.75L146.14,127.77L151.55,129.58L156.96,125.51L162.38,125.1L167.79,122.07L173.2,121.54L178.61,119.15L184.03,124.62L189.44,128.34L194.85,122.21L200.26,127.23L205.68,134.12L211.09,135.5L216.5,133.94L221.91,130.75L227.33,130.69L238.15,137.36L243.56,132.3L254.39,137.26L259.8,137.4L265.21,136.71L270.63,141.49L276.04,138.11L281.45,146.89L286.86,143.72L292.27,136.79L297.69,137.63L303.1,133.68L308.51,128.59L313.93,125.01L319.34,124.91L324.75,127.15L330.16,125.15L335.58,125.56L346.4,123.59L351.81,128.03L357.23,127.94L362.64,124.35L373.46,133.01L378.88,138.84L384.29,143.38L389.7,138.56L395.11,135.79L400.53,131.54L405.94,135.09L411.35,136.35L416.76,134.19L422.18,136.72L427.59,129.67L433,132.48" style="vector-effect: none; fill: none; stroke: rgb(87, 175, 174); stroke-opacity: 1; stroke-width: 2px; opacity: 1;"/></g><g class="points"/><g class="text"/></g><g class="trace scatter tracef5fdad" style="stroke-miterlimit: 2; opacity: 0.3;"><g class="fills"><g><path class="js-fill" d="M0,20.81L5.41,32.69L10.83,42.28L16.24,50.4L21.65,62.31L27.06,69.29L32.48,81.23L37.89,83.84L43.3,95.67L48.71,102.4L54.13,117.68L59.54,134.89L64.95,144.45L70.36,147.5L75.78,149.4L81.19,141.95L86.6,136.4L92.01,131.41L97.43,130.09L102.84,114.17L108.25,112.05L113.66,111.98L119.08,110.29L124.49,105.31L129.9,109.84L135.31,107.18L140.73,105.58L151.55,119.77L156.96,118.82L162.38,113.65L167.79,110.95L173.2,117L178.61,113.09L184.03,111.57L189.44,119.51L194.85,109.99L200.26,115.88L205.68,125.73L211.09,129.76L221.91,118.78L227.33,118.01L232.74,121.59L238.15,126.97L243.56,129.06L248.98,122.79L254.39,127.77L259.8,128.74L270.63,126.31L276.04,128.29L281.45,134.59L286.86,128.51L292.27,120.38L297.69,115.21L308.51,127.24L313.93,119.18L319.34,115.32L324.75,115.85L330.16,111.24L335.58,116.78L340.99,116.58L346.4,112.29L351.81,121.83L357.23,121.34L362.64,114.63L368.05,120.14L373.46,123.32L378.88,130.44L384.29,135.7L389.7,136.33L400.53,119.4L405.94,125.32L416.76,114.12L422.18,120.56L427.59,118.07L433,117.3L433,147.66L427.59,141.26L422.18,152.88L416.76,154.25L411.35,152.78L405.94,144.87L400.53,143.69L395.11,143.45L389.7,140.78L384.29,151.06L373.46,142.71L368.05,136.54L362.64,134.07L357.23,134.53L351.81,134.23L346.4,134.89L340.99,132.16L335.58,134.34L330.16,139.06L324.75,138.45L313.93,130.85L308.51,129.95L297.69,160.05L292.27,153.19L286.86,158.94L281.45,159.2L276.04,147.93L270.63,156.66L265.21,145.96L259.8,146.06L254.39,146.76L248.98,146.35L243.56,135.53L238.15,147.76L227.33,143.36L221.91,142.73L216.5,143.15L211.09,141.23L205.68,142.5L200.26,138.58L194.85,134.43L189.44,137.16L184.03,137.67L178.61,125.21L173.2,126.08L167.79,133.19L162.38,136.56L156.96,132.21L151.55,139.4L146.14,142.4L140.73,143.91L135.31,133.57L129.9,133.91L124.49,137.18L119.08,138.35L113.66,143L108.25,153.37L102.84,148.8L97.43,147.94L92.01,164.5L86.6,169.69L81.19,170.95L75.78,164.73L70.36,161.6L64.95,154.13L59.54,143.34L54.13,135.99L48.71,132.26L43.3,119.42L37.89,109.75L32.48,95.31L27.06,85.49L21.65,72.75L16.24,63.77L10.83,47.71L5.41,37.68L0,22.87Z" style="fill: rgb(87, 175, 174); fill-opacity: 1; stroke-width: 0;"/></g></g><g class="errorbars"/><g class="lines"><path class="js-line" d="M0,20.81L5.41,32.69L10.83,42.28L16.24,50.4L21.65,62.31L27.06,69.29L32.48,81.23L37.89,83.84L43.3,95.67L48.71,102.4L54.13,117.68L59.54,134.89L64.95,144.45L70.36,147.5L75.78,149.4L81.19,141.95L86.6,136.4L92.01,131.41L97.43,130.09L102.84,114.17L108.25,112.05L113.66,111.98L119.08,110.29L124.49,105.31L129.9,109.84L135.31,107.18L140.73,105.58L151.55,119.77L156.96,118.82L162.38,113.65L167.79,110.95L173.2,117L178.61,113.09L184.03,111.57L189.44,119.51L194.85,109.99L200.26,115.88L205.68,125.73L211.09,129.76L221.91,118.78L227.33,118.01L232.74,121.59L238.15,126.97L243.56,129.06L248.98,122.79L254.39,127.77L259.8,128.74L270.63,126.31L276.04,128.29L281.45,134.59L286.86,128.51L292.27,120.38L297.69,115.21L308.51,127.24L313.93,119.18L319.34,115.32L324.75,115.85L330.16,111.24L335.58,116.78L340.99,116.58L346.4,112.29L351.81,121.83L357.23,121.34L362.64,114.63L368.05,120.14L373.46,123.32L378.88,130.44L384.29,135.7L389.7,136.33L400.53,119.4L405.94,125.32L416.76,114.12L422.18,120.56L427.59,118.07L433,117.3L433,147.66L427.59,141.26L422.18,152.88L416.76,154.25L411.35,152.78L405.94,144.87L400.53,143.69L395.11,143.45L389.7,140.78L384.29,151.06L373.46,142.71L368.05,136.54L362.64,134.07L357.23,134.53L351.81,134.23L346.4,134.89L340.99,132.16L335.58,134.34L330.16,139.06L324.75,138.45L313.93,130.85L308.51,129.95L297.69,160.05L292.27,153.19L286.86,158.94L281.45,159.2L276.04,147.93L270.63,156.66L265.21,145.96L259.8,146.06L254.39,146.76L248.98,146.35L243.56,135.53L238.15,147.76L227.33,143.36L221.91,142.73L216.5,143.15L211.09,141.23L205.68,142.5L200.26,138.58L194.85,134.43L189.44,137.16L184.03,137.67L178.61,125.21L173.2,126.08L167.79,133.19L162.38,136.56L156.96,132.21L151.55,139.4L146.14,142.4L140.73,143.91L135.31,133.57L129.9,133.91L124.49,137.18L119.08,138.35L113.66,143L108.25,153.37L102.84,148.8L97.43,147.94L92.01,164.5L86.6,169.69L81.19,170.95L75.78,164.73L70.36,161.6L64.95,154.13L59.54,143.34L54.13,135.99L48.71,132.26L43.3,119.42L37.89,109.75L32.48,95.31L27.06,85.49L21.65,72.75L16.24,63.77L10.83,47.71L5.41,37.68L0,22.87" style="vector-effect: none; fill: none; stroke: rgb(0, 0, 0); stroke-opacity: 0; stroke-width: 2px; opacity: 1;"/></g><g class="points"/><g class="text"/></g><g class="trace scatter trace98674d" style="stroke-miterlimit: 2; opacity: 1;"><g class="fills"/><g class="errorbars"/><g class="lines"><path class="js-line" d="M0,25.31L5.41,38.82L10.83,48.88L27.06,86.07L32.48,102.88L37.89,117.65L43.3,130.01L64.95,164.46L70.36,172.45L75.78,175.13L81.19,173.26L86.6,170.42L92.01,170.7L97.43,170.78L102.84,161.17L108.25,158.7L113.66,155.35L119.08,152.35L124.49,154.56L129.9,152.92L135.31,146.34L146.14,143.45L151.55,142.78L156.96,145.63L162.38,149.7L167.79,148.9L173.2,155.81L178.61,156.2L184.03,151.14L189.44,152.38L194.85,154.47L200.26,150.45L205.68,153.08L211.09,153.22L216.5,152.59L221.91,151.21L227.33,151.53L232.74,152.39L238.15,150.25L243.56,151.07L248.98,147.04L254.39,145.45L259.8,140.5L265.21,138.13L270.63,141.07L276.04,141.54L281.45,141.2L286.86,149.53L292.27,153.46L297.69,150.36L303.1,148.99L308.51,152.79L313.93,147.7L319.34,143.58L324.75,138.5L330.16,142.99L335.58,144.28L340.99,143.64L346.4,144.48L351.81,138.39L357.23,141.86L362.64,141.03L368.05,146.06L373.46,144.88L378.88,146.44L384.29,146.73L389.7,139.03L395.11,140.92L400.53,139.98L405.94,137.03L411.35,140.56L416.76,143.98L422.18,145.57L427.59,151.2L433,152.79" style="vector-effect: none; fill: none; stroke: rgb(142, 208, 165); stroke-opacity: 1; stroke-width: 2px; opacity: 1;"/></g><g class="points"/><g class="text"/></g><g class="trace scatter tracea08fa6" style="stroke-miterlimit: 2; opacity: 0.3;"><g class="fills"><g><path class="js-fill" d="M0,23.68L5.41,35.84L10.83,44.12L16.24,57.12L21.65,66.26L27.06,72.77L32.48,91.57L37.89,107.43L43.3,118.63L48.71,125.92L54.13,134.61L64.95,150.46L70.36,159.28L75.78,163.81L81.19,161.25L86.6,159.4L92.01,156.29L97.43,155.95L102.84,147.59L108.25,151.05L113.66,142.85L119.08,138.63L124.49,147.08L129.9,148.21L135.31,143.74L140.73,137.26L146.14,137.76L151.55,135.27L156.96,138.68L162.38,133.17L167.79,125.48L173.2,134.55L178.61,135.42L184.03,133.09L189.44,139.17L194.85,141.33L200.26,139.46L205.68,139.45L211.09,143L216.5,146.49L221.91,141.19L227.33,138.36L232.74,143.86L238.15,137.8L243.56,137.23L254.39,137.06L259.8,131.62L265.21,126.91L270.63,135.22L276.04,130.28L281.45,131.68L286.86,143.17L292.27,146.39L303.1,138.07L308.51,138.38L319.34,133.65L324.75,124.01L330.16,130.24L335.58,129.87L340.99,128.04L346.4,133.58L351.81,123.31L357.23,121.69L362.64,128.02L368.05,135.65L373.46,130.67L378.88,137.34L384.29,136.61L389.7,124.1L395.11,119.3L400.53,118.72L405.94,115.79L411.35,126.49L416.76,133.42L422.18,133.07L427.59,137.56L433,146.16L433,159.42L427.59,164.83L422.18,158.07L416.76,154.53L411.35,154.63L405.94,158.27L400.53,161.25L395.11,162.54L389.7,153.96L384.29,156.85L378.88,155.53L373.46,159.08L362.64,154.05L357.23,162.02L351.81,153.48L346.4,155.39L340.99,159.23L335.58,158.68L324.75,152.99L319.34,153.51L313.93,159.56L308.51,167.19L303.1,159.91L297.69,158.95L292.27,160.54L286.86,155.89L281.45,150.73L276.04,152.8L270.63,146.92L265.21,149.35L259.8,149.39L254.39,153.83L248.98,157.11L243.56,164.91L232.74,160.91L227.33,164.69L221.91,161.24L216.5,158.7L211.09,163.43L205.68,166.71L200.26,161.44L194.85,167.61L189.44,165.58L184.03,169.19L178.61,176.98L173.2,177.07L167.79,172.32L162.38,166.22L156.96,152.58L151.55,150.29L146.14,149.13L140.73,152.07L135.31,148.93L129.9,157.63L119.08,166.08L113.66,167.84L108.25,166.35L102.84,174.75L97.43,185.61L92.01,185.11L86.6,181.43L81.19,185.26L75.78,186.45L70.36,185.62L64.95,178.46L59.54,169.63L54.13,161.62L48.71,151.36L43.3,141.39L37.89,127.86L27.06,99.38L21.65,84.25L16.24,66.01L10.83,53.65L5.41,41.79L0,26.95Z" style="fill: rgb(142, 208, 165); fill-opacity: 1; stroke-width: 0;"/></g></g><g class="errorbars"/><g class="lines"><path class="js-line" d="M0,23.68L5.41,35.84L10.83,44.12L16.24,57.12L21.65,66.26L27.06,72.77L32.48,91.57L37.89,107.43L43.3,118.63L48.71,125.92L54.13,134.61L64.95,150.46L70.36,159.28L75.78,163.81L81.19,161.25L86.6,159.4L92.01,156.29L97.43,155.95L102.84,147.59L108.25,151.05L113.66,142.85L119.08,138.63L124.49,147.08L129.9,148.21L135.31,143.74L140.73,137.26L146.14,137.76L151.55,135.27L156.96,138.68L162.38,133.17L167.79,125.48L173.2,134.55L178.61,135.42L184.03,133.09L189.44,139.17L194.85,141.33L200.26,139.46L205.68,139.45L211.09,143L216.5,146.49L221.91,141.19L227.33,138.36L232.74,143.86L238.15,137.8L243.56,137.23L254.39,137.06L259.8,131.62L265.21,126.91L270.63,135.22L276.04,130.28L281.45,131.68L286.86,143.17L292.27,146.39L303.1,138.07L308.51,138.38L319.34,133.65L324.75,124.01L330.16,130.24L335.58,129.87L340.99,128.04L346.4,133.58L351.81,123.31L357.23,121.69L362.64,128.02L368.05,135.65L373.46,130.67L378.88,137.34L384.29,136.61L389.7,124.1L395.11,119.3L400.53,118.72L405.94,115.79L411.35,126.49L416.76,133.42L422.18,133.07L427.59,137.56L433,146.16L433,159.42L427.59,164.83L422.18,158.07L416.76,154.53L411.35,154.63L405.94,158.27L400.53,161.25L395.11,162.54L389.7,153.96L384.29,156.85L378.88,155.53L373.46,159.08L362.64,154.05L357.23,162.02L351.81,153.48L346.4,155.39L340.99,159.23L335.58,158.68L324.75,152.99L319.34,153.51L313.93,159.56L308.51,167.19L303.1,159.91L297.69,158.95L292.27,160.54L286.86,155.89L281.45,150.73L276.04,152.8L270.63,146.92L265.21,149.35L259.8,149.39L254.39,153.83L248.98,157.11L243.56,164.91L232.74,160.91L227.33,164.69L221.91,161.24L216.5,158.7L211.09,163.43L205.68,166.71L200.26,161.44L194.85,167.61L189.44,165.58L184.03,169.19L178.61,176.98L173.2,177.07L167.79,172.32L162.38,166.22L156.96,152.58L151.55,150.29L146.14,149.13L140.73,152.07L135.31,148.93L129.9,157.63L119.08,166.08L113.66,167.84L108.25,166.35L102.84,174.75L97.43,185.61L92.01,185.11L86.6,181.43L81.19,185.26L75.78,186.45L70.36,185.62L64.95,178.46L59.54,169.63L54.13,161.62L48.71,151.36L43.3,141.39L37.89,127.86L27.06,99.38L21.65,84.25L16.24,66.01L10.83,53.65L5.41,41.79L0,26.95" style="vector-effect: none; fill: none; stroke: rgb(0, 0, 0); stroke-opacity: 0; stroke-width: 2px; opacity: 1;"/></g><g class="points"/><g class="text"/></g><g class="trace scatter trace52a628" style="stroke-miterlimit: 2; opacity: 1;"><g class="fills"/><g class="errorbars"/><g class="lines"><path class="js-line" d="M0,29.04L5.41,43.5L10.83,54.95L16.24,64.75L21.65,76.88L48.71,135.69L54.13,146.04L59.54,156.28L64.95,160.06L75.78,175.91L81.19,178.75L86.6,177.44L92.01,180.51L97.43,177.03L102.84,171.95L108.25,174.19L113.66,172.3L119.08,173.99L124.49,170.46L129.9,170.52L135.31,167.53L146.14,163.92L151.55,161.19L156.96,160.15L162.38,152.89L167.79,151.72L173.2,153.86L178.61,154.45L184.03,161.08L189.44,160.21L194.85,162.9L200.26,162.42L205.68,163.63L211.09,165.91L216.5,166.61L221.91,164.65L227.33,167.44L232.74,163.12L238.15,161.26L243.56,156.25L248.98,159.21L254.39,161.57L259.8,157.95L265.21,159.77L270.63,158.19L276.04,158.64L281.45,152.48L286.86,158.54L292.27,157.78L297.69,156.5L303.1,159.86L308.51,165.31L313.93,169.33L319.34,169.37L324.75,165.67L330.16,163.61L335.58,159.46L346.4,160.94L351.81,165.25L357.23,167.97L362.64,168.09L368.05,166.26L373.46,163.36L378.88,158.95L384.29,156.75L395.11,156.06L400.53,158.15L405.94,156.56L411.35,158.89L416.76,157.22L422.18,157.58L433,153.91" style="vector-effect: none; fill: none; stroke: rgb(192, 229, 161); stroke-opacity: 1; stroke-width: 2px; opacity: 1;"/></g><g class="points"/><g class="text"/></g><g class="trace scatter trace4e55c4" style="stroke-miterlimit: 2; opacity: 0.3;"><g class="fills"><g><path class="js-fill" d="M0,27.53L5.41,42.57L10.83,54.07L21.65,72.79L27.06,83.29L32.48,93.92L37.89,106.25L43.3,120.45L48.71,130.16L59.54,149.31L64.95,154.32L70.36,164.91L75.78,169.02L81.19,170.07L86.6,158.37L92.01,162.71L97.43,157.29L102.84,155.67L108.25,158.21L113.66,156.24L119.08,161.1L124.49,163.21L129.9,166.35L135.31,160.52L140.73,157.33L156.96,150.12L162.38,148.94L167.79,144.29L173.2,146.19L178.61,146.43L184.03,149.3L189.44,147.26L194.85,151.73L200.26,147.01L205.68,148.64L211.09,152.13L216.5,153.13L221.91,154.01L227.33,157.59L232.74,147.21L238.15,146.36L243.56,144.1L248.98,149.32L254.39,153.36L259.8,148.18L265.21,145.65L270.63,144.55L276.04,143.9L281.45,136.25L286.86,142.37L292.27,142.68L297.69,141.05L303.1,144.8L308.51,154.7L313.93,159.29L319.34,157.2L324.75,154.26L330.16,154.61L335.58,148.55L346.4,151.34L351.81,151.38L357.23,152.03L362.64,149.16L373.46,149.72L378.88,137.98L384.29,140.04L389.7,145.2L395.11,149.7L400.53,150.36L405.94,149.29L411.35,150.36L416.76,148.63L422.18,148.48L433,144.27L433,163.56L427.59,166.09L422.18,166.69L416.76,165.8L411.35,167.41L405.94,163.84L400.53,165.93L395.11,162.42L389.7,168.36L384.29,173.45L378.88,179.93L373.46,177L368.05,183.2L362.64,187.03L357.23,183.91L351.81,179.12L346.4,170.55L335.58,170.36L330.16,172.61L319.34,181.54L313.93,179.37L308.51,175.92L303.1,174.92L297.69,171.96L292.27,172.89L286.86,174.72L281.45,168.7L276.04,173.38L270.63,171.83L265.21,173.88L259.8,167.73L254.39,169.78L248.98,169.1L243.56,168.4L238.15,176.16L232.74,179.03L227.33,177.29L221.91,175.3L216.5,180.09L205.68,178.62L200.26,177.82L194.85,174.07L189.44,173.16L184.03,172.85L178.61,162.47L173.2,161.54L167.79,159.15L162.38,156.83L156.96,170.17L151.55,170.05L146.14,172.98L140.73,174.84L135.31,174.54L129.9,174.69L124.49,177.71L119.08,186.87L113.66,188.37L108.25,190.17L102.84,188.24L97.43,196.77L92.01,198.32L86.6,196.51L81.19,187.43L75.78,182.79L70.36,170.61L64.95,165.8L59.54,163.25L32.48,107.33L27.06,93.58L21.65,80.98L16.24,66.43L5.41,44.42L0,30.54Z" style="fill: rgb(192, 229, 161); fill-opacity: 1; stroke-width: 0;"/></g></g><g class="errorbars"/><g class="lines"><path class="js-line" d="M0,27.53L5.41,42.57L10.83,54.07L21.65,72.79L27.06,83.29L32.48,93.92L37.89,106.25L43.3,120.45L48.71,130.16L59.54,149.31L64.95,154.32L70.36,164.91L75.78,169.02L81.19,170.07L86.6,158.37L92.01,162.71L97.43,157.29L102.84,155.67L108.25,158.21L113.66,156.24L119.08,161.1L124.49,163.21L129.9,166.35L135.31,160.52L140.73,157.33L156.96,150.12L162.38,148.94L167.79,144.29L173.2,146.19L178.61,146.43L184.03,149.3L189.44,147.26L194.85,151.73L200.26,147.01L205.68,148.64L211.09,152.13L216.5,153.13L221.91,154.01L227.33,157.59L232.74,147.21L238.15,146.36L243.56,144.1L248.98,149.32L254.39,153.36L259.8,148.18L265.21,145.65L270.63,144.55L276.04,143.9L281.45,136.25L286.86,142.37L292.27,142.68L297.69,141.05L303.1,144.8L308.51,154.7L313.93,159.29L319.34,157.2L324.75,154.26L330.16,154.61L335.58,148.55L346.4,151.34L351.81,151.38L357.23,152.03L362.64,149.16L373.46,149.72L378.88,137.98L384.29,140.04L389.7,145.2L395.11,149.7L400.53,150.36L405.94,149.29L411.35,150.36L416.76,148.63L422.18,148.48L433,144.27L433,163.56L427.59,166.09L422.18,166.69L416.76,165.8L411.35,167.41L405.94,163.84L400.53,165.93L395.11,162.42L389.7,168.36L384.29,173.45L378.88,179.93L373.46,177L368.05,183.2L362.64,187.03L357.23,183.91L351.81,179.12L346.4,170.55L335.58,170.36L330.16,172.61L319.34,181.54L313.93,179.37L308.51,175.92L303.1,174.92L297.69,171.96L292.27,172.89L286.86,174.72L281.45,168.7L276.04,173.38L270.63,171.83L265.21,173.88L259.8,167.73L254.39,169.78L248.98,169.1L243.56,168.4L238.15,176.16L232.74,179.03L227.33,177.29L221.91,175.3L216.5,180.09L205.68,178.62L200.26,177.82L194.85,174.07L189.44,173.16L184.03,172.85L178.61,162.47L173.2,161.54L167.79,159.15L162.38,156.83L156.96,170.17L151.55,170.05L146.14,172.98L140.73,174.84L135.31,174.54L129.9,174.69L124.49,177.71L119.08,186.87L113.66,188.37L108.25,190.17L102.84,188.24L97.43,196.77L92.01,198.32L86.6,196.51L81.19,187.43L75.78,182.79L70.36,170.61L64.95,165.8L59.54,163.25L32.48,107.33L27.06,93.58L21.65,80.98L16.24,66.43L5.41,44.42L0,30.54" style="vector-effect: none; fill: none; stroke: rgb(0, 0, 0); stroke-opacity: 0; stroke-width: 2px; opacity: 1;"/></g><g class="points"/><g class="text"/></g><g class="trace scatter trace4e950e" style="stroke-miterlimit: 2; opacity: 1;"><g class="fills"/><g class="errorbars"/><g class="lines"><path class="js-line" d="M0,29.29L5.41,45.41L10.83,56.7L21.65,78.55L27.06,91.95L48.71,145.78L54.13,153.59L64.95,174.79L70.36,180.41L75.78,185.04L81.19,187.52L86.6,187.86L92.01,191.33L97.43,189.26L102.84,189.14L108.25,189.58L113.66,189.14L119.08,188.47L124.49,185.82L129.9,182.42L135.31,180.72L140.73,179.39L146.14,176.18L151.55,179.04L156.96,175.64L162.38,175.49L167.79,173.04L173.2,172.77L178.61,174.66L184.03,176.16L189.44,178.84L194.85,178.59L200.26,179.48L216.5,177.37L221.91,179.15L227.33,176.38L232.74,176.82L238.15,178.67L243.56,178.07L248.98,179.38L254.39,179.51L259.8,180.66L265.21,177.49L270.63,172.85L276.04,172.06L281.45,169.11L286.86,170.81L292.27,174.6L297.69,177.17L303.1,173.61L308.51,175.04L313.93,180.2L319.34,182.02L324.75,182.17L330.16,184.23L335.58,178.37L340.99,177.05L346.4,171.06L351.81,169.37L357.23,168.44L362.64,169.14L368.05,169.24L373.46,167.93L378.88,169.08L384.29,164.85L389.7,167.33L395.11,174.95L400.53,177.7L405.94,182.51L411.35,182.12L416.76,180.07L422.18,178.62L427.59,178.45L433,177.08" style="vector-effect: none; fill: none; stroke: rgb(233, 246, 157); stroke-opacity: 1; stroke-width: 2px; opacity: 1;"/></g><g class="points"/><g class="text"/></g><g class="trace scatter trace525d40" style="stroke-miterlimit: 2; opacity: 0.3;"><g class="fills"><g><path class="js-fill" d="M0,29.14L5.41,44.43L10.83,54.75L21.65,73.08L27.06,84.81L32.48,96.34L37.89,110.85L43.3,125.8L48.71,137.98L54.13,142.57L59.54,154.98L64.95,163.83L70.36,171.03L75.78,176.28L81.19,176.89L86.6,176.36L92.01,179.17L97.43,178.77L102.84,184.41L108.25,186.92L113.66,181.93L119.08,182.08L124.49,178.62L129.9,171.59L135.31,167.52L146.14,162.8L151.55,171.47L156.96,167.21L162.38,166L167.79,161.37L173.2,161.03L184.03,172.35L189.44,169.03L194.85,169.58L200.26,171.66L205.68,170.41L211.09,170.95L216.5,172.51L221.91,171.77L232.74,168.38L238.15,173.36L243.56,174.31L248.98,174.47L254.39,171.53L259.8,173.59L270.63,167.28L276.04,167.24L281.45,160.07L286.86,155.83L297.69,163.38L303.1,161.12L308.51,162.3L313.93,172.71L319.34,174.36L324.75,171.59L330.16,171.85L335.58,164.79L340.99,163.37L346.4,159.64L351.81,159.64L357.23,161.96L362.64,165.81L368.05,166.25L378.88,164.7L384.29,152.9L389.7,156.61L395.11,164.49L400.53,169.2L405.94,175.32L411.35,174.31L416.76,175.04L422.18,170.68L427.59,172.1L433,170.88L433,183.29L422.18,186.56L416.76,185.1L411.35,189.93L405.94,189.69L400.53,186.2L395.11,185.4L389.7,178.05L384.29,176.79L373.46,170.29L368.05,172.23L362.64,172.47L357.23,174.91L346.4,182.48L340.99,190.73L335.58,191.95L330.16,196.61L319.34,189.68L313.93,187.7L308.51,187.79L303.1,186.09L297.69,190.95L292.27,189.57L286.86,185.79L281.45,178.16L276.04,176.88L270.63,178.41L265.21,184.85L259.8,187.73L254.39,187.5L248.98,184.29L243.56,181.83L238.15,183.98L232.74,185.27L227.33,183.01L221.91,186.52L216.5,182.23L211.09,185.13L205.68,186.93L189.44,188.65L184.03,179.97L173.2,184.5L167.79,184.71L162.38,184.98L156.96,184.07L146.14,189.56L140.73,193.53L135.31,193.92L129.9,193.25L124.49,193.02L119.08,194.86L113.66,196.35L108.25,192.23L102.84,193.87L97.43,199.74L92.01,203.5L86.6,199.36L81.19,198.14L75.78,193.8L64.95,185.75L59.54,175.01L48.71,153.58L43.3,137.55L32.48,114.08L27.06,99.08L21.65,84.02L16.24,72.01L5.41,46.39L0,29.44Z" style="fill: rgb(233, 246, 157); fill-opacity: 1; stroke-width: 0;"/></g></g><g class="errorbars"/><g class="lines"><path class="js-line" d="M0,29.14L5.41,44.43L10.83,54.75L21.65,73.08L27.06,84.81L32.48,96.34L37.89,110.85L43.3,125.8L48.71,137.98L54.13,142.57L59.54,154.98L64.95,163.83L70.36,171.03L75.78,176.28L81.19,176.89L86.6,176.36L92.01,179.17L97.43,178.77L102.84,184.41L108.25,186.92L113.66,181.93L119.08,182.08L124.49,178.62L129.9,171.59L135.31,167.52L146.14,162.8L151.55,171.47L156.96,167.21L162.38,166L167.79,161.37L173.2,161.03L184.03,172.35L189.44,169.03L194.85,169.58L200.26,171.66L205.68,170.41L211.09,170.95L216.5,172.51L221.91,171.77L232.74,168.38L238.15,173.36L243.56,174.31L248.98,174.47L254.39,171.53L259.8,173.59L270.63,167.28L276.04,167.24L281.45,160.07L286.86,155.83L297.69,163.38L303.1,161.12L308.51,162.3L313.93,172.71L319.34,174.36L324.75,171.59L330.16,171.85L335.58,164.79L340.99,163.37L346.4,159.64L351.81,159.64L357.23,161.96L362.64,165.81L368.05,166.25L378.88,164.7L384.29,152.9L389.7,156.61L395.11,164.49L400.53,169.2L405.94,175.32L411.35,174.31L416.76,175.04L422.18,170.68L427.59,172.1L433,170.88L433,183.29L422.18,186.56L416.76,185.1L411.35,189.93L405.94,189.69L400.53,186.2L395.11,185.4L389.7,178.05L384.29,176.79L373.46,170.29L368.05,172.23L362.64,172.47L357.23,174.91L346.4,182.48L340.99,190.73L335.58,191.95L330.16,196.61L319.34,189.68L313.93,187.7L308.51,187.79L303.1,186.09L297.69,190.95L292.27,189.57L286.86,185.79L281.45,178.16L276.04,176.88L270.63,178.41L265.21,184.85L259.8,187.73L254.39,187.5L248.98,184.29L243.56,181.83L238.15,183.98L232.74,185.27L227.33,183.01L221.91,186.52L216.5,182.23L211.09,185.13L205.68,186.93L189.44,188.65L184.03,179.97L173.2,184.5L167.79,184.71L162.38,184.98L156.96,184.07L146.14,189.56L140.73,193.53L135.31,193.92L129.9,193.25L124.49,193.02L119.08,194.86L113.66,196.35L108.25,192.23L102.84,193.87L97.43,199.74L92.01,203.5L86.6,199.36L81.19,198.14L75.78,193.8L64.95,185.75L59.54,175.01L48.71,153.58L43.3,137.55L32.48,114.08L27.06,99.08L21.65,84.02L16.24,72.01L5.41,46.39L0,29.44" style="vector-effect: none; fill: none; stroke: rgb(0, 0, 0); stroke-opacity: 0; stroke-width: 2px; opacity: 1;"/></g><g class="points"/><g class="text"/></g><g class="trace scatter traced806b2" style="stroke-miterlimit: 2; opacity: 1;"><g class="fills"/><g class="errorbars"/><g class="lines"><path class="js-line" d="M0,32.44L5.41,47.66L10.83,58.33L21.65,79.99L27.06,92.55L43.3,132.04L48.71,144.29L54.13,155.39L59.54,163.84L64.95,177.59L70.36,188.42L75.78,197.15L81.19,200.78L86.6,198.84L92.01,195.28L97.43,196.55L102.84,191.72L113.66,191.08L119.08,188.3L124.49,187.07L129.9,184.91L135.31,182.59L140.73,181.47L146.14,179.8L151.55,180.58L156.96,183.76L162.38,185.73L167.79,186.79L173.2,185.57L178.61,189.17L184.03,188.13L200.26,187.05L205.68,182.76L211.09,181.38L216.5,180.79L221.91,176.7L227.33,179.61L232.74,180.13L238.15,178.04L243.56,184.11L248.98,185.81L254.39,188.26L259.8,188.92L265.21,189.92L270.63,188.69L281.45,187.8L286.86,185.92L292.27,186.84L297.69,184.56L308.51,184.48L313.93,185.68L324.75,181.32L330.16,181.06L340.99,180.27L346.4,184.57L351.81,185.78L357.23,189.4L362.64,186.62L368.05,185.58L373.46,183.74L378.88,183.79L384.29,183.28L389.7,185.75L395.11,182.91L400.53,183.14L411.35,186.58L416.76,185.24L422.18,185.52L427.59,183.76L433,181.14" style="vector-effect: none; fill: none; stroke: rgb(255, 255, 191); stroke-opacity: 1; stroke-width: 2px; opacity: 1;"/></g><g class="points"/><g class="text"/></g><g class="trace scatter trace82cbae" style="stroke-miterlimit: 2; opacity: 0.3;"><g class="fills"><g><path class="js-fill" d="M0,32.04L5.41,46.29L10.83,56.7L21.65,77.65L27.06,90.19L48.71,143.34L54.13,154.66L59.54,159.84L64.95,170.2L75.78,192.66L81.19,196.58L86.6,192.92L92.01,190.29L97.43,190.29L102.84,185.57L113.66,184.08L119.08,182.38L129.9,178.35L135.31,176.75L140.73,175.24L146.14,172.67L151.55,175.46L156.96,180.46L162.38,180.38L167.79,181.08L173.2,180.29L178.61,185.48L184.03,185.5L189.44,184.7L200.26,184.6L205.68,178.75L211.09,176.34L216.5,176.1L221.91,171.44L227.33,173.51L232.74,170.2L238.15,168.3L243.56,176.21L248.98,177.08L254.39,180.82L259.8,183.14L265.21,186.94L270.63,185.86L286.86,179.83L292.27,179.67L297.69,176.42L303.1,177.83L308.51,176.82L313.93,182.03L324.75,176.13L330.16,175.13L340.99,172.6L346.4,178.97L351.81,185.32L357.23,184.56L368.05,176.76L373.46,175.14L384.29,179.09L389.7,184.42L395.11,179.75L400.53,179.55L405.94,183.34L411.35,182.59L416.76,177.99L422.18,177L427.59,177.23L433,170.18L433,192.1L427.59,190.29L422.18,194.04L416.76,192.5L411.35,190.57L405.94,185.69L400.53,186.73L395.11,186.07L384.29,187.47L378.88,190.65L368.05,194.4L362.64,192.21L357.23,194.24L351.81,186.24L346.4,190.16L340.99,187.95L324.75,186.51L319.34,188.61L313.93,189.33L308.51,192.14L303.1,191.84L297.69,192.7L292.27,194.02L286.86,192L281.45,193.61L276.04,193.33L270.63,191.51L265.21,192.89L259.8,194.7L254.39,195.69L248.98,194.54L243.56,192.01L238.15,187.78L232.74,190.06L221.91,181.96L216.5,185.48L205.68,186.77L200.26,189.51L194.85,189.49L189.44,191.09L184.03,190.75L178.61,192.86L173.2,190.84L167.79,192.51L162.38,191.08L156.96,187.07L151.55,185.7L146.14,186.93L135.31,188.42L129.9,191.47L124.49,194.18L119.08,194.22L113.66,198.09L108.25,198.12L102.84,197.88L97.43,202.81L92.01,200.27L86.6,204.75L81.19,204.99L75.78,201.64L70.36,195.58L64.95,184.97L59.54,167.85L54.13,156.11L37.89,122.8L32.48,108.83L21.65,82.33L16.24,70.6L5.41,49.03L0,32.85Z" style="fill: rgb(255, 255, 191); fill-opacity: 1; stroke-width: 0;"/></g></g><g class="errorbars"/><g class="lines"><path class="js-line" d="M0,32.04L5.41,46.29L10.83,56.7L21.65,77.65L27.06,90.19L48.71,143.34L54.13,154.66L59.54,159.84L64.95,170.2L75.78,192.66L81.19,196.58L86.6,192.92L92.01,190.29L97.43,190.29L102.84,185.57L113.66,184.08L119.08,182.38L129.9,178.35L135.31,176.75L140.73,175.24L146.14,172.67L151.55,175.46L156.96,180.46L162.38,180.38L167.79,181.08L173.2,180.29L178.61,185.48L184.03,185.5L189.44,184.7L200.26,184.6L205.68,178.75L211.09,176.34L216.5,176.1L221.91,171.44L227.33,173.51L232.74,170.2L238.15,168.3L243.56,176.21L248.98,177.08L254.39,180.82L259.8,183.14L265.21,186.94L270.63,185.86L286.86,179.83L292.27,179.67L297.69,176.42L303.1,177.83L308.51,176.82L313.93,182.03L324.75,176.13L330.16,175.13L340.99,172.6L346.4,178.97L351.81,185.32L357.23,184.56L368.05,176.76L373.46,175.14L384.29,179.09L389.7,184.42L395.11,179.75L400.53,179.55L405.94,183.34L411.35,182.59L416.76,177.99L422.18,177L427.59,177.23L433,170.18L433,192.1L427.59,190.29L422.18,194.04L416.76,192.5L411.35,190.57L405.94,185.69L400.53,186.73L395.11,186.07L384.29,187.47L378.88,190.65L368.05,194.4L362.64,192.21L357.23,194.24L351.81,186.24L346.4,190.16L340.99,187.95L324.75,186.51L319.34,188.61L313.93,189.33L308.51,192.14L303.1,191.84L297.69,192.7L292.27,194.02L286.86,192L281.45,193.61L276.04,193.33L270.63,191.51L265.21,192.89L259.8,194.7L254.39,195.69L248.98,194.54L243.56,192.01L238.15,187.78L232.74,190.06L221.91,181.96L216.5,185.48L205.68,186.77L200.26,189.51L194.85,189.49L189.44,191.09L184.03,190.75L178.61,192.86L173.2,190.84L167.79,192.51L162.38,191.08L156.96,187.07L151.55,185.7L146.14,186.93L135.31,188.42L129.9,191.47L124.49,194.18L119.08,194.22L113.66,198.09L108.25,198.12L102.84,197.88L97.43,202.81L92.01,200.27L86.6,204.75L81.19,204.99L75.78,201.64L70.36,195.58L64.95,184.97L59.54,167.85L54.13,156.11L37.89,122.8L32.48,108.83L21.65,82.33L16.24,70.6L5.41,49.03L0,32.85" style="vector-effect: none; fill: none; stroke: rgb(0, 0, 0); stroke-opacity: 0; stroke-width: 2px; opacity: 1;"/></g><g class="points"/><g class="text"/></g><g class="trace scatter tracef6c042" style="stroke-miterlimit: 2; opacity: 1;"><g class="fills"/><g class="errorbars"/><g class="lines"><path class="js-line" d="M0,35.68L5.41,51.61L10.83,62.95L21.65,86.09L27.06,98.92L43.3,134.08L48.71,148.07L59.54,169.45L64.95,178.96L70.36,191.62L75.78,196.73L81.19,199.73L86.6,198.52L92.01,197.69L97.43,195.08L102.84,193.16L108.25,194.73L113.66,194.8L119.08,193.11L129.9,193.19L135.31,193.93L140.73,192.67L146.14,190L151.55,190.36L156.96,189.03L162.38,186.23L167.79,186.21L173.2,185.35L178.61,185.67L184.03,186.58L189.44,181.59L194.85,184.11L200.26,183.85L205.68,184.35L211.09,186.37L216.5,187.26L221.91,187.18L227.33,187.4L232.74,188.71L238.15,191.53L243.56,190.31L254.39,191.76L259.8,193.54L270.63,191.12L276.04,191.54L292.27,192.31L297.69,195.5L303.1,197.34L308.51,195.29L313.93,196.31L319.34,196.15L324.75,194.62L330.16,191.98L335.58,191.28L340.99,191.55L351.81,192.76L357.23,193.25L362.64,192.57L368.05,188.55L373.46,187.56L378.88,187.67L389.7,188.22L395.11,188.04L405.94,187.18L411.35,188.36L416.76,188.84L422.18,187.76L433,190.6" style="vector-effect: none; fill: none; stroke: rgb(254, 228, 146); stroke-opacity: 1; stroke-width: 2px; opacity: 1;"/></g><g class="points"/><g class="text"/></g><g class="trace scatter traceade2e5" style="stroke-miterlimit: 2; opacity: 0.3;"><g class="fills"><g><path class="js-fill" d="M0,34.97L5.41,50.66L10.83,61.2L21.65,83.29L27.06,95.93L54.13,155.62L59.54,165.02L64.95,174.14L70.36,185.5L75.78,190.91L81.19,198.3L86.6,193.29L92.01,191.27L97.43,190.67L102.84,188.96L108.25,190.19L113.66,189.42L119.08,185.37L124.49,186.83L129.9,185.44L135.31,188.11L140.73,187.37L146.14,184.44L151.55,184.19L156.96,182.38L162.38,181.18L167.79,181.82L173.2,178.98L178.61,180.85L184.03,181.46L189.44,175.11L194.85,175.69L200.26,175.38L205.68,176.21L211.09,180.18L216.5,179.1L221.91,176.99L227.33,178.75L232.74,181.47L243.56,185.49L248.98,185.06L259.8,189.95L265.21,189.68L270.63,185.98L276.04,186.46L281.45,188.34L286.86,186.96L292.27,188.76L297.69,192.04L303.1,194.94L308.51,191.3L319.34,192.1L324.75,191.47L330.16,189.19L335.58,188.12L340.99,187.82L346.4,186.76L351.81,189.35L357.23,186.25L362.64,185.7L368.05,181.56L373.46,180.32L378.88,180.33L384.29,181.65L389.7,181.44L395.11,182.18L400.53,180.28L416.76,183.21L422.18,181L433,180.87L433,200.32L422.18,194.53L416.76,194.46L405.94,193.31L400.53,195.43L395.11,193.91L389.7,195L378.88,195.01L373.46,194.81L368.05,195.54L362.64,199.44L357.23,200.25L351.81,196.18L346.4,196.94L340.99,195.28L335.58,194.45L330.16,194.78L319.34,200.21L313.93,201.08L308.51,199.28L303.1,199.73L297.69,198.96L292.27,195.86L286.86,197.7L281.45,195.68L276.04,196.63L270.63,196.25L265.21,195.08L259.8,197.13L254.39,196.33L248.98,197.4L243.56,195.12L238.15,199.33L232.74,195.95L227.33,196.04L221.91,197.37L216.5,195.42L211.09,192.57L205.68,192.48L194.85,192.54L189.44,188.08L184.03,191.69L178.61,190.48L173.2,191.73L167.79,190.61L162.38,191.29L156.96,195.67L151.55,196.53L146.14,195.55L135.31,199.75L129.9,200.93L124.49,198.92L119.08,200.86L108.25,199.27L102.84,197.37L97.43,199.49L92.01,204.11L86.6,203.75L81.19,201.16L75.78,202.56L70.36,197.73L64.95,183.79L59.54,173.88L48.71,151.84L43.3,136.94L21.65,88.89L16.24,75.75L5.41,52.56L0,36.4Z" style="fill: rgb(254, 228, 146); fill-opacity: 1; stroke-width: 0;"/></g></g><g class="errorbars"/><g class="lines"><path class="js-line" d="M0,34.97L5.41,50.66L10.83,61.2L21.65,83.29L27.06,95.93L54.13,155.62L59.54,165.02L64.95,174.14L70.36,185.5L75.78,190.91L81.19,198.3L86.6,193.29L92.01,191.27L97.43,190.67L102.84,188.96L108.25,190.19L113.66,189.42L119.08,185.37L124.49,186.83L129.9,185.44L135.31,188.11L140.73,187.37L146.14,184.44L151.55,184.19L156.96,182.38L162.38,181.18L167.79,181.82L173.2,178.98L178.61,180.85L184.03,181.46L189.44,175.11L194.85,175.69L200.26,175.38L205.68,176.21L211.09,180.18L216.5,179.1L221.91,176.99L227.33,178.75L232.74,181.47L243.56,185.49L248.98,185.06L259.8,189.95L265.21,189.68L270.63,185.98L276.04,186.46L281.45,188.34L286.86,186.96L292.27,188.76L297.69,192.04L303.1,194.94L308.51,191.3L319.34,192.1L324.75,191.47L330.16,189.19L335.58,188.12L340.99,187.82L346.4,186.76L351.81,189.35L357.23,186.25L362.64,185.7L368.05,181.56L373.46,180.32L378.88,180.33L384.29,181.65L389.7,181.44L395.11,182.18L400.53,180.28L416.76,183.21L422.18,181L433,180.87L433,200.32L422.18,194.53L416.76,194.46L405.94,193.31L400.53,195.43L395.11,193.91L389.7,195L378.88,195.01L373.46,194.81L368.05,195.54L362.64,199.44L357.23,200.25L351.81,196.18L346.4,196.94L340.99,195.28L335.58,194.45L330.16,194.78L319.34,200.21L313.93,201.08L308.51,199.28L303.1,199.73L297.69,198.96L292.27,195.86L286.86,197.7L281.45,195.68L276.04,196.63L270.63,196.25L265.21,195.08L259.8,197.13L254.39,196.33L248.98,197.4L243.56,195.12L238.15,199.33L232.74,195.95L227.33,196.04L221.91,197.37L216.5,195.42L211.09,192.57L205.68,192.48L194.85,192.54L189.44,188.08L184.03,191.69L178.61,190.48L173.2,191.73L167.79,190.61L162.38,191.29L156.96,195.67L151.55,196.53L146.14,195.55L135.31,199.75L129.9,200.93L124.49,198.92L119.08,200.86L108.25,199.27L102.84,197.37L97.43,199.49L92.01,204.11L86.6,203.75L81.19,201.16L75.78,202.56L70.36,197.73L64.95,183.79L59.54,173.88L48.71,151.84L43.3,136.94L21.65,88.89L16.24,75.75L5.41,52.56L0,36.4" style="vector-effect: none; fill: none; stroke: rgb(0, 0, 0); stroke-opacity: 0; stroke-width: 2px; opacity: 1;"/></g><g class="points"/><g class="text"/></g><g class="trace scatter trace914eab" style="stroke-miterlimit: 2; opacity: 1;"><g class="fills"/><g class="errorbars"/><g class="lines"><path class="js-line" d="M0,35.99L5.41,51.87L10.83,62.85L37.89,124.33L43.3,139.31L59.54,176.8L64.95,187.85L70.36,196.58L75.78,202.25L81.19,204.25L86.6,202.29L92.01,201.18L97.43,199.16L108.25,198.32L113.66,195.82L119.08,193.78L124.49,193.13L129.9,194.03L135.31,192.14L146.14,190.75L151.55,190.67L156.96,189.82L162.38,190.57L167.79,188.34L173.2,190.15L184.03,188.68L189.44,189.41L194.85,188.78L200.26,189.05L205.68,189.78L211.09,191.48L216.5,192.33L221.91,192.37L227.33,192.09L232.74,190.21L243.56,190.76L248.98,192.02L254.39,192.88L259.8,192.56L276.04,192.15L281.45,192.28L297.69,192.53L303.1,191.7L313.93,194.36L319.34,194.5L324.75,194.6L330.16,196.16L335.58,194.07L340.99,195.41L357.23,192.13L362.64,192.44L368.05,192.84L373.46,191.89L378.88,191.05L384.29,191.02L389.7,191.91L395.11,190.84L400.53,189.14L405.94,190.1L411.35,192.63L416.76,191.7L433,193.49" style="vector-effect: none; fill: none; stroke: rgb(254, 191, 111); stroke-opacity: 1; stroke-width: 2px; opacity: 1;"/></g><g class="points"/><g class="text"/></g><g class="trace scatter trace0e32bb" style="stroke-miterlimit: 2; opacity: 0.3;"><g class="fills"><g><path class="js-fill" d="M0,35.99L5.41,50.93L10.83,60L21.65,81.73L27.06,91.5L43.3,132.89L48.71,147.33L59.54,170.04L64.95,178.5L70.36,189.44L75.78,198.48L81.19,199.5L86.6,198.79L92.01,197.21L97.43,196.94L113.66,194.25L119.08,190.9L124.49,190.68L129.9,191.53L135.31,189.01L140.73,189.31L151.55,187.31L156.96,183.61L162.38,185.86L167.79,184.03L173.2,185.15L178.61,183.32L184.03,182.38L189.44,185.22L194.85,187.55L200.26,185.56L205.68,187.38L211.09,185.78L216.5,187.6L221.91,188.02L227.33,187.63L232.74,184.29L243.56,185.31L248.98,185.05L254.39,185.3L259.8,187.15L265.21,185.03L270.63,185.62L286.86,185.09L292.27,182.7L297.69,184.41L303.1,183.95L313.93,189.95L319.34,191.33L330.16,193.93L335.58,191.46L340.99,193.43L346.4,192.87L357.23,188.69L362.64,187.82L373.46,189.12L378.88,187.79L389.7,188.23L395.11,184.87L400.53,182.94L405.94,183.29L411.35,188.7L416.76,188.24L422.18,186.45L427.59,186.57L433,189.48L433,197.49L427.59,199.39L422.18,197.72L416.76,195.17L411.35,196.57L405.94,196.9L400.53,195.35L395.11,196.81L389.7,195.59L384.29,194.4L378.88,194.3L373.46,194.66L368.05,197.54L362.64,197.05L357.23,195.57L351.81,195.35L346.4,196.19L340.99,197.39L335.58,196.67L330.16,198.39L324.75,196.69L308.51,199.07L303.1,199.46L292.27,201.22L286.86,199.55L276.04,198.92L270.63,197.91L265.21,199.39L259.8,197.98L254.39,200.46L248.98,198.99L243.56,196.21L238.15,196.13L221.91,196.72L216.5,197.06L211.09,197.18L205.68,192.19L200.26,192.54L194.85,190L189.44,193.61L184.03,194.99L178.61,195.88L173.2,195.15L167.79,192.64L162.38,195.28L156.96,196.04L151.55,194.04L140.73,193.17L135.31,195.27L129.9,196.54L124.49,195.59L113.66,197.39L108.25,201.89L102.84,200.77L97.43,201.38L92.01,205.15L86.6,205.8L81.19,209L75.78,206.02L70.36,203.72L64.95,197.19L59.54,183.56L54.13,172.09L48.71,157.3L43.3,145.74L32.48,117.47L27.06,106.36L16.24,78.92L10.83,65.69L5.41,52.81L0,35.99Z" style="fill: rgb(254, 191, 111); fill-opacity: 1; stroke-width: 0;"/></g></g><g class="errorbars"/><g class="lines"><path class="js-line" d="M0,35.99L5.41,50.93L10.83,60L21.65,81.73L27.06,91.5L43.3,132.89L48.71,147.33L59.54,170.04L64.95,178.5L70.36,189.44L75.78,198.48L81.19,199.5L86.6,198.79L92.01,197.21L97.43,196.94L113.66,194.25L119.08,190.9L124.49,190.68L129.9,191.53L135.31,189.01L140.73,189.31L151.55,187.31L156.96,183.61L162.38,185.86L167.79,184.03L173.2,185.15L178.61,183.32L184.03,182.38L189.44,185.22L194.85,187.55L200.26,185.56L205.68,187.38L211.09,185.78L216.5,187.6L221.91,188.02L227.33,187.63L232.74,184.29L243.56,185.31L248.98,185.05L254.39,185.3L259.8,187.15L265.21,185.03L270.63,185.62L286.86,185.09L292.27,182.7L297.69,184.41L303.1,183.95L313.93,189.95L319.34,191.33L330.16,193.93L335.58,191.46L340.99,193.43L346.4,192.87L357.23,188.69L362.64,187.82L373.46,189.12L378.88,187.79L389.7,188.23L395.11,184.87L400.53,182.94L405.94,183.29L411.35,188.7L416.76,188.24L422.18,186.45L427.59,186.57L433,189.48L433,197.49L427.59,199.39L422.18,197.72L416.76,195.17L411.35,196.57L405.94,196.9L400.53,195.35L395.11,196.81L389.7,195.59L384.29,194.4L378.88,194.3L373.46,194.66L368.05,197.54L362.64,197.05L357.23,195.57L351.81,195.35L346.4,196.19L340.99,197.39L335.58,196.67L330.16,198.39L324.75,196.69L308.51,199.07L303.1,199.46L292.27,201.22L286.86,199.55L276.04,198.92L270.63,197.91L265.21,199.39L259.8,197.98L254.39,200.46L248.98,198.99L243.56,196.21L238.15,196.13L221.91,196.72L216.5,197.06L211.09,197.18L205.68,192.19L200.26,192.54L194.85,190L189.44,193.61L184.03,194.99L178.61,195.88L173.2,195.15L167.79,192.64L162.38,195.28L156.96,196.04L151.55,194.04L140.73,193.17L135.31,195.27L129.9,196.54L124.49,195.59L113.66,197.39L108.25,201.89L102.84,200.77L97.43,201.38L92.01,205.15L86.6,205.8L81.19,209L75.78,206.02L70.36,203.72L64.95,197.19L59.54,183.56L54.13,172.09L48.71,157.3L43.3,145.74L32.48,117.47L27.06,106.36L16.24,78.92L10.83,65.69L5.41,52.81L0,35.99" style="vector-effect: none; fill: none; stroke: rgb(0, 0, 0); stroke-opacity: 0; stroke-width: 2px; opacity: 1;"/></g><g class="points"/><g class="text"/></g><g class="trace scatter trace179f1a" style="stroke-miterlimit: 2; opacity: 1;"><g class="fills"/><g class="errorbars"/><g class="lines"><path class="js-line" d="M0,39.19L5.41,53.36L10.83,64.74L21.65,89.71L27.06,102.99L48.71,156.11L54.13,167.25L59.54,177.68L64.95,191.7L70.36,199.44L75.78,199.52L81.19,198.71L86.6,198.75L102.84,194.87L108.25,193.98L119.08,194.13L124.49,193.88L129.9,194.52L135.31,193.94L140.73,194.79L146.14,194.69L162.38,195.82L167.79,194.84L178.61,194.36L184.03,196.02L194.85,194.8L200.26,196.44L205.68,196.03L211.09,196.71L216.5,196.65L221.91,195.19L232.74,195.28L238.15,196.32L243.56,195.69L248.98,193.46L259.8,193L265.21,194.54L276.04,194.73L281.45,193.92L292.27,193.45L297.69,193.22L308.51,192.34L313.93,193.72L319.34,195.87L324.75,193.98L340.99,196.07L346.4,194.97L351.81,194.95L357.23,193.68L378.88,193.97L384.29,195.69L389.7,196.92L395.11,196.62L400.53,196.92L405.94,196.31L411.35,194.43L416.76,194.15L427.59,194.66L433,193.97" style="vector-effect: none; fill: none; stroke: rgb(250, 145, 83); stroke-opacity: 1; stroke-width: 2px; opacity: 1;"/></g><g class="points"/><g class="text"/></g><g class="trace scatter trace2245b5" style="stroke-miterlimit: 2; opacity: 0.3;"><g class="fills"><g><path class="js-fill" d="M0,38.89L5.41,52.22L10.83,62.98L16.24,73.45L21.65,86.77L48.71,149.75L54.13,159.41L59.54,169.03L64.95,182.88L70.36,192.44L75.78,194.33L81.19,193.89L86.6,195.12L92.01,193.14L97.43,192.23L113.66,191.46L119.08,191.95L129.9,191.67L135.31,191.66L146.14,189.49L151.55,192.17L162.38,192.18L167.79,189.44L173.2,190.18L178.61,189.63L184.03,192.26L189.44,192.55L194.85,192.33L200.26,195.04L205.68,193.6L211.09,194.99L216.5,194.63L221.91,190.74L227.33,192.56L232.74,191.8L238.15,191.88L243.56,190.81L248.98,186.79L254.39,189.42L259.8,186.59L265.21,190.43L270.63,192.43L276.04,192.64L281.45,190.04L286.86,190.67L292.27,190.47L297.69,188.36L303.1,188.83L308.51,187.68L319.34,191.98L324.75,190.98L335.58,192.55L340.99,193.64L346.4,191.25L351.81,191.69L357.23,189.06L362.64,190.41L368.05,191.08L373.46,189.85L378.88,188.52L384.29,191.44L389.7,190.27L395.11,192.63L400.53,190.95L405.94,190.26L411.35,189.12L416.76,191.68L422.18,192.81L427.59,190.84L433,189.99L433,197.94L427.59,198.48L422.18,196.65L416.76,196.62L411.35,199.74L405.94,202.36L400.53,202.9L395.11,200.61L389.7,203.58L384.29,199.93L378.88,199.41L373.46,198.93L368.05,196.65L351.81,198.2L346.4,198.7L330.16,198.01L324.75,196.97L319.34,199.76L313.93,197.48L303.1,196.82L297.69,198.08L292.27,196.44L286.86,197.37L281.45,197.81L276.04,196.82L270.63,196.67L265.21,198.65L259.8,199.41L254.39,197.61L248.98,200.14L243.56,200.57L238.15,200.77L232.74,198.75L227.33,198.19L221.91,199.65L211.09,198.43L205.68,198.47L194.85,197.28L189.44,198.78L184.03,199.79L178.61,199.09L173.2,199.18L167.79,200.24L162.38,199.46L156.96,199.66L151.55,198.26L146.14,199.88L140.73,199.36L135.31,196.22L129.9,197.37L124.49,196.22L119.08,196.31L113.66,197.31L108.25,195.92L102.84,197.85L92.01,201.55L86.6,202.38L70.36,206.44L64.95,200.51L59.54,186.33L54.13,175.09L43.3,148.09L37.89,134.87L21.65,92.65L16.24,79.62L0,39.49Z" style="fill: rgb(250, 145, 83); fill-opacity: 1; stroke-width: 0;"/></g></g><g class="errorbars"/><g class="lines"><path class="js-line" d="M0,38.89L5.41,52.22L10.83,62.98L16.24,73.45L21.65,86.77L48.71,149.75L54.13,159.41L59.54,169.03L64.95,182.88L70.36,192.44L75.78,194.33L81.19,193.89L86.6,195.12L92.01,193.14L97.43,192.23L113.66,191.46L119.08,191.95L129.9,191.67L135.31,191.66L146.14,189.49L151.55,192.17L162.38,192.18L167.79,189.44L173.2,190.18L178.61,189.63L184.03,192.26L189.44,192.55L194.85,192.33L200.26,195.04L205.68,193.6L211.09,194.99L216.5,194.63L221.91,190.74L227.33,192.56L232.74,191.8L238.15,191.88L243.56,190.81L248.98,186.79L254.39,189.42L259.8,186.59L265.21,190.43L270.63,192.43L276.04,192.64L281.45,190.04L286.86,190.67L292.27,190.47L297.69,188.36L303.1,188.83L308.51,187.68L319.34,191.98L324.75,190.98L335.58,192.55L340.99,193.64L346.4,191.25L351.81,191.69L357.23,189.06L362.64,190.41L368.05,191.08L373.46,189.85L378.88,188.52L384.29,191.44L389.7,190.27L395.11,192.63L400.53,190.95L405.94,190.26L411.35,189.12L416.76,191.68L422.18,192.81L427.59,190.84L433,189.99L433,197.94L427.59,198.48L422.18,196.65L416.76,196.62L411.35,199.74L405.94,202.36L400.53,202.9L395.11,200.61L389.7,203.58L384.29,199.93L378.88,199.41L373.46,198.93L368.05,196.65L351.81,198.2L346.4,198.7L330.16,198.01L324.75,196.97L319.34,199.76L313.93,197.48L303.1,196.82L297.69,198.08L292.27,196.44L286.86,197.37L281.45,197.81L276.04,196.82L270.63,196.67L265.21,198.65L259.8,199.41L254.39,197.61L248.98,200.14L243.56,200.57L238.15,200.77L232.74,198.75L227.33,198.19L221.91,199.65L211.09,198.43L205.68,198.47L194.85,197.28L189.44,198.78L184.03,199.79L178.61,199.09L173.2,199.18L167.79,200.24L162.38,199.46L156.96,199.66L151.55,198.26L146.14,199.88L140.73,199.36L135.31,196.22L129.9,197.37L124.49,196.22L119.08,196.31L113.66,197.31L108.25,195.92L102.84,197.85L92.01,201.55L86.6,202.38L70.36,206.44L64.95,200.51L59.54,186.33L54.13,175.09L43.3,148.09L37.89,134.87L21.65,92.65L16.24,79.62L0,39.49" style="vector-effect: none; fill: none; stroke: rgb(0, 0, 0); stroke-opacity: 0; stroke-width: 2px; opacity: 1;"/></g><g class="points"/><g class="text"/></g><g class="trace scatter tracef28739" style="stroke-miterlimit: 2; opacity: 1;"><g class="fills"/><g class="errorbars"/><g class="lines"><path class="js-line" d="M0,42.62L5.41,56.82L10.83,68.12L32.48,120.24L37.89,132.99L43.3,146.95L48.71,158.37L64.95,190.3L70.36,198.36L75.78,200.57L81.19,198.68L86.6,198.67L92.01,197.65L97.43,198.9L102.84,197.9L108.25,198.83L113.66,198.48L119.08,196.56L124.49,197.38L129.9,196.47L135.31,196.33L146.14,195.56L151.55,194.7L162.38,195.69L167.79,195.61L173.2,196.14L178.61,195.78L184.03,194.85L189.44,194.9L200.26,195.3L205.68,195.47L211.09,197.41L216.5,196.14L227.33,195.31L232.74,194.73L238.15,193.91L243.56,194.75L248.98,194.71L254.39,195.69L265.21,197.8L270.63,198.07L276.04,198.21L281.45,199.48L292.27,198.33L297.69,197.65L308.51,194.85L313.93,195.67L319.34,196.55L324.75,195.16L340.99,194.17L346.4,194.38L351.81,194.06L357.23,195.16L368.05,195.77L373.46,196.07L384.29,195.63L389.7,197.22L411.35,197.64L416.76,196.3L433,197.62" style="vector-effect: none; fill: none; stroke: rgb(233, 94, 72); stroke-opacity: 1; stroke-width: 2px; opacity: 1;"/></g><g class="points"/><g class="text"/></g><g class="trace scatter trace1d97b0" style="stroke-miterlimit: 2; opacity: 0.3;"><g class="fills"><g><path class="js-fill" d="M0,42.3L16.24,79.42L21.65,91.56L27.06,104.46L32.48,115.24L43.3,142.02L48.71,151.92L54.13,163L59.54,171.66L70.36,194.8L75.78,198.97L81.19,194.75L86.6,195.11L92.01,193.59L97.43,194.91L102.84,193.61L108.25,194.2L113.66,194.51L119.08,193.43L124.49,194.81L129.9,193.7L135.31,194.5L140.73,193.75L146.14,193.03L151.55,193.86L156.96,193.92L162.38,195.01L167.79,194.93L173.2,193.58L178.61,191.24L184.03,191.41L189.44,192.81L194.85,192.83L200.26,192.56L205.68,194.08L211.09,194.64L216.5,193.72L221.91,193.56L227.33,191.42L232.74,190.69L238.15,187.96L248.98,189.46L254.39,192.22L259.8,193.08L265.21,193.08L270.63,195.88L276.04,195.87L281.45,196.86L286.86,195.57L292.27,196.85L297.69,195.06L303.1,194.83L308.51,191.79L319.34,195.85L324.75,194.14L335.58,191.24L340.99,192.27L346.4,192.92L351.81,192.61L357.23,192.27L362.64,193.68L368.05,194.77L373.46,192.54L384.29,191.18L389.7,193.53L400.53,192.79L405.94,194.18L411.35,193.68L416.76,191.77L422.18,192.54L427.59,192.11L433,193.58L433,201.67L427.59,202.55L422.18,201.29L416.76,200.84L411.35,201.59L405.94,201.45L400.53,202.43L395.11,201.17L389.7,200.92L378.88,199.37L373.46,199.59L368.05,196.78L362.64,197.96L357.23,198.06L351.81,195.5L340.99,196.07L335.58,198.49L330.16,196.41L324.75,196.18L319.34,197.25L313.93,197.51L303.1,197.94L297.69,200.25L292.27,199.81L286.86,201.59L281.45,202.09L276.04,200.55L270.63,200.26L265.21,202.52L254.39,199.16L248.98,199.97L243.56,200.85L238.15,199.86L232.74,198.77L227.33,199.2L221.91,198.48L216.5,198.55L211.09,200.18L205.68,196.86L200.26,198.05L194.85,197.98L189.44,196.99L184.03,198.3L178.61,200.31L173.2,198.7L167.79,196.3L162.38,196.38L156.96,197.15L151.55,195.53L146.14,198.09L140.73,198.59L135.31,198.15L129.9,199.25L124.49,199.94L119.08,199.69L113.66,202.45L108.25,203.46L102.84,202.2L97.43,202.89L92.01,201.7L86.6,202.23L81.19,202.61L75.78,202.16L70.36,201.92L64.95,197.5L59.54,187.42L54.13,175.32L48.71,164.82L43.3,151.87L27.06,111.49L21.65,98.83L10.83,69.26L5.41,58.35L0,42.95Z" style="fill: rgb(233, 94, 72); fill-opacity: 1; stroke-width: 0;"/></g></g><g class="errorbars"/><g class="lines"><path class="js-line" d="M0,42.3L16.24,79.42L21.65,91.56L27.06,104.46L32.48,115.24L43.3,142.02L48.71,151.92L54.13,163L59.54,171.66L70.36,194.8L75.78,198.97L81.19,194.75L86.6,195.11L92.01,193.59L97.43,194.91L102.84,193.61L108.25,194.2L113.66,194.51L119.08,193.43L124.49,194.81L129.9,193.7L135.31,194.5L140.73,193.75L146.14,193.03L151.55,193.86L156.96,193.92L162.38,195.01L167.79,194.93L173.2,193.58L178.61,191.24L184.03,191.41L189.44,192.81L194.85,192.83L200.26,192.56L205.68,194.08L211.09,194.64L216.5,193.72L221.91,193.56L227.33,191.42L232.74,190.69L238.15,187.96L248.98,189.46L254.39,192.22L259.8,193.08L265.21,193.08L270.63,195.88L276.04,195.87L281.45,196.86L286.86,195.57L292.27,196.85L297.69,195.06L303.1,194.83L308.51,191.79L319.34,195.85L324.75,194.14L335.58,191.24L340.99,192.27L346.4,192.92L351.81,192.61L357.23,192.27L362.64,193.68L368.05,194.77L373.46,192.54L384.29,191.18L389.7,193.53L400.53,192.79L405.94,194.18L411.35,193.68L416.76,191.77L422.18,192.54L427.59,192.11L433,193.58L433,201.67L427.59,202.55L422.18,201.29L416.76,200.84L411.35,201.59L405.94,201.45L400.53,202.43L395.11,201.17L389.7,200.92L378.88,199.37L373.46,199.59L368.05,196.78L362.64,197.96L357.23,198.06L351.81,195.5L340.99,196.07L335.58,198.49L330.16,196.41L324.75,196.18L319.34,197.25L313.93,197.51L303.1,197.94L297.69,200.25L292.27,199.81L286.86,201.59L281.45,202.09L276.04,200.55L270.63,200.26L265.21,202.52L254.39,199.16L248.98,199.97L243.56,200.85L238.15,199.86L232.74,198.77L227.33,199.2L221.91,198.48L216.5,198.55L211.09,200.18L205.68,196.86L200.26,198.05L194.85,197.98L189.44,196.99L184.03,198.3L178.61,200.31L173.2,198.7L167.79,196.3L162.38,196.38L156.96,197.15L151.55,195.53L146.14,198.09L140.73,198.59L135.31,198.15L129.9,199.25L124.49,199.94L119.08,199.69L113.66,202.45L108.25,203.46L102.84,202.2L97.43,202.89L92.01,201.7L86.6,202.23L81.19,202.61L75.78,202.16L70.36,201.92L64.95,197.5L59.54,187.42L54.13,175.32L48.71,164.82L43.3,151.87L27.06,111.49L21.65,98.83L10.83,69.26L5.41,58.35L0,42.95" style="vector-effect: none; fill: none; stroke: rgb(0, 0, 0); stroke-opacity: 0; stroke-width: 2px; opacity: 1;"/></g><g class="points"/><g class="text"/></g><g class="trace scatter trace121f32" style="stroke-miterlimit: 2; opacity: 1;"><g class="fills"/><g class="errorbars"/><g class="lines"><path class="js-line" d="M0,42.66L5.41,58.41L10.83,70.54L21.65,94.35L27.06,107.71L48.71,160.3L54.13,172.19L59.54,184.16L64.95,192.72L70.36,198.15L75.78,199.36L81.19,197.27L86.6,196.83L97.43,195.16L102.84,195.57L108.25,195.66L113.66,194.59L124.49,192.95L129.9,192.39L140.73,191.71L146.14,192.14L162.38,193.98L167.79,195.78L178.61,196.02L184.03,196.95L194.85,197.16L200.26,198.35L205.68,197.05L211.09,198.08L216.5,197.44L221.91,198.95L232.74,200.16L238.15,199.14L254.39,197.52L259.8,197.01L270.63,196.13L276.04,194.31L292.27,194.98L297.69,196.44L303.1,195.91L308.51,196.57L313.93,194.8L319.34,195.99L335.58,194.87L340.99,195.55L346.4,195.69L351.81,195.05L357.23,193.49L362.64,194.63L373.46,195.8L378.88,195.59L389.7,194.19L395.11,194.86L400.53,194.9L405.94,195.86L422.18,195.28L427.59,195.01L433,195.47" style="vector-effect: none; fill: none; stroke: rgb(202, 53, 76); stroke-opacity: 1; stroke-width: 2px; opacity: 1;"/></g><g class="points"/><g class="text"/></g><g class="trace scatter trace249a91" style="stroke-miterlimit: 2; opacity: 0.3;"><g class="fills"><g><path class="js-fill" d="M0,42.45L5.41,57.65L10.83,67.63L21.65,90.15L27.06,105.02L37.89,131.7L43.3,144.7L48.71,158.94L54.13,169.61L64.95,188.3L70.36,195.52L75.78,197.11L81.19,195.37L97.43,193.19L102.84,193.66L113.66,191.52L119.08,189.14L124.49,188.56L129.9,188.99L135.31,190.6L140.73,190.55L156.96,189.27L162.38,190.47L167.79,194.51L173.2,193.81L194.85,195.13L200.26,196.45L205.68,193.81L211.09,194.77L216.5,194.04L221.91,196.76L227.33,197.23L232.74,198.55L265.21,192.79L270.63,191.58L276.04,189.76L281.45,191.5L286.86,191.79L292.27,191.18L297.69,194.2L303.1,194.1L308.51,194.81L313.93,192.97L319.34,194.48L324.75,194.21L330.16,193.6L335.58,193.89L340.99,194.6L346.4,194.22L351.81,194.3L357.23,192.4L362.64,193L368.05,192.68L373.46,194.13L378.88,192.53L384.29,192.56L389.7,190.3L395.11,190.01L400.53,190.67L422.18,192.8L427.59,192.75L433,192.43L433,198.51L427.59,197.28L422.18,197.75L405.94,200.42L400.53,199.13L395.11,199.7L389.7,198.08L384.29,197.66L378.88,198.66L373.46,197.48L368.05,198.51L357.23,194.58L351.81,195.8L346.4,197.16L340.99,196.5L335.58,195.84L330.16,196.62L319.34,197.51L313.93,196.64L308.51,198.32L303.1,197.72L297.69,198.68L292.27,198.78L286.86,197L281.45,197.43L270.63,200.68L265.21,200.62L254.39,200.01L248.98,200.79L238.15,200.6L232.74,201.77L227.33,202.05L221.91,201.13L216.5,200.83L211.09,201.4L205.68,200.3L200.26,200.24L194.85,199.18L189.44,199.24L173.2,198.05L167.79,197.04L162.38,197.49L156.96,196.51L151.55,195.78L146.14,194.16L140.73,192.87L135.31,193.51L124.49,197.34L119.08,197.8L113.66,197.65L108.25,198.46L97.43,197.13L92.01,198.24L81.19,199.17L75.78,201.6L70.36,200.79L64.95,197.13L59.54,189.06L54.13,174.76L48.71,161.66L43.3,151.91L16.24,84.95L10.83,73.46L0,42.86Z" style="fill: rgb(202, 53, 76); fill-opacity: 1; stroke-width: 0;"/></g></g><g class="errorbars"/><g class="lines"><path class="js-line" d="M0,42.45L5.41,57.65L10.83,67.63L21.65,90.15L27.06,105.02L37.89,131.7L43.3,144.7L48.71,158.94L54.13,169.61L64.95,188.3L70.36,195.52L75.78,197.11L81.19,195.37L97.43,193.19L102.84,193.66L113.66,191.52L119.08,189.14L124.49,188.56L129.9,188.99L135.31,190.6L140.73,190.55L156.96,189.27L162.38,190.47L167.79,194.51L173.2,193.81L194.85,195.13L200.26,196.45L205.68,193.81L211.09,194.77L216.5,194.04L221.91,196.76L227.33,197.23L232.74,198.55L265.21,192.79L270.63,191.58L276.04,189.76L281.45,191.5L286.86,191.79L292.27,191.18L297.69,194.2L303.1,194.1L308.51,194.81L313.93,192.97L319.34,194.48L324.75,194.21L330.16,193.6L335.58,193.89L340.99,194.6L346.4,194.22L351.81,194.3L357.23,192.4L362.64,193L368.05,192.68L373.46,194.13L378.88,192.53L384.29,192.56L389.7,190.3L395.11,190.01L400.53,190.67L422.18,192.8L427.59,192.75L433,192.43L433,198.51L427.59,197.28L422.18,197.75L405.94,200.42L400.53,199.13L395.11,199.7L389.7,198.08L384.29,197.66L378.88,198.66L373.46,197.48L368.05,198.51L357.23,194.58L351.81,195.8L346.4,197.16L340.99,196.5L335.58,195.84L330.16,196.62L319.34,197.51L313.93,196.64L308.51,198.32L303.1,197.72L297.69,198.68L292.27,198.78L286.86,197L281.45,197.43L270.63,200.68L265.21,200.62L254.39,200.01L248.98,200.79L238.15,200.6L232.74,201.77L227.33,202.05L221.91,201.13L216.5,200.83L211.09,201.4L205.68,200.3L200.26,200.24L194.85,199.18L189.44,199.24L173.2,198.05L167.79,197.04L162.38,197.49L156.96,196.51L151.55,195.78L146.14,194.16L140.73,192.87L135.31,193.51L124.49,197.34L119.08,197.8L113.66,197.65L108.25,198.46L97.43,197.13L92.01,198.24L81.19,199.17L75.78,201.6L70.36,200.79L64.95,197.13L59.54,189.06L54.13,174.76L48.71,161.66L43.3,151.91L16.24,84.95L10.83,73.46L0,42.86" style="vector-effect: none; fill: none; stroke: rgb(0, 0, 0); stroke-opacity: 0; stroke-width: 2px; opacity: 1;"/></g><g class="points"/><g class="text"/></g><g class="trace scatter tracea01425" style="stroke-miterlimit: 2; opacity: 1;"><g class="fills"/><g class="errorbars"/><g class="lines"><path class="js-line" d="M0,45.93L10.83,72.72L16.24,85.6L43.3,151.84L48.71,165.83L59.54,190.79L64.95,197.78L70.36,199.15L75.78,197.99L81.19,197.37L86.6,197.73L102.84,197.11L108.25,196.11L119.08,195.82L124.49,196.4L140.73,194.47L146.14,194.96L151.55,195.66L156.96,195.24L178.61,194.09L184.03,193.9L216.5,197.37L221.91,196.43L232.74,197.01L238.15,196.8L243.56,196.2L248.98,196.97L286.86,194.91L292.27,195.88L297.69,195.7L303.1,194.64L313.93,194.03L319.34,194.59L335.58,195.35L340.99,195.16L346.4,195.34L351.81,196.39L357.23,197.22L362.64,197L368.05,197.54L373.46,196.05L395.11,196.03L400.53,196.63L416.76,195.84L422.18,196.88L433,196.15" style="vector-effect: none; fill: none; stroke: rgb(158, 1, 66); stroke-opacity: 1; stroke-width: 2px; opacity: 1;"/></g><g class="points"/><g class="text"/></g><g class="trace scatter trace1e1509" style="stroke-miterlimit: 2; opacity: 0.3;"><g class="fills"><g><path class="js-fill" d="M0,45.39L10.83,70.54L16.24,82.01L21.65,93.8L27.06,107.98L32.48,118.51L37.89,132.08L59.54,186L64.95,195.54L70.36,196.65L75.78,196.08L81.19,195.02L86.6,196.66L92.01,197.25L97.43,196.48L108.25,194.08L113.66,193.8L124.49,194.49L129.9,193.39L140.73,191.45L146.14,192.95L151.55,194.14L156.96,193.9L162.38,192.72L167.79,192.77L173.2,192.73L178.61,191.68L184.03,190.87L189.44,191.1L205.68,193.11L211.09,193.29L216.5,196.36L221.91,194.2L232.74,195.89L238.15,194.27L243.56,195.29L248.98,194.94L254.39,193.95L259.8,194.89L270.63,193.27L276.04,193.79L297.69,192.91L303.1,191.97L308.51,192.49L313.93,191.32L319.34,193.02L324.75,193.3L335.58,194.2L340.99,192.63L362.64,192.52L368.05,194.8L373.46,192.31L378.88,192.57L384.29,193.93L389.7,193.43L411.35,194.29L416.76,194.08L427.59,194.5L433,194L433,198.31L427.59,198.57L422.18,199.15L416.76,197.6L411.35,198.83L405.94,198.02L400.53,199.11L395.11,198.3L384.29,198.78L378.88,199.21L357.23,201.93L351.81,199.82L346.4,198.08L340.99,197.7L335.58,196.49L330.16,197.07L319.34,196.16L313.93,196.74L308.51,196.38L303.1,197.31L297.69,198.5L292.27,198.31L286.86,196.26L281.45,197.59L276.04,197.01L270.63,197.6L259.8,197.93L254.39,199.44L248.98,199.01L243.56,197.11L238.15,199.33L232.74,198.13L221.91,198.67L216.5,198.39L205.68,198.81L200.26,197.74L184.03,196.93L178.61,196.5L162.38,197.55L156.96,196.57L151.55,197.18L146.14,196.96L129.9,198.05L124.49,198.3L119.08,197.69L113.66,198.07L86.6,198.81L81.19,199.72L75.78,199.9L70.36,201.65L64.95,200.02L59.54,195.58L54.13,182.46L48.71,171.36L37.89,144.02L32.48,128.72L21.65,103.91L16.24,89.19L0,46.46Z" style="fill: rgb(158, 1, 66); fill-opacity: 1; stroke-width: 0;"/></g></g><g class="errorbars"/><g class="lines"><path class="js-line" d="M0,45.39L10.83,70.54L16.24,82.01L21.65,93.8L27.06,107.98L32.48,118.51L37.89,132.08L59.54,186L64.95,195.54L70.36,196.65L75.78,196.08L81.19,195.02L86.6,196.66L92.01,197.25L97.43,196.48L108.25,194.08L113.66,193.8L124.49,194.49L129.9,193.39L140.73,191.45L146.14,192.95L151.55,194.14L156.96,193.9L162.38,192.72L167.79,192.77L173.2,192.73L178.61,191.68L184.03,190.87L189.44,191.1L205.68,193.11L211.09,193.29L216.5,196.36L221.91,194.2L232.74,195.89L238.15,194.27L243.56,195.29L248.98,194.94L254.39,193.95L259.8,194.89L270.63,193.27L276.04,193.79L297.69,192.91L303.1,191.97L308.51,192.49L313.93,191.32L319.34,193.02L324.75,193.3L335.58,194.2L340.99,192.63L362.64,192.52L368.05,194.8L373.46,192.31L378.88,192.57L384.29,193.93L389.7,193.43L411.35,194.29L416.76,194.08L427.59,194.5L433,194L433,198.31L427.59,198.57L422.18,199.15L416.76,197.6L411.35,198.83L405.94,198.02L400.53,199.11L395.11,198.3L384.29,198.78L378.88,199.21L357.23,201.93L351.81,199.82L346.4,198.08L340.99,197.7L335.58,196.49L330.16,197.07L319.34,196.16L313.93,196.74L308.51,196.38L303.1,197.31L297.69,198.5L292.27,198.31L286.86,196.26L281.45,197.59L276.04,197.01L270.63,197.6L259.8,197.93L254.39,199.44L248.98,199.01L243.56,197.11L238.15,199.33L232.74,198.13L221.91,198.67L216.5,198.39L205.68,198.81L200.26,197.74L184.03,196.93L178.61,196.5L162.38,197.55L156.96,196.57L151.55,197.18L146.14,196.96L129.9,198.05L124.49,198.3L119.08,197.69L113.66,198.07L86.6,198.81L81.19,199.72L75.78,199.9L70.36,201.65L64.95,200.02L59.54,195.58L54.13,182.46L48.71,171.36L37.89,144.02L32.48,128.72L21.65,103.91L16.24,89.19L0,46.46" style="vector-effect: none; fill: none; stroke: rgb(0, 0, 0); stroke-opacity: 0; stroke-width: 2px; opacity: 1;"/></g><g class="points"/><g class="text"/></g></g></g></g><g class="zerolinelayer-above"/><path class="xlines-above crisp" d="M0,0" style="fill: none;"/><path class="ylines-above crisp" d="M0,0" style="fill: none;"/><g class="overlines-above"/><g class="xaxislayer-above"><g class="xtick"><text text-anchor="middle" x="0" y="333" transform="translate(80,0)" style="font-family: 'Open Sans', verdana, arial, sans-serif; font-size: 12px; fill: rgb(42, 63, 95); fill-opacity: 1; white-space: pre;">0</text></g><g class="xtick"><text text-anchor="middle" x="0" y="333" style="font-family: 'Open Sans', verdana, arial, sans-serif; font-size: 12px; fill: rgb(42, 63, 95); fill-opacity: 1; white-space: pre;" transform="translate(188.25,0)">2M</text></g><g class="xtick"><text text-anchor="middle" x="0" y="333" style="font-family: 'Open Sans', verdana, arial, sans-serif; font-size: 12px; fill: rgb(42, 63, 95); fill-opacity: 1; white-space: pre;" transform="translate(296.5,0)">4M</text></g><g class="xtick"><text text-anchor="middle" x="0" y="333" style="font-family: 'Open Sans', verdana, arial, sans-serif; font-size: 12px; fill: rgb(42, 63, 95); fill-opacity: 1; white-space: pre;" transform="translate(404.75,0)">6M</text></g><g class="xtick"><text text-anchor="middle" x="0" y="333" style="font-family: 'Open Sans', verdana, arial, sans-serif; font-size: 12px; fill: rgb(42, 63, 95); fill-opacity: 1; white-space: pre;" transform="translate(513,0)">8M</text></g></g><g class="yaxislayer-above"><g class="ytick"><text text-anchor="end" x="79" y="4.199999999999999" transform="translate(0,319.06)" style="font-family: 'Open Sans', verdana, arial, sans-serif; font-size: 12px; fill: rgb(42, 63, 95); fill-opacity: 1; white-space: pre;">100</text></g><g class="ytick"><text text-anchor="end" x="79" y="4.199999999999999" style="font-family: 'Open Sans', verdana, arial, sans-serif; font-size: 12px; fill: rgb(42, 63, 95); fill-opacity: 1; white-space: pre;" transform="translate(0,283.45)">200</text></g><g class="ytick"><text text-anchor="end" x="79" y="4.199999999999999" style="font-family: 'Open Sans', verdana, arial, sans-serif; font-size: 12px; fill: rgb(42, 63, 95); fill-opacity: 1; white-space: pre;" transform="translate(0,247.84)">300</text></g><g class="ytick"><text text-anchor="end" x="79" y="4.199999999999999" style="font-family: 'Open Sans', verdana, arial, sans-serif; font-size: 12px; fill: rgb(42, 63, 95); fill-opacity: 1; white-space: pre;" transform="translate(0,212.23000000000002)">400</text></g><g class="ytick"><text text-anchor="end" x="79" y="4.199999999999999" style="font-family: 'Open Sans', verdana, arial, sans-serif; font-size: 12px; fill: rgb(42, 63, 95); fill-opacity: 1; white-space: pre;" transform="translate(0,176.61)">500</text></g><g class="ytick"><text text-anchor="end" x="79" y="4.199999999999999" style="font-family: 'Open Sans', verdana, arial, sans-serif; font-size: 12px; fill: rgb(42, 63, 95); fill-opacity: 1; white-space: pre;" transform="translate(0,141)">600</text></g><g class="ytick"><text text-anchor="end" x="79" y="4.199999999999999" style="font-family: 'Open Sans', verdana, arial, sans-serif; font-size: 12px; fill: rgb(42, 63, 95); fill-opacity: 1; white-space: pre;" transform="translate(0,105.39)">700</text></g></g><g class="overaxes-above"/></g></g><g class="polarlayer"/><g class="smithlayer"/><g class="ternarylayer"/><g class="geolayer"/><g class="funnelarealayer"/><g class="pielayer"/><g class="iciclelayer"/><g class="treemaplayer"/><g class="sunburstlayer"/><g class="glimages"/><defs id="topdefs-64b33d"><g class="clips"/><clipPath id="legend64b33d"><rect width="66" height="220" x="0" y="0"/></clipPath></defs><g class="layer-above"><g class="imagelayer"/><g class="shapelayer"/></g><g class="infolayer"><g class="legend" pointer-events="all" transform="translate(521.6600000000001,100)"><rect class="bg" shape-rendering="crispEdges" style="stroke: rgb(68, 68, 68); stroke-opacity: 1; fill: rgb(255, 255, 255); fill-opacity: 1; stroke-width: 0px;" width="66" height="220" x="0" y="0"/><g class="scrollbox" transform="" clip-path="url(#legend64b33d)"><g class="groups"><g class="traces" transform="translate(0,14.5)" style="opacity: 1;"><text class="legendtext" text-anchor="start" x="40" y="4.680000000000001" style="font-family: 'Open Sans', verdana, arial, sans-serif; font-size: 12px; fill: rgb(42, 63, 95); fill-opacity: 1; white-space: pre;">5</text><g class="layers" style="opacity: 1;"><g class="legendfill"/><g class="legendlines"><path class="js-line" d="M5,0h30" style="fill: none; stroke: rgb(85, 99, 170); stroke-opacity: 1; stroke-width: 2px;"/></g><g class="legendsymbols"><g class="legendpoints"/></g></g><rect class="legendtoggle" x="0" y="-9.5" width="60.72265625" height="19" style="fill: rgb(0, 0, 0); fill-opacity: 0;"/></g><g class="traces" transform="translate(0,33.5)" style="opacity: 1;"><text class="legendtext" text-anchor="start" x="40" y="4.680000000000001" style="font-family: 'Open Sans', verdana, arial, sans-serif; font-size: 12px; fill: rgb(42, 63, 95); fill-opacity: 1; white-space: pre;">12</text><g class="layers" style="opacity: 1;"><g class="legendfill"/><g class="legendlines"><path class="js-line" d="M5,0h30" style="fill: none; stroke: rgb(64, 125, 183); stroke-opacity: 1; stroke-width: 2px;"/></g><g class="legendsymbols"><g class="legendpoints"/></g></g><rect class="legendtoggle" x="0" y="-9.5" width="60.72265625" height="19" style="fill: rgb(0, 0, 0); fill-opacity: 0;"/></g><g class="traces" transform="translate(0,52.5)" style="opacity: 1;"><text class="legendtext" text-anchor="start" x="40" y="4.680000000000001" style="font-family: 'Open Sans', verdana, arial, sans-serif; font-size: 12px; fill: rgb(42, 63, 95); fill-opacity: 1; white-space: pre;">25</text><g class="layers" style="opacity: 1;"><g class="legendfill"/><g class="legendlines"><path class="js-line" d="M5,0h30" style="fill: none; stroke: rgb(87, 175, 174); stroke-opacity: 1; stroke-width: 2px;"/></g><g class="legendsymbols"><g class="legendpoints"/></g></g><rect class="legendtoggle" x="0" y="-9.5" width="60.72265625" height="19" style="fill: rgb(0, 0, 0); fill-opacity: 0;"/></g><g class="traces" transform="translate(0,71.5)" style="opacity: 1;"><text class="legendtext" text-anchor="start" x="40" y="4.680000000000001" style="font-family: 'Open Sans', verdana, arial, sans-serif; font-size: 12px; fill: rgb(42, 63, 95); fill-opacity: 1; white-space: pre;">38</text><g class="layers" style="opacity: 1;"><g class="legendfill"/><g class="legendlines"><path class="js-line" d="M5,0h30" style="fill: none; stroke: rgb(142, 208, 165); stroke-opacity: 1; stroke-width: 2px;"/></g><g class="legendsymbols"><g class="legendpoints"/></g></g><rect class="legendtoggle" x="0" y="-9.5" width="60.72265625" height="19" style="fill: rgb(0, 0, 0); fill-opacity: 0;"/></g><g class="traces" transform="translate(0,90.5)" style="opacity: 1;"><text class="legendtext" text-anchor="start" x="40" y="4.680000000000001" style="font-family: 'Open Sans', verdana, arial, sans-serif; font-size: 12px; fill: rgb(42, 63, 95); fill-opacity: 1; white-space: pre;">50</text><g class="layers" style="opacity: 1;"><g class="legendfill"/><g class="legendlines"><path class="js-line" d="M5,0h30" style="fill: none; stroke: rgb(192, 229, 161); stroke-opacity: 1; stroke-width: 2px;"/></g><g class="legendsymbols"><g class="legendpoints"/></g></g><rect class="legendtoggle" x="0" y="-9.5" width="60.72265625" height="19" style="fill: rgb(0, 0, 0); fill-opacity: 0;"/></g><g class="traces" transform="translate(0,109.5)" style="opacity: 1;"><text class="legendtext" text-anchor="start" x="40" y="4.680000000000001" style="font-family: 'Open Sans', verdana, arial, sans-serif; font-size: 12px; fill: rgb(42, 63, 95); fill-opacity: 1; white-space: pre;">62</text><g class="layers" style="opacity: 1;"><g class="legendfill"/><g class="legendlines"><path class="js-line" d="M5,0h30" style="fill: none; stroke: rgb(233, 246, 157); stroke-opacity: 1; stroke-width: 2px;"/></g><g class="legendsymbols"><g class="legendpoints"/></g></g><rect class="legendtoggle" x="0" y="-9.5" width="60.72265625" height="19" style="fill: rgb(0, 0, 0); fill-opacity: 0;"/></g><g class="traces" transform="translate(0,128.5)" style="opacity: 1;"><text class="legendtext" text-anchor="start" x="40" y="4.680000000000001" style="font-family: 'Open Sans', verdana, arial, sans-serif; font-size: 12px; fill: rgb(42, 63, 95); fill-opacity: 1; white-space: pre;">75</text><g class="layers" style="opacity: 1;"><g class="legendfill"/><g class="legendlines"><path class="js-line" d="M5,0h30" style="fill: none; stroke: rgb(255, 255, 191); stroke-opacity: 1; stroke-width: 2px;"/></g><g class="legendsymbols"><g class="legendpoints"/></g></g><rect class="legendtoggle" x="0" y="-9.5" width="60.72265625" height="19" style="fill: rgb(0, 0, 0); fill-opacity: 0;"/></g><g class="traces" transform="translate(0,147.5)" style="opacity: 1;"><text class="legendtext" text-anchor="start" x="40" y="4.680000000000001" style="font-family: 'Open Sans', verdana, arial, sans-serif; font-size: 12px; fill: rgb(42, 63, 95); fill-opacity: 1; white-space: pre;">88</text><g class="layers" style="opacity: 1;"><g class="legendfill"/><g class="legendlines"><path class="js-line" d="M5,0h30" style="fill: none; stroke: rgb(254, 228, 146); stroke-opacity: 1; stroke-width: 2px;"/></g><g class="legendsymbols"><g class="legendpoints"/></g></g><rect class="legendtoggle" x="0" y="-9.5" width="60.72265625" height="19" style="fill: rgb(0, 0, 0); fill-opacity: 0;"/></g><g class="traces" transform="translate(0,166.5)" style="opacity: 1;"><text class="legendtext" text-anchor="start" x="40" y="4.680000000000001" style="font-family: 'Open Sans', verdana, arial, sans-serif; font-size: 12px; fill: rgb(42, 63, 95); fill-opacity: 1; white-space: pre;">100</text><g class="layers" style="opacity: 1;"><g class="legendfill"/><g class="legendlines"><path class="js-line" d="M5,0h30" style="fill: none; stroke: rgb(254, 191, 111); stroke-opacity: 1; stroke-width: 2px;"/></g><g class="legendsymbols"><g class="legendpoints"/></g></g><rect class="legendtoggle" x="0" y="-9.5" width="60.72265625" height="19" style="fill: rgb(0, 0, 0); fill-opacity: 0;"/></g><g class="traces" transform="translate(0,185.5)" style="opacity: 1;"><text class="legendtext" text-anchor="start" x="40" y="4.680000000000001" style="font-family: 'Open Sans', verdana, arial, sans-serif; font-size: 12px; fill: rgb(42, 63, 95); fill-opacity: 1; white-space: pre;">112</text><g class="layers" style="opacity: 1;"><g class="legendfill"/><g class="legendlines"><path class="js-line" d="M5,0h30" style="fill: none; stroke: rgb(250, 145, 83); stroke-opacity: 1; stroke-width: 2px;"/></g><g class="legendsymbols"><g class="legendpoints"/></g></g><rect class="legendtoggle" x="0" y="-9.5" width="60.72265625" height="19" style="fill: rgb(0, 0, 0); fill-opacity: 0;"/></g><g class="traces" transform="translate(0,204.5)" style="opacity: 1;"><text class="legendtext" text-anchor="start" x="40" y="4.680000000000001" style="font-family: 'Open Sans', verdana, arial, sans-serif; font-size: 12px; fill: rgb(42, 63, 95); fill-opacity: 1; white-space: pre;">125</text><g class="layers" style="opacity: 1;"><g class="legendfill"/><g class="legendlines"><path class="js-line" d="M5,0h30" style="fill: none; stroke: rgb(233, 94, 72); stroke-opacity: 1; stroke-width: 2px;"/></g><g class="legendsymbols"><g class="legendpoints"/></g></g><rect class="legendtoggle" x="0" y="-9.5" width="60.72265625" height="19" style="fill: rgb(0, 0, 0); fill-opacity: 0;"/></g><g class="traces" transform="translate(0,223.5)" style="opacity: 1;"><text class="legendtext" text-anchor="start" x="40" y="4.680000000000001" style="font-family: 'Open Sans', verdana, arial, sans-serif; font-size: 12px; fill: rgb(42, 63, 95); fill-opacity: 1; white-space: pre;">138</text><g class="layers" style="opacity: 1;"><g class="legendfill"/><g class="legendlines"><path class="js-line" d="M5,0h30" style="fill: none; stroke: rgb(202, 53, 76); stroke-opacity: 1; stroke-width: 2px;"/></g><g class="legendsymbols"><g class="legendpoints"/></g></g><rect class="legendtoggle" x="0" y="-9.5" width="60.72265625" height="19" style="fill: rgb(0, 0, 0); fill-opacity: 0;"/></g><g class="traces" transform="translate(0,242.5)" style="opacity: 1;"><text class="legendtext" text-anchor="start" x="40" y="4.680000000000001" style="font-family: 'Open Sans', verdana, arial, sans-serif; font-size: 12px; fill: rgb(42, 63, 95); fill-opacity: 1; white-space: pre;">150</text><g class="layers" style="opacity: 1;"><g class="legendfill"/><g class="legendlines"><path class="js-line" d="M5,0h30" style="fill: none; stroke: rgb(158, 1, 66); stroke-opacity: 1; stroke-width: 2px;"/></g><g class="legendsymbols"><g class="legendpoints"/></g></g><rect class="legendtoggle" x="0" y="-9.5" width="60.72265625" height="19" style="fill: rgb(0, 0, 0); fill-opacity: 0;"/></g></g></g><rect class="scrollbar" rx="20" ry="3" width="0" height="0" style="fill: rgb(128, 139, 164); fill-opacity: 1;" x="0" y="0"/></g><g class="g-gtitle"/><g class="g-xtitle"><text class="xtitle" x="296.5" y="361.3" text-anchor="middle" style="opacity: 1; font-family: 'Open Sans', verdana, arial, sans-serif; font-size: 14px; fill: rgb(42, 63, 95); fill-opacity: 1; white-space: pre;">time</text></g><g class="g-ytitle"><text class="ytitle" transform="rotate(-90,39.00625,210)" x="39.00625" y="210" text-anchor="middle" style="opacity: 1; font-family: 'Open Sans', verdana, arial, sans-serif; font-size: 14px; fill: rgb(42, 63, 95); fill-opacity: 1; white-space: pre;">distance to peak</text></g></g></svg>