<svg class="main-svg" xmlns="http://www.w3.org/2000/svg" xmlns:xlink="http://www.w3.org/1999/xlink" width="600" height="400" style="" viewBox="0 0 600 400"><rect x="0" y="0" width="600" height="400" style="fill: rgb(255, 255, 255); fill-opacity: 1;"/><defs id="defs-2a2a8d"><g class="clips"><clipPath id="clip2a2a8dxyplot" class="plotclip"><rect width="440" height="220"/></clipPath><clipPath class="axesclip" id="clip2a2a8dx"><rect x="80" y="0" width="440" height="400"/></clipPath><clipPath class="axesclip" id="clip2a2a8dy"><rect x="0" y="100" width="600" height="220"/></clipPath><clipPath class="axesclip" id="clip2a2a8dxy"><rect x="80" y="100" width="440" height="220"/></clipPath></g><g class="gradients"/><g class="patterns"/></defs><g class="bglayer"/><g class="layer-below"><g class="imagelayer"/><g class="shapelayer"/></g><g class="cartesianlayer"><g class="subplot xy"><g class="layer-subplot"><g class="shapelayer"/><g class="imagelayer"/></g><g class="minor-gridlayer"><g class="x"/><g class="y"/></g><g class="gridlayer"><g class="x"><path class="xgrid crisp" transform="translate(190,0)" d="M0,100v220" style="stroke: rgb(235, 240, 248); stroke-opacity: 1; stroke-width: 1px;"/><path class="xgrid crisp" transform="translate(300,0)" d="M0,100v220" style="stroke: rgb(235, 240, 248); stroke-opacity: 1; stroke-width: 1px;"/><path class="xgrid crisp" transform="translate(410,0)" d="M0,100v220" style="stroke: rgb(235, 240, 248); stroke-opacity: 1; stroke-width: 1px;"/></g><g class="y"><path class="ygrid crisp" transform="translate(0,313.27)" d="M80,0h440" style="stroke: rgb(235, 240, 248); stroke-opacity: 1; stroke-width: 1px;"/><path class="ygrid crisp" transform="translate(0,273.91999999999996)" d="M80,0h440" style="stroke: rgb(235, 240, 248); stroke-opacity: 1; stroke-width: 1px;"/><path class="ygrid crisp" transform="translate(0,234.58)" d="M80,0h440" style="stroke: rgb(235, 240, 248); stroke-opacity: 1; stroke-width: 1px;"/><path class="ygrid crisp" transform="translate(0,195.23000000000002)" d="M80,0h440" style="stroke: rgb(235, 240, 248); stroke-opacity: 1; stroke-width: 1px;"/><path class="ygrid crisp" transform="translate(0,155.88)" d="M80,0h440" style="stroke: rgb(235, 240, 248); stroke-opacity: 1; stroke-width: 1px;"/><path class="ygrid crisp" transform="translate(0,116.53999999999999)" d="M80,0h440" style="stroke: rgb(235, 240, 248); stroke-opacity: 1; stroke-width: 1px;"/></g></g><g class="zerolinelayer"><path class="xzl zl crisp" transform="translate(80,0)" d="M0,100v220" style="stroke: rgb(235, 240, 248); stroke-opacity: 1; stroke-width: 2px;"/></g><g class="layer-between"><g class="shapelayer"/><g class="imagelayer"/></g><path class="xlines-below"/><path class="ylines-below"/><g class="overlines-below"/><g class="xaxislayer-below"/><g class="yaxislayer-below"/><g class="overaxes-below"/><g class="overplot"><g class="xy" transform="translate(80,100)" clip-path="url(#clip2a2a8dxyplot)"><g class="scatterlayer mlayer"><g class="trace scatter tracef98321" style="stroke-miterlimit: 2; opacity: 1;"><g class="fills"/><g class="errorbars"/><g class="lines"><path class="js-line" d="M0,11L5.5,48.15L11,63.54L16.5,80.53L22,86.43L27.5,90.42L33,92.39L38.5,96.13L44,97.17L49.5,99.39L55,98.25L60.5,95.56L66,95.89L71.5,98.08L77,97.56L82.5,101.04L88,95.5L93.5,100.91L99,101.2L110,99.99L115.5,98.37L121,98.3L126.5,93.78L132,96.47L137.5,96.6L143,97.74L148.5,95.73L154,94.24L159.5,95.85L165,95.5L170.5,96.79L176,92.87L181.5,97.37L187,101.2L192.5,97.96L198,97.25L203.5,97.5L209,98.12L214.5,96.74L225.5,98.76L231,98.61L236.5,99.61L242,97.44L247.5,99.61L253,98.37L258.5,98.2L264,102.61L280.5,95.1L286,99.32L291.5,101.22L297,98.23L302.5,96.91L308,96.48L319,97.92L324.5,94.24L330,96.14L335.5,97.11L341,96.67L346.5,97.48L352,99.38L357.5,97.94L363,97.4L368.5,95.49L374,95.64L379.5,97.27L385,95.37L390.5,98.1L396,95.27L401.5,96.98L407,96.35L412.5,97.41L418,99.31L423.5,98.66L434.5,94.11L440,96.97" style="vector-effect: none; fill: none; stroke: rgb(231, 248, 191); stroke-opacity: 1; stroke-width: 2px; opacity: 1;"/></g><g class="points"/><g class="text"/></g><g class="trace scatter traceb23478" style="stroke-miterlimit: 2; opacity: 0.3;"><g class="fills"><g><path class="js-fill" d="M0,11L5.5,45.1L11,58.04L16.5,75.88L22,82.43L27.5,81.54L33,89.29L38.5,90.92L44,95.34L55,94.81L60.5,92.19L66,86.24L71.5,93.45L77,94.53L82.5,96.66L88,91.91L93.5,92.72L99,94.27L104.5,91.73L110,94.66L115.5,92.8L121,91.26L126.5,87L132,91.87L137.5,93.71L143,94.84L148.5,89.05L154,88.47L159.5,91.53L165,92.19L170.5,94.84L176,89.28L181.5,93.61L187,98.28L192.5,97.24L198,92.32L203.5,92.37L209,94.61L214.5,91.09L220,93.63L225.5,94.55L231,96.8L236.5,97.49L242,91.41L247.5,91.76L258.5,95.68L264,99.18L269.5,98.03L275,93.49L280.5,88.65L286,95.12L291.5,95.55L297,92L302.5,92.5L308,94.91L313.5,92.87L319,94L324.5,88.87L330,89.77L335.5,93.38L341,93.41L346.5,93.01L352,95.39L357.5,95.14L363,93.53L368.5,89.1L374,92.76L385,92.37L390.5,93.28L396,89.62L401.5,89.98L412.5,89.36L418,91.49L429,92.77L434.5,89.81L440,94.86L440,99.08L434.5,98.4L429,99.37L423.5,104.82L418,107.13L412.5,105.46L407,102.78L401.5,103.98L396,100.92L390.5,102.93L385,98.37L379.5,101.67L374,98.52L368.5,101.88L363,101.26L357.5,100.73L352,103.37L341,99.94L335.5,100.84L330,102.5L324.5,99.62L319,101.84L313.5,100.95L308,98.04L302.5,101.31L291.5,106.89L286,103.52L280.5,101.55L275,101.56L269.5,102.59L264,106.04L258.5,100.73L253,103.36L247.5,107.47L242,103.48L231,100.41L225.5,102.96L220,101.15L214.5,102.4L209,101.62L203.5,102.62L198,102.18L192.5,98.69L187,104.12L181.5,101.12L176,96.45L170.5,98.74L165,98.81L159.5,100.18L154,100L148.5,102.4L137.5,99.48L132,101.08L126.5,100.55L121,105.35L115.5,103.94L110,105.33L104.5,109.51L99,108.13L93.5,109.09L88,99.08L82.5,105.43L77,100.59L66,105.53L60.5,98.94L49.5,103.83L44,99L38.5,101.35L33,95.49L27.5,99.3L22,90.43L16.5,85.19L11,69.05L5.5,51.2L0,11Z" style="fill: rgb(231, 248, 191); fill-opacity: 1; stroke-width: 0;"/></g></g><g class="errorbars"/><g class="lines"><path class="js-line" d="M0,11L5.5,45.1L11,58.04L16.5,75.88L22,82.43L27.5,81.54L33,89.29L38.5,90.92L44,95.34L55,94.81L60.5,92.19L66,86.24L71.5,93.45L77,94.53L82.5,96.66L88,91.91L93.5,92.72L99,94.27L104.5,91.73L110,94.66L115.5,92.8L121,91.26L126.5,87L132,91.87L137.5,93.71L143,94.84L148.5,89.05L154,88.47L159.5,91.53L165,92.19L170.5,94.84L176,89.28L181.5,93.61L187,98.28L192.5,97.24L198,92.32L203.5,92.37L209,94.61L214.5,91.09L220,93.63L225.5,94.55L231,96.8L236.5,97.49L242,91.41L247.5,91.76L258.5,95.68L264,99.18L269.5,98.03L275,93.49L280.5,88.65L286,95.12L291.5,95.55L297,92L302.5,92.5L308,94.91L313.5,92.87L319,94L324.5,88.87L330,89.77L335.5,93.38L341,93.41L346.5,93.01L352,95.39L357.5,95.14L363,93.53L368.5,89.1L374,92.76L385,92.37L390.5,93.28L396,89.62L401.5,89.98L412.5,89.36L418,91.49L429,92.77L434.5,89.81L440,94.86L440,99.08L434.5,98.4L429,99.37L423.5,104.82L418,107.13L412.5,105.46L407,102.78L401.5,103.98L396,100.92L390.5,102.93L385,98.37L379.5,101.67L374,98.52L368.5,101.88L363,101.26L357.5,100.73L352,103.37L341,99.94L335.5,100.84L330,102.5L324.5,99.62L319,101.84L313.5,100.95L308,98.04L302.5,101.31L291.5,106.89L286,103.52L280.5,101.55L275,101.56L269.5,102.59L264,106.04L258.5,100.73L253,103.36L247.5,107.47L242,103.48L231,100.41L225.5,102.96L220,101.15L214.5,102.4L209,101.62L203.5,102.62L198,102.18L192.5,98.69L187,104.12L181.5,101.12L176,96.45L170.5,98.74L165,98.81L159.5,100.18L154,100L148.5,102.4L137.5,99.48L132,101.08L126.5,100.55L121,105.35L115.5,103.94L110,105.33L104.5,109.51L99,108.13L93.5,109.09L88,99.08L82.5,105.43L77,100.59L66,105.53L60.5,98.94L49.5,103.83L44,99L38.5,101.35L33,95.49L27.5,99.3L22,90.43L16.5,85.19L11,69.05L5.5,51.2L0,11" style="vector-effect: none; fill: none; stroke: rgb(0, 0, 0); stroke-opacity: 0; stroke-width: 2px; opacity: 1;"/></g><g class="points"/><g class="text"/></g><g class="trace scatter trace9adf7c" style="stroke-miterlimit: 2; opacity: 1;"><g class="fills"/><g class="errorbars"/><g class="lines"><path class="js-line" d="M0,11L5.5,34.89L11,52.39L22,74.41L27.5,82.5L33,87.12L38.5,88.4L44,90.25L49.5,93.54L55,95.63L60.5,94.98L66,96.2L71.5,96.48L77,98.21L82.5,101.09L88,98.52L93.5,98.27L99,99.28L104.5,96.59L110,95.82L115.5,98.91L121,101.33L126.5,100.02L132,96.62L137.5,97.83L154,96.24L159.5,99.73L165,99.69L170.5,98.32L181.5,100.22L187,97.26L192.5,97.23L198,95.02L203.5,93.26L209,97.76L214.5,96.2L220,103.55L225.5,98.52L231,97.98L236.5,96.43L242,97.21L247.5,97.81L253,103.42L258.5,102.49L264,100.57L269.5,96.22L275,98.02L286,100.03L291.5,100.97L297,99.47L302.5,99.02L308,98.25L313.5,100.47L319,96.63L324.5,98.18L330,95.68L335.5,95.4L341,93.7L346.5,97.39L352,98.28L357.5,93.96L363,93.66L368.5,94.38L379.5,100.59L385,95.02L390.5,92.84L396,95.36L401.5,94.05L407,96.86L412.5,98.79L418,97.15L423.5,95.91L429,96.47L440,95.29" style="vector-effect: none; fill: none; stroke: rgb(152, 213, 164); stroke-opacity: 1; stroke-width: 2px; opacity: 1;"/></g><g class="points"/><g class="text"/></g><g class="trace scatter trace743324" style="stroke-miterlimit: 2; opacity: 0.3;"><g class="fills"><g><path class="js-fill" d="M0,11L5.5,32.95L11,49.61L16.5,60.36L22,69.43L27.5,81.13L33,83.51L38.5,83.11L44,88.2L49.5,90.68L55,92.22L60.5,91.13L66,92.43L77,92.87L82.5,96.56L88,96.37L93.5,93.46L99,94.92L104.5,92.67L110,91.24L115.5,95.34L121,94.79L126.5,92.91L132,94.21L137.5,91.53L143,94.33L148.5,94.58L154,92.17L159.5,97.44L165,94.15L170.5,96.45L181.5,96.07L187,91.56L192.5,93.9L198,92.55L203.5,87.67L209,93.84L214.5,91.51L220,98.07L225.5,94.35L231,95.26L242,91.1L247.5,92.65L253,98.2L258.5,97.06L264,92.74L269.5,93.5L275,93.12L280.5,91.23L286,91.12L291.5,97.83L297,96.2L302.5,96.45L308,94.55L313.5,95.71L319,90.06L324.5,92.14L330,93.16L335.5,89.28L341,88L346.5,93.45L352,96.5L357.5,88.31L368.5,90.94L374,90.63L379.5,97.36L385,90.37L390.5,89.17L396,92.03L401.5,88.12L407,93.27L412.5,95.84L418,91.58L423.5,90.68L429,93.09L434.5,91.8L440,89.06L440,101.51L434.5,99.23L423.5,101.14L418,102.72L396,98.7L390.5,96.52L385,99.67L379.5,103.81L374,105.07L368.5,97.82L363,97.87L357.5,99.6L352,100.06L346.5,101.33L341,99.4L335.5,101.52L330,98.2L324.5,104.23L319,103.2L313.5,105.23L308,101.94L302.5,101.59L291.5,104.11L286,108.94L280.5,107.56L275,102.92L269.5,98.93L264,108.41L258.5,107.92L253,108.64L247.5,102.98L242,103.33L236.5,100.06L231,100.7L225.5,102.69L220,109.03L214.5,100.89L209,101.68L203.5,98.84L198,97.49L187,102.96L181.5,104.37L170.5,100.2L165,105.22L159.5,102.02L154,100.31L148.5,99.6L143,100.12L137.5,104.13L132,99.03L126.5,107.13L121,107.87L115.5,102.49L110,100.41L104.5,100.51L99,103.65L93.5,103.08L88,100.66L82.5,105.61L77,103.55L71.5,100.51L66,99.98L60.5,98.84L55,99.05L49.5,96.4L44,92.29L38.5,93.69L33,90.74L27.5,83.86L22,79.39L11,55.17L5.5,36.84L0,11Z" style="fill: rgb(152, 213, 164); fill-opacity: 1; stroke-width: 0;"/></g></g><g class="errorbars"/><g class="lines"><path class="js-line" d="M0,11L5.5,32.95L11,49.61L16.5,60.36L22,69.43L27.5,81.13L33,83.51L38.5,83.11L44,88.2L49.5,90.68L55,92.22L60.5,91.13L66,92.43L77,92.87L82.5,96.56L88,96.37L93.5,93.46L99,94.92L104.5,92.67L110,91.24L115.5,95.34L121,94.79L126.5,92.91L132,94.21L137.5,91.53L143,94.33L148.5,94.58L154,92.17L159.5,97.44L165,94.15L170.5,96.45L181.5,96.07L187,91.56L192.5,93.9L198,92.55L203.5,87.67L209,93.84L214.5,91.51L220,98.07L225.5,94.35L231,95.26L242,91.1L247.5,92.65L253,98.2L258.5,97.06L264,92.74L269.5,93.5L275,93.12L280.5,91.23L286,91.12L291.5,97.83L297,96.2L302.5,96.45L308,94.55L313.5,95.71L319,90.06L324.5,92.14L330,93.16L335.5,89.28L341,88L346.5,93.45L352,96.5L357.5,88.31L368.5,90.94L374,90.63L379.5,97.36L385,90.37L390.5,89.17L396,92.03L401.5,88.12L407,93.27L412.5,95.84L418,91.58L423.5,90.68L429,93.09L434.5,91.8L440,89.06L440,101.51L434.5,99.23L423.5,101.14L418,102.72L396,98.7L390.5,96.52L385,99.67L379.5,103.81L374,105.07L368.5,97.82L363,97.87L357.5,99.6L352,100.06L346.5,101.33L341,99.4L335.5,101.52L330,98.2L324.5,104.23L319,103.2L313.5,105.23L308,101.94L302.5,101.59L291.5,104.11L286,108.94L280.5,107.56L275,102.92L269.5,98.93L264,108.41L258.5,107.92L253,108.64L247.5,102.98L242,103.33L236.5,100.06L231,100.7L225.5,102.69L220,109.03L214.5,100.89L209,101.68L203.5,98.84L198,97.49L187,102.96L181.5,104.37L170.5,100.2L165,105.22L159.5,102.02L154,100.31L148.5,99.6L143,100.12L137.5,104.13L132,99.03L126.5,107.13L121,107.87L115.5,102.49L110,100.41L104.5,100.51L99,103.65L93.5,103.08L88,100.66L82.5,105.61L77,103.55L71.5,100.51L66,99.98L60.5,98.84L55,99.05L49.5,96.4L44,92.29L38.5,93.69L33,90.74L27.5,83.86L22,79.39L11,55.17L5.5,36.84L0,11" style="vector-effect: none; fill: none; stroke: rgb(0, 0, 0); stroke-opacity: 0; stroke-width: 2px; opacity: 1;"/></g><g class="points"/><g class="text"/></g><g class="trace scatter tracebad688" style="stroke-miterlimit: 2; opacity: 1;"><g class="fills"/><g class="errorbars"/><g class="lines"><path class="js-line" d="M0,11L5.5,30.34L11,46.28L16.5,60.96L22,71.68L33,88.66L38.5,88.9L44,96.43L49.5,92.69L55,96.2L60.5,96.61L66,98.18L71.5,95.88L77,95.34L82.5,92.96L88,94.59L93.5,94.65L104.5,97.81L110,97.19L115.5,99.35L121,98.81L132,99.32L137.5,99.07L143,101.29L148.5,101.32L154,100.58L159.5,98.85L165,100.48L170.5,99.34L176,99.25L181.5,101.43L192.5,98.39L198,98.75L203.5,96.19L209,98.43L214.5,103.82L220,99.77L225.5,97.72L231,97L236.5,102.93L242,101.47L253,98L258.5,98.29L264,96.88L269.5,97.04L280.5,94.7L286,95.77L297,95.01L302.5,94.82L308,92.81L313.5,94.95L319,95.99L324.5,97.94L335.5,92.79L341,95.86L346.5,93.68L352,96.08L357.5,93.57L363,89.69L368.5,94.07L374,93.29L379.5,95.87L385,94.98L390.5,94.88L396,96.49L401.5,98.72L407,98.94L418,95.16L423.5,95.1L429,92.16L434.5,92.49L440,93.16" style="vector-effect: none; fill: none; stroke: rgb(63, 175, 153); stroke-opacity: 1; stroke-width: 2px; opacity: 1;"/></g><g class="points"/><g class="text"/></g><g class="trace scatter traceb61c9f" style="stroke-miterlimit: 2; opacity: 0.3;"><g class="fills"><g><path class="js-fill" d="M0,11L5.5,28.32L11,42.4L16.5,56.21L22,66.81L33,83.13L38.5,84.38L44,90.66L49.5,88.71L55,91.5L60.5,91.16L66,92.94L71.5,88.69L77,90.1L82.5,86.62L99,87.52L104.5,90.36L110,88.48L115.5,92.66L121,93.18L126.5,94.68L132,95.01L137.5,92.78L143,94.66L148.5,92.55L154,91.38L159.5,93.53L165,95.17L170.5,95.46L176,94.4L181.5,91.31L187,90.73L192.5,88.02L209,91.82L214.5,97.8L220,90.45L225.5,91.09L231,93.07L236.5,99.71L247.5,94.6L253,94.17L264,95.66L269.5,94.78L275,91.58L280.5,91.78L286,86.4L291.5,88.46L297,83.29L302.5,86.62L308,84.31L313.5,88.69L324.5,91.27L330,91.1L335.5,90.22L341,90.48L346.5,85.13L352,89.81L357.5,85.21L363,82.78L368.5,86.41L374,87.64L379.5,91.03L385,89.71L390.5,92.3L396,92.64L401.5,95.83L407,91.88L412.5,89.05L418,90.99L423.5,90.04L429,86.48L434.5,83.59L440,85.8L440,100.52L434.5,101.4L429,97.85L423.5,100.16L418,99.34L412.5,104.51L407,105.99L401.5,101.62L396,100.35L390.5,97.46L385,100.25L379.5,100.71L374,98.94L368.5,101.72L363,96.6L357.5,101.92L346.5,102.23L341,101.23L335.5,95.35L330,99.46L324.5,104.61L319,102.17L313.5,101.21L308,101.3L302.5,103.03L297,106.73L291.5,101.93L286,105.15L280.5,97.61L275,99.87L264,98.1L258.5,101.81L253,101.83L247.5,104.13L242,105.66L236.5,106.14L231,100.94L225.5,104.35L220,109.09L214.5,109.83L209,105.05L203.5,101.89L198,108.29L192.5,108.77L187,108.7L181.5,111.56L176,104.1L170.5,103.22L165,105.79L159.5,104.16L154,109.78L148.5,110.09L132,103.63L126.5,104.13L121,104.44L115.5,106.03L104.5,105.25L99,104.45L93.5,101.83L88,102.09L82.5,99.3L77,100.59L71.5,103.06L66,103.41L55,100.9L49.5,96.66L44,102.19L38.5,93.42L33,94.2L27.5,85.47L22,76.56L16.5,65.72L5.5,32.37L0,11Z" style="fill: rgb(63, 175, 153); fill-opacity: 1; stroke-width: 0;"/></g></g><g class="errorbars"/><g class="lines"><path class="js-line" d="M0,11L5.5,28.32L11,42.4L16.5,56.21L22,66.81L33,83.13L38.5,84.38L44,90.66L49.5,88.71L55,91.5L60.5,91.16L66,92.94L71.5,88.69L77,90.1L82.5,86.62L99,87.52L104.5,90.36L110,88.48L115.5,92.66L121,93.18L126.5,94.68L132,95.01L137.5,92.78L143,94.66L148.5,92.55L154,91.38L159.5,93.53L165,95.17L170.5,95.46L176,94.4L181.5,91.31L187,90.73L192.5,88.02L209,91.82L214.5,97.8L220,90.45L225.5,91.09L231,93.07L236.5,99.71L247.5,94.6L253,94.17L264,95.66L269.5,94.78L275,91.58L280.5,91.78L286,86.4L291.5,88.46L297,83.29L302.5,86.62L308,84.31L313.5,88.69L324.5,91.27L330,91.1L335.5,90.22L341,90.48L346.5,85.13L352,89.81L357.5,85.21L363,82.78L368.5,86.41L374,87.64L379.5,91.03L385,89.71L390.5,92.3L396,92.64L401.5,95.83L407,91.88L412.5,89.05L418,90.99L423.5,90.04L429,86.48L434.5,83.59L440,85.8L440,100.52L434.5,101.4L429,97.85L423.5,100.16L418,99.34L412.5,104.51L407,105.99L401.5,101.62L396,100.35L390.5,97.46L385,100.25L379.5,100.71L374,98.94L368.5,101.72L363,96.6L357.5,101.92L346.5,102.23L341,101.23L335.5,95.35L330,99.46L324.5,104.61L319,102.17L313.5,101.21L308,101.3L302.5,103.03L297,106.73L291.5,101.93L286,105.15L280.5,97.61L275,99.87L264,98.1L258.5,101.81L253,101.83L247.5,104.13L242,105.66L236.5,106.14L231,100.94L225.5,104.35L220,109.09L214.5,109.83L209,105.05L203.5,101.89L198,108.29L192.5,108.77L187,108.7L181.5,111.56L176,104.1L170.5,103.22L165,105.79L159.5,104.16L154,109.78L148.5,110.09L132,103.63L126.5,104.13L121,104.44L115.5,106.03L104.5,105.25L99,104.45L93.5,101.83L88,102.09L82.5,99.3L77,100.59L71.5,103.06L66,103.41L55,100.9L49.5,96.66L44,102.19L38.5,93.42L33,94.2L27.5,85.47L22,76.56L16.5,65.72L5.5,32.37L0,11" style="vector-effect: none; fill: none; stroke: rgb(0, 0, 0); stroke-opacity: 0; stroke-width: 2px; opacity: 1;"/></g><g class="points"/><g class="text"/></g><g class="trace scatter tracea14249" style="stroke-miterlimit: 2; opacity: 1;"><g class="fills"/><g class="errorbars"/><g class="lines"><path class="js-line" d="M0,11L5.5,30.37L11,46.32L27.5,88.55L33,100.18L38.5,106.21L44,110.96L49.5,114.91L55,116.03L60.5,116.17L66,114.92L77,112.99L82.5,110.31L88,113.27L93.5,111.53L99,109.97L104.5,110.74L110,111.97L115.5,112.39L121,110.95L126.5,106.14L132,106.04L137.5,103.81L143,99.72L148.5,100.92L159.5,103.54L165,108.37L170.5,111.38L176,111.08L181.5,111.97L187,111.97L192.5,113.73L198,111.72L203.5,111.23L209,108.92L214.5,107.41L220,108.91L231,107.58L236.5,109.94L242,107.29L247.5,111.14L253,109.65L258.5,109.46L264,107.67L269.5,103.13L275,104.63L280.5,107.83L286,106.61L291.5,109.56L297,109.73L302.5,111.39L308,109.09L313.5,110.82L319,110.27L324.5,111.19L330,107.45L335.5,106.2L346.5,106.38L352,106.74L357.5,111.2L363,110.73L368.5,110.01L374,112.13L379.5,110.88L385,108.39L390.5,109.41L396,106.83L401.5,110.55L407,108.41L412.5,108.54L418,111.93L423.5,109.44L429,109.72L434.5,110.11L440,107.09" style="vector-effect: none; fill: none; stroke: rgb(0, 134, 146); stroke-opacity: 1; stroke-width: 2px; opacity: 1;"/></g><g class="points"/><g class="text"/></g><g class="trace scatter traced2b6d7" style="stroke-miterlimit: 2; opacity: 0.3;"><g class="fills"><g><path class="js-fill" d="M0,11L11,44.62L16.5,58.13L27.5,87.02L33,96.17L38.5,103.27L44,107.61L49.5,108.55L55,111.55L60.5,114.07L66,108.29L71.5,104.32L77,104.64L82.5,98.86L88,102.61L93.5,101.31L99,104.6L104.5,106.51L110,107.06L121,105.84L126.5,98.47L132,101.83L137.5,99.79L143,93.81L148.5,93.69L154,97.77L159.5,100.69L165,104.39L170.5,105.08L176,107.15L181.5,107.18L187,108.22L192.5,110.16L198,107.27L203.5,106.98L209,102.2L214.5,99.89L220,101.42L225.5,105.55L231,104.23L236.5,105.08L247.5,104.19L253,104.33L258.5,103.52L264,100.83L269.5,98.14L275,102.1L280.5,103.64L286,102.07L291.5,105.73L297,104.68L308,104.65L313.5,104.82L319,103.24L324.5,103.99L330,100.5L335.5,100.18L341,100L346.5,97.97L357.5,106.34L363,105.2L368.5,101.02L374,106.57L385,100.78L390.5,103.14L396,99.9L401.5,106.54L407,104.12L412.5,104.54L418,108.98L423.5,103.33L429,104.4L434.5,107.33L440,104.01L440,110.18L429,115.05L423.5,115.54L418,114.87L412.5,112.55L407,112.69L401.5,114.55L396,113.76L390.5,115.67L385,115.99L379.5,117.79L374,117.68L368.5,118.99L363,116.25L357.5,116.06L352,111.26L346.5,114.79L341,111.84L335.5,112.22L330,114.41L324.5,118.39L313.5,116.82L308,113.53L302.5,118.4L297,114.77L291.5,113.38L286,111.15L280.5,112.01L275,107.15L269.5,108.13L264,114.51L258.5,115.41L253,114.96L247.5,118.09L242,110.13L236.5,114.79L231,110.93L225.5,111.67L220,116.41L214.5,114.94L209,115.65L203.5,115.49L198,116.17L192.5,117.3L187,115.73L181.5,116.77L176,115L170.5,117.68L165,112.35L159.5,106.39L154,106.12L148.5,108.16L143,105.63L132,110.24L126.5,113.82L115.5,118.38L110,116.88L104.5,114.96L99,115.34L93.5,121.74L88,123.93L82.5,121.77L77,121.34L71.5,123.05L66,121.54L60.5,118.28L55,120.51L49.5,121.28L44,114.32L33,104.18L27.5,90.08L22,78.18L16.5,63.37L5.5,32.34L0,11Z" style="fill: rgb(0, 134, 146); fill-opacity: 1; stroke-width: 0;"/></g></g><g class="errorbars"/><g class="lines"><path class="js-line" d="M0,11L11,44.62L16.5,58.13L27.5,87.02L33,96.17L38.5,103.27L44,107.61L49.5,108.55L55,111.55L60.5,114.07L66,108.29L71.5,104.32L77,104.64L82.5,98.86L88,102.61L93.5,101.31L99,104.6L104.5,106.51L110,107.06L121,105.84L126.5,98.47L132,101.83L137.5,99.79L143,93.81L148.5,93.69L154,97.77L159.5,100.69L165,104.39L170.5,105.08L176,107.15L181.5,107.18L187,108.22L192.5,110.16L198,107.27L203.5,106.98L209,102.2L214.5,99.89L220,101.42L225.5,105.55L231,104.23L236.5,105.08L247.5,104.19L253,104.33L258.5,103.52L264,100.83L269.5,98.14L275,102.1L280.5,103.64L286,102.07L291.5,105.73L297,104.68L308,104.65L313.5,104.82L319,103.24L324.5,103.99L330,100.5L335.5,100.18L341,100L346.5,97.97L357.5,106.34L363,105.2L368.5,101.02L374,106.57L385,100.78L390.5,103.14L396,99.9L401.5,106.54L407,104.12L412.5,104.54L418,108.98L423.5,103.33L429,104.4L434.5,107.33L440,104.01L440,110.18L429,115.05L423.5,115.54L418,114.87L412.5,112.55L407,112.69L401.5,114.55L396,113.76L390.5,115.67L385,115.99L379.5,117.79L374,117.68L368.5,118.99L363,116.25L357.5,116.06L352,111.26L346.5,114.79L341,111.84L335.5,112.22L330,114.41L324.5,118.39L313.5,116.82L308,113.53L302.5,118.4L297,114.77L291.5,113.38L286,111.15L280.5,112.01L275,107.15L269.5,108.13L264,114.51L258.5,115.41L253,114.96L247.5,118.09L242,110.13L236.5,114.79L231,110.93L225.5,111.67L220,116.41L214.5,114.94L209,115.65L203.5,115.49L198,116.17L192.5,117.3L187,115.73L181.5,116.77L176,115L170.5,117.68L165,112.35L159.5,106.39L154,106.12L148.5,108.16L143,105.63L132,110.24L126.5,113.82L115.5,118.38L110,116.88L104.5,114.96L99,115.34L93.5,121.74L88,123.93L82.5,121.77L77,121.34L71.5,123.05L66,121.54L60.5,118.28L55,120.51L49.5,121.28L44,114.32L33,104.18L27.5,90.08L22,78.18L16.5,63.37L5.5,32.34L0,11" style="vector-effect: none; fill: none; stroke: rgb(0, 0, 0); stroke-opacity: 0; stroke-width: 2px; opacity: 1;"/></g><g class="points"/><g class="text"/></g><g class="trace scatter trace95fcb6" style="stroke-miterlimit: 2; opacity: 1;"><g class="fills"/><g class="errorbars"/><g class="lines"><path class="js-line" d="M0,11L5.5,30.57L11,45.05L27.5,89.35L33,102.28L44,125.38L49.5,134.4L55,143.71L60.5,148L66,154.6L71.5,158.31L77,160.42L82.5,158.72L93.5,157.36L99,157.83L104.5,155.61L110,151.71L115.5,148L121,146.26L132,147.03L137.5,147.48L143,148.9L148.5,153.18L154,157L159.5,158L165,162.52L170.5,162.03L176,158.39L181.5,157.57L187,156.14L192.5,156.76L203.5,150.34L209,149.37L214.5,146.78L220,148.19L225.5,147.12L231,149.26L236.5,148.3L242,150.43L247.5,151.97L253,152.1L258.5,148.3L264,149.94L269.5,146.92L275,145.62L280.5,146.04L286,144.17L297,144.4L302.5,148.12L308,152.19L313.5,149.85L319,146.96L324.5,145.64L330,145.78L335.5,143.8L341,145.53L346.5,149.82L352,149.12L357.5,146.66L368.5,150.96L374,148.42L379.5,145.13L385,143.25L390.5,145.11L396,145.68L401.5,143.43L407,142.71L412.5,141.4L418,141.42L423.5,140.67L429,144.68L434.5,150.27L440,149.93" style="vector-effect: none; fill: none; stroke: rgb(0, 89, 134); stroke-opacity: 1; stroke-width: 2px; opacity: 1;"/></g><g class="points"/><g class="text"/></g><g class="trace scatter trace95801d" style="stroke-miterlimit: 2; opacity: 0.3;"><g class="fills"><g><path class="js-fill" d="M0,11L5.5,29.17L11,42.44L22,69.09L27.5,84.09L44,122.01L49.5,129.02L55,140.26L60.5,141.84L77,155.31L82.5,155.9L88,152.17L93.5,150.45L99,150.07L104.5,148.02L110,144.1L115.5,138.41L121,140.25L126.5,140.6L132,138.71L137.5,138.18L148.5,143.82L154,149.97L159.5,149.2L165,152.74L176,150.09L181.5,147.2L187,139.86L192.5,144.04L198,140.26L203.5,140.12L214.5,141.46L220,140.18L225.5,139.37L231,142.75L236.5,138.29L242,142.21L247.5,145.36L253,143.5L258.5,138.92L264,138.89L269.5,136.76L275,136.49L280.5,136.95L286,136.5L297,141.05L302.5,141.41L308,145.27L313.5,142.37L319,138.06L324.5,139.18L330,140.73L335.5,137.45L341,134.58L346.5,139.43L352,139.7L357.5,138.66L368.5,140.88L374,138.82L379.5,136.36L385,137.9L396,140.85L401.5,135.44L412.5,130.83L418,134.19L423.5,136.17L429,136.97L434.5,141.69L440,140.62L440,159.24L434.5,158.85L423.5,145.17L418,148.64L412.5,151.97L407,152.3L396,150.51L390.5,150.79L385,148.6L379.5,153.91L374,158.03L368.5,161.04L357.5,154.67L352,158.55L346.5,160.21L341,156.49L335.5,150.14L330,150.82L324.5,152.1L319,155.87L308,159.1L302.5,154.82L297,147.74L291.5,150.24L286,151.84L280.5,155.13L275,154.75L269.5,157.08L264,161L258.5,157.68L253,160.69L247.5,158.57L236.5,158.32L231,155.78L225.5,154.88L220,156.2L214.5,152.09L209,158.04L203.5,160.56L198,167.13L187,172.43L181.5,167.95L176,166.69L170.5,172.32L165,172.29L159.5,166.81L154,164.03L148.5,162.54L143,157.11L137.5,156.77L132,155.35L126.5,152.04L121,152.27L115.5,157.58L110,159.31L104.5,163.2L99,165.6L93.5,164.27L82.5,161.54L77,165.52L71.5,165.87L66,162.69L60.5,154.16L55,147.16L49.5,139.78L44,128.75L38.5,117.53L33,108.07L27.5,94.62L22,78.54L16.5,65.35L11,47.66L5.5,31.97L0,11Z" style="fill: rgb(0, 89, 134); fill-opacity: 1; stroke-width: 0;"/></g></g><g class="errorbars"/><g class="lines"><path class="js-line" d="M0,11L5.5,29.17L11,42.44L22,69.09L27.5,84.09L44,122.01L49.5,129.02L55,140.26L60.5,141.84L77,155.31L82.5,155.9L88,152.17L93.5,150.45L99,150.07L104.5,148.02L110,144.1L115.5,138.41L121,140.25L126.5,140.6L132,138.71L137.5,138.18L148.5,143.82L154,149.97L159.5,149.2L165,152.74L176,150.09L181.5,147.2L187,139.86L192.5,144.04L198,140.26L203.5,140.12L214.5,141.46L220,140.18L225.5,139.37L231,142.75L236.5,138.29L242,142.21L247.5,145.36L253,143.5L258.5,138.92L264,138.89L269.5,136.76L275,136.49L280.5,136.95L286,136.5L297,141.05L302.5,141.41L308,145.27L313.5,142.37L319,138.06L324.5,139.18L330,140.73L335.5,137.45L341,134.58L346.5,139.43L352,139.7L357.5,138.66L368.5,140.88L374,138.82L379.5,136.36L385,137.9L396,140.85L401.5,135.44L412.5,130.83L418,134.19L423.5,136.17L429,136.97L434.5,141.69L440,140.62L440,159.24L434.5,158.85L423.5,145.17L418,148.64L412.5,151.97L407,152.3L396,150.51L390.5,150.79L385,148.6L379.5,153.91L374,158.03L368.5,161.04L357.5,154.67L352,158.55L346.5,160.21L341,156.49L335.5,150.14L330,150.82L324.5,152.1L319,155.87L308,159.1L302.5,154.82L297,147.74L291.5,150.24L286,151.84L280.5,155.13L275,154.75L269.5,157.08L264,161L258.5,157.68L253,160.69L247.5,158.57L236.5,158.32L231,155.78L225.5,154.88L220,156.2L214.5,152.09L209,158.04L203.5,160.56L198,167.13L187,172.43L181.5,167.95L176,166.69L170.5,172.32L165,172.29L159.5,166.81L154,164.03L148.5,162.54L143,157.11L137.5,156.77L132,155.35L126.5,152.04L121,152.27L115.5,157.58L110,159.31L104.5,163.2L99,165.6L93.5,164.27L82.5,161.54L77,165.52L71.5,165.87L66,162.69L60.5,154.16L55,147.16L49.5,139.78L44,128.75L38.5,117.53L33,108.07L27.5,94.62L22,78.54L16.5,65.35L11,47.66L5.5,31.97L0,11" style="vector-effect: none; fill: none; stroke: rgb(0, 0, 0); stroke-opacity: 0; stroke-width: 2px; opacity: 1;"/></g><g class="points"/><g class="text"/></g><g class="trace scatter trace153d12" style="stroke-miterlimit: 2; opacity: 1;"><g class="fills"/><g class="errorbars"/><g class="lines"><path class="js-line" d="M0,11L5.5,29.7L11,42.16L60.5,160.43L66,172.16L71.5,181.15L77,186.46L82.5,188.78L88,188.71L104.5,183.16L110,184.2L121,186.71L126.5,185.69L132,185.88L137.5,184.02L143,182.93L148.5,183.73L154,184.74L159.5,183.55L165,185.9L170.5,184.39L176,184.55L181.5,183.35L187,183.92L192.5,181.32L198,179.37L203.5,183.27L214.5,184.55L220,186.09L225.5,186.63L231,184.79L236.5,182.94L242,184.17L247.5,184.47L253,183.77L258.5,187.3L264,186.61L280.5,182.29L286,182.8L297,183.51L302.5,181.9L330,184.19L335.5,185.38L346.5,181.81L352,181.99L357.5,182.95L363,183.1L368.5,186.63L374,187.68L390.5,186.28L396,185.05L401.5,184.86L407,185.43L412.5,184.85L418,185.91L423.5,186.29L429,185.71L434.5,185.04L440,182.55" style="vector-effect: none; fill: none; stroke: rgb(59, 33, 121); stroke-opacity: 1; stroke-width: 2px; opacity: 1;"/></g><g class="points"/><g class="text"/></g><g class="trace scatter tracef242fe" style="stroke-miterlimit: 2; opacity: 0.3;"><g class="fills"><g><path class="js-fill" d="M0,11L5.5,28.03L11,39.24L16.5,50.73L22,65.18L44,115.36L49.5,130.02L66,165.13L71.5,174.82L77,181.3L82.5,185.11L88,184.92L93.5,183.75L99,178.28L104.5,176.99L110,178.04L115.5,180.61L121,181.53L126.5,179.41L132,182.29L137.5,180.71L143,177.67L148.5,177.93L154,181.61L159.5,176.92L165,181.87L170.5,181.06L176,180.57L181.5,176.29L187,177.28L192.5,176.7L198,177.15L203.5,181.25L209,180.58L214.5,181.27L220,182.86L225.5,182.72L231,178.99L236.5,177.9L242,178.3L247.5,179.57L253,179.67L258.5,185.5L264,184.4L269.5,182.11L275,178.56L280.5,180.05L286,179.87L291.5,180.66L297,181.35L302.5,177.04L308,177.14L313.5,179.34L324.5,181.13L330,180.69L335.5,181.28L341,178.23L346.5,175.77L352,175.82L357.5,176.05L363,179.2L368.5,182.27L374,181.94L379.5,181.78L385,182.77L390.5,182.16L396,178.44L407,176.56L412.5,176.22L418,175.87L423.5,178.78L429,179.64L434.5,178.29L440,175.72L440,189.38L434.5,191.79L429,191.77L418,195.95L412.5,193.48L407,194.3L401.5,192.46L390.5,190.4L385,192.02L374,193.43L368.5,190.99L363,187L357.5,189.85L352,188.15L346.5,187.84L335.5,189.48L330,187.68L324.5,185.85L319,185.92L308,187.64L302.5,186.75L291.5,185.23L286,185.74L280.5,184.53L275,188.98L269.5,187.95L264,188.83L258.5,189.1L253,187.88L247.5,189.37L242,190.04L236.5,187.99L231,190.59L225.5,190.54L220,189.31L214.5,187.82L209,187.53L203.5,185.29L198,181.59L187,190.56L181.5,190.41L176,188.53L170.5,187.73L165,189.93L159.5,190.19L154,187.87L148.5,189.52L137.5,187.34L132,189.46L126.5,191.97L121,191.88L115.5,189.91L110,190.36L104.5,189.34L99,192L93.5,190.32L88,192.5L82.5,192.45L77,191.62L71.5,187.49L66,179.19L60.5,166.91L55,152.45L38.5,114.33L33,100.76L16.5,59.72L11,45.08L5.5,31.36L0,11Z" style="fill: rgb(59, 33, 121); fill-opacity: 1; stroke-width: 0;"/></g></g><g class="errorbars"/><g class="lines"><path class="js-line" d="M0,11L5.5,28.03L11,39.24L16.5,50.73L22,65.18L44,115.36L49.5,130.02L66,165.13L71.5,174.82L77,181.3L82.5,185.11L88,184.92L93.5,183.75L99,178.28L104.5,176.99L110,178.04L115.5,180.61L121,181.53L126.5,179.41L132,182.29L137.5,180.71L143,177.67L148.5,177.93L154,181.61L159.5,176.92L165,181.87L170.5,181.06L176,180.57L181.5,176.29L187,177.28L192.5,176.7L198,177.15L203.5,181.25L209,180.58L214.5,181.27L220,182.86L225.5,182.72L231,178.99L236.5,177.9L242,178.3L247.5,179.57L253,179.67L258.5,185.5L264,184.4L269.5,182.11L275,178.56L280.5,180.05L286,179.87L291.5,180.66L297,181.35L302.5,177.04L308,177.14L313.5,179.34L324.5,181.13L330,180.69L335.5,181.28L341,178.23L346.5,175.77L352,175.82L357.5,176.05L363,179.2L368.5,182.27L374,181.94L379.5,181.78L385,182.77L390.5,182.16L396,178.44L407,176.56L412.5,176.22L418,175.87L423.5,178.78L429,179.64L434.5,178.29L440,175.72L440,189.38L434.5,191.79L429,191.77L418,195.95L412.5,193.48L407,194.3L401.5,192.46L390.5,190.4L385,192.02L374,193.43L368.5,190.99L363,187L357.5,189.85L352,188.15L346.5,187.84L335.5,189.48L330,187.68L324.5,185.85L319,185.92L308,187.64L302.5,186.75L291.5,185.23L286,185.74L280.5,184.53L275,188.98L269.5,187.95L264,188.83L258.5,189.1L253,187.88L247.5,189.37L242,190.04L236.5,187.99L231,190.59L225.5,190.54L220,189.31L214.5,187.82L209,187.53L203.5,185.29L198,181.59L187,190.56L181.5,190.41L176,188.53L170.5,187.73L165,189.93L159.5,190.19L154,187.87L148.5,189.52L137.5,187.34L132,189.46L126.5,191.97L121,191.88L115.5,189.91L110,190.36L104.5,189.34L99,192L93.5,190.32L88,192.5L82.5,192.45L77,191.62L71.5,187.49L66,179.19L60.5,166.91L55,152.45L38.5,114.33L33,100.76L16.5,59.72L11,45.08L5.5,31.36L0,11" style="vector-effect: none; fill: none; stroke: rgb(0, 0, 0); stroke-opacity: 0; stroke-width: 2px; opacity: 1;"/></g><g class="points"/><g class="text"/></g><g class="trace scatter trace8fd9c8" style="stroke-miterlimit: 2; opacity: 1;"><g class="fills"/><g class="errorbars"/><g class="lines"><path class="js-line" d="M0,11L5.5,26.71L11,37.03L16.5,47.56L22,60.82L49.5,127.23L55,139.49L60.5,152.16L66,167.36L71.5,182.52L77,195.22L82.5,201.97L88,203.14L99,203.48L104.5,203.43L110,202.06L115.5,202.01L121,202.39L126.5,200.59L137.5,200.69L143,200.11L148.5,200.05L154,198.86L159.5,199.95L165,198.87L176,200.33L181.5,200.66L187,201.17L192.5,199.74L203.5,199.41L209,199.2L214.5,199.46L220,200.59L236.5,198.47L242,199.78L253,198.96L258.5,198.91L280.5,198.7L286,199.11L291.5,197.71L297,198.27L302.5,198.72L308,196.67L319,197.91L324.5,198.15L330,198.99L335.5,198.66L357.5,197.74L363,198.64L374,200L379.5,199.63L390.5,200.6L396,200.3L401.5,200L407,198.77L418,196.94L423.5,197.67L440,196.31" style="vector-effect: none; fill: none; stroke: rgb(130, 48, 131); stroke-opacity: 1; stroke-width: 2px; opacity: 1;"/></g><g class="points"/><g class="text"/></g><g class="trace scatter trace7a48ed" style="stroke-miterlimit: 2; opacity: 0.3;"><g class="fills"><g><path class="js-fill" d="M0,11L5.5,24.82L11,34.68L16.5,44.42L22,57L33,82.89L38.5,93.65L49.5,117.28L55,130.34L60.5,143.75L66,160.94L77,190.58L82.5,201.18L93.5,201.28L99,202.97L110,200.25L115.5,199.82L121,201.01L126.5,197.9L137.5,198.29L143,196.88L148.5,196.59L154,195.24L159.5,197.29L165,196.37L181.5,199.54L187,199.79L192.5,196.44L198,197.28L209,197.24L214.5,198.33L231,197.54L236.5,196.34L242,198.01L247.5,196.22L253,195.75L258.5,197.11L269.5,197.5L275,196.62L286,195.08L291.5,192.53L297,194.75L302.5,194.55L308,191.83L313.5,192.72L319,193.67L324.5,192.83L330,195.18L335.5,196.27L346.5,194.9L352,195.82L357.5,195.1L363,195.49L368.5,193.88L374,196.66L390.5,197.32L396,197.39L401.5,196.16L407,193.79L418,193.76L423.5,195.65L429,193.23L434.5,194.01L440,194.61L440,198.01L434.5,198.99L429,200.78L423.5,199.68L418,200.11L407,203.74L401.5,203.85L396,203.2L390.5,203.87L379.5,202.19L374,203.35L368.5,204.24L363,201.79L357.5,200.37L352,199.9L341,201.54L335.5,201.04L330,202.8L324.5,203.46L319,202.15L313.5,202.15L308,201.5L302.5,202.89L297,201.79L291.5,202.89L286,203.15L280.5,201.43L264,199.71L258.5,200.72L253,202.17L247.5,202.08L236.5,200.6L231,201.14L225.5,202.77L220,203.29L214.5,200.6L209,201.15L203.5,201.88L198,201.12L192.5,203.04L187,202.56L181.5,201.77L176,202.03L165,201.37L159.5,202.61L154,202.47L148.5,203.51L137.5,203.1L132,203.96L126.5,203.27L121,203.76L115.5,204.21L110,203.86L104.5,205.36L99,203.99L93.5,205.73L88,204.91L77,199.86L71.5,188.16L60.5,160.56L55,148.63L49.5,137.17L44,122.2L16.5,50.7L11,39.39L5.5,28.61L0,11Z" style="fill: rgb(130, 48, 131); fill-opacity: 1; stroke-width: 0;"/></g></g><g class="errorbars"/><g class="lines"><path class="js-line" d="M0,11L5.5,24.82L11,34.68L16.5,44.42L22,57L33,82.89L38.5,93.65L49.5,117.28L55,130.34L60.5,143.75L66,160.94L77,190.58L82.5,201.18L93.5,201.28L99,202.97L110,200.25L115.5,199.82L121,201.01L126.5,197.9L137.5,198.29L143,196.88L148.5,196.59L154,195.24L159.5,197.29L165,196.37L181.5,199.54L187,199.79L192.5,196.44L198,197.28L209,197.24L214.5,198.33L231,197.54L236.5,196.34L242,198.01L247.5,196.22L253,195.75L258.5,197.11L269.5,197.5L275,196.62L286,195.08L291.5,192.53L297,194.75L302.5,194.55L308,191.83L313.5,192.72L319,193.67L324.5,192.83L330,195.18L335.5,196.27L346.5,194.9L352,195.82L357.5,195.1L363,195.49L368.5,193.88L374,196.66L390.5,197.32L396,197.39L401.5,196.16L407,193.79L418,193.76L423.5,195.65L429,193.23L434.5,194.01L440,194.61L440,198.01L434.5,198.99L429,200.78L423.5,199.68L418,200.11L407,203.74L401.5,203.85L396,203.2L390.5,203.87L379.5,202.19L374,203.35L368.5,204.24L363,201.79L357.5,200.37L352,199.9L341,201.54L335.5,201.04L330,202.8L324.5,203.46L319,202.15L313.5,202.15L308,201.5L302.5,202.89L297,201.79L291.5,202.89L286,203.15L280.5,201.43L264,199.71L258.5,200.72L253,202.17L247.5,202.08L236.5,200.6L231,201.14L225.5,202.77L220,203.29L214.5,200.6L209,201.15L203.5,201.88L198,201.12L192.5,203.04L187,202.56L181.5,201.77L176,202.03L165,201.37L159.5,202.61L154,202.47L148.5,203.51L137.5,203.1L132,203.96L126.5,203.27L121,203.76L115.5,204.21L110,203.86L104.5,205.36L99,203.99L93.5,205.73L88,204.91L77,199.86L71.5,188.16L60.5,160.56L55,148.63L49.5,137.17L44,122.2L16.5,50.7L11,39.39L5.5,28.61L0,11" style="vector-effect: none; fill: none; stroke: rgb(0, 0, 0); stroke-opacity: 0; stroke-width: 2px; opacity: 1;"/></g><g class="points"/><g class="text"/></g><g class="trace scatter tracea6a68b" style="stroke-miterlimit: 2; opacity: 1;"><g class="fills"/><g class="errorbars"/><g class="lines"><path class="js-line" d="M0,11L5.5,25.94L11,35.97L16.5,45.25L22,56.08L60.5,150.78L66,166.32L71.5,182.62L77,195.86L82.5,203.83L88,204.78L93.5,205.22L99,204.06L115.5,204.02L121,204.82L143,203.51L148.5,202.96L165,202.73L170.5,203.46L187,203.72L192.5,203.18L203.5,203.51L209,203.08L214.5,203.79L220,202.89L236.5,202.99L242,203.06L253,204.42L258.5,204.12L264,203.98L269.5,204.96L286,204.65L291.5,205.48L297,203.83L302.5,203.73L313.5,202.44L319,203.15L330,203.54L335.5,203.08L341,202.45L346.5,202.95L352,202.03L357.5,201.99L363,202.8L368.5,201.95L379.5,202.5L385,201.72L390.5,200.78L396,202.47L440,204.1" style="vector-effect: none; fill: none; stroke: rgb(183, 86, 135); stroke-opacity: 1; stroke-width: 2px; opacity: 1;"/></g><g class="points"/><g class="text"/></g><g class="trace scatter trace886437" style="stroke-miterlimit: 2; opacity: 0.3;"><g class="fills"><g><path class="js-fill" d="M0,11L5.5,24.73L11,33.63L27.5,65.27L33,76.69L38.5,87.2L44,100.03L60.5,141.19L66,158.37L71.5,176.79L77,190.01L82.5,202.97L88,203.4L93.5,203.81L99,202.83L110,202.68L115.5,202.08L121,203.72L126.5,203.63L132,202.26L137.5,202.62L159.5,201.02L165,201.18L176,202.44L181.5,202.4L209,202.17L214.5,203.42L220,201.19L225.5,200.87L231,200.65L236.5,201.74L247.5,201.2L253,202.3L258.5,201.84L264,202.61L269.5,203.82L275,203.62L280.5,203.11L286,203.99L291.5,204.38L297,202.4L319,201.12L324.5,201.61L330,201.09L335.5,201.83L346.5,199.82L352,199.74L357.5,200.04L363,201.55L368.5,200.08L374,200.47L379.5,200.88L385,199.8L390.5,198.25L396,199.82L401.5,200.92L407,199.89L412.5,200.12L418,201.35L423.5,201.75L429,201.39L440,202.13L440,206.07L434.5,205.27L429,205.29L418,204.95L412.5,204.79L407,205.01L401.5,204.38L396,205.12L390.5,203.3L379.5,204.12L374,203.48L352,204.31L346.5,206.09L341,203.92L335.5,204.33L330,206L324.5,205.16L319,205.18L313.5,203.46L302.5,205.34L297,205.26L291.5,206.59L286,205.31L280.5,206.68L275,205.87L269.5,206.11L264,205.36L258.5,206.41L253,206.54L247.5,205.84L242,204.36L203.5,204.25L198,204.34L192.5,203.76L187,204.96L181.5,205.73L176,204.56L170.5,205.02L165,204.28L159.5,204.63L154,203.88L143,204.86L137.5,204.37L126.5,205.6L121,205.91L110,205.77L104.5,204.94L99,205.29L93.5,206.63L88,206.17L82.5,204.69L77,201.71L71.5,188.45L38.5,102.49L33,86.03L27.5,73.94L22,58.44L16.5,46.75L11,38.3L5.5,27.14L0,11Z" style="fill: rgb(183, 86, 135); fill-opacity: 1; stroke-width: 0;"/></g></g><g class="errorbars"/><g class="lines"><path class="js-line" d="M0,11L5.5,24.73L11,33.63L27.5,65.27L33,76.69L38.5,87.2L44,100.03L60.5,141.19L66,158.37L71.5,176.79L77,190.01L82.5,202.97L88,203.4L93.5,203.81L99,202.83L110,202.68L115.5,202.08L121,203.72L126.5,203.63L132,202.26L137.5,202.62L159.5,201.02L165,201.18L176,202.44L181.5,202.4L209,202.17L214.5,203.42L220,201.19L225.5,200.87L231,200.65L236.5,201.74L247.5,201.2L253,202.3L258.5,201.84L264,202.61L269.5,203.82L275,203.62L280.5,203.11L286,203.99L291.5,204.38L297,202.4L319,201.12L324.5,201.61L330,201.09L335.5,201.83L346.5,199.82L352,199.74L357.5,200.04L363,201.55L368.5,200.08L374,200.47L379.5,200.88L385,199.8L390.5,198.25L396,199.82L401.5,200.92L407,199.89L412.5,200.12L418,201.35L423.5,201.75L429,201.39L440,202.13L440,206.07L434.5,205.27L429,205.29L418,204.95L412.5,204.79L407,205.01L401.5,204.38L396,205.12L390.5,203.3L379.5,204.12L374,203.48L352,204.31L346.5,206.09L341,203.92L335.5,204.33L330,206L324.5,205.16L319,205.18L313.5,203.46L302.5,205.34L297,205.26L291.5,206.59L286,205.31L280.5,206.68L275,205.87L269.5,206.11L264,205.36L258.5,206.41L253,206.54L247.5,205.84L242,204.36L203.5,204.25L198,204.34L192.5,203.76L187,204.96L181.5,205.73L176,204.56L170.5,205.02L165,204.28L159.5,204.63L154,203.88L143,204.86L137.5,204.37L126.5,205.6L121,205.91L110,205.77L104.5,204.94L99,205.29L93.5,206.63L88,206.17L82.5,204.69L77,201.71L71.5,188.45L38.5,102.49L33,86.03L27.5,73.94L22,58.44L16.5,46.75L11,38.3L5.5,27.14L0,11" style="vector-effect: none; fill: none; stroke: rgb(0, 0, 0); stroke-opacity: 0; stroke-width: 2px; opacity: 1;"/></g><g class="points"/><g class="text"/></g><g class="trace scatter tracea75a8a" style="stroke-miterlimit: 2; opacity: 1;"><g class="fills"/><g class="errorbars"/><g class="lines"><path class="js-line" d="M0,11L5.5,23.66L11,31.3L16.5,36.65L22,43.18L44,74.81L49.5,84.29L60.5,102.79L66,114.52L71.5,125.29L77,138.57L82.5,150.19L88,166.2L93.5,182.43L99,196.22L104.5,203.16L110,204.75L132,206.29L137.5,205.72L159.5,205.6L165,206.3L181.5,205.61L187,205.36L214.5,205.74L220,204.89L225.5,204.77L231,205.52L253,205.34L258.5,205.87L264,206.64L269.5,205.43L280.5,205.77L286,205.47L291.5,206.15L297,205.87L319,205.53L324.5,204.92L341,205.57L346.5,205.03L352,206.09L357.5,205.87L363,204.86L368.5,205.18L379.5,205.72L385,204.38L396,205.33L401.5,205.47L418,204.6L423.5,204.98L429,204.52L434.5,204.91L440,204.83" style="vector-effect: none; fill: none; stroke: rgb(221, 134, 127); stroke-opacity: 1; stroke-width: 2px; opacity: 1;"/></g><g class="points"/><g class="text"/></g><g class="trace scatter trace28fe65" style="stroke-miterlimit: 2; opacity: 0.3;"><g class="fills"><g><path class="js-fill" d="M0,11L5.5,21.97L11,29L22,38.84L27.5,46.41L33,54.81L38.5,60.97L44,69.11L49.5,78.59L55,85L60.5,93.75L82.5,139.77L88,156.97L93.5,170.94L99,188.26L104.5,199.64L110,203.7L121,204.69L126.5,203.72L132,205.54L137.5,204.89L148.5,205.17L154,203.77L165,205.67L170.5,205.19L181.5,205L187,204.05L198,204.23L203.5,204.38L209,203.71L214.5,204.2L220,203.55L225.5,204.06L236.5,204.65L242,204.57L247.5,204.95L253,204.55L264,206.26L269.5,204.83L275,205.42L280.5,204.87L286,204.36L291.5,205.49L302.5,204.47L308,205.03L313.5,205.71L319,204.68L324.5,204.28L330,204.7L346.5,204.66L352,205.38L357.5,203.75L363,203.49L374,204.9L379.5,204.62L385,203.43L390.5,203.9L407,204L412.5,203.38L418,202.61L423.5,204.28L429,203.35L434.5,203.81L440,203.55L440,206.12L423.5,205.67L418,206.59L407,205.94L401.5,206.72L385,205.32L379.5,206.81L374,205.81L368.5,206L363,206.23L357.5,207.99L346.5,205.4L341,206.19L324.5,205.56L319,206.38L302.5,207.35L297,206.54L280.5,206.67L275,206.32L269.5,206.03L264,207.02L253,206.13L247.5,206.35L242,205.6L236.5,206.27L231,206.3L225.5,205.49L214.5,207.28L209,206.42L198,206.81L192.5,206.27L187,206.67L181.5,206.22L170.5,206.45L165,206.93L159.5,206.4L154,207.09L132,207.05L126.5,207.59L110,205.8L104.5,206.69L99,204.18L93.5,193.93L88,175.43L82.5,160.62L77,148.33L71.5,134.17L44,80.51L38.5,70.91L16.5,39.16L11,33.6L5.5,25.34L0,11Z" style="fill: rgb(221, 134, 127); fill-opacity: 1; stroke-width: 0;"/></g></g><g class="errorbars"/><g class="lines"><path class="js-line" d="M0,11L5.5,21.97L11,29L22,38.84L27.5,46.41L33,54.81L38.5,60.97L44,69.11L49.5,78.59L55,85L60.5,93.75L82.5,139.77L88,156.97L93.5,170.94L99,188.26L104.5,199.64L110,203.7L121,204.69L126.5,203.72L132,205.54L137.5,204.89L148.5,205.17L154,203.77L165,205.67L170.5,205.19L181.5,205L187,204.05L198,204.23L203.5,204.38L209,203.71L214.5,204.2L220,203.55L225.5,204.06L236.5,204.65L242,204.57L247.5,204.95L253,204.55L264,206.26L269.5,204.83L275,205.42L280.5,204.87L286,204.36L291.5,205.49L302.5,204.47L308,205.03L313.5,205.71L319,204.68L324.5,204.28L330,204.7L346.5,204.66L352,205.38L357.5,203.75L363,203.49L374,204.9L379.5,204.62L385,203.43L390.5,203.9L407,204L412.5,203.38L418,202.61L423.5,204.28L429,203.35L434.5,203.81L440,203.55L440,206.12L423.5,205.67L418,206.59L407,205.94L401.5,206.72L385,205.32L379.5,206.81L374,205.81L368.5,206L363,206.23L357.5,207.99L346.5,205.4L341,206.19L324.5,205.56L319,206.38L302.5,207.35L297,206.54L280.5,206.67L275,206.32L269.5,206.03L264,207.02L253,206.13L247.5,206.35L242,205.6L236.5,206.27L231,206.3L225.5,205.49L214.5,207.28L209,206.42L198,206.81L192.5,206.27L187,206.67L181.5,206.22L170.5,206.45L165,206.93L159.5,206.4L154,207.09L132,207.05L126.5,207.59L110,205.8L104.5,206.69L99,204.18L93.5,193.93L88,175.43L82.5,160.62L77,148.33L71.5,134.17L44,80.51L38.5,70.91L16.5,39.16L11,33.6L5.5,25.34L0,11" style="vector-effect: none; fill: none; stroke: rgb(0, 0, 0); stroke-opacity: 0; stroke-width: 2px; opacity: 1;"/></g><g class="points"/><g class="text"/></g><g class="trace scatter tracee02425" style="stroke-miterlimit: 2; opacity: 1;"><g class="fills"/><g class="errorbars"/><g class="lines"><path class="js-line" d="M0,11L5.5,21.31L11,24.8L16.5,29.7L22,32.67L33,40.56L38.5,44.67L44,51.61L49.5,57.15L60.5,69.19L66,74.24L71.5,80.55L77,89.45L88,108.45L93.5,116.63L110,148.56L115.5,163.53L121,176.63L126.5,186.33L132,194.25L137.5,199.85L143,203.8L148.5,205.78L154,204.97L159.5,206.23L203.5,205.56L209,206.32L214.5,205.52L220,207L231,205.57L236.5,205.93L242,204.93L247.5,205.25L264,205.79L269.5,204.85L319,206.11L324.5,204.92L335.5,206.24L341,205.07L346.5,205.84L352,205.26L357.5,205.38L363,206.57L368.5,206.6L374,205.71L385,204.77L390.5,205.7L401.5,205.32L407,204.15L418,205.59L423.5,205.43L429,205.17L434.5,206.09L440,205.7" style="vector-effect: none; fill: none; stroke: rgb(244, 188, 119); stroke-opacity: 1; stroke-width: 2px; opacity: 1;"/></g><g class="points"/><g class="text"/></g><g class="trace scatter trace6ab88c" style="stroke-miterlimit: 2; opacity: 0.3;"><g class="fills"><g><path class="js-fill" d="M0,11L5.5,20.54L11,23.41L16.5,27.96L22,28.7L27.5,31.81L33,36.1L38.5,38.66L44,46.45L71.5,70.66L77,78.45L99,109.48L104.5,119.24L110,126.47L115.5,140.03L126.5,170.41L132,180.41L137.5,191.94L143,200.82L148.5,204.58L154,203.92L159.5,205.61L165,205.34L170.5,205.79L176,205.29L181.5,203.96L187,204.36L198,204.78L203.5,203.84L209,205.64L214.5,204.41L220,206.38L225.5,205.18L236.5,204.9L242,204.56L247.5,203.89L253,204.34L280.5,204.28L286,202.93L297,205.39L302.5,204.29L308,205.25L313.5,204.86L319,205L324.5,203.58L330,204.86L335.5,205.35L341,203.79L346.5,205.43L352,204.38L357.5,204.41L363,205.81L368.5,206.1L379.5,203.81L385,204.27L390.5,204.67L396,203.86L401.5,204.59L407,202.43L418,204.8L423.5,204.33L440,205L440,206.41L434.5,207.08L429,205.94L418,206.37L412.5,206.35L401.5,206.05L396,206.87L390.5,206.72L385,205.26L379.5,206.67L374,206.61L363,207.33L357.5,206.35L341,206.35L335.5,207.14L324.5,206.26L319,207.23L291.5,206.02L286,207.97L280.5,206.22L275,206.01L269.5,205.98L264,207.09L258.5,205.96L253,206.23L247.5,206.61L242,205.31L236.5,206.96L231,205.85L220,207.62L214.5,206.62L203.5,207.28L198,206.62L187,207.12L181.5,207.09L170.5,206.48L165,207.06L154,206.02L148.5,206.98L143,206.79L137.5,207.76L132,208.08L126.5,202.25L121,198.46L115.5,187.04L110,170.64L104.5,158.67L93.5,131.18L88,122.08L82.5,112.5L77,100.45L71.5,90.44L66,82.8L60.5,77.35L55,70.6L49.5,62.84L44,56.77L33,45.02L27.5,40.58L22,36.64L16.5,31.44L11,26.19L5.5,22.08L0,11Z" style="fill: rgb(244, 188, 119); fill-opacity: 1; stroke-width: 0;"/></g></g><g class="errorbars"/><g class="lines"><path class="js-line" d="M0,11L5.5,20.54L11,23.41L16.5,27.96L22,28.7L27.5,31.81L33,36.1L38.5,38.66L44,46.45L71.5,70.66L77,78.45L99,109.48L104.5,119.24L110,126.47L115.5,140.03L126.5,170.41L132,180.41L137.5,191.94L143,200.82L148.5,204.58L154,203.92L159.5,205.61L165,205.34L170.5,205.79L176,205.29L181.5,203.96L187,204.36L198,204.78L203.5,203.84L209,205.64L214.5,204.41L220,206.38L225.5,205.18L236.5,204.9L242,204.56L247.5,203.89L253,204.34L280.5,204.28L286,202.93L297,205.39L302.5,204.29L308,205.25L313.5,204.86L319,205L324.5,203.58L330,204.86L335.5,205.35L341,203.79L346.5,205.43L352,204.38L357.5,204.41L363,205.81L368.5,206.1L379.5,203.81L385,204.27L390.5,204.67L396,203.86L401.5,204.59L407,202.43L418,204.8L423.5,204.33L440,205L440,206.41L434.5,207.08L429,205.94L418,206.37L412.5,206.35L401.5,206.05L396,206.87L390.5,206.72L385,205.26L379.5,206.67L374,206.61L363,207.33L357.5,206.35L341,206.35L335.5,207.14L324.5,206.26L319,207.23L291.5,206.02L286,207.97L280.5,206.22L275,206.01L269.5,205.98L264,207.09L258.5,205.96L253,206.23L247.5,206.61L242,205.31L236.5,206.96L231,205.85L220,207.62L214.5,206.62L203.5,207.28L198,206.62L187,207.12L181.5,207.09L170.5,206.48L165,207.06L154,206.02L148.5,206.98L143,206.79L137.5,207.76L132,208.08L126.5,202.25L121,198.46L115.5,187.04L110,170.64L104.5,158.67L93.5,131.18L88,122.08L82.5,112.5L77,100.45L71.5,90.44L66,82.8L60.5,77.35L55,70.6L49.5,62.84L44,56.77L33,45.02L27.5,40.58L22,36.64L16.5,31.44L11,26.19L5.5,22.08L0,11" style="vector-effect: none; fill: none; stroke: rgb(0, 0, 0); stroke-opacity: 0; stroke-width: 2px; opacity: 1;"/></g><g class="points"/><g class="text"/></g><g class="trace scatter trace7fffa1" style="stroke-miterlimit: 2; opacity: 1;"><g class="fills"/><g class="errorbars"/><g class="lines"><path class="js-line" d="M0,11L5.5,21.61L11,24.07L16.5,25.33L22,28.56L27.5,31.76L33,33.67L49.5,40.06L55,42.41L71.5,50.91L77,55.09L99,69.02L104.5,73.91L137.5,108.13L143,116.12L148.5,123.36L154,132.1L159.5,139.75L165,150.64L170.5,160.38L176,168.16L187,181.89L192.5,187.56L203.5,202.82L209,205.22L214.5,205.25L220,206.1L225.5,205.32L231,205.79L258.5,206.05L264,205.94L280.5,204.83L286,204.22L297,205.87L302.5,205.85L319,205.2L324.5,205.96L330,205.14L335.5,205.79L357.5,204.96L363,206L374,206.18L379.5,205.31L385,206.04L390.5,205.73L407,205.64L412.5,206.06L429,205.5L434.5,206.22L440,205.96" style="vector-effect: none; fill: none; stroke: rgb(248, 246, 139); stroke-opacity: 1; stroke-width: 2px; opacity: 1;"/></g><g class="points"/><g class="text"/></g><g class="trace scatter tracea03170" style="stroke-miterlimit: 2; opacity: 0.3;"><g class="fills"><g><path class="js-fill" d="M0,11L5.5,20.41L11,22.5L16.5,23.01L22,26.52L27.5,29.64L33,29.2L49.5,33.12L55,33.85L60.5,35.12L66,37.49L71.5,39.85L77,43.16L88,49.69L93.5,52.97L99,53.97L104.5,57.84L110,61.42L115.5,66.58L121,72.76L126.5,80.36L137.5,88.25L143,93.92L148.5,99.46L154,106.34L170.5,123.05L176,133.97L192.5,169.55L198,183.95L203.5,196.64L209,204.47L214.5,204.61L220,205.82L225.5,204.52L231,204.97L236.5,204.53L242,205.25L264,205.01L269.5,204.32L275,204.99L280.5,203.98L286,203.2L291.5,204.45L302.5,205.37L308,204.95L319,204.3L324.5,205.41L335.5,204.12L341,204.78L346.5,205.66L352,205.25L357.5,204.08L363,205.16L374,204.81L379.5,204.34L385,205.22L390.5,205.21L407,204.02L412.5,205.46L429,204.35L434.5,205.57L440,204.86L440,207.07L412.5,206.67L407,207.26L396,206.45L390.5,206.24L385,206.86L379.5,206.28L374,207.55L368.5,206.73L363,206.85L357.5,205.85L341,206.35L335.5,207.46L330,205.5L324.5,206.51L319,206.11L313.5,207.09L302.5,206.32L297,206.72L286,205.25L280.5,205.67L275,206.83L269.5,206.89L247.5,207.36L242,206.57L236.5,207.34L231,206.61L225.5,206.11L220,206.38L209,205.97L203.5,209L192.5,205.57L187,205.45L176,202.36L170.5,197.71L165,183.72L159.5,167.36L137.5,128.01L132,120.64L126.5,112.34L121,108.28L110,97.64L104.5,89.99L93.5,79.21L88,75.79L71.5,61.97L66,59.01L60.5,55.54L55,50.97L44,43.37L38.5,40.59L33,38.14L27.5,33.88L16.5,27.65L11,25.65L5.5,22.81L0,11Z" style="fill: rgb(248, 246, 139); fill-opacity: 1; stroke-width: 0;"/></g></g><g class="errorbars"/><g class="lines"><path class="js-line" d="M0,11L5.5,20.41L11,22.5L16.5,23.01L22,26.52L27.5,29.64L33,29.2L49.5,33.12L55,33.85L60.5,35.12L66,37.49L71.5,39.85L77,43.16L88,49.69L93.5,52.97L99,53.97L104.5,57.84L110,61.42L115.5,66.58L121,72.76L126.5,80.36L137.5,88.25L143,93.92L148.5,99.46L154,106.34L170.5,123.05L176,133.97L192.5,169.55L198,183.95L203.5,196.64L209,204.47L214.5,204.61L220,205.82L225.5,204.52L231,204.97L236.5,204.53L242,205.25L264,205.01L269.5,204.32L275,204.99L280.5,203.98L286,203.2L291.5,204.45L302.5,205.37L308,204.95L319,204.3L324.5,205.41L335.5,204.12L341,204.78L346.5,205.66L352,205.25L357.5,204.08L363,205.16L374,204.81L379.5,204.34L385,205.22L390.5,205.21L407,204.02L412.5,205.46L429,204.35L434.5,205.57L440,204.86L440,207.07L412.5,206.67L407,207.26L396,206.45L390.5,206.24L385,206.86L379.5,206.28L374,207.55L368.5,206.73L363,206.85L357.5,205.85L341,206.35L335.5,207.46L330,205.5L324.5,206.51L319,206.11L313.5,207.09L302.5,206.32L297,206.72L286,205.25L280.5,205.67L275,206.83L269.5,206.89L247.5,207.36L242,206.57L236.5,207.34L231,206.61L225.5,206.11L220,206.38L209,205.97L203.5,209L192.5,205.57L187,205.45L176,202.36L170.5,197.71L165,183.72L159.5,167.36L137.5,128.01L132,120.64L126.5,112.34L121,108.28L110,97.64L104.5,89.99L93.5,79.21L88,75.79L71.5,61.97L66,59.01L60.5,55.54L55,50.97L44,43.37L38.5,40.59L33,38.14L27.5,33.88L16.5,27.65L11,25.65L5.5,22.81L0,11" style="vector-effect: none; fill: none; stroke: rgb(0, 0, 0); stroke-opacity: 0; stroke-width: 2px; opacity: 1;"/></g><g class="points"/><g class="text"/></g></g></g></g><g class="zerolinelayer-above"/><path class="xlines-above crisp" d="M0,0" style="fill: none;"/><path class="ylines-above crisp" d="M0,0" style="fill: none;"/><g class="overlines-above"/><g class="xaxislayer-above"><g class="xtick"><text text-anchor="middle" x="0" y="333" transform="translate(80,0)" style="font-family: 'Open Sans', verdana, arial, sans-serif; font-size: 12px; fill: rgb(42, 63, 95); fill-opacity: 1; white-space: pre;">0</text></g><g class="xtick"><text text-anchor="middle" x="0" y="333" style="font-family: 'Open Sans', verdana, arial, sans-serif; font-size: 12px; fill: rgb(42, 63, 95); fill-opacity: 1; white-space: pre;" transform="translate(190,0)">2M</text></g><g class="xtick"><text text-anchor="middle" x="0" y="333" style="font-family: 'Open Sans', verdana, arial, sans-serif; font-size: 12px; fill: rgb(42, 63, 95); fill-opacity: 1; white-space: pre;" transform="translate(300,0)">4M</text></g><g class="xtick"><text text-anchor="middle" x="0" y="333" style="font-family: 'Open Sans', verdana, arial, sans-serif; font-size: 12px; fill: rgb(42, 63, 95); fill-opacity: 1; white-space: pre;" transform="translate(410,0)">6M</text></g><g class="xtick"><text text-anchor="middle" x="0" y="333" style="font-family: 'Open Sans', verdana, arial, sans-serif; font-size: 12px; fill: rgb(42, 63, 95); fill-opacity: 1; white-space: pre;" transform="translate(520,0)">8M</text></g></g><g class="yaxislayer-above"><g class="ytick"><text text-anchor="end" x="79" y="4.199999999999999" transform="translate(0,313.27)" style="font-family: 'Open Sans', verdana, arial, sans-serif; font-size: 12px; fill: rgb(42, 63, 95); fill-opacity: 1; white-space: pre;">100</text></g><g class="ytick"><text text-anchor="end" x="79" y="4.199999999999999" style="font-family: 'Open Sans', verdana, arial, sans-serif; font-size: 12px; fill: rgb(42, 63, 95); fill-opacity: 1; white-space: pre;" transform="translate(0,273.91999999999996)">200</text></g><g class="ytick"><text text-anchor="end" x="79" y="4.199999999999999" style="font-family: 'Open Sans', verdana, arial, sans-serif; font-size: 12px; fill: rgb(42, 63, 95); fill-opacity: 1; white-space: pre;" transform="translate(0,234.58)">300</text></g><g class="ytick"><text text-anchor="end" x="79" y="4.199999999999999" style="font-family: 'Open Sans', verdana, arial, sans-serif; font-size: 12px; fill: rgb(42, 63, 95); fill-opacity: 1; white-space: pre;" transform="translate(0,195.23000000000002)">400</text></g><g class="ytick"><text text-anchor="end" x="79" y="4.199999999999999" style="font-family: 'Open Sans', verdana, arial, sans-serif; font-size: 12px; fill: rgb(42, 63, 95); fill-opacity: 1; white-space: pre;" transform="translate(0,155.88)">500</text></g><g class="ytick"><text text-anchor="end" x="79" y="4.199999999999999" style="font-family: 'Open Sans', verdana, arial, sans-serif; font-size: 12px; fill: rgb(42, 63, 95); fill-opacity: 1; white-space: pre;" transform="translate(0,116.53999999999999)">600</text></g></g><g class="overaxes-above"/></g></g><g class="polarlayer"/><g class="smithlayer"/><g class="ternarylayer"/><g class="geolayer"/><g class="funnelarealayer"/><g class="pielayer"/><g class="iciclelayer"/><g class="treemaplayer"/><g class="sunburstlayer"/><g class="glimages"/><defs id="topdefs-2a2a8d"><g class="clips"/><clipPath id="legend2a2a8d"><rect width="59" height="219" x="0" y="0"/></clipPath></defs><g class="layer-above"><g class="imagelayer"/><g class="shapelayer"/></g><g class="infolayer"><g class="legend" pointer-events="all" transform="translate(528.8,100)"><rect class="bg" shape-rendering="crispEdges" style="stroke: rgb(68, 68, 68); stroke-opacity: 1; fill: rgb(255, 255, 255); fill-opacity: 1; stroke-width: 0px;" width="59" height="219" x="0" y="0"/><g class="scrollbox" transform="" clip-path="url(#legend2a2a8d)"><g class="groups"><g class="traces" transform="translate(0,14.5)" style="opacity: 1;"><text class="legendtext" text-anchor="start" x="40" y="4.680000000000001" style="font-family: 'Open Sans', verdana, arial, sans-serif; font-size: 12px; fill: rgb(42, 63, 95); fill-opacity: 1; white-space: pre;">0</text><g class="layers" style="opacity: 1;"><g class="legendfill"/><g class="legendlines"><path class="js-line" d="M5,0h30" style="fill: none; stroke: rgb(231, 248, 191); stroke-opacity: 1; stroke-width: 2px;"/></g><g class="legendsymbols"><g class="legendpoints"/></g></g><rect class="legendtoggle" x="0" y="-9.5" width="53.861328125" height="19" style="fill: rgb(0, 0, 0); fill-opacity: 0;"/></g><g class="traces" transform="translate(0,33.5)" style="opacity: 1;"><text class="legendtext" text-anchor="start" x="40" y="4.680000000000001" style="font-family: 'Open Sans', verdana, arial, sans-serif; font-size: 12px; fill: rgb(42, 63, 95); fill-opacity: 1; white-space: pre;">2</text><g class="layers" style="opacity: 1;"><g class="legendfill"/><g class="legendlines"><path class="js-line" d="M5,0h30" style="fill: none; stroke: rgb(152, 213, 164); stroke-opacity: 1; stroke-width: 2px;"/></g><g class="legendsymbols"><g class="legendpoints"/></g></g><rect class="legendtoggle" x="0" y="-9.5" width="53.861328125" height="19" style="fill: rgb(0, 0, 0); fill-opacity: 0;"/></g><g class="traces" transform="translate(0,52.5)" style="opacity: 1;"><text class="legendtext" text-anchor="start" x="40" y="4.680000000000001" style="font-family: 'Open Sans', verdana, arial, sans-serif; font-size: 12px; fill: rgb(42, 63, 95); fill-opacity: 1; white-space: pre;">4</text><g class="layers" style="opacity: 1;"><g class="legendfill"/><g class="legendlines"><path class="js-line" d="M5,0h30" style="fill: none; stroke: rgb(63, 175, 153); stroke-opacity: 1; stroke-width: 2px;"/></g><g class="legendsymbols"><g class="legendpoints"/></g></g><rect class="legendtoggle" x="0" y="-9.5" width="53.861328125" height="19" style="fill: rgb(0, 0, 0); fill-opacity: 0;"/></g><g class="traces" transform="translate(0,71.5)" style="opacity: 1;"><text class="legendtext" text-anchor="start" x="40" y="4.680000000000001" style="font-family: 'Open Sans', verdana, arial, sans-serif; font-size: 12px; fill: rgb(42, 63, 95); fill-opacity: 1; white-space: pre;">6</text><g class="layers" style="opacity: 1;"><g class="legendfill"/><g class="legendlines"><path class="js-line" d="M5,0h30" style="fill: none; stroke: rgb(0, 134, 146); stroke-opacity: 1; stroke-width: 2px;"/></g><g class="legendsymbols"><g class="legendpoints"/></g></g><rect class="legendtoggle" x="0" y="-9.5" width="53.861328125" height="19" style="fill: rgb(0, 0, 0); fill-opacity: 0;"/></g><g class="traces" transform="translate(0,90.5)" style="opacity: 1;"><text class="legendtext" text-anchor="start" x="40" y="4.680000000000001" style="font-family: 'Open Sans', verdana, arial, sans-serif; font-size: 12px; fill: rgb(42, 63, 95); fill-opacity: 1; white-space: pre;">8</text><g class="layers" style="opacity: 1;"><g class="legendfill"/><g class="legendlines"><path class="js-line" d="M5,0h30" style="fill: none; stroke: rgb(0, 89, 134); stroke-opacity: 1; stroke-width: 2px;"/></g><g class="legendsymbols"><g class="legendpoints"/></g></g><rect class="legendtoggle" x="0" y="-9.5" width="53.861328125" height="19" style="fill: rgb(0, 0, 0); fill-opacity: 0;"/></g><g class="traces" transform="translate(0,109.5)" style="opacity: 1;"><text class="legendtext" text-anchor="start" x="40" y="4.680000000000001" style="font-family: 'Open Sans', verdana, arial, sans-serif; font-size: 12px; fill: rgb(42, 63, 95); fill-opacity: 1; white-space: pre;">10</text><g class="layers" style="opacity: 1;"><g class="legendfill"/><g class="legendlines"><path class="js-line" d="M5,0h30" style="fill: none; stroke: rgb(59, 33, 121); stroke-opacity: 1; stroke-width: 2px;"/></g><g class="legendsymbols"><g class="legendpoints"/></g></g><rect class="legendtoggle" x="0" y="-9.5" width="53.861328125" height="19" style="fill: rgb(0, 0, 0); fill-opacity: 0;"/></g><g class="traces" transform="translate(0,128.5)" style="opacity: 1;"><text class="legendtext" text-anchor="start" x="40" y="4.680000000000001" style="font-family: 'Open Sans', verdana, arial, sans-serif; font-size: 12px; fill: rgb(42, 63, 95); fill-opacity: 1; white-space: pre;">12</text><g class="layers" style="opacity: 1;"><g class="legendfill"/><g class="legendlines"><path class="js-line" d="M5,0h30" style="fill: none; stroke: rgb(130, 48, 131); stroke-opacity: 1; stroke-width: 2px;"/></g><g class="legendsymbols"><g class="legendpoints"/></g></g><rect class="legendtoggle" x="0" y="-9.5" width="53.861328125" height="19" style="fill: rgb(0, 0, 0); fill-opacity: 0;"/></g><g class="traces" transform="translate(0,147.5)" style="opacity: 1;"><text class="legendtext" text-anchor="start" x="40" y="4.680000000000001" style="font-family: 'Open Sans', verdana, arial, sans-serif; font-size: 12px; fill: rgb(42, 63, 95); fill-opacity: 1; white-space: pre;">14</text><g class="layers" style="opacity: 1;"><g class="legendfill"/><g class="legendlines"><path class="js-line" d="M5,0h30" style="fill: none; stroke: rgb(183, 86, 135); stroke-opacity: 1; stroke-width: 2px;"/></g><g class="legendsymbols"><g class="legendpoints"/></g></g><rect class="legendtoggle" x="0" y="-9.5" width="53.861328125" height="19" style="fill: rgb(0, 0, 0); fill-opacity: 0;"/></g><g class="traces" transform="translate(0,166.5)" style="opacity: 1;"><text class="legendtext" text-anchor="start" x="40" y="4.680000000000001" style="font-family: 'Open Sans', verdana, arial, sans-serif; font-size: 12px; fill: rgb(42, 63, 95); fill-opacity: 1; white-space: pre;">16</text><g class="layers" style="opacity: 1;"><g class="legendfill"/><g class="legendlines"><path class="js-line" d="M5,0h30" style="fill: none; stroke: rgb(221, 134, 127); stroke-opacity: 1; stroke-width: 2px;"/></g><g class="legendsymbols"><g class="legendpoints"/></g></g><rect class="legendtoggle" x="0" y="-9.5" width="53.861328125" height="19" style="fill: rgb(0, 0, 0); fill-opacity: 0;"/></g><g class="traces" transform="translate(0,185.5)" style="opacity: 1;"><text class="legendtext" text-anchor="start" x="40" y="4.680000000000001" style="font-family: 'Open Sans', verdana, arial, sans-serif; font-size: 12px; fill: rgb(42, 63, 95); fill-opacity: 1; white-space: pre;">18</text><g class="layers" style="opacity: 1;"><g class="legendfill"/><g class="legendlines"><path class="js-line" d="M5,0h30" style="fill: none; stroke: rgb(244, 188, 119); stroke-opacity: 1; stroke-width: 2px;"/></g><g class="legendsymbols"><g class="legendpoints"/></g></g><rect class="legendtoggle" x="0" y="-9.5" width="53.861328125" height="19" style="fill: rgb(0, 0, 0); fill-opacity: 0;"/></g><g class="traces" transform="translate(0,204.5)" style="opacity: 1;"><text class="legendtext" text-anchor="start" x="40" y="4.680000000000001" style="font-family: 'Open Sans', verdana, arial, sans-serif; font-size: 12px; fill: rgb(42, 63, 95); fill-opacity: 1; white-space: pre;">20</text><g class="layers" style="opacity: 1;"><g class="legendfill"/><g class="legendlines"><path class="js-line" d="M5,0h30" style="fill: none; stroke: rgb(248, 246, 139); stroke-opacity: 1; stroke-width: 2px;"/></g><g class="legendsymbols"><g class="legendpoints"/></g></g><rect class="legendtoggle" x="0" y="-9.5" width="53.861328125" height="19" style="fill: rgb(0, 0, 0); fill-opacity: 0;"/></g></g></g><rect class="scrollbar" rx="20" ry="3" width="0" height="0" style="fill: rgb(128, 139, 164); fill-opacity: 1;" x="0" y="0"/></g><g class="g-gtitle"/><g class="g-xtitle"><text class="xtitle" x="300" y="361.3" text-anchor="middle" style="opacity: 1; font-family: 'Open Sans', verdana, arial, sans-serif; font-size: 14px; fill: rgb(42, 63, 95); fill-opacity: 1; white-space: pre;">time</text></g><g class="g-ytitle"><text class="ytitle" transform="rotate(-90,39.00625,210)" x="39.00625" y="210" text-anchor="middle" style="opacity: 1; font-family: 'Open Sans', verdana, arial, sans-serif; font-size: 14px; fill: rgb(42, 63, 95); fill-opacity: 1; white-space: pre;">distance to peak</text></g></g></svg>