<svg class="main-svg" xmlns="http://www.w3.org/2000/svg" xmlns:xlink="http://www.w3.org/1999/xlink" width="600" height="400" style="" viewBox="0 0 600 400"><rect x="0" y="0" width="600" height="400" style="fill: rgb(255, 255, 255); fill-opacity: 1;"/><defs id="defs-d5601d"><g class="clips"><clipPath id="clipd5601dxyplot" class="plotclip"><rect width="433" height="220"/></clipPath><clipPath class="axesclip" id="clipd5601dx"><rect x="80" y="0" width="433" height="400"/></clipPath><clipPath class="axesclip" id="clipd5601dy"><rect x="0" y="100" width="600" height="220"/></clipPath><clipPath class="axesclip" id="clipd5601dxy"><rect x="80" y="100" width="433" height="220"/></clipPath></g><g class="gradients"/><g class="patterns"/></defs><g class="bglayer"/><g class="layer-below"><g class="imagelayer"/><g class="shapelayer"/></g><g class="cartesianlayer"><g class="subplot xy"><g class="layer-subplot"><g class="shapelayer"/><g class="imagelayer"/></g><g class="minor-gridlayer"><g class="x"/><g class="y"/></g><g class="gridlayer"><g class="x"><path class="xgrid crisp" transform="translate(166.6,0)" d="M0,100v220" style="stroke: rgb(235, 240, 248); stroke-opacity: 1; stroke-width: 1px;"/><path class="xgrid crisp" transform="translate(253.2,0)" d="M0,100v220" style="stroke: rgb(235, 240, 248); stroke-opacity: 1; stroke-width: 1px;"/><path class="xgrid crisp" transform="translate(339.8,0)" d="M0,100v220" style="stroke: rgb(235, 240, 248); stroke-opacity: 1; stroke-width: 1px;"/><path class="xgrid crisp" transform="translate(426.4,0)" d="M0,100v220" style="stroke: rgb(235, 240, 248); stroke-opacity: 1; stroke-width: 1px;"/></g><g class="y"><path class="ygrid crisp" transform="translate(0,306.25)" d="M80,0h433" style="stroke: rgb(235, 240, 248); stroke-opacity: 1; stroke-width: 1px;"/><path class="ygrid crisp" transform="translate(0,266.03999999999996)" d="M80,0h433" style="stroke: rgb(235, 240, 248); stroke-opacity: 1; stroke-width: 1px;"/><path class="ygrid crisp" transform="translate(0,225.82999999999998)" d="M80,0h433" style="stroke: rgb(235, 240, 248); stroke-opacity: 1; stroke-width: 1px;"/><path class="ygrid crisp" transform="translate(0,185.61)" d="M80,0h433" style="stroke: rgb(235, 240, 248); stroke-opacity: 1; stroke-width: 1px;"/><path class="ygrid crisp" transform="translate(0,145.4)" d="M80,0h433" style="stroke: rgb(235, 240, 248); stroke-opacity: 1; stroke-width: 1px;"/><path class="ygrid crisp" transform="translate(0,105.18)" d="M80,0h433" style="stroke: rgb(235, 240, 248); stroke-opacity: 1; stroke-width: 1px;"/></g></g><g class="zerolinelayer"><path class="xzl zl crisp" transform="translate(80,0)" d="M0,100v220" style="stroke: rgb(235, 240, 248); stroke-opacity: 1; stroke-width: 2px;"/></g><g class="layer-between"><g class="shapelayer"/><g class="imagelayer"/></g><path class="xlines-below"/><path class="ylines-below"/><g class="overlines-below"/><g class="xaxislayer-below"/><g class="yaxislayer-below"/><g class="overaxes-below"/><g class="overplot"><g class="xy" transform="translate(80,100)" clip-path="url(#clipd5601dxyplot)"><g class="scatterlayer mlayer"><g class="trace scatter trace903e09" style="stroke-miterlimit: 2; opacity: 1;"><g class="fills"/><g class="errorbars"/><g class="lines"><path class="js-line" d="M0,12.13L4.33,23.48L8.66,28.35L30.31,55.78L34.64,66.05L38.97,65.52L43.3,73.14L47.63,82.65L51.96,77.35L56.29,84.04L60.62,86.42L64.95,88.87L69.28,96.52L73.61,107.38L77.94,111.58L86.6,107.73L90.93,113.29L95.26,121.99L99.59,120.47L108.25,123.91L112.58,120.97L121.24,122.79L125.57,127.49L129.9,125.43L134.23,121.14L138.56,120.87L142.89,114.68L147.22,118.74L151.55,115.81L155.88,117.15L160.21,116L164.54,126.86L168.87,125.92L177.53,121.9L181.86,121.36L186.19,118.96L190.52,127.65L199.18,122.93L203.51,129.73L207.84,126.99L212.17,130.28L216.5,133.32L220.83,132.92L225.16,123.02L229.49,136.55L233.82,137.21L238.15,131.02L242.48,129.58L246.81,120.44L251.14,124.5L255.47,124.98L259.8,128.38L264.13,139.66L268.46,139.98L272.79,147.33L277.12,138.73L281.45,134.54L285.78,130.96L290.11,122.63L294.44,131.27L298.77,132.82L303.1,135.16L307.43,136.16L311.76,127.83L316.09,131.19L320.42,126.02L324.75,130.3L329.08,132.08L333.41,135.69L337.74,134.9L342.07,120.62L346.4,129.76L350.73,124.73L355.06,132.44L359.39,136.07L363.72,124.88L368.05,122.9L376.71,122.32L381.04,113.1L385.37,120.24L389.7,123.37L394.03,112L398.36,121.63L402.69,118.46L407.02,126.39L411.35,126.76L415.68,138.33L420.01,133.92L424.34,132.09L433,126.94" style="vector-effect: none; fill: none; stroke: rgb(85, 99, 170); stroke-opacity: 1; stroke-width: 2px; opacity: 1;"/></g><g class="points"/><g class="text"/></g><g class="trace scatter tracebe1130" style="stroke-miterlimit: 2; opacity: 0.3;"><g class="fills"><g><path class="js-fill" d="M0,11L4.33,18.09L8.66,21.94L25.98,39.2L30.31,41.64L34.64,47.59L38.97,52L43.3,49.82L47.63,52.58L51.96,53.1L56.29,56.16L60.62,60.61L64.95,63.41L69.28,70.43L73.61,86.33L77.94,88.43L82.27,82.81L86.6,82.81L90.93,90.13L95.26,98.08L99.59,108.85L103.92,109.76L108.25,102.01L112.58,104.71L116.91,98.26L125.57,98.25L129.9,89.1L134.23,86.39L138.56,93.46L142.89,87.43L147.22,95L151.55,96.32L155.88,94.99L160.21,87.29L164.54,102.43L168.87,99.57L173.2,98.66L177.53,102.06L181.86,92.27L186.19,95.38L190.52,109.17L194.85,106.88L199.18,103.15L203.51,101.6L207.84,98.35L212.17,95.89L216.5,98.63L220.83,92.07L225.16,95.43L229.49,102.38L233.82,98.16L238.15,98.53L242.48,108.16L246.81,96.8L251.14,111.13L255.47,102.25L259.8,96.34L264.13,120.08L268.46,116.34L272.79,121.71L277.12,113.32L281.45,111.71L285.78,107.93L290.11,100.59L294.44,111.68L298.77,114.36L303.1,102.55L307.43,113.59L311.76,107.3L316.09,117.46L320.42,109.84L324.75,112.64L329.08,111.35L333.41,113.29L337.74,110.05L342.07,96.83L346.4,113.45L350.73,109.41L355.06,109.44L359.39,113.54L363.72,99.97L368.05,105.6L372.38,106.5L376.71,97.98L381.04,92.76L385.37,92.51L389.7,100.17L394.03,90.91L398.36,93.22L402.69,90.06L407.02,103.99L411.35,107.05L415.68,118.88L420.01,107.81L424.34,106.1L428.67,106.59L433,103.99L433,149.89L428.67,152.62L424.34,158.08L420.01,160.03L415.68,157.77L411.35,146.47L407.02,148.8L402.69,146.86L398.36,150.05L394.03,133.09L389.7,146.57L385.37,147.97L381.04,133.43L376.71,146.67L372.38,138.18L368.05,140.2L359.39,158.6L355.06,155.44L350.73,140.05L346.4,146.08L342.07,144.41L337.74,159.75L333.41,158.09L329.08,152.81L320.42,142.2L316.09,144.91L311.76,148.36L307.43,158.73L303.1,167.77L298.77,151.28L294.44,150.85L290.11,144.67L285.78,153.99L281.45,157.38L277.12,164.15L272.79,172.96L268.46,163.63L264.13,159.24L259.8,160.42L255.47,147.71L251.14,137.87L246.81,144.09L242.48,151L238.15,163.52L233.82,176.26L229.49,170.72L225.16,150.6L220.83,173.78L216.5,168.01L212.17,164.68L207.84,155.62L203.51,157.86L199.18,142.72L194.85,143.72L190.52,146.14L186.19,142.53L181.86,150.44L177.53,141.74L173.2,149.83L168.87,152.28L164.54,151.3L160.21,144.72L155.88,139.3L151.55,135.3L147.22,142.49L142.89,141.92L129.9,161.76L125.57,156.73L121.24,147.33L116.91,145.17L112.58,137.23L108.25,145.81L103.92,133.88L99.59,132.08L95.26,145.9L90.93,136.44L86.6,132.65L82.27,137.08L77.94,134.73L73.61,128.42L69.28,122.61L64.95,114.34L60.62,112.23L56.29,111.92L51.96,101.6L47.63,112.72L38.97,79.05L34.64,84.52L30.31,69.91L25.98,59.99L21.65,54.04L17.32,46.33L12.99,41.52L8.66,34.75L4.33,28.87L0,13.25Z" style="fill: rgb(85, 99, 170); fill-opacity: 1; stroke-width: 0;"/></g></g><g class="errorbars"/><g class="lines"><path class="js-line" d="M0,11L4.33,18.09L8.66,21.94L25.98,39.2L30.31,41.64L34.64,47.59L38.97,52L43.3,49.82L47.63,52.58L51.96,53.1L56.29,56.16L60.62,60.61L64.95,63.41L69.28,70.43L73.61,86.33L77.94,88.43L82.27,82.81L86.6,82.81L90.93,90.13L95.26,98.08L99.59,108.85L103.92,109.76L108.25,102.01L112.58,104.71L116.91,98.26L125.57,98.25L129.9,89.1L134.23,86.39L138.56,93.46L142.89,87.43L147.22,95L151.55,96.32L155.88,94.99L160.21,87.29L164.54,102.43L168.87,99.57L173.2,98.66L177.53,102.06L181.86,92.27L186.19,95.38L190.52,109.17L194.85,106.88L199.18,103.15L203.51,101.6L207.84,98.35L212.17,95.89L216.5,98.63L220.83,92.07L225.16,95.43L229.49,102.38L233.82,98.16L238.15,98.53L242.48,108.16L246.81,96.8L251.14,111.13L255.47,102.25L259.8,96.34L264.13,120.08L268.46,116.34L272.79,121.71L277.12,113.32L281.45,111.71L285.78,107.93L290.11,100.59L294.44,111.68L298.77,114.36L303.1,102.55L307.43,113.59L311.76,107.3L316.09,117.46L320.42,109.84L324.75,112.64L329.08,111.35L333.41,113.29L337.74,110.05L342.07,96.83L346.4,113.45L350.73,109.41L355.06,109.44L359.39,113.54L363.72,99.97L368.05,105.6L372.38,106.5L376.71,97.98L381.04,92.76L385.37,92.51L389.7,100.17L394.03,90.91L398.36,93.22L402.69,90.06L407.02,103.99L411.35,107.05L415.68,118.88L420.01,107.81L424.34,106.1L428.67,106.59L433,103.99L433,149.89L428.67,152.62L424.34,158.08L420.01,160.03L415.68,157.77L411.35,146.47L407.02,148.8L402.69,146.86L398.36,150.05L394.03,133.09L389.7,146.57L385.37,147.97L381.04,133.43L376.71,146.67L372.38,138.18L368.05,140.2L359.39,158.6L355.06,155.44L350.73,140.05L346.4,146.08L342.07,144.41L337.74,159.75L333.41,158.09L329.08,152.81L320.42,142.2L316.09,144.91L311.76,148.36L307.43,158.73L303.1,167.77L298.77,151.28L294.44,150.85L290.11,144.67L285.78,153.99L281.45,157.38L277.12,164.15L272.79,172.96L268.46,163.63L264.13,159.24L259.8,160.42L255.47,147.71L251.14,137.87L246.81,144.09L242.48,151L238.15,163.52L233.82,176.26L229.49,170.72L225.16,150.6L220.83,173.78L216.5,168.01L212.17,164.68L207.84,155.62L203.51,157.86L199.18,142.72L194.85,143.72L190.52,146.14L186.19,142.53L181.86,150.44L177.53,141.74L173.2,149.83L168.87,152.28L164.54,151.3L160.21,144.72L155.88,139.3L151.55,135.3L147.22,142.49L142.89,141.92L129.9,161.76L125.57,156.73L121.24,147.33L116.91,145.17L112.58,137.23L108.25,145.81L103.92,133.88L99.59,132.08L95.26,145.9L90.93,136.44L86.6,132.65L82.27,137.08L77.94,134.73L73.61,128.42L69.28,122.61L64.95,114.34L60.62,112.23L56.29,111.92L51.96,101.6L47.63,112.72L38.97,79.05L34.64,84.52L30.31,69.91L25.98,59.99L21.65,54.04L17.32,46.33L12.99,41.52L8.66,34.75L4.33,28.87L0,13.25" style="vector-effect: none; fill: none; stroke: rgb(0, 0, 0); stroke-opacity: 0; stroke-width: 2px; opacity: 1;"/></g><g class="points"/><g class="text"/></g><g class="trace scatter trace93e939" style="stroke-miterlimit: 2; opacity: 1;"><g class="fills"/><g class="errorbars"/><g class="lines"><path class="js-line" d="M0,16.69L4.33,26.13L8.66,31.97L12.99,38.91L17.32,43.89L21.65,50.74L25.98,54.76L34.64,67.34L38.97,73.09L43.3,78.59L47.63,80.78L51.96,84.3L56.29,93.42L60.62,102.94L64.95,109.21L69.28,113.49L73.61,116.6L77.94,115.51L82.27,127.39L86.6,126.24L90.93,127.98L95.26,125.8L99.59,117.98L103.92,122.31L108.25,128.09L116.91,122.96L121.24,125.15L125.57,123.21L129.9,120.41L138.56,123.34L142.89,122.9L147.22,124.27L151.55,129.14L155.88,131.06L160.21,129.09L168.87,128.59L173.2,132.83L177.53,136.75L181.86,129.36L186.19,135.99L190.52,135.35L194.85,130.8L199.18,129.2L203.51,130.14L207.84,129.45L212.17,124.38L216.5,120.82L220.83,118.66L225.16,123.22L229.49,125.64L233.82,124.79L238.15,120.59L242.48,124.08L246.81,120.04L251.14,117.94L255.47,121.08L259.8,120.38L268.46,116.47L272.79,116.12L277.12,118.44L281.45,118.73L290.11,129.33L294.44,123.24L298.77,127.46L303.1,128.46L311.76,124.37L316.09,129.11L320.42,132.47L324.75,134.25L329.08,131.97L333.41,135.61L342.07,139.91L346.4,140.04L350.73,135.03L355.06,133.47L359.39,127L363.72,123.59L368.05,121.49L372.38,117.26L376.71,120.29L381.04,118.37L389.7,109.69L394.03,113.14L398.36,110.47L402.69,112.08L407.02,113.2L411.35,112L415.68,114.1L420.01,115.22L424.34,119L428.67,119.17L433,120.11" style="vector-effect: none; fill: none; stroke: rgb(64, 125, 183); stroke-opacity: 1; stroke-width: 2px; opacity: 1;"/></g><g class="points"/><g class="text"/></g><g class="trace scatter trace51a70d" style="stroke-miterlimit: 2; opacity: 0.3;"><g class="fills"><g><path class="js-fill" d="M0,15.95L4.33,23.47L8.66,26.89L12.99,33.37L17.32,38.12L21.65,45.26L25.98,46.77L30.31,52.79L34.64,56.13L43.3,65.99L47.63,65.73L69.28,92.81L73.61,92.05L77.94,96.07L82.27,102.54L86.6,99.79L90.93,105.68L95.26,107.29L99.59,106.51L103.92,113.96L108.25,116.45L112.58,113.39L116.91,107.01L121.24,108.32L125.57,106.52L129.9,105.23L134.23,110.84L138.56,111.28L142.89,113.22L147.22,110.74L151.55,115.44L160.21,117.18L164.54,115.43L168.87,111.54L173.2,114.21L177.53,115.38L181.86,109.94L186.19,115.11L190.52,112.45L194.85,106.86L199.18,108.98L203.51,102.19L207.84,103.93L212.17,102.58L216.5,98.12L220.83,94.5L225.16,100.49L229.49,100.72L233.82,105.17L238.15,98.88L242.48,103.18L246.81,108.13L251.14,103.33L255.47,108.53L259.8,107.77L264.13,104.94L268.46,99.65L277.12,101.91L281.45,103.27L285.78,113.58L290.11,120.23L294.44,110.55L298.77,110.79L303.1,110.88L307.43,109.11L311.76,109.63L316.09,118.5L324.75,115.05L329.08,112.74L333.41,118.27L337.74,111.02L342.07,116.56L346.4,117.82L350.73,115.1L355.06,115.6L359.39,110.44L363.72,111.54L368.05,103.26L372.38,96.73L376.71,99.45L381.04,97.71L385.37,96.12L389.7,92.84L394.03,96.6L398.36,95.53L402.69,99.4L407.02,99.96L411.35,94.12L415.68,92.38L420.01,97.65L424.34,98.29L433,102.35L433,137.87L428.67,137.7L424.34,139.71L420.01,132.79L415.68,135.83L411.35,129.89L407.02,126.44L402.69,124.76L398.36,125.42L394.03,129.68L389.7,126.53L385.37,131.03L381.04,139.02L376.71,141.12L372.38,137.8L368.05,139.72L363.72,135.64L355.06,151.34L350.73,154.96L346.4,162.26L342.07,163.25L337.74,164.83L333.41,152.94L329.08,151.19L324.75,153.45L320.42,147.91L316.09,139.72L311.76,139.11L307.43,143.51L303.1,146.04L298.77,144.13L294.44,135.93L290.11,138.42L285.78,133.9L281.45,134.19L277.12,134.98L272.79,131.78L268.46,133.29L264.13,131.97L255.47,133.62L251.14,132.55L246.81,131.95L242.48,144.98L238.15,142.31L233.82,144.41L229.49,150.55L225.16,145.95L220.83,142.82L216.5,143.52L212.17,146.18L207.84,154.97L203.51,158.08L199.18,149.41L194.85,154.73L190.52,158.25L186.19,156.86L181.86,148.78L177.53,158.13L173.2,151.44L168.87,145.64L164.54,141.95L160.21,141L155.88,145.81L151.55,142.83L147.22,137.8L142.89,132.59L138.56,135.4L134.23,132.38L129.9,135.59L125.57,139.89L121.24,141.97L116.91,138.91L112.58,138.25L108.25,139.72L103.92,130.66L99.59,129.45L95.26,144.31L90.93,150.28L86.6,152.69L82.27,152.23L77.94,134.94L73.61,141.14L69.28,134.16L64.95,131.16L60.62,123.47L51.96,97.44L47.63,95.83L38.97,85.46L34.64,78.55L25.98,62.75L21.65,56.21L8.66,37.06L4.33,28.79L0,17.43Z" style="fill: rgb(64, 125, 183); fill-opacity: 1; stroke-width: 0;"/></g></g><g class="errorbars"/><g class="lines"><path class="js-line" d="M0,15.95L4.33,23.47L8.66,26.89L12.99,33.37L17.32,38.12L21.65,45.26L25.98,46.77L30.31,52.79L34.64,56.13L43.3,65.99L47.63,65.73L69.28,92.81L73.61,92.05L77.94,96.07L82.27,102.54L86.6,99.79L90.93,105.68L95.26,107.29L99.59,106.51L103.92,113.96L108.25,116.45L112.58,113.39L116.91,107.01L121.24,108.32L125.57,106.52L129.9,105.23L134.23,110.84L138.56,111.28L142.89,113.22L147.22,110.74L151.55,115.44L160.21,117.18L164.54,115.43L168.87,111.54L173.2,114.21L177.53,115.38L181.86,109.94L186.19,115.11L190.52,112.45L194.85,106.86L199.18,108.98L203.51,102.19L207.84,103.93L212.17,102.58L216.5,98.12L220.83,94.5L225.16,100.49L229.49,100.72L233.82,105.17L238.15,98.88L242.48,103.18L246.81,108.13L251.14,103.33L255.47,108.53L259.8,107.77L264.13,104.94L268.46,99.65L277.12,101.91L281.45,103.27L285.78,113.58L290.11,120.23L294.44,110.55L298.77,110.79L303.1,110.88L307.43,109.11L311.76,109.63L316.09,118.5L324.75,115.05L329.08,112.74L333.41,118.27L337.74,111.02L342.07,116.56L346.4,117.82L350.73,115.1L355.06,115.6L359.39,110.44L363.72,111.54L368.05,103.26L372.38,96.73L376.71,99.45L381.04,97.71L385.37,96.12L389.7,92.84L394.03,96.6L398.36,95.53L402.69,99.4L407.02,99.96L411.35,94.12L415.68,92.38L420.01,97.65L424.34,98.29L433,102.35L433,137.87L428.67,137.7L424.34,139.71L420.01,132.79L415.68,135.83L411.35,129.89L407.02,126.44L402.69,124.76L398.36,125.42L394.03,129.68L389.7,126.53L385.37,131.03L381.04,139.02L376.71,141.12L372.38,137.8L368.05,139.72L363.72,135.64L355.06,151.34L350.73,154.96L346.4,162.26L342.07,163.25L337.74,164.83L333.41,152.94L329.08,151.19L324.75,153.45L320.42,147.91L316.09,139.72L311.76,139.11L307.43,143.51L303.1,146.04L298.77,144.13L294.44,135.93L290.11,138.42L285.78,133.9L281.45,134.19L277.12,134.98L272.79,131.78L268.46,133.29L264.13,131.97L255.47,133.62L251.14,132.55L246.81,131.95L242.48,144.98L238.15,142.31L233.82,144.41L229.49,150.55L225.16,145.95L220.83,142.82L216.5,143.52L212.17,146.18L207.84,154.97L203.51,158.08L199.18,149.41L194.85,154.73L190.52,158.25L186.19,156.86L181.86,148.78L177.53,158.13L173.2,151.44L168.87,145.64L164.54,141.95L160.21,141L155.88,145.81L151.55,142.83L147.22,137.8L142.89,132.59L138.56,135.4L134.23,132.38L129.9,135.59L125.57,139.89L121.24,141.97L116.91,138.91L112.58,138.25L108.25,139.72L103.92,130.66L99.59,129.45L95.26,144.31L90.93,150.28L86.6,152.69L82.27,152.23L77.94,134.94L73.61,141.14L69.28,134.16L64.95,131.16L60.62,123.47L51.96,97.44L47.63,95.83L38.97,85.46L34.64,78.55L25.98,62.75L21.65,56.21L8.66,37.06L4.33,28.79L0,17.43" style="vector-effect: none; fill: none; stroke: rgb(0, 0, 0); stroke-opacity: 0; stroke-width: 2px; opacity: 1;"/></g><g class="points"/><g class="text"/></g><g class="trace scatter trace43dc33" style="stroke-miterlimit: 2; opacity: 1;"><g class="fills"/><g class="errorbars"/><g class="lines"><path class="js-line" d="M0,23.42L4.33,32.79L8.66,37.99L17.32,50.44L21.65,56.82L30.31,68.98L34.64,75.73L43.3,90L47.63,96.26L56.29,110.01L60.62,119.08L73.61,132.56L77.94,138.15L82.27,140.74L86.6,142.37L95.26,144.12L99.59,143.55L103.92,140.65L108.25,139.76L112.58,137.38L116.91,140.31L121.24,139.83L125.57,130.1L129.9,131.24L134.23,130.87L138.56,129.83L142.89,131.75L147.22,128.98L151.55,127.88L155.88,127.97L160.21,126.77L164.54,127.29L168.87,130.1L173.2,127.85L177.53,127.53L186.19,130.96L190.52,127.01L194.85,125.36L199.18,122.78L203.51,122.4L207.84,123.55L212.17,127.33L216.5,126.93L220.83,128.67L225.16,133.61L229.49,131.44L233.82,131.88L246.81,131.97L251.14,129.08L255.47,128.02L259.8,124.62L264.13,128.45L268.46,130.23L272.79,131.61L277.12,129.7L281.45,133.98L285.78,132.82L290.11,128.91L294.44,126.63L320.42,127.11L324.75,127.43L329.08,129.11L333.41,128.53L337.74,130.67L342.07,127.95L346.4,129.29L350.73,131.58L355.06,130.21L359.39,131.6L363.72,130.54L368.05,134.45L376.71,135.56L381.04,133.05L385.37,134.21L389.7,133.52L394.03,134.92L398.36,132.72L402.69,133.19L407.02,134.77L411.35,131.82L415.68,131.9L420.01,129.89L424.34,130.07L428.67,133.8L433,135.82" style="vector-effect: none; fill: none; stroke: rgb(87, 175, 174); stroke-opacity: 1; stroke-width: 2px; opacity: 1;"/></g><g class="points"/><g class="text"/></g><g class="trace scatter trace33adc0" style="stroke-miterlimit: 2; opacity: 0.3;"><g class="fills"><g><path class="js-fill" d="M0,22.57L4.33,31.06L8.66,35.98L21.65,53.38L25.98,57.5L34.64,67.68L38.97,74.67L43.3,82.3L47.63,87.35L51.96,93.81L56.29,96.51L69.28,119.28L73.61,120.29L77.94,126.65L82.27,130.31L86.6,132.72L90.93,132.49L95.26,129.7L99.59,125.3L103.92,120.55L108.25,120.47L112.58,118.49L116.91,121.01L121.24,118.79L125.57,113.33L129.9,116.92L134.23,117.61L138.56,115.62L142.89,116.15L147.22,117.98L151.55,118.08L155.88,116.77L160.21,118.5L164.54,119.08L168.87,116.78L173.2,111.48L177.53,115.32L186.19,110.25L190.52,112.47L194.85,114.71L199.18,114.58L203.51,115.01L207.84,114.18L212.17,117.95L216.5,118.14L220.83,117.52L225.16,122.76L229.49,123.59L233.82,119.42L238.15,122.2L242.48,122.17L246.81,120.71L251.14,116.32L255.47,113.98L259.8,108.85L268.46,111.36L272.79,116.1L277.12,117.23L281.45,120.65L290.11,117.99L294.44,114.15L298.77,114.14L303.1,116.87L311.76,119.4L316.09,117.55L320.42,116.3L324.75,117.85L329.08,117.55L333.41,118.57L337.74,124.06L342.07,118.51L346.4,116.48L350.73,120.41L355.06,117.13L359.39,119.92L363.72,118.24L368.05,123.34L372.38,126.15L376.71,125.24L381.04,120.52L385.37,120.67L389.7,121.95L394.03,124.55L398.36,121.98L402.69,122.7L411.35,122.62L415.68,121.02L420.01,118.56L424.34,122.75L428.67,126.22L433,128.71L433,142.93L428.67,141.38L424.34,137.4L420.01,141.23L415.68,142.79L411.35,141.02L407.02,146.65L402.69,143.68L398.36,143.47L394.03,145.28L389.7,145.1L385.37,147.75L381.04,145.57L376.71,145.87L372.38,143.84L368.05,145.55L363.72,142.84L359.39,143.27L350.73,142.75L346.4,142.1L342.07,137.38L337.74,137.29L333.41,138.48L329.08,140.66L324.75,137.01L320.42,137.91L311.76,134.61L307.43,136.88L303.1,136.5L298.77,139.09L290.11,139.83L285.78,146.55L281.45,147.32L277.12,142.17L272.79,147.12L268.46,149.1L264.13,147.14L259.8,140.39L255.47,142.05L251.14,141.84L246.81,143.23L242.48,141.76L238.15,141.38L233.82,144.34L229.49,139.3L225.16,144.46L216.5,135.72L212.17,136.71L203.51,129.8L199.18,130.97L190.52,141.56L186.19,151.66L181.86,144.85L177.53,139.74L173.2,144.23L168.87,143.42L164.54,135.5L160.21,135.04L155.88,139.17L151.55,137.68L147.22,139.97L142.89,147.35L138.56,144.03L134.23,144.14L125.57,146.86L121.24,160.87L116.91,159.6L112.58,156.28L108.25,159.05L103.92,160.74L99.59,161.8L95.26,158.54L90.93,153.87L86.6,152.02L77.94,149.65L73.61,144.83L69.28,138.8L64.95,134.9L60.62,134.44L56.29,123.52L51.96,112.1L47.63,105.17L17.32,53.48L12.99,45.29L4.33,34.52L0,24.26Z" style="fill: rgb(87, 175, 174); fill-opacity: 1; stroke-width: 0;"/></g></g><g class="errorbars"/><g class="lines"><path class="js-line" d="M0,22.57L4.33,31.06L8.66,35.98L21.65,53.38L25.98,57.5L34.64,67.68L38.97,74.67L43.3,82.3L47.63,87.35L51.96,93.81L56.29,96.51L69.28,119.28L73.61,120.29L77.94,126.65L82.27,130.31L86.6,132.72L90.93,132.49L95.26,129.7L99.59,125.3L103.92,120.55L108.25,120.47L112.58,118.49L116.91,121.01L121.24,118.79L125.57,113.33L129.9,116.92L134.23,117.61L138.56,115.62L142.89,116.15L147.22,117.98L151.55,118.08L155.88,116.77L160.21,118.5L164.54,119.08L168.87,116.78L173.2,111.48L177.53,115.32L186.19,110.25L190.52,112.47L194.85,114.71L199.18,114.58L203.51,115.01L207.84,114.18L212.17,117.95L216.5,118.14L220.83,117.52L225.16,122.76L229.49,123.59L233.82,119.42L238.15,122.2L242.48,122.17L246.81,120.71L251.14,116.32L255.47,113.98L259.8,108.85L268.46,111.36L272.79,116.1L277.12,117.23L281.45,120.65L290.11,117.99L294.44,114.15L298.77,114.14L303.1,116.87L311.76,119.4L316.09,117.55L320.42,116.3L324.75,117.85L329.08,117.55L333.41,118.57L337.74,124.06L342.07,118.51L346.4,116.48L350.73,120.41L355.06,117.13L359.39,119.92L363.72,118.24L368.05,123.34L372.38,126.15L376.71,125.24L381.04,120.52L385.37,120.67L389.7,121.95L394.03,124.55L398.36,121.98L402.69,122.7L411.35,122.62L415.68,121.02L420.01,118.56L424.34,122.75L428.67,126.22L433,128.71L433,142.93L428.67,141.38L424.34,137.4L420.01,141.23L415.68,142.79L411.35,141.02L407.02,146.65L402.69,143.68L398.36,143.47L394.03,145.28L389.7,145.1L385.37,147.75L381.04,145.57L376.71,145.87L372.38,143.84L368.05,145.55L363.72,142.84L359.39,143.27L350.73,142.75L346.4,142.1L342.07,137.38L337.74,137.29L333.41,138.48L329.08,140.66L324.75,137.01L320.42,137.91L311.76,134.61L307.43,136.88L303.1,136.5L298.77,139.09L290.11,139.83L285.78,146.55L281.45,147.32L277.12,142.17L272.79,147.12L268.46,149.1L264.13,147.14L259.8,140.39L255.47,142.05L251.14,141.84L246.81,143.23L242.48,141.76L238.15,141.38L233.82,144.34L229.49,139.3L225.16,144.46L216.5,135.72L212.17,136.71L203.51,129.8L199.18,130.97L190.52,141.56L186.19,151.66L181.86,144.85L177.53,139.74L173.2,144.23L168.87,143.42L164.54,135.5L160.21,135.04L155.88,139.17L151.55,137.68L147.22,139.97L142.89,147.35L138.56,144.03L134.23,144.14L125.57,146.86L121.24,160.87L116.91,159.6L112.58,156.28L108.25,159.05L103.92,160.74L99.59,161.8L95.26,158.54L90.93,153.87L86.6,152.02L77.94,149.65L73.61,144.83L69.28,138.8L64.95,134.9L60.62,134.44L56.29,123.52L51.96,112.1L47.63,105.17L17.32,53.48L12.99,45.29L4.33,34.52L0,24.26" style="vector-effect: none; fill: none; stroke: rgb(0, 0, 0); stroke-opacity: 0; stroke-width: 2px; opacity: 1;"/></g><g class="points"/><g class="text"/></g><g class="trace scatter traced69825" style="stroke-miterlimit: 2; opacity: 1;"><g class="fills"/><g class="errorbars"/><g class="lines"><path class="js-line" d="M0,28.06L4.33,37.85L8.66,43.03L12.99,48.7L17.32,55.89L25.98,69.92L30.31,77.29L43.3,99.11L47.63,107.97L56.29,120.19L60.62,125.9L73.61,139.84L77.94,142.11L82.27,147.17L86.6,149.45L90.93,151.44L95.26,151.72L99.59,147.79L103.92,150.7L108.25,150.33L112.58,145.57L116.91,143.29L121.24,142.11L125.57,140.02L129.9,141.79L134.23,139.41L138.56,140.12L142.89,137.96L147.22,137.05L155.88,136.22L160.21,133.53L168.87,130.51L173.2,131.32L177.53,134.01L181.86,134.17L194.85,134.28L199.18,136.32L203.51,137.65L207.84,137.11L212.17,136.58L216.5,137.09L220.83,137.68L225.16,135.82L229.49,135.7L233.82,134.04L242.48,134.66L246.81,132.54L251.14,136.4L255.47,135.04L259.8,132.92L264.13,133.92L272.79,132.83L277.12,134.74L281.45,137.81L285.78,138.76L298.77,142.69L303.1,142.38L311.76,143.89L316.09,143.19L320.42,140.2L324.75,140.56L329.08,142.89L333.41,144.25L337.74,144.19L342.07,142.66L346.4,143.39L350.73,140.7L355.06,142.87L359.39,138.31L368.05,134.77L372.38,133.32L376.71,131.28L381.04,131.36L385.37,132.01L389.7,129.56L394.03,129.55L398.36,131.13L402.69,134.39L407.02,134.65L411.35,136.41L415.68,137.07L420.01,136.05L424.34,133.84L428.67,135.05L433,133.45" style="vector-effect: none; fill: none; stroke: rgb(142, 208, 165); stroke-opacity: 1; stroke-width: 2px; opacity: 1;"/></g><g class="points"/><g class="text"/></g><g class="trace scatter trace0d3c90" style="stroke-miterlimit: 2; opacity: 0.3;"><g class="fills"><g><path class="js-fill" d="M0,26.9L4.33,36.63L8.66,40.36L21.65,56.98L25.98,63.94L30.31,72.07L34.64,77.54L51.96,109.48L56.29,114.31L60.62,118.76L64.95,124.72L73.61,135.19L77.94,135.45L82.27,139.86L86.6,141.85L90.93,145.36L95.26,142.31L99.59,137.94L103.92,136.39L108.25,136.21L112.58,129.85L116.91,127.6L121.24,127.02L125.57,128.74L129.9,129.63L134.23,126.95L138.56,128.32L142.89,125.27L147.22,123.91L155.88,124.94L160.21,122.2L164.54,122.59L168.87,121.63L173.2,122.35L177.53,125.5L181.86,125.46L186.19,123.18L190.52,123.96L194.85,123.17L199.18,126.56L203.51,128.48L212.17,125.13L216.5,125.74L220.83,129.41L225.16,127.37L229.49,127.34L233.82,126.39L238.15,125.47L242.48,127.29L246.81,125.18L251.14,126.23L255.47,126.31L259.8,124.37L264.13,127.93L268.46,128.69L272.79,127.86L277.12,128.64L281.45,128.52L285.78,131.78L290.11,130.98L294.44,132.7L298.77,134.61L303.1,134.08L307.43,136.72L311.76,135.29L316.09,136.18L320.42,133.41L324.75,130.88L329.08,135.23L333.41,134.29L337.74,132.48L342.07,132.23L346.4,133.29L350.73,132.95L355.06,135.64L359.39,130.69L363.72,130.15L372.38,126.21L376.71,126.03L381.04,125.79L385.37,124.29L389.7,120.91L394.03,122.96L398.36,123.9L402.69,126.01L407.02,127.13L411.35,129.15L415.68,128.69L420.01,127.03L424.34,126.42L428.67,128.31L433,123.2L433,143.71L428.67,141.79L424.34,141.25L420.01,145.07L415.68,145.46L407.02,142.18L402.69,142.77L398.36,138.35L394.03,136.13L385.37,139.74L381.04,136.93L376.71,136.53L372.38,140.44L363.72,142.16L359.39,145.92L355.06,150.1L350.73,148.45L346.4,153.5L342.07,153.08L337.74,155.89L333.41,154.2L329.08,150.54L324.75,150.25L320.42,147L316.09,150.2L311.76,152.49L307.43,149.01L303.1,150.68L298.77,150.77L290.11,149.08L285.78,145.73L281.45,147.11L277.12,140.84L272.79,137.8L268.46,138.25L255.47,143.77L251.14,146.58L246.81,139.9L242.48,142.03L238.15,143.36L233.82,141.69L229.49,144.05L225.16,144.27L220.83,145.94L216.5,148.44L199.18,146.08L194.85,145.39L186.19,145.07L181.86,142.88L177.53,142.52L173.2,140.28L168.87,139.39L164.54,140.95L160.21,144.86L155.88,147.49L151.55,148.38L147.22,150.2L142.89,150.65L138.56,151.92L134.23,151.87L129.9,153.95L125.57,151.31L121.24,157.2L112.58,161.28L108.25,164.46L103.92,165.02L99.59,157.63L95.26,161.14L90.93,157.52L86.6,157.05L82.27,154.48L77.94,148.78L73.61,144.5L60.62,133.04L56.29,126.07L47.63,113.26L43.3,103.85L34.64,90.7L30.31,82.51L21.65,68.11L17.32,59.42L12.99,51.45L8.66,45.71L4.33,39.06L0,29.21Z" style="fill: rgb(142, 208, 165); fill-opacity: 1; stroke-width: 0;"/></g></g><g class="errorbars"/><g class="lines"><path class="js-line" d="M0,26.9L4.33,36.63L8.66,40.36L21.65,56.98L25.98,63.94L30.31,72.07L34.64,77.54L51.96,109.48L56.29,114.31L60.62,118.76L64.95,124.72L73.61,135.19L77.94,135.45L82.27,139.86L86.6,141.85L90.93,145.36L95.26,142.31L99.59,137.94L103.92,136.39L108.25,136.21L112.58,129.85L116.91,127.6L121.24,127.02L125.57,128.74L129.9,129.63L134.23,126.95L138.56,128.32L142.89,125.27L147.22,123.91L155.88,124.94L160.21,122.2L164.54,122.59L168.87,121.63L173.2,122.35L177.53,125.5L181.86,125.46L186.19,123.18L190.52,123.96L194.85,123.17L199.18,126.56L203.51,128.48L212.17,125.13L216.5,125.74L220.83,129.41L225.16,127.37L229.49,127.34L233.82,126.39L238.15,125.47L242.48,127.29L246.81,125.18L251.14,126.23L255.47,126.31L259.8,124.37L264.13,127.93L268.46,128.69L272.79,127.86L277.12,128.64L281.45,128.52L285.78,131.78L290.11,130.98L294.44,132.7L298.77,134.61L303.1,134.08L307.43,136.72L311.76,135.29L316.09,136.18L320.42,133.41L324.75,130.88L329.08,135.23L333.41,134.29L337.74,132.48L342.07,132.23L346.4,133.29L350.73,132.95L355.06,135.64L359.39,130.69L363.72,130.15L372.38,126.21L376.71,126.03L381.04,125.79L385.37,124.29L389.7,120.91L394.03,122.96L398.36,123.9L402.69,126.01L407.02,127.13L411.35,129.15L415.68,128.69L420.01,127.03L424.34,126.42L428.67,128.31L433,123.2L433,143.71L428.67,141.79L424.34,141.25L420.01,145.07L415.68,145.46L407.02,142.18L402.69,142.77L398.36,138.35L394.03,136.13L385.37,139.74L381.04,136.93L376.71,136.53L372.38,140.44L363.72,142.16L359.39,145.92L355.06,150.1L350.73,148.45L346.4,153.5L342.07,153.08L337.74,155.89L333.41,154.2L329.08,150.54L324.75,150.25L320.42,147L316.09,150.2L311.76,152.49L307.43,149.01L303.1,150.68L298.77,150.77L290.11,149.08L285.78,145.73L281.45,147.11L277.12,140.84L272.79,137.8L268.46,138.25L255.47,143.77L251.14,146.58L246.81,139.9L242.48,142.03L238.15,143.36L233.82,141.69L229.49,144.05L225.16,144.27L220.83,145.94L216.5,148.44L199.18,146.08L194.85,145.39L186.19,145.07L181.86,142.88L177.53,142.52L173.2,140.28L168.87,139.39L164.54,140.95L160.21,144.86L155.88,147.49L151.55,148.38L147.22,150.2L142.89,150.65L138.56,151.92L134.23,151.87L129.9,153.95L125.57,151.31L121.24,157.2L112.58,161.28L108.25,164.46L103.92,165.02L99.59,157.63L95.26,161.14L90.93,157.52L86.6,157.05L82.27,154.48L77.94,148.78L73.61,144.5L60.62,133.04L56.29,126.07L47.63,113.26L43.3,103.85L34.64,90.7L30.31,82.51L21.65,68.11L17.32,59.42L12.99,51.45L8.66,45.71L4.33,39.06L0,29.21" style="vector-effect: none; fill: none; stroke: rgb(0, 0, 0); stroke-opacity: 0; stroke-width: 2px; opacity: 1;"/></g><g class="points"/><g class="text"/></g><g class="trace scatter trace72b7fd" style="stroke-miterlimit: 2; opacity: 1;"><g class="fills"/><g class="errorbars"/><g class="lines"><path class="js-line" d="M0,31.55L4.33,41.3L8.66,47.8L25.98,78.27L30.31,86.79L38.97,99.25L43.3,105.16L56.29,126.33L60.62,132.98L64.95,141.08L69.28,145.69L77.94,153.36L82.27,156.03L86.6,159.41L90.93,160.74L95.26,161.93L99.59,161.02L108.25,164.2L112.58,162.59L121.24,155.82L125.57,153.66L129.9,149.5L134.23,148.28L138.56,149.56L142.89,148.57L147.22,146.52L151.55,148.3L155.88,146.85L160.21,148.26L168.87,144.67L173.2,143.88L177.53,143.91L181.86,146.33L186.19,147.13L190.52,146.71L194.85,145.49L199.18,143.39L207.84,141.48L212.17,141.19L216.5,140.24L220.83,140.64L225.16,140.27L229.49,142.16L238.15,143.49L242.48,141.6L259.8,149.31L264.13,145.94L268.46,144.03L272.79,144.35L277.12,140.73L281.45,140.5L294.44,142.85L298.77,141.3L303.1,140.49L307.43,141.52L311.76,141.98L316.09,144.8L324.75,146.73L329.08,146.14L333.41,148.95L337.74,147.19L342.07,148.87L346.4,146.79L359.39,147.87L363.72,146.28L368.05,145.58L372.38,143.01L376.71,145.89L381.04,146.63L385.37,143.21L389.7,143.26L394.03,142.36L398.36,144.86L402.69,146.11L407.02,146.5L411.35,146.38L415.68,144.29L420.01,145.5L424.34,144.4L428.67,145.28L433,144.59" style="vector-effect: none; fill: none; stroke: rgb(192, 229, 161); stroke-opacity: 1; stroke-width: 2px; opacity: 1;"/></g><g class="points"/><g class="text"/></g><g class="trace scatter trace58748b" style="stroke-miterlimit: 2; opacity: 0.3;"><g class="fills"><g><path class="js-fill" d="M0,30.79L4.33,40.02L8.66,45.44L25.98,72.08L30.31,80.99L34.64,87.82L38.97,92.36L47.63,105.05L51.96,110.18L64.95,132.11L69.28,137.01L77.94,145.6L82.27,148.07L86.6,150.04L90.93,149.91L95.26,150.58L99.59,149.73L108.25,149.64L112.58,147.2L116.91,142.43L121.24,144.44L129.9,136.1L134.23,135.19L138.56,138.11L142.89,137.65L151.55,139.69L155.88,137.02L160.21,139.55L164.54,135.96L168.87,132.36L173.2,134.35L177.53,134.85L181.86,136.6L186.19,137.79L190.52,135.68L194.85,135.56L199.18,131.35L203.51,132.82L207.84,130.26L212.17,130.15L216.5,126.05L225.16,127.86L229.49,131.35L233.82,134.99L238.15,135.3L242.48,134.63L246.81,136.08L251.14,136.27L255.47,138.94L259.8,138.34L264.13,135.01L272.79,133.13L277.12,131.17L290.11,132.7L294.44,136.34L298.77,131.17L303.1,131.23L307.43,131.95L311.76,129.97L316.09,137.43L320.42,136.64L329.08,135.1L333.41,139.21L337.74,139.74L342.07,138.74L346.4,136.71L350.73,138.64L359.39,139.12L363.72,138.19L368.05,134.45L372.38,132.9L376.71,134.46L381.04,137.74L385.37,134.37L389.7,133.94L394.03,134.2L398.36,135.58L407.02,138.15L411.35,135.91L415.68,133.99L420.01,138.07L424.34,135.82L428.67,136.14L433,137.55L433,151.64L428.67,154.43L424.34,152.97L420.01,152.93L415.68,154.6L411.35,156.86L407.02,154.84L402.69,155.66L398.36,154.14L394.03,150.52L389.7,152.57L385.37,152.06L381.04,155.52L376.71,157.31L372.38,153.13L368.05,156.71L363.72,154.36L359.39,156.62L355.06,157.67L350.73,155.89L346.4,156.87L342.07,159L337.74,154.63L333.41,158.7L329.08,157.18L324.75,157.48L320.42,155.57L316.09,152.18L311.76,154L307.43,151.08L303.1,149.76L298.77,151.43L294.44,149.36L290.11,151.12L285.78,150L281.45,149.47L277.12,150.29L272.79,155.58L268.46,153.67L259.8,160.28L255.47,155.73L251.14,154.02L246.81,150.95L242.48,148.57L238.15,151.68L233.82,151L229.49,152.98L225.16,152.68L220.83,154.51L216.5,154.42L212.17,152.22L207.84,152.69L203.51,151.59L199.18,155.42L194.85,155.42L190.52,157.74L186.19,156.48L181.86,156.06L177.53,152.98L173.2,153.41L168.87,156.98L160.21,156.96L155.88,156.68L151.55,156.9L147.22,154.16L142.89,159.5L138.56,161.01L134.23,161.37L129.9,162.9L125.57,166.6L121.24,167.21L116.91,175.58L112.58,177.97L108.25,178.77L103.92,176.37L99.59,172.31L95.26,173.28L90.93,171.57L86.6,168.78L82.27,163.98L77.94,161.13L64.95,150.06L60.62,141.55L47.63,120.29L43.3,111.53L38.97,106.15L34.64,99.27L30.31,92.58L25.98,84.46L4.33,42.58L0,32.3Z" style="fill: rgb(192, 229, 161); fill-opacity: 1; stroke-width: 0;"/></g></g><g class="errorbars"/><g class="lines"><path class="js-line" d="M0,30.79L4.33,40.02L8.66,45.44L25.98,72.08L30.31,80.99L34.64,87.82L38.97,92.36L47.63,105.05L51.96,110.18L64.95,132.11L69.28,137.01L77.94,145.6L82.27,148.07L86.6,150.04L90.93,149.91L95.26,150.58L99.59,149.73L108.25,149.64L112.58,147.2L116.91,142.43L121.24,144.44L129.9,136.1L134.23,135.19L138.56,138.11L142.89,137.65L151.55,139.69L155.88,137.02L160.21,139.55L164.54,135.96L168.87,132.36L173.2,134.35L177.53,134.85L181.86,136.6L186.19,137.79L190.52,135.68L194.85,135.56L199.18,131.35L203.51,132.82L207.84,130.26L212.17,130.15L216.5,126.05L225.16,127.86L229.49,131.35L233.82,134.99L238.15,135.3L242.48,134.63L246.81,136.08L251.14,136.27L255.47,138.94L259.8,138.34L264.13,135.01L272.79,133.13L277.12,131.17L290.11,132.7L294.44,136.34L298.77,131.17L303.1,131.23L307.43,131.95L311.76,129.97L316.09,137.43L320.42,136.64L329.08,135.1L333.41,139.21L337.74,139.74L342.07,138.74L346.4,136.71L350.73,138.64L359.39,139.12L363.72,138.19L368.05,134.45L372.38,132.9L376.71,134.46L381.04,137.74L385.37,134.37L389.7,133.94L394.03,134.2L398.36,135.58L407.02,138.15L411.35,135.91L415.68,133.99L420.01,138.07L424.34,135.82L428.67,136.14L433,137.55L433,151.64L428.67,154.43L424.34,152.97L420.01,152.93L415.68,154.6L411.35,156.86L407.02,154.84L402.69,155.66L398.36,154.14L394.03,150.52L389.7,152.57L385.37,152.06L381.04,155.52L376.71,157.31L372.38,153.13L368.05,156.71L363.72,154.36L359.39,156.62L355.06,157.67L350.73,155.89L346.4,156.87L342.07,159L337.74,154.63L333.41,158.7L329.08,157.18L324.75,157.48L320.42,155.57L316.09,152.18L311.76,154L307.43,151.08L303.1,149.76L298.77,151.43L294.44,149.36L290.11,151.12L285.78,150L281.45,149.47L277.12,150.29L272.79,155.58L268.46,153.67L259.8,160.28L255.47,155.73L251.14,154.02L246.81,150.95L242.48,148.57L238.15,151.68L233.82,151L229.49,152.98L225.16,152.68L220.83,154.51L216.5,154.42L212.17,152.22L207.84,152.69L203.51,151.59L199.18,155.42L194.85,155.42L190.52,157.74L186.19,156.48L181.86,156.06L177.53,152.98L173.2,153.41L168.87,156.98L160.21,156.96L155.88,156.68L151.55,156.9L147.22,154.16L142.89,159.5L138.56,161.01L134.23,161.37L129.9,162.9L125.57,166.6L121.24,167.21L116.91,175.58L112.58,177.97L108.25,178.77L103.92,176.37L99.59,172.31L95.26,173.28L90.93,171.57L86.6,168.78L82.27,163.98L77.94,161.13L64.95,150.06L60.62,141.55L47.63,120.29L43.3,111.53L38.97,106.15L34.64,99.27L30.31,92.58L25.98,84.46L4.33,42.58L0,32.3" style="vector-effect: none; fill: none; stroke: rgb(0, 0, 0); stroke-opacity: 0; stroke-width: 2px; opacity: 1;"/></g><g class="points"/><g class="text"/></g><g class="trace scatter tracec714e5" style="stroke-miterlimit: 2; opacity: 1;"><g class="fills"/><g class="errorbars"/><g class="lines"><path class="js-line" d="M0,31.97L4.33,43.22L8.66,50.17L56.29,127L60.62,134.73L73.61,151.99L77.94,155.75L82.27,160.18L86.6,162.24L90.93,165.76L95.26,167.42L99.59,168.53L103.92,170.76L112.58,171.35L116.91,170.33L121.24,170.2L125.57,167.47L129.9,165.12L134.23,161.22L138.56,158.2L142.89,157.23L147.22,153.91L151.55,152.48L155.88,152.76L160.21,151.35L164.54,151.42L168.87,150.69L173.2,149L177.53,148.73L181.86,145.81L186.19,147.18L190.52,148.44L194.85,148.16L199.18,147.9L203.51,149.46L207.84,147.47L212.17,149.77L216.5,150.77L220.83,150.26L225.16,153.21L229.49,152.19L233.82,149.42L238.15,148.9L242.48,148.24L246.81,149.27L255.47,150.64L259.8,151.55L264.13,154.44L268.46,154.22L281.45,157.42L285.78,158.13L290.11,159.95L294.44,158.49L298.77,159.91L303.1,158.56L311.76,157.34L316.09,154.87L324.75,151.47L329.08,151.81L333.41,151.48L337.74,153.92L342.07,154.43L346.4,154.06L350.73,153.75L355.06,151.89L359.39,150.51L363.72,150.9L368.05,150.74L372.38,148.33L376.71,147.45L381.04,150.15L385.37,150.2L389.7,151.63L394.03,152.82L398.36,151.78L402.69,153.47L407.02,151.47L411.35,151.7L415.68,153.13L420.01,154.46L424.34,151.11L428.67,149.6L433,149.05" style="vector-effect: none; fill: none; stroke: rgb(233, 246, 157); stroke-opacity: 1; stroke-width: 2px; opacity: 1;"/></g><g class="points"/><g class="text"/></g><g class="trace scatter trace71bc3b" style="stroke-miterlimit: 2; opacity: 0.3;"><g class="fills"><g><path class="js-fill" d="M0,31.64L4.33,41.79L8.66,47.95L21.65,66.24L25.98,73.52L34.64,86.99L38.97,93.06L47.63,106.12L51.96,112.95L56.29,119.95L60.62,128.81L64.95,135.82L69.28,141.23L73.61,147.33L77.94,150.44L82.27,156.33L86.6,157.85L90.93,158.39L95.26,160.58L103.92,163.09L108.25,163.27L112.58,163.8L116.91,161.95L121.24,160.51L125.57,156.69L129.9,154.43L134.23,149.84L138.56,146.62L142.89,147.51L151.55,143.88L155.88,143.34L160.21,142.37L164.54,139.23L173.2,135.73L177.53,136.13L181.86,134.87L186.19,137.52L190.52,138.23L194.85,137.66L203.51,137.52L207.84,134.7L212.17,138.65L216.5,140.87L220.83,140.3L225.16,144.47L229.49,144.51L233.82,141.23L238.15,140.77L242.48,138.52L246.81,141.55L251.14,143.38L255.47,140.91L259.8,141.69L264.13,144.1L268.46,143.98L272.79,145.06L277.12,147.04L281.45,146.92L285.78,147.63L298.77,151.03L303.1,150.14L311.76,150.08L316.09,149.24L324.75,142.88L329.08,140.8L337.74,146.28L342.07,146.37L346.4,147.08L350.73,145.6L355.06,143.32L359.39,142.73L363.72,143.22L368.05,141.92L372.38,139.96L376.71,136.25L381.04,137.96L385.37,140.93L398.36,143.44L402.69,148.05L407.02,145.38L411.35,145.53L420.01,147.5L424.34,143.4L428.67,141.5L433,143.22L433,154.88L428.67,157.71L424.34,158.82L420.01,161.42L411.35,157.86L407.02,157.55L398.36,160.12L394.03,163.24L385.37,159.48L381.04,162.33L376.71,158.65L372.38,156.69L368.05,159.55L363.72,158.58L359.39,158.3L355.06,160.46L350.73,161.89L346.4,161.05L342.07,162.49L337.74,161.56L333.41,159.43L329.08,162.82L324.75,160.05L320.42,160.06L316.09,160.49L311.76,164.6L307.43,165.32L303.1,166.98L298.77,168.8L294.44,167.37L290.11,171.02L285.78,168.62L277.12,167.13L272.79,165.57L268.46,164.45L264.13,164.79L259.8,161.41L255.47,160.37L251.14,155.98L246.81,156.99L242.48,157.97L238.15,157.04L233.82,157.61L229.49,159.87L225.16,161.96L220.83,160.22L212.17,160.89L207.84,160.24L203.51,161.4L199.18,158.03L190.52,158.65L186.19,156.85L181.86,156.75L177.53,161.33L168.87,163.51L164.54,163.61L160.21,160.34L155.88,162.19L151.55,161.07L147.22,162.4L142.89,166.94L138.56,169.78L125.57,178.26L121.24,179.9L116.91,178.71L112.58,178.9L108.25,179.31L103.92,178.43L99.59,174.93L95.26,174.25L90.93,173.14L86.6,166.62L77.94,161.06L73.61,156.65L56.29,134.06L51.96,127.33L34.64,96.95L30.31,90.01L21.65,74.42L17.32,67.67L8.66,52.4L4.33,44.65L0,32.31Z" style="fill: rgb(233, 246, 157); fill-opacity: 1; stroke-width: 0;"/></g></g><g class="errorbars"/><g class="lines"><path class="js-line" d="M0,31.64L4.33,41.79L8.66,47.95L21.65,66.24L25.98,73.52L34.64,86.99L38.97,93.06L47.63,106.12L51.96,112.95L56.29,119.95L60.62,128.81L64.95,135.82L69.28,141.23L73.61,147.33L77.94,150.44L82.27,156.33L86.6,157.85L90.93,158.39L95.26,160.58L103.92,163.09L108.25,163.27L112.58,163.8L116.91,161.95L121.24,160.51L125.57,156.69L129.9,154.43L134.23,149.84L138.56,146.62L142.89,147.51L151.55,143.88L155.88,143.34L160.21,142.37L164.54,139.23L173.2,135.73L177.53,136.13L181.86,134.87L186.19,137.52L190.52,138.23L194.85,137.66L203.51,137.52L207.84,134.7L212.17,138.65L216.5,140.87L220.83,140.3L225.16,144.47L229.49,144.51L233.82,141.23L238.15,140.77L242.48,138.52L246.81,141.55L251.14,143.38L255.47,140.91L259.8,141.69L264.13,144.1L268.46,143.98L272.79,145.06L277.12,147.04L281.45,146.92L285.78,147.63L298.77,151.03L303.1,150.14L311.76,150.08L316.09,149.24L324.75,142.88L329.08,140.8L337.74,146.28L342.07,146.37L346.4,147.08L350.73,145.6L355.06,143.32L359.39,142.73L363.72,143.22L368.05,141.92L372.38,139.96L376.71,136.25L381.04,137.96L385.37,140.93L398.36,143.44L402.69,148.05L407.02,145.38L411.35,145.53L420.01,147.5L424.34,143.4L428.67,141.5L433,143.22L433,154.88L428.67,157.71L424.34,158.82L420.01,161.42L411.35,157.86L407.02,157.55L398.36,160.12L394.03,163.24L385.37,159.48L381.04,162.33L376.71,158.65L372.38,156.69L368.05,159.55L363.72,158.58L359.39,158.3L355.06,160.46L350.73,161.89L346.4,161.05L342.07,162.49L337.74,161.56L333.41,159.43L329.08,162.82L324.75,160.05L320.42,160.06L316.09,160.49L311.76,164.6L307.43,165.32L303.1,166.98L298.77,168.8L294.44,167.37L290.11,171.02L285.78,168.62L277.12,167.13L272.79,165.57L268.46,164.45L264.13,164.79L259.8,161.41L255.47,160.37L251.14,155.98L246.81,156.99L242.48,157.97L238.15,157.04L233.82,157.61L229.49,159.87L225.16,161.96L220.83,160.22L212.17,160.89L207.84,160.24L203.51,161.4L199.18,158.03L190.52,158.65L186.19,156.85L181.86,156.75L177.53,161.33L168.87,163.51L164.54,163.61L160.21,160.34L155.88,162.19L151.55,161.07L147.22,162.4L142.89,166.94L138.56,169.78L125.57,178.26L121.24,179.9L116.91,178.71L112.58,178.9L108.25,179.31L103.92,178.43L99.59,174.93L95.26,174.25L90.93,173.14L86.6,166.62L77.94,161.06L73.61,156.65L56.29,134.06L51.96,127.33L34.64,96.95L30.31,90.01L21.65,74.42L17.32,67.67L8.66,52.4L4.33,44.65L0,32.31" style="vector-effect: none; fill: none; stroke: rgb(0, 0, 0); stroke-opacity: 0; stroke-width: 2px; opacity: 1;"/></g><g class="points"/><g class="text"/></g><g class="trace scatter trace1fe748" style="stroke-miterlimit: 2; opacity: 1;"><g class="fills"/><g class="errorbars"/><g class="lines"><path class="js-line" d="M0,35.91L4.33,48L8.66,55.21L21.65,76.24L25.98,84.08L38.97,106.67L43.3,114.37L56.29,135.93L60.62,143.5L73.61,158.16L77.94,163.68L90.93,174.59L95.26,177.15L99.59,178.2L103.92,178.38L112.58,180.27L116.91,179.9L129.9,177.63L134.23,175.97L138.56,170.06L142.89,167.36L147.22,165.47L151.55,161.97L155.88,162.69L160.21,160.86L164.54,162.3L168.87,162.86L177.53,161.23L181.86,161.78L194.85,163.23L199.18,161.44L203.51,160.88L207.84,159.51L216.5,156.3L220.83,158.41L233.82,161.28L238.15,160.38L242.48,161.87L246.81,160.53L251.14,161.46L255.47,161.6L268.46,160.2L272.79,160.91L277.12,161.19L281.45,159.56L285.78,160.83L290.11,160.04L294.44,158.37L298.77,158.57L303.1,158.15L307.43,156.89L311.76,159.49L316.09,157.49L320.42,158.48L324.75,157.04L329.08,154.74L333.41,156.88L342.07,159.44L346.4,159.06L355.06,161.25L359.39,161.22L368.05,161.07L372.38,162.2L376.71,162.36L381.04,165.29L389.7,167.19L394.03,165.8L398.36,164.55L402.69,166.55L415.68,164.22L420.01,163.23L424.34,160.5L428.67,159.51L433,159.23" style="vector-effect: none; fill: none; stroke: rgb(255, 255, 191); stroke-opacity: 1; stroke-width: 2px; opacity: 1;"/></g><g class="points"/><g class="text"/></g><g class="trace scatter trace40905b" style="stroke-miterlimit: 2; opacity: 0.3;"><g class="fills"><g><path class="js-fill" d="M0,35.37L4.33,47.02L8.66,53.37L12.99,59.44L17.32,67.39L25.98,81.03L30.31,86.86L60.62,139.1L64.95,142.92L82.27,161.83L86.6,163.73L90.93,168.97L95.26,171.7L99.59,173.06L103.92,172.57L108.25,171.7L112.58,169.87L121.24,169.93L125.57,168.83L129.9,167.48L134.23,164.81L138.56,160.01L142.89,158.9L151.55,151.57L155.88,152.65L160.21,150.34L164.54,151.27L168.87,149.47L173.2,149.08L177.53,149.42L181.86,150.84L186.19,151.89L190.52,154.28L194.85,155.23L199.18,154.41L207.84,150.22L212.17,150.1L216.5,149.65L220.83,150.54L225.16,151.41L229.49,151.05L233.82,152.64L238.15,152.78L242.48,154.99L246.81,153.29L255.47,154.7L259.8,152.79L264.13,151.2L268.46,150.51L272.79,150.8L277.12,149.23L281.45,146.17L285.78,149.05L290.11,148.25L294.44,146.16L298.77,146.24L303.1,145.24L307.43,146.1L311.76,149.46L316.09,146.36L320.42,146.06L329.08,144.32L333.41,146.31L337.74,146.43L342.07,149.34L346.4,149.04L350.73,150.45L359.39,153.76L363.72,153L372.38,148.96L376.71,150.53L381.04,153.15L385.37,153.67L389.7,156.08L394.03,155.49L398.36,154.97L402.69,157.6L407.02,155.43L411.35,155.11L420.01,154.38L424.34,152.04L428.67,152.26L433,153.4L433,165.05L428.67,166.76L424.34,168.97L420.01,172.07L411.35,174.97L407.02,176.41L398.36,174.14L394.03,176.11L389.7,178.29L385.37,178.92L381.04,177.43L376.71,174.19L372.38,175.45L368.05,171.36L359.39,168.68L355.06,170.62L350.73,169.4L346.4,169.08L337.74,170.66L333.41,167.45L329.08,165.15L324.75,168.75L320.42,170.9L316.09,168.61L311.76,169.53L307.43,167.68L303.1,171.07L298.77,170.91L294.44,170.58L290.11,171.84L281.45,172.94L277.12,173.16L272.79,171.02L268.46,169.88L264.13,170.65L259.8,169.73L255.47,168.5L251.14,168.84L246.81,167.76L242.48,168.76L238.15,167.98L233.82,169.92L229.49,169.24L225.16,167.35L220.83,166.28L216.5,162.94L207.84,168.81L203.51,169.66L199.18,168.46L194.85,171.23L186.19,172.66L181.86,172.72L177.53,173.04L173.2,174.92L168.87,176.24L164.54,173.32L160.21,171.38L155.88,172.73L151.55,172.37L147.22,175.32L142.89,175.81L138.56,180.12L134.23,187.14L129.9,187.79L125.57,187.38L121.24,188.26L112.58,190.67L108.25,186.36L103.92,184.19L99.59,183.35L95.26,182.6L90.93,180.2L86.6,178.6L82.27,173.27L77.94,169.22L73.61,162.88L64.95,153.26L60.62,147.9L38.97,112.01L34.64,102.81L25.98,87.12L21.65,78.07L4.33,48.98L0,36.46Z" style="fill: rgb(255, 255, 191); fill-opacity: 1; stroke-width: 0;"/></g></g><g class="errorbars"/><g class="lines"><path class="js-line" d="M0,35.37L4.33,47.02L8.66,53.37L12.99,59.44L17.32,67.39L25.98,81.03L30.31,86.86L60.62,139.1L64.95,142.92L82.27,161.83L86.6,163.73L90.93,168.97L95.26,171.7L99.59,173.06L103.92,172.57L108.25,171.7L112.58,169.87L121.24,169.93L125.57,168.83L129.9,167.48L134.23,164.81L138.56,160.01L142.89,158.9L151.55,151.57L155.88,152.65L160.21,150.34L164.54,151.27L168.87,149.47L173.2,149.08L177.53,149.42L181.86,150.84L186.19,151.89L190.52,154.28L194.85,155.23L199.18,154.41L207.84,150.22L212.17,150.1L216.5,149.65L220.83,150.54L225.16,151.41L229.49,151.05L233.82,152.64L238.15,152.78L242.48,154.99L246.81,153.29L255.47,154.7L259.8,152.79L264.13,151.2L268.46,150.51L272.79,150.8L277.12,149.23L281.45,146.17L285.78,149.05L290.11,148.25L294.44,146.16L298.77,146.24L303.1,145.24L307.43,146.1L311.76,149.46L316.09,146.36L320.42,146.06L329.08,144.32L333.41,146.31L337.74,146.43L342.07,149.34L346.4,149.04L350.73,150.45L359.39,153.76L363.72,153L372.38,148.96L376.71,150.53L381.04,153.15L385.37,153.67L389.7,156.08L394.03,155.49L398.36,154.97L402.69,157.6L407.02,155.43L411.35,155.11L420.01,154.38L424.34,152.04L428.67,152.26L433,153.4L433,165.05L428.67,166.76L424.34,168.97L420.01,172.07L411.35,174.97L407.02,176.41L398.36,174.14L394.03,176.11L389.7,178.29L385.37,178.92L381.04,177.43L376.71,174.19L372.38,175.45L368.05,171.36L359.39,168.68L355.06,170.62L350.73,169.4L346.4,169.08L337.74,170.66L333.41,167.45L329.08,165.15L324.75,168.75L320.42,170.9L316.09,168.61L311.76,169.53L307.43,167.68L303.1,171.07L298.77,170.91L294.44,170.58L290.11,171.84L281.45,172.94L277.12,173.16L272.79,171.02L268.46,169.88L264.13,170.65L259.8,169.73L255.47,168.5L251.14,168.84L246.81,167.76L242.48,168.76L238.15,167.98L233.82,169.92L229.49,169.24L225.16,167.35L220.83,166.28L216.5,162.94L207.84,168.81L203.51,169.66L199.18,168.46L194.85,171.23L186.19,172.66L181.86,172.72L177.53,173.04L173.2,174.92L168.87,176.24L164.54,173.32L160.21,171.38L155.88,172.73L151.55,172.37L147.22,175.32L142.89,175.81L138.56,180.12L134.23,187.14L129.9,187.79L125.57,187.38L121.24,188.26L112.58,190.67L108.25,186.36L103.92,184.19L99.59,183.35L95.26,182.6L90.93,180.2L86.6,178.6L82.27,173.27L77.94,169.22L73.61,162.88L64.95,153.26L60.62,147.9L38.97,112.01L34.64,102.81L25.98,87.12L21.65,78.07L4.33,48.98L0,36.46" style="vector-effect: none; fill: none; stroke: rgb(0, 0, 0); stroke-opacity: 0; stroke-width: 2px; opacity: 1;"/></g><g class="points"/><g class="text"/></g><g class="trace scatter trace78651e" style="stroke-miterlimit: 2; opacity: 1;"><g class="fills"/><g class="errorbars"/><g class="lines"><path class="js-line" d="M0,39.43L4.33,50.19L8.66,57.42L17.32,72.56L21.65,80.58L34.64,102.93L38.97,110.51L51.96,132.02L56.29,137.55L73.61,161.25L77.94,165.55L86.6,175.51L90.93,177.8L99.59,184.46L103.92,186.45L108.25,186.41L112.58,185.07L116.91,186.46L121.24,184.59L129.9,181.28L134.23,179.35L142.89,173.99L147.22,173.36L151.55,170.75L155.88,170.2L160.21,170.54L164.54,170.11L168.87,167.88L173.2,168.06L177.53,167.89L181.86,169.04L186.19,170.23L190.52,170.64L194.85,169.29L199.18,169.28L203.51,170.87L207.84,170.68L212.17,172.78L216.5,172.89L220.83,173.8L225.16,173.09L229.49,172.11L233.82,174.13L238.15,173.78L242.48,171.67L246.81,172.3L251.14,173.97L255.47,175.46L259.8,175.74L272.79,171.67L277.12,173.34L285.78,175.55L290.11,175.02L294.44,175.86L298.77,175.92L316.09,171.01L320.42,172.99L324.75,174.45L329.08,173.27L333.41,173.67L337.74,172.66L350.73,173.02L355.06,170.53L359.39,170.35L363.72,168.02L368.05,167.55L372.38,168L381.04,168.07L385.37,165.82L389.7,166.02L394.03,167.38L402.69,170.75L407.02,168.64L411.35,170.68L415.68,169.87L420.01,171.26L424.34,171.53L433,172.84" style="vector-effect: none; fill: none; stroke: rgb(254, 228, 146); stroke-opacity: 1; stroke-width: 2px; opacity: 1;"/></g><g class="points"/><g class="text"/></g><g class="trace scatter trace95c562" style="stroke-miterlimit: 2; opacity: 0.3;"><g class="fills"><g><path class="js-fill" d="M0,38.99L4.33,49.16L8.66,56.1L34.64,96.82L38.97,104.31L64.95,142.69L69.28,148.08L82.27,161.29L86.6,165.78L95.26,173.13L99.59,178L103.92,178.43L108.25,180.35L112.58,178.49L116.91,179.24L121.24,177.63L125.57,174.91L129.9,173.21L134.23,169.61L142.89,165.3L147.22,165.27L155.88,159.77L160.21,162.32L164.54,162.9L168.87,160.78L177.53,160.57L181.86,160.96L194.85,158.9L199.18,158.62L212.17,161.34L216.5,160.04L220.83,161.7L225.16,162.12L229.49,161.18L233.82,162.24L238.15,161.4L242.48,156.56L246.81,158.75L251.14,161.82L255.47,165.57L259.8,165.94L264.13,162.95L268.46,161.8L272.79,160.1L277.12,163.68L290.11,166.76L294.44,169.58L298.77,169.78L303.1,168.94L311.76,163.26L316.09,163.16L320.42,164.11L324.75,165.86L329.08,164.96L333.41,166.11L342.07,165.63L346.4,163.9L350.73,164.91L355.06,162.61L359.39,160.44L363.72,159.88L368.05,162.23L372.38,162.11L376.71,160.14L381.04,160.14L385.37,157.96L389.7,159.43L394.03,160.12L398.36,161.88L402.69,164.3L407.02,161.54L411.35,162.79L415.68,160.02L420.01,160.81L424.34,160.15L428.67,159.13L433,159L433,186.69L428.67,185.49L424.34,182.9L420.01,181.72L415.68,179.72L411.35,178.56L407.02,175.74L402.69,177.21L398.36,176.82L394.03,174.64L389.7,172.61L385.37,173.68L381.04,176L376.71,175.95L372.38,173.9L368.05,172.87L359.39,180.25L355.06,178.45L350.73,181.13L346.4,182.36L337.74,179.1L333.41,181.23L329.08,181.59L324.75,183.03L320.42,181.87L316.09,178.85L311.76,180.47L307.43,180.71L303.1,180.38L298.77,182.06L294.44,182.14L290.11,183.28L285.78,185.79L281.45,184.06L277.12,183L272.79,183.25L264.13,186.07L259.8,185.55L255.47,185.35L251.14,186.12L246.81,185.86L242.48,186.78L233.82,186.03L229.49,183.03L225.16,184.07L220.83,185.89L216.5,185.73L212.17,184.23L207.84,181.44L203.51,182.13L199.18,179.94L194.85,179.69L190.52,181.12L186.19,180.27L181.86,177.11L177.53,175.21L173.2,175.82L168.87,174.98L164.54,177.31L160.21,178.77L155.88,180.62L151.55,178.65L147.22,181.46L142.89,182.68L138.56,185.4L134.23,189.08L129.9,189.35L125.57,191.64L121.24,191.54L116.91,193.68L112.58,191.65L108.25,192.48L103.92,194.47L99.59,190.92L95.26,189.58L90.93,186.39L86.6,185.23L82.27,179.24L73.61,170.27L69.28,163.56L64.95,155.95L60.62,149.88L51.96,139.6L47.63,132.81L30.31,101.62L25.98,93.84L8.66,58.74L4.33,51.23L0,39.87Z" style="fill: rgb(254, 228, 146); fill-opacity: 1; stroke-width: 0;"/></g></g><g class="errorbars"/><g class="lines"><path class="js-line" d="M0,38.99L4.33,49.16L8.66,56.1L34.64,96.82L38.97,104.31L64.95,142.69L69.28,148.08L82.27,161.29L86.6,165.78L95.26,173.13L99.59,178L103.92,178.43L108.25,180.35L112.58,178.49L116.91,179.24L121.24,177.63L125.57,174.91L129.9,173.21L134.23,169.61L142.89,165.3L147.22,165.27L155.88,159.77L160.21,162.32L164.54,162.9L168.87,160.78L177.53,160.57L181.86,160.96L194.85,158.9L199.18,158.62L212.17,161.34L216.5,160.04L220.83,161.7L225.16,162.12L229.49,161.18L233.82,162.24L238.15,161.4L242.48,156.56L246.81,158.75L251.14,161.82L255.47,165.57L259.8,165.94L264.13,162.95L268.46,161.8L272.79,160.1L277.12,163.68L290.11,166.76L294.44,169.58L298.77,169.78L303.1,168.94L311.76,163.26L316.09,163.16L320.42,164.11L324.75,165.86L329.08,164.96L333.41,166.11L342.07,165.63L346.4,163.9L350.73,164.91L355.06,162.61L359.39,160.44L363.72,159.88L368.05,162.23L372.38,162.11L376.71,160.14L381.04,160.14L385.37,157.96L389.7,159.43L394.03,160.12L398.36,161.88L402.69,164.3L407.02,161.54L411.35,162.79L415.68,160.02L420.01,160.81L424.34,160.15L428.67,159.13L433,159L433,186.69L428.67,185.49L424.34,182.9L420.01,181.72L415.68,179.72L411.35,178.56L407.02,175.74L402.69,177.21L398.36,176.82L394.03,174.64L389.7,172.61L385.37,173.68L381.04,176L376.71,175.95L372.38,173.9L368.05,172.87L359.39,180.25L355.06,178.45L350.73,181.13L346.4,182.36L337.74,179.1L333.41,181.23L329.08,181.59L324.75,183.03L320.42,181.87L316.09,178.85L311.76,180.47L307.43,180.71L303.1,180.38L298.77,182.06L294.44,182.14L290.11,183.28L285.78,185.79L281.45,184.06L277.12,183L272.79,183.25L264.13,186.07L259.8,185.55L255.47,185.35L251.14,186.12L246.81,185.86L242.48,186.78L233.82,186.03L229.49,183.03L225.16,184.07L220.83,185.89L216.5,185.73L212.17,184.23L207.84,181.44L203.51,182.13L199.18,179.94L194.85,179.69L190.52,181.12L186.19,180.27L181.86,177.11L177.53,175.21L173.2,175.82L168.87,174.98L164.54,177.31L160.21,178.77L155.88,180.62L151.55,178.65L147.22,181.46L142.89,182.68L138.56,185.4L134.23,189.08L129.9,189.35L125.57,191.64L121.24,191.54L116.91,193.68L112.58,191.65L108.25,192.48L103.92,194.47L99.59,190.92L95.26,189.58L90.93,186.39L86.6,185.23L82.27,179.24L73.61,170.27L69.28,163.56L64.95,155.95L60.62,149.88L51.96,139.6L47.63,132.81L30.31,101.62L25.98,93.84L8.66,58.74L4.33,51.23L0,39.87" style="vector-effect: none; fill: none; stroke: rgb(0, 0, 0); stroke-opacity: 0; stroke-width: 2px; opacity: 1;"/></g><g class="points"/><g class="text"/></g><g class="trace scatter trace18c004" style="stroke-miterlimit: 2; opacity: 1;"><g class="fills"/><g class="errorbars"/><g class="lines"><path class="js-line" d="M0,39.74L4.33,51.93L8.66,59.02L21.65,80.18L25.98,88.2L60.62,147.48L64.95,153.28L86.6,178.54L90.93,183.34L95.26,186.76L99.59,189.07L103.92,191.46L108.25,192.39L116.91,193.37L121.24,192.55L125.57,193.46L129.9,193.6L138.56,189.21L142.89,189L155.88,185.79L160.21,182.88L173.2,176.87L177.53,176.77L181.86,176.46L186.19,177.73L190.52,178.41L194.85,177.73L199.18,176.46L203.51,177.16L216.5,180.01L220.83,178.72L229.49,179.46L233.82,178.48L242.48,178.8L246.81,180.1L251.14,179.24L255.47,180.59L259.8,178.86L264.13,178.79L277.12,182.66L281.45,182.18L298.77,179.84L303.1,181.11L307.43,180.47L311.76,180.74L320.42,179.87L324.75,179.1L329.08,179.39L333.41,178.67L337.74,177.98L342.07,178.24L350.73,180.68L355.06,180.99L359.39,179.02L363.72,179.67L368.05,177.89L372.38,178.44L376.71,178.26L381.04,180.95L385.37,182.71L389.7,183.59L398.36,184L402.69,183.89L407.02,184.48L411.35,183.46L415.68,184.3L420.01,183.34L424.34,182.8L428.67,183.42L433,184.94" style="vector-effect: none; fill: none; stroke: rgb(254, 191, 111); stroke-opacity: 1; stroke-width: 2px; opacity: 1;"/></g><g class="points"/><g class="text"/></g><g class="trace scatter tracebadc88" style="stroke-miterlimit: 2; opacity: 0.3;"><g class="fills"><g><path class="js-fill" d="M0,39.74L4.33,50.99L8.66,57.64L21.65,78.69L25.98,86.42L34.64,100.4L38.97,108.89L64.95,150.12L69.28,153.81L73.61,157.69L77.94,163.48L90.93,180.17L95.26,182.76L103.92,186.14L108.25,185.68L116.91,184.28L121.24,182.97L125.57,185L129.9,185.23L134.23,181.52L138.56,179.51L155.88,178.29L160.21,176.08L173.2,170.12L177.53,169.47L181.86,169.4L186.19,170.31L190.52,170.54L194.85,169.44L199.18,168.05L203.51,169.26L207.84,168.64L212.17,168.8L216.5,171.28L220.83,168.95L225.16,168.3L229.49,170.78L238.15,170.15L242.48,170.91L246.81,171.93L251.14,170.85L255.47,172.94L259.8,171.55L264.13,170.65L268.46,173.33L272.79,175.45L277.12,176.31L290.11,171.43L294.44,170.46L298.77,170.79L303.1,172.38L307.43,171.58L311.76,172.68L320.42,171.28L324.75,170.93L329.08,170.67L333.41,171.96L337.74,171.2L342.07,171.51L346.4,172.57L350.73,171.94L355.06,173.67L359.39,173.15L363.72,173.87L368.05,171.46L372.38,171.8L376.71,170.96L381.04,172.82L385.37,176.03L398.36,174.45L402.69,173.63L407.02,176.23L411.35,175.18L415.68,176.27L420.01,175.31L424.34,173.29L428.67,173.2L433,174.46L433,195.42L424.34,192.3L420.01,191.37L415.68,192.32L411.35,191.73L402.69,194.14L398.36,193.55L389.7,191.43L385.37,189.38L381.04,189.08L376.71,185.55L368.05,184.33L363.72,185.46L359.39,184.89L355.06,188.3L350.73,189.43L346.4,186.81L342.07,184.98L337.74,184.77L333.41,185.37L329.08,188.11L324.75,187.27L320.42,188.46L316.09,189.37L311.76,188.79L303.1,189.85L298.77,188.88L294.44,191.21L290.11,190.06L281.45,189.9L277.12,189.01L272.79,187.03L268.46,186.33L264.13,186.94L259.8,186.18L255.47,188.25L251.14,187.63L246.81,188.27L242.48,186.68L233.82,186.83L229.49,188.14L225.16,189.75L220.83,188.5L212.17,188.4L207.84,187.69L203.51,185.07L199.18,184.87L194.85,186.02L190.52,186.29L181.86,183.52L177.53,184.06L173.2,183.62L168.87,186.34L160.21,189.69L155.88,193.29L142.89,198.97L138.56,198.92L129.9,201.96L125.57,201.92L116.91,202.47L112.58,200.8L103.92,196.79L99.59,193.68L95.26,190.75L90.93,186.52L86.6,181.61L82.27,178.34L77.94,172.11L73.61,168.35L69.28,163.19L64.95,156.44L60.62,151L56.29,142.71L38.97,113.75L34.64,104.89L25.98,89.98L21.65,81.68L4.33,52.88L0,39.74Z" style="fill: rgb(254, 191, 111); fill-opacity: 1; stroke-width: 0;"/></g></g><g class="errorbars"/><g class="lines"><path class="js-line" d="M0,39.74L4.33,50.99L8.66,57.64L21.65,78.69L25.98,86.42L34.64,100.4L38.97,108.89L64.95,150.12L69.28,153.81L73.61,157.69L77.94,163.48L90.93,180.17L95.26,182.76L103.92,186.14L108.25,185.68L116.91,184.28L121.24,182.97L125.57,185L129.9,185.23L134.23,181.52L138.56,179.51L155.88,178.29L160.21,176.08L173.2,170.12L177.53,169.47L181.86,169.4L186.19,170.31L190.52,170.54L194.85,169.44L199.18,168.05L203.51,169.26L207.84,168.64L212.17,168.8L216.5,171.28L220.83,168.95L225.16,168.3L229.49,170.78L238.15,170.15L242.48,170.91L246.81,171.93L251.14,170.85L255.47,172.94L259.8,171.55L264.13,170.65L268.46,173.33L272.79,175.45L277.12,176.31L290.11,171.43L294.44,170.46L298.77,170.79L303.1,172.38L307.43,171.58L311.76,172.68L320.42,171.28L324.75,170.93L329.08,170.67L333.41,171.96L337.74,171.2L342.07,171.51L346.4,172.57L350.73,171.94L355.06,173.67L359.39,173.15L363.72,173.87L368.05,171.46L372.38,171.8L376.71,170.96L381.04,172.82L385.37,176.03L398.36,174.45L402.69,173.63L407.02,176.23L411.35,175.18L415.68,176.27L420.01,175.31L424.34,173.29L428.67,173.2L433,174.46L433,195.42L424.34,192.3L420.01,191.37L415.68,192.32L411.35,191.73L402.69,194.14L398.36,193.55L389.7,191.43L385.37,189.38L381.04,189.08L376.71,185.55L368.05,184.33L363.72,185.46L359.39,184.89L355.06,188.3L350.73,189.43L346.4,186.81L342.07,184.98L337.74,184.77L333.41,185.37L329.08,188.11L324.75,187.27L320.42,188.46L316.09,189.37L311.76,188.79L303.1,189.85L298.77,188.88L294.44,191.21L290.11,190.06L281.45,189.9L277.12,189.01L272.79,187.03L268.46,186.33L264.13,186.94L259.8,186.18L255.47,188.25L251.14,187.63L246.81,188.27L242.48,186.68L233.82,186.83L229.49,188.14L225.16,189.75L220.83,188.5L212.17,188.4L207.84,187.69L203.51,185.07L199.18,184.87L194.85,186.02L190.52,186.29L181.86,183.52L177.53,184.06L173.2,183.62L168.87,186.34L160.21,189.69L155.88,193.29L142.89,198.97L138.56,198.92L129.9,201.96L125.57,201.92L116.91,202.47L112.58,200.8L103.92,196.79L99.59,193.68L95.26,190.75L90.93,186.52L86.6,181.61L82.27,178.34L77.94,172.11L73.61,168.35L69.28,163.19L64.95,156.44L60.62,151L56.29,142.71L38.97,113.75L34.64,104.89L25.98,89.98L21.65,81.68L4.33,52.88L0,39.74" style="vector-effect: none; fill: none; stroke: rgb(0, 0, 0); stroke-opacity: 0; stroke-width: 2px; opacity: 1;"/></g><g class="points"/><g class="text"/></g><g class="trace scatter tracebb422d" style="stroke-miterlimit: 2; opacity: 1;"><g class="fills"/><g class="errorbars"/><g class="lines"><path class="js-line" d="M0,43.59L4.33,54.51L8.66,60.95L21.65,83.86L25.98,91.62L51.96,135.61L56.29,141.53L64.95,156.68L69.28,161.87L77.94,172.94L82.27,176.63L90.93,182.73L95.26,187L103.92,194.38L108.25,196L112.58,199.72L116.91,200.79L125.57,201.48L129.9,201.12L142.89,197.04L147.22,194.23L151.55,193.92L155.88,192.2L160.21,192.35L164.54,191.35L173.2,188.14L177.53,188.33L181.86,186.72L186.19,187.18L207.84,185.67L212.17,187.01L233.82,188.48L238.15,187.4L242.48,187.19L246.81,187.79L251.14,189.63L255.47,189.7L264.13,190.55L268.46,192.05L281.45,193.81L285.78,193.17L290.11,192L294.44,192.37L320.42,190.53L324.75,188.96L329.08,189.05L333.41,188L342.07,184.75L346.4,185.95L350.73,184.35L355.06,184.24L372.38,184.51L376.71,183.41L385.37,184.29L389.7,185.83L394.03,185.1L398.36,186.37L407.02,186.32L411.35,186.14L433,188.98" style="vector-effect: none; fill: none; stroke: rgb(250, 145, 83); stroke-opacity: 1; stroke-width: 2px; opacity: 1;"/></g><g class="points"/><g class="text"/></g><g class="trace scatter trace9bc1ee" style="stroke-miterlimit: 2; opacity: 0.3;"><g class="fills"><g><path class="js-fill" d="M0,43.23L4.33,53.76L8.66,59.86L25.98,89.05L30.31,96.12L34.64,101.85L38.97,109.38L47.63,123.33L51.96,130.48L60.62,142.72L64.95,150.54L69.28,155.66L73.61,163.04L77.94,167.24L82.27,169.56L86.6,172.31L90.93,173.96L95.26,179.04L99.59,181.5L112.58,192.48L116.91,192.7L121.24,194.63L125.57,194.84L129.9,194.82L134.23,192.23L138.56,191.31L142.89,192.9L147.22,189.62L151.55,188.63L155.88,185.17L160.21,185.57L164.54,183.44L168.87,182.97L173.2,179.44L177.53,178.56L181.86,177.44L186.19,178.04L190.52,176.71L194.85,177.62L203.51,177.03L207.84,181.73L212.17,183.07L216.5,181.42L229.49,181.31L233.82,180.37L242.48,179.05L246.81,179.77L264.13,177.99L268.46,179.46L277.12,180.45L281.45,182.09L285.78,183.09L290.11,182.54L294.44,183.78L298.77,184.16L307.43,182.44L311.76,180.52L316.09,181.36L320.42,179.65L333.41,176.27L337.74,174.21L342.07,172.09L346.4,173.52L355.06,173.68L359.39,175.31L368.05,178.12L372.38,178.62L376.71,176.6L381.04,177.55L389.7,179.67L394.03,177.62L398.36,176.82L402.69,176.99L411.35,174.4L415.68,173.75L420.01,174.69L424.34,177.5L428.67,177.19L433,177.77L433,200.2L428.67,200.95L424.34,199.03L420.01,199.83L415.68,199.76L411.35,197.88L398.36,195.93L394.03,192.59L389.7,191.99L385.37,190.11L372.38,190.39L368.05,191.76L363.72,193.26L359.39,193.24L355.06,194.8L350.73,194.78L346.4,198.38L342.07,197.41L337.74,199.03L333.41,199.72L329.08,200.63L324.75,199.52L320.42,201.41L316.09,200.33L311.76,201.83L307.43,200.99L298.77,199.86L294.44,200.96L290.11,201.47L285.78,203.26L281.45,205.53L277.12,206L268.46,204.64L264.13,203.11L259.8,201.26L255.47,200.9L251.14,200.07L246.81,195.82L238.15,195.12L233.82,196.6L225.16,194.1L220.83,193.75L216.5,193.31L212.17,190.95L207.84,189.6L203.51,195.11L190.52,196.86L186.19,196.31L181.86,196L177.53,198.09L173.2,196.84L168.87,197.04L164.54,199.26L160.21,199.13L147.22,198.84L142.89,201.17L138.56,205.09L134.23,207.66L129.9,207.41L125.57,208.13L121.24,207.87L116.91,208.88L112.58,206.96L108.25,203.95L103.92,203.64L99.59,200.03L95.26,194.97L90.93,191.51L86.6,186.96L82.27,183.69L77.94,178.65L73.61,172.33L64.95,162.82L60.62,154.48L51.96,140.74L47.63,133.77L38.97,118.6L34.64,110.41L25.98,94.2L21.65,85.87L4.33,55.27L0,43.96Z" style="fill: rgb(250, 145, 83); fill-opacity: 1; stroke-width: 0;"/></g></g><g class="errorbars"/><g class="lines"><path class="js-line" d="M0,43.23L4.33,53.76L8.66,59.86L25.98,89.05L30.31,96.12L34.64,101.85L38.97,109.38L47.63,123.33L51.96,130.48L60.62,142.72L64.95,150.54L69.28,155.66L73.61,163.04L77.94,167.24L82.27,169.56L86.6,172.31L90.93,173.96L95.26,179.04L99.59,181.5L112.58,192.48L116.91,192.7L121.24,194.63L125.57,194.84L129.9,194.82L134.23,192.23L138.56,191.31L142.89,192.9L147.22,189.62L151.55,188.63L155.88,185.17L160.21,185.57L164.54,183.44L168.87,182.97L173.2,179.44L177.53,178.56L181.86,177.44L186.19,178.04L190.52,176.71L194.85,177.62L203.51,177.03L207.84,181.73L212.17,183.07L216.5,181.42L229.49,181.31L233.82,180.37L242.48,179.05L246.81,179.77L264.13,177.99L268.46,179.46L277.12,180.45L281.45,182.09L285.78,183.09L290.11,182.54L294.44,183.78L298.77,184.16L307.43,182.44L311.76,180.52L316.09,181.36L320.42,179.65L333.41,176.27L337.74,174.21L342.07,172.09L346.4,173.52L355.06,173.68L359.39,175.31L368.05,178.12L372.38,178.62L376.71,176.6L381.04,177.55L389.7,179.67L394.03,177.62L398.36,176.82L402.69,176.99L411.35,174.4L415.68,173.75L420.01,174.69L424.34,177.5L428.67,177.19L433,177.77L433,200.2L428.67,200.95L424.34,199.03L420.01,199.83L415.68,199.76L411.35,197.88L398.36,195.93L394.03,192.59L389.7,191.99L385.37,190.11L372.38,190.39L368.05,191.76L363.72,193.26L359.39,193.24L355.06,194.8L350.73,194.78L346.4,198.38L342.07,197.41L337.74,199.03L333.41,199.72L329.08,200.63L324.75,199.52L320.42,201.41L316.09,200.33L311.76,201.83L307.43,200.99L298.77,199.86L294.44,200.96L290.11,201.47L285.78,203.26L281.45,205.53L277.12,206L268.46,204.64L264.13,203.11L259.8,201.26L255.47,200.9L251.14,200.07L246.81,195.82L238.15,195.12L233.82,196.6L225.16,194.1L220.83,193.75L216.5,193.31L212.17,190.95L207.84,189.6L203.51,195.11L190.52,196.86L186.19,196.31L181.86,196L177.53,198.09L173.2,196.84L168.87,197.04L164.54,199.26L160.21,199.13L147.22,198.84L142.89,201.17L138.56,205.09L134.23,207.66L129.9,207.41L125.57,208.13L121.24,207.87L116.91,208.88L112.58,206.96L108.25,203.95L103.92,203.64L99.59,200.03L95.26,194.97L90.93,191.51L86.6,186.96L82.27,183.69L77.94,178.65L73.61,172.33L64.95,162.82L60.62,154.48L51.96,140.74L47.63,133.77L38.97,118.6L34.64,110.41L25.98,94.2L21.65,85.87L4.33,55.27L0,43.96" style="vector-effect: none; fill: none; stroke: rgb(0, 0, 0); stroke-opacity: 0; stroke-width: 2px; opacity: 1;"/></g><g class="points"/><g class="text"/></g><g class="trace scatter traceee3f68" style="stroke-miterlimit: 2; opacity: 1;"><g class="fills"/><g class="errorbars"/><g class="lines"><path class="js-line" d="M0,47.1L4.33,56.76L8.66,64.3L30.31,100.56L34.64,108.25L47.63,129.94L51.96,136.27L69.28,163.95L73.61,168.98L90.93,186.5L95.26,189.92L103.92,197.81L108.25,200.1L112.58,201.95L116.91,202.4L121.24,203.39L125.57,202.79L134.23,202.43L138.56,201.14L142.89,200.27L147.22,197.46L151.55,196.08L155.88,195.97L164.54,195.55L168.87,194.27L173.2,194.54L177.53,193.34L181.86,193.04L186.19,194.1L190.52,193.06L194.85,192.88L199.18,192L203.51,193.11L212.17,192.73L216.5,194.26L225.16,195.45L229.49,194.16L233.82,194.56L238.15,194.1L268.46,193.78L272.79,194.31L281.45,195.76L285.78,194.97L294.44,194.19L298.77,194.9L311.76,192.34L316.09,191.2L320.42,189.01L324.75,188.5L329.08,187.51L333.41,188.56L337.74,189.97L342.07,189.54L355.06,190.52L359.39,190.33L363.72,190.86L368.05,192.16L376.71,192.49L381.04,192.59L385.37,193.44L389.7,193L398.36,191L402.69,189.75L411.35,191.79L415.68,192.38L420.01,189.86L424.34,189.51L428.67,189.2L433,189.68" style="vector-effect: none; fill: none; stroke: rgb(233, 94, 72); stroke-opacity: 1; stroke-width: 2px; opacity: 1;"/></g><g class="points"/><g class="text"/></g><g class="trace scatter trace4f10c3" style="stroke-miterlimit: 2; opacity: 0.3;"><g class="fills"><g><path class="js-fill" d="M0,46.59L4.33,55.92L8.66,63.37L21.65,83.03L25.98,90.28L38.97,112.95L43.3,120.59L73.61,165.6L77.94,170.21L82.27,173.57L86.6,178.22L95.26,183.93L99.59,188.86L108.25,194.65L112.58,195.91L116.91,197.97L121.24,197.77L129.9,197.64L134.23,196.84L142.89,193.02L147.22,190.07L155.88,188.09L160.21,188.02L164.54,188.25L168.87,187.66L173.2,188.74L177.53,187.15L181.86,187.05L186.19,188.72L190.52,186.65L194.85,187.64L199.18,186.87L203.51,187.67L212.17,184.92L216.5,186.05L220.83,185.02L225.16,185.44L229.49,183.74L233.82,184.43L238.15,183.81L242.48,184.15L251.14,187.49L255.47,187.37L259.8,188.11L264.13,187.16L268.46,188.2L272.79,188.45L281.45,190.5L285.78,189.47L294.44,186.69L298.77,188.07L303.1,187.88L307.43,186.13L311.76,184.83L316.09,184.35L320.42,182.56L324.75,182.6L329.08,179.88L333.41,179.82L337.74,181.92L342.07,180.04L350.73,181.79L355.06,180.72L372.38,182.69L376.71,184.9L385.37,187.12L389.7,185.86L394.03,184.17L398.36,184.72L402.69,182L407.02,182.77L411.35,184.99L415.68,185.21L420.01,182.32L424.34,183.19L433,184.25L433,195.11L428.67,194.42L424.34,195.83L415.68,199.55L411.35,198.59L407.02,199.42L402.69,197.51L398.36,197.28L394.03,200.2L385.37,199.76L381.04,199.06L368.05,201.72L363.72,200.48L359.39,199.31L355.06,200.32L350.73,199.29L346.4,199.35L337.74,198.03L333.41,197.3L329.08,195.14L324.75,194.4L320.42,195.45L316.09,198.04L311.76,199.86L307.43,199.52L298.77,201.73L294.44,201.69L290.11,200.5L285.78,200.48L281.45,201.01L277.12,200.17L272.79,200.17L268.46,199.37L259.8,199.16L255.47,200.25L251.14,199.96L246.81,202.64L242.48,203.97L238.15,204.39L225.16,205.45L220.83,204.57L207.84,199.09L203.51,198.54L199.18,197.13L194.85,198.12L190.52,199.48L186.19,199.49L181.86,199.03L177.53,199.53L168.87,200.88L164.54,202.85L160.21,202.92L155.88,203.86L151.55,203.31L147.22,204.84L142.89,207.53L138.56,207.27L134.23,208.02L129.9,207.78L125.57,207.6L121.24,209L116.91,206.84L112.58,208L103.92,203.73L99.59,199.61L90.93,191.64L86.6,186.98L69.28,168.08L64.95,162.31L43.3,125.61L38.97,118.93L25.98,96.11L21.65,87.99L17.32,81.57L12.99,73.04L4.33,57.6L0,47.62Z" style="fill: rgb(233, 94, 72); fill-opacity: 1; stroke-width: 0;"/></g></g><g class="errorbars"/><g class="lines"><path class="js-line" d="M0,46.59L4.33,55.92L8.66,63.37L21.65,83.03L25.98,90.28L38.97,112.95L43.3,120.59L73.61,165.6L77.94,170.21L82.27,173.57L86.6,178.22L95.26,183.93L99.59,188.86L108.25,194.65L112.58,195.91L116.91,197.97L121.24,197.77L129.9,197.64L134.23,196.84L142.89,193.02L147.22,190.07L155.88,188.09L160.21,188.02L164.54,188.25L168.87,187.66L173.2,188.74L177.53,187.15L181.86,187.05L186.19,188.72L190.52,186.65L194.85,187.64L199.18,186.87L203.51,187.67L212.17,184.92L216.5,186.05L220.83,185.02L225.16,185.44L229.49,183.74L233.82,184.43L238.15,183.81L242.48,184.15L251.14,187.49L255.47,187.37L259.8,188.11L264.13,187.16L268.46,188.2L272.79,188.45L281.45,190.5L285.78,189.47L294.44,186.69L298.77,188.07L303.1,187.88L307.43,186.13L311.76,184.83L316.09,184.35L320.42,182.56L324.75,182.6L329.08,179.88L333.41,179.82L337.74,181.92L342.07,180.04L350.73,181.79L355.06,180.72L372.38,182.69L376.71,184.9L385.37,187.12L389.7,185.86L394.03,184.17L398.36,184.72L402.69,182L407.02,182.77L411.35,184.99L415.68,185.21L420.01,182.32L424.34,183.19L433,184.25L433,195.11L428.67,194.42L424.34,195.83L415.68,199.55L411.35,198.59L407.02,199.42L402.69,197.51L398.36,197.28L394.03,200.2L385.37,199.76L381.04,199.06L368.05,201.72L363.72,200.48L359.39,199.31L355.06,200.32L350.73,199.29L346.4,199.35L337.74,198.03L333.41,197.3L329.08,195.14L324.75,194.4L320.42,195.45L316.09,198.04L311.76,199.86L307.43,199.52L298.77,201.73L294.44,201.69L290.11,200.5L285.78,200.48L281.45,201.01L277.12,200.17L272.79,200.17L268.46,199.37L259.8,199.16L255.47,200.25L251.14,199.96L246.81,202.64L242.48,203.97L238.15,204.39L225.16,205.45L220.83,204.57L207.84,199.09L203.51,198.54L199.18,197.13L194.85,198.12L190.52,199.48L186.19,199.49L181.86,199.03L177.53,199.53L168.87,200.88L164.54,202.85L160.21,202.92L155.88,203.86L151.55,203.31L147.22,204.84L142.89,207.53L138.56,207.27L134.23,208.02L129.9,207.78L125.57,207.6L121.24,209L116.91,206.84L112.58,208L103.92,203.73L99.59,199.61L90.93,191.64L86.6,186.98L69.28,168.08L64.95,162.31L43.3,125.61L38.97,118.93L25.98,96.11L21.65,87.99L17.32,81.57L12.99,73.04L4.33,57.6L0,47.62" style="vector-effect: none; fill: none; stroke: rgb(0, 0, 0); stroke-opacity: 0; stroke-width: 2px; opacity: 1;"/></g><g class="points"/><g class="text"/></g></g></g></g><g class="zerolinelayer-above"/><path class="xlines-above crisp" d="M0,0" style="fill: none;"/><path class="ylines-above crisp" d="M0,0" style="fill: none;"/><g class="overlines-above"/><g class="xaxislayer-above"><g class="xtick"><text text-anchor="middle" x="0" y="333" transform="translate(80,0)" style="font-family: 'Open Sans', verdana, arial, sans-serif; font-size: 12px; fill: rgb(42, 63, 95); fill-opacity: 1; white-space: pre;">0</text></g><g class="xtick"><text text-anchor="middle" x="0" y="333" style="font-family: 'Open Sans', verdana, arial, sans-serif; font-size: 12px; fill: rgb(42, 63, 95); fill-opacity: 1; white-space: pre;" transform="translate(166.6,0)">1M</text></g><g class="xtick"><text text-anchor="middle" x="0" y="333" style="font-family: 'Open Sans', verdana, arial, sans-serif; font-size: 12px; fill: rgb(42, 63, 95); fill-opacity: 1; white-space: pre;" transform="translate(253.2,0)">2M</text></g><g class="xtick"><text text-anchor="middle" x="0" y="333" style="font-family: 'Open Sans', verdana, arial, sans-serif; font-size: 12px; fill: rgb(42, 63, 95); fill-opacity: 1; white-space: pre;" transform="translate(339.8,0)">3M</text></g><g class="xtick"><text text-anchor="middle" x="0" y="333" style="font-family: 'Open Sans', verdana, arial, sans-serif; font-size: 12px; fill: rgb(42, 63, 95); fill-opacity: 1; white-space: pre;" transform="translate(426.4,0)">4M</text></g><g class="xtick"><text text-anchor="middle" x="0" y="333" style="font-family: 'Open Sans', verdana, arial, sans-serif; font-size: 12px; fill: rgb(42, 63, 95); fill-opacity: 1; white-space: pre;" transform="translate(513,0)">5M</text></g></g><g class="yaxislayer-above"><g class="ytick"><text text-anchor="end" x="79" y="4.199999999999999" transform="translate(0,306.25)" style="font-family: 'Open Sans', verdana, arial, sans-serif; font-size: 12px; fill: rgb(42, 63, 95); fill-opacity: 1; white-space: pre;">200</text></g><g class="ytick"><text text-anchor="end" x="79" y="4.199999999999999" style="font-family: 'Open Sans', verdana, arial, sans-serif; font-size: 12px; fill: rgb(42, 63, 95); fill-opacity: 1; white-space: pre;" transform="translate(0,266.03999999999996)">300</text></g><g class="ytick"><text text-anchor="end" x="79" y="4.199999999999999" style="font-family: 'Open Sans', verdana, arial, sans-serif; font-size: 12px; fill: rgb(42, 63, 95); fill-opacity: 1; white-space: pre;" transform="translate(0,225.82999999999998)">400</text></g><g class="ytick"><text text-anchor="end" x="79" y="4.199999999999999" style="font-family: 'Open Sans', verdana, arial, sans-serif; font-size: 12px; fill: rgb(42, 63, 95); fill-opacity: 1; white-space: pre;" transform="translate(0,185.61)">500</text></g><g class="ytick"><text text-anchor="end" x="79" y="4.199999999999999" style="font-family: 'Open Sans', verdana, arial, sans-serif; font-size: 12px; fill: rgb(42, 63, 95); fill-opacity: 1; white-space: pre;" transform="translate(0,145.4)">600</text></g><g class="ytick"><text text-anchor="end" x="79" y="4.199999999999999" style="font-family: 'Open Sans', verdana, arial, sans-serif; font-size: 12px; fill: rgb(42, 63, 95); fill-opacity: 1; white-space: pre;" transform="translate(0,105.18)">700</text></g></g><g class="overaxes-above"/></g></g><g class="polarlayer"/><g class="smithlayer"/><g class="ternarylayer"/><g class="geolayer"/><g class="funnelarealayer"/><g class="pielayer"/><g class="iciclelayer"/><g class="treemaplayer"/><g class="sunburstlayer"/><g class="glimages"/><defs id="topdefs-d5601d"><g class="clips"/><clipPath id="legendd5601d"><rect width="66" height="219" x="0" y="0"/></clipPath></defs><g class="layer-above"><g class="imagelayer"/><g class="shapelayer"/></g><g class="infolayer"><g class="legend" pointer-events="all" transform="translate(521.6600000000001,100)"><rect class="bg" shape-rendering="crispEdges" style="stroke: rgb(68, 68, 68); stroke-opacity: 1; fill: rgb(255, 255, 255); fill-opacity: 1; stroke-width: 0px;" width="66" height="219" x="0" y="0"/><g class="scrollbox" transform="" clip-path="url(#legendd5601d)"><g class="groups"><g class="traces" transform="translate(0,14.5)" style="opacity: 1;"><text class="legendtext" text-anchor="start" x="40" y="4.680000000000001" style="font-family: 'Open Sans', verdana, arial, sans-serif; font-size: 12px; fill: rgb(42, 63, 95); fill-opacity: 1; white-space: pre;">5</text><g class="layers" style="opacity: 1;"><g class="legendfill"/><g class="legendlines"><path class="js-line" d="M5,0h30" style="fill: none; stroke: rgb(85, 99, 170); stroke-opacity: 1; stroke-width: 2px;"/></g><g class="legendsymbols"><g class="legendpoints"/></g></g><rect class="legendtoggle" x="0" y="-9.5" width="60.72265625" height="19" style="fill: rgb(0, 0, 0); fill-opacity: 0;"/></g><g class="traces" transform="translate(0,33.5)" style="opacity: 1;"><text class="legendtext" text-anchor="start" x="40" y="4.680000000000001" style="font-family: 'Open Sans', verdana, arial, sans-serif; font-size: 12px; fill: rgb(42, 63, 95); fill-opacity: 1; white-space: pre;">12</text><g class="layers" style="opacity: 1;"><g class="legendfill"/><g class="legendlines"><path class="js-line" d="M5,0h30" style="fill: none; stroke: rgb(64, 125, 183); stroke-opacity: 1; stroke-width: 2px;"/></g><g class="legendsymbols"><g class="legendpoints"/></g></g><rect class="legendtoggle" x="0" y="-9.5" width="60.72265625" height="19" style="fill: rgb(0, 0, 0); fill-opacity: 0;"/></g><g class="traces" transform="translate(0,52.5)" style="opacity: 1;"><text class="legendtext" text-anchor="start" x="40" y="4.680000000000001" style="font-family: 'Open Sans', verdana, arial, sans-serif; font-size: 12px; fill: rgb(42, 63, 95); fill-opacity: 1; white-space: pre;">25</text><g class="layers" style="opacity: 1;"><g class="legendfill"/><g class="legendlines"><path class="js-line" d="M5,0h30" style="fill: none; stroke: rgb(87, 175, 174); stroke-opacity: 1; stroke-width: 2px;"/></g><g class="legendsymbols"><g class="legendpoints"/></g></g><rect class="legendtoggle" x="0" y="-9.5" width="60.72265625" height="19" style="fill: rgb(0, 0, 0); fill-opacity: 0;"/></g><g class="traces" transform="translate(0,71.5)" style="opacity: 1;"><text class="legendtext" text-anchor="start" x="40" y="4.680000000000001" style="font-family: 'Open Sans', verdana, arial, sans-serif; font-size: 12px; fill: rgb(42, 63, 95); fill-opacity: 1; white-space: pre;">38</text><g class="layers" style="opacity: 1;"><g class="legendfill"/><g class="legendlines"><path class="js-line" d="M5,0h30" style="fill: none; stroke: rgb(142, 208, 165); stroke-opacity: 1; stroke-width: 2px;"/></g><g class="legendsymbols"><g class="legendpoints"/></g></g><rect class="legendtoggle" x="0" y="-9.5" width="60.72265625" height="19" style="fill: rgb(0, 0, 0); fill-opacity: 0;"/></g><g class="traces" transform="translate(0,90.5)" style="opacity: 1;"><text class="legendtext" text-anchor="start" x="40" y="4.680000000000001" style="font-family: 'Open Sans', verdana, arial, sans-serif; font-size: 12px; fill: rgb(42, 63, 95); fill-opacity: 1; white-space: pre;">50</text><g class="layers" style="opacity: 1;"><g class="legendfill"/><g class="legendlines"><path class="js-line" d="M5,0h30" style="fill: none; stroke: rgb(192, 229, 161); stroke-opacity: 1; stroke-width: 2px;"/></g><g class="legendsymbols"><g class="legendpoints"/></g></g><rect class="legendtoggle" x="0" y="-9.5" width="60.72265625" height="19" style="fill: rgb(0, 0, 0); fill-opacity: 0;"/></g><g class="traces" transform="translate(0,109.5)" style="opacity: 1;"><text class="legendtext" text-anchor="start" x="40" y="4.680000000000001" style="font-family: 'Open Sans', verdana, arial, sans-serif; font-size: 12px; fill: rgb(42, 63, 95); fill-opacity: 1; white-space: pre;">62</text><g class="layers" style="opacity: 1;"><g class="legendfill"/><g class="legendlines"><path class="js-line" d="M5,0h30" style="fill: none; stroke: rgb(233, 246, 157); stroke-opacity: 1; stroke-width: 2px;"/></g><g class="legendsymbols"><g class="legendpoints"/></g></g><rect class="legendtoggle" x="0" y="-9.5" width="60.72265625" height="19" style="fill: rgb(0, 0, 0); fill-opacity: 0;"/></g><g class="traces" transform="translate(0,128.5)" style="opacity: 1;"><text class="legendtext" text-anchor="start" x="40" y="4.680000000000001" style="font-family: 'Open Sans', verdana, arial, sans-serif; font-size: 12px; fill: rgb(42, 63, 95); fill-opacity: 1; white-space: pre;">75</text><g class="layers" style="opacity: 1;"><g class="legendfill"/><g class="legendlines"><path class="js-line" d="M5,0h30" style="fill: none; stroke: rgb(255, 255, 191); stroke-opacity: 1; stroke-width: 2px;"/></g><g class="legendsymbols"><g class="legendpoints"/></g></g><rect class="legendtoggle" x="0" y="-9.5" width="60.72265625" height="19" style="fill: rgb(0, 0, 0); fill-opacity: 0;"/></g><g class="traces" transform="translate(0,147.5)" style="opacity: 1;"><text class="legendtext" text-anchor="start" x="40" y="4.680000000000001" style="font-family: 'Open Sans', verdana, arial, sans-serif; font-size: 12px; fill: rgb(42, 63, 95); fill-opacity: 1; white-space: pre;">88</text><g class="layers" style="opacity: 1;"><g class="legendfill"/><g class="legendlines"><path class="js-line" d="M5,0h30" style="fill: none; stroke: rgb(254, 228, 146); stroke-opacity: 1; stroke-width: 2px;"/></g><g class="legendsymbols"><g class="legendpoints"/></g></g><rect class="legendtoggle" x="0" y="-9.5" width="60.72265625" height="19" style="fill: rgb(0, 0, 0); fill-opacity: 0;"/></g><g class="traces" transform="translate(0,166.5)" style="opacity: 1;"><text class="legendtext" text-anchor="start" x="40" y="4.680000000000001" style="font-family: 'Open Sans', verdana, arial, sans-serif; font-size: 12px; fill: rgb(42, 63, 95); fill-opacity: 1; white-space: pre;">100</text><g class="layers" style="opacity: 1;"><g class="legendfill"/><g class="legendlines"><path class="js-line" d="M5,0h30" style="fill: none; stroke: rgb(254, 191, 111); stroke-opacity: 1; stroke-width: 2px;"/></g><g class="legendsymbols"><g class="legendpoints"/></g></g><rect class="legendtoggle" x="0" y="-9.5" width="60.72265625" height="19" style="fill: rgb(0, 0, 0); fill-opacity: 0;"/></g><g class="traces" transform="translate(0,185.5)" style="opacity: 1;"><text class="legendtext" text-anchor="start" x="40" y="4.680000000000001" style="font-family: 'Open Sans', verdana, arial, sans-serif; font-size: 12px; fill: rgb(42, 63, 95); fill-opacity: 1; white-space: pre;">112</text><g class="layers" style="opacity: 1;"><g class="legendfill"/><g class="legendlines"><path class="js-line" d="M5,0h30" style="fill: none; stroke: rgb(250, 145, 83); stroke-opacity: 1; stroke-width: 2px;"/></g><g class="legendsymbols"><g class="legendpoints"/></g></g><rect class="legendtoggle" x="0" y="-9.5" width="60.72265625" height="19" style="fill: rgb(0, 0, 0); fill-opacity: 0;"/></g><g class="traces" transform="translate(0,204.5)" style="opacity: 1;"><text class="legendtext" text-anchor="start" x="40" y="4.680000000000001" style="font-family: 'Open Sans', verdana, arial, sans-serif; font-size: 12px; fill: rgb(42, 63, 95); fill-opacity: 1; white-space: pre;">125</text><g class="layers" style="opacity: 1;"><g class="legendfill"/><g class="legendlines"><path class="js-line" d="M5,0h30" style="fill: none; stroke: rgb(233, 94, 72); stroke-opacity: 1; stroke-width: 2px;"/></g><g class="legendsymbols"><g class="legendpoints"/></g></g><rect class="legendtoggle" x="0" y="-9.5" width="60.72265625" height="19" style="fill: rgb(0, 0, 0); fill-opacity: 0;"/></g></g></g><rect class="scrollbar" rx="20" ry="3" width="0" height="0" style="fill: rgb(128, 139, 164); fill-opacity: 1;" x="0" y="0"/></g><g class="g-gtitle"/><g class="g-xtitle"><text class="xtitle" x="296.5" y="361.3" text-anchor="middle" style="opacity: 1; font-family: 'Open Sans', verdana, arial, sans-serif; font-size: 14px; fill: rgb(42, 63, 95); fill-opacity: 1; white-space: pre;">time</text></g><g class="g-ytitle"><text class="ytitle" transform="rotate(-90,39.00625,210)" x="39.00625" y="210" text-anchor="middle" style="opacity: 1; font-family: 'Open Sans', verdana, arial, sans-serif; font-size: 14px; fill: rgb(42, 63, 95); fill-opacity: 1; white-space: pre;">distance to peak</text></g></g></svg>