<svg class="main-svg" xmlns="http://www.w3.org/2000/svg" xmlns:xlink="http://www.w3.org/1999/xlink" width="500" height="300" style="" viewBox="0 0 500 300"><rect x="0" y="0" width="500" height="300" style="fill: rgb(255, 255, 255); fill-opacity: 1;"/><defs id="defs-61ef9a"><g class="clips"><clipPath id="clip61ef9axyplot" class="plotclip"><rect width="327" height="160"/></clipPath><clipPath class="axesclip" id="clip61ef9ax"><rect x="80" y="0" width="327" height="300"/></clipPath><clipPath class="axesclip" id="clip61ef9ay"><rect x="0" y="60" width="500" height="160"/></clipPath><clipPath class="axesclip" id="clip61ef9axy"><rect x="80" y="60" width="327" height="160"/></clipPath></g><g class="gradients"/><g class="patterns"/></defs><g class="bglayer"/><g class="layer-below"><g class="imagelayer"/><g class="shapelayer"/></g><g class="cartesianlayer"><g class="subplot xy"><g class="layer-subplot"><g class="shapelayer"/><g class="imagelayer"/></g><g class="minor-gridlayer"><g class="x"/><g class="y"/></g><g class="gridlayer"><g class="x"><path class="xgrid crisp" transform="translate(161.75,0)" d="M0,60v160" style="stroke: rgb(235, 240, 248); stroke-opacity: 1; stroke-width: 1px;"/><path class="xgrid crisp" transform="translate(243.5,0)" d="M0,60v160" style="stroke: rgb(235, 240, 248); stroke-opacity: 1; stroke-width: 1px;"/><path class="xgrid crisp" transform="translate(325.25,0)" d="M0,60v160" style="stroke: rgb(235, 240, 248); stroke-opacity: 1; stroke-width: 1px;"/></g><g class="y"><path class="ygrid crisp" transform="translate(0,208.43)" d="M80,0h327" style="stroke: rgb(235, 240, 248); stroke-opacity: 1; stroke-width: 1px;"/><path class="ygrid crisp" transform="translate(0,157)" d="M80,0h327" style="stroke: rgb(235, 240, 248); stroke-opacity: 1; stroke-width: 1px;"/><path class="ygrid crisp" transform="translate(0,105.56)" d="M80,0h327" style="stroke: rgb(235, 240, 248); stroke-opacity: 1; stroke-width: 1px;"/></g></g><g class="zerolinelayer"><path class="xzl zl crisp" transform="translate(80,0)" d="M0,60v160" style="stroke: rgb(235, 240, 248); stroke-opacity: 1; stroke-width: 2px;"/></g><g class="layer-between"><g class="shapelayer"/><g class="imagelayer"/></g><path class="xlines-below"/><path class="ylines-below"/><g class="overlines-below"/><g class="xaxislayer-below"/><g class="yaxislayer-below"/><g class="overaxes-below"/><g class="overplot"><g class="xy" transform="translate(80,60)" clip-path="url(#clip61ef9axyplot)"><g class="scatterlayer mlayer"><g class="trace scatter trace65b601" style="stroke-miterlimit: 2; opacity: 1;"><g class="fills"/><g class="errorbars"/><g class="lines"><path class="js-line" d="M0,15.85L16.35,10.17L32.7,12.15L49.05,14.9L65.4,14.93L81.75,16.77L98.1,21.41L114.45,27.75L130.8,25.2L147.15,46.17L163.5,63.71L179.85,67.35L196.2,75.92L212.55,81.92L228.9,83.65L245.25,95.92L261.6,114.38L277.95,113.02L294.3,116.35L310.65,130.27L327,131.51" style="vector-effect: none; fill: none; stroke: rgb(136, 204, 238); stroke-opacity: 1; stroke-width: 2px; opacity: 1;"/></g><g class="points"/><g class="text"/></g><g class="trace scatter trace03a614" style="stroke-miterlimit: 2; opacity: 1;"><g class="fills"/><g class="errorbars"/><g class="lines"><path class="js-line" d="M0,91.89L16.35,94.2L32.7,110.96L49.05,110.3L65.4,112.26L81.75,118.82L98.1,141.94L114.45,148.83L130.8,150.29L147.15,150.76L163.5,149.52L179.85,144.75L196.2,146.51L212.55,143.51L228.9,145.48L245.25,141.27L261.6,143.22L277.95,140.84L294.3,139.47L310.65,138.91L327,137.38" style="vector-effect: none; fill: none; stroke: rgb(204, 102, 119); stroke-opacity: 1; stroke-width: 2px; opacity: 1;"/></g><g class="points"/><g class="text"/></g><g class="trace scatter trace0846eb" style="stroke-miterlimit: 2; opacity: 0.2;"><g class="fills"><g><path class="js-fill" d="M0,83.07L16.35,86.5L32.7,104.37L49.05,104.56L65.4,107.36L81.75,114.92L98.1,139.62L114.45,147.26L130.8,148.97L147.15,149.52L163.5,148.32L179.85,143.5L196.2,145.29L212.55,142.27L228.9,144.26L245.25,140.01L261.6,141.98L277.95,139.58L294.3,138.2L310.65,137.63L327,136.08L327,138.67L310.65,140.18L294.3,140.74L277.95,142.1L261.6,144.45L245.25,142.54L228.9,146.7L212.55,144.76L196.2,147.73L179.85,146L163.5,150.72L147.15,152L130.8,151.62L114.45,150.39L98.1,144.25L81.75,122.72L65.4,117.17L49.05,116.04L32.7,117.55L16.35,101.89L0,100.71Z" style="fill: rgb(204, 102, 119); fill-opacity: 1; stroke-width: 0;"/></g></g><g class="errorbars"/><g class="lines"><path class="js-line" d="M0,83.07L16.35,86.5L32.7,104.37L49.05,104.56L65.4,107.36L81.75,114.92L98.1,139.62L114.45,147.26L130.8,148.97L147.15,149.52L163.5,148.32L179.85,143.5L196.2,145.29L212.55,142.27L228.9,144.26L245.25,140.01L261.6,141.98L277.95,139.58L294.3,138.2L310.65,137.63L327,136.08L327,138.67L310.65,140.18L294.3,140.74L277.95,142.1L261.6,144.45L245.25,142.54L228.9,146.7L212.55,144.76L196.2,147.73L179.85,146L163.5,150.72L147.15,152L130.8,151.62L114.45,150.39L98.1,144.25L81.75,122.72L65.4,117.17L49.05,116.04L32.7,117.55L16.35,101.89L0,100.71" style="vector-effect: none; fill: none; stroke: rgb(0, 204, 150); stroke-opacity: 1; stroke-width: 0px; opacity: 1;"/></g><g class="points"/><g class="text"/></g><g class="trace scatter trace749bf7" style="stroke-miterlimit: 2; opacity: 0.2;"><g class="fills"><g><path class="js-fill" d="M0,13.72L16.35,8L32.7,9.98L49.05,12.73L65.4,12.73L81.75,14.53L98.1,19L114.45,24.83L130.8,21.52L147.15,42.01L163.5,59.06L179.85,62.54L196.2,70.98L212.55,76.94L228.9,78.57L245.25,91.08L261.6,109.88L277.95,108.43L294.3,111.78L310.65,126.12L327,127.36L327,135.65L310.65,134.42L294.3,120.92L277.95,117.61L261.6,118.87L245.25,100.76L228.9,88.73L212.55,86.9L196.2,80.85L179.85,72.16L163.5,68.36L147.15,50.33L130.8,28.88L114.45,30.67L98.1,23.82L81.75,19.01L65.4,17.12L49.05,17.07L32.7,14.32L16.35,12.34L0,17.98Z" style="fill: rgb(136, 204, 238); fill-opacity: 1; stroke-width: 0;"/></g></g><g class="errorbars"/><g class="lines"><path class="js-line" d="M0,13.72L16.35,8L32.7,9.98L49.05,12.73L65.4,12.73L81.75,14.53L98.1,19L114.45,24.83L130.8,21.52L147.15,42.01L163.5,59.06L179.85,62.54L196.2,70.98L212.55,76.94L228.9,78.57L245.25,91.08L261.6,109.88L277.95,108.43L294.3,111.78L310.65,126.12L327,127.36L327,135.65L310.65,134.42L294.3,120.92L277.95,117.61L261.6,118.87L245.25,100.76L228.9,88.73L212.55,86.9L196.2,80.85L179.85,72.16L163.5,68.36L147.15,50.33L130.8,28.88L114.45,30.67L98.1,23.82L81.75,19.01L65.4,17.12L49.05,17.07L32.7,14.32L16.35,12.34L0,17.98" style="vector-effect: none; fill: none; stroke: rgb(171, 99, 250); stroke-opacity: 1; stroke-width: 0px; opacity: 1;"/></g><g class="points"/><g class="text"/></g></g></g></g><g class="zerolinelayer-above"/><path class="xlines-above crisp" d="M0,0" style="fill: none;"/><path class="ylines-above crisp" d="M0,0" style="fill: none;"/><g class="overlines-above"/><g class="xaxislayer-above"><g class="xtick"><text text-anchor="middle" x="0" y="233" transform="translate(80,0)" style="font-family: 'Open Sans', verdana, arial, sans-serif; font-size: 12px; fill: rgb(42, 63, 95); fill-opacity: 1; white-space: pre;">0</text></g><g class="xtick"><text text-anchor="middle" x="0" y="233" style="font-family: 'Open Sans', verdana, arial, sans-serif; font-size: 12px; fill: rgb(42, 63, 95); fill-opacity: 1; white-space: pre;" transform="translate(161.75,0)">5</text></g><g class="xtick"><text text-anchor="middle" x="0" y="233" style="font-family: 'Open Sans', verdana, arial, sans-serif; font-size: 12px; fill: rgb(42, 63, 95); fill-opacity: 1; white-space: pre;" transform="translate(243.5,0)">10</text></g><g class="xtick"><text text-anchor="middle" x="0" y="233" style="font-family: 'Open Sans', verdana, arial, sans-serif; font-size: 12px; fill: rgb(42, 63, 95); fill-opacity: 1; white-space: pre;" transform="translate(325.25,0)">15</text></g><g class="xtick"><text text-anchor="middle" x="0" y="233" style="font-family: 'Open Sans', verdana, arial, sans-serif; font-size: 12px; fill: rgb(42, 63, 95); fill-opacity: 1; white-space: pre;" transform="translate(407,0)">20</text></g></g><g class="yaxislayer-above"><g class="ytick"><text text-anchor="end" x="79" y="4.199999999999999" transform="translate(0,208.43)" style="font-family: 'Open Sans', verdana, arial, sans-serif; font-size: 12px; fill: rgb(42, 63, 95); fill-opacity: 1; white-space: pre;">0.5</text></g><g class="ytick"><text text-anchor="end" x="79" y="4.199999999999999" style="font-family: 'Open Sans', verdana, arial, sans-serif; font-size: 12px; fill: rgb(42, 63, 95); fill-opacity: 1; white-space: pre;" transform="translate(0,157)">1</text></g><g class="ytick"><text text-anchor="end" x="79" y="4.199999999999999" style="font-family: 'Open Sans', verdana, arial, sans-serif; font-size: 12px; fill: rgb(42, 63, 95); fill-opacity: 1; white-space: pre;" transform="translate(0,105.56)">1.5</text></g></g><g class="overaxes-above"/></g></g><g class="polarlayer"/><g class="smithlayer"/><g class="ternarylayer"/><g class="geolayer"/><g class="funnelarealayer"/><g class="pielayer"/><g class="iciclelayer"/><g class="treemaplayer"/><g class="sunburstlayer"/><g class="glimages"/><defs id="topdefs-61ef9a"><g class="clips"/><clipPath id="legend61ef9a"><rect width="74" height="67" x="0" y="0"/></clipPath></defs><g class="layer-above"><g class="imagelayer"/><g class="shapelayer"/></g><g class="infolayer"><g class="legend" pointer-events="all" transform="translate(413.54,60)"><rect class="bg" shape-rendering="crispEdges" style="stroke: rgb(68, 68, 68); stroke-opacity: 1; fill: rgb(255, 255, 255); fill-opacity: 1; stroke-width: 0px;" width="74" height="67" x="0" y="0"/><g class="scrollbox" transform="" clip-path="url(#legend61ef9a)"><text class="legendtitletext" text-anchor="start" x="2" y="18.2" style="font-family: 'Open Sans', verdana, arial, sans-serif; font-size: 14px; fill: rgb(42, 63, 95); fill-opacity: 1; white-space: pre;">cell_cell</text><g class="groups" transform=""><g class="traces" transform="translate(0,32.7)" style="opacity: 1;"><text class="legendtext" text-anchor="start" x="40" y="4.680000000000001" style="font-family: 'Open Sans', verdana, arial, sans-serif; font-size: 12px; fill: rgb(42, 63, 95); fill-opacity: 1; white-space: pre;">False</text><g class="layers" style="opacity: 1;"><g class="legendfill"/><g class="legendlines"><path class="js-line" d="M5,0h30" style="fill: none; stroke: rgb(136, 204, 238); stroke-opacity: 1; stroke-width: 2px;"/></g><g class="legendsymbols"><g class="legendpoints"/></g></g><rect class="legendtoggle" x="0" y="-9.5" width="68.609375" height="19" style="fill: rgb(0, 0, 0); fill-opacity: 0;"/></g></g><g class="groups" transform=""><g class="traces" transform="translate(0,51.7)" style="opacity: 1;"><text class="legendtext" text-anchor="start" x="40" y="4.680000000000001" style="font-family: 'Open Sans', verdana, arial, sans-serif; font-size: 12px; fill: rgb(42, 63, 95); fill-opacity: 1; white-space: pre;">True</text><g class="layers" style="opacity: 1;"><g class="legendfill"/><g class="legendlines"><path class="js-line" d="M5,0h30" style="fill: none; stroke: rgb(204, 102, 119); stroke-opacity: 1; stroke-width: 2px;"/></g><g class="legendsymbols"><g class="legendpoints"/></g></g><rect class="legendtoggle" x="0" y="-9.5" width="68.609375" height="19" style="fill: rgb(0, 0, 0); fill-opacity: 0;"/></g></g></g><rect class="scrollbar" rx="20" ry="3" width="0" height="0" style="fill: rgb(128, 139, 164); fill-opacity: 1;" x="0" y="0"/></g><g class="g-gtitle"/><g class="g-xtitle"><text class="xtitle" x="243.5" y="261.3" text-anchor="middle" style="opacity: 1; font-family: 'Open Sans', verdana, arial, sans-serif; font-size: 14px; fill: rgb(42, 63, 95); fill-opacity: 1; white-space: pre;">gamma</text></g><g class="g-ytitle"><text class="ytitle" transform="rotate(-90,42.725,140)" x="42.725" y="140" text-anchor="middle" style="opacity: 1; font-family: 'Open Sans', verdana, arial, sans-serif; font-size: 14px; fill: rgb(42, 63, 95); fill-opacity: 1; white-space: pre;">kact</text></g></g></svg>