<svg class="main-svg" xmlns="http://www.w3.org/2000/svg" xmlns:xlink="http://www.w3.org/1999/xlink" width="600" height="400" style="" viewBox="0 0 600 400"><rect x="0" y="0" width="600" height="400" style="fill: rgb(255, 255, 255); fill-opacity: 1;"/><defs id="defs-9229a0"><g class="clips"><clipPath id="clip9229a0xyplot" class="plotclip"><rect width="395" height="220"/></clipPath><clipPath class="axesclip" id="clip9229a0x"><rect x="80" y="0" width="395" height="400"/></clipPath><clipPath class="axesclip" id="clip9229a0y"><rect x="0" y="100" width="600" height="220"/></clipPath><clipPath class="axesclip" id="clip9229a0xy"><rect x="80" y="100" width="395" height="220"/></clipPath></g><g class="gradients"/><g class="patterns"/></defs><g class="bglayer"/><g class="layer-below"><g class="imagelayer"/><g class="shapelayer"/></g><g class="cartesianlayer"><g class="subplot xy"><g class="layer-subplot"><g class="shapelayer"/><g class="imagelayer"/></g><g class="minor-gridlayer"><g class="x"/><g class="y"/></g><g class="gridlayer"><g class="x"><path class="xgrid crisp" transform="translate(154.51,0)" d="M0,100v220" style="stroke: rgb(235, 240, 248); stroke-opacity: 1; stroke-width: 1px;"/><path class="xgrid crisp" transform="translate(229.03,0)" d="M0,100v220" style="stroke: rgb(235, 240, 248); stroke-opacity: 1; stroke-width: 1px;"/><path class="xgrid crisp" transform="translate(303.53999999999996,0)" d="M0,100v220" style="stroke: rgb(235, 240, 248); stroke-opacity: 1; stroke-width: 1px;"/><path class="xgrid crisp" transform="translate(378.06,0)" d="M0,100v220" style="stroke: rgb(235, 240, 248); stroke-opacity: 1; stroke-width: 1px;"/><path class="xgrid crisp" transform="translate(452.57,0)" d="M0,100v220" style="stroke: rgb(235, 240, 248); stroke-opacity: 1; stroke-width: 1px;"/></g><g class="y"><path class="ygrid crisp" transform="translate(0,265)" d="M80,0h395" style="stroke: rgb(235, 240, 248); stroke-opacity: 1; stroke-width: 1px;"/><path class="ygrid crisp" transform="translate(0,210)" d="M80,0h395" style="stroke: rgb(235, 240, 248); stroke-opacity: 1; stroke-width: 1px;"/><path class="ygrid crisp" transform="translate(0,155)" d="M80,0h395" style="stroke: rgb(235, 240, 248); stroke-opacity: 1; stroke-width: 1px;"/></g></g><g class="zerolinelayer"><path class="yzl zl crisp" transform="translate(0,320)" d="M80,0h395" style="stroke: rgb(235, 240, 248); stroke-opacity: 1; stroke-width: 2px;"/></g><g class="layer-between"><g class="shapelayer"/><g class="imagelayer"/></g><path class="xlines-below"/><path class="ylines-below"/><g class="overlines-below"/><g class="xaxislayer-below"/><g class="yaxislayer-below"/><g class="overaxes-below"/><g class="overplot"><g class="xy" transform="translate(80,100)" clip-path="url(#clip9229a0xyplot)"><g class="scatterlayer mlayer"><g class="trace scatter trace43bf71" style="stroke-miterlimit: 2; opacity: 1;"><g class="fills"/><g class="errorbars"/><g class="lines"><path class="js-line" d="M0,20.8L22.43,24.25L35.55,31.13L44.86,39.26L52.08,47.11L67.29,66.7L71.1,71.85L83,86.93L87.64,91.8L95.28,98.01L100.03,100.59L107.83,103.29L112.15,104.25L131.4,107.33L135.58,107.78L175.56,109.97L179.57,109.99L207.49,110.15L211.49,110.49L243.38,111.33L247.38,110.99L271.31,111.67L275.31,110.87L279.29,110.43L283.28,111.75L295.25,116.09L299.24,116.01L303.23,115.57L307.22,116.16L319.19,116.74L323.18,118.19L327.17,119.19L331.16,118.99L335.15,119.07L339.14,118.06L343.13,115.26L347.12,113.77" style="vector-effect: none; fill: none; stroke: rgb(231, 248, 191); stroke-opacity: 1; stroke-width: 2px; opacity: 1;"/></g><g class="points"/><g class="text"/></g><g class="trace scatter tracebb091c" style="stroke-miterlimit: 2; opacity: 0.3;"><g class="fills"><g><path class="js-fill" d="M0,18.33L22.43,21.84L35.55,28.72L44.86,36.8L52.08,44.71L67.29,64.95L71.1,70.4L83,86.51L87.64,91.71L95.28,98.28L100.03,100.95L107.83,103.65L112.15,104.56L135.58,107.98L139.72,108.17L159.68,109.25L163.62,109.88L171.62,110.09L175.56,109.85L207.49,109.2L211.49,109.65L219.44,110.33L223.44,110.3L231.4,110.51L235.41,111.16L239.39,111.45L243.38,110.82L247.38,110.04L251.37,110.34L267.33,110.62L271.31,111.19L279.29,109.31L283.28,110.61L295.25,115.33L299.24,114.96L307.22,113.09L311.21,112.83L315.2,112.31L319.19,112.93L327.17,113.92L331.16,114.04L339.14,115.83L343.13,114.89L347.12,113.57L347.12,114.15L343.13,115.98L335.15,127.34L331.16,128.32L327.17,128.95L323.18,126.34L319.19,123.61L315.2,123.58L311.21,123.23L307.22,121.51L303.23,118.87L299.24,117.81L295.25,117.4L291.26,115.73L279.29,112.33L275.31,111.94L267.33,112.84L263.33,112.77L251.37,112.63L247.38,112.58L235.41,111.12L231.4,111.3L207.49,111.7L203.48,111.15L187.57,110.26L183.48,110.33L171.62,109.9L167.51,109.78L143.77,108.12L139.72,107.79L123.9,105.84L119.38,105.09L107.83,102.69L104.17,101.59L95.28,97.55L91.69,95.19L83,87.63L80.41,84.94L62.97,64.13L57.98,57.94L44.86,43.09L35.55,34.84L22.43,27.85L0,24.45Z" style="fill: rgb(231, 248, 191); fill-opacity: 1; stroke-width: 0;"/></g></g><g class="errorbars"/><g class="lines"><path class="js-line" d="M0,18.33L22.43,21.84L35.55,28.72L44.86,36.8L52.08,44.71L67.29,64.95L71.1,70.4L83,86.51L87.64,91.71L95.28,98.28L100.03,100.95L107.83,103.65L112.15,104.56L135.58,107.98L139.72,108.17L159.68,109.25L163.62,109.88L171.62,110.09L175.56,109.85L207.49,109.2L211.49,109.65L219.44,110.33L223.44,110.3L231.4,110.51L235.41,111.16L239.39,111.45L243.38,110.82L247.38,110.04L251.37,110.34L267.33,110.62L271.31,111.19L279.29,109.31L283.28,110.61L295.25,115.33L299.24,114.96L307.22,113.09L311.21,112.83L315.2,112.31L319.19,112.93L327.17,113.92L331.16,114.04L339.14,115.83L343.13,114.89L347.12,113.57L347.12,114.15L343.13,115.98L335.15,127.34L331.16,128.32L327.17,128.95L323.18,126.34L319.19,123.61L315.2,123.58L311.21,123.23L307.22,121.51L303.23,118.87L299.24,117.81L295.25,117.4L291.26,115.73L279.29,112.33L275.31,111.94L267.33,112.84L263.33,112.77L251.37,112.63L247.38,112.58L235.41,111.12L231.4,111.3L207.49,111.7L203.48,111.15L187.57,110.26L183.48,110.33L171.62,109.9L167.51,109.78L143.77,108.12L139.72,107.79L123.9,105.84L119.38,105.09L107.83,102.69L104.17,101.59L95.28,97.55L91.69,95.19L83,87.63L80.41,84.94L62.97,64.13L57.98,57.94L44.86,43.09L35.55,34.84L22.43,27.85L0,24.45" style="vector-effect: none; fill: none; stroke: rgb(0, 0, 0); stroke-opacity: 0; stroke-width: 2px; opacity: 1;"/></g><g class="points"/><g class="text"/></g><g class="trace scatter trace6c59e6" style="stroke-miterlimit: 2; opacity: 1;"><g class="fills"/><g class="errorbars"/><g class="lines"><path class="js-line" d="M0,65.48L22.43,68.87L35.55,76.39L67.29,104.95L71.1,107.79L83,115.43L87.64,117.96L104.17,125.91L107.83,127.38L123.9,132.77L127.87,133.73L143.77,136.41L147.71,136.69L163.62,136.67L167.51,136.38L179.57,135.27L183.48,134.04L195.47,131.33L199.52,130.42L215.46,126.52L219.44,125.92L247.38,120.31L251.37,119.58L267.33,116.83L271.31,115.98L287.27,113.05L291.26,111.94L315.2,110.01L319.19,107.9L327.17,102.96L331.16,101.29L335.15,99.79L339.14,97.46L343.13,92.95L347.12,89.61L351.11,88.2L355.1,85.33L363.08,82.29L367.07,78.73L371.06,73.96L375.05,66.39L379.04,58.04L383.03,52.41L391.01,47.02L395,45.79" style="vector-effect: none; fill: none; stroke: rgb(130, 48, 131); stroke-opacity: 1; stroke-width: 2px; opacity: 1;"/></g><g class="points"/><g class="text"/></g><g class="trace scatter trace18faa3" style="stroke-miterlimit: 2; opacity: 0.3;"><g class="fills"><g><path class="js-fill" d="M0,64.45L22.43,67.85L35.55,75.43L67.29,104.48L71.1,107.41L83,115.28L87.64,117.86L100.03,124.16L104.17,125.92L119.38,131.38L123.9,132.61L139.72,135.98L143.77,136.5L155.73,136.86L159.68,136.58L171.62,135.6L175.56,135.48L179.57,135.04L183.48,133.79L207.49,126.8L211.49,125.52L219.44,123.71L223.44,122.43L231.4,121.1L235.41,121.03L243.38,118.64L247.38,118.2L255.36,116.15L259.34,116.51L271.31,113.96L275.31,112.76L287.27,109.93L291.26,108.45L299.24,108.46L303.23,107.2L315.2,102.26L319.19,100.2L327.17,96.11L331.16,96.04L335.15,95.89L339.14,94.33L347.12,88.99L351.11,89.8L359.09,86.69L363.08,84.38L367.07,80.59L371.06,75.11L375.05,67.07L379.04,56.37L383.03,47.94L387.02,44.6L391.01,42.31L395,41.43L395,52.34L391.01,54.05L383.03,58.91L379.04,60.46L375.05,65.42L371.06,72.3L363.08,79.23L359.09,80.23L355.1,80.48L351.11,85.83L343.13,95.29L339.14,102.07L323.18,115.47L319.19,118.43L315.2,120.4L311.21,118.84L307.22,116.54L303.23,115.91L295.25,115.59L291.26,116.31L275.31,118.57L271.31,118.41L251.37,122.72L247.38,122.78L239.39,123.06L235.41,123.91L227.41,126.63L223.44,128.12L207.49,129.58L203.48,130.45L183.48,134.31L179.57,135.53L163.62,137.3L159.68,137.21L135.58,135.34L131.4,134.65L119.38,131.55L115.97,130.45L104.17,125.9L100.03,124.13L80.41,114.12L74.51,110.48L62.97,102.09L57.98,97.9L35.55,77.43L22.43,69.97L0,66.59Z" style="fill: rgb(130, 48, 131); fill-opacity: 1; stroke-width: 0;"/></g></g><g class="errorbars"/><g class="lines"><path class="js-line" d="M0,64.45L22.43,67.85L35.55,75.43L67.29,104.48L71.1,107.41L83,115.28L87.64,117.86L100.03,124.16L104.17,125.92L119.38,131.38L123.9,132.61L139.72,135.98L143.77,136.5L155.73,136.86L159.68,136.58L171.62,135.6L175.56,135.48L179.57,135.04L183.48,133.79L207.49,126.8L211.49,125.52L219.44,123.71L223.44,122.43L231.4,121.1L235.41,121.03L243.38,118.64L247.38,118.2L255.36,116.15L259.34,116.51L271.31,113.96L275.31,112.76L287.27,109.93L291.26,108.45L299.24,108.46L303.23,107.2L315.2,102.26L319.19,100.2L327.17,96.11L331.16,96.04L335.15,95.89L339.14,94.33L347.12,88.99L351.11,89.8L359.09,86.69L363.08,84.38L367.07,80.59L371.06,75.11L375.05,67.07L379.04,56.37L383.03,47.94L387.02,44.6L391.01,42.31L395,41.43L395,52.34L391.01,54.05L383.03,58.91L379.04,60.46L375.05,65.42L371.06,72.3L363.08,79.23L359.09,80.23L355.1,80.48L351.11,85.83L343.13,95.29L339.14,102.07L323.18,115.47L319.19,118.43L315.2,120.4L311.21,118.84L307.22,116.54L303.23,115.91L295.25,115.59L291.26,116.31L275.31,118.57L271.31,118.41L251.37,122.72L247.38,122.78L239.39,123.06L235.41,123.91L227.41,126.63L223.44,128.12L207.49,129.58L203.48,130.45L183.48,134.31L179.57,135.53L163.62,137.3L159.68,137.21L135.58,135.34L131.4,134.65L119.38,131.55L115.97,130.45L104.17,125.9L100.03,124.13L80.41,114.12L74.51,110.48L62.97,102.09L57.98,97.9L35.55,77.43L22.43,69.97L0,66.59" style="vector-effect: none; fill: none; stroke: rgb(0, 0, 0); stroke-opacity: 0; stroke-width: 2px; opacity: 1;"/></g><g class="points"/><g class="text"/></g></g></g></g><g class="zerolinelayer-above"/><path class="xlines-above crisp" d="M0,0" style="fill: none;"/><path class="ylines-above crisp" d="M0,0" style="fill: none;"/><g class="overlines-above"/><g class="xaxislayer-above"><g class="xtick"><text text-anchor="middle" x="0" y="333" transform="translate(80,0)" style="font-family: 'Open Sans', verdana, arial, sans-serif; font-size: 12px; fill: rgb(42, 63, 95); fill-opacity: 1; white-space: pre;">10</text></g><g class="xtick"><text text-anchor="middle" x="0" y="333" style="font-family: 'Open Sans', verdana, arial, sans-serif; font-size: 12px; fill: rgb(42, 63, 95); fill-opacity: 1; white-space: pre;" transform="translate(154.51,0)">100</text></g><g class="xtick"><text text-anchor="middle" x="0" y="333" style="font-family: 'Open Sans', verdana, arial, sans-serif; font-size: 12px; fill: rgb(42, 63, 95); fill-opacity: 1; white-space: pre;" transform="translate(229.03,0)">1000</text></g><g class="xtick"><text text-anchor="middle" x="0" y="333" style="font-family: 'Open Sans', verdana, arial, sans-serif; font-size: 12px; fill: rgb(42, 63, 95); fill-opacity: 1; white-space: pre;" transform="translate(303.53999999999996,0)">10k</text></g><g class="xtick"><text text-anchor="middle" x="0" y="333" style="font-family: 'Open Sans', verdana, arial, sans-serif; font-size: 12px; fill: rgb(42, 63, 95); fill-opacity: 1; white-space: pre;" transform="translate(378.06,0)">100k</text></g><g class="xtick"><text text-anchor="middle" x="0" y="333" style="font-family: 'Open Sans', verdana, arial, sans-serif; font-size: 12px; fill: rgb(42, 63, 95); fill-opacity: 1; white-space: pre;" transform="translate(452.57,0)">1M</text></g></g><g class="yaxislayer-above"><g class="ytick"><text text-anchor="end" x="79" y="4.199999999999999" transform="translate(0,320)" style="font-family: 'Open Sans', verdana, arial, sans-serif; font-size: 12px; fill: rgb(42, 63, 95); fill-opacity: 1; white-space: pre;">0</text></g><g class="ytick"><text text-anchor="end" x="79" y="4.199999999999999" style="font-family: 'Open Sans', verdana, arial, sans-serif; font-size: 12px; fill: rgb(42, 63, 95); fill-opacity: 1; white-space: pre;" transform="translate(0,265)">0.5</text></g><g class="ytick"><text text-anchor="end" x="79" y="4.199999999999999" style="font-family: 'Open Sans', verdana, arial, sans-serif; font-size: 12px; fill: rgb(42, 63, 95); fill-opacity: 1; white-space: pre;" transform="translate(0,210)">1</text></g><g class="ytick"><text text-anchor="end" x="79" y="4.199999999999999" style="font-family: 'Open Sans', verdana, arial, sans-serif; font-size: 12px; fill: rgb(42, 63, 95); fill-opacity: 1; white-space: pre;" transform="translate(0,155)">1.5</text></g><g class="ytick"><text text-anchor="end" x="79" y="4.199999999999999" style="font-family: 'Open Sans', verdana, arial, sans-serif; font-size: 12px; fill: rgb(42, 63, 95); fill-opacity: 1; white-space: pre;" transform="translate(0,100)">2</text></g></g><g class="overaxes-above"/></g></g><g class="polarlayer"/><g class="smithlayer"/><g class="ternarylayer"/><g class="geolayer"/><g class="funnelarealayer"/><g class="pielayer"/><g class="iciclelayer"/><g class="treemaplayer"/><g class="sunburstlayer"/><g class="glimages"/><defs id="topdefs-9229a0"><g class="clips"/><clipPath id="legend9229a0"><rect width="105" height="58" x="0" y="0"/></clipPath></defs><g class="layer-above"><g class="imagelayer"/><g class="shapelayer"/></g><g class="infolayer"><g class="legend" pointer-events="all" transform="translate(482.90000000000003,100)"><rect class="bg" shape-rendering="crispEdges" style="stroke: rgb(68, 68, 68); stroke-opacity: 1; fill: rgb(255, 255, 255); fill-opacity: 1; stroke-width: 0px;" width="105" height="58" x="0" y="0"/><g class="scrollbox" transform="" clip-path="url(#legend9229a0)"><g class="groups" transform=""><g class="traces" transform="translate(0,14.5)" style="opacity: 1;"><text class="legendtext" text-anchor="start" x="40" y="4.680000000000001" style="font-family: 'Open Sans', verdana, arial, sans-serif; font-size: 12px; fill: rgb(42, 63, 95); fill-opacity: 1; white-space: pre;">gamma-0</text><g class="layers" style="opacity: 1;"><g class="legendfill"/><g class="legendlines"><path class="js-line" d="M5,0h30" style="fill: none; stroke: rgb(231, 248, 191); stroke-opacity: 1; stroke-width: 2px;"/></g><g class="legendsymbols"><g class="legendpoints"/></g></g><rect class="legendtoggle" x="0" y="-9.5" width="99.79296875" height="19" style="fill: rgb(0, 0, 0); fill-opacity: 0;"/></g></g><g class="groups" transform="translate(0,10)"><g class="traces" transform="translate(0,33.5)" style="opacity: 1;"><text class="legendtext" text-anchor="start" x="40" y="4.680000000000001" style="font-family: 'Open Sans', verdana, arial, sans-serif; font-size: 12px; fill: rgb(42, 63, 95); fill-opacity: 1; white-space: pre;">gamma-12</text><g class="layers" style="opacity: 1;"><g class="legendfill"/><g class="legendlines"><path class="js-line" d="M5,0h30" style="fill: none; stroke: rgb(130, 48, 131); stroke-opacity: 1; stroke-width: 2px;"/></g><g class="legendsymbols"><g class="legendpoints"/></g></g><rect class="legendtoggle" x="0" y="-9.5" width="99.79296875" height="19" style="fill: rgb(0, 0, 0); fill-opacity: 0;"/></g></g></g><rect class="scrollbar" rx="20" ry="3" width="0" height="0" style="fill: rgb(128, 139, 164); fill-opacity: 1;" x="0" y="0"/></g><g class="g-gtitle"/><g class="g-xtitle"><text class="xtitle" x="277.5" y="361.3" text-anchor="middle" style="opacity: 1; font-family: 'Open Sans', verdana, arial, sans-serif; font-size: 14px; fill: rgb(42, 63, 95); fill-opacity: 1; white-space: pre;">log(Δt)</text></g><g class="g-ytitle"><text class="ytitle" transform="rotate(-90,42.725,210)" x="42.725" y="210" text-anchor="middle" style="opacity: 1; font-family: 'Open Sans', verdana, arial, sans-serif; font-size: 14px; fill: rgb(42, 63, 95); fill-opacity: 1; white-space: pre;">diffusive exponent</text></g></g></svg>