<svg class="main-svg" xmlns="http://www.w3.org/2000/svg" xmlns:xlink="http://www.w3.org/1999/xlink" width="500" height="350" style="" viewBox="0 0 500 350"><rect x="0" y="0" width="500" height="350" style="fill: rgb(255, 255, 255); fill-opacity: 1;"/><defs id="defs-c2f351"><g class="clips"><clipPath id="clipc2f351xyplot" class="plotclip"><rect width="297" height="170"/></clipPath><clipPath class="axesclip" id="clipc2f351x"><rect x="80" y="0" width="297" height="350"/></clipPath><clipPath class="axesclip" id="clipc2f351y"><rect x="0" y="100" width="500" height="170"/></clipPath><clipPath class="axesclip" id="clipc2f351xy"><rect x="80" y="100" width="297" height="170"/></clipPath></g><g class="gradients"/><g class="patterns"/></defs><g class="bglayer"/><g class="layer-below"><g class="imagelayer"/><g class="shapelayer"/></g><g class="cartesianlayer"><g class="subplot xy"><g class="layer-subplot"><g class="shapelayer"/><g class="imagelayer"/></g><g class="minor-gridlayer"><g class="x"/><g class="y"/></g><g class="gridlayer"><g class="x"><path class="xgrid crisp" transform="translate(136.03,0)" d="M0,100v170" style="stroke: rgb(235, 240, 248); stroke-opacity: 1; stroke-width: 1px;"/><path class="xgrid crisp" transform="translate(248.08,0)" d="M0,100v170" style="stroke: rgb(235, 240, 248); stroke-opacity: 1; stroke-width: 1px;"/><path class="xgrid crisp" transform="translate(360.13,0)" d="M0,100v170" style="stroke: rgb(235, 240, 248); stroke-opacity: 1; stroke-width: 1px;"/></g><g class="y"><path class="ygrid crisp" transform="translate(0,235.32)" d="M80,0h297" style="stroke: rgb(235, 240, 248); stroke-opacity: 1; stroke-width: 1px;"/><path class="ygrid crisp" transform="translate(0,182.57999999999998)" d="M80,0h297" style="stroke: rgb(235, 240, 248); stroke-opacity: 1; stroke-width: 1px;"/><path class="ygrid crisp" transform="translate(0,129.84)" d="M80,0h297" style="stroke: rgb(235, 240, 248); stroke-opacity: 1; stroke-width: 1px;"/></g></g><g class="zerolinelayer"/><g class="layer-between"><g class="shapelayer"/><g class="imagelayer"/></g><path class="xlines-below"/><path class="ylines-below"/><g class="overlines-below"/><g class="xaxislayer-below"/><g class="yaxislayer-below"/><g class="overaxes-below"/><g class="overplot"><g class="xy" transform="translate(80,100)" clip-path="url(#clipc2f351xyplot)"><g class="scatterlayer mlayer"><g class="trace scatter trace688c8f" style="stroke-miterlimit: 2; opacity: 1;"><g class="fills"/><g class="errorbars"/><g class="lines"><path class="js-line" d="M0,49.79L16.87,53.09L26.73,59.69L33.73,67.48L39.16,75.01L53.46,98.74L56.03,103.08L65.89,117.87L68.94,121.34L75.21,126.29L78.32,127.87L87.19,130.48L89.76,131.03L105.05,133.43L108.1,133.61L135.02,135.31L137.96,135.33L156.01,135.46L159.02,135.79L183,136.6L186.01,136.27L204,136.93L207,136.15L210,135.73L213,137L222,141.16L225,141.08L228,140.66L231,141.23L240,141.79L243,143.17L246,144.13L249,143.94L252,144.02L255,143.05L258,140.37L261,138.93" style="vector-effect: none; fill: none; stroke: rgb(231, 248, 191); stroke-opacity: 1; stroke-width: 2px; opacity: 1;"/></g><g class="points"/><g class="text"/></g><g class="trace scatter trace6f112f" style="stroke-miterlimit: 2; opacity: 0.3;"><g class="fills"><g><path class="js-fill" d="M0,47.42L16.87,50.78L26.73,57.38L33.73,65.13L39.16,72.71L50.6,92.12L53.46,97.35L62.41,112.79L65.89,117.78L71.64,124.09L75.21,126.65L81.08,129.23L84.33,130.11L101.94,133.39L105.05,133.56L120.07,134.6L123.03,135.21L129.04,135.41L132,135.18L156.01,134.55L159.02,134.98L168.01,135.61L170.99,135.5L180,136.71L183,136.11L186.01,135.36L189,135.65L201,135.92L204,136.47L210,134.66L213,135.9L222,140.43L225,140.08L231,138.28L234,138.03L237,137.53L240,138.13L246,139.08L249,139.19L255,140.92L258,140.01L261,138.74L261,139.3L258,141.06L252,151.95L249,152.89L246,153.49L243,150.99L240,148.37L237,148.34L234,148.01L231,146.36L228,143.82L225,142.81L222,142.42L219,140.81L210,137.55L207,137.18L201,138.04L198,137.98L189,137.84L186.01,137.79L173.99,136.56L170.99,136.63L156.01,136.95L153,136.43L141.03,135.57L137.96,135.64L129.04,135.23L125.95,135.11L108.1,133.52L105.05,133.2L93.16,131.34L89.76,130.61L78.32,127.26L75.21,125.72L68.94,121.12L65.89,118L60.46,111.29L56.03,104.9L33.73,71.15L26.73,63.24L16.87,56.54L0,53.28Z" style="fill: rgb(231, 248, 191); fill-opacity: 1; stroke-width: 0;"/></g></g><g class="errorbars"/><g class="lines"><path class="js-line" d="M0,47.42L16.87,50.78L26.73,57.38L33.73,65.13L39.16,72.71L50.6,92.12L53.46,97.35L62.41,112.79L65.89,117.78L71.64,124.09L75.21,126.65L81.08,129.23L84.33,130.11L101.94,133.39L105.05,133.56L120.07,134.6L123.03,135.21L129.04,135.41L132,135.18L156.01,134.55L159.02,134.98L168.01,135.61L170.99,135.5L180,136.71L183,136.11L186.01,135.36L189,135.65L201,135.92L204,136.47L210,134.66L213,135.9L222,140.43L225,140.08L231,138.28L234,138.03L237,137.53L240,138.13L246,139.08L249,139.19L255,140.92L258,140.01L261,138.74L261,139.3L258,141.06L252,151.95L249,152.89L246,153.49L243,150.99L240,148.37L237,148.34L234,148.01L231,146.36L228,143.82L225,142.81L222,142.42L219,140.81L210,137.55L207,137.18L201,138.04L198,137.98L189,137.84L186.01,137.79L173.99,136.56L170.99,136.63L156.01,136.95L153,136.43L141.03,135.57L137.96,135.64L129.04,135.23L125.95,135.11L108.1,133.52L105.05,133.2L93.16,131.34L89.76,130.61L78.32,127.26L75.21,125.72L68.94,121.12L65.89,118L60.46,111.29L56.03,104.9L33.73,71.15L26.73,63.24L16.87,56.54L0,53.28" style="vector-effect: none; fill: none; stroke: rgb(0, 0, 0); stroke-opacity: 0; stroke-width: 2px; opacity: 1;"/></g><g class="points"/><g class="text"/></g><g class="trace scatter tracea55734" style="stroke-miterlimit: 2; opacity: 1;"><g class="fills"/><g class="errorbars"/><g class="lines"><path class="js-line" d="M0,8.5L16.87,47.82L26.73,66.43L39.16,85.81L43.6,91.72L53.46,103.16L56.03,105.77L65.89,114.53L68.94,116.86L78.32,122.98L81.08,124.51L93.16,129.89L96.14,130.92L108.1,134.06L111.06,134.61L125.95,136.35L129.04,136.53L150.02,136.63L153,136.55L195,135.78L198,135.9L216,137.5L219,137.95L234,141.04L237,141.85L252,146.94L255,148.17L261,150.86" style="vector-effect: none; fill: none; stroke: rgb(0, 0, 0); stroke-opacity: 1; stroke-dasharray: 9px, 9px; stroke-width: 2px; opacity: 1;"/></g><g class="points"/><g class="text"/></g><g class="trace scatter trace08c904" style="stroke-miterlimit: 2; opacity: 1;"><g class="fills"/><g class="errorbars"/><g class="lines"><path class="js-line" d="M0,92.63L16.87,95.88L26.73,103.09L50.6,130.48L53.46,133.2L62.41,140.53L65.89,142.95L78.32,150.58L81.08,151.99L93.16,157.16L96.14,158.08L108.1,160.65L111.06,160.91L123.03,160.9L125.95,160.62L135.02,159.56L137.96,158.37L146.97,155.78L150.02,154.9L162,151.16L165,150.59L189,144.5L192,143.91L198,142.93L201,141.88L222,136.87L225,136.81L237,135.33L240,133.31L249,126.97L252,125.53L255,123.29L258,118.97L261,115.77L264,114.42L267,111.67L270,110.46L273,108.74L276,105.34L279,100.76L282,93.51L285,85.5L288,80.09L294,74.93L297,73.75" style="vector-effect: none; fill: none; stroke: rgb(130, 48, 131); stroke-opacity: 1; stroke-width: 2px; opacity: 1;"/></g><g class="points"/><g class="text"/></g><g class="trace scatter trace142334" style="stroke-miterlimit: 2; opacity: 0.3;"><g class="fills"><g><path class="js-fill" d="M0,91.64L16.87,94.9L26.73,102.17L53.46,132.83L56.03,135.16L65.89,142.86L68.94,144.96L78.32,150.59L81.08,151.95L93.16,157L96.14,157.92L111.06,160.94L113.93,161.05L120.07,160.81L123.03,160.35L135.02,159.34L137.96,158.14L170.99,146.45L173.99,145.97L177,145.9L180,144.69L189,141.93L192,141.22L195,141.56L198,140.91L210,137.06L213,136.69L219,133.83L222,133.84L225,133.84L228,132.64L237,127.9L240,125.92L246,122L249,121.93L252,121.79L255,120.3L261,115.18L264,115.95L270,112.97L273,110.76L276,107.12L279,101.86L282,94.16L285,83.89L288,75.81L291,72.6L294,70.41L297,69.57L297,80.03L294,81.67L288,86.32L285,87.81L282,92.57L279,99.17L273,105.81L270,106.77L267,107.01L264,112.14L258,121.22L255,127.72L240,143.41L237,145.29L231,141.6L228,140.99L222,140.68L219,141.37L207,143.54L204,143.39L189,147.52L186.01,147.58L180,147.85L177,148.66L170.99,151.27L168.01,152.69L156.01,154.09L153,154.93L137.96,158.63L135.02,159.81L123.03,161.5L120.07,161.41L101.94,159.62L98.8,158.96L89.76,155.98L87.19,154.93L75.21,148.87L71.64,146.72L60.46,139.27L56.03,135.79L47.35,127.74L43.6,123.72L26.73,104.09L16.87,96.93L0,93.69Z" style="fill: rgb(130, 48, 131); fill-opacity: 1; stroke-width: 0;"/></g></g><g class="errorbars"/><g class="lines"><path class="js-line" d="M0,91.64L16.87,94.9L26.73,102.17L53.46,132.83L56.03,135.16L65.89,142.86L68.94,144.96L78.32,150.59L81.08,151.95L93.16,157L96.14,157.92L111.06,160.94L113.93,161.05L120.07,160.81L123.03,160.35L135.02,159.34L137.96,158.14L170.99,146.45L173.99,145.97L177,145.9L180,144.69L189,141.93L192,141.22L195,141.56L198,140.91L210,137.06L213,136.69L219,133.83L222,133.84L225,133.84L228,132.64L237,127.9L240,125.92L246,122L249,121.93L252,121.79L255,120.3L261,115.18L264,115.95L270,112.97L273,110.76L276,107.12L279,101.86L282,94.16L285,83.89L288,75.81L291,72.6L294,70.41L297,69.57L297,80.03L294,81.67L288,86.32L285,87.81L282,92.57L279,99.17L273,105.81L270,106.77L267,107.01L264,112.14L258,121.22L255,127.72L240,143.41L237,145.29L231,141.6L228,140.99L222,140.68L219,141.37L207,143.54L204,143.39L189,147.52L186.01,147.58L180,147.85L177,148.66L170.99,151.27L168.01,152.69L156.01,154.09L153,154.93L137.96,158.63L135.02,159.81L123.03,161.5L120.07,161.41L101.94,159.62L98.8,158.96L89.76,155.98L87.19,154.93L75.21,148.87L71.64,146.72L60.46,139.27L56.03,135.79L47.35,127.74L43.6,123.72L26.73,104.09L16.87,96.93L0,93.69" style="vector-effect: none; fill: none; stroke: rgb(0, 0, 0); stroke-opacity: 0; stroke-width: 2px; opacity: 1;"/></g><g class="points"/><g class="text"/></g><g class="trace scatter trace3424ae" style="stroke-miterlimit: 2; opacity: 1;"><g class="fills"/><g class="errorbars"/><g class="lines"><path class="js-line" d="M0,54.87L16.87,90.38L26.73,106.6L39.16,122.95L43.6,127.8L53.46,136.93L56.03,138.96L65.89,145.58L68.94,147.27L78.32,151.56L81.08,152.58L93.16,155.88L96.14,156.44L108.1,157.83L111.06,157.98L125.95,157.83L129.04,157.64L146.97,155.64L150.02,155.18L173.99,150.61L177,149.93L201,143.68L204,142.78L225,135.45L228,134.23L243,127.23L246,125.62L258,118.36L261,116.31L273,107L276,104.36L288,92.36L291,88.97L297,81.65" style="vector-effect: none; fill: none; stroke: rgb(0, 0, 0); stroke-opacity: 1; stroke-dasharray: 9px, 9px; stroke-width: 2px; opacity: 1;"/></g><g class="points"/><g class="text"/></g></g></g></g><g class="zerolinelayer-above"/><path class="xlines-above crisp" d="M0,0" style="fill: none;"/><path class="ylines-above crisp" d="M0,0" style="fill: none;"/><g class="overlines-above"/><g class="xaxislayer-above"><g class="xtick"><text text-anchor="middle" x="0" y="283" transform="translate(136.03,0)" style="font-family: 'Open Sans', verdana, arial, sans-serif; font-size: 12px; fill: rgb(42, 63, 95); fill-opacity: 1; white-space: pre;">100</text></g><g class="xtick"><text text-anchor="middle" x="0" y="283" style="font-family: 'Open Sans', verdana, arial, sans-serif; font-size: 12px; fill: rgb(42, 63, 95); fill-opacity: 1; white-space: pre;" transform="translate(248.08,0)">10k</text></g><g class="xtick"><text text-anchor="middle" x="0" y="283" style="font-family: 'Open Sans', verdana, arial, sans-serif; font-size: 12px; fill: rgb(42, 63, 95); fill-opacity: 1; white-space: pre;" transform="translate(360.13,0)">1M</text></g></g><g class="yaxislayer-above"><g class="ytick"><text text-anchor="end" x="79" y="4.199999999999999" transform="translate(0,235.32)" style="font-family: 'Open Sans', verdana, arial, sans-serif; font-size: 12px; fill: rgb(42, 63, 95); fill-opacity: 1; white-space: pre;">1</text></g><g class="ytick"><text text-anchor="end" x="79" y="4.199999999999999" style="font-family: 'Open Sans', verdana, arial, sans-serif; font-size: 12px; fill: rgb(42, 63, 95); fill-opacity: 1; white-space: pre;" transform="translate(0,182.57999999999998)">1.5</text></g><g class="ytick"><text text-anchor="end" x="79" y="4.199999999999999" style="font-family: 'Open Sans', verdana, arial, sans-serif; font-size: 12px; fill: rgb(42, 63, 95); fill-opacity: 1; white-space: pre;" transform="translate(0,129.84)">2</text></g></g><g class="overaxes-above"/></g></g><g class="polarlayer"/><g class="smithlayer"/><g class="ternarylayer"/><g class="geolayer"/><g class="funnelarealayer"/><g class="pielayer"/><g class="iciclelayer"/><g class="treemaplayer"/><g class="sunburstlayer"/><g class="glimages"/><defs id="topdefs-c2f351"><g class="clips"/><clipPath id="legendc2f351"><rect width="105" height="58" x="0" y="0"/></clipPath></defs><g class="layer-above"><g class="imagelayer"/><g class="shapelayer"/></g><g class="infolayer"><g class="legend" pointer-events="all" transform="translate(382.94,100)"><rect class="bg" shape-rendering="crispEdges" style="stroke: rgb(68, 68, 68); stroke-opacity: 1; fill: rgb(255, 255, 255); fill-opacity: 1; stroke-width: 0px;" width="105" height="58" x="0" y="0"/><g class="scrollbox" transform="" clip-path="url(#legendc2f351)"><g class="groups" transform=""><g class="traces" transform="translate(0,14.5)" style="opacity: 1;"><text class="legendtext" text-anchor="start" x="40" y="4.680000000000001" style="font-family: 'Open Sans', verdana, arial, sans-serif; font-size: 12px; fill: rgb(42, 63, 95); fill-opacity: 1; white-space: pre;">gamma-0</text><g class="layers" style="opacity: 1;"><g class="legendfill"/><g class="legendlines"><path class="js-line" d="M5,0h30" style="fill: none; stroke: rgb(231, 248, 191); stroke-opacity: 1; stroke-width: 2px;"/></g><g class="legendsymbols"><g class="legendpoints"/></g></g><rect class="legendtoggle" x="0" y="-9.5" width="99.79296875" height="19" style="fill: rgb(0, 0, 0); fill-opacity: 0;"/></g></g><g class="groups" transform="translate(0,10)"><g class="traces" transform="translate(0,33.5)" style="opacity: 1;"><text class="legendtext" text-anchor="start" x="40" y="4.680000000000001" style="font-family: 'Open Sans', verdana, arial, sans-serif; font-size: 12px; fill: rgb(42, 63, 95); fill-opacity: 1; white-space: pre;">gamma-12</text><g class="layers" style="opacity: 1;"><g class="legendfill"/><g class="legendlines"><path class="js-line" d="M5,0h30" style="fill: none; stroke: rgb(130, 48, 131); stroke-opacity: 1; stroke-width: 2px;"/></g><g class="legendsymbols"><g class="legendpoints"/></g></g><rect class="legendtoggle" x="0" y="-9.5" width="99.79296875" height="19" style="fill: rgb(0, 0, 0); fill-opacity: 0;"/></g></g></g><rect class="scrollbar" rx="20" ry="3" width="0" height="0" style="fill: rgb(128, 139, 164); fill-opacity: 1;" x="0" y="0"/></g><g class="g-gtitle"/><g class="g-xtitle"><text class="xtitle" x="228.5" y="311.3" text-anchor="middle" style="opacity: 1; font-family: 'Open Sans', verdana, arial, sans-serif; font-size: 14px; fill: rgb(42, 63, 95); fill-opacity: 1; white-space: pre;">log(Δtime)</text></g><g class="g-ytitle"><text class="ytitle" transform="rotate(-90,42.725,185)" x="42.725" y="185" text-anchor="middle" style="opacity: 1; font-family: 'Open Sans', verdana, arial, sans-serif; font-size: 14px; fill: rgb(42, 63, 95); fill-opacity: 1; white-space: pre;">diffusive exponent</text></g></g></svg>