<svg class="main-svg" xmlns="http://www.w3.org/2000/svg" xmlns:xlink="http://www.w3.org/1999/xlink" width="500" height="500" style="" viewBox="0 0 500 500"><rect x="0" y="0" width="500" height="500" style="fill: rgb(255, 255, 255); fill-opacity: 1;"/><defs id="defs-8e0177"><g class="clips"><clipPath id="clip8e0177xyplot" class="plotclip"><rect width="297" height="320"/></clipPath><clipPath class="axesclip" id="clip8e0177x"><rect x="80" y="0" width="297" height="500"/></clipPath><clipPath class="axesclip" id="clip8e0177y"><rect x="0" y="100" width="500" height="320"/></clipPath><clipPath class="axesclip" id="clip8e0177xy"><rect x="80" y="100" width="297" height="320"/></clipPath></g><g class="gradients"/><g class="patterns"/></defs><g class="bglayer"/><g class="layer-below"><g class="imagelayer"/><g class="shapelayer"/></g><g class="cartesianlayer"><g class="subplot xy"><g class="layer-subplot"><g class="shapelayer"/><g class="imagelayer"/></g><g class="minor-gridlayer"><g class="x"/><g class="y"/></g><g class="gridlayer"><g class="x"><path class="xgrid crisp" transform="translate(136.03,0)" d="M0,100v320" style="stroke: rgb(235, 240, 248); stroke-opacity: 1; stroke-width: 1px;"/><path class="xgrid crisp" transform="translate(248.08,0)" d="M0,100v320" style="stroke: rgb(235, 240, 248); stroke-opacity: 1; stroke-width: 1px;"/><path class="xgrid crisp" transform="translate(360.13,0)" d="M0,100v320" style="stroke: rgb(235, 240, 248); stroke-opacity: 1; stroke-width: 1px;"/></g><g class="y"><path class="ygrid crisp" transform="translate(0,403.65)" d="M80,0h297" style="stroke: rgb(235, 240, 248); stroke-opacity: 1; stroke-width: 1px;"/><path class="ygrid crisp" transform="translate(0,358.48)" d="M80,0h297" style="stroke: rgb(235, 240, 248); stroke-opacity: 1; stroke-width: 1px;"/><path class="ygrid crisp" transform="translate(0,313.32)" d="M80,0h297" style="stroke: rgb(235, 240, 248); stroke-opacity: 1; stroke-width: 1px;"/><path class="ygrid crisp" transform="translate(0,268.15999999999997)" d="M80,0h297" style="stroke: rgb(235, 240, 248); stroke-opacity: 1; stroke-width: 1px;"/><path class="ygrid crisp" transform="translate(0,223)" d="M80,0h297" style="stroke: rgb(235, 240, 248); stroke-opacity: 1; stroke-width: 1px;"/><path class="ygrid crisp" transform="translate(0,177.84)" d="M80,0h297" style="stroke: rgb(235, 240, 248); stroke-opacity: 1; stroke-width: 1px;"/><path class="ygrid crisp" transform="translate(0,132.68)" d="M80,0h297" style="stroke: rgb(235, 240, 248); stroke-opacity: 1; stroke-width: 1px;"/></g></g><g class="zerolinelayer"/><g class="layer-between"><g class="shapelayer"/><g class="imagelayer"/></g><path class="xlines-below"/><path class="ylines-below"/><g class="overlines-below"/><g class="xaxislayer-below"/><g class="yaxislayer-below"/><g class="overaxes-below"/><g class="overplot"><g class="xy" transform="translate(80,100)" clip-path="url(#clip8e0177xyplot)"><g class="scatterlayer mlayer"><g class="trace scatter tracee4a218" style="stroke-miterlimit: 2; opacity: 1;"><g class="fills"/><g class="errorbars"/><g class="lines"><path class="js-line" d="M0,266L33.73,217.87L39.16,210.82L53.46,193.96L56.03,191.22L71.64,176.17L75.21,173.02L108.1,145.45L111.06,143.02L195,75.51L198,73.11L243,38.19L246,35.97L261,24.72" style="vector-effect: none; fill: none; stroke: rgb(231, 248, 191); stroke-opacity: 1; stroke-width: 2px; opacity: 1;"/></g><g class="points"/><g class="text"/></g><g class="trace scatter traceb2d1e6" style="stroke-miterlimit: 2; opacity: 0.3;"><g class="fills"><g><path class="js-fill" d="M0,272.44L33.73,225.88L39.16,219.1L53.46,202.82L56.03,200.15L71.64,185.17L75.21,181.98L101.94,159.39L105.05,156.83L165,108.83L168.01,106.45L189,90.37L192,88.17L219,69.23L222,67.23L258,43.03L261,40.55L261,16L258,18.41L170.99,86.63L168.01,89.01L129.04,120.74L125.95,123.23L78.32,162.58L75.21,165.26L60.46,178.88L56.03,183.48L43.6,197.88L39.16,203.53L26.73,220.48L16.87,234.78L0,259.92Z" style="fill: rgb(231, 248, 191); fill-opacity: 1; stroke-width: 0;"/></g></g><g class="errorbars"/><g class="lines"><path class="js-line" d="M0,272.44L33.73,225.88L39.16,219.1L53.46,202.82L56.03,200.15L71.64,185.17L75.21,181.98L101.94,159.39L105.05,156.83L165,108.83L168.01,106.45L189,90.37L192,88.17L219,69.23L222,67.23L258,43.03L261,40.55L261,16L258,18.41L170.99,86.63L168.01,89.01L129.04,120.74L125.95,123.23L78.32,162.58L75.21,165.26L60.46,178.88L56.03,183.48L43.6,197.88L39.16,203.53L26.73,220.48L16.87,234.78L0,259.92" style="vector-effect: none; fill: none; stroke: rgb(0, 0, 0); stroke-opacity: 0; stroke-width: 2px; opacity: 1;"/></g><g class="points"/><g class="text"/></g><g class="trace scatter trace33bad4" style="stroke-miterlimit: 2; opacity: 1;"><g class="fills"/><g class="errorbars"/><g class="lines"><path class="js-line" d="M0,302.59L26.73,272.71L33.73,265.55L50.6,250.13L53.46,247.75L71.64,233.8L75.21,231.27L98.8,215.71L101.94,213.75L159.02,177.85L162,175.81L189,156.59L192,154.37L222,131.38L225,129L252,106.7L255,104.03L270,89.66L273,86.68L285,73.71L288,70.06L297,58.74" style="vector-effect: none; fill: none; stroke: rgb(130, 48, 131); stroke-opacity: 1; stroke-width: 2px; opacity: 1;"/></g><g class="points"/><g class="text"/></g><g class="trace scatter trace82bd41" style="stroke-miterlimit: 2; opacity: 0.3;"><g class="fills"><g><path class="js-fill" d="M0,303.48L26.73,274.03L33.73,266.98L50.6,251.77L53.46,249.4L71.64,235.41L75.21,232.84L93.16,220.9L96.14,219.06L173.99,170.52L177,168.46L210,145.66L213,143.34L231,130.16L234,128.35L246,120.65L249,118.52L261,107.41L264,104.42L273,94.76L276,91.05L282,83.93L285,80.94L291,73.58L294,69.44L297,65.08L297,49.23L276,76.61L273,79.83L258,93.86L255,96.69L222,127.79L219,130.22L189,153.85L186.01,156.04L159.02,175.78L156.01,177.83L123.03,199.24L120.07,201.04L84.33,223.31L81.08,225.52L60.46,240.55L56.03,244.08L39.16,258.83L33.73,264.11L16.87,282.25L0,301.55Z" style="fill: rgb(130, 48, 131); fill-opacity: 1; stroke-width: 0;"/></g></g><g class="errorbars"/><g class="lines"><path class="js-line" d="M0,303.48L26.73,274.03L33.73,266.98L50.6,251.77L53.46,249.4L71.64,235.41L75.21,232.84L93.16,220.9L96.14,219.06L173.99,170.52L177,168.46L210,145.66L213,143.34L231,130.16L234,128.35L246,120.65L249,118.52L261,107.41L264,104.42L273,94.76L276,91.05L282,83.93L285,80.94L291,73.58L294,69.44L297,65.08L297,49.23L276,76.61L273,79.83L258,93.86L255,96.69L222,127.79L219,130.22L189,153.85L186.01,156.04L159.02,175.78L156.01,177.83L123.03,199.24L120.07,201.04L84.33,223.31L81.08,225.52L60.46,240.55L56.03,244.08L39.16,258.83L33.73,264.11L16.87,282.25L0,301.55" style="vector-effect: none; fill: none; stroke: rgb(0, 0, 0); stroke-opacity: 0; stroke-width: 2px; opacity: 1;"/></g><g class="points"/><g class="text"/></g><g class="trace scatter tracec18c9c" style="stroke-miterlimit: 2; opacity: 1;"><g class="fills"/><g class="errorbars"/><g class="lines"><path class="js-line" d="M0,267.22L16.87,239.92L26.73,226.09L43.6,205.33L47.35,201.13L65.89,182.03L68.94,179.12L89.76,160.42L93.16,157.52L125.95,130.75L129.04,128.28L243,38.05L246,35.83L261,25.15" style="vector-effect: none; fill: none; stroke: rgb(0, 0, 0); stroke-opacity: 1; stroke-dasharray: 9px, 9px; stroke-width: 2px; opacity: 1;"/></g><g class="points"/><g class="text"/></g><g class="trace scatter trace90fca5" style="stroke-miterlimit: 2; opacity: 1;"><g class="fills"/><g class="errorbars"/><g class="lines"><path class="js-line" d="M0,304L16.87,282.44L26.73,271.73L43.6,255.88L47.35,252.7L65.89,238.29L68.94,236.09L93.16,219.7L96.14,217.77L177,165.21L180,163.12L210,141.22L213,138.92L240,117.02L243,114.43L264,95.22L267,92.29L285,73.49L288,70.13L297,59.56" style="vector-effect: none; fill: none; stroke: rgb(0, 0, 0); stroke-opacity: 1; stroke-dasharray: 9px, 9px; stroke-width: 2px; opacity: 1;"/></g><g class="points"/><g class="text"/></g></g></g></g><g class="zerolinelayer-above"/><path class="xlines-above crisp" d="M0,0" style="fill: none;"/><path class="ylines-above crisp" d="M0,0" style="fill: none;"/><g class="overlines-above"/><g class="xaxislayer-above"><g class="xtick"><text text-anchor="middle" x="0" y="433" transform="translate(136.03,0)" style="font-family: 'Open Sans', verdana, arial, sans-serif; font-size: 12px; fill: rgb(42, 63, 95); fill-opacity: 1; white-space: pre;">100</text></g><g class="xtick"><text text-anchor="middle" x="0" y="433" style="font-family: 'Open Sans', verdana, arial, sans-serif; font-size: 12px; fill: rgb(42, 63, 95); fill-opacity: 1; white-space: pre;" transform="translate(248.08,0)">10k</text></g><g class="xtick"><text text-anchor="middle" x="0" y="433" style="font-family: 'Open Sans', verdana, arial, sans-serif; font-size: 12px; fill: rgb(42, 63, 95); fill-opacity: 1; white-space: pre;" transform="translate(360.13,0)">1M</text></g></g><g class="yaxislayer-above"><g class="ytick"><text text-anchor="end" x="79" y="4.199999999999999" transform="translate(0,403.65)" style="font-family: 'Open Sans', verdana, arial, sans-serif; font-size: 12px; fill: rgb(42, 63, 95); fill-opacity: 1; white-space: pre;">0.1</text></g><g class="ytick"><text text-anchor="end" x="79" y="4.199999999999999" style="font-family: 'Open Sans', verdana, arial, sans-serif; font-size: 12px; fill: rgb(42, 63, 95); fill-opacity: 1; white-space: pre;" transform="translate(0,358.48)">1</text></g><g class="ytick"><text text-anchor="end" x="79" y="4.199999999999999" style="font-family: 'Open Sans', verdana, arial, sans-serif; font-size: 12px; fill: rgb(42, 63, 95); fill-opacity: 1; white-space: pre;" transform="translate(0,313.32)">10</text></g><g class="ytick"><text text-anchor="end" x="79" y="4.199999999999999" style="font-family: 'Open Sans', verdana, arial, sans-serif; font-size: 12px; fill: rgb(42, 63, 95); fill-opacity: 1; white-space: pre;" transform="translate(0,268.15999999999997)">100</text></g><g class="ytick"><text text-anchor="end" x="79" y="4.199999999999999" style="font-family: 'Open Sans', verdana, arial, sans-serif; font-size: 12px; fill: rgb(42, 63, 95); fill-opacity: 1; white-space: pre;" transform="translate(0,223)">1000</text></g><g class="ytick"><text text-anchor="end" x="79" y="4.199999999999999" style="font-family: 'Open Sans', verdana, arial, sans-serif; font-size: 12px; fill: rgb(42, 63, 95); fill-opacity: 1; white-space: pre;" transform="translate(0,177.84)">10k</text></g><g class="ytick"><text text-anchor="end" x="79" y="4.199999999999999" style="font-family: 'Open Sans', verdana, arial, sans-serif; font-size: 12px; fill: rgb(42, 63, 95); fill-opacity: 1; white-space: pre;" transform="translate(0,132.68)">100k</text></g></g><g class="overaxes-above"/></g></g><g class="polarlayer"/><g class="smithlayer"/><g class="ternarylayer"/><g class="geolayer"/><g class="funnelarealayer"/><g class="pielayer"/><g class="iciclelayer"/><g class="treemaplayer"/><g class="sunburstlayer"/><g class="glimages"/><defs id="topdefs-8e0177"><g class="clips"/><clipPath id="legend8e0177"><rect width="105" height="58" x="0" y="0"/></clipPath></defs><g class="layer-above"><g class="imagelayer"/><g class="shapelayer"/></g><g class="infolayer"><g class="legend" pointer-events="all" transform="translate(382.94,100)"><rect class="bg" shape-rendering="crispEdges" style="stroke: rgb(68, 68, 68); stroke-opacity: 1; fill: rgb(255, 255, 255); fill-opacity: 1; stroke-width: 0px;" width="105" height="58" x="0" y="0"/><g class="scrollbox" transform="" clip-path="url(#legend8e0177)"><g class="groups" transform=""><g class="traces" transform="translate(0,14.5)" style="opacity: 1;"><text class="legendtext" text-anchor="start" x="40" y="4.680000000000001" style="font-family: 'Open Sans', verdana, arial, sans-serif; font-size: 12px; fill: rgb(42, 63, 95); fill-opacity: 1; white-space: pre;">gamma-0</text><g class="layers" style="opacity: 1;"><g class="legendfill"/><g class="legendlines"><path class="js-line" d="M5,0h30" style="fill: none; stroke: rgb(231, 248, 191); stroke-opacity: 1; stroke-width: 2px;"/></g><g class="legendsymbols"><g class="legendpoints"/></g></g><rect class="legendtoggle" x="0" y="-9.5" width="99.79296875" height="19" style="fill: rgb(0, 0, 0); fill-opacity: 0;"/></g></g><g class="groups" transform="translate(0,10)"><g class="traces" transform="translate(0,33.5)" style="opacity: 1;"><text class="legendtext" text-anchor="start" x="40" y="4.680000000000001" style="font-family: 'Open Sans', verdana, arial, sans-serif; font-size: 12px; fill: rgb(42, 63, 95); fill-opacity: 1; white-space: pre;">gamma-12</text><g class="layers" style="opacity: 1;"><g class="legendfill"/><g class="legendlines"><path class="js-line" d="M5,0h30" style="fill: none; stroke: rgb(130, 48, 131); stroke-opacity: 1; stroke-width: 2px;"/></g><g class="legendsymbols"><g class="legendpoints"/></g></g><rect class="legendtoggle" x="0" y="-9.5" width="99.79296875" height="19" style="fill: rgb(0, 0, 0); fill-opacity: 0;"/></g></g></g><rect class="scrollbar" rx="20" ry="3" width="0" height="0" style="fill: rgb(128, 139, 164); fill-opacity: 1;" x="0" y="0"/></g><g class="g-gtitle"/><g class="g-xtitle"><text class="xtitle" x="228.5" y="461.3" text-anchor="middle" style="opacity: 1; font-family: 'Open Sans', verdana, arial, sans-serif; font-size: 14px; fill: rgb(42, 63, 95); fill-opacity: 1; white-space: pre;">log(Δtime)</text></g><g class="g-ytitle"><text class="ytitle" transform="rotate(-90,32.146875,260)" x="32.146875" y="260" text-anchor="middle" style="opacity: 1; font-family: 'Open Sans', verdana, arial, sans-serif; font-size: 14px; fill: rgb(42, 63, 95); fill-opacity: 1; white-space: pre;">log(MSD)</text></g></g></svg>