<svg class="main-svg" xmlns="http://www.w3.org/2000/svg" xmlns:xlink="http://www.w3.org/1999/xlink" width="300" height="300" style="" viewBox="0 0 300 300"><rect x="0" y="0" width="300" height="300" style="fill: rgb(255, 255, 255); fill-opacity: 1;"/><defs id="defs-109966"><g class="clips"><clipPath id="clip109966polar-for-traces"><path d="M70,0A70,70 0,1,0 -70,-8.572527594031473e-15A70,70 0,1,0 70,1.7145055188062946e-14Z" transform="translate(70,70)"/></clipPath></g><g class="gradients"/><g class="patterns"/></defs><g class="bglayer"/><g class="layer-below"><g class="imagelayer"/><g class="shapelayer"/></g><g class="cartesianlayer"/><g class="polarlayer"><g class="polar"><g class="polarsublayer draglayer"/><g class="polarsublayer plotbg"><path d="M70,0A70,70 0,1,0 -70,-8.572527594031473e-15A70,70 0,1,0 70,1.7145055188062946e-14Z" transform="translate(150,140)" style="fill: rgb(255, 255, 255); fill-opacity: 1;"/></g><g class="polarsublayer backplot"><g class="maplayer"/></g><g class="polarsublayer angular-grid" style="fill: none;"><path class="angularaxisgrid" d="M150,140L150,70" style="stroke: rgb(235, 240, 248); stroke-opacity: 1; stroke-width: 1px;"/><path class="angularaxisgrid" d="M150,140L100.50252531694167,90.50252531694167" style="stroke: rgb(235, 240, 248); stroke-opacity: 1; stroke-width: 1px;"/><path class="angularaxisgrid" d="M150,140L80,140" style="stroke: rgb(235, 240, 248); stroke-opacity: 1; stroke-width: 1px;"/><path class="angularaxisgrid" d="M150,140L100.50252531694167,189.49747468305833" style="stroke: rgb(235, 240, 248); stroke-opacity: 1; stroke-width: 1px;"/><path class="angularaxisgrid" d="M150,140L150,210" style="stroke: rgb(235, 240, 248); stroke-opacity: 1; stroke-width: 1px;"/><path class="angularaxisgrid" d="M150,140L199.49747468305833,189.49747468305833" style="stroke: rgb(235, 240, 248); stroke-opacity: 1; stroke-width: 1px;"/><path class="angularaxisgrid" d="M150,140L220,140.00000000000003" style="stroke: rgb(235, 240, 248); stroke-opacity: 1; stroke-width: 1px;"/><path class="angularaxisgrid" d="M150,140L199.49747468305833,90.50252531694169" style="stroke: rgb(235, 240, 248); stroke-opacity: 1; stroke-width: 1px;"/></g><g class="polarsublayer radial-grid" display="none" style="fill: none;"/><g class="polarsublayer frontplot" transform="translate(80,70)"><g class="barlayer"><g class="trace bars" clip-path="url(#clip109966polar-for-traces)" style="opacity: 1;"><g class="points"><g class="point" style="vector-effect: none; stroke-miterlimit: 2;"><path d="M70,70L120.80146887731696,46.70739439355446A55.88680270001516,55.88680270001516 0,0,0 111.73746453634735,32.8339029476114L70,70A0,0 0,0,1 70,70Z" style="opacity: 1; stroke-width: 0.5px; fill: rgb(136, 204, 238); fill-opacity: 1; stroke: rgb(255, 255, 255); stroke-opacity: 1;"/></g><g class="point" style="vector-effect: none; stroke-miterlimit: 2;"><path d="M70,70L70.90403822915619,124.6702353501741A54.677709520088726,54.677709520088726 0,0,0 86.89634145520427,122.00159193517393L70,70A0,0 0,0,1 70,70Z" style="opacity: 1; stroke-width: 0.5px; fill: rgb(136, 204, 238); fill-opacity: 1; stroke: rgb(255, 255, 255); stroke-opacity: 1;"/></g><g class="point" style="vector-effect: none; stroke-miterlimit: 2;"><path d="M70,70L15.049942146587327,84.88624662487902A56.930740348867076,56.930740348867076 0,0,0 21.831170874014553,100.34589094592113L70,70A0,0 0,0,1 70,70Z" style="opacity: 1; stroke-width: 0.5px; fill: rgb(136, 204, 238); fill-opacity: 1; stroke: rgb(255, 255, 255); stroke-opacity: 1;"/></g><g class="point" style="vector-effect: none; stroke-miterlimit: 2;"><path d="M70,70L129.58280450719343,84.04433066564654A61.21563376122514,61.21563376122514 0,0,0 131.08179356578415,65.95422299485267L70,70A0,0 0,0,1 70,70Z" style="opacity: 1; stroke-width: 0.5px; fill: rgb(136, 204, 238); fill-opacity: 1; stroke: rgb(255, 255, 255); stroke-opacity: 1;"/></g><g class="point" style="vector-effect: none; stroke-miterlimit: 2;"><path d="M70,70L53.831205563172624,119.76243245419441A52.323317911793794,52.323317911793794 0,0,0 69.13488915165372,122.31616557545779L70,70A0,0 0,0,1 70,70Z" style="opacity: 1; stroke-width: 0.5px; fill: rgb(136, 204, 238); fill-opacity: 1; stroke: rgb(255, 255, 255); stroke-opacity: 1;"/></g><g class="point" style="vector-effect: none; stroke-miterlimit: 2;"><path d="M70,70L113.84825047794783,28.274586871152593A60.528333619469855,60.528333619469855 0,0,0 99.68451745468244,17.250510957616868L70,70A0,0 0,0,1 70,70Z" style="opacity: 1; stroke-width: 0.5px; fill: rgb(136, 204, 238); fill-opacity: 1; stroke: rgb(255, 255, 255); stroke-opacity: 1;"/></g><g class="point" style="vector-effect: none; stroke-miterlimit: 2;"><path d="M70,70L39.22831683405376,15.318613770434418A62.745123195769594,62.745123195769594 0,0,0 24.54585127926253,26.746435419431805L70,70A0,0 0,0,1 70,70Z" style="opacity: 1; stroke-width: 0.5px; fill: rgb(136, 204, 238); fill-opacity: 1; stroke: rgb(255, 255, 255); stroke-opacity: 1;"/></g><g class="point" style="vector-effect: none; stroke-miterlimit: 2;"><path d="M70,70L79.14477907965816,9.002513849344098A61.679172344602776,61.679172344602776 0,0,0 60.85522092034188,9.00251384934409L70,70A0,0 0,0,1 70,70Z" style="opacity: 1; stroke-width: 0.5px; fill: rgb(136, 204, 238); fill-opacity: 1; stroke: rgb(255, 255, 255); stroke-opacity: 1;"/></g><g class="point" style="vector-effect: none; stroke-miterlimit: 2;"><path d="M70,70L38.00972656546935,112.53376214147903A53.221222424179174,53.221222424179174 0,0,0 51.8891812736113,120.04494741114073L70,70A0,0 0,0,1 70,70Z" style="opacity: 1; stroke-width: 0.5px; fill: rgb(136, 204, 238); fill-opacity: 1; stroke: rgb(255, 255, 255); stroke-opacity: 1;"/></g><g class="point" style="vector-effect: none; stroke-miterlimit: 2;"><path d="M70,70L116.8105504823084,99.49018869317612A55.32539078593007,55.32539078593007 0,0,0 123.40056015115601,84.46647991595205L70,70A0,0 0,0,1 70,70Z" style="opacity: 1; stroke-width: 0.5px; fill: rgb(136, 204, 238); fill-opacity: 1; stroke: rgb(255, 255, 255); stroke-opacity: 1;"/></g><g class="point" style="vector-effect: none; stroke-miterlimit: 2;"><path d="M70,70L13.20581395137075,66.23821439208169A56.918631395055996,56.918631395055996 0,0,0 14.599582184236631,83.05849553834983L70,70A0,0 0,0,1 70,70Z" style="opacity: 1; stroke-width: 0.5px; fill: rgb(136, 204, 238); fill-opacity: 1; stroke: rgb(255, 255, 255); stroke-opacity: 1;"/></g><g class="point" style="vector-effect: none; stroke-miterlimit: 2;"><path d="M70,70L22.561410454476068,27.757203446271653A63.52065521346876,63.52065521346876 0,0,0 12.259309300352257,43.5257431402506L70,70A0,0 0,0,1 70,70Z" style="opacity: 1; stroke-width: 0.5px; fill: rgb(136, 204, 238); fill-opacity: 1; stroke: rgb(255, 255, 255); stroke-opacity: 1;"/></g><g class="point" style="vector-effect: none; stroke-miterlimit: 2;"><path d="M70,70L22.46089349092108,102.19276392949521A57.41376748743944,57.41376748743944 0,0,0 33.991442380981326,114.71827898409744L70,70A0,0 0,0,1 70,70Z" style="opacity: 1; stroke-width: 0.5px; fill: rgb(136, 204, 238); fill-opacity: 1; stroke: rgb(255, 255, 255); stroke-opacity: 1;"/></g><g class="point" style="vector-effect: none; stroke-miterlimit: 2;"><path d="M70,70L101.92745715790706,109.65004517942754A50.90666560776335,50.90666560776335 0,0,0 112.15116868752722,98.5441339258395L70,70A0,0 0,0,1 70,70Z" style="opacity: 1; stroke-width: 0.5px; fill: rgb(136, 204, 238); fill-opacity: 1; stroke: rgb(255, 255, 255); stroke-opacity: 1;"/></g><g class="point" style="vector-effect: none; stroke-miterlimit: 2;"><path d="M70,70L120.49508558230556,64.97397401387296A50.74460173434793,50.74460173434793 0,0,0 116.80122629999674,50.38725358359824L70,70A0,0 0,0,1 70,70Z" style="opacity: 1; stroke-width: 0.5px; fill: rgb(136, 204, 238); fill-opacity: 1; stroke: rgb(255, 255, 255); stroke-opacity: 1;"/></g><g class="point" style="vector-effect: none; stroke-miterlimit: 2;"><path d="M70,70L57.97144446691468,4.596912520986578A66.5,66.5 0,0,0 39.320812661917294,10.999682506999797L70,70A0,0 0,0,1 70,70Z" style="opacity: 1; stroke-width: 0.5px; fill: rgb(136, 204, 238); fill-opacity: 1; stroke: rgb(255, 255, 255); stroke-opacity: 1;"/></g><g class="point" style="vector-effect: none; stroke-miterlimit: 2;"><path d="M70,70L97.23371151198532,17.62580872781607A59.031609787751414,59.031609787751414 0,0,0 80.67766912089313,11.94211219586029L70,70A0,0 0,0,1 70,70Z" style="opacity: 1; stroke-width: 0.5px; fill: rgb(136, 204, 238); fill-opacity: 1; stroke: rgb(255, 255, 255); stroke-opacity: 1;"/></g><g class="point" style="vector-effect: none; stroke-miterlimit: 2;"><path d="M70,70L86.00311921079468,114.22082024108089A47.02744695673894,47.02744695673894 0,0,0 98.2673117705482,107.58377113243856L70,70A0,0 0,0,1 70,70Z" style="opacity: 1; stroke-width: 0.5px; fill: rgb(136, 204, 238); fill-opacity: 1; stroke: rgb(255, 255, 255); stroke-opacity: 1;"/></g><g class="point" style="vector-effect: none; stroke-miterlimit: 2;"><path d="M70,70L14.037449960661348,46.54806530706608A60.677839840811075,60.677839840811075 0,0,0 9.62051901104438,63.99013117851419L70,70A0,0 0,0,1 70,70Z" style="opacity: 1; stroke-width: 0.5px; fill: rgb(136, 204, 238); fill-opacity: 1; stroke: rgb(255, 255, 255); stroke-opacity: 1;"/></g></g></g></g><g class="scatterlayer"><g class="trace scatter tracee4eb32" style="stroke-miterlimit: 2; opacity: 1;"><g class="fills" clip-path="url(#clip109966polar-for-traces)"/><g class="errorbars"/><g class="lines"><path class="js-line" d="M70,70L68.59,62.83" clip-path="url(#clip109966polar-for-traces)" style="vector-effect: none; fill: none; stroke: rgb(253, 202, 9); stroke-opacity: 1; stroke-width: 3px; opacity: 1;"/></g><g class="points" clip-path="url(#clip109966polar-for-traces)"/><g class="text" clip-path="url(#clip109966polar-for-traces)"/></g><g class="trace scatter tracedcbaeb" style="stroke-miterlimit: 2; opacity: 1;"><g class="fills" clip-path="url(#clip109966polar-for-traces)"/><g class="errorbars"/><g class="lines"/><g class="points"><path class="point" transform="translate(70,70)" d="M0,0Z" style="opacity: 1; stroke-width: 0px; fill: rgb(253, 202, 9); fill-opacity: 1;"/><path class="point" transform="translate(68.59,62.83)" d="M-5.1791728879689005,3.5663802652728833L6.1439582110866136,1.339655739517201L-0.9647853231177133,-4.906036004790084Z" style="opacity: 1; stroke-width: 0px; fill: rgb(253, 202, 9); fill-opacity: 1;"/></g><g class="text"/></g><g class="trace scatter tracee7685e" style="stroke-miterlimit: 2; opacity: 1;"><g class="fills" clip-path="url(#clip109966polar-for-traces)"/><g class="errorbars"/><g class="lines"><path class="js-line" d="M70,70L70,70L70,70L70,70L70,70L70,70L70,70L70,70L70,70L70,70L70,70L70,70L70,70L70,70L70,70L70,70L70,70L70,70L70,70L70,70L70,70L70,70L70,70L70,70L70,70L70,70L70,70L70,70L70,70L70,70L70,70L70,70L70,70L70,70L70,70L70,70L70,70L70,70L70,70L70,70L70,70L70,70L70,70L70,70L70,70L70,70L70,70L70,70L70,70L70,70L70,70L70,70L70,70L70,70L70,70L70,70L70,70L70,70L70,70L70,70L70,70L70,70L70,70L70,70L70,70L70,70L70,70L70,70L70,70L70,70L70,70L70,70L70,70L70,70L70,70L70,70L70,70L70,70L70,70L70,70L70,70L70,70L70,70L70,70L70,70L70,70L70,70L70,70L70,70L70,70L70,70L70,70L70,70L70,70L70,70L70,70L70,70L70,70L70,70L70,70" clip-path="url(#clip109966polar-for-traces)" style="vector-effect: none; fill: none; stroke: rgb(169, 169, 169); stroke-opacity: 1; stroke-width: 1px; opacity: 1;"/></g><g class="points" clip-path="url(#clip109966polar-for-traces)"/><g class="text" clip-path="url(#clip109966polar-for-traces)"/></g><g class="trace scatter tracee32ce6" style="stroke-miterlimit: 2; opacity: 1;"><g class="fills" clip-path="url(#clip109966polar-for-traces)"/><g class="errorbars"/><g class="lines"><path class="js-line" d="M70,45.52L68.45,45.57L66.9,45.72L65.37,45.97L63.85,46.31L62.36,46.75L60.9,47.28L59.48,47.9L58.1,48.61L56.77,49.41L55.49,50.29L54.27,51.25L53.11,52.29L52.02,53.39L51,54.57L50.06,55.8L49.2,57.1L48.43,58.44L47.74,59.83L47.14,61.27L46.63,62.73L46.21,64.23L45.9,65.75L45.68,67.29L45.55,68.84L45.53,70.39L45.6,71.94L45.77,73.48L46.04,75.01L46.41,76.52L46.87,78.01L47.43,79.46L48.07,80.87L48.8,82.24L49.62,83.56L50.52,84.82L51.5,86.03L52.56,87.17L53.68,88.24L54.87,89.24L56.12,90.16L57.43,91L58.78,91.75L60.19,92.42L61.63,93L63.1,93.48L64.61,93.87L66.13,94.17L67.67,94.36L69.22,94.46L70.78,94.46L72.33,94.36L73.87,94.17L75.39,93.87L76.9,93.48L78.37,93L79.81,92.42L81.22,91.75L82.57,91L83.88,90.16L85.13,89.24L86.32,88.24L87.44,87.17L88.5,86.03L89.48,84.82L90.38,83.56L91.2,82.24L91.93,80.87L92.57,79.46L93.13,78.01L93.59,76.52L93.96,75.01L94.23,73.48L94.4,71.94L94.47,70.39L94.45,68.84L94.32,67.29L94.1,65.75L93.79,64.23L93.37,62.73L92.86,61.27L92.26,59.83L91.57,58.44L90.8,57.1L89.94,55.8L89,54.57L87.98,53.39L86.89,52.29L85.73,51.25L84.51,50.29L83.23,49.41L81.9,48.61L80.52,47.9L79.1,47.28L77.64,46.75L76.15,46.31L74.63,45.97L73.1,45.72L71.55,45.57L70,45.52" clip-path="url(#clip109966polar-for-traces)" style="vector-effect: none; fill: none; stroke: rgb(169, 169, 169); stroke-opacity: 1; stroke-width: 1px; opacity: 1;"/></g><g class="points" clip-path="url(#clip109966polar-for-traces)"/><g class="text" clip-path="url(#clip109966polar-for-traces)"/></g><g class="trace scatter trace9a13dc" style="stroke-miterlimit: 2; opacity: 1;"><g class="fills" clip-path="url(#clip109966polar-for-traces)"/><g class="errorbars"/><g class="lines"><path class="js-line" d="M70,21.05L66.9,21.15L63.8,21.44L60.74,21.93L57.71,22.62L54.73,23.49L51.81,24.56L48.96,25.8L46.2,27.22L43.54,28.82L40.98,30.58L38.54,32.5L36.22,34.57L34.04,36.79L32.01,39.13L30.13,41.61L28.41,44.19L26.85,46.88L25.47,49.67L24.27,52.53L23.26,55.47L22.43,58.46L21.79,61.5L21.35,64.57L21.1,67.67L21.06,70.78L21.2,73.88L21.55,76.97L22.09,80.03L22.82,83.04L23.74,86.01L24.85,88.91L26.14,91.74L27.61,94.48L29.25,97.11L31.05,99.65L33.01,102.06L35.11,104.34L37.36,106.48L39.74,108.48L42.24,110.32L44.86,112L47.57,113.51L50.37,114.84L53.26,116L56.21,116.97L59.22,117.75L62.27,118.34L65.35,118.73L68.45,118.93L71.55,118.93L74.65,118.73L77.73,118.34L80.78,117.75L83.79,116.97L86.74,116L89.63,114.84L92.43,113.51L95.14,112L97.76,110.32L100.26,108.48L102.64,106.48L104.89,104.34L106.99,102.06L108.95,99.65L110.75,97.11L112.39,94.48L113.86,91.74L115.15,88.91L116.26,86.01L117.18,83.04L117.91,80.03L118.45,76.97L118.8,73.88L118.94,70.78L118.9,67.67L118.65,64.57L118.21,61.5L117.57,58.46L116.74,55.47L115.73,52.53L114.53,49.67L113.15,46.88L111.59,44.19L109.87,41.61L107.99,39.13L105.96,36.79L103.78,34.57L101.46,32.5L99.02,30.58L96.46,28.82L93.8,27.22L91.04,25.8L88.19,24.56L85.27,23.49L82.29,22.62L79.26,21.93L76.2,21.44L73.1,21.15L70,21.05" clip-path="url(#clip109966polar-for-traces)" style="vector-effect: none; fill: none; stroke: rgb(169, 169, 169); stroke-opacity: 1; stroke-width: 1px; opacity: 1;"/></g><g class="points" clip-path="url(#clip109966polar-for-traces)"/><g class="text" clip-path="url(#clip109966polar-for-traces)"/></g></g></g><g class="polarsublayer angular-line"><path d="M70,0A70,70 0,1,0 -70,-8.572527594031473e-15A70,70 0,1,0 70,1.7145055188062946e-14Z" transform="translate(150,140)" stroke-width="1" style="fill: none; stroke: rgb(235, 240, 248); stroke-opacity: 1;"/></g><g class="polarsublayer radial-line"><line x1="0" y1="0" x2="70" y2="0" transform="translate(150,140)" stroke-width="1" style="fill: none; stroke: rgb(235, 240, 248); stroke-opacity: 1;"/></g><g class="polarsublayer angular-axis"><g class="angularaxistick"><text text-anchor="middle" x="1.7757378587636624e-16" y="-5.300000000000001" transform="translate(150,70)" style="font-family: 'Open Sans', verdana, arial, sans-serif; font-size: 12px; fill: rgb(42, 63, 95); fill-opacity: 1; white-space: pre;">0°</text></g><g class="angularaxistick"><text text-anchor="end" x="-2.0506096654409878" y="-0.7778174593052039" transform="translate(100.50252531694167,90.50252531694167)" style="font-family: 'Open Sans', verdana, arial, sans-serif; font-size: 12px; fill: rgb(42, 63, 95); fill-opacity: 1; white-space: pre;">45°</text></g><g class="angularaxistick"><text text-anchor="end" x="-2.9000000000000004" y="4.199999999999998" transform="translate(80,140)" style="font-family: 'Open Sans', verdana, arial, sans-serif; font-size: 12px; fill: rgb(42, 63, 95); fill-opacity: 1; white-space: pre;">90°</text></g><g class="angularaxistick"><text text-anchor="end" x="-2.0506096654409887" y="13.505739520663056" transform="translate(100.50252531694167,189.49747468305833)" style="font-family: 'Open Sans', verdana, arial, sans-serif; font-size: 12px; fill: rgb(42, 63, 95); fill-opacity: 1; white-space: pre;">135°</text></g><g class="angularaxistick"><text text-anchor="middle" x="-5.327213576290987e-16" y="14.9" transform="translate(150,210)" style="font-family: 'Open Sans', verdana, arial, sans-serif; font-size: 12px; fill: rgb(42, 63, 95); fill-opacity: 1; white-space: pre;">180°</text></g><g class="angularaxistick"><text text-anchor="start" x="2.0506096654409878" y="13.50573952066306" transform="translate(199.49747468305833,189.49747468305833)" style="font-family: 'Open Sans', verdana, arial, sans-serif; font-size: 12px; fill: rgb(42, 63, 95); fill-opacity: 1; white-space: pre;">225°</text></g><g class="angularaxistick"><text text-anchor="start" x="2.9000000000000004" y="4.200000000000003" transform="translate(220,140.00000000000003)" style="font-family: 'Open Sans', verdana, arial, sans-serif; font-size: 12px; fill: rgb(42, 63, 95); fill-opacity: 1; white-space: pre;">270°</text></g><g class="angularaxistick"><text text-anchor="start" x="2.0506096654409887" y="-0.7778174593052016" transform="translate(199.49747468305833,90.50252531694169)" style="font-family: 'Open Sans', verdana, arial, sans-serif; font-size: 12px; fill: rgb(42, 63, 95); fill-opacity: 1; white-space: pre;">315°</text></g></g><g class="polarsublayer radial-axis" transform="translate(150,140)"><g class="xtick"><text text-anchor="middle" x="0" y="14.9" transform="" style="font-family: 'Open Sans', verdana, arial, sans-serif; font-size: 12px; fill: rgb(42, 63, 95); fill-opacity: 1; white-space: pre;">0</text></g><g class="xtick"><text text-anchor="middle" x="0" y="14.9" transform="translate(24.48,0)" style="font-family: 'Open Sans', verdana, arial, sans-serif; font-size: 12px; fill: rgb(42, 63, 95); fill-opacity: 1; white-space: pre;">20</text></g><g class="xtick"><text text-anchor="middle" x="0" y="14.9" transform="translate(48.95,0)" style="font-family: 'Open Sans', verdana, arial, sans-serif; font-size: 12px; fill: rgb(42, 63, 95); fill-opacity: 1; white-space: pre;">40</text></g></g></g></g><g class="smithlayer"/><g class="ternarylayer"/><g class="geolayer"/><g class="funnelarealayer"/><g class="pielayer"/><g class="iciclelayer"/><g class="treemaplayer"/><g class="sunburstlayer"/><g class="glimages"/><defs id="topdefs-109966"><g class="clips"/></defs><g class="layer-above"><g class="imagelayer"/><g class="shapelayer"/></g><g class="infolayer"><g class="g-gtitle"/><g class="g-polartitle"/></g></svg>