<svg class="main-svg" xmlns="http://www.w3.org/2000/svg" xmlns:xlink="http://www.w3.org/1999/xlink" width="600" height="400" style="" viewBox="0 0 600 400"><rect x="0" y="0" width="600" height="400" style="fill: rgb(255, 255, 255); fill-opacity: 1;"/><defs id="defs-88efad"><g class="clips"><clipPath id="clip88efadxyplot" class="plotclip"><rect width="440" height="260"/></clipPath><clipPath class="axesclip" id="clip88efadx"><rect x="80" y="0" width="440" height="400"/></clipPath><clipPath class="axesclip" id="clip88efady"><rect x="0" y="60" width="600" height="260"/></clipPath><clipPath class="axesclip" id="clip88efadxy"><rect x="80" y="60" width="440" height="260"/></clipPath></g><g class="gradients"/><g class="patterns"/></defs><g class="bglayer"/><g class="layer-below"><g class="imagelayer"/><g class="shapelayer"/></g><g class="cartesianlayer"><g class="subplot xy"><g class="layer-subplot"><g class="shapelayer"/><g class="imagelayer"/></g><g class="minor-gridlayer"><g class="x"/><g class="y"/></g><g class="gridlayer"><g class="x"><path class="xgrid crisp" transform="translate(97.6,0)" d="M0,60v260" style="stroke: rgb(235, 240, 248); stroke-opacity: 1; stroke-width: 1px;"/><path class="xgrid crisp" transform="translate(115.2,0)" d="M0,60v260" style="stroke: rgb(235, 240, 248); stroke-opacity: 1; stroke-width: 1px;"/><path class="xgrid crisp" transform="translate(132.8,0)" d="M0,60v260" style="stroke: rgb(235, 240, 248); stroke-opacity: 1; stroke-width: 1px;"/><path class="xgrid crisp" transform="translate(150.4,0)" d="M0,60v260" style="stroke: rgb(235, 240, 248); stroke-opacity: 1; stroke-width: 1px;"/><path class="xgrid crisp" transform="translate(168,0)" d="M0,60v260" style="stroke: rgb(235, 240, 248); stroke-opacity: 1; stroke-width: 1px;"/><path class="xgrid crisp" transform="translate(185.6,0)" d="M0,60v260" style="stroke: rgb(235, 240, 248); stroke-opacity: 1; stroke-width: 1px;"/><path class="xgrid crisp" transform="translate(203.2,0)" d="M0,60v260" style="stroke: rgb(235, 240, 248); stroke-opacity: 1; stroke-width: 1px;"/><path class="xgrid crisp" transform="translate(220.8,0)" d="M0,60v260" style="stroke: rgb(235, 240, 248); stroke-opacity: 1; stroke-width: 1px;"/><path class="xgrid crisp" transform="translate(238.4,0)" d="M0,60v260" style="stroke: rgb(235, 240, 248); stroke-opacity: 1; stroke-width: 1px;"/><path class="xgrid crisp" transform="translate(256,0)" d="M0,60v260" style="stroke: rgb(235, 240, 248); stroke-opacity: 1; stroke-width: 1px;"/><path class="xgrid crisp" transform="translate(273.6,0)" d="M0,60v260" style="stroke: rgb(235, 240, 248); stroke-opacity: 1; stroke-width: 1px;"/><path class="xgrid crisp" transform="translate(291.2,0)" d="M0,60v260" style="stroke: rgb(235, 240, 248); stroke-opacity: 1; stroke-width: 1px;"/><path class="xgrid crisp" transform="translate(308.8,0)" d="M0,60v260" style="stroke: rgb(235, 240, 248); stroke-opacity: 1; stroke-width: 1px;"/><path class="xgrid crisp" transform="translate(326.4,0)" d="M0,60v260" style="stroke: rgb(235, 240, 248); stroke-opacity: 1; stroke-width: 1px;"/><path class="xgrid crisp" transform="translate(344,0)" d="M0,60v260" style="stroke: rgb(235, 240, 248); stroke-opacity: 1; stroke-width: 1px;"/><path class="xgrid crisp" transform="translate(361.6,0)" d="M0,60v260" style="stroke: rgb(235, 240, 248); stroke-opacity: 1; stroke-width: 1px;"/><path class="xgrid crisp" transform="translate(379.2,0)" d="M0,60v260" style="stroke: rgb(235, 240, 248); stroke-opacity: 1; stroke-width: 1px;"/><path class="xgrid crisp" transform="translate(396.8,0)" d="M0,60v260" style="stroke: rgb(235, 240, 248); stroke-opacity: 1; stroke-width: 1px;"/><path class="xgrid crisp" transform="translate(414.4,0)" d="M0,60v260" style="stroke: rgb(235, 240, 248); stroke-opacity: 1; stroke-width: 1px;"/><path class="xgrid crisp" transform="translate(432,0)" d="M0,60v260" style="stroke: rgb(235, 240, 248); stroke-opacity: 1; stroke-width: 1px;"/><path class="xgrid crisp" transform="translate(449.6,0)" d="M0,60v260" style="stroke: rgb(235, 240, 248); stroke-opacity: 1; stroke-width: 1px;"/><path class="xgrid crisp" transform="translate(467.2,0)" d="M0,60v260" style="stroke: rgb(235, 240, 248); stroke-opacity: 1; stroke-width: 1px;"/><path class="xgrid crisp" transform="translate(484.8,0)" d="M0,60v260" style="stroke: rgb(235, 240, 248); stroke-opacity: 1; stroke-width: 1px;"/><path class="xgrid crisp" transform="translate(502.4,0)" d="M0,60v260" style="stroke: rgb(235, 240, 248); stroke-opacity: 1; stroke-width: 1px;"/></g><g class="y"><path class="ygrid crisp" transform="translate(0,303.07)" d="M80,0h440" style="stroke: rgb(235, 240, 248); stroke-opacity: 1; stroke-width: 1px;"/><path class="ygrid crisp" transform="translate(0,262.74)" d="M80,0h440" style="stroke: rgb(235, 240, 248); stroke-opacity: 1; stroke-width: 1px;"/><path class="ygrid crisp" transform="translate(0,222.41)" d="M80,0h440" style="stroke: rgb(235, 240, 248); stroke-opacity: 1; stroke-width: 1px;"/><path class="ygrid crisp" transform="translate(0,182.09)" d="M80,0h440" style="stroke: rgb(235, 240, 248); stroke-opacity: 1; stroke-width: 1px;"/><path class="ygrid crisp" transform="translate(0,141.76)" d="M80,0h440" style="stroke: rgb(235, 240, 248); stroke-opacity: 1; stroke-width: 1px;"/><path class="ygrid crisp" transform="translate(0,101.43)" d="M80,0h440" style="stroke: rgb(235, 240, 248); stroke-opacity: 1; stroke-width: 1px;"/><path class="ygrid crisp" transform="translate(0,61.11)" d="M80,0h440" style="stroke: rgb(235, 240, 248); stroke-opacity: 1; stroke-width: 1px;"/></g></g><g class="zerolinelayer"/><g class="layer-between"><g class="shapelayer"/><g class="imagelayer"/></g><path class="xlines-below"/><path class="ylines-below"/><g class="overlines-below"/><g class="xaxislayer-below"/><g class="yaxislayer-below"/><g class="overaxes-below"/><g class="overplot"><g class="xy" transform="translate(80,60)" clip-path="url(#clip88efadxyplot)"><g class="scatterlayer mlayer"><g class="trace scatter trace06799c" style="stroke-miterlimit: 2; opacity: 1;"><g class="fills"/><g class="errorbars"/><g class="lines"><path class="js-line" d="M0,112.26L17.6,172.78L35.2,186.26L52.8,189.69L70.4,170.85L88,177.6L105.6,168L123.2,171.36L140.8,170.68L158.4,154.94L176,158.11L193.6,161.52L211.2,155.27L228.8,154.39L246.4,150.69L264,152.07L281.6,146.59L316.8,131.32L334.4,137.66L352,141.14L369.6,151.6L387.2,140.03L404.8,130.23L422.4,116.88L440,13" style="vector-effect: none; fill: none; stroke: rgb(59, 33, 121); stroke-opacity: 1; stroke-width: 2px; opacity: 1;"/></g><g class="points"/><g class="text"/></g><g class="trace scatter tracece6654" style="stroke-miterlimit: 2; opacity: 1;"><g class="fills"/><g class="errorbars"/><g class="lines"><path class="js-line" d="M0,152.16L17.6,193.64L35.2,187.52L52.8,194.49L70.4,187L88,181.96L105.6,184.25L123.2,176.38L140.8,173.53L158.4,183.41L176,171.5L193.6,175.45L211.2,175.92L228.8,177.84L246.4,164.49L264,153.85L281.6,168.57L299.2,144.73L316.8,156.41L334.4,150.69L352,144L369.6,147.67L387.2,144.71L404.8,154.45L422.4,141.82L440,40.34" style="vector-effect: none; fill: none; stroke: rgb(130, 48, 131); stroke-opacity: 1; stroke-width: 2px; opacity: 1;"/></g><g class="points"/><g class="text"/></g><g class="trace scatter trace906e67" style="stroke-miterlimit: 2; opacity: 1;"><g class="fills"/><g class="errorbars"/><g class="lines"><path class="js-line" d="M0,187.38L17.6,205.82L35.2,208.34L52.8,196.16L70.4,189.69L105.6,204.44L123.2,205.48L140.8,201.22L158.4,201.58L176,185.81L193.6,183.86L211.2,192.53L228.8,193.59L246.4,186.74L264,180.92L281.6,170.83L299.2,167.32L316.8,173.23L334.4,166.24L352,156.76L369.6,162.09L387.2,155.02L404.8,163.85L422.4,155.65L440,97.5" style="vector-effect: none; fill: none; stroke: rgb(183, 86, 135); stroke-opacity: 1; stroke-width: 2px; opacity: 1;"/></g><g class="points"/><g class="text"/></g><g class="trace scatter tracea6a575" style="stroke-miterlimit: 2; opacity: 1;"><g class="fills"/><g class="errorbars"/><g class="lines"><path class="js-line" d="M0,211.9L17.6,221L35.2,224.25L52.8,216.61L70.4,210.89L88,221.48L105.6,215.71L123.2,218.17L140.8,212.29L158.4,210.06L176,215.61L193.6,200.81L211.2,204.18L228.8,191.45L246.4,202.23L264,202.89L281.6,187.69L316.8,188.11L334.4,176.25L352,186.58L369.6,177.43L387.2,176.7L404.8,184.66L422.4,175.58L440,140.05" style="vector-effect: none; fill: none; stroke: rgb(221, 134, 127); stroke-opacity: 1; stroke-width: 2px; opacity: 1;"/></g><g class="points"/><g class="text"/></g><g class="trace scatter traceccaa41" style="stroke-miterlimit: 2; opacity: 1;"><g class="fills"/><g class="errorbars"/><g class="lines"><path class="js-line" d="M0,229.59L17.6,237.35L35.2,230.26L52.8,224.62L70.4,233.64L88,226.86L105.6,227.74L123.2,229.7L140.8,225.05L158.4,228.79L176,229.19L193.6,226.89L211.2,223.73L228.8,226.16L246.4,214.49L264,211.59L281.6,213.26L299.2,203.62L316.8,201.78L334.4,193.93L352,196.6L369.6,194.85L387.2,185.95L404.8,200.97L422.4,199.47L440,169" style="vector-effect: none; fill: none; stroke: rgb(244, 188, 119); stroke-opacity: 1; stroke-width: 2px; opacity: 1;"/></g><g class="points"/><g class="text"/></g><g class="trace scatter trace43950c" style="stroke-miterlimit: 2; opacity: 1;"><g class="fills"/><g class="errorbars"/><g class="lines"><path class="js-line" d="M0,242.44L17.6,247L35.2,243.68L52.8,243.02L70.4,240.2L88,239.25L105.6,239.92L123.2,235.04L140.8,234.72L158.4,244.17L176,239L193.6,236.83L211.2,228.25L228.8,232.35L246.4,225.04L264,229.17L281.6,223.9L316.8,223.23L334.4,214.76L352,214.1L369.6,210.69L387.2,208.7L404.8,208.47L422.4,212.87L440,200.74" style="vector-effect: none; fill: none; stroke: rgb(248, 246, 139); stroke-opacity: 1; stroke-width: 2px; opacity: 1;"/></g><g class="points"/><g class="text"/></g></g></g></g><g class="zerolinelayer-above"/><path class="xlines-above crisp" d="M0,0" style="fill: none;"/><path class="ylines-above crisp" d="M0,0" style="fill: none;"/><g class="overlines-above"/><g class="xaxislayer-above"><g class="xtick"><text text-anchor="start" x="0" y="333" transform="translate(80,0) rotate(90,0,327)" style="font-family: 'Open Sans', verdana, arial, sans-serif; font-size: 12px; fill: rgb(42, 63, 95); fill-opacity: 1; white-space: pre;">0.0</text></g><g class="xtick"><text text-anchor="start" x="0" y="333" transform="translate(97.6,0) rotate(90,0,327)" style="font-family: 'Open Sans', verdana, arial, sans-serif; font-size: 12px; fill: rgb(42, 63, 95); fill-opacity: 1; white-space: pre;">0.04</text></g><g class="xtick"><text text-anchor="start" x="0" y="333" transform="translate(115.2,0) rotate(90,0,327)" style="font-family: 'Open Sans', verdana, arial, sans-serif; font-size: 12px; fill: rgb(42, 63, 95); fill-opacity: 1; white-space: pre;">0.08</text></g><g class="xtick"><text text-anchor="start" x="0" y="333" transform="translate(132.8,0) rotate(90,0,327)" style="font-family: 'Open Sans', verdana, arial, sans-serif; font-size: 12px; fill: rgb(42, 63, 95); fill-opacity: 1; white-space: pre;">0.12</text></g><g class="xtick"><text text-anchor="start" x="0" y="333" transform="translate(150.4,0) rotate(90,0,327)" style="font-family: 'Open Sans', verdana, arial, sans-serif; font-size: 12px; fill: rgb(42, 63, 95); fill-opacity: 1; white-space: pre;">0.15</text></g><g class="xtick"><text text-anchor="start" x="0" y="333" transform="translate(168,0) rotate(90,0,327)" style="font-family: 'Open Sans', verdana, arial, sans-serif; font-size: 12px; fill: rgb(42, 63, 95); fill-opacity: 1; white-space: pre;">0.19</text></g><g class="xtick"><text text-anchor="start" x="0" y="333" transform="translate(185.6,0) rotate(90,0,327)" style="font-family: 'Open Sans', verdana, arial, sans-serif; font-size: 12px; fill: rgb(42, 63, 95); fill-opacity: 1; white-space: pre;">0.23</text></g><g class="xtick"><text text-anchor="start" x="0" y="333" transform="translate(203.2,0) rotate(90,0,327)" style="font-family: 'Open Sans', verdana, arial, sans-serif; font-size: 12px; fill: rgb(42, 63, 95); fill-opacity: 1; white-space: pre;">0.27</text></g><g class="xtick"><text text-anchor="start" x="0" y="333" transform="translate(220.8,0) rotate(90,0,327)" style="font-family: 'Open Sans', verdana, arial, sans-serif; font-size: 12px; fill: rgb(42, 63, 95); fill-opacity: 1; white-space: pre;">0.31</text></g><g class="xtick"><text text-anchor="start" x="0" y="333" transform="translate(238.4,0) rotate(90,0,327)" style="font-family: 'Open Sans', verdana, arial, sans-serif; font-size: 12px; fill: rgb(42, 63, 95); fill-opacity: 1; white-space: pre;">0.35</text></g><g class="xtick"><text text-anchor="start" x="0" y="333" transform="translate(256,0) rotate(90,0,327)" style="font-family: 'Open Sans', verdana, arial, sans-serif; font-size: 12px; fill: rgb(42, 63, 95); fill-opacity: 1; white-space: pre;">0.38</text></g><g class="xtick"><text text-anchor="start" x="0" y="333" transform="translate(273.6,0) rotate(90,0,327)" style="font-family: 'Open Sans', verdana, arial, sans-serif; font-size: 12px; fill: rgb(42, 63, 95); fill-opacity: 1; white-space: pre;">0.42</text></g><g class="xtick"><text text-anchor="start" x="0" y="333" transform="translate(291.2,0) rotate(90,0,327)" style="font-family: 'Open Sans', verdana, arial, sans-serif; font-size: 12px; fill: rgb(42, 63, 95); fill-opacity: 1; white-space: pre;">0.46</text></g><g class="xtick"><text text-anchor="start" x="0" y="333" transform="translate(308.8,0) rotate(90,0,327)" style="font-family: 'Open Sans', verdana, arial, sans-serif; font-size: 12px; fill: rgb(42, 63, 95); fill-opacity: 1; white-space: pre;">0.5</text></g><g class="xtick"><text text-anchor="start" x="0" y="333" transform="translate(326.4,0) rotate(90,0,327)" style="font-family: 'Open Sans', verdana, arial, sans-serif; font-size: 12px; fill: rgb(42, 63, 95); fill-opacity: 1; white-space: pre;">0.54</text></g><g class="xtick"><text text-anchor="start" x="0" y="333" transform="translate(344,0) rotate(90,0,327)" style="font-family: 'Open Sans', verdana, arial, sans-serif; font-size: 12px; fill: rgb(42, 63, 95); fill-opacity: 1; white-space: pre;">0.58</text></g><g class="xtick"><text text-anchor="start" x="0" y="333" transform="translate(361.6,0) rotate(90,0,327)" style="font-family: 'Open Sans', verdana, arial, sans-serif; font-size: 12px; fill: rgb(42, 63, 95); fill-opacity: 1; white-space: pre;">0.62</text></g><g class="xtick"><text text-anchor="start" x="0" y="333" transform="translate(379.2,0) rotate(90,0,327)" style="font-family: 'Open Sans', verdana, arial, sans-serif; font-size: 12px; fill: rgb(42, 63, 95); fill-opacity: 1; white-space: pre;">0.65</text></g><g class="xtick"><text text-anchor="start" x="0" y="333" transform="translate(396.8,0) rotate(90,0,327)" style="font-family: 'Open Sans', verdana, arial, sans-serif; font-size: 12px; fill: rgb(42, 63, 95); fill-opacity: 1; white-space: pre;">0.69</text></g><g class="xtick"><text text-anchor="start" x="0" y="333" transform="translate(414.4,0) rotate(90,0,327)" style="font-family: 'Open Sans', verdana, arial, sans-serif; font-size: 12px; fill: rgb(42, 63, 95); fill-opacity: 1; white-space: pre;">0.73</text></g><g class="xtick"><text text-anchor="start" x="0" y="333" transform="translate(432,0) rotate(90,0,327)" style="font-family: 'Open Sans', verdana, arial, sans-serif; font-size: 12px; fill: rgb(42, 63, 95); fill-opacity: 1; white-space: pre;">0.77</text></g><g class="xtick"><text text-anchor="start" x="0" y="333" transform="translate(449.6,0) rotate(90,0,327)" style="font-family: 'Open Sans', verdana, arial, sans-serif; font-size: 12px; fill: rgb(42, 63, 95); fill-opacity: 1; white-space: pre;">0.81</text></g><g class="xtick"><text text-anchor="start" x="0" y="333" transform="translate(467.2,0) rotate(90,0,327)" style="font-family: 'Open Sans', verdana, arial, sans-serif; font-size: 12px; fill: rgb(42, 63, 95); fill-opacity: 1; white-space: pre;">0.85</text></g><g class="xtick"><text text-anchor="start" x="0" y="333" transform="translate(484.8,0) rotate(90,0,327)" style="font-family: 'Open Sans', verdana, arial, sans-serif; font-size: 12px; fill: rgb(42, 63, 95); fill-opacity: 1; white-space: pre;">0.88</text></g><g class="xtick"><text text-anchor="start" x="0" y="333" transform="translate(502.4,0) rotate(90,0,327)" style="font-family: 'Open Sans', verdana, arial, sans-serif; font-size: 12px; fill: rgb(42, 63, 95); fill-opacity: 1; white-space: pre;">0.92</text></g><g class="xtick"><text text-anchor="start" x="0" y="333" transform="translate(520,0) rotate(90,0,327)" style="font-family: 'Open Sans', verdana, arial, sans-serif; font-size: 12px; fill: rgb(42, 63, 95); fill-opacity: 1; white-space: pre;">0.96</text></g></g><g class="yaxislayer-above"><g class="ytick"><text text-anchor="end" x="79" y="4.199999999999999" transform="translate(0,303.07)" style="font-family: 'Open Sans', verdana, arial, sans-serif; font-size: 12px; fill: rgb(42, 63, 95); fill-opacity: 1; white-space: pre;">1</text></g><g class="ytick"><text text-anchor="end" x="79" y="4.199999999999999" style="font-family: 'Open Sans', verdana, arial, sans-serif; font-size: 12px; fill: rgb(42, 63, 95); fill-opacity: 1; white-space: pre;" transform="translate(0,262.74)">1.2</text></g><g class="ytick"><text text-anchor="end" x="79" y="4.199999999999999" style="font-family: 'Open Sans', verdana, arial, sans-serif; font-size: 12px; fill: rgb(42, 63, 95); fill-opacity: 1; white-space: pre;" transform="translate(0,222.41)">1.4</text></g><g class="ytick"><text text-anchor="end" x="79" y="4.199999999999999" style="font-family: 'Open Sans', verdana, arial, sans-serif; font-size: 12px; fill: rgb(42, 63, 95); fill-opacity: 1; white-space: pre;" transform="translate(0,182.09)">1.6</text></g><g class="ytick"><text text-anchor="end" x="79" y="4.199999999999999" style="font-family: 'Open Sans', verdana, arial, sans-serif; font-size: 12px; fill: rgb(42, 63, 95); fill-opacity: 1; white-space: pre;" transform="translate(0,141.76)">1.8</text></g><g class="ytick"><text text-anchor="end" x="79" y="4.199999999999999" style="font-family: 'Open Sans', verdana, arial, sans-serif; font-size: 12px; fill: rgb(42, 63, 95); fill-opacity: 1; white-space: pre;" transform="translate(0,101.43)">2</text></g><g class="ytick"><text text-anchor="end" x="79" y="4.199999999999999" style="font-family: 'Open Sans', verdana, arial, sans-serif; font-size: 12px; fill: rgb(42, 63, 95); fill-opacity: 1; white-space: pre;" transform="translate(0,61.11)">2.2</text></g></g><g class="overaxes-above"/></g></g><g class="polarlayer"/><g class="smithlayer"/><g class="ternarylayer"/><g class="geolayer"/><g class="funnelarealayer"/><g class="pielayer"/><g class="iciclelayer"/><g class="treemaplayer"/><g class="sunburstlayer"/><g class="glimages"/><defs id="topdefs-88efad"><g class="clips"/><clipPath id="legend88efad"><rect width="59" height="143" x="0" y="0"/></clipPath></defs><g class="layer-above"><g class="imagelayer"/><g class="shapelayer"/></g><g class="infolayer"><g class="legend" pointer-events="all" transform="translate(528.8,60)"><rect class="bg" shape-rendering="crispEdges" style="stroke: rgb(68, 68, 68); stroke-opacity: 1; fill: rgb(255, 255, 255); fill-opacity: 1; stroke-width: 0px;" width="59" height="143" x="0" y="0"/><g class="scrollbox" transform="" clip-path="url(#legend88efad)"><text class="legendtitletext" text-anchor="start" x="2" y="18.2" style="font-family: 'Open Sans', verdana, arial, sans-serif; font-size: 14px; fill: rgb(42, 63, 95); fill-opacity: 1; white-space: pre;">gamma</text><g class="groups" transform=""><g class="traces" transform="translate(0,32.7)" style="opacity: 1;"><text class="legendtext" text-anchor="start" x="40" y="4.680000000000001" style="font-family: 'Open Sans', verdana, arial, sans-serif; font-size: 12px; fill: rgb(42, 63, 95); fill-opacity: 1; white-space: pre;">10</text><g class="layers" style="opacity: 1;"><g class="legendfill"/><g class="legendlines"><path class="js-line" d="M5,0h30" style="fill: none; stroke: rgb(59, 33, 121); stroke-opacity: 1; stroke-width: 2px;"/></g><g class="legendsymbols"><g class="legendpoints"/></g></g><rect class="legendtoggle" x="0" y="-9.5" width="53.861328125" height="19" style="fill: rgb(0, 0, 0); fill-opacity: 0;"/></g></g><g class="groups" transform=""><g class="traces" transform="translate(0,51.7)" style="opacity: 1;"><text class="legendtext" text-anchor="start" x="40" y="4.680000000000001" style="font-family: 'Open Sans', verdana, arial, sans-serif; font-size: 12px; fill: rgb(42, 63, 95); fill-opacity: 1; white-space: pre;">12</text><g class="layers" style="opacity: 1;"><g class="legendfill"/><g class="legendlines"><path class="js-line" d="M5,0h30" style="fill: none; stroke: rgb(130, 48, 131); stroke-opacity: 1; stroke-width: 2px;"/></g><g class="legendsymbols"><g class="legendpoints"/></g></g><rect class="legendtoggle" x="0" y="-9.5" width="53.861328125" height="19" style="fill: rgb(0, 0, 0); fill-opacity: 0;"/></g></g><g class="groups" transform=""><g class="traces" transform="translate(0,70.7)" style="opacity: 1;"><text class="legendtext" text-anchor="start" x="40" y="4.680000000000001" style="font-family: 'Open Sans', verdana, arial, sans-serif; font-size: 12px; fill: rgb(42, 63, 95); fill-opacity: 1; white-space: pre;">14</text><g class="layers" style="opacity: 1;"><g class="legendfill"/><g class="legendlines"><path class="js-line" d="M5,0h30" style="fill: none; stroke: rgb(183, 86, 135); stroke-opacity: 1; stroke-width: 2px;"/></g><g class="legendsymbols"><g class="legendpoints"/></g></g><rect class="legendtoggle" x="0" y="-9.5" width="53.861328125" height="19" style="fill: rgb(0, 0, 0); fill-opacity: 0;"/></g></g><g class="groups" transform=""><g class="traces" transform="translate(0,89.7)" style="opacity: 1;"><text class="legendtext" text-anchor="start" x="40" y="4.680000000000001" style="font-family: 'Open Sans', verdana, arial, sans-serif; font-size: 12px; fill: rgb(42, 63, 95); fill-opacity: 1; white-space: pre;">16</text><g class="layers" style="opacity: 1;"><g class="legendfill"/><g class="legendlines"><path class="js-line" d="M5,0h30" style="fill: none; stroke: rgb(221, 134, 127); stroke-opacity: 1; stroke-width: 2px;"/></g><g class="legendsymbols"><g class="legendpoints"/></g></g><rect class="legendtoggle" x="0" y="-9.5" width="53.861328125" height="19" style="fill: rgb(0, 0, 0); fill-opacity: 0;"/></g></g><g class="groups" transform=""><g class="traces" transform="translate(0,108.7)" style="opacity: 1;"><text class="legendtext" text-anchor="start" x="40" y="4.680000000000001" style="font-family: 'Open Sans', verdana, arial, sans-serif; font-size: 12px; fill: rgb(42, 63, 95); fill-opacity: 1; white-space: pre;">18</text><g class="layers" style="opacity: 1;"><g class="legendfill"/><g class="legendlines"><path class="js-line" d="M5,0h30" style="fill: none; stroke: rgb(244, 188, 119); stroke-opacity: 1; stroke-width: 2px;"/></g><g class="legendsymbols"><g class="legendpoints"/></g></g><rect class="legendtoggle" x="0" y="-9.5" width="53.861328125" height="19" style="fill: rgb(0, 0, 0); fill-opacity: 0;"/></g></g><g class="groups" transform=""><g class="traces" transform="translate(0,127.7)" style="opacity: 1;"><text class="legendtext" text-anchor="start" x="40" y="4.680000000000001" style="font-family: 'Open Sans', verdana, arial, sans-serif; font-size: 12px; fill: rgb(42, 63, 95); fill-opacity: 1; white-space: pre;">20</text><g class="layers" style="opacity: 1;"><g class="legendfill"/><g class="legendlines"><path class="js-line" d="M5,0h30" style="fill: none; stroke: rgb(248, 246, 139); stroke-opacity: 1; stroke-width: 2px;"/></g><g class="legendsymbols"><g class="legendpoints"/></g></g><rect class="legendtoggle" x="0" y="-9.5" width="53.861328125" height="19" style="fill: rgb(0, 0, 0); fill-opacity: 0;"/></g></g></g><rect class="scrollbar" rx="20" ry="3" width="0" height="0" style="fill: rgb(128, 139, 164); fill-opacity: 1;" x="0" y="0"/></g><g class="g-gtitle"/><g class="g-xtitle"><text class="xtitle" x="300" y="375.175" text-anchor="middle" style="opacity: 1; font-family: 'Open Sans', verdana, arial, sans-serif; font-size: 14px; fill: rgb(42, 63, 95); fill-opacity: 1; white-space: pre;">relative chem. concentration</text></g><g class="g-ytitle"><text class="ytitle" transform="rotate(-90,42.725,190)" x="42.725" y="190" text-anchor="middle" style="opacity: 1; font-family: 'Open Sans', verdana, arial, sans-serif; font-size: 14px; fill: rgb(42, 63, 95); fill-opacity: 1; white-space: pre;">relative effective act</text></g></g></svg>