<svg class="main-svg" xmlns="http://www.w3.org/2000/svg" xmlns:xlink="http://www.w3.org/1999/xlink" width="600" height="450" style="" viewBox="0 0 600 450"><rect x="0" y="0" width="600" height="450" style="fill: rgb(255, 255, 255); fill-opacity: 1;"/><defs id="defs-936493"><g class="clips"><clipPath id="clip936493xyplot" class="plotclip"><rect width="438" height="114.75000000000001"/></clipPath><clipPath id="clip936493x2y2plot" class="plotclip"><rect width="438" height="114.75"/></clipPath><clipPath class="axesclip" id="clip936493x"><rect x="82" y="0" width="438" height="450"/></clipPath><clipPath class="axesclip" id="clip936493y"><rect x="0" y="100" width="600" height="114.75000000000001"/></clipPath><clipPath class="axesclip" id="clip936493xy"><rect x="82" y="100" width="438" height="114.75000000000001"/></clipPath><clipPath class="axesclip" id="clip936493y2"><rect x="0" y="255.25" width="600" height="114.75"/></clipPath><clipPath class="axesclip" id="clip936493xy2"><rect x="82" y="255.25" width="438" height="114.75"/></clipPath><clipPath class="axesclip" id="clip936493x2"><rect x="82" y="0" width="438" height="450"/></clipPath><clipPath class="axesclip" id="clip936493x2y"><rect x="82" y="100" width="438" height="114.75000000000001"/></clipPath><clipPath class="axesclip" id="clip936493x2y2"><rect x="82" y="255.25" width="438" height="114.75"/></clipPath></g><g class="gradients"/><g class="patterns"/></defs><g class="bglayer"/><g class="layer-below"><g class="imagelayer"/><g class="shapelayer"/></g><g class="cartesianlayer"><g class="subplot xy"><g class="layer-subplot"><g class="shapelayer"/><g class="imagelayer"/></g><g class="minor-gridlayer"><g class="x"/><g class="y"/></g><g class="gridlayer"><g class="x"><path class="xgrid crisp" transform="translate(192.38,0)" d="M0,100v114.75000000000001" style="stroke: rgb(235, 240, 248); stroke-opacity: 1; stroke-width: 1px;"/><path class="xgrid crisp" transform="translate(302.99,0)" d="M0,100v114.75000000000001" style="stroke: rgb(235, 240, 248); stroke-opacity: 1; stroke-width: 1px;"/><path class="xgrid crisp" transform="translate(413.6,0)" d="M0,100v114.75000000000001" style="stroke: rgb(235, 240, 248); stroke-opacity: 1; stroke-width: 1px;"/></g><g class="y"><path class="ygrid crisp" transform="translate(0,211.9)" d="M82,0h438" style="stroke: rgb(235, 240, 248); stroke-opacity: 1; stroke-width: 1px;"/><path class="ygrid crisp" transform="translate(0,158.89)" d="M82,0h438" style="stroke: rgb(235, 240, 248); stroke-opacity: 1; stroke-width: 1px;"/><path class="ygrid crisp" transform="translate(0,132.38)" d="M82,0h438" style="stroke: rgb(235, 240, 248); stroke-opacity: 1; stroke-width: 1px;"/><path class="ygrid crisp" transform="translate(0,105.87)" d="M82,0h438" style="stroke: rgb(235, 240, 248); stroke-opacity: 1; stroke-width: 1px;"/></g></g><g class="zerolinelayer"><path class="yzl zl crisp" transform="translate(0,185.4)" d="M82,0h438" style="stroke: rgb(235, 240, 248); stroke-opacity: 1; stroke-width: 2px;"/></g><g class="layer-between"><g class="shapelayer"/><g class="imagelayer"/></g><path class="xlines-below"/><path class="ylines-below"/><g class="overlines-below"/><g class="xaxislayer-below"/><g class="yaxislayer-below"/><g class="overaxes-below"/><g class="overplot"><g class="xy" transform="translate(82,100)" clip-path="url(#clip936493xyplot)"><g class="scatterlayer mlayer"><g class="trace scatter trace0e4c08" style="stroke-miterlimit: 2; opacity: 1;"><g class="fills"/><g class="errorbars"/><g class="lines"><path class="js-line" d="M0,97.82L4.42,101.56L8.85,106.48L13.27,96.74L17.7,109.01L26.55,102.44L30.97,95.09L35.39,96.73L39.82,81.38L44.24,81.28L48.67,84.07L53.09,83.4L57.52,79.34L61.94,84.13L66.36,76.1L70.79,64.13L75.21,65.46L79.64,69.26L84.06,64.18L88.48,56.9L92.91,46.28L97.33,28.88L101.76,23.3L106.18,9.81L110.61,25.06L119.45,67.52L123.88,70.64L128.3,75.88L132.73,77.21L137.15,80.58L141.58,80.08L150.42,79.45L154.85,80.29L159.27,79.8L163.7,81.01L168.12,82.8L172.55,82.95L176.97,83.28L181.39,82.27L190.24,82.02L194.67,82.2L199.09,82.63L203.52,81.67L221.21,78.47L225.64,80.73L230.06,81.7L234.48,81.84L238.91,82.17L243.33,83.8L247.76,83L252.18,83.36L261.03,80.97L265.45,81.58L269.88,82.53L274.3,82.31L283.15,86.93L287.58,85.17L292,83.26L296.42,82.64L300.85,80.03L305.27,78.77L309.7,78.76L314.12,82.36L318.55,81.4L322.97,82.44L327.39,82.16L331.82,83.15L336.24,80.53L340.67,80.81L353.94,82.78L358.36,83.53L367.21,79.34L371.64,79.19L376.06,78.67L380.48,76.16L384.91,78.48L389.33,78.84L393.76,79.11L398.18,77.84L402.61,80.61L407.03,80.65L411.45,81.88L415.88,81.63L420.3,82.15L424.73,80.07L433.58,80.34" style="vector-effect: none; fill: none; stroke: rgb(99, 110, 250); stroke-opacity: 1; stroke-width: 2px; opacity: 1;"/></g><g class="points"/><g class="text"/></g><g class="trace scatter tracea88155" style="stroke-miterlimit: 2; opacity: 1;"><g class="fills"/><g class="errorbars"/><g class="lines"><path class="js-line" d="M0,105.84L4.42,105.53L8.85,106.1L13.27,99.73L17.7,92L22.12,89.98L26.55,90.87L30.97,88.4L35.39,92.61L39.82,85.88L44.24,88.36L53.09,77.24L57.52,68.7L61.94,73.91L66.36,73.27L70.79,92.33L75.21,89.68L79.64,98.34L84.06,100.72L88.48,101.18L92.91,96.01L97.33,95.09L101.76,90.01L110.61,89.37L115.03,94.47L119.45,93.79L123.88,96.18L128.3,93.4L132.73,95.91L137.15,74.5L141.58,81.9L146,91.13L150.42,87.38L154.85,86.7L159.27,87.14L168.12,83.76L172.55,88.98L176.97,91.52L181.39,92.16L185.82,91.52L190.24,90.08L194.67,89.47L199.09,85.93L203.52,83.75L207.94,83.06L212.36,73.31L216.79,68.19L221.21,71.32L225.64,78.5L230.06,80.35L234.48,81.16L238.91,91.59L243.33,97.83L247.76,88.97L252.18,89.14L256.61,93.49L261.03,87.59L265.45,81.85L269.88,82.26L274.3,84.25L278.73,89.62L287.58,102.7L292,103.5L296.42,93.64L300.85,91.54L305.27,88.12L309.7,82.92L314.12,84.19L318.55,87.33L322.97,87.58L327.39,85.55L331.82,87.98L336.24,83.98L340.67,88.55L345.09,88.9L349.52,92.92L353.94,93L358.36,93.51L362.79,89.08L367.21,88.49L371.64,77.17L376.06,77.11L380.48,89.69L384.91,89.4L389.33,99.48L398.18,97.89L402.61,92.7L407.03,94.16L411.45,93.69L415.88,87.37L420.3,85.67L424.73,84.85L429.15,84.92L433.58,75.93" style="vector-effect: none; fill: none; stroke: rgb(239, 85, 59); stroke-opacity: 1; stroke-width: 2px; opacity: 1;"/></g><g class="points"/><g class="text"/></g><g class="trace scatter tracea44451" style="stroke-miterlimit: 2; opacity: 1;"><g class="fills"/><g class="errorbars"/><g class="lines"><path class="js-line" d="M0,73.85L4.42,80.21L8.85,85.04L13.27,90.87L17.7,93.56L22.12,90.38L26.55,88.4L30.97,97.7L35.39,92.14L39.82,87.26L44.24,87.05L48.67,89.89L53.09,88.76L57.52,94.65L61.94,92.51L66.36,91.76L70.79,88.71L75.21,86.83L79.64,86.81L84.06,92.59L88.48,92.6L92.91,89.89L97.33,89.41L101.76,85.33L106.18,85.03L110.61,88.56L115.03,87.86L119.45,85.3L123.88,92.66L128.3,98.81L132.73,86.95L137.15,90.33L141.58,88.18L150.42,89.71L154.85,95.02L163.7,94.49L168.12,86.95L172.55,72.72L176.97,69.99L181.39,86.51L185.82,94.03L190.24,82.2L194.67,80.75L199.09,73.82L203.52,58.68L207.94,51.37L212.36,85.09L216.79,79.72L221.21,82.68L225.64,79.45L230.06,80.77L234.48,75.3L238.91,85.52L243.33,90.01L247.76,91.11L252.18,87.1L256.61,68.83L261.03,60.76L265.45,35.98L269.88,17.58L274.3,5.74L278.73,37.32L283.15,34.21L287.58,49.09L292,60.81L296.42,60.61L300.85,67.59L309.7,72.79L314.12,70.22L318.55,76.62L322.97,78.15L327.39,82.6L331.82,82.08L340.67,82.37L345.09,81.59L349.52,79.26L353.94,80.44L358.36,80.84L362.79,79.76L367.21,79.62L371.64,80.89L376.06,81.89L380.48,81.75L384.91,83.9L389.33,82.76L402.61,82.73L407.03,83.79L415.88,87.89L420.3,85.6L424.73,86.73L429.15,85.63L433.58,85.2" style="vector-effect: none; fill: none; stroke: rgb(0, 204, 150); stroke-opacity: 1; stroke-width: 2px; opacity: 1;"/></g><g class="points"/><g class="text"/></g></g></g></g><g class="zerolinelayer-above"/><path class="xlines-above crisp" d="M0,0" style="fill: none;"/><path class="ylines-above crisp" d="M0,0" style="fill: none;"/><g class="overlines-above"/><g class="xaxislayer-above"/><g class="yaxislayer-above"><g class="ytick"><text text-anchor="end" x="81" y="4.199999999999999" transform="translate(0,211.9)" style="font-family: 'Open Sans', verdana, arial, sans-serif; font-size: 12px; fill: rgb(42, 63, 95); fill-opacity: 1; white-space: pre;">−0.0005</text></g><g class="ytick"><text text-anchor="end" x="81" y="4.199999999999999" style="font-family: 'Open Sans', verdana, arial, sans-serif; font-size: 12px; fill: rgb(42, 63, 95); fill-opacity: 1; white-space: pre;" transform="translate(0,185.4)">0</text></g><g class="ytick"><text text-anchor="end" x="81" y="4.199999999999999" style="font-family: 'Open Sans', verdana, arial, sans-serif; font-size: 12px; fill: rgb(42, 63, 95); fill-opacity: 1; white-space: pre;" transform="translate(0,158.89)">0.0005</text></g><g class="ytick"><text text-anchor="end" x="81" y="4.199999999999999" style="font-family: 'Open Sans', verdana, arial, sans-serif; font-size: 12px; fill: rgb(42, 63, 95); fill-opacity: 1; white-space: pre;" transform="translate(0,132.38)">0.001</text></g><g class="ytick"><text text-anchor="end" x="81" y="4.199999999999999" style="font-family: 'Open Sans', verdana, arial, sans-serif; font-size: 12px; fill: rgb(42, 63, 95); fill-opacity: 1; white-space: pre;" transform="translate(0,105.87)">0.0015</text></g></g><g class="overaxes-above"/></g><g class="subplot x2y2"><g class="layer-subplot"><g class="shapelayer"/><g class="imagelayer"/></g><g class="minor-gridlayer"><g class="x2"/><g class="y2"/></g><g class="gridlayer"><g class="x2"><path class="x2grid crisp" transform="translate(192.38,0)" d="M0,255.25v114.75" style="stroke: rgb(235, 240, 248); stroke-opacity: 1; stroke-width: 1px;"/><path class="x2grid crisp" transform="translate(302.99,0)" d="M0,255.25v114.75" style="stroke: rgb(235, 240, 248); stroke-opacity: 1; stroke-width: 1px;"/><path class="x2grid crisp" transform="translate(413.6,0)" d="M0,255.25v114.75" style="stroke: rgb(235, 240, 248); stroke-opacity: 1; stroke-width: 1px;"/></g><g class="y2"><path class="y2grid crisp" transform="translate(0,317.68)" d="M82,0h438" style="stroke: rgb(235, 240, 248); stroke-opacity: 1; stroke-width: 1px;"/><path class="y2grid crisp" transform="translate(0,289.35)" d="M82,0h438" style="stroke: rgb(235, 240, 248); stroke-opacity: 1; stroke-width: 1px;"/><path class="y2grid crisp" transform="translate(0,261.03)" d="M82,0h438" style="stroke: rgb(235, 240, 248); stroke-opacity: 1; stroke-width: 1px;"/></g></g><g class="zerolinelayer"><path class="y2zl zl crisp" transform="translate(0,346.01)" d="M82,0h438" style="stroke: rgb(235, 240, 248); stroke-opacity: 1; stroke-width: 2px;"/></g><g class="layer-between"><g class="shapelayer"/><g class="imagelayer"/></g><path class="xlines-below"/><path class="ylines-below"/><g class="overlines-below"/><g class="xaxislayer-below"/><g class="yaxislayer-below"/><g class="overaxes-below"/><g class="overplot"><g class="x2y2" transform="translate(82,255.25)" clip-path="url(#clip936493x2y2plot)"><g class="scatterlayer mlayer"><g class="trace scatter traceb47d79" style="stroke-miterlimit: 2; opacity: 1;"><g class="fills"/><g class="errorbars"/><g class="lines"><path class="js-line" d="M0,90.38L13.27,89.81L17.7,91.3L22.12,92.62L26.55,91.89L30.97,94.6L35.39,95.04L48.67,93.09L53.09,91.77L57.52,94.21L61.94,95.18L70.79,92.54L75.21,92.38L79.64,90.53L84.06,90.05L88.48,89.45L92.91,87.01L97.33,87.39L101.76,77.46L110.61,41.69L115.03,37.41L119.45,33.08L123.88,29.86L128.3,26.74L132.73,25.78L137.15,23.8L141.58,25.15L146,23.7L150.42,25.64L154.85,23.93L159.27,23.23L163.7,24.42L168.12,23.68L181.39,24.8L185.82,24.23L190.24,24.07L194.67,22.99L199.09,22.86L203.52,23.69L212.36,25.14L216.79,22.96L221.21,21.62L225.64,21.34L230.06,21.61L234.48,19.98L247.76,20L252.18,20.92L256.61,21.82L261.03,21.01L265.45,21.63L269.88,20.64L274.3,18.95L278.73,20.88L283.15,21.97L287.58,21.62L296.42,24.82L300.85,24.87L309.7,21.71L314.12,20.45L322.97,19.72L327.39,22.74L331.82,20.71L336.24,20.2L340.67,19.77L345.09,20.52L349.52,20.33L353.94,18.33L367.21,20.56L371.64,20.52L376.06,15.93L380.48,12.73L384.91,12.46L389.33,14.03L398.18,8.39L402.61,5.85L407.03,7.63L411.45,7.94L433.58,8.27L438,5.93" style="vector-effect: none; fill: none; stroke: rgb(99, 110, 250); stroke-opacity: 1; stroke-width: 2px; opacity: 1;"/></g><g class="points"/><g class="text"/></g><g class="trace scatter trace1bb075" style="stroke-miterlimit: 2; opacity: 1;"><g class="fills"/><g class="errorbars"/><g class="lines"><path class="js-line" d="M0,91.05L4.42,90.5L8.85,90.96L22.12,93.21L26.55,92.92L30.97,92.86L35.39,91.51L48.67,98.24L53.09,96.07L57.52,94.87L61.94,94.59L70.79,91.47L75.21,92.76L79.64,92.42L84.06,98.41L88.48,96.74L92.91,98.02L97.33,102.17L101.76,104.3L106.18,105.55L110.61,101.51L115.03,100.41L119.45,100.73L123.88,103.01L128.3,102.03L132.73,100.68L137.15,100.24L141.58,99.25L146,101.72L150.42,104.74L154.85,105.96L159.27,108.43L163.7,106.41L172.55,105.49L176.97,103.3L181.39,105.37L185.82,108.78L190.24,106.18L194.67,109.01L207.94,108.02L212.36,103.15L221.21,103.76L225.64,101.55L230.06,97.96L234.48,97.65L243.33,98.46L247.76,96.72L252.18,96.18L256.61,99.21L261.03,101.19L265.45,100.2L278.73,96.45L283.15,93.25L287.58,93.27L292,94.33L296.42,94.68L300.85,95.92L305.27,97.62L309.7,96.82L314.12,99.64L318.55,99.66L322.97,98.23L327.39,101.43L336.24,98.99L340.67,97.13L349.52,99.81L353.94,97.19L358.36,97.17L362.79,94.57L376.06,90.9L380.48,91.9L384.91,91.89L389.33,93.79L393.76,93.93L398.18,91.97L402.61,97.78L407.03,97.27L411.45,97.34L415.88,98.51L420.3,99.4L424.73,101.84L429.15,102.81L433.58,102.79L438,104.73" style="vector-effect: none; fill: none; stroke: rgb(239, 85, 59); stroke-opacity: 1; stroke-width: 2px; opacity: 1;"/></g><g class="points"/><g class="text"/></g><g class="trace scatter trace0ed290" style="stroke-miterlimit: 2; opacity: 1;"><g class="fills"/><g class="errorbars"/><g class="lines"><path class="js-line" d="M0,90.83L13.27,91.31L17.7,93.03L30.97,93.49L35.39,92.81L39.82,94.18L44.24,97.38L48.67,95.81L53.09,95.74L57.52,96.32L61.94,94.35L70.79,98.58L75.21,98.32L79.64,96.19L84.06,95.29L88.48,97.61L92.91,98.5L97.33,100.98L101.76,101.82L106.18,99.57L110.61,98.96L115.03,97.07L119.45,99.47L123.88,99.82L128.3,96.51L132.73,96.68L137.15,99.9L141.58,101.65L146,100.09L154.85,99.29L159.27,100.59L163.7,100.99L168.12,98.87L176.97,94.62L181.39,92.78L185.82,91.79L190.24,95.19L194.67,99.67L199.09,97.83L203.52,92.57L207.94,92.42L212.36,89.2L216.79,88.95L221.21,90.05L225.64,91.94L234.48,94.38L238.91,94.07L243.33,94.45L247.76,92.65L256.61,102.35L261.03,98.76L265.45,94.6L269.88,73.49L274.3,70.19L278.73,57.4L283.15,47.88L287.58,41.04L292,32.68L296.42,26.11L300.85,21.47L305.27,24.41L309.7,16.31L314.12,15.51L318.55,10.66L322.97,10.08L331.82,8.84L336.24,9.68L340.67,12.04L345.09,10.03L358.36,10.13L362.79,8.36L371.64,7.8L376.06,5.95L380.48,5.74L384.91,7.47L389.33,9.46L393.76,9.81L398.18,10.56L402.61,7.98L407.03,8.23L411.45,9.32L415.88,10.32L420.3,13.27L424.73,14.31L429.15,16.24L433.58,13.94L438,16.69" style="vector-effect: none; fill: none; stroke: rgb(0, 204, 150); stroke-opacity: 1; stroke-width: 2px; opacity: 1;"/></g><g class="points"/><g class="text"/></g></g></g></g><g class="zerolinelayer-above"/><path class="xlines-above crisp" d="M0,0" style="fill: none;"/><path class="ylines-above crisp" d="M0,0" style="fill: none;"/><g class="overlines-above"/><g class="xaxislayer-above"><g class="x2tick"><text text-anchor="middle" x="0" y="383" transform="translate(192.38,0)" style="font-family: 'Open Sans', verdana, arial, sans-serif; font-size: 12px; fill: rgb(42, 63, 95); fill-opacity: 1; white-space: pre;">50M</text></g><g class="x2tick"><text text-anchor="middle" x="0" y="383" style="font-family: 'Open Sans', verdana, arial, sans-serif; font-size: 12px; fill: rgb(42, 63, 95); fill-opacity: 1; white-space: pre;" transform="translate(302.99,0)">100M</text></g><g class="x2tick"><text text-anchor="middle" x="0" y="383" style="font-family: 'Open Sans', verdana, arial, sans-serif; font-size: 12px; fill: rgb(42, 63, 95); fill-opacity: 1; white-space: pre;" transform="translate(413.6,0)">150M</text></g></g><g class="yaxislayer-above"><g class="y2tick"><text text-anchor="end" x="81" y="4.199999999999999" transform="translate(0,346.01)" style="font-family: 'Open Sans', verdana, arial, sans-serif; font-size: 12px; fill: rgb(42, 63, 95); fill-opacity: 1; white-space: pre;">0</text></g><g class="y2tick"><text text-anchor="end" x="81" y="4.199999999999999" style="font-family: 'Open Sans', verdana, arial, sans-serif; font-size: 12px; fill: rgb(42, 63, 95); fill-opacity: 1; white-space: pre;" transform="translate(0,317.68)">5</text></g><g class="y2tick"><text text-anchor="end" x="81" y="4.199999999999999" style="font-family: 'Open Sans', verdana, arial, sans-serif; font-size: 12px; fill: rgb(42, 63, 95); fill-opacity: 1; white-space: pre;" transform="translate(0,289.35)">10</text></g><g class="y2tick"><text text-anchor="end" x="81" y="4.199999999999999" style="font-family: 'Open Sans', verdana, arial, sans-serif; font-size: 12px; fill: rgb(42, 63, 95); fill-opacity: 1; white-space: pre;" transform="translate(0,261.03)">15</text></g></g><g class="overaxes-above"/></g></g><g class="polarlayer"/><g class="smithlayer"/><g class="ternarylayer"/><g class="geolayer"/><g class="funnelarealayer"/><g class="pielayer"/><g class="iciclelayer"/><g class="treemaplayer"/><g class="sunburstlayer"/><g class="glimages"/><defs id="topdefs-936493"><g class="clips"/></defs><g class="layer-above"><g class="imagelayer"/><g class="shapelayer"/></g><g class="infolayer"><g class="g-gtitle"/><g class="g-xtitle"/><g class="g-x2title"><text class="x2title" x="301" y="411.3" text-anchor="middle" style="opacity: 1; font-family: 'Open Sans', verdana, arial, sans-serif; font-size: 14px; fill: rgb(42, 63, 95); fill-opacity: 1; white-space: pre;">time</text></g><g class="g-ytitle"><text class="ytitle" transform="rotate(-90,17.271874999999994,157.375)" x="17.271874999999994" y="157.375" text-anchor="middle" style="opacity: 1; font-family: 'Open Sans', verdana, arial, sans-serif; font-size: 14px; fill: rgb(42, 63, 95); fill-opacity: 1; white-space: pre;">a</text></g><g class="g-y2title"><text class="y2title" transform="rotate(-90,47.865625,312.625)" x="47.865625" y="312.625" text-anchor="middle" style="opacity: 1; font-family: 'Open Sans', verdana, arial, sans-serif; font-size: 14px; fill: rgb(42, 63, 95); fill-opacity: 1; white-space: pre;">gamma</text></g></g></svg>