<svg class="main-svg" xmlns="http://www.w3.org/2000/svg" xmlns:xlink="http://www.w3.org/1999/xlink" width="600" height="350" style="" viewBox="0 0 600 350"><rect x="0" y="0" width="600" height="350" style="fill: rgb(255, 255, 255); fill-opacity: 1;"/><defs id="defs-b8b7e9"><g class="clips"><clipPath id="clipb8b7e9xyplot" class="plotclip"><rect width="440" height="170"/></clipPath><clipPath class="axesclip" id="clipb8b7e9x"><rect x="80" y="0" width="440" height="350"/></clipPath><clipPath class="axesclip" id="clipb8b7e9y"><rect x="0" y="100" width="600" height="170"/></clipPath><clipPath class="axesclip" id="clipb8b7e9xy"><rect x="80" y="100" width="440" height="170"/></clipPath></g><g class="gradients"/><g class="patterns"/></defs><g class="bglayer"/><g class="layer-below"><g class="imagelayer"/><g class="shapelayer"/></g><g class="cartesianlayer"><g class="subplot xy"><g class="layer-subplot"><g class="shapelayer"/><g class="imagelayer"/></g><g class="minor-gridlayer"><g class="x"/><g class="y"/></g><g class="gridlayer"><g class="x"><path class="xgrid crisp" transform="translate(251.44,0)" d="M0,100v170" style="stroke: rgb(235, 240, 248); stroke-opacity: 1; stroke-width: 1px;"/><path class="xgrid crisp" transform="translate(413.31,0)" d="M0,100v170" style="stroke: rgb(235, 240, 248); stroke-opacity: 1; stroke-width: 1px;"/></g><g class="y"><path class="ygrid crisp" transform="translate(0,255.83)" d="M80,0h440" style="stroke: rgb(235, 240, 248); stroke-opacity: 1; stroke-width: 1px;"/><path class="ygrid crisp" transform="translate(0,199.17000000000002)" d="M80,0h440" style="stroke: rgb(235, 240, 248); stroke-opacity: 1; stroke-width: 1px;"/><path class="ygrid crisp" transform="translate(0,142.5)" d="M80,0h440" style="stroke: rgb(235, 240, 248); stroke-opacity: 1; stroke-width: 1px;"/></g></g><g class="zerolinelayer"><path class="xzl zl crisp" transform="translate(89.56,0)" d="M0,100v170" style="stroke: rgb(235, 240, 248); stroke-opacity: 1; stroke-width: 2px;"/></g><g class="layer-between"><g class="shapelayer"/><g class="imagelayer"/></g><path class="xlines-below"/><path class="ylines-below"/><g class="overlines-below"/><g class="xaxislayer-below"/><g class="yaxislayer-below"/><g class="overaxes-below"/><g class="overplot"><g class="xy" transform="translate(80,100)" clip-path="url(#clipb8b7e9xyplot)"><g class="scatterlayer mlayer"><g class="trace scatter trace0f4d9d" style="stroke-miterlimit: 2; opacity: 1;"><g class="fills"/><g class="errorbars"/><g class="lines"><path class="js-line" d="M25.75,124.32L48.41,103.51L90.5,85.98L132.59,66.63L171.44,55.88L210.29,54.86L252.38,51.92L333.31,51.3L372.16,52.46L414.25,52.76" style="vector-effect: none; fill: none; stroke: rgb(136, 204, 238); stroke-opacity: 1; stroke-width: 2px; opacity: 1;"/></g><g class="points"><path class="point" transform="translate(25.75,124.32)" d="M3,0A3,3 0 1,1 0,-3A3,3 0 0,1 3,0Z" style="opacity: 1; stroke-width: 0px; fill: rgb(136, 204, 238); fill-opacity: 1;"/><path class="point" transform="translate(48.41,103.51)" d="M3,0A3,3 0 1,1 0,-3A3,3 0 0,1 3,0Z" style="opacity: 1; stroke-width: 0px; fill: rgb(136, 204, 238); fill-opacity: 1;"/><path class="point" transform="translate(90.5,85.98)" d="M3,0A3,3 0 1,1 0,-3A3,3 0 0,1 3,0Z" style="opacity: 1; stroke-width: 0px; fill: rgb(136, 204, 238); fill-opacity: 1;"/><path class="point" transform="translate(132.59,66.63)" d="M3,0A3,3 0 1,1 0,-3A3,3 0 0,1 3,0Z" style="opacity: 1; stroke-width: 0px; fill: rgb(136, 204, 238); fill-opacity: 1;"/><path class="point" transform="translate(171.44,55.88)" d="M3,0A3,3 0 1,1 0,-3A3,3 0 0,1 3,0Z" style="opacity: 1; stroke-width: 0px; fill: rgb(136, 204, 238); fill-opacity: 1;"/><path class="point" transform="translate(210.29,54.86)" d="M3,0A3,3 0 1,1 0,-3A3,3 0 0,1 3,0Z" style="opacity: 1; stroke-width: 0px; fill: rgb(136, 204, 238); fill-opacity: 1;"/><path class="point" transform="translate(252.38,51.92)" d="M3,0A3,3 0 1,1 0,-3A3,3 0 0,1 3,0Z" style="opacity: 1; stroke-width: 0px; fill: rgb(136, 204, 238); fill-opacity: 1;"/><path class="point" transform="translate(294.46,51.27)" d="M3,0A3,3 0 1,1 0,-3A3,3 0 0,1 3,0Z" style="opacity: 1; stroke-width: 0px; fill: rgb(136, 204, 238); fill-opacity: 1;"/><path class="point" transform="translate(333.31,51.3)" d="M3,0A3,3 0 1,1 0,-3A3,3 0 0,1 3,0Z" style="opacity: 1; stroke-width: 0px; fill: rgb(136, 204, 238); fill-opacity: 1;"/><path class="point" transform="translate(372.16,52.46)" d="M3,0A3,3 0 1,1 0,-3A3,3 0 0,1 3,0Z" style="opacity: 1; stroke-width: 0px; fill: rgb(136, 204, 238); fill-opacity: 1;"/><path class="point" transform="translate(414.25,52.76)" d="M3,0A3,3 0 1,1 0,-3A3,3 0 0,1 3,0Z" style="opacity: 1; stroke-width: 0px; fill: rgb(136, 204, 238); fill-opacity: 1;"/></g><g class="text"/></g><g class="trace scatter traced1c547" style="stroke-miterlimit: 2; opacity: 0.2;"><g class="fills"><g><path class="js-fill" d="M25.75,91.26L48.41,69.84L90.5,47.17L132.59,29.46L171.44,20.84L210.29,20.62L252.38,22.77L294.46,24.57L333.31,27.88L414.25,30.85L414.25,74.67L372.16,75.78L333.31,74.72L252.38,81.06L210.29,89.1L171.44,90.92L132.59,103.79L90.5,124.78L48.41,137.18L25.75,157.39Z" style="fill: rgb(136, 204, 238); fill-opacity: 1; stroke-width: 0;"/></g></g><g class="errorbars"/><g class="lines"><path class="js-line" d="M25.75,91.26L48.41,69.84L90.5,47.17L132.59,29.46L171.44,20.84L210.29,20.62L252.38,22.77L294.46,24.57L333.31,27.88L414.25,30.85L414.25,74.67L372.16,75.78L333.31,74.72L252.38,81.06L210.29,89.1L171.44,90.92L132.59,103.79L90.5,124.78L48.41,137.18L25.75,157.39" style="vector-effect: none; fill: none; stroke: rgb(0, 0, 0); stroke-opacity: 0; stroke-width: 2px; opacity: 1;"/></g><g class="points"/><g class="text"/></g></g></g></g><g class="zerolinelayer-above"/><path class="xlines-above crisp" d="M0,0" style="fill: none;"/><path class="ylines-above crisp" d="M0,0" style="fill: none;"/><g class="overlines-above"/><g class="xaxislayer-above"><g class="xtick"><text text-anchor="middle" x="0" y="283" transform="translate(89.56,0)" style="font-family: 'Open Sans', verdana, arial, sans-serif; font-size: 12px; fill: rgb(42, 63, 95); fill-opacity: 1; white-space: pre;">0</text></g><g class="xtick"><text text-anchor="middle" x="0" y="283" style="font-family: 'Open Sans', verdana, arial, sans-serif; font-size: 12px; fill: rgb(42, 63, 95); fill-opacity: 1; white-space: pre;" transform="translate(251.44,0)">50</text></g><g class="xtick"><text text-anchor="middle" x="0" y="283" style="font-family: 'Open Sans', verdana, arial, sans-serif; font-size: 12px; fill: rgb(42, 63, 95); fill-opacity: 1; white-space: pre;" transform="translate(413.31,0)">100</text></g></g><g class="yaxislayer-above"><g class="ytick"><text text-anchor="end" x="79" y="4.199999999999999" transform="translate(0,255.83)" style="font-family: 'Open Sans', verdana, arial, sans-serif; font-size: 12px; fill: rgb(42, 63, 95); fill-opacity: 1; white-space: pre;">200</text></g><g class="ytick"><text text-anchor="end" x="79" y="4.199999999999999" style="font-family: 'Open Sans', verdana, arial, sans-serif; font-size: 12px; fill: rgb(42, 63, 95); fill-opacity: 1; white-space: pre;" transform="translate(0,199.17000000000002)">400</text></g><g class="ytick"><text text-anchor="end" x="79" y="4.199999999999999" style="font-family: 'Open Sans', verdana, arial, sans-serif; font-size: 12px; fill: rgb(42, 63, 95); fill-opacity: 1; white-space: pre;" transform="translate(0,142.5)">600</text></g></g><g class="overaxes-above"/></g></g><g class="polarlayer"/><g class="smithlayer"/><g class="ternarylayer"/><g class="geolayer"/><g class="funnelarealayer"/><g class="pielayer"/><g class="iciclelayer"/><g class="treemaplayer"/><g class="sunburstlayer"/><g class="glimages"/><defs id="topdefs-b8b7e9"><g class="clips"/></defs><g class="layer-above"><g class="imagelayer"/><g class="shapelayer"/></g><g class="infolayer"><g class="g-gtitle"/><g class="g-xtitle"><text class="xtitle" x="300" y="311.3" text-anchor="middle" style="opacity: 1; font-family: 'Open Sans', verdana, arial, sans-serif; font-size: 14px; fill: rgb(42, 63, 95); fill-opacity: 1; white-space: pre;">n</text></g><g class="g-ytitle"><text class="ytitle" transform="rotate(-90,39.00625,185)" x="39.00625" y="185" text-anchor="middle" style="opacity: 1; font-family: 'Open Sans', verdana, arial, sans-serif; font-size: 14px; fill: rgb(42, 63, 95); fill-opacity: 1; white-space: pre;">mean chem. concentration</text></g></g></svg>